<svg width="391" height="511" viewBox="0 0 391 511" fill="none" xmlns="http://www.w3.org/2000/svg">
<g clip-path="url(#clip0_1_3074)">
<mask id="mask0_1_3074" style="mask-type:luminance" maskUnits="userSpaceOnUse" x="17" y="56" width="356" height="441">
<path d="M17.6995 56.8274V185.491C45.0624 409.477 196.234 496.718 196.234 496.718C196.234 496.718 361.111 384.266 372.651 185.491V56.8274H17.6995Z" fill="white"/>
</mask>
<g mask="url(#mask0_1_3074)">
<path d="M326.804 615.765L-129.834 439.901L63.5466 -62.2183L520.187 113.646L326.804 615.765Z" fill="url(#paint0_linear_1_3074)"/>
</g>
<mask id="mask1_1_3074" style="mask-type:luminance" maskUnits="userSpaceOnUse" x="0" y="-2" width="391" height="513">
<path d="M390.5 -1.81519H0V510.186H390.5V-1.81519Z" fill="white"/>
</mask>
<g mask="url(#mask1_1_3074)">
<path d="M231.905 239.671C234.4 239.898 236.926 240.034 239.473 240.065C236.924 240.034 234.4 239.898 231.905 239.671Z" fill="white"/>
</g>
<mask id="mask2_1_3074" style="mask-type:luminance" maskUnits="userSpaceOnUse" x="0" y="-2" width="391" height="513">
<path d="M390.5 -1.81519H0V510.186H390.5V-1.81519Z" fill="white"/>
</mask>
<g mask="url(#mask2_1_3074)">
<path d="M226.281 239.039V239.061L226.294 239.039H226.281Z" fill="white"/>
</g>
<mask id="mask3_1_3074" style="mask-type:luminance" maskUnits="userSpaceOnUse" x="0" y="-2" width="391" height="513">
<path d="M390.5 -1.81519H0V510.186H390.5V-1.81519Z" fill="white"/>
</mask>
<g mask="url(#mask3_1_3074)">
<path d="M155.219 224.569L115.348 223.512L114.631 239.339C114.631 239.339 108.774 239 102.598 239.339C96.4131 239.711 96.0646 248.29 96.0646 248.29C96.0646 248.29 91.2433 247.948 86.0963 249.317C80.9443 250.698 81.6317 258.615 81.6317 258.615C81.6317 258.615 68.2104 258.964 63.7426 264.116C59.2699 269.295 58.5939 279.928 63.0731 286.124C67.5295 292.32 92.9698 328.755 99.5046 343.201C106.039 357.663 107.082 406.501 107.082 406.501L107.468 407.667L107.485 407.678C130.29 435.826 159.018 462.929 195.295 487.256C207.583 479.027 219.006 470.437 229.613 461.613L163.476 385.274L167.527 381.763L168.811 381.693C169.241 381.665 169.66 381.646 170.103 381.646C172.486 381.669 174.814 381.944 177.481 381.934C181.726 381.934 186.728 381.333 193.194 377.924C195.85 376.494 197.589 374.505 198.756 372.081C199.93 369.645 200.465 366.819 200.433 364.091C200.465 361.163 199.771 358.354 198.991 356.83C197.745 354.28 194.918 352.284 191.803 351.039C188.71 349.766 185.567 349.262 184.439 349.136C184.11 349.077 183.999 349.077 183.999 349.077H183.801L180.04 348.41L167.621 334.572L173.507 329.489L184.043 341.205L184.858 341.345C185.663 341.434 188.632 341.787 192.192 342.94L177.536 326.002L183.419 320.891L270.939 421.939C271.979 420.775 272.984 419.621 273.993 418.46L186.885 317.915L192.763 312.819L279.127 412.486C280.114 411.304 281.105 410.092 282.074 408.918L196.221 309.827L198.259 308.063C198.259 308.063 201.23 308.908 205.897 309.083L287.023 402.735C287.98 401.501 288.949 400.281 289.894 399.041L211.857 308.968C214.582 308.762 217.584 308.259 220.75 307.34L294.669 392.657C295.583 391.384 296.489 390.129 297.405 388.84L225.354 305.688C227.966 304.368 229.829 302.546 231.13 300.475L301.995 382.26C302.875 380.96 303.781 379.619 304.632 378.308L233.17 295.823C234.486 291.208 234.097 286.565 233.851 284.717L309.024 371.486C309.876 370.134 310.724 368.776 311.558 367.414L230.028 273.314V261.43L315.766 360.391C316.692 358.786 317.621 357.19 318.52 355.57L216.203 237.017C215.165 236.751 214.157 236.438 213.136 236.151C208.978 234.929 204.936 233.438 201.013 231.708C200.269 231.374 199.535 230.998 198.802 230.633C196.315 229.45 193.878 228.179 191.5 226.793C190.673 226.308 189.855 225.804 189.039 225.293C186.739 223.854 184.516 222.336 182.349 220.71C181.671 220.211 180.987 219.718 180.318 219.183C177.751 217.163 175.297 215.027 172.95 212.77C172.815 212.645 172.661 212.535 172.528 212.404C163.059 213.953 155.219 224.569 155.219 224.569Z" fill="white"/>
</g>
<mask id="mask4_1_3074" style="mask-type:luminance" maskUnits="userSpaceOnUse" x="0" y="-2" width="391" height="513">
<path d="M390.5 -1.81348H0V510.187H390.5V-1.81348Z" fill="white"/>
</mask>
<g mask="url(#mask4_1_3074)">
<path d="M28.0309 233.947C32.2231 256.065 38.6865 280.645 48.6711 306.255C49.4362 308.194 50.2824 310.154 51.0752 312.108C50.2824 310.154 49.4346 308.194 48.6711 306.244C38.6865 280.643 32.2231 256.064 28.0309 233.947Z" fill="white"/>
</g>
<mask id="mask5_1_3074" style="mask-type:luminance" maskUnits="userSpaceOnUse" x="0" y="-2" width="391" height="513">
<path d="M390.5 -1.81348H0V510.187H390.5V-1.81348Z" fill="white"/>
</mask>
<g mask="url(#mask5_1_3074)">
<path d="M0.064845 25.9696V79.8914H0L0.110237 154.426C0.077814 156.112 0.064845 157.895 0.064845 159.785C0.064845 161.619 0.090783 163.6 0.123206 165.618V165.933H0.12969C0.257759 173.471 0.637102 182.202 1.42335 191.983C4.03498 224.092 11.2166 267.264 29.3521 313.799C54.546 378.504 101.173 449.795 185.664 505.797L195.179 511.866L204.863 505.816C212.792 500.556 220.387 495.173 227.651 489.699C293.004 440.221 332.553 381.413 356.142 326.238L356.241 326.001L356.43 325.52C358.11 321.6 359.703 317.685 361.234 313.784C362.824 309.657 364.346 305.576 365.778 301.511C386.933 241.754 390.493 188.876 390.508 159.781C390.508 158.688 390.49 157.702 390.48 156.679L390.508 156.666V91.904V79.8931V25.9712C262.994 -11.0748 127.57 -11.0748 0.064845 25.9696ZM318.504 344.637L290.186 312.961V219.321C304.571 203.844 311.517 182.8 311.175 159.688C310.867 138.095 304.488 117.72 290.186 101.744V70.7094C298.362 71.8328 310.387 73.9646 318.53 75.3734L318.506 344.637H318.504ZM260.526 278.47L257.931 275.741L231.748 245.394C232.852 245.378 233.958 245.378 235.057 245.326C243.067 244.875 253.324 241.644 260.526 239.06V278.47ZM235.577 456.599L177.622 389.721C179.36 389.721 181.297 389.604 183.378 389.286L239.004 453.574C237.866 454.551 236.715 455.586 235.577 456.599ZM244.795 448.354L191.765 387.122C193.191 386.573 194.639 385.919 196.143 385.166L248.146 445.262C247.051 446.297 245.926 447.321 244.795 448.354ZM253.769 439.853L202.394 380.493C203.454 379.3 204.343 378.037 205.115 376.7L257.02 436.623C255.932 437.698 254.872 438.758 253.769 439.853ZM262.48 431.034L207.937 368.089C208.123 366.737 208.219 365.42 208.219 364.088C208.219 363.141 208.169 362.184 208.075 361.251L265.652 427.691C264.613 428.818 263.535 429.944 262.48 431.034ZM315.764 360.392L230.025 261.432V273.316L311.554 367.416C310.716 368.778 309.875 370.136 309.021 371.488L233.844 284.719C234.095 286.567 234.483 291.21 233.166 295.825L304.629 378.31C303.779 379.621 302.875 380.962 301.991 382.262L231.127 300.476C229.824 302.545 227.964 304.367 225.351 305.69L297.402 388.842C296.489 390.131 295.585 391.384 294.665 392.658L220.745 307.342C217.579 308.261 214.574 308.764 211.854 308.969L289.891 399.042C288.949 400.286 287.977 401.507 287.02 402.737L205.894 309.085C201.227 308.909 198.254 308.065 198.254 308.065L196.218 309.829L282.076 408.915C281.1 410.092 280.113 411.303 279.127 412.483L192.763 312.816L186.885 317.912L273.995 418.457C272.985 419.618 271.978 420.772 270.937 421.936L183.419 320.888L177.536 325.999L192.193 342.937C188.633 341.784 185.663 341.426 184.859 341.342L184.043 341.202L173.507 329.486L167.621 334.569L180.041 348.407L183.802 349.073H183.998C183.998 349.073 184.108 349.073 184.437 349.133C185.565 349.259 188.709 349.763 191.802 351.036C194.916 352.284 197.743 354.275 198.988 356.827C199.766 358.351 200.46 361.162 200.429 364.088C200.464 366.816 199.924 369.642 198.755 372.078C197.586 374.5 195.848 376.493 193.191 377.921C186.726 381.33 181.727 381.931 177.479 381.931C174.812 381.941 172.485 381.666 170.101 381.643C169.662 381.643 169.239 381.666 168.808 381.69L167.524 381.76L163.473 385.271L229.61 461.61C219.003 470.433 207.579 479.024 195.292 487.253C159.01 462.929 130.287 435.826 107.481 407.685L107.464 407.667C81.9301 376.204 63.9161 343.496 51.0719 312.108C50.2824 310.158 49.433 308.195 48.6711 306.259C38.6849 280.645 32.2215 256.069 28.0293 233.95C23.3491 209.201 21.5626 187.643 21.0309 171.229V86.2187C98.5936 66.2724 181.303 60.2823 260.523 67.4007V80.1249C250.829 76.2293 237.882 72.4813 227.232 72.4083C180.577 72.0031 144.327 111.275 145.031 158.586C145.718 203.838 179.687 241.252 223.119 245.045L318.517 355.575C317.613 357.193 316.688 358.787 315.764 360.392ZM346.906 292.627C346.906 292.637 347.328 292.643 347.324 292.651V80.809C354.871 82.482 361.967 84.2717 369.469 86.1976V171.232L369.55 171.175C368.636 199.618 363.933 243.748 346.906 292.627Z" fill="black"/>
</g>
<mask id="mask6_1_3074" style="mask-type:luminance" maskUnits="userSpaceOnUse" x="0" y="-2" width="391" height="513">
<path d="M390.5 -1.81519H0V510.186H390.5V-1.81519Z" fill="white"/>
</mask>
<g mask="url(#mask6_1_3074)">
<path d="M164.653 197.632L194.567 206.237L212.497 233.242C217.887 234.532 223.475 235.268 229.196 235.318C234.844 235.347 240.316 234.707 245.575 233.537L262.236 207.27L292.517 198.728C298.003 189.228 301.455 178.342 302.316 166.647L282.76 141.779L283.57 109.512C282.402 108.143 281.192 106.794 279.936 105.523C273.236 98.7352 265.349 93.2039 256.616 89.3246L227.807 100.172L197.991 88.6761C189.145 92.4679 181.23 97.996 174.585 104.842C173.452 106.024 172.373 107.248 171.288 108.507L173.165 140.095L153.999 165.386C155.187 177.053 158.909 188.017 164.653 197.632ZM228.217 126.941L260.411 150.853L248.825 189.043L209.438 188.785L196.758 150.422L228.217 126.941Z" fill="white"/>
</g>
<mask id="mask7_1_3074" style="mask-type:luminance" maskUnits="userSpaceOnUse" x="0" y="-2" width="391" height="513">
<path d="M390.5 -1.81519H0V510.186H390.5V-1.81519Z" fill="white"/>
</mask>
<g mask="url(#mask7_1_3074)">
<path d="M260.411 150.423L228.217 126.511L196.761 149.99L209.438 188.354L248.825 188.612L260.411 150.423Z" fill="black"/>
</g>
<mask id="mask8_1_3074" style="mask-type:luminance" maskUnits="userSpaceOnUse" x="0" y="-2" width="391" height="513">
<path d="M390.5 -1.81519H0V510.186H390.5V-1.81519Z" fill="white"/>
</mask>
<g mask="url(#mask8_1_3074)">
<path d="M177.622 389.722L235.577 456.6C236.715 455.587 237.866 454.551 239.002 453.577L183.378 389.289C181.297 389.604 179.36 389.722 177.622 389.722Z" fill="white"/>
</g>
<mask id="mask9_1_3074" style="mask-type:luminance" maskUnits="userSpaceOnUse" x="0" y="-2" width="391" height="513">
<path d="M390.5 -1.81519H0V510.186H390.5V-1.81519Z" fill="white"/>
</mask>
<g mask="url(#mask9_1_3074)">
<path d="M191.765 387.122L244.795 448.354C245.925 447.321 247.055 446.295 248.144 445.262L196.142 385.164C194.639 385.918 193.191 386.571 191.765 387.122Z" fill="white"/>
</g>
<mask id="mask10_1_3074" style="mask-type:luminance" maskUnits="userSpaceOnUse" x="0" y="-2" width="391" height="513">
<path d="M390.5 -1.81519H0V510.186H390.5V-1.81519Z" fill="white"/>
</mask>
<g mask="url(#mask10_1_3074)">
<path d="M202.393 380.493L253.768 439.852C254.873 438.76 255.93 437.696 257.017 436.621L205.11 376.698C204.341 378.037 203.453 379.299 202.393 380.493Z" fill="white"/>
</g>
<mask id="mask11_1_3074" style="mask-type:luminance" maskUnits="userSpaceOnUse" x="0" y="-2" width="391" height="513">
<path d="M390.5 -1.81519H0V510.186H390.5V-1.81519Z" fill="white"/>
</mask>
<g mask="url(#mask11_1_3074)">
<path d="M208.075 361.252C208.172 362.186 208.221 363.142 208.221 364.089C208.221 365.417 208.123 366.738 207.938 368.088L262.483 431.035C263.535 429.944 264.615 428.819 265.655 427.694L208.075 361.252Z" fill="white"/>
</g>
<mask id="mask12_1_3074" style="mask-type:luminance" maskUnits="userSpaceOnUse" x="21" y="35" width="23" height="31">
<path d="M32.0075 41.4429C32.0869 41.0636 32.1906 40.8561 32.5084 40.7815C32.8423 40.7134 32.9088 40.8755 32.9818 41.2305C33.7113 44.4128 34.4408 47.587 35.1768 50.7725C33.3919 51.1632 31.607 51.5733 29.8238 51.9656C30.5549 48.464 31.2796 44.9608 32.0075 41.4429ZM32.5084 35.6263C30.0281 36.1759 27.3791 37.335 26.5507 41.0133C24.7724 48.9422 22.9908 56.8776 21.2108 64.8131C21.2205 64.8925 21.1605 64.9817 21.1735 65.0125C21.1605 65.3691 21.4345 65.5328 21.7863 65.4502C23.4609 65.0514 25.1306 64.6477 26.8069 64.2684C27.1668 64.1792 27.4456 63.8177 27.5267 63.4383C27.9579 61.3568 28.381 59.2623 28.8171 57.1792C31.2731 56.6102 33.7258 56.059 36.1851 55.5305C36.6131 57.424 37.0459 59.3207 37.4755 61.2061C37.5501 61.5562 37.8322 61.7848 38.2034 61.7037C39.8748 61.3438 41.5559 60.9969 43.2402 60.6435C43.6001 60.5673 43.8449 60.2966 43.8449 59.9351C43.8514 59.9059 43.8125 59.8378 43.8125 59.7584C42.0211 52.6108 40.233 45.4811 38.4579 38.3563C37.8727 36.0219 36.3829 35.3442 34.6856 35.3442C33.9804 35.3442 33.2363 35.4626 32.5084 35.6263Z" fill="white"/>
</mask>
<g mask="url(#mask12_1_3074)">
<path d="M6.68225 54.7086L29.297 24.4632L58.3281 46.1685L35.715 76.4154L6.68225 54.7086Z" fill="url(#paint1_linear_1_3074)"/>
</g>
<mask id="mask13_1_3074" style="mask-type:luminance" maskUnits="userSpaceOnUse" x="46" y="30" width="18" height="30">
<path d="M62.7084 30.0334C61.4374 30.0821 59.6298 30.1129 55.7246 30.8521C51.0671 31.7389 46.9235 33.7539 46.9235 40.3649V59.1537C46.9235 59.5606 47.2509 59.8184 47.6513 59.7389C49.2092 59.4277 50.7736 59.1132 52.3364 58.8019C52.732 58.7241 53.0627 58.3415 53.0627 57.9411V47.326C56.172 46.7245 59.2926 46.1361 62.4133 45.5719C62.7991 45.5022 63.1412 45.1131 63.1315 44.7192V41.2614C63.1315 40.8561 62.8154 40.587 62.4133 40.6648C59.2926 41.2208 56.172 41.8174 53.0627 42.4188V39.1474C53.0627 37.2491 53.6738 36.5471 55.3695 36.2261C57.8174 35.7625 60.2556 35.3102 62.7067 34.8628C63.1039 34.7979 63.4298 34.404 63.4298 34.0149V30.63C63.4346 30.1874 63.2304 30.0318 62.7878 30.0318C62.7619 30.0318 62.7359 30.0318 62.7084 30.0334Z" fill="white"/>
</mask>
<g mask="url(#mask13_1_3074)">
<path d="M32.6381 49.1384L52.8454 22.1126L77.7199 40.7118L57.5142 67.7375L32.6381 49.1384Z" fill="url(#paint2_linear_1_3074)"/>
</g>
<mask id="mask14_1_3074" style="mask-type:luminance" maskUnits="userSpaceOnUse" x="67" y="26" width="18" height="29">
<path d="M78.1172 26.9063C72.6037 27.7753 67.3902 31.5606 67.3934 40.2207V44.7987C67.3902 53.4523 72.6118 55.4398 78.1172 54.5676C80.6526 54.1591 82.7585 53.4782 83.5188 53.107C84.0343 52.8962 84.3228 52.6709 84.3228 52.1538V48.6294C84.3228 48.2031 84.0943 47.9275 83.6274 47.9939C83.595 48.0053 83.548 48.0166 83.5188 48.0166C82.1343 48.3392 80.1485 48.8386 78.148 49.1482C75.6482 49.5551 73.6494 48.5613 73.6494 43.7336V39.1588C73.6494 34.3149 75.6482 32.6824 78.148 32.2804C80.1468 31.9691 82.1343 31.8329 83.5188 31.7389C83.548 31.7292 83.6031 31.7179 83.6274 31.7097C84.1008 31.6498 84.3228 31.3288 84.3228 30.8911V27.3635C84.3066 26.8464 84.0343 26.754 83.5188 26.6891C83.2043 26.6275 82.6547 26.5854 81.9366 26.5854C80.9331 26.5854 79.6005 26.6713 78.1172 26.9063Z" fill="white"/>
</mask>
<g mask="url(#mask14_1_3074)">
<path d="M53.5522 45.0938L73.4629 18.462L98.1672 36.9314L78.255 63.5633L53.5522 45.0938Z" fill="url(#paint3_linear_1_3074)"/>
</g>
<mask id="mask15_1_3074" style="mask-type:luminance" maskUnits="userSpaceOnUse" x="97" y="22" width="21" height="30">
<path d="M103.917 38.9999C105.274 38.8329 106.639 38.6708 107.998 38.5022C110.913 38.1683 111.858 39.5559 111.858 41.3019V41.6991C111.858 43.7417 110.65 45.0337 106.897 45.4747C106.39 45.5314 104.495 45.7195 103.917 45.7973C103.917 43.5277 103.917 41.2727 103.917 38.9999ZM103.917 28.3977C104.423 28.2907 106.096 28.0784 106.677 28.0103C110.429 27.5596 111.713 28.3394 111.713 30.3334V30.8813C111.713 32.4489 110.866 33.848 107.996 34.1819C106.638 34.344 105.273 34.511 103.916 34.6796C103.916 32.5754 103.916 30.4825 103.917 28.3977ZM106.208 22.9848C103.88 23.2555 100.933 23.8521 99.6927 24.1958C98.271 24.5994 97.7668 25.1766 97.7668 26.8025V48.9066C97.7668 50.5472 98.318 50.9476 99.7673 51.0141C101.183 51.0838 104.029 50.9103 106.424 50.6153C112.723 49.8679 117.911 47.587 117.904 41.1917V40.647C117.904 38.1488 116.593 36.3396 114.662 35.615C116.586 34.451 117.713 32.3111 117.721 29.9346V29.2796C117.721 24.5135 114.555 22.7643 109.578 22.7643C108.531 22.7643 107.403 22.8421 106.208 22.9848Z" fill="white"/>
</mask>
<g mask="url(#mask15_1_3074)">
<path d="M84.1866 40.929L104.991 13.104L131.491 32.9191L110.687 60.7441L84.1866 40.929Z" fill="url(#paint4_linear_1_3074)"/>
</g>
<mask id="mask16_1_3074" style="mask-type:luminance" maskUnits="userSpaceOnUse" x="121" y="20" width="23" height="29">
<path d="M127.798 36.7044V32.3695C127.798 28.0103 129.222 26.0244 132.29 25.757C135.366 25.5073 136.808 27.2452 136.815 31.6092V35.9311C136.815 40.3001 135.356 42.2665 132.29 42.5178C132.091 42.5356 131.898 42.5453 131.712 42.5453C129.042 42.5421 127.798 40.7799 127.798 36.7044ZM132.289 20.3051C126.269 20.8125 121.489 24.5411 121.489 32.9661V37.301C121.489 45.739 126.26 48.4819 132.289 47.9648C138.314 47.459 143.095 43.8974 143.103 35.4691V31.1359C143.103 23.3091 138.981 20.25 133.574 20.25C133.154 20.25 132.725 20.2678 132.289 20.3051Z" fill="white"/>
</mask>
<g mask="url(#mask16_1_3074)">
<path d="M107.949 38.3596L129.239 9.88452L156.643 30.3739L135.353 58.8474L107.949 38.3596Z" fill="url(#paint5_linear_1_3074)"/>
</g>
<mask id="mask17_1_3074" style="mask-type:luminance" maskUnits="userSpaceOnUse" x="147" y="18" width="22" height="29">
<path d="M167.799 18.4765C166.212 18.5365 164.627 18.5948 163.037 18.6694C162.636 18.6791 162.304 18.9936 162.307 19.3827V35.5664C162.307 39.2771 161.291 40.8756 157.992 41.0344C154.707 41.2014 153.718 39.7132 153.718 35.9911V19.822C153.718 19.4232 153.391 19.1509 152.981 19.1671C151.385 19.2579 149.789 19.3535 148.189 19.4621C147.787 19.4816 147.459 19.8026 147.459 20.1868V36.3705C147.457 44.669 152.18 46.5284 157.992 46.2366C163.803 45.9513 168.573 43.6055 168.568 35.3216V19.1411C168.568 18.744 168.205 18.4765 167.817 18.4765C167.817 18.4765 167.801 18.4765 167.799 18.4765Z" fill="white"/>
</mask>
<g mask="url(#mask17_1_3074)">
<path d="M134.004 36.4694L155.028 8.35095L182.025 28.5356L161 56.654L134.004 36.4694Z" fill="url(#paint6_linear_1_3074)"/>
</g>
<mask id="mask18_1_3074" style="mask-type:luminance" maskUnits="userSpaceOnUse" x="173" y="17" width="22" height="29">
<path d="M179.773 30.1713V23.1923C180.209 23.134 182.112 23.0351 182.628 23.014C185.702 22.9637 187.417 23.9802 187.417 26.1898V26.6713C187.417 29.1273 186.214 30.1226 182.362 30.1923C182.223 30.1956 181.915 30.1972 181.556 30.1972C180.884 30.1972 180.032 30.1907 179.773 30.1713ZM182.628 17.7421C179.992 17.7842 176.879 18.0874 175.197 18.3889C174.076 18.5948 173.545 18.9352 173.548 20.1787V44.5733C173.548 44.9705 173.887 45.2818 174.279 45.2704C175.865 45.2299 177.453 45.1926 179.034 45.1537C179.439 45.1407 179.765 44.8181 179.773 44.4129V35.1887C180.144 35.1773 180.642 35.187 181.145 35.1951C181.574 35.2049 182.007 35.2113 182.362 35.2049C182.498 35.1886 182.638 35.1773 182.769 35.166C184.406 38.1926 186.042 41.2419 187.684 44.2913C187.864 44.6609 187.995 45.0094 188.401 45.0094C190.272 44.99 192.142 44.99 194.018 44.9802C194.418 44.9802 194.566 44.7987 194.566 44.5442C194.566 44.4339 194.522 44.2913 194.456 44.1437C192.603 40.7232 190.763 37.3221 188.923 33.9161C191.596 32.838 193.653 30.4728 193.645 26.6194V26.1525C193.645 19.8577 189.059 17.7405 183.019 17.7405C182.889 17.7405 182.759 17.7421 182.628 17.7421Z" fill="white"/>
</mask>
<g mask="url(#mask18_1_3074)">
<path d="M160.337 35.4075L181.083 7.66032L207.773 27.6164L187.029 55.3619L160.337 35.4075Z" fill="url(#paint7_linear_1_3074)"/>
</g>
<mask id="mask19_1_3074" style="mask-type:luminance" maskUnits="userSpaceOnUse" x="198" y="17" width="22" height="29">
<path d="M199.791 17.9788C199.04 17.9788 198.424 18.6013 198.424 19.3535V44.2507C198.424 44.6609 198.752 44.99 199.157 44.99C200.595 44.9997 202.034 45.0094 203.475 45.0208C203.874 45.024 204.216 44.7095 204.21 44.3091V29.5876C204.21 29.3591 204.28 29.2894 204.387 29.2894C204.492 29.2894 204.576 29.3591 204.712 29.5876C207.502 34.391 210.283 39.2252 213.06 44.0643C213.646 45.0548 214.201 45.2218 214.963 45.2428C216.151 45.2704 217.356 45.3012 218.545 45.3401C219.316 45.3709 219.97 44.7792 219.979 44.0043C219.979 35.6944 219.979 27.3732 219.979 19.073C219.979 18.6694 219.645 18.3581 219.249 18.35C217.808 18.3095 216.368 18.2608 214.927 18.2317C214.532 18.2106 214.196 18.4975 214.196 18.8963V34.2711C214.214 34.5321 214.086 34.5921 214.011 34.5921C213.909 34.5921 213.857 34.5223 213.727 34.2954C210.829 29.2359 207.937 24.1958 205.048 19.1622C204.609 18.3889 204.249 18.0193 203.511 18.0193C202.276 17.9998 201.042 17.9885 199.81 17.9788C199.809 17.9788 199.794 17.9788 199.791 17.9788Z" fill="white"/>
</mask>
<g mask="url(#mask19_1_3074)">
<path d="M185.288 35.5485L206.154 7.64087L233.118 27.8012L212.252 55.7089L185.288 35.5485Z" fill="url(#paint8_linear_1_3074)"/>
</g>
<mask id="mask20_1_3074" style="mask-type:luminance" maskUnits="userSpaceOnUse" x="224" y="18" width="18" height="29">
<path d="M224.962 26.0147V38.0791C224.962 44.6998 229.125 46.0599 233.855 46.3063C237.804 46.4976 239.669 46.3355 240.951 46.2253C241.462 46.188 241.666 45.9886 241.666 45.5022V42.127C241.666 41.7299 241.35 41.3748 240.951 41.3538C238.472 41.2127 236.002 41.0636 233.526 40.9355C231.797 40.8561 231.177 40.2514 231.192 38.3433V34.5029C234.343 34.6504 237.505 34.8239 240.658 35.0103C241.056 35.0395 241.386 34.738 241.386 34.3343V30.8813C241.386 30.4825 241.056 30.1323 240.658 30.1032C237.505 29.9054 234.343 29.7433 231.192 29.5957V26.2854C231.192 24.4 231.808 23.8408 233.526 23.9299C236.002 24.058 238.472 24.1958 240.951 24.3498C241.343 24.3692 241.679 24.0693 241.666 23.6705V20.2759C241.666 19.8123 241.462 19.6193 240.951 19.5107C239.678 19.2449 237.835 18.8461 233.893 18.645C233.473 18.6223 233.061 18.611 232.653 18.611C228.46 18.611 224.962 19.9792 224.962 26.0147Z" fill="white"/>
</mask>
<g mask="url(#mask20_1_3074)">
<path d="M211.589 36.4986L230.958 10.593L255.056 28.6102L235.686 54.5157L211.589 36.4986Z" fill="url(#paint9_linear_1_3074)"/>
</g>
<mask id="mask21_1_3074" style="mask-type:luminance" maskUnits="userSpaceOnUse" x="246" y="19" width="25" height="30">
<path d="M246.265 20.9503V46.2172C246.249 46.6062 246.604 46.744 246.889 46.7619C248.497 46.8737 250.097 46.9937 251.71 47.1137C252.036 47.1445 252.294 46.8332 252.294 46.4198V31.2704C252.294 31.0191 252.404 30.9899 252.472 30.9899C252.578 31.0013 252.667 31.0888 252.769 31.2704C253.865 33.3535 254.959 35.4497 256.052 37.5312C256.313 37.9786 256.673 38.1926 257.151 38.2412C258.122 38.319 259.096 38.3936 260.071 38.4828C260.55 38.5314 260.915 38.3725 261.176 37.9705C262.262 36.0576 263.355 34.1625 264.451 32.2658C264.563 32.0972 264.641 32.0291 264.743 32.0291C264.825 32.0404 264.932 32.0972 264.932 32.3387V47.4979C264.932 47.9129 265.185 48.2517 265.511 48.2922C267.121 48.4349 268.719 48.5905 270.321 48.7591C270.618 48.7883 270.956 48.7202 270.945 48.31V23.0821C270.961 22.3202 270.397 21.7576 269.64 21.6831C268.494 21.5647 267.345 21.4464 266.205 21.3394C265.428 21.2713 264.934 21.5858 264.597 22.1824C262.739 25.4587 260.873 28.7431 259.009 32.0291C258.869 32.3112 258.762 32.4879 258.62 32.4684C258.477 32.4684 258.364 32.2658 258.221 31.9691C256.35 28.3589 254.497 24.7535 252.633 21.1578C252.301 20.5013 251.788 20.1122 251.018 20.0538C249.879 19.9695 248.732 19.8804 247.588 19.8026C247.546 19.7993 247.499 19.7977 247.453 19.7977C246.75 19.7977 246.259 20.2338 246.265 20.9503Z" fill="white"/>
</mask>
<g mask="url(#mask21_1_3074)">
<path d="M232.353 38.3936L255.112 7.95374L284.854 30.1923L262.095 60.6322L232.353 38.3936Z" fill="url(#paint10_linear_1_3074)"/>
</g>
<mask id="mask22_1_3074" style="mask-type:luminance" maskUnits="userSpaceOnUse" x="275" y="23" width="22" height="28">
<path d="M286.182 45.405C283.12 45.024 281.695 43.0106 281.695 38.6595V34.3262C281.711 29.9654 283.123 28.2697 286.182 28.6555C289.238 29.0235 290.692 31.0694 290.692 35.4286V39.7635C290.692 43.7271 289.483 45.4553 286.97 45.4553C286.724 45.4553 286.458 45.4374 286.182 45.405ZM275.397 33.6194V37.9494C275.397 46.3842 280.177 50.1176 286.179 50.8617C292.179 51.6026 296.95 49.0298 296.95 40.5951V36.2667C296.95 27.8336 292.187 23.93 286.179 23.1972C285.558 23.121 284.952 23.0805 284.363 23.0805C279.236 23.0805 275.397 26.0585 275.397 33.6194Z" fill="white"/>
</mask>
<g mask="url(#mask22_1_3074)">
<path d="M261.713 41.3766L283.121 12.741L310.629 33.3082L289.222 61.9422L261.713 41.3766Z" fill="url(#paint11_linear_1_3074)"/>
</g>
<mask id="mask23_1_3074" style="mask-type:luminance" maskUnits="userSpaceOnUse" x="301" y="25" width="22" height="30">
<path d="M301.28 26.2205V42.3994C301.296 50.6963 305.979 53.5284 311.736 54.4427C317.497 55.3603 322.212 53.9969 322.212 45.7097V29.5276C322.212 29.1272 321.842 28.777 321.446 28.7138C319.882 28.4382 318.311 28.1772 316.747 27.9211C316.343 27.8416 316.019 28.0881 316.019 28.4885V44.6689C316.019 48.3797 315.009 49.7674 311.738 49.2454C308.477 48.7299 307.498 47.026 307.498 43.3153V27.1429C307.498 26.7425 307.172 26.4053 306.772 26.3356C305.19 26.1038 303.596 25.8671 302.009 25.6353C301.972 25.6288 301.93 25.6256 301.894 25.6256C301.547 25.6256 301.28 25.8655 301.28 26.2205Z" fill="white"/>
</mask>
<g mask="url(#mask23_1_3074)">
<path d="M287.02 44.6981L308.785 15.5875L336.473 36.2877L314.706 65.3982L287.02 44.6981Z" fill="url(#paint12_linear_1_3074)"/>
</g>
<mask id="mask24_1_3074" style="mask-type:luminance" maskUnits="userSpaceOnUse" x="325" y="29" width="20" height="30">
<path d="M325.507 30.1032V33.848C325.524 34.2516 325.828 34.6018 326.245 34.6699C328.202 35.0298 330.165 35.3799 332.131 35.7544V56.8971C332.131 57.3057 332.457 57.685 332.856 57.7628C334.436 58.066 336.009 58.3707 337.58 58.669C337.982 58.7436 338.309 58.4891 338.301 58.0741V36.9265C340.245 37.3091 342.202 37.6998 344.149 38.0888C344.541 38.178 344.912 37.9624 344.902 37.5539V33.7977C344.902 33.4119 344.546 33.0439 344.149 32.9661C338.194 31.747 332.222 30.6203 326.24 29.5471C326.187 29.5374 326.136 29.5325 326.088 29.5325C325.762 29.5325 325.519 29.7563 325.507 30.1032Z" fill="white"/>
</mask>
<g mask="url(#mask24_1_3074)">
<path d="M311.498 48.2695L332.465 20.2256L358.922 40.0066L337.956 68.0504L311.498 48.2695Z" fill="url(#paint13_linear_1_3074)"/>
</g>
<mask id="mask25_1_3074" style="mask-type:luminance" maskUnits="userSpaceOnUse" x="348" y="33" width="22" height="33">
<path d="M348.312 34.511V60.1102C348.312 60.5122 348.626 60.9013 349.025 60.9872C350.604 61.3146 352.175 61.6567 353.739 61.9988C354.128 62.0733 354.461 61.8221 354.461 61.4233V50.92C357.426 51.562 360.375 52.2218 363.336 52.9059V63.4091C363.336 63.8177 363.665 64.2165 364.051 64.3153C365.619 64.6752 367.187 65.0497 368.753 65.4193C369.138 65.5134 369.463 65.2621 369.463 64.8633V39.2657C369.463 38.8718 369.138 38.5022 368.753 38.4033C367.185 38.0385 365.616 37.6705 364.051 37.309C363.652 37.2134 363.33 37.4338 363.336 37.8245V47.4881C360.376 46.8137 357.426 46.1474 354.461 45.5022V35.8273C354.461 35.4285 354.145 35.0686 353.739 34.9811C352.175 34.6406 350.601 34.2953 349.025 33.9744C348.965 33.9614 348.912 33.9549 348.856 33.9549C348.542 33.9549 348.312 34.1705 348.312 34.511Z" fill="white"/>
</mask>
<g mask="url(#mask25_1_3074)">
<path d="M333.175 54.1978L355.897 23.8082L384.606 45.2703L361.882 75.6599L333.175 54.1978Z" fill="url(#paint14_linear_1_3074)"/>
</g>
</g>
<defs>
<linearGradient id="paint0_linear_1_3074" x1="121.987" y1="468.088" x2="292.239" y2="26.0246" gradientUnits="userSpaceOnUse">
<stop stop-color="#8B0304"/>
<stop offset="1" stop-color="#ED1C24"/>
</linearGradient>
<linearGradient id="paint1_linear_1_3074" x1="41.3845" y1="57.1576" x2="235.749" y2="202.477" gradientUnits="userSpaceOnUse">
<stop stop-color="#A8996E"/>
<stop offset="0.4417" stop-color="#FFE5C7"/>
<stop offset="1" stop-color="#A8996E"/>
</linearGradient>
<linearGradient id="paint2_linear_1_3074" x1="52.3386" y1="42.6188" x2="246.675" y2="187.917" gradientUnits="userSpaceOnUse">
<stop stop-color="#A8996E"/>
<stop offset="0.4417" stop-color="#FFE5C7"/>
<stop offset="1" stop-color="#A8996E"/>
</linearGradient>
<linearGradient id="paint3_linear_1_3074" x1="61.5859" y1="30.1584" x2="256.609" y2="175.97" gradientUnits="userSpaceOnUse">
<stop stop-color="#A8996E"/>
<stop offset="0.4417" stop-color="#FFE5C7"/>
<stop offset="1" stop-color="#A8996E"/>
</linearGradient>
<linearGradient id="paint4_linear_1_3074" x1="75.0661" y1="12.32" x2="268.724" y2="157.111" gradientUnits="userSpaceOnUse">
<stop stop-color="#A8996E"/>
<stop offset="0.4417" stop-color="#FFE5C7"/>
<stop offset="1" stop-color="#A8996E"/>
</linearGradient>
<linearGradient id="paint5_linear_1_3074" x1="84.8717" y1="-1.06779" x2="279.175" y2="144.206" gradientUnits="userSpaceOnUse">
<stop stop-color="#A8996E"/>
<stop offset="0.4417" stop-color="#FFE5C7"/>
<stop offset="1" stop-color="#A8996E"/>
</linearGradient>
<linearGradient id="paint6_linear_1_3074" x1="95.3533" y1="-14.5018" x2="288.909" y2="130.212" gradientUnits="userSpaceOnUse">
<stop stop-color="#A8996E"/>
<stop offset="0.4417" stop-color="#FFE5C7"/>
<stop offset="1" stop-color="#A8996E"/>
</linearGradient>
<linearGradient id="paint7_linear_1_3074" x1="104.845" y1="-27.8055" x2="299.098" y2="117.43" gradientUnits="userSpaceOnUse">
<stop stop-color="#A8996E"/>
<stop offset="0.4417" stop-color="#FFE5C7"/>
<stop offset="1" stop-color="#A8996E"/>
</linearGradient>
<linearGradient id="paint8_linear_1_3074" x1="113.461" y1="-39.9527" x2="308.505" y2="105.874" gradientUnits="userSpaceOnUse">
<stop stop-color="#A8996E"/>
<stop offset="0.4417" stop-color="#FFE5C7"/>
<stop offset="1" stop-color="#A8996E"/>
</linearGradient>
<linearGradient id="paint9_linear_1_3074" x1="122.045" y1="-50.6008" x2="316.334" y2="94.6611" gradientUnits="userSpaceOnUse">
<stop stop-color="#A8996E"/>
<stop offset="0.4417" stop-color="#FFE5C7"/>
<stop offset="1" stop-color="#A8996E"/>
</linearGradient>
<linearGradient id="paint10_linear_1_3074" x1="129.783" y1="-62.0987" x2="324.773" y2="83.6883" gradientUnits="userSpaceOnUse">
<stop stop-color="#A8996E"/>
<stop offset="0.4417" stop-color="#FFE5C7"/>
<stop offset="1" stop-color="#A8996E"/>
</linearGradient>
<linearGradient id="paint11_linear_1_3074" x1="138.637" y1="-72.9419" x2="332.96" y2="72.3461" gradientUnits="userSpaceOnUse">
<stop stop-color="#A8996E"/>
<stop offset="0.4417" stop-color="#FFE5C7"/>
<stop offset="1" stop-color="#A8996E"/>
</linearGradient>
<linearGradient id="paint12_linear_1_3074" x1="145.85" y1="-83.6593" x2="340.813" y2="62.1063" gradientUnits="userSpaceOnUse">
<stop stop-color="#A8996E"/>
<stop offset="0.4417" stop-color="#FFE5C7"/>
<stop offset="1" stop-color="#A8996E"/>
</linearGradient>
<linearGradient id="paint13_linear_1_3074" x1="153.454" y1="-91.7039" x2="347.098" y2="53.0773" gradientUnits="userSpaceOnUse">
<stop stop-color="#A8996E"/>
<stop offset="0.4417" stop-color="#FFE5C7"/>
<stop offset="1" stop-color="#A8996E"/>
</linearGradient>
<linearGradient id="paint14_linear_1_3074" x1="159.521" y1="-99.4495" x2="353.168" y2="45.3328" gradientUnits="userSpaceOnUse">
<stop stop-color="#A8996E"/>
<stop offset="0.4417" stop-color="#FFE5C7"/>
<stop offset="1" stop-color="#A8996E"/>
</linearGradient>
<clipPath id="clip0_1_3074">
<rect width="390.5" height="512" fill="white" transform="translate(0 -1.81348)"/>
</clipPath>
</defs>
</svg>
