<svg width="512" height="512" viewBox="0 0 512 512" fill="none" xmlns="http://www.w3.org/2000/svg">
<g clip-path="url(#clip0_1_2126)">
<path d="M256 0C114.875 0 0 114.875 0 256C0 397.125 114.875 512 256 512C397.125 512 512 397.125 512 256C511.875 114.875 397.125 0 256 0Z" fill="#00285E"/>
<path d="M485.25 256C485.25 129.375 382.625 26.75 255.875 26.75C129.25 26.75 26.5 129.375 26.5 256C26.5 382.625 129.25 485.375 255.875 485.375C382.625 485.25 485.25 382.625 485.25 256Z" fill="white"/>
<path d="M402 256C402 175.375 336.625 110 256 110C175.375 110 110 175.375 110 256C110 336.625 175.375 402 256 402C336.625 402 402 336.625 402 256Z" fill="#6CADDF"/>
<path d="M256 413.5C169.125 413.5 98.5 342.75 98.5 255.875C98.5 169 169.125 98.375 256 98.375C342.875 98.375 413.625 169 413.625 255.875C413.5 342.875 342.875 413.5 256 413.5ZM256 107.25C174 107.25 107.25 174 107.25 256C107.25 338 174 404.75 256 404.75C338 404.75 404.75 338 404.75 256C404.75 174 338 107.25 256 107.25Z" fill="#00285E"/>
<path d="M256.003 501.503C120.628 501.503 10.5026 391.378 10.5026 256.003C10.5026 120.628 120.628 10.5029 256.003 10.5029C391.378 10.5029 501.503 120.628 501.503 256.003C501.378 391.378 391.378 501.503 256.003 501.503ZM256.003 15.7529C123.503 15.7529 15.8776 123.503 15.8776 256.003C15.8776 388.378 123.628 496.128 256.003 496.128C388.378 496.128 496.128 388.378 496.128 256.003C496.128 123.503 388.378 15.7529 256.003 15.7529Z" fill="#6CADDF"/>
<path d="M51.1263 250.376L47.0003 251.377L45.875 247.125L52.7517 245.125H56.2525V269.131H51.1263V250.376Z" fill="#6CADDF"/>
<path d="M62.254 262.504C62.254 259.504 63.6294 257.878 66.13 256.753C64.2545 255.628 63.1292 254.127 63.1292 251.502V251.377C63.1292 247.751 66.5051 244.875 71.5063 244.875C76.5075 244.875 79.8833 247.751 79.8833 251.377V251.502C79.8833 254.002 78.7581 255.628 76.8826 256.753C79.2582 258.003 80.7585 259.504 80.7585 262.379V262.504C80.7585 266.88 76.8826 269.506 71.6313 269.506C66.38 269.506 62.254 266.63 62.254 262.504ZM75.5073 262.129C75.5073 260.254 73.7568 259.128 71.3813 259.128C69.0057 259.128 67.2552 260.254 67.2552 262.004C67.2552 263.63 68.7556 265.005 71.3813 265.005C74.0069 265.005 75.5073 263.755 75.5073 262.129ZM74.8821 252.127C74.8821 250.626 73.6318 249.251 71.5063 249.251C69.3808 249.251 68.1305 250.501 68.1305 252.002V252.127C68.1305 253.752 69.5058 255.002 71.5063 255.002C73.5068 255.002 74.8821 253.752 74.8821 252.127Z" fill="#6CADDF"/>
<path d="M439.628 259.254C438.378 260.254 436.878 260.879 434.752 260.879C429.626 260.879 426.25 258.003 426.25 253.252V253.127C426.25 248.376 430.001 244.75 435.377 244.75C438.628 244.75 440.378 245.5 442.254 247.376C444.004 249.126 445.005 251.627 445.005 256.378V256.503C445.005 264.255 441.379 269.506 434.627 269.506C431.126 269.506 428.876 268.381 426.75 266.63L429.501 262.629C431.251 264.005 432.752 264.63 434.752 264.63C438.378 264.63 439.378 261.254 439.628 259.254ZM439.753 253.002C439.753 250.876 438.253 249.251 435.627 249.251C433.002 249.251 431.626 250.751 431.626 252.877V253.002C431.626 255.128 433.252 256.628 435.752 256.628C438.253 256.503 439.753 255.002 439.753 253.002Z" fill="#6CADDF"/>
<path d="M461.753 263.88H450.125L449.25 260.129L462.253 245H466.629V259.629H469.88V263.88H466.629V269.006H461.628V263.88H461.753ZM461.753 259.629V252.252L455.376 259.629H461.753Z" fill="#6CADDF"/>
<path d="M256 404.75C174 404.75 107.25 338 107.25 256C107.25 174 174 107.25 256 107.25C338 107.25 404.75 174 404.75 256C404.75 338 338 404.75 256 404.75ZM256 112.75C177 112.75 112.75 177 112.75 256C112.75 335 177 399.25 256 399.25C335 399.25 399.25 335 399.25 256C399.25 177 335 112.75 256 112.75Z" fill="white"/>
<path fill-rule="evenodd" clip-rule="evenodd" d="M253.25 127.875C179.875 127.875 137.5 137.5 137.5 137.5C137.5 137.5 120.625 201.875 130.25 284.25C134.25 318.875 162.375 393.25 255.625 418.75C348.875 393.375 377 318.875 381 284.25C390.625 201.75 373.75 137.5 373.75 137.5C373.75 137.5 331.375 127.875 258 127.875H253.25Z" fill="#00285E"/>
<path fill-rule="evenodd" clip-rule="evenodd" d="M368.125 265.125C367.25 290.125 363.375 364.875 255.5 406C148.5 366 142.875 288.625 142.875 265.125H368.125Z" fill="#97C1E7"/>
<path fill-rule="evenodd" clip-rule="evenodd" d="M364.875 261C367.75 199 357.25 148.75 357.25 148.75C357.25 148.75 317 141 255.625 141C194.125 141 153.25 149.5 153.25 149.5C153.25 149.5 142.125 200 145.125 260.875H364.875V261Z" fill="white"/>
<path d="M258.875 403.75L145 266.125C140.875 294.5 163.875 378.125 258.875 403.75Z" fill="#6CADDF"/>
<path d="M179 265.25L284.375 392.375C295 387.25 302.875 382.25 310.375 376.25L218.375 265.25H179Z" fill="#6CADDF"/>
<path d="M252.125 265.375L330 359.25C337.625 350.625 344.125 342.75 348.75 334.5L291.5 265.375H252.125Z" fill="#6CADDF"/>
<path d="M366.26 265.375L327.375 265.25L360.008 304.635C365.634 292.507 366.26 272.127 366.26 265.375Z" fill="#6CADDF"/>
<path d="M301.5 316.875C301.25 316 300.5 315.25 299.625 314.875L293.125 312.625C292.5 312.375 292 312.5 291.375 312.625C290.875 310.375 289.625 308.375 287.75 307C287.5 306.875 287.25 306.625 287 306.5C286.625 306.25 286.125 306 285.625 305.75C284.75 305.375 283.875 305.125 283.125 304.875C281.25 304.25 279.375 303.625 277 302C274.75 300.375 273.75 298.875 272.75 297.5C272.5 297.125 272.25 296.875 272 296.5C271.375 295.5 270.5 294.625 269.625 293.875C268 292.75 266 292.125 264 292.125C263.5 292.125 263.125 292.25 262.625 292.25C262.625 292.25 262.625 292.25 262.625 292.125C262.75 291.375 262.5 290.5 262.125 289.875L258.125 284.5C257.5 283.75 256.625 283.25 255.625 283.25C254.625 283.25 253.75 283.625 253.25 284.375L249 289.75C248.5 290.375 248.25 291.25 248.375 292.125C248 292.125 247.75 292 247.375 292C245.375 292 243.375 292.625 241.75 293.75C241.5 293.875 241.25 294.125 241.125 294.25C240.75 294.625 240.375 294.875 240 295.375C239.375 296.125 238.875 296.75 238.375 297.5C237.125 299.125 236.125 300.625 233.625 302.375C231.375 304 229.625 304.5 228 305C227.625 305.125 227.25 305.25 226.875 305.375C225.75 305.625 224.625 306.125 223.625 306.875C221.625 308.25 220.375 310.375 219.875 312.75C219.25 312.5 218.5 312.5 217.75 312.625L211.375 314.75C210.5 315 209.75 315.75 209.375 316.625C209.125 317.5 209.25 318.5 209.75 319.25L213.625 324.875C214.125 325.5 214.75 325.875 215.5 326.125C214.5 328.25 214.25 330.875 215 333.125C215.125 333.375 215.25 333.625 215.25 333.875C215.375 334.375 215.625 334.875 216 335.375C216.5 336.125 217 336.875 217.5 337.5C218.75 339.125 219.875 340.625 220.75 343.5C221.625 346.125 221.5 347.875 221.5 349.625C221.5 350 221.5 350.5 221.5 350.875C221.375 352.125 221.5 353.25 222 354.375C222.75 356.625 224.375 358.5 226.25 359.625C226 360.125 225.75 360.625 225.875 361.125V367.875C225.875 368.875 226.375 369.75 227.125 370.25C227.875 370.75 228.875 371 229.75 370.75L236.375 368.875C237 368.75 237.375 368.25 237.75 367.875C239.75 369.75 242.5 370.625 245.125 370.5C245.625 370.5 246.125 370.375 246.75 370.25C247.625 370 248.5 369.75 249.25 369.5C251.125 368.875 253 368.25 256 368.25C258.75 368.25 260.375 368.875 262.125 369.375C262.5 369.5 262.875 369.625 263.25 369.75C264.375 370.25 265.625 370.375 266.75 370.375C269.125 370.375 271.5 369.375 273.25 367.75C273.625 368.25 274 368.5 274.625 368.75L281.125 370.75C282 371 283 370.875 283.875 370.375C284.625 369.875 285.125 369 285.125 368L285.25 361.25C285.25 360.75 285.125 360.25 284.875 359.75C286.875 358.625 288.5 356.75 289.125 354.5C289.25 354.25 289.25 354 289.375 353.625C289.5 353.125 289.625 352.625 289.625 352C289.75 351.125 289.75 350.25 289.75 349.375C289.75 347.375 289.75 345.5 290.625 342.625C291.5 340 292.5 338.625 293.625 337.25C293.875 336.875 294.125 336.625 294.375 336.25C295.125 335.375 295.75 334.25 296.125 333.125C296.875 330.75 296.625 328.125 295.5 325.875C296.125 325.625 296.625 325.375 297 324.875L301 319.375C301.625 318.75 301.875 317.875 301.5 316.875Z" fill="#00285E"/>
<path d="M252 331.501C252 329.375 253.75 327.75 255.876 327.75C258.001 327.75 259.752 329.5 259.752 331.501C259.752 333.626 258.001 335.252 255.876 335.252C253.75 335.252 252 333.501 252 331.501Z" fill="#FFC758"/>
<path d="M255.76 299.253C255.135 296.877 253.634 294.877 251.759 293.751L255.76 288.625L259.511 293.751C257.635 295.002 256.385 296.877 255.76 299.253ZM225.127 321.508C223.127 320.133 221.752 318.382 221.001 316.257L215 318.257L218.626 323.509C220.376 322.258 222.752 321.508 225.127 321.508ZM237.005 356.892C235.13 358.392 233.004 359.142 230.629 359.142V365.519L236.88 363.643C236.13 361.643 236.13 359.267 237.005 356.892ZM274.515 357.017C275.39 359.267 275.39 361.518 274.64 363.643L280.766 365.519L280.891 359.142C278.766 359.267 276.515 358.517 274.515 357.017ZM286.142 321.633C288.643 321.508 290.769 322.133 292.519 323.509L296.27 318.382L290.143 316.257C289.643 318.257 288.143 320.258 286.142 321.633ZM248.008 357.142C245.132 357.142 242.882 354.891 242.882 352.015C242.882 351.64 242.507 351.515 242.257 351.765C240.381 354.016 239.006 356.016 238.881 358.392C238.756 361.893 241.757 364.769 245.382 364.769C245.632 364.769 245.883 364.769 246.008 364.769C246.383 364.769 246.633 364.769 247.133 364.644C249.633 364.018 251.884 362.768 256.135 362.768C259.761 362.768 261.636 363.768 263.512 364.268C264.262 364.519 265.137 364.769 266.012 364.769C269.638 364.769 272.514 361.893 272.514 358.392C272.514 355.891 271.014 354.016 269.138 351.765C269.013 351.515 268.638 351.765 268.638 352.015C268.638 354.766 266.263 357.142 263.512 357.142C261.386 357.142 258.636 355.266 255.885 355.266C253.509 355.266 250.134 357.142 248.008 357.142ZM244.632 350.14C244.632 352.516 246.508 354.391 248.883 354.391C249.133 354.391 249.383 354.391 249.758 354.266C249.884 354.266 250.009 354.266 250.134 354.141H250.259C251.759 353.641 253.134 353.016 255.76 353.016C258.386 353.016 259.636 353.766 261.136 354.141C261.636 354.266 262.137 354.391 262.637 354.391C265.012 354.391 266.888 352.516 266.888 350.14C266.888 349.515 266.763 348.89 266.513 348.39C266.388 348.14 266.263 347.889 266.137 347.764C266.137 347.764 258.886 337.887 258.636 337.637C258.261 337.137 257.76 337.387 257.51 337.512C257.135 337.637 256.26 337.887 255.635 337.887C255.01 337.887 254.26 337.762 253.885 337.512C253.384 337.262 253.009 337.137 252.759 337.637C252.509 338.012 247.258 345.139 245.632 347.389C245.007 348.14 244.632 349.015 244.632 350.14ZM278.015 346.889C277.14 349.64 274.264 351.015 271.514 350.14C271.139 350.015 270.889 350.265 271.139 350.64C272.764 353.016 274.139 355.016 276.515 355.891C279.891 357.017 283.642 355.141 284.642 351.765C284.767 351.515 284.767 351.39 284.767 351.14C284.892 350.89 284.892 350.515 285.017 350.14C285.267 347.514 284.642 345.139 286.017 341.013C287.143 337.637 288.643 336.137 289.768 334.511C290.268 333.886 290.769 333.136 291.019 332.386C292.144 329.01 290.268 325.259 286.893 324.259C284.517 323.509 282.141 324.384 279.391 325.384C279.141 325.509 279.141 325.759 279.516 325.884C282.266 326.759 283.767 329.635 282.892 332.386C282.266 334.386 279.641 336.387 278.766 339.012C278.015 341.138 278.766 344.764 278.015 346.889ZM270.263 347.889C272.514 348.64 275.015 347.389 275.765 345.139C275.89 344.889 275.89 344.639 275.89 344.264C275.89 344.139 275.89 344.014 275.89 343.889V343.763C275.89 342.263 275.64 340.638 276.39 338.262C277.265 335.762 278.265 334.761 279.141 333.511C279.391 333.136 279.641 332.636 279.891 332.136C280.641 329.885 279.391 327.509 277.14 326.759C276.515 326.634 275.89 326.509 275.39 326.634C275.14 326.634 274.89 326.634 274.64 326.759C274.64 326.759 262.887 330.51 262.512 330.635C262.011 330.885 262.011 331.385 262.011 331.635C262.011 332.011 261.886 332.886 261.761 333.511C261.636 334.011 261.261 334.761 260.886 335.136C260.511 335.511 260.261 335.887 260.636 336.262C261.011 336.637 266.012 343.763 267.763 346.014C268.388 346.889 269.263 347.514 270.263 347.889ZM277.265 315.131C279.641 316.757 280.141 320.008 278.39 322.258C278.14 322.508 278.39 322.883 278.766 322.758C281.641 322.008 283.892 321.258 285.392 319.257C287.518 316.382 286.893 312.381 284.017 310.255C283.892 310.13 283.642 310.005 283.392 309.88C283.142 309.63 282.892 309.505 282.391 309.38C280.016 308.38 277.515 308.13 274.014 305.629C271.139 303.504 270.138 301.628 268.888 300.003C268.513 299.378 267.888 298.752 267.138 298.127C264.262 296.002 260.136 296.627 258.136 299.503C256.76 301.503 256.76 304.004 256.885 306.879C256.885 307.13 257.26 307.255 257.385 306.879C259.011 304.629 262.262 304.129 264.637 305.754C266.388 307.005 267.513 310.13 269.763 311.631C271.764 313.506 275.515 313.881 277.265 315.131ZM275.89 322.883C277.265 321.008 276.89 318.257 274.89 316.882C274.765 316.757 274.515 316.507 274.139 316.382C274.014 316.382 273.889 316.257 273.764 316.257H273.639C272.139 315.757 270.639 315.507 268.513 314.006C266.388 312.506 265.762 311.131 264.887 310.005C264.637 309.63 264.262 309.255 263.887 308.88C262.011 307.505 259.261 307.88 257.885 309.88C257.51 310.38 257.26 310.88 257.135 311.506C257.135 311.756 257.01 312.006 257.01 312.256C257.01 312.256 257.01 324.509 257.01 324.884C257.01 325.509 257.51 325.509 257.885 325.634C258.261 325.759 259.136 326.134 259.511 326.384C260.011 326.759 260.511 327.259 260.761 327.635C261.011 328.01 261.261 328.385 261.761 328.135C262.262 327.885 270.639 325.259 273.264 324.384C274.39 324.259 275.265 323.634 275.89 322.883ZM246.758 306.129C249.008 304.504 252.259 305.004 254.01 307.255C254.26 307.505 254.635 307.505 254.635 307.13C254.76 304.254 254.76 301.753 253.384 299.753C251.384 296.877 247.258 296.252 244.382 298.377C244.132 298.502 244.007 298.627 243.882 298.752C243.632 298.878 243.382 299.128 243.132 299.503C241.381 301.503 240.381 303.754 236.88 306.254C234.005 308.38 231.879 308.755 230.004 309.255C229.253 309.505 228.378 309.755 227.753 310.255C224.877 312.381 224.127 316.382 226.378 319.257C227.878 321.258 230.254 322.008 233.004 322.758C233.254 322.883 233.379 322.508 233.254 322.258C231.629 320.008 232.129 316.757 234.38 315.131C236.13 313.881 239.381 313.756 241.632 312.131C243.382 310.88 245.007 307.38 246.758 306.129ZM253.759 309.88C252.384 308.005 249.633 307.505 247.758 308.88C247.508 309.005 247.383 309.13 247.133 309.38C247.008 309.505 247.008 309.505 246.883 309.63L246.758 309.755C245.883 311.005 245.132 312.381 243.007 313.881C240.881 315.382 239.381 315.507 238.006 316.132C237.505 316.257 237.005 316.507 236.63 316.757C234.755 318.132 234.255 320.758 235.63 322.758C236.005 323.258 236.505 323.634 237.005 323.884C237.255 324.009 237.38 324.134 237.631 324.134C237.631 324.134 249.383 327.885 249.758 328.01C250.384 328.135 250.634 327.76 250.759 327.51C251.009 327.259 251.509 326.509 252.009 326.134C252.509 325.759 253.134 325.509 253.634 325.384C254.135 325.259 254.51 325.134 254.51 324.634C254.51 324.134 254.51 315.382 254.51 312.631C254.635 311.756 254.385 310.755 253.759 309.88ZM228.753 332.261C227.878 329.51 229.379 326.634 232.004 325.759C232.379 325.634 232.379 325.259 232.129 325.134C229.379 324.134 227.003 323.258 224.752 324.009C221.377 325.009 219.501 328.76 220.626 332.136C220.626 332.386 220.751 332.511 220.876 332.761C221.001 333.011 221.127 333.386 221.377 333.761C222.752 336.012 224.627 337.637 226.003 341.763C227.128 345.139 226.753 347.264 226.753 349.265C226.628 350.015 226.753 350.89 227.003 351.765C228.128 355.141 231.754 357.017 235.13 355.891C237.506 355.141 238.881 353.141 240.506 350.64C240.631 350.39 240.381 350.14 240.131 350.265C237.38 351.14 234.505 349.64 233.63 347.014C233.004 345.014 233.88 341.888 233.004 339.262C232.254 336.887 229.379 334.261 228.753 332.261ZM234.38 326.884C232.129 327.635 230.879 330.01 231.629 332.261C231.629 332.511 231.754 332.761 232.004 333.011C232.129 333.136 232.129 333.261 232.254 333.261C232.254 333.261 232.254 333.386 232.379 333.386C233.254 334.636 234.38 335.762 235.255 338.137C236.13 340.638 235.755 342.013 235.88 343.513C235.88 344.014 235.88 344.514 236.13 345.014C236.88 347.264 239.256 348.515 241.506 347.764C242.132 347.639 242.632 347.264 243.007 346.889C243.132 346.764 243.382 346.514 243.507 346.389C243.507 346.389 250.759 336.512 250.884 336.137C251.259 335.636 250.884 335.261 250.634 335.011C250.384 334.761 249.884 334.011 249.758 333.386C249.633 332.886 249.508 332.136 249.508 331.635C249.508 331.135 249.508 330.76 249.008 330.635C248.508 330.51 240.131 327.76 237.505 326.884C236.505 326.634 235.505 326.509 234.38 326.884Z" fill="#EE3124"/>
<path d="M291.75 199.252L318.132 190.125C318.132 190.125 315.881 201.128 316.506 209.63C317.256 220.632 323.633 229.009 323.633 229.009L291.125 240.262L291.75 199.252Z" fill="#FFC758"/>
<path d="M323.636 229.014C323.636 229.014 317.885 220.762 316.885 211.134C316.135 203.882 316.885 197.631 318.135 190.129C317.01 195.13 312.759 209.259 300.881 222.387C296.13 227.638 294.004 232.264 293.129 235.515L292.629 173.375C292.629 173.375 286.377 175.626 285.752 175.751C285.002 176.001 284.627 176.501 284.627 176.626C284.627 177.001 284.377 177.251 283.877 177.376C283.377 177.501 279.751 178.876 277.25 179.627C276.75 179.752 277 180.252 277.25 180.252C280.251 180.127 284.502 179.752 284.877 179.752C285.502 179.627 285.752 179.376 285.752 179.001C285.752 179.001 285.752 179.001 285.752 178.876C285.877 178.376 286.252 178.001 286.752 178.001C287.127 178.001 289.378 177.751 290.753 177.501L290.128 244.392H293.129V239.641L323.636 229.014Z" fill="#D4A11E"/>
<path d="M206.752 242.008C206.752 242.008 201.875 238.382 200.5 231.505C199.125 224.504 202.626 220.503 202.626 220.503L234.633 209.5C234.633 209.5 232.633 215.877 234.508 223.128C236.884 232.256 241.76 238.382 241.76 238.382C241.76 238.382 230.007 236.132 218.63 237.632C207.877 239.007 206.752 242.008 206.752 242.008Z" fill="#FFC758"/>
<path d="M170 234.008C170 234.008 174.001 223.131 185.629 211.253C194.506 202.251 200.257 199.625 200.257 199.625C200.257 199.625 195.131 207.002 193.006 219.13C191.63 226.632 193.131 236.134 193.131 236.134C193.131 236.134 187.129 234.884 180.252 234.133C174.501 233.508 170 234.008 170 234.008Z" fill="#FFC758"/>
<path d="M200.254 199.625C200.254 199.625 195.253 207.002 193.127 219.13C191.752 226.632 193.252 236.134 193.252 236.134C193.252 236.134 191.752 235.759 188.251 235.009C173.998 231.758 200.254 199.625 200.254 199.625Z" fill="#D4A11E"/>
<path d="M219.004 208.382L218.754 179.625C218.129 179.875 212.502 181.751 211.877 182.001C211.127 182.251 210.752 182.751 210.752 183.001C210.752 183.376 210.502 183.626 210.002 183.751C209.502 183.876 205.876 185.126 203.375 186.002C202.875 186.127 203.125 186.627 203.375 186.627C206.251 186.502 210.627 186.127 211.002 186.127C211.627 186.002 211.877 185.752 212.002 185.376C212.002 185.376 212.002 185.376 212.002 185.251C212.127 184.751 212.502 184.376 213.002 184.376C213.377 184.376 215.503 184.126 217.003 184.001L216.753 208.507H219.004V208.382Z" fill="#D4A11E"/>
<path d="M256.253 182.382H258.504V154.75C258.504 154.75 252.252 157.001 251.627 157.126C250.877 157.376 250.502 157.876 250.502 158.001C250.502 158.376 250.252 158.626 249.752 158.751C249.252 158.876 245.626 160.126 243.125 161.002C242.625 161.127 242.875 161.627 243.125 161.627C246.126 161.502 250.377 161.127 250.752 161.127C251.377 161.002 251.627 160.751 251.752 160.376C251.877 159.876 252.252 159.501 252.752 159.501C253.127 159.501 255.128 159.251 256.628 159.126L256.253 182.382Z" fill="#D4A11E"/>
<path d="M250.625 161.251H250.75C251.375 161.126 251.625 160.876 251.625 160.501C251.625 160.126 251.875 159.876 252.251 159.751L251.5 157.375C250.75 157.625 250.5 158.125 250.5 158.25C250.5 158.625 250.25 158.75 249.875 158.875L250.625 161.251Z" fill="#FFC758"/>
<path d="M210.875 186.001H211C211.625 185.876 211.875 185.626 211.875 185.251C212 184.876 212.125 184.626 212.501 184.501L211.75 182.125C211 182.375 210.75 182.875 210.75 183C210.75 183.375 210.5 183.5 210.125 183.625L210.875 186.001Z" fill="#FFC758"/>
<path d="M284.625 179.751H284.75C285.375 179.626 285.625 179.376 285.625 179.001C285.75 178.626 285.875 178.376 286.251 178.251L285.5 175.875C284.75 176.125 284.5 176.625 284.5 176.75C284.5 177.125 284.25 177.25 283.875 177.375L284.625 179.751Z" fill="#FFC758"/>
<path d="M241.759 238.382C241.759 238.382 236.632 230.88 234.632 222.878C232.881 216.002 234.632 209.5 234.632 209.5C234.632 209.5 231.256 221.253 223.129 227.629C217.503 232.131 203.624 236.257 206.875 242.008C207.375 241.258 208.751 239.757 214.377 238.382C215.002 238.257 215.752 238.132 216.502 238.007V247.509H219.503V237.632C229.881 236.507 241.759 238.382 241.759 238.382Z" fill="#D4A11E"/>
<path d="M203.376 218.507C203.376 218.507 199.625 216.257 200.125 209.005C200.625 201.503 204.376 198.252 204.376 198.002L229.257 189.5C229.257 189.5 227.382 193.251 228.757 198.877C230.257 205.629 234.633 209.505 234.633 209.505C234.633 209.505 222.13 209.63 210.878 213.506C205.376 215.381 203.376 218.507 203.376 218.507Z" fill="#FFC758"/>
<path d="M218.129 202.878C225.255 197.002 229.131 189.5 229.131 189.5C229.131 189.5 228.131 194.251 228.881 198.502C230.257 205.754 234.508 209.505 234.508 209.505C234.508 209.505 224.38 209.63 213.503 212.756C206.251 214.756 204 217.632 203.375 218.632C201 213.131 210.877 208.88 218.129 202.878Z" fill="#D4A11E"/>
<path d="M246.502 243.885C246.502 243.885 239.625 238.759 238 229.131C236.625 221.505 241.751 216.003 241.751 216.003L280.635 202.625C280.635 202.625 278.51 211.252 280.51 219.504C282.761 228.756 291.263 240.259 291.263 240.259C291.263 240.259 275.134 235.633 261.131 237.383C247.752 239.134 246.502 243.885 246.502 243.885Z" fill="#FFC758"/>
<path d="M238.625 182.255C238.375 176.379 242.501 171.627 242.626 171.377L270.508 161.625C270.508 161.625 268.632 166.001 269.133 169.752C270.008 176.879 274.009 180.63 274.009 180.63C274.009 180.63 263.006 180.004 250.128 184.506C243.001 187.006 242.251 190.382 242.251 190.382C242.251 190.382 238.875 189.507 238.625 182.255Z" fill="#FFC758"/>
<path d="M260.63 174.753C265.631 170.377 270.507 161.75 270.507 161.75C270.507 161.75 268.631 166.126 269.132 169.877C270.007 177.004 274.008 180.755 274.008 180.755C274.008 180.755 262.13 180.63 250.752 184.631C245.876 186.381 242.75 189.007 242.375 190.507C240.75 185.006 253.753 180.755 260.63 174.753Z" fill="#D4A11E"/>
<path d="M242.626 214.383C242.626 214.383 238.625 209.757 237.875 202.505C237.125 195.004 241.501 192.003 241.876 191.753L274.134 180.625C274.134 180.625 273.259 183.001 274.009 189.502C274.759 195.004 280.135 202.505 280.135 202.505C280.135 202.505 262.881 203.005 252.254 207.131C245.502 209.757 242.626 214.383 242.626 214.383Z" fill="#FFC758"/>
<path d="M264.005 195.754C271.007 189.752 274.133 180.75 274.133 180.75C274.133 180.75 273.257 185.876 274.133 189.877C275.758 196.879 280.759 202.755 280.759 202.755C280.759 202.755 265.756 203.005 254.878 206.631C247.751 209.007 243.375 213.258 242.75 214.508C241.125 208.382 257.003 201.755 264.005 195.754Z" fill="#D4A11E"/>
<path d="M291.886 240.884C291.886 240.884 283.134 229.507 280.508 219.504C278.883 212.877 280.133 205.376 280.633 202.75C279.633 206.251 276.132 217.629 267.505 225.631C259.253 233.257 242.999 236.883 246.5 244.01C247.125 242.885 249.001 240.134 255.627 238.509L255.502 247.636H258.628V237.884C273.007 235.633 291.886 240.884 291.886 240.884Z" fill="#D4A11E"/>
<path fill-rule="evenodd" clip-rule="evenodd" d="M306.875 262.25C308.875 261.875 310.875 261.375 313.875 260.625C313.75 260.5 313.5 260.375 313.375 260.25C310.125 256.625 310.625 252.75 312.625 250.875C319.875 244.125 319.75 239.125 319.75 239.125C319.75 239.125 302.125 242.75 278.875 244C277.375 244.125 272 246.5 270.375 246.5C267.125 246.625 263.875 246.75 260.5 246.75C216.625 247.125 204.375 244 190 241.375C175.375 238.625 169 235.75 169 235.75L168.5 237.25C168.5 237.25 180 241.75 188.25 245.75C190 246.625 196.875 256.875 199.125 260.375H147C144.125 200.625 155.625 151.75 155.625 151.75C155.625 151.75 195.5 143.25 255.5 143.25V136.875C191.875 136.875 149.5 145.875 149.5 145.875C149.5 145.875 131 211.125 140.75 288.875C144.875 321.25 171.625 381.875 255.25 410L258.875 404.875L255.25 399.75C176.5 373.375 153.5 320 149.5 289.625C148.625 282.875 148 276.125 147.5 269.625H255.625V260.5H200.125C201.375 256.5 205.25 255.5 210.125 256.625C215.125 257.875 220.125 259.125 224.875 258.875C236.75 258.25 235 255.125 236.125 255.125C248.375 255.875 253 258.875 263.625 258.625C273.375 258.5 276.75 255.875 277.625 255.875C289.5 255.75 294 261.25 305.875 262.25C306.25 262.25 306.625 262.25 306.875 262.25Z" fill="#FFC758"/>
<path fill-rule="evenodd" clip-rule="evenodd" d="M361.375 145.875C361.375 145.875 319.125 136.875 255.5 136.875V143.25C315.5 143.25 355.25 151.75 355.25 151.75C355.25 151.75 366.875 200.625 363.875 260.375H311.625C307.5 256.375 309.875 251.125 311.25 249.875C317.375 244.375 317.375 240.625 317.375 240.625C317.375 240.625 303.25 244.125 280 245.125C278.5 245.125 272 248.125 270.375 248.125C267.125 248.25 262.625 248.375 259.25 248.375C229 248.375 214.125 247.75 187.875 242.125C188.375 242.75 188.625 243 189.125 243.75C189.25 244 200.625 246.875 200.75 247.125C202.5 249.5 204.75 251.125 207.5 252.625C211.75 254.875 218 256.75 223.125 257.125C235 257.875 232.75 253.375 233.875 253.375C246 253.125 253.875 257.5 264.5 257.375C274.25 257.25 274.5 254.125 275.5 254.125C285.125 253.625 294.875 257.75 303.25 260.5H255.5V269.625H363.25C362.75 276.25 362.125 282.875 361.25 289.625C357.25 320.125 334.25 373.375 255.5 399.75V410C339.125 381.875 366 321.375 370 288.875C379.875 211.125 361.375 145.875 361.375 145.875Z" fill="#D4A11E"/>
<path d="M60.25 174.009L64.6261 165.632L84.3809 164.256L74.3784 147.127L78.7545 138.875L113.888 157.38L109.887 165.006L86.8815 153.003L96.7589 170.758L96.6339 170.883L76.629 172.883L99.3846 184.886L95.3836 192.513L60.25 174.009Z" fill="#00285E"/>
<path d="M100.375 111.501L105.876 105.625L146.636 120.629L140.385 127.255L131.383 123.754L119.88 136.007L123.881 144.76L117.754 151.261L100.375 111.501ZM123.756 120.879L110.753 115.877L116.504 128.506L123.756 120.879Z" fill="#00285E"/>
<path d="M131.875 82.6295L138.752 78.5034L167.384 89.7562L154.756 68.8761L162.132 64.375L182.637 98.2583L176.261 102.134L146.754 90.5064L159.882 112.137L152.505 116.638L131.875 82.6295Z" fill="#00285E"/>
<path d="M185.25 75.7565C182.124 64.7538 187.626 53.501 199.379 50.1252C206.505 47.9997 211.632 49.25 216.133 51.6256L212.507 59.3775C208.756 57.502 205.38 56.7518 201.504 57.8771C195.128 59.7526 192.002 66.3792 193.877 73.0058V73.1308C195.753 79.6324 201.879 83.7584 208.381 81.883C212.757 80.6327 214.882 78.132 217.133 74.5062L224.01 78.3821C221.259 83.7584 217.633 87.6344 210.381 89.7599C199.254 93.0107 188.376 86.7591 185.25 75.7565Z" fill="#00285E"/>
<path d="M232.875 43.8752L241.502 43.6252L242.002 59.379L258.006 59.0039L257.631 43.2501L266.383 43L267.383 82.7597L258.631 83.0098L258.256 67.0059L242.127 67.506L242.627 83.3849L233.875 83.6349L232.875 43.8752Z" fill="#00285E"/>
<path d="M317.75 88.1316L325.002 84.6308C327.002 88.7568 329.628 92.1326 333.754 94.008C337.005 95.5084 339.505 95.1333 340.506 93.0078V92.8828C341.506 90.8823 340.631 89.2569 335.379 85.0059C329.003 79.7546 325.252 75.6286 328.503 68.5018V68.3768C331.503 61.8752 338.755 59.9997 346.132 63.3756C351.383 65.7512 355.134 69.5021 357.385 74.1282L350.508 78.2542C348.382 74.5033 345.757 71.7526 342.756 70.3773C339.755 69.0019 337.505 69.6271 336.63 71.3775V71.5026C335.504 73.8781 336.755 75.3785 342.256 79.8796C348.633 85.1309 351.633 89.757 348.633 96.0085V96.1336C345.382 103.26 338.005 104.761 330.253 101.26C325.002 98.5092 320.376 94.0081 317.75 88.1316Z" fill="#00285E"/>
<path d="M375.755 90.5034L366.127 83.1266L371.004 76.75L397.135 96.6299L392.259 103.131L382.631 95.7546L363.502 120.886L356.5 115.634L375.755 90.5034Z" fill="#00285E"/>
<path d="M438.509 146.875L446.636 163.129C448.886 167.63 449.386 171.756 448.261 175.257C447.261 178.258 445.01 180.633 441.634 182.384H441.509C435.758 185.259 430.632 184.009 426.631 180.258L418.254 195.262L413.628 186.135L421.129 172.756L418.004 166.63L406.626 172.381L402.75 164.629L438.509 146.875ZM429.131 171.256C431.007 175.007 434.133 176.257 437.133 174.757H437.258C440.634 173.131 441.134 169.881 439.259 166.13L435.383 158.378L425.255 163.504L429.131 171.256Z" fill="#00285E"/>
<path d="M291.253 70.5061L305.881 73.6318L310.007 66.6301L293.003 62.8792L294.629 55.0023L315.384 59.5034L317.134 52.0016L287.752 45.625L279.375 84.3845L309.007 90.886L310.633 83.2592L289.502 78.6331L291.253 70.5061Z" fill="#00285E"/>
<path d="M409.132 108.5L378.625 134.006L398.13 157.137L404.006 152.136L390.253 135.632L396.629 130.255L406.382 141.883L414.259 139.258L402.631 125.254L408.757 120.128L422.386 136.382L428.387 131.381L409.132 108.5Z" fill="#00285E"/>
<path d="M188.625 447.005C188.625 435.377 197.252 426 209.755 426C217.382 426 221.883 428.501 225.759 432.252L220.133 438.753C217.007 435.877 213.881 434.252 209.755 434.252C202.878 434.252 198.002 439.878 198.002 446.88V447.005C198.002 453.882 202.753 459.758 209.755 459.758C214.381 459.758 217.257 457.883 220.383 455.007L226.009 460.759C221.883 465.26 217.257 468.01 209.38 468.01C197.502 467.76 188.625 458.508 188.625 447.005Z" fill="#00285E"/>
<path d="M234.625 426.625H243.502V467.01H234.625V426.625Z" fill="#00285E"/>
<path d="M264.128 434.877H251.875V426.625H285.383V434.877H273.13V467.135H264.253V434.877H264.128Z" fill="#00285E"/>
<path d="M304.629 451.131L289.125 426.625H299.503L309.13 442.879L318.882 426.625H329.01L313.506 450.881V467.01H304.629V451.131Z" fill="#00285E"/>
</g>
<defs>
<clipPath id="clip0_1_2126">
<rect width="512" height="512" fill="white"/>
</clipPath>
</defs>
</svg>
