<svg width="506" height="512" viewBox="0 0 506 512" fill="none" xmlns="http://www.w3.org/2000/svg">
<path d="M277.545 486.203C275.544 492.086 269.169 506.514 253.738 506.514C236.186 506.514 230.099 487.523 229.804 486.723L229.285 484.925C229.285 484.925 244.4 486.182 252.727 486.182C261.032 486.182 275.263 485.361 277.566 484.925L277.545 486.203Z" fill="black"/>
<path d="M323.6 476.84L327.202 477.297C322.905 488.523 315.19 501.104 300.067 501.104C285.317 501.104 278.043 492.567 274.996 486.859L272.42 485.286C272.42 485.286 297.827 484.465 323.6 476.84Z" fill="black"/>
<path d="M184.409 476.84L180.807 477.297C185.083 488.523 192.833 501.104 208.005 501.104C222.671 501.104 230.577 492.117 233.834 486.859L235.582 485.286C235.582 485.286 210.217 484.465 184.409 476.84Z" fill="black"/>
<path d="M266.052 487.401C263.658 490.827 262.05 490.651 259.221 490.651C257.754 490.651 255.647 491.831 255.668 494.007C255.732 495.72 257.129 497.11 259.425 497.11C264.648 497.11 268.643 489.872 269.703 486.79C269.703 486.79 272.764 486.664 273.655 486.572C273.655 486.572 268.179 502.944 253.927 502.944C239.654 502.944 233.834 486.769 233.834 486.769C233.834 486.769 245.868 487.499 252.727 487.499C259.607 487.499 263.988 487.436 266.052 487.401Z" fill="url(#paint0_radial_1_2655)"/>
<path d="M186.346 480.185C195.621 482.642 202.248 484.72 217.869 486.616C217.869 486.616 217.371 488.195 213.973 488.069C212.674 487.985 212.498 487.662 212.049 487.585C211.045 487.402 209.592 488.42 209.739 490.112C209.894 491.306 210.891 492.787 214.359 492.787C217.827 492.787 221.864 489.965 223.907 487.325C223.907 487.325 225.978 487.809 228.133 487.915C228.133 487.915 221.457 497.238 208.342 497.238C193.943 497.238 188.579 484.313 186.346 480.185Z" fill="url(#paint1_radial_1_2655)"/>
<path d="M252.551 403.449C302.286 403.449 357.384 372.923 396.068 328.918C400.28 324.158 407.336 315.115 424.136 315.115C440.965 315.115 463.333 330.455 460.714 358.369C458.762 378.701 429.704 424.574 379.948 452.79C330.207 481.119 284.383 487.177 252.551 487.177C220.691 487.177 174.91 481.119 125.14 452.79C75.3918 424.574 46.3402 378.701 44.4025 358.369C41.7838 330.455 64.1587 315.115 80.9521 315.115C97.7947 315.115 104.879 324.158 109.077 328.918C147.705 372.923 202.831 403.449 252.551 403.449Z" fill="#FFE500" stroke="black" stroke-width="3.58054" stroke-miterlimit="3.863"/>
<path d="M252.13 410.217C202.087 410.217 145.142 380.688 103.201 332.919C98.932 328.068 93.498 321.827 80.5659 321.827C73.0117 321.827 64.4465 325.871 58.7667 332.126C54.4912 336.774 49.696 344.967 50.8474 357.527C52.5113 374.685 79.7024 419.091 128.166 446.668C167.229 468.888 208.939 480.115 252.13 480.115C295.363 480.115 337.073 468.888 376.136 446.668C424.585 419.091 451.819 374.685 453.419 357.527C454.62 344.967 449.79 336.774 445.57 332.126C439.862 325.871 431.276 321.827 423.757 321.827C410.769 321.827 405.342 328.068 401.112 332.919C359.195 380.688 302.18 410.217 252.13 410.217Z" fill="#DA020E"/>
<path d="M467.405 161.106L467.58 149.507C471.154 152.238 477.873 152.281 481.804 148.089C483.594 146.18 484.612 143.224 484.465 140.184C484.296 136.751 482.738 133.184 480.175 130.671C465.657 116.482 452.76 102.315 452.76 102.315C451.426 100.208 449.34 98.6849 448.133 98.1654C446.357 97.3158 440.038 94.4304 435.222 101.746C430.876 108.373 431.522 117.718 432.358 121.13L445.971 139.686C450.632 145.597 463.768 158.171 467.405 161.106Z" fill="black"/>
<path d="M176.433 40.834C193.571 35.077 209.241 30.317 230.359 28.4495L233.56 26.6522C221.773 17.3498 210.062 11.0032 198.401 11.0032C191.078 11.0032 176.18 15.9808 172.86 42.2662L176.433 40.834Z" fill="black"/>
<path d="M328.704 40.834C311.56 35.077 295.904 30.317 274.807 28.4495L271.563 26.6522C283.4 17.3498 295.082 11.0032 306.758 11.0032C314.087 11.0032 328.922 15.9808 332.313 42.2662L328.704 40.834Z" fill="black"/>
<path d="M233.188 27.5788C241.81 11.003 249.694 5.00732 254.103 5.00732C259.551 5.00732 265.968 13.6708 271.009 24.8828L272.069 27.4243L267.639 27.0803C264.732 26.5327 256.455 26.4274 253.295 26.4274C250.052 26.4274 243.059 26.4274 238.847 26.8206L233.188 27.5788Z" fill="black"/>
<path d="M165.207 401.129L152.725 423.693C148.954 430.475 145.072 434.779 138.704 431.128C132.435 427.582 133.888 422.443 137.735 415.437L150.253 392.844L140.158 387.242L126.931 411.119C119.65 424.262 128.812 432.413 135.987 436.365C143.647 440.606 154.796 443.758 162.013 430.714L175.331 406.731L165.207 401.129ZM325.728 447.617L321.522 434.67L334.047 430.627L332.313 425.242L319.774 429.307L316.208 418.242L329.027 414.037L327.3 408.708L303.83 416.34L316.875 456.442L342.746 448.052L341.04 442.702L325.728 447.617ZM352.54 395.72L338.253 403.955L359.406 440.638L373.637 432.41C388.345 423.929 389.742 411.081 383.95 400.775C376.979 388.545 365.472 388.264 352.54 395.72ZM374.128 406.883C379.485 416.269 378.397 423.115 370.147 427.839L366.216 430.128L350.686 403.295L354.913 400.845C364.819 395.151 370.442 400.22 374.128 406.883ZM259.839 424.071L260.604 429.569L272.413 427.898L277.517 464.152L288.497 462.629L283.407 426.395L295.04 424.78L294.24 419.206L259.839 424.071ZM249.841 424.415L238.784 423.811L236.572 465.935L247.637 466.525L249.841 424.415ZM216.269 419.265L208.567 448.05L194.153 413.333L185.188 410.925L174.264 451.679L184.03 454.27L191.795 425.247L206.426 460.259L215.194 462.625L226.076 421.856L216.269 419.265Z" fill="#FFE500"/>
<path d="M158.081 153.305V350.88L252.551 411.581L347.014 350.88L347.155 153.607C344.129 150.939 337.845 145.091 332.924 142.03H171.744C167.665 144.894 159.492 151.788 158.081 153.305Z" fill="#FFE500"/>
<mask id="mask0_1_2655" style="mask-type:luminance" maskUnits="userSpaceOnUse" x="158" y="142" width="190" height="270">
<path d="M158.081 153.305V350.88L252.551 411.581L347.014 350.88L347.155 153.607C344.129 150.939 337.845 145.091 332.924 142.03H171.744C167.665 144.894 159.492 151.788 158.081 153.305Z" fill="white"/>
</mask>
<g mask="url(#mask0_1_2655)">
<g filter="url(#filter0_f_1_2655)">
<path d="M158.081 73.053L158.081 153.305V350.88L252.551 411.581L347.014 350.88L347.155 73.3549" stroke="#B54005" stroke-width="17.0667" stroke-miterlimit="3.863"/>
</g>
</g>
<path d="M290.308 295.061V287.717C290.308 287.717 288.357 284.699 283.519 284.699C278.696 284.699 275.811 286.152 275.811 287.367C275.811 289.353 280.128 295.061 290.308 295.061ZM252.214 230.057L259.516 217.307L265.238 230.057H274.715C269.015 235.407 266.684 243.501 266.684 248.9V254.784C266.684 257.283 265.427 261.418 265.427 261.418C265.427 261.418 273.655 267.688 274.919 268.776C275.446 269.19 276.021 269.443 275.642 270.531C274.989 272.363 269.401 274.884 268.832 275.361C267.568 276.484 267.238 277.158 267.568 278.268C267.969 279.335 269.015 279.531 271.156 278.773C273.318 278.078 277.798 275.726 281.554 274.118C285.296 272.49 290.308 272.904 290.308 272.904V265.708H276.155V242.841L273.655 238.812L279.897 227.691L286.173 238.882L283.702 242.841V254.784H290.912V242.841L288.427 238.882L294.689 227.775L300.924 238.882L298.459 242.841V254.784H305.719V242.841L303.149 238.882L309.433 227.775L315.695 238.882L313.196 242.841L313.315 265.673H299.049V276.232C302.286 279.272 305.34 286.152 305.34 290.203C305.34 294.352 302.637 296.107 302.637 296.107C303.542 299.365 303.367 300.72 302.981 303.668C302.637 306.666 298.895 311.342 298.895 311.342V365.914C298.895 369.621 290.308 369.255 290.308 366.089V312.571C285.45 307.256 272.223 303.079 272.223 303.079C267.372 307.93 264.388 316.355 264.388 316.355C266.494 317.829 269.773 316.355 271.009 314.923C272.223 313.49 274.715 313.118 276.155 314.024C277.566 314.923 277.917 315.267 277.432 317.373C276.878 319.591 275.993 323.137 275.993 325.615C275.993 328.157 278.851 327.588 280.985 327.777C285.296 328.157 286.005 332.973 285.647 335.662C285.296 338.365 284.032 344.1 284.032 347.667C284.032 351.198 284.221 354.765 284.572 356.787C284.945 358.739 285.647 360.894 285.45 363.414C285.232 366.805 283.147 367.346 280.985 365.169C278.851 363.028 248.964 331.168 248.964 331.168C246.977 337.648 255.247 348.699 257.915 352.111C260.604 355.523 260.428 358.029 258.076 360.367C255.774 362.677 251.287 363.913 250.41 366.089C249.497 368.195 252.551 374.682 258.835 382.728C265.097 390.76 251.646 396.152 243.621 397.759C235.54 399.346 235.54 393.8 236.102 390.76C236.635 387.748 236.635 385.916 236.439 383.269C236.263 380.573 233.792 376.838 230.359 372.366C226.968 367.872 226.968 363.786 228.379 353.375C229.804 342.991 229.467 336.364 229.467 336.364C229.467 336.364 225.887 336.511 220.691 336.364C215.524 336.167 211.235 333.169 210.869 320.63C210.511 308.127 210.217 278.268 209.367 275.136C208.539 272.04 205.19 271.472 203.779 271.057C202.311 270.692 202.241 268.579 203.659 267.821C207.394 266.003 211.874 261.418 210.217 258.568C208.539 255.71 201.96 256.3 197.558 258.455C193.142 260.59 188.488 265.28 187.287 266.557C186.129 267.821 185.125 267.821 185.251 266.459C185.399 264.999 184.437 258.168 183.868 255.802C183.236 253.415 181.102 248.9 180.379 247.707C179.67 246.506 180.379 246.043 181.586 246.506C182.745 246.984 185.399 248.086 187.891 248.746C190.404 249.504 192.798 248.268 193.943 245.924C195.136 243.501 197.467 238.397 198.661 236.116C199.833 233.862 201.729 234.367 203.287 234.711C204.832 235.077 206.264 236.031 207.689 236.6C209.107 237.19 210.294 237.077 210.799 236.354C211.284 235.666 211.873 235.407 212.73 233.623C213.565 231.84 214.605 232.69 214.738 233.399C219.006 259.066 230.127 260.246 230.127 260.246C228.456 264.521 224.539 271.338 223.612 273.058C222.608 274.666 222.236 276.955 221.99 278.731C221.801 280.5 222.608 297.455 223.795 303.668C225.002 309.889 228.8 307.467 230.036 305.564C231.18 303.668 234.908 295.777 234.908 295.777C234.908 295.777 235.828 293.629 235.828 291.846C235.828 290.048 232.739 286.152 232.03 284.937C231.293 283.702 228.688 281.336 228.688 275.361C228.688 269.408 234.052 265.28 235.982 263.714C237.892 262.148 237.892 259.979 237.632 258.673C236.797 254.067 231.903 244.379 229.552 240.665C227.143 236.965 222.496 229.937 222.496 229.937H232.156L238.377 217.019L245.144 229.994L252.214 230.057ZM250.649 269.19C253.801 263.981 255.121 258.568 255.121 258.568H246.008C246.008 258.568 247.468 264.107 250.649 269.19ZM241.157 242.926C241.522 245.594 243.509 246.612 245.018 245.832C246.521 245.004 246.261 242.841 245.144 241.114C244.077 239.422 241.859 237.534 241.178 237.815C240.483 238.102 240.918 241.353 241.157 242.926ZM259.221 237.815C258.568 237.534 256.23 239.422 255.121 241.114C254.054 242.841 253.78 245.004 255.296 245.832C256.778 246.612 258.687 245.572 259.165 242.926C259.424 241.353 259.937 238.102 259.221 237.815Z" fill="url(#paint2_linear_1_2655)"/>
<path d="M165.493 202.56V214.453H339.786V202.56H326.933V204.48H178.346V202.56H165.493Z" fill="#DA020E"/>
<path d="M165.502 149.114H339.762V196.503H165.502V149.114Z" fill="#DA020E"/>
<path d="M195.445 182.745L208.791 186.023L215.995 165.951V160.868L195.445 182.745ZM305.438 194.577V188.395H292.843V183.2H303.135V160.284H293.65L290.407 153.979L287.24 160.284H277.727V183.2H288.062V188.395H263.286V183.2H273.592V160.284H264.093L260.885 153.979L257.641 160.284H248.17V183.2H258.526V188.395H233.237V183.2H243.565V160.284H234.052L230.871 153.979L227.607 160.284H218.129V183.2H228.491V188.395L208.482 188.458L188.579 183.81L192.567 194.577L305.438 194.577Z" fill="#FFE500"/>
<path d="M177.423 38.9663C194.245 33.3357 206.959 28.9478 227.677 27.1084C218.129 20.4809 209.655 14.8713 199.91 14.8713C194.785 14.8713 190.404 16.8301 189.393 20.4107C188.453 23.6682 191.022 25.0864 191.935 24.8688C192.89 24.6231 193.571 24.3423 193.339 23.4576C193.093 22.5239 193.816 20.1509 197.074 20.1509C200.388 20.1509 201.637 23.2189 201.637 25.3251C201.637 27.4313 198.295 30.9487 192.152 30.9487C186.129 30.9487 183.04 26.9329 183.271 23.2189C180.365 27.4735 178.673 31.7771 177.423 38.9663Z" fill="url(#paint3_radial_1_2655)"/>
<path d="M60.2061 139.683L73.8683 121.127C74.6546 117.715 75.2794 108.377 70.9126 101.75C66.1385 94.4274 59.848 97.32 58.0016 98.1695C56.8362 98.689 54.7159 100.205 53.4101 102.319C53.4101 102.319 40.2744 116.781 25.8188 131.012C23.7758 133.041 21.5292 136.748 21.3397 140.181C21.1642 143.228 22.3927 146.289 24.162 148.199C28.1146 152.411 35.023 152.243 38.5544 149.505L38.8 161.103C42.4367 158.175 55.5514 145.594 60.2061 139.683Z" fill="black"/>
<path d="M252.551 112.679C330.34 112.679 374.599 185.694 384.259 198.514C401.417 221.415 422.423 240.006 446.764 233.863C482.52 224.715 480.66 171.751 480.66 171.751C472.031 165.538 457.33 157.716 430.525 119.721C404.275 82.476 344.873 27.3007 252.551 27.3007C160.209 27.3007 100.821 82.476 74.6337 119.721C47.8007 157.716 33.0503 165.538 24.5061 171.751C24.5061 171.751 22.5754 224.715 58.3598 233.863C82.6863 240.006 103.678 221.415 120.865 198.514C130.49 185.694 174.776 112.679 252.551 112.679Z" fill="#FFE500" stroke="black" stroke-width="3.58054" stroke-miterlimit="3.863"/>
<path d="M252.551 105.747C327.546 105.747 372.148 169.361 388.278 192.315C409.625 220.809 427.696 231.564 445.058 227.148C470.15 220.76 473.267 186.225 473.604 175.771V175.357L473.323 175.139C464.477 169.01 449.678 158.851 424.881 123.699C410.088 102.707 353.93 34.1643 252.551 34.1643C151.208 34.1643 95.0006 102.707 80.2151 123.699C55.6217 158.627 40.1552 169.277 31.8708 174.964L31.5198 175.252L31.562 175.617C31.899 186.091 35.0231 220.809 60.0518 227.148C77.435 231.564 95.5413 220.809 116.831 192.315C132.947 169.361 177.592 105.747 252.551 105.747Z" fill="#DA020E"/>
<path d="M211.81 52.6053C198.05 55.5189 188.986 65.6638 191.956 79.4173C193.683 86.8451 200.311 100.514 221.274 96.0562C227.094 94.947 230.24 92.6301 233.287 89.7165L229.467 85.3286C228.028 86.9293 225.88 89.2602 221.057 90.2641C210.912 92.4054 204.881 84.1983 203.379 77.1145C201.146 66.6186 207.261 59.3873 214.169 57.8919C219.105 56.8037 222.096 58.1446 223.991 58.8818H224.054L225.339 53.504C222.011 52.1701 218.017 51.2855 211.81 52.6053ZM326.893 113.112C334.763 117.851 343.349 117.044 347.365 110.395C350.286 105.748 350.314 101.886 346.804 94.9708C345.898 93.012 344.712 91.6079 343.918 89.8247C342.367 86.9321 340.934 84.5662 342.268 82.3266C343.743 79.8974 347.155 79.7008 350.244 81.5894C353.48 83.5482 354.821 86.7847 355.502 88.9962L360.578 86.8058C359.02 82.6355 356.71 78.8935 351.43 75.7693C342.409 70.3353 335.072 71.7675 332.018 76.8575C328.922 81.9755 329.8 86.2371 332.131 90.6039C332.131 90.6039 333.577 93.0823 334.412 94.7743C336.455 98.1863 338.835 102.49 337.164 105.179C335.142 108.57 331.66 109.307 328.269 107.201C323.923 104.463 322.905 101.275 322 98.1652L316.418 100.552C317.647 104.835 320.532 109.272 326.893 113.112ZM266.81 50.3917L266.494 67.5783L249.968 67.3396L250.213 50.0898L239.135 49.8862L238.398 92.0594L249.497 92.298L249.848 72.9632L266.403 73.265L266.087 92.5648L277.173 92.7333L277.896 50.5602L266.81 50.3917ZM425.526 184.309C425.604 184.414 432.028 187.587 439.168 181.178C445.135 175.814 443.134 168.463 436.9 161.562L425.407 148.791L394.074 177.028L401.481 185.243L413.956 174.052L417.558 178.117L409.66 195.935L419.117 203.489L425.526 184.309ZM431.122 163.535C434.057 166.792 434.106 170.661 430.694 173.665C427.373 176.726 423.132 176.024 419.91 172.486L418.035 170.387L428.644 160.804L431.122 163.535ZM382.223 152.761L392.719 144.048L401.137 154.067L405.489 150.437L397.022 140.376L405.904 132.899L414.574 143.227L418.878 139.639L403.039 120.76L370.751 147.874L388.191 168.691L392.543 165.075L382.223 152.761ZM370.119 89.3887L366.356 93.5169L375.202 101.513L350.686 128.711L358.956 136.146L383.438 108.941L392.171 116.804L395.92 112.676L370.119 89.3887ZM297.926 92.0622L302.391 79.2003L314.811 83.4829L316.657 78.1332L304.216 73.8575L308.001 62.8422L320.799 67.2301L322.596 61.9084L299.281 53.8838L285.577 93.8243L311.272 102.621L313.098 97.2996L297.926 92.0622ZM164.4 71.3996L180.239 96.646L144.974 83.4822L137.125 88.4107L159.485 124.237L168.001 118.873L152.058 93.3673L187.687 106.594L195.382 101.771L172.979 65.9657L164.4 71.3996ZM115.073 109.549L107.862 117.286L128.075 157.479L133.01 152.2L127.52 141.507L137.279 131.011L148.344 135.701L156.474 126.996L115.073 109.549ZM132.119 128.688L124.796 136.551L117.27 122.088L132.119 128.688ZM91.2516 135.055L83.4025 144.399L98.0686 174.728L66.6161 164.429L59.8481 172.447L92.1643 199.581L97.0717 193.754L74.2335 174.532L104.844 184.501L108.066 180.682L93.4701 151.434L116.407 170.663L123.568 162.189L91.2516 135.055Z" fill="#FFE500"/>
<path d="M41.8821 156.545L41.8469 147.243C57.7206 132.668 65.2047 118.023 65.2047 118.023C65.2047 118.023 59.3705 115.825 56.7589 112.504C55.467 110.658 54.9686 108.138 55.1862 106.446C55.6917 103.272 58.1629 101.664 59.0054 101.299C60.8308 100.513 64.2218 98.7298 67.9989 103.925C72.0218 109.549 70.9616 120.22 70.407 122.677C70.407 122.677 63.0073 135.56 41.8821 156.545Z" fill="url(#paint4_radial_1_2655)"/>
<path d="M59.448 119.719C57.3067 123.454 51.9078 132.469 38.2526 145.268C35.9849 147.395 30.3263 149.199 27.1178 145.598C25.9173 144.201 25.1239 142.242 25.2433 139.967C25.3977 137.334 26.9774 134.273 28.5641 132.925C31.3162 130.601 43.0477 118.758 51.3882 109.441C51.6199 111.14 53.0802 113.984 53.0802 113.984C54.2316 115.57 55.6358 117.852 59.448 119.719Z" fill="url(#paint5_linear_1_2655)"/>
<path d="M252.13 410.217C202.087 410.217 145.142 380.688 103.201 332.919C98.932 328.068 93.498 321.827 80.5659 321.827C73.0117 321.827 64.4465 325.871 58.7667 332.126C54.4912 336.774 49.696 344.967 50.8474 357.527C52.5113 374.685 79.7024 419.091 128.166 446.668C167.229 468.888 208.939 480.115 252.13 480.115" fill="url(#paint6_linear_1_2655)"/>
<path d="M252.13 410.217C302.173 410.217 359.118 380.688 401.059 332.919C405.328 328.068 410.762 321.827 423.694 321.827C431.248 321.827 439.813 325.871 445.493 332.126C449.769 336.774 454.564 344.967 453.413 357.527C451.749 374.685 424.558 419.091 376.094 446.668C337.031 468.888 295.321 480.115 252.13 480.115" fill="url(#paint7_linear_1_2655)"/>
<path d="M388.278 192.315C409.624 220.809 427.696 231.564 445.058 227.148C470.15 220.759 473.267 186.225 473.604 175.771V175.357L473.323 175.139C464.477 169.01 449.677 158.851 424.88 123.699" fill="url(#paint8_linear_1_2655)"/>
<path d="M116.894 192.315C95.5474 220.809 77.4762 231.564 60.1141 227.148C35.0222 220.759 31.9051 186.225 31.5681 175.771V175.357L31.8489 175.139C40.6949 169.01 55.4945 158.851 80.2915 123.699" fill="url(#paint9_linear_1_2655)"/>
<path d="M327.749 38.9663C310.927 33.3357 298.213 28.9478 277.495 27.1084C287.043 20.4809 295.517 14.8713 305.262 14.8713C310.387 14.8713 314.768 16.8301 315.779 20.4107C316.719 23.6682 314.15 25.0864 313.237 24.8688C312.282 24.6231 311.601 24.3423 311.833 23.4576C312.079 22.5239 311.356 20.1509 308.098 20.1509C304.784 20.1509 303.535 23.2189 303.535 25.3251C303.535 27.4313 306.876 30.9487 313.019 30.9487C319.043 30.9487 322.132 26.9329 321.901 23.2189C324.807 27.4735 326.499 31.7771 327.749 38.9663Z" fill="url(#paint10_radial_1_2655)"/>
<path d="M253.34 16.8856C252.814 20.101 249.114 23.1831 245.372 23.1831C241.623 23.1831 240.499 22.5794 240.499 22.5794C239.931 23.464 239.432 24.145 238.843 25.0998C242.241 24.9663 250.125 24.7487 253.284 24.7487C256.436 24.7487 265.177 25.2051 267.059 25.3385C264.019 18.2125 258.156 8.34848 254.105 8.34848C253.965 8.34848 253.79 8.33484 253.572 8.33484C252.624 8.33484 249.341 11.1814 247.582 13.6809C245.271 16.9646 253.34 16.8856 253.34 16.8856Z" fill="url(#paint11_radial_1_2655)"/>
<path d="M463.29 156.545L463.325 147.243C447.451 132.668 439.967 118.023 439.967 118.023C439.967 118.023 445.801 115.825 448.413 112.504C449.705 110.658 450.203 108.138 449.986 106.446C449.48 103.272 447.009 101.664 446.167 101.299C444.341 100.513 440.95 98.7298 437.173 103.925C433.15 109.549 434.21 120.22 434.765 122.677C434.765 122.677 442.165 135.56 463.29 156.545Z" fill="url(#paint12_radial_1_2655)"/>
<path d="M445.724 119.719C447.865 123.454 453.264 132.469 466.92 145.268C469.187 147.395 474.846 149.199 478.054 145.598C479.255 144.201 480.048 142.242 479.929 139.967C479.774 137.334 478.195 134.273 476.608 132.925C473.856 130.601 462.124 118.758 453.784 109.441C453.552 111.14 452.092 113.984 452.092 113.984C450.941 115.57 449.536 117.852 445.724 119.719Z" fill="url(#paint13_linear_1_2655)"/>
<path d="M158.081 153.305V350.88L252.551 411.581L347.014 350.88L347.155 153.607C344.129 150.939 337.845 145.091 332.924 142.03H171.744C167.665 144.894 159.492 151.788 158.081 153.305Z" stroke="black" stroke-width="3.58054" stroke-miterlimit="3.863"/>
<path d="M321.812 480.185C312.538 482.642 305.911 484.72 290.29 486.616C290.29 486.616 290.788 488.195 294.186 488.069C295.485 487.985 295.66 487.662 296.11 487.585C297.114 487.402 298.567 488.42 298.42 490.112C298.265 491.306 297.268 492.787 293.8 492.787C290.332 492.787 286.295 489.965 284.252 487.325C284.252 487.325 282.181 487.809 280.025 487.915C280.025 487.915 286.702 497.238 299.817 497.238C314.216 497.238 319.58 484.313 321.812 480.185Z" fill="url(#paint14_radial_1_2655)"/>
<path d="M7.24927 277.38C7.24927 253.544 26.5912 234.16 50.4544 234.16C74.3247 234.16 93.6526 253.544 93.6526 277.38C93.6526 301.257 74.3247 320.599 50.4544 320.599C26.5912 320.599 7.24927 301.257 7.24927 277.38Z" fill="#FFE500" stroke="black" stroke-width="3.58054" stroke-miterlimit="3.863"/>
<path d="M17.1399 275.773C17.1399 257.701 32.0537 243.005 50.4537 243.005C68.8591 243.005 83.762 257.701 83.762 275.773C83.762 293.876 68.8591 308.54 50.4537 308.54C32.0537 308.54 17.1399 293.876 17.1399 275.773Z" fill="url(#paint15_radial_1_2655)"/>
<path d="M59.6303 307.083C57.7347 307.687 56.9133 306.36 56.0498 305.405C52.6869 301.537 51.8233 291.238 51.8233 289.876C51.8233 288.507 52.3288 287.004 53.2907 286.969C61.3995 286.815 67.1916 284.463 72.5062 280.047C77.8139 275.708 80.1166 270.73 80.587 269.846C81.0503 268.863 82.1526 269.038 82.3562 270.4C82.5808 271.538 83.0092 273.581 83.0092 275.792C83.0092 290.634 73.0047 302.759 59.6303 307.083ZM51.0721 308.424C50.8404 308.424 50.5807 308.452 50.3631 308.452C44.3885 308.452 37.8101 306.171 33.9136 303.952C29.8768 301.755 28.3603 291.392 28.3603 286.155C28.3603 269.102 35.3529 258.95 36.4902 256.956C37.5995 254.934 40.0988 254.723 41.9312 255.215C43.8268 255.762 44.5008 256.092 46.6842 256.738C47.8216 257.11 50.1313 257.581 51.8655 257.89C53.5996 258.304 55.4671 258.669 54.3438 261.905C53.2345 265.149 49.4574 272.942 49.0783 282.181C48.7132 290.543 49.8225 298.848 51.711 303.952C52.9537 307.252 52.9537 308.487 51.0721 308.424ZM26.3875 269.495C24.7938 268.652 22.8771 264.538 22.2312 263.338C21.796 262.474 21.796 260.003 22.4208 258.95C25.0887 254.281 28.8728 249.956 33.7451 247.703C34.3419 247.443 35.1773 247.394 35.1773 248.826C35.1773 249.591 35.5916 250.785 35.6056 251.543C35.6056 252.308 35.9286 253.874 34.9597 255.109C33.9417 256.352 29.5819 264.082 28.4656 268.414C28.2831 269.382 27.9882 270.4 26.3875 269.495ZM25.4888 296.861C20.9675 292.396 17.745 284.308 17.745 275.792C17.745 272.485 18.2365 269.319 19.1141 266.314C19.1141 266.314 19.9215 264.966 20.6235 266.111C21.1641 266.953 21.9083 267.803 22.5121 268.926C23.1861 270.049 26.6824 272.71 26.3875 274.88C25.1659 282.848 26.2612 293.435 26.6402 295.218C26.9772 296.981 26.4928 297.732 25.4888 296.861ZM39.7618 244.922C43.1107 243.813 46.6842 243.188 50.3631 243.188C55.9585 243.188 61.3925 244.206 65.9279 247.099C67.0933 247.857 67.4233 248.742 67.4233 250.054C67.4233 254.33 60.7396 255.762 56.3166 255.762C51.8654 255.762 46.3894 254 42.5139 252.772C38.6526 251.564 37.8101 249.331 37.8101 248.313C37.8101 247.338 38.5613 245.316 39.7618 244.922ZM69.9367 249.675C70.5334 250.16 72.1131 251.438 72.1131 251.438C75.2302 254.281 78.0455 257.524 79.6813 261.414C81.7244 266.314 75.3847 273.735 73.5242 275.448C65.1275 283.332 59.869 283.185 56.8923 283.613C53.9155 284.049 51.9848 282.181 52.062 279.941C52.2516 273.384 56.9203 262.081 58.2613 259.954C59.1178 258.585 60.6062 257.735 60.6062 257.735C63.7234 256.872 66.7493 255.573 68.3149 253.789C69.8454 251.978 69.9367 249.675 69.9367 249.675ZM50.686 241.061C30.6139 241.061 14.3611 257.321 14.3611 277.379C14.3611 297.451 30.6139 313.704 50.686 313.704C70.744 313.704 87.032 297.451 87.032 277.379C87.032 257.321 70.744 241.061 50.686 241.061Z" fill="#DA020E"/>
<path d="M412.356 277.295C412.356 253.46 431.698 234.146 455.561 234.146C479.438 234.146 498.766 253.46 498.766 277.295C498.766 301.173 479.438 320.522 455.561 320.522C431.698 320.522 412.356 301.173 412.356 277.295Z" fill="#FFE500" stroke="black" stroke-width="3.58054" stroke-miterlimit="3.863"/>
<path d="M480.863 296.712C479.915 297.645 479.382 296.831 479.782 295.083C480.112 293.349 481.214 282.726 479.986 274.758C479.684 272.596 483.201 269.942 483.847 268.805C484.493 267.688 485.23 266.818 485.75 266.003C486.473 264.824 487.238 266.144 487.238 266.144C488.165 269.184 488.614 272.364 488.614 275.657C488.614 284.201 485.349 292.261 480.863 296.712ZM477.936 268.299C476.812 263.981 472.424 256.217 471.434 254.981C470.437 253.787 470.753 252.201 470.767 251.435C470.767 250.677 471.203 249.463 471.203 248.676C471.203 247.307 472.031 247.335 472.621 247.595C477.521 249.849 481.284 254.11 483.98 258.821C484.577 259.895 484.591 262.353 484.149 263.188C483.517 264.396 481.614 268.51 479.986 269.38C478.357 270.272 478.118 269.233 477.936 268.299ZM472.48 303.831C468.577 306.014 461.999 308.317 455.996 308.317H455.301C453.454 308.366 453.412 307.081 454.676 303.796C456.508 298.734 457.653 290.393 457.274 282.053C456.895 272.771 453.167 265.063 452.008 261.798C450.885 258.561 452.759 258.168 454.515 257.803C456.256 257.459 458.558 256.954 459.703 256.589C461.851 255.936 462.546 255.606 464.442 255.065C466.288 254.588 468.774 254.826 469.904 256.799C471.013 258.821 478.02 269.036 478.02 286.047C478.02 291.257 476.489 301.605 472.48 303.831ZM446.764 306.948C433.354 302.602 423.371 290.484 423.371 275.657C423.371 273.473 423.799 271.451 423.975 270.272C424.234 268.91 425.259 268.685 425.772 269.689C426.242 270.602 428.573 275.572 433.853 279.925C439.202 284.306 444.938 286.7 453.096 286.869C454.086 286.918 454.55 288.371 454.55 289.768C454.55 291.151 453.714 301.43 450.365 305.27C449.474 306.253 448.617 307.601 446.764 306.948ZM426.727 261.299C428.32 257.41 431.15 254.11 434.267 251.33C434.267 251.33 435.811 250.024 436.408 249.568C436.408 249.568 436.535 251.892 438.086 253.633C439.631 255.388 442.629 256.764 445.746 257.586C445.746 257.586 447.213 258.477 448.091 259.846C449.474 261.91 454.107 273.199 454.311 279.806C454.367 282.053 452.458 283.92 449.474 283.492C446.483 283.092 441.238 283.183 432.849 275.341C430.995 273.621 424.656 266.214 426.727 261.299ZM440.431 246.977C445.03 244.071 450.393 243.053 455.996 243.053C459.703 243.053 463.227 243.685 466.604 244.794C467.847 245.18 468.577 247.181 468.577 248.185C468.577 249.175 467.756 251.435 463.866 252.65C459.991 253.844 454.536 255.627 450.092 255.627C445.619 255.627 438.957 254.173 438.957 249.919C438.957 248.634 439.28 247.7 440.431 246.977ZM455.652 240.968C435.601 240.968 419.341 257.234 419.341 277.243C419.341 297.365 435.601 313.568 455.652 313.568C475.738 313.568 491.998 297.365 491.998 277.243C491.998 257.234 475.738 240.968 455.652 240.968Z" fill="#DA020E"/>
<path d="M422.74 275.613C422.74 257.541 437.653 242.845 456.053 242.845C474.459 242.845 489.362 257.541 489.362 275.613C489.362 293.716 474.459 308.38 456.053 308.38C437.653 308.38 422.74 293.716 422.74 275.613Z" fill="url(#paint16_radial_1_2655)"/>
<defs>
<filter id="filter0_f_1_2655" x="138.996" y="62.5009" width="227.244" height="369.775" filterUnits="userSpaceOnUse" color-interpolation-filters="sRGB">
<feFlood flood-opacity="0" result="BackgroundImageFix"/>
<feBlend mode="normal" in="SourceGraphic" in2="BackgroundImageFix" result="shape"/>
<feGaussianBlur stdDeviation="5.27602" result="effect1_foregroundBlur_1_2655"/>
</filter>
<radialGradient id="paint0_radial_1_2655" cx="0" cy="0" r="1" gradientUnits="userSpaceOnUse" gradientTransform="translate(253.745 494.545) scale(16.9293 12.5848)">
<stop stop-color="#FFE500"/>
<stop offset="0.5" stop-color="#FFE500"/>
<stop offset="1" stop-color="#E15007"/>
</radialGradient>
<radialGradient id="paint1_radial_1_2655" cx="0" cy="0" r="1" gradientUnits="userSpaceOnUse" gradientTransform="translate(207.24 488.711) scale(17.9013 16.0957)">
<stop stop-color="#FFE500"/>
<stop offset="0.5" stop-color="#FFE500"/>
<stop offset="1" stop-color="#E15007"/>
</radialGradient>
<linearGradient id="paint2_linear_1_2655" x1="247.677" y1="216.416" x2="247.677" y2="310.396" gradientUnits="userSpaceOnUse">
<stop stop-color="#8F0904"/>
<stop offset="0.249601" stop-color="#B40509"/>
<stop offset="1" stop-color="#DA020E"/>
</linearGradient>
<radialGradient id="paint3_radial_1_2655" cx="0" cy="0" r="1" gradientUnits="userSpaceOnUse" gradientTransform="translate(198.779 27.9748) scale(20.4665 19.4871)">
<stop stop-color="#FFE500"/>
<stop offset="0.5" stop-color="#FFE500"/>
<stop offset="1" stop-color="#E15007"/>
</radialGradient>
<radialGradient id="paint4_radial_1_2655" cx="0" cy="0" r="1" gradientUnits="userSpaceOnUse" gradientTransform="translate(50.0032 131.865) rotate(-60.273) scale(31.9362 28.0937)">
<stop stop-color="#FFE500"/>
<stop offset="0.5" stop-color="#FFE500"/>
<stop offset="1" stop-color="#E15007"/>
</radialGradient>
<linearGradient id="paint5_linear_1_2655" x1="45.7114" y1="119.16" x2="53.4747" y2="127.693" gradientUnits="userSpaceOnUse">
<stop stop-color="#FFE500"/>
<stop offset="0.5" stop-color="#FFE500"/>
<stop offset="1" stop-color="#E15007"/>
</linearGradient>
<linearGradient id="paint6_linear_1_2655" x1="63.3452" y1="330.976" x2="116.969" y2="392.523" gradientUnits="userSpaceOnUse">
<stop stop-color="#740703"/>
<stop offset="1" stop-color="#DA020E" stop-opacity="0"/>
</linearGradient>
<linearGradient id="paint7_linear_1_2655" x1="440.915" y1="330.976" x2="387.291" y2="392.523" gradientUnits="userSpaceOnUse">
<stop stop-color="#740703"/>
<stop offset="1" stop-color="#DA020E" stop-opacity="0"/>
</linearGradient>
<linearGradient id="paint8_linear_1_2655" x1="460.811" y1="217.715" x2="431.791" y2="190.408" gradientUnits="userSpaceOnUse">
<stop stop-color="#740703"/>
<stop offset="1" stop-color="#DA020E" stop-opacity="0"/>
</linearGradient>
<linearGradient id="paint9_linear_1_2655" x1="44.3605" y1="217.715" x2="75.0881" y2="185.288" gradientUnits="userSpaceOnUse">
<stop stop-color="#740703"/>
<stop offset="1" stop-color="#DA020E" stop-opacity="0"/>
</linearGradient>
<radialGradient id="paint10_radial_1_2655" cx="0" cy="0" r="1" gradientUnits="userSpaceOnUse" gradientTransform="translate(306.393 27.9748) rotate(180) scale(20.4665 19.4871)">
<stop stop-color="#FFE500"/>
<stop offset="0.5" stop-color="#FFE500"/>
<stop offset="1" stop-color="#E15007"/>
</radialGradient>
<radialGradient id="paint11_radial_1_2655" cx="0" cy="0" r="1" gradientUnits="userSpaceOnUse" gradientTransform="translate(252.586 18.496) scale(15.4622 14.7792)">
<stop stop-color="#FFE500"/>
<stop offset="0.5" stop-color="#FFE500"/>
<stop offset="1" stop-color="#E15007"/>
</radialGradient>
<radialGradient id="paint12_radial_1_2655" cx="0" cy="0" r="1" gradientTransform="matrix(-15.8361 -27.7334 -24.3964 13.9308 455.169 131.865)" gradientUnits="userSpaceOnUse">
<stop stop-color="#FFE500"/>
<stop offset="0.5" stop-color="#FFE500"/>
<stop offset="1" stop-color="#E15007"/>
</radialGradient>
<linearGradient id="paint13_linear_1_2655" x1="459.461" y1="119.16" x2="451.697" y2="127.693" gradientUnits="userSpaceOnUse">
<stop stop-color="#FFE500"/>
<stop offset="0.5" stop-color="#FFE500"/>
<stop offset="1" stop-color="#E15007"/>
</linearGradient>
<radialGradient id="paint14_radial_1_2655" cx="0" cy="0" r="1" gradientUnits="userSpaceOnUse" gradientTransform="translate(300.919 488.711) rotate(180) scale(17.9013 16.0957)">
<stop stop-color="#FFE500"/>
<stop offset="0.5" stop-color="#FFE500"/>
<stop offset="1" stop-color="#E15007"/>
</radialGradient>
<radialGradient id="paint15_radial_1_2655" cx="0" cy="0" r="1" gradientUnits="userSpaceOnUse" gradientTransform="translate(50.451 275.773) scale(33.3111 32.7679)">
<stop stop-color="#DA030E" stop-opacity="0"/>
<stop offset="0.875" stop-color="#DA020E" stop-opacity="0"/>
<stop offset="1" stop-color="#DA020E"/>
</radialGradient>
<radialGradient id="paint16_radial_1_2655" cx="0" cy="0" r="1" gradientUnits="userSpaceOnUse" gradientTransform="translate(456.051 275.613) scale(33.3111 32.7679)">
<stop stop-color="#DA030E" stop-opacity="0"/>
<stop offset="0.875" stop-color="#DA020E" stop-opacity="0"/>
<stop offset="1" stop-color="#DA020E"/>
</radialGradient>
</defs>
</svg>
