<svg width="850" height="520" viewBox="0 0 850 520" fill="none" xmlns="http://www.w3.org/2000/svg">
<path d="M40 91.2C40 73.2783 40 64.3175 43.4878 57.4723C46.5557 51.4511 51.4511 46.5557 57.4723 43.4878C64.3175 40 73.2783 40 91.2 40H758.8C776.722 40 785.682 40 792.528 43.4878C798.549 46.5557 803.444 51.4511 806.512 57.4723C810 64.3175 810 73.2783 810 91.2V428.8C810 446.722 810 455.683 806.512 462.528C803.444 468.549 798.549 473.444 792.528 476.512C785.682 480 776.722 480 758.8 480H91.2C73.2783 480 64.3175 480 57.4723 476.512C51.4511 473.444 46.5557 468.549 43.4878 462.528C40 455.683 40 446.722 40 428.8V91.2Z" fill="#303030"/>
<path d="M57.4723 476.512L59.7423 472.057L57.4723 476.512ZM43.4878 462.528L47.9428 460.258L43.4878 462.528ZM806.512 462.528L810.967 464.798L806.512 462.528ZM792.528 476.512L794.798 480.967L792.528 476.512ZM792.528 43.4878L794.798 39.0328L792.528 43.4878ZM806.512 57.4723L802.057 59.7423L806.512 57.4723ZM57.4723 43.4878L55.2024 39.0328L57.4723 43.4878ZM43.4878 57.4723L39.0328 55.2024L43.4878 57.4723ZM91.2 45H758.8V35H91.2V45ZM805 91.2V428.8H815V91.2H805ZM758.8 475H91.2V485H758.8V475ZM45 428.8V91.2H35V428.8H45ZM91.2 475C82.1567 475 75.6749 474.996 70.5896 474.581C65.5628 474.17 62.3425 473.382 59.7423 472.057L55.2024 480.967C59.4473 483.13 64.13 484.086 69.7753 484.547C75.3622 485.004 82.3217 485 91.2 485V475ZM35 428.8C35 437.678 34.9961 444.638 35.4526 450.225C35.9138 455.87 36.8699 460.553 39.0328 464.798L47.9428 460.258C46.6179 457.658 45.8301 454.437 45.4194 449.41C45.0039 444.325 45 437.843 45 428.8H35ZM59.7423 472.057C54.6619 469.469 50.5314 465.338 47.9428 460.258L39.0328 464.798C42.5801 471.76 48.2404 477.42 55.2024 480.967L59.7423 472.057ZM805 428.8C805 437.843 804.996 444.325 804.581 449.41C804.17 454.437 803.382 457.658 802.057 460.258L810.967 464.798C813.13 460.553 814.086 455.87 814.547 450.225C815.004 444.638 815 437.678 815 428.8H805ZM758.8 485C767.678 485 774.638 485.004 780.225 484.547C785.87 484.086 790.553 483.13 794.798 480.967L790.258 472.057C787.657 473.382 784.437 474.17 779.41 474.581C774.325 474.996 767.843 475 758.8 475V485ZM802.057 460.258C799.469 465.338 795.338 469.469 790.258 472.057L794.798 480.967C801.76 477.42 807.42 471.76 810.967 464.798L802.057 460.258ZM758.8 45C767.843 45 774.325 45.0039 779.41 45.4194C784.437 45.8301 787.657 46.6179 790.258 47.9428L794.798 39.0328C790.553 36.8699 785.87 35.9138 780.225 35.4526C774.638 34.9961 767.678 35 758.8 35V45ZM815 91.2C815 82.3217 815.004 75.3622 814.547 69.7753C814.086 64.13 813.13 59.4473 810.967 55.2024L802.057 59.7423C803.382 62.3425 804.17 65.5628 804.581 70.5896C804.996 75.6749 805 82.1567 805 91.2H815ZM790.258 47.9428C795.338 50.5314 799.469 54.6619 802.057 59.7423L810.967 55.2024C807.42 48.2404 801.76 42.5801 794.798 39.0328L790.258 47.9428ZM91.2 35C82.3217 35 75.3622 34.9961 69.7753 35.4526C64.13 35.9138 59.4473 36.8699 55.2024 39.0328L59.7423 47.9428C62.3425 46.6179 65.5628 45.8301 70.5896 45.4194C75.6749 45.0039 82.1567 45 91.2 45V35ZM45 91.2C45 82.1567 45.0039 75.6749 45.4194 70.5896C45.8301 65.5628 46.6179 62.3425 47.9428 59.7423L39.0328 55.2024C36.8699 59.4473 35.9138 64.13 35.4526 69.7753C34.9961 75.3622 35 82.3217 35 91.2H45ZM55.2024 39.0328C48.2404 42.5801 42.5801 48.2404 39.0328 55.2024L47.9428 59.7423C50.5314 54.6619 54.6619 50.5314 59.7423 47.9428L55.2024 39.0328Z" fill="#B3B3B3" fill-opacity="0.1"/>
<g clip-path="url(#clip0_0_1)">
<path d="M578.691 300.097L580.258 293.452H592.961V343.485C592.961 353.256 590.227 360.096 583.777 365.176C578.894 368.89 572.244 371.624 564.235 371.624C553.289 371.624 545.472 367.91 539.22 361.852L547.234 350.712C551.143 354.425 556.418 357.749 563.258 357.749C574.006 357.749 578.694 352.471 578.694 344.654V340.94C574.398 345.436 569.318 347.193 563.65 347.193C548.796 347.193 537.07 335.075 537.07 319.639C537.07 304.392 549.188 292.669 564.04 292.669C570.097 292.672 575.568 295.601 578.691 300.097ZM565.799 305.767C558.18 305.767 552.117 311.627 552.117 319.639C552.117 327.261 558.18 333.318 565.799 333.318C573.419 333.318 579.476 327.261 579.476 319.639C579.476 311.627 573.419 305.767 565.799 305.767ZM483.131 218.798C477.071 218.798 471.988 222.317 470.819 227.985H495.049C493.88 222.512 488.997 218.798 483.131 218.798ZM483.914 261.207C467.695 261.207 455.772 250.069 455.772 233.848C455.772 219.188 466.521 206.096 483.524 206.096C496.226 206.096 509.321 215.669 509.321 233.455C509.321 234.822 509.322 236.584 508.932 238.536H470.627C471.991 244.398 477.272 248.312 483.719 248.312C489.582 248.312 494.077 246.16 497.791 242.249L506.585 251.238C500.92 257.688 492.711 261.207 483.914 261.207ZM646.312 218.798C640.255 218.798 635.177 222.317 634 227.985H658.233C657.063 222.512 652.175 218.798 646.312 218.798ZM647.097 261.207C630.879 261.207 618.956 250.069 618.956 233.848C618.956 219.188 629.704 206.096 646.708 206.096C659.41 206.096 672.505 215.669 672.505 233.455C672.505 234.822 672.505 236.584 672.115 238.536H633.808C635.18 244.398 640.455 248.312 646.903 248.312C652.762 248.312 657.258 246.16 660.975 242.249L669.766 251.238C664.098 257.688 655.889 261.207 647.097 261.207ZM683.64 304.787C677.583 304.787 672.502 308.306 671.33 313.974H695.563C694.389 308.501 689.503 304.787 683.64 304.787ZM684.423 347.193C668.199 347.193 656.281 336.055 656.281 319.834C656.281 305.174 667.029 292.082 684.033 292.082C696.735 292.082 709.833 301.655 709.833 319.441C709.833 320.808 709.833 322.57 709.435 324.522H671.136C672.502 330.384 677.781 334.293 684.228 334.293C690.09 334.293 694.586 332.144 698.3 328.235L707.091 337.224C701.423 343.677 693.219 347.193 684.423 347.193ZM444.044 304.787C437.984 304.787 432.906 308.306 431.731 313.974H455.964C454.795 308.501 449.91 304.787 444.044 304.787ZM444.826 347.193C428.608 347.193 416.685 336.055 416.685 319.834C416.685 305.174 427.43 292.082 444.431 292.082C457.136 292.082 470.231 301.655 470.231 319.441C470.231 320.808 470.231 322.57 469.842 324.522H431.534C432.903 330.384 438.184 334.293 444.632 334.293C450.491 334.293 454.984 332.144 458.704 328.235L467.495 337.224C461.83 343.677 453.623 347.193 444.826 347.193ZM364.508 345.826V268.241H379.944V331.169H413.559V345.826H364.508ZM423.33 259.84V207.463H435.837L437.405 215.085C439.746 210.196 444.434 206.878 450.692 206.878C452.059 206.878 453.426 207.07 454.795 207.463V221.337C453.033 220.947 451.477 220.75 449.715 220.75C442.68 220.75 437.794 225.051 437.794 233.452V259.837L423.33 259.84ZM678.17 259.84V207.463H690.675L692.24 215.085C694.586 210.196 699.274 206.878 705.529 206.878C706.899 206.878 708.263 207.07 709.636 207.463V221.337C707.873 220.947 706.314 220.75 704.552 220.75C697.518 220.75 692.635 225.051 692.635 233.452V259.837L678.17 259.84ZM577.132 228.959C577.132 223.291 574.006 219.773 569.118 219.773C563.453 219.773 560.521 223.291 560.521 229.157V259.837H546.059V228.959C546.059 223.291 542.933 219.773 538.048 219.773C532.38 219.773 529.448 223.291 529.448 229.157V259.837H514.987V207.463H527.689L529.256 214.303C529.256 214.303 532.383 206.096 542.154 206.096C548.217 206.096 553.294 208.635 556.813 213.916L557.206 214.5L557.598 213.916C562.681 206.683 568.934 206.096 572.842 206.096C583.98 206.096 591.602 214.5 591.602 226.42V259.84H577.14V228.959H577.132ZM606.251 200.431C601.17 200.431 597.262 196.52 597.262 191.634C597.262 186.554 601.17 182.645 606.251 182.645C611.331 182.645 615.24 186.551 615.24 191.634C615.24 196.517 611.331 200.431 606.251 200.431ZM598.826 207.463H613.285V259.834H598.826V207.463ZM504.041 305.767C496.221 305.767 490.364 311.627 490.364 319.639C490.364 327.261 496.221 333.318 504.041 333.318C511.663 333.318 517.525 327.261 517.525 319.639C517.525 311.627 511.663 305.767 504.041 305.767ZM501.109 347.193C487.235 347.193 475.12 334.49 475.12 319.639C475.12 304.982 487.235 292.669 501.109 292.669C508.929 292.669 514.201 295.403 517.33 300.289L518.895 293.449H531.597V345.823H518.895L517.33 339.176C514.201 343.872 508.342 347.193 501.109 347.193ZM625.598 347.193C614.068 347.193 600.001 340.94 600.001 321.398V293.449H614.457V320.418C614.457 329.407 618.566 333.316 625.598 333.316C632.045 333.316 636.739 328.823 636.739 320.418V293.449H651.201V321.398C651.201 340.94 636.934 347.193 625.598 347.193ZM379.944 218.996H388.936C396.756 218.996 402.421 214.698 402.421 206.878C402.421 199.056 396.756 194.955 388.936 194.955H379.944V218.996ZM364.508 259.84V180.298H389.715C406.132 180.298 418.444 190.07 418.444 206.878C418.444 223.879 406.326 233.848 389.715 233.848H379.944V259.84H364.508Z" fill="#3D195B"/>
<path d="M309.213 249.812C303.966 254.111 299.519 256.507 299.519 256.507L299.579 270.135C303.329 274.218 307.029 277.6 309.799 283.763C315.055 274.533 314.044 260.964 309.213 249.812ZM304.947 294.423C304.947 294.423 303.875 288.802 299.316 283.556L288.915 283.803C288.915 283.803 274.895 295.557 266.343 295.833C266.343 295.833 271.054 304.382 273.439 308.849C278.14 307.844 286.418 304.225 289.754 300.438C289.754 300.438 291.958 307.37 291.543 315.555C296.223 312.912 302.672 305.733 304.947 294.423ZM291.543 269.81L291.524 256.231C291.524 256.231 285.307 254.289 278.676 249.269C265.353 251.232 249.22 264.307 249.22 264.307C249.22 264.307 254.669 274.395 260.633 285.282C271.115 286.712 286.56 273.794 291.543 269.81ZM327.075 326.353L318.503 317.093C316.057 342.12 303.492 363.371 280.415 378.192L276.887 364.692C257.297 378.497 223.677 387.451 194.797 371.516C198.386 353.668 201.57 335.583 194.737 313.928C178.745 338.087 164.594 347.554 164.594 347.554C153.788 329.853 154.758 294.344 157.983 283.891L140 289.325C140 277.393 148.804 252.08 161.561 237.86L150.331 236.105H150.32C157.951 220.89 169.343 207.775 183.283 197.923L183.302 197.912C179.117 204.361 179.057 220.277 191.318 226.332C186.112 217.427 185.486 206.422 190.924 200.723C196.362 194.974 205.51 196.946 211.353 201.403C209.614 196.433 204.52 190.181 196.888 189.757H196.877C211.291 182.519 227.657 178.447 244.972 178.447C248.207 178.447 251.431 178.585 254.585 178.861C259.619 180.833 267.008 187.756 270.455 192.065C270.455 192.065 270.698 186.986 267.807 180.853C286.558 185.31 295.504 192.755 299.254 196.344C300.022 204.253 302.448 208.996 305.652 216.51C299.577 209.874 284.314 199.165 277.026 196.601C277.026 196.601 276.429 203.454 273.922 206.748C259.407 196.532 252.28 193.958 252.28 193.958C236.35 196.187 226.1 202.182 220.53 206.896L225.382 210.929C215.779 213.808 209.542 221.855 209.542 221.855C209.613 222.003 218.124 223.186 218.124 223.186C218.124 223.186 217.255 232.938 229.769 239.052C240.494 244.288 255.909 237.79 270.425 243.47C260.883 232.722 254.282 227.919 254.282 227.919C254.282 227.919 250.491 227.15 247.823 227.17C244.487 227.189 239.514 227.83 234.065 225.76C231.457 224.764 228.415 223.008 226.029 221.549C226.029 221.549 232.731 214.834 242.526 213.355C242.526 213.355 251.361 215.78 258.356 220.829C263.005 216.411 267.857 216.55 267.857 216.55C267.857 216.55 263.046 220.928 264.501 226.233C271.486 232.307 279.067 241.005 279.067 241.005C286.79 236.883 303.58 237.829 307.027 241.734C302.66 236.202 296.363 231.587 291.491 227.643C290.894 225.572 285.577 218.354 284.678 217.684C284.678 217.684 289.732 219.202 294.25 223.156C295.544 221.352 297.97 219.518 301.275 218.709C304.672 221.49 305.278 225.76 305.187 226.47C303.661 228.254 302.145 228.984 302.145 228.984L310.332 237.632L311.151 231.43C330.013 257.709 340.294 288.12 327.072 326.351M178.116 160.037C188.992 164.899 195.977 171.032 197.251 171.969C196.675 169.228 194.532 156.034 193.298 147.839C199.636 152.129 214.344 162.089 219.186 165.323C221.157 159.397 227.99 140.039 227.99 140.039C227.99 140.039 240.342 159.544 242.455 162.71C245.033 160.077 259.791 144.053 263.612 140C264.249 149.22 265.118 162.404 265.34 164.386C266.078 163.41 271.729 155.679 281.2 148.559C277.096 156.448 275.135 167.335 274.266 176.081C264.946 173.547 255.111 172.186 244.982 172.186C225.524 172.186 207.248 177.176 191.449 185.942C188.578 177.491 184.08 166.98 178.116 160.037Z" fill="#3D195B"/>
</g>
<rect x="40" y="4" width="93.3594" height="30" rx="3" fill="#303030"/>
<rect x="40.5" y="4.5" width="92.3594" height="29" rx="2.5" stroke="white" stroke-opacity="0.0980392"/>
<path d="M46.9688 22V14H49.6719C50.2995 14 50.8125 14.1133 51.2109 14.3398C51.612 14.5638 51.9089 14.8672 52.1016 15.25C52.2943 15.6328 52.3906 16.0599 52.3906 16.5312C52.3906 17.0026 52.2943 17.431 52.1016 17.8164C51.9115 18.2018 51.6172 18.5091 51.2188 18.7383C50.8203 18.9648 50.3099 19.0781 49.6875 19.0781H47.75V18.2188H49.6563C50.0859 18.2188 50.431 18.1445 50.6914 17.9961C50.9518 17.8477 51.1406 17.6471 51.2578 17.3945C51.3776 17.1393 51.4375 16.8516 51.4375 16.5312C51.4375 16.2109 51.3776 15.9245 51.2578 15.6719C51.1406 15.4193 50.9505 15.2214 50.6875 15.0781C50.4245 14.9323 50.0755 14.8594 49.6406 14.8594H47.9375V22H46.9688ZM53.8262 22V16H54.7168V16.9062H54.7793C54.8887 16.6094 55.0866 16.3685 55.373 16.1836C55.6595 15.9987 55.9824 15.9062 56.3418 15.9062C56.4095 15.9062 56.4941 15.9076 56.5957 15.9102C56.6973 15.9128 56.7741 15.9167 56.8262 15.9219V16.8594C56.7949 16.8516 56.7233 16.8398 56.6113 16.8242C56.502 16.806 56.3861 16.7969 56.2637 16.7969C55.972 16.7969 55.7116 16.8581 55.4824 16.9805C55.2559 17.1003 55.0762 17.2669 54.9434 17.4805C54.8132 17.6914 54.748 17.9323 54.748 18.2031V22H53.8262ZM60.252 22.125C59.6738 22.125 59.1751 21.9974 58.7559 21.7422C58.3392 21.4844 58.0176 21.125 57.791 20.6641C57.5671 20.2005 57.4551 19.6615 57.4551 19.0469C57.4551 18.4323 57.5671 17.8906 57.791 17.4219C58.0176 16.9505 58.3327 16.5833 58.7363 16.3203C59.1426 16.0547 59.6165 15.9219 60.1582 15.9219C60.4707 15.9219 60.7793 15.974 61.084 16.0781C61.3887 16.1823 61.666 16.3516 61.916 16.5859C62.166 16.8177 62.3652 17.125 62.5137 17.5078C62.6621 17.8906 62.7363 18.362 62.7363 18.9219V19.3125H58.1113V18.5156H61.7988C61.7988 18.1771 61.7311 17.875 61.5957 17.6094C61.4629 17.3437 61.2728 17.1341 61.0254 16.9805C60.7806 16.8268 60.4915 16.75 60.1582 16.75C59.791 16.75 59.4733 16.8411 59.2051 17.0234C58.9395 17.2031 58.735 17.4375 58.5918 17.7266C58.4486 18.0156 58.377 18.3255 58.377 18.6562V19.1875C58.377 19.6406 58.4551 20.0247 58.6113 20.3398C58.7702 20.6523 58.9902 20.8906 59.2715 21.0547C59.5527 21.2161 59.8796 21.2969 60.252 21.2969C60.4941 21.2969 60.7129 21.263 60.9082 21.1953C61.1061 21.125 61.2767 21.0208 61.4199 20.8828C61.5632 20.7422 61.6738 20.5677 61.752 20.3594L62.6426 20.6094C62.5488 20.9115 62.3913 21.1771 62.1699 21.4062C61.9486 21.6328 61.6751 21.8099 61.3496 21.9375C61.0241 22.0625 60.6582 22.125 60.252 22.125ZM64.1387 22V16H65.0293V16.9375H65.1074C65.2324 16.6172 65.4342 16.3685 65.7129 16.1914C65.9915 16.0117 66.3262 15.9219 66.7168 15.9219C67.1126 15.9219 67.4421 16.0117 67.7051 16.1914C67.9707 16.3685 68.1777 16.6172 68.3262 16.9375H68.3887C68.5423 16.6276 68.7728 16.3815 69.0801 16.1992C69.3874 16.0143 69.7559 15.9219 70.1855 15.9219C70.722 15.9219 71.1608 16.0898 71.502 16.4258C71.8431 16.7591 72.0137 17.2786 72.0137 17.9844V22H71.0918V17.9844C71.0918 17.5417 70.9707 17.2253 70.7285 17.0352C70.4863 16.8451 70.2012 16.75 69.873 16.75C69.4512 16.75 69.1243 16.8776 68.8926 17.1328C68.6608 17.3854 68.5449 17.7057 68.5449 18.0937V22H67.6074V17.8906C67.6074 17.5495 67.4967 17.2747 67.2754 17.0664C67.054 16.8555 66.7689 16.75 66.4199 16.75C66.1803 16.75 65.9564 16.8138 65.748 16.9414C65.5423 17.069 65.3757 17.2461 65.248 17.4727C65.123 17.6966 65.0605 17.9557 65.0605 18.25V22H64.1387ZM73.6992 22V16H74.6211V22H73.6992ZM74.168 15C73.9883 15 73.8333 14.9388 73.7031 14.8164C73.5755 14.694 73.5117 14.5469 73.5117 14.375C73.5117 14.2031 73.5755 14.056 73.7031 13.9336C73.8333 13.8112 73.9883 13.75 74.168 13.75C74.3477 13.75 74.5013 13.8112 74.6289 13.9336C74.7591 14.056 74.8242 14.2031 74.8242 14.375C74.8242 14.5469 74.7591 14.694 74.6289 14.8164C74.5013 14.9388 74.3477 15 74.168 15ZM78.8252 22.125C78.2471 22.125 77.7484 21.9974 77.3291 21.7422C76.9124 21.4844 76.5908 21.125 76.3643 20.6641C76.1403 20.2005 76.0283 19.6615 76.0283 19.0469C76.0283 18.4323 76.1403 17.8906 76.3643 17.4219C76.5908 16.9505 76.9059 16.5833 77.3096 16.3203C77.7158 16.0547 78.1898 15.9219 78.7314 15.9219C79.0439 15.9219 79.3525 15.974 79.6572 16.0781C79.9619 16.1823 80.2393 16.3516 80.4893 16.5859C80.7393 16.8177 80.9385 17.125 81.0869 17.5078C81.2354 17.8906 81.3096 18.362 81.3096 18.9219V19.3125H76.6846V18.5156H80.3721C80.3721 18.1771 80.3044 17.875 80.1689 17.6094C80.0361 17.3437 79.846 17.1341 79.5986 16.9805C79.3538 16.8268 79.0648 16.75 78.7314 16.75C78.3643 16.75 78.0465 16.8411 77.7783 17.0234C77.5127 17.2031 77.3083 17.4375 77.165 17.7266C77.0218 18.0156 76.9502 18.3255 76.9502 18.6562V19.1875C76.9502 19.6406 77.0283 20.0247 77.1846 20.3398C77.3434 20.6523 77.5635 20.8906 77.8447 21.0547C78.126 21.2161 78.4528 21.2969 78.8252 21.2969C79.0674 21.2969 79.2861 21.263 79.4814 21.1953C79.6794 21.125 79.8499 21.0208 79.9932 20.8828C80.1364 20.7422 80.2471 20.5677 80.3252 20.3594L81.2158 20.6094C81.1221 20.9115 80.9645 21.1771 80.7432 21.4062C80.5218 21.6328 80.2484 21.8099 79.9229 21.9375C79.5973 22.0625 79.2314 22.125 78.8252 22.125ZM82.7119 22V16H83.6025V16.9062H83.665C83.7744 16.6094 83.9723 16.3685 84.2588 16.1836C84.5452 15.9987 84.8682 15.9062 85.2275 15.9062C85.2952 15.9062 85.3799 15.9076 85.4814 15.9102C85.583 15.9128 85.6598 15.9167 85.7119 15.9219V16.8594C85.6807 16.8516 85.609 16.8398 85.4971 16.8242C85.3877 16.806 85.2718 16.7969 85.1494 16.7969C84.8577 16.7969 84.5973 16.8581 84.3682 16.9805C84.1416 17.1003 83.9619 17.2669 83.8291 17.4805C83.6989 17.6914 83.6338 17.9323 83.6338 18.2031V22H82.7119ZM90.0234 22V14H90.9922V21.1406H94.7109V22H90.0234ZM98.6016 22.125C98.0234 22.125 97.5247 21.9974 97.1055 21.7422C96.6888 21.4844 96.3672 21.125 96.1406 20.6641C95.9167 20.2005 95.8047 19.6615 95.8047 19.0469C95.8047 18.4323 95.9167 17.8906 96.1406 17.4219C96.3672 16.9505 96.6823 16.5833 97.0859 16.3203C97.4922 16.0547 97.9661 15.9219 98.5078 15.9219C98.8203 15.9219 99.1289 15.974 99.4336 16.0781C99.7383 16.1823 100.016 16.3516 100.266 16.5859C100.516 16.8177 100.715 17.125 100.863 17.5078C101.012 17.8906 101.086 18.362 101.086 18.9219V19.3125H96.4609V18.5156H100.148C100.148 18.1771 100.081 17.875 99.9453 17.6094C99.8125 17.3437 99.6224 17.1341 99.375 16.9805C99.1302 16.8268 98.8411 16.75 98.5078 16.75C98.1406 16.75 97.8229 16.8411 97.5547 17.0234C97.2891 17.2031 97.0846 17.4375 96.9414 17.7266C96.7982 18.0156 96.7266 18.3255 96.7266 18.6562V19.1875C96.7266 19.6406 96.8047 20.0247 96.9609 20.3398C97.1198 20.6523 97.3398 20.8906 97.6211 21.0547C97.9023 21.2161 98.2292 21.2969 98.6016 21.2969C98.8438 21.2969 99.0625 21.263 99.2578 21.1953C99.4557 21.125 99.6263 21.0208 99.7695 20.8828C99.9128 20.7422 100.023 20.5677 100.102 20.3594L100.992 20.6094C100.898 20.9115 100.741 21.1771 100.52 21.4062C100.298 21.6328 100.025 21.8099 99.6992 21.9375C99.3737 22.0625 99.0078 22.125 98.6016 22.125ZM104.254 22.1406C103.874 22.1406 103.529 22.069 103.219 21.9258C102.909 21.7799 102.663 21.5703 102.48 21.2969C102.298 21.0208 102.207 20.6875 102.207 20.2969C102.207 19.9531 102.275 19.6745 102.41 19.4609C102.546 19.2448 102.727 19.0755 102.953 18.9531C103.18 18.8307 103.43 18.7396 103.703 18.6797C103.979 18.6172 104.257 18.5677 104.535 18.5313C104.9 18.4844 105.195 18.4492 105.422 18.4258C105.651 18.3997 105.818 18.3568 105.922 18.2969C106.029 18.237 106.082 18.1328 106.082 17.9844V17.9531C106.082 17.5677 105.977 17.2682 105.766 17.0547C105.557 16.8411 105.241 16.7344 104.816 16.7344C104.376 16.7344 104.031 16.8307 103.781 17.0234C103.531 17.2161 103.355 17.4219 103.254 17.6406L102.379 17.3281C102.535 16.9635 102.743 16.6797 103.004 16.4766C103.267 16.2708 103.553 16.1276 103.863 16.0469C104.176 15.9635 104.483 15.9219 104.785 15.9219C104.978 15.9219 105.199 15.9453 105.449 15.9922C105.702 16.0365 105.945 16.1289 106.18 16.2695C106.417 16.4102 106.613 16.6224 106.77 16.9062C106.926 17.1901 107.004 17.5703 107.004 18.0469V22H106.082V21.1875H106.035C105.973 21.3177 105.868 21.457 105.723 21.6055C105.577 21.7539 105.383 21.8802 105.141 21.9844C104.898 22.0885 104.603 22.1406 104.254 22.1406ZM104.395 21.3125C104.759 21.3125 105.066 21.2409 105.316 21.0977C105.569 20.9544 105.759 20.7695 105.887 20.543C106.017 20.3164 106.082 20.0781 106.082 19.8281V18.9844C106.043 19.0312 105.957 19.0742 105.824 19.1133C105.694 19.1497 105.543 19.1823 105.371 19.2109C105.202 19.237 105.036 19.2604 104.875 19.2812C104.716 19.2995 104.587 19.3151 104.488 19.3281C104.249 19.3594 104.025 19.4102 103.816 19.4805C103.611 19.5482 103.444 19.651 103.316 19.7891C103.191 19.9245 103.129 20.1094 103.129 20.3437C103.129 20.6641 103.247 20.9062 103.484 21.0703C103.724 21.2318 104.027 21.3125 104.395 21.3125ZM111.108 24.375C110.663 24.375 110.28 24.3177 109.96 24.2031C109.64 24.0911 109.373 23.9427 109.159 23.7578C108.948 23.5755 108.78 23.3802 108.655 23.1719L109.39 22.6563C109.473 22.7656 109.578 22.8906 109.706 23.0312C109.834 23.1745 110.008 23.2982 110.229 23.4023C110.453 23.5091 110.746 23.5625 111.108 23.5625C111.593 23.5625 111.993 23.4453 112.308 23.2109C112.623 22.9766 112.78 22.6094 112.78 22.1094V20.8906H112.702C112.634 21 112.538 21.1354 112.413 21.2969C112.291 21.4557 112.114 21.5977 111.882 21.7227C111.653 21.8451 111.343 21.9062 110.952 21.9062C110.468 21.9062 110.033 21.7917 109.647 21.5625C109.265 21.3333 108.961 21 108.737 20.5625C108.516 20.125 108.405 19.5937 108.405 18.9687C108.405 18.3542 108.513 17.819 108.729 17.3633C108.946 16.9049 109.246 16.5508 109.632 16.3008C110.017 16.0482 110.463 15.9219 110.968 15.9219C111.358 15.9219 111.668 15.987 111.897 16.1172C112.129 16.2448 112.306 16.3906 112.429 16.5547C112.554 16.7161 112.65 16.849 112.718 16.9531H112.812V16H113.702V22.1719C113.702 22.6875 113.585 23.1068 113.351 23.4297C113.119 23.7552 112.806 23.9935 112.413 24.1445C112.022 24.2982 111.588 24.375 111.108 24.375ZM111.077 21.0781C111.447 21.0781 111.759 20.9935 112.015 20.8242C112.27 20.6549 112.464 20.4115 112.597 20.0938C112.729 19.776 112.796 19.3958 112.796 18.9531C112.796 18.5208 112.731 18.1393 112.601 17.8086C112.47 17.4779 112.278 17.2187 112.022 17.0312C111.767 16.8437 111.452 16.75 111.077 16.75C110.687 16.75 110.361 16.849 110.101 17.0469C109.843 17.2448 109.649 17.5104 109.519 17.8438C109.391 18.1771 109.327 18.5469 109.327 18.9531C109.327 19.3698 109.392 19.7383 109.522 20.0586C109.655 20.3763 109.851 20.6263 110.108 20.8086C110.369 20.9883 110.692 21.0781 111.077 21.0781ZM119.171 19.5469V16H120.093V22H119.171V20.9844H119.108C118.968 21.2891 118.749 21.5482 118.452 21.7617C118.155 21.9727 117.78 22.0781 117.327 22.0781C116.952 22.0781 116.619 21.9961 116.327 21.832C116.035 21.6654 115.806 21.4154 115.64 21.082C115.473 20.7461 115.39 20.3229 115.39 19.8125V16H116.312V19.75C116.312 20.1875 116.434 20.5365 116.679 20.7969C116.926 21.0573 117.241 21.1875 117.624 21.1875C117.853 21.1875 118.086 21.1289 118.323 21.0117C118.563 20.8945 118.763 20.7148 118.925 20.4727C119.089 20.2305 119.171 19.9219 119.171 19.5469ZM124.297 22.125C123.719 22.125 123.22 21.9974 122.801 21.7422C122.384 21.4844 122.063 21.125 121.836 20.6641C121.612 20.2005 121.5 19.6615 121.5 19.0469C121.5 18.4323 121.612 17.8906 121.836 17.4219C122.063 16.9505 122.378 16.5833 122.781 16.3203C123.188 16.0547 123.661 15.9219 124.203 15.9219C124.516 15.9219 124.824 15.974 125.129 16.0781C125.434 16.1823 125.711 16.3516 125.961 16.5859C126.211 16.8177 126.41 17.125 126.559 17.5078C126.707 17.8906 126.781 18.362 126.781 18.9219V19.3125H122.156V18.5156H125.844C125.844 18.1771 125.776 17.875 125.641 17.6094C125.508 17.3437 125.318 17.1341 125.07 16.9805C124.826 16.8268 124.536 16.75 124.203 16.75C123.836 16.75 123.518 16.8411 123.25 17.0234C122.984 17.2031 122.78 17.4375 122.637 17.7266C122.493 18.0156 122.422 18.3255 122.422 18.6562V19.1875C122.422 19.6406 122.5 20.0247 122.656 20.3398C122.815 20.6523 123.035 20.8906 123.316 21.0547C123.598 21.2161 123.924 21.2969 124.297 21.2969C124.539 21.2969 124.758 21.263 124.953 21.1953C125.151 21.125 125.322 21.0208 125.465 20.8828C125.608 20.7422 125.719 20.5677 125.797 20.3594L126.688 20.6094C126.594 20.9115 126.436 21.1771 126.215 21.4062C125.993 21.6328 125.72 21.8099 125.395 21.9375C125.069 22.0625 124.703 22.125 124.297 22.125Z" fill="white"/>
<defs>
<clipPath id="clip0_0_1">
<rect width="569.833" height="240" fill="white" transform="translate(140 140)"/>
</clipPath>
</defs>
</svg>
