<svg width="512" height="512" viewBox="0 0 512 512" fill="none" xmlns="http://www.w3.org/2000/svg">
<g clip-path="url(#clip0_1_3073)">
<mask id="mask0_1_3073" style="mask-type:luminance" maskUnits="userSpaceOnUse" x="56" y="0" width="400" height="512">
<path d="M455.779 0H56.9274V512H455.779V0Z" fill="white"/>
</mask>
<g mask="url(#mask0_1_3073)">
<path d="M455.634 0H56.9274L57.0726 327.026C57.0726 337.412 59.4692 347.724 64.0445 357.093C68.6199 366.461 75.3013 374.595 83.5804 380.986L84.1614 381.422L256.426 512L428.69 381.204C437.042 374.813 443.869 366.607 448.517 357.165C453.237 347.724 455.634 337.339 455.706 326.809L455.634 0Z" fill="white"/>
<path d="M355.703 101.311L311.33 146.701V456.443L355.703 422.745V101.311Z" fill="#E8151E"/>
<path d="M400.149 389.047L421.5 372.852C435.444 362.249 444.522 346.562 444.522 329.06L444.377 10.4579L400.149 55.7027V389.047Z" fill="#E8151E"/>
<path d="M178.791 439.303V282.508L134.417 327.971V405.678L178.791 439.303Z" fill="#E8151E"/>
<path d="M267.392 489.85V191.8L223.019 237.263V472.856L256.426 498.201L267.392 489.85Z" fill="#E8151E"/>
<path d="M455.634 0H56.9274L57.0726 327.026C57.0726 337.266 59.3966 347.361 63.8267 356.584C68.2567 365.808 74.7203 373.942 82.7816 380.26C82.9994 380.478 83.2899 380.696 83.5078 380.841L84.0888 381.277L256.426 512L428.69 381.277C437.042 374.886 443.869 366.679 448.517 357.238C453.237 347.797 455.634 337.412 455.706 326.881L455.634 0ZM315.106 57.7362L114.809 262.972L114.736 57.8814L315.106 57.7362ZM421.5 371.69L256.426 496.967L91.9322 372.344L443.651 12.1282L443.796 326.881C443.796 335.596 441.763 344.093 437.913 351.864C433.992 359.635 428.4 366.461 421.5 371.69Z" fill="#282A6F"/>
<path d="M81.3291 23.8207L85.8318 10.0221L90.3345 23.8207H104.859L93.0942 32.3903L97.5969 46.2616L85.8318 37.6919L74.0667 46.1889L78.5694 32.3177L66.8043 23.8207H81.3291Z" fill="white"/>
<path d="M226.287 23.7481L230.789 9.87688L235.292 23.7481H249.817L238.052 32.3177L242.555 46.1163L230.789 37.5467L219.024 46.1163L223.527 32.2451L211.762 23.6755L226.287 23.7481Z" fill="white"/>
<path d="M81.4743 315.77L85.977 301.898L90.4797 315.77H105.005L93.2395 324.339L97.7421 338.138L85.977 329.568L74.2119 338.138L78.7146 324.267L66.9495 315.697L81.4743 315.77Z" fill="white"/>
<path d="M81.4017 170.158L85.9044 156.287L90.4071 170.158H104.932L93.1668 178.728L97.6695 192.599L85.9044 184.03L74.1393 192.599L78.642 178.728L66.8769 170.158H81.4017Z" fill="white"/>
<path d="M182.858 222.883L187.36 209.012L191.863 222.811H206.388L194.623 231.38L199.125 245.252L187.36 236.682L175.595 245.252L180.098 231.453L168.333 222.883H182.858Z" fill="white"/>
<path d="M280.319 125.204L284.822 111.333L289.325 125.204H303.849L292.084 133.774L296.587 147.645L284.822 139.075L273.057 147.645L277.559 133.774L265.794 125.204H280.319Z" fill="white"/>
<path d="M371.172 23.7481L375.675 9.87688L380.177 23.7481H394.702L382.937 32.3177L387.44 46.1889L375.675 37.6193L363.91 46.1889L368.412 32.3177L356.647 23.7481H371.172Z" fill="white"/>
<path d="M194.332 160.209C194.187 159.192 193.896 158.175 193.533 157.231C190.483 150.114 187.142 151.494 185.182 141.835C184.891 140.019 184.455 138.276 183.874 136.533C183.511 135.517 182.858 133.483 183.003 131.813C183.366 128.399 184.455 124.55 184.964 121.064C184.964 120.992 184.964 120.992 184.964 120.919C185.545 120.774 186.053 120.483 186.416 120.048C186.779 119.612 187.07 119.104 187.215 118.595C187.36 117.506 187.07 117.07 184.455 116.416L184.383 116.344C182.858 113.584 180.316 112.567 177.483 112.059C176.539 111.914 175.595 111.986 174.651 112.204C173.78 112.277 172.981 112.132 172.254 111.769C170.802 110.97 167.679 107.847 166.735 109.227C166.154 110.098 165.791 111.115 165.718 112.204C165.646 113.294 165.791 114.31 166.154 115.327C167.607 118.74 169.858 119.685 167.461 123.679C166.009 126.075 163.104 129.634 162.45 132.83C160.489 131.595 158.819 129.925 157.439 128.036C156.931 126.802 156.277 125.567 155.406 124.55V134.863C156.713 136.533 158.165 138.349 159.545 139.947C158.238 139.075 156.713 138.058 155.406 137.114V145.539C156.422 146.265 157.948 147.136 159.037 147.717C159.981 148.298 161.07 148.734 162.16 149.097C162.668 154.98 165.21 160.499 169.35 164.639C168.696 167.399 167.97 170.739 168.405 172.264C169.713 177.348 174.215 181.27 174.578 184.247C174.724 185.555 173.271 186.208 172.254 187.08L171.746 187.37L187.723 187.661L187.941 187.37C188.159 186.934 188.232 186.353 188.087 185.845C186.852 177.929 186.707 176.767 191.064 171.974C192.444 170.376 193.388 168.561 193.896 166.527C194.187 166.527 194.405 166.454 194.695 166.309C194.913 166.164 195.131 166.019 195.349 165.801C195.494 165.583 195.639 165.365 195.785 165.075C195.857 164.784 195.93 164.566 195.857 164.276C195.712 162.823 195.131 161.443 194.332 160.209ZM181.696 184.102C181.55 185.119 180.897 185.627 180.098 186.499C180.388 184.974 180.388 183.376 180.025 181.851C179.735 180.544 178.791 177.13 178.863 176.404C178.936 175.532 181.913 182.722 181.696 184.102Z" fill="black"/>
<path d="M160.925 186.789C160.271 186.789 159.545 186.644 158.964 186.426C158.311 186.136 157.73 185.772 157.294 185.337C156.786 184.828 156.422 184.32 156.132 183.666C155.841 183.013 155.769 182.359 155.769 181.706V114.964C155.769 113.947 155.987 112.931 156.422 112.059L157.367 110.607C153.517 110.97 149.596 110.97 145.747 110.534L146.618 111.986C147.054 112.931 147.344 113.947 147.344 114.964V181.56C147.344 182.214 147.199 182.94 146.981 183.521C146.691 184.175 146.328 184.756 145.892 185.191C145.384 185.7 144.875 186.063 144.222 186.281C143.568 186.571 142.914 186.644 142.261 186.644L127.809 187.225C127.591 187.225 127.373 187.298 127.228 187.443C127.082 187.588 127.01 187.806 127.01 188.024C127.01 188.242 127.082 188.46 127.228 188.605C127.373 188.75 127.591 188.823 127.809 188.823L187.288 188.677L188.74 187.225L160.925 186.789Z" fill="#7E4F3A"/>
<path d="M151.629 110.97C168.841 110.97 182.785 100.367 182.785 87.2942C182.785 74.2218 168.841 63.5461 151.629 63.5461C134.417 63.5461 120.473 74.1492 120.473 87.2942C120.473 100.439 134.417 110.97 151.629 110.97Z" fill="#006A3F"/>
<path d="M142.115 95.9365C141.825 95.7912 141.534 95.7912 141.244 95.7912C140.953 95.7912 140.663 95.8638 140.373 96.0091C139.792 96.2269 139.356 96.7353 139.138 97.3163C138.92 97.8973 138.92 98.5509 139.138 99.0593C139.283 99.3498 139.428 99.5677 139.646 99.7855C139.864 100.003 140.082 100.149 140.373 100.294C140.663 100.367 140.881 100.439 141.171 100.439C141.534 100.439 141.825 100.367 142.115 100.221C142.551 100.003 142.842 99.7129 143.132 99.3498C143.35 98.9867 143.495 98.5509 143.495 98.0426C143.495 97.6068 143.35 97.1711 143.06 96.8079C142.914 96.3722 142.551 96.0817 142.115 95.9365Z" fill="#E8151E"/>
<path d="M155.333 93.5399C155.624 93.6851 155.914 93.6851 156.205 93.6851C156.495 93.6851 156.786 93.6125 157.076 93.4672C157.367 93.322 157.584 93.1767 157.802 92.9589C158.02 92.741 158.165 92.4505 158.311 92.2326C158.456 91.9421 158.456 91.6516 158.456 91.3611C158.456 91.0706 158.383 90.7801 158.238 90.4897C158.093 90.1992 157.948 89.9813 157.73 89.7634C157.512 89.5455 157.294 89.4003 157.003 89.3277C156.422 89.1098 155.769 89.1098 155.188 89.4003C154.607 89.6182 154.171 90.1265 153.953 90.7075C153.735 91.2885 153.735 91.9421 153.953 92.4505C154.098 92.741 154.244 92.9589 154.462 93.1767C154.752 93.2494 155.043 93.3946 155.333 93.5399Z" fill="#E8151E"/>
<path d="M170.294 86.8584C170.584 87.0037 170.875 87.0037 171.165 87.0037C171.456 87.0037 171.746 86.9311 172.037 86.7858C172.618 86.5679 172.981 86.0596 173.199 85.4786C173.416 84.8976 173.416 84.3166 173.126 83.7356C172.835 83.1546 172.4 82.7189 171.819 82.501C171.528 82.3557 171.238 82.3557 170.947 82.3557C170.657 82.3557 170.366 82.4284 170.076 82.501C169.495 82.7915 169.059 83.2272 168.841 83.8082C168.623 84.3892 168.623 85.0428 168.914 85.6238C169.059 85.9143 169.204 86.1322 169.422 86.3501C169.713 86.5679 170.003 86.7858 170.294 86.8584Z" fill="#E8151E"/>
<path d="M132.747 86.6406C132.456 86.4953 132.166 86.4953 131.875 86.4953C131.585 86.4953 131.294 86.568 131.004 86.7132C130.423 86.9311 129.987 87.4394 129.769 88.0204C129.551 88.6014 129.551 89.255 129.769 89.7634C129.915 90.0539 130.06 90.2718 130.278 90.4897C130.496 90.7075 130.713 90.8528 131.004 90.998C131.294 91.0707 131.512 91.1433 131.803 91.1433C132.166 91.1433 132.456 91.0706 132.747 90.9254C133.183 90.7075 133.473 90.417 133.764 90.0539C133.982 89.6908 134.127 89.255 134.127 88.7467C134.127 88.3109 133.982 87.8752 133.691 87.5121C133.546 87.0763 133.183 86.7858 132.747 86.6406Z" fill="#E8151E"/>
<path d="M149.015 81.1211C148.87 80.8306 148.724 80.6128 148.506 80.3949C148.289 80.177 147.998 80.0318 147.78 79.9592C147.199 79.7413 146.546 79.7413 145.965 80.0318C145.384 80.2496 144.948 80.758 144.73 81.339C144.512 81.92 144.512 82.5736 144.73 83.082C144.875 83.3725 145.02 83.5904 145.238 83.8082C145.456 84.0261 145.674 84.1714 145.965 84.3166C146.255 84.4618 146.546 84.4618 146.836 84.4618C147.127 84.4618 147.417 84.3892 147.708 84.244C147.998 84.0987 148.216 83.9535 148.434 83.7356C148.652 83.5177 148.797 83.2272 148.942 83.0094C149.087 82.7189 149.087 82.4284 149.087 82.1379C149.16 81.7021 149.087 81.4116 149.015 81.1211Z" fill="#E8151E"/>
<path d="M164.629 102.836C164.919 102.908 165.137 102.981 165.428 102.981C165.791 102.981 166.081 102.908 166.445 102.763C166.735 102.618 166.953 102.473 167.171 102.255C167.389 102.037 167.534 101.746 167.679 101.529C167.824 101.238 167.824 100.948 167.824 100.657C167.824 100.367 167.752 100.076 167.607 99.7855C167.461 99.495 167.316 99.2772 167.098 99.0593C166.88 98.8414 166.662 98.6962 166.372 98.6236C165.936 98.4783 165.5 98.4057 165.065 98.5509C164.629 98.6236 164.193 98.8414 163.903 99.2046C163.612 99.5677 163.394 99.9308 163.322 100.367C163.249 100.802 163.322 101.311 163.467 101.674C163.612 101.964 163.757 102.182 163.975 102.4C164.121 102.618 164.411 102.763 164.629 102.836Z" fill="#E8151E"/>
</g>
</g>
<defs>
<clipPath id="clip0_1_3073">
<rect width="398.706" height="512" fill="white" transform="translate(57)"/>
</clipPath>
</defs>
</svg>
