<svg width="512" height="512" viewBox="0 0 512 512" fill="none" xmlns="http://www.w3.org/2000/svg">
<g clip-path="url(#clip0_1_3044)">
<path d="M264.177 252.746C266.609 252.337 269.08 252.538 271.528 252.617C268.262 261.615 269.625 272.089 275.198 279.861C279.657 286.268 286.787 290.31 294.211 292.545C288.724 324.385 283.151 356.203 277.629 388.038C270.403 429.353 263.354 470.706 256.014 512C255.418 509.494 255.009 506.953 254.577 504.418C242.318 433.966 230.002 363.526 217.772 293.069C224.555 290.904 231.105 287.335 235.575 281.724C241.182 274.889 243.341 265.568 241.642 257.013C244.272 256.031 247.039 255.373 249.862 255.438C251.538 255.533 253.208 255.729 254.89 255.784C258.128 255.213 260.934 253.294 264.177 252.746Z" fill="#E5254E"/>
<path d="M256.368 106.06L244.835 106.059C244.814 85.2535 244.03 59.5662 240.015 57.8665C235.163 55.8111 230.132 58.6592 233.702 65.7565C237.632 73.5682 235.465 79.0938 227.712 79.8696C221.398 80.5004 212.792 79.2071 208.449 64.1785C203.249 46.1897 215.178 41.7795 234.603 23.4055C251.782 7.15128 256.368 0 256.368 0C256.368 0 260.954 7.15129 278.133 23.4033C297.558 41.7806 309.486 46.1907 304.287 64.1785C299.942 79.2071 291.338 80.5014 285.026 79.8707C277.27 79.096 275.105 73.5682 279.035 65.7554C282.604 58.6602 277.574 55.8101 272.722 57.8675C268.706 59.5662 267.925 85.2535 267.901 106.062L256.368 106.06Z" fill="#E5254E"/>
<path d="M126.663 170.232C123.939 167.993 122.252 164.702 120.185 162.492C117.771 159.912 114.753 157.795 111 157.75C114.753 157.704 117.77 155.588 120.186 153.008C122.252 150.799 123.939 147.507 126.663 145.268C128.368 143.721 130.611 142.779 133.071 142.781C137.135 142.782 140.611 145.347 142.036 148.977C144.03 148.969 150.285 148.935 153.8 148.71C158.017 148.443 161.184 148.443 156.174 144.711L153.757 142.88C150.439 140.823 147.793 137.749 146.233 134.082C146.012 133.583 145.809 133.065 145.621 132.519C145.361 131.769 145.171 130.996 145.046 130.21C144.809 128.987 144.683 127.721 144.682 126.428C144.683 116.153 152.572 107.761 162.498 107.23C163.748 107.115 165.027 107.159 166.316 107.389C166.769 107.469 167.211 107.565 167.647 107.671C169.582 108.154 171.372 108.904 173.494 110.127L174.019 110.474C183.463 116.497 187.88 128.448 187.88 128.448C187.88 128.448 185.599 127.227 175.686 125.235C168.322 123.756 163.732 127.226 164.876 134.305C166.595 144.955 180.699 147.644 180.699 147.644H205.416V167.854H180.699C180.699 167.854 166.596 170.542 164.878 181.192C163.733 188.27 168.325 191.743 175.688 190.262C185.601 188.271 187.882 187.049 187.882 187.049C187.882 187.049 183.466 199 174.021 205.023L173.497 205.368C171.373 206.592 169.584 207.343 167.649 207.823C167.213 207.933 166.77 208.027 166.319 208.107C165.029 208.336 163.75 208.38 162.5 208.266C152.573 207.733 144.684 199.343 144.684 189.067C144.684 187.773 144.81 186.507 145.048 185.285C145.174 184.498 145.364 183.725 145.622 182.974C145.812 182.428 146.015 181.911 146.234 181.413C147.796 177.745 150.441 174.672 153.758 172.615L156.176 170.785C161.185 167.048 158.02 167.05 153.803 166.784C150.289 166.56 144.033 166.522 142.037 166.516C140.614 170.148 137.137 172.713 133.074 172.714C130.612 172.719 128.365 171.779 126.663 170.232Z" fill="#E5254E"/>
<path d="M384.94 170.233C387.663 167.994 389.35 164.701 391.417 162.492C393.832 159.914 396.849 157.796 400.603 157.75C396.849 157.703 393.833 155.587 391.417 153.008C389.351 150.801 387.663 147.507 384.94 145.268C383.235 143.721 380.991 142.781 378.531 142.782C374.467 142.78 370.991 145.347 369.567 148.978C367.572 148.97 361.315 148.933 357.804 148.711C353.584 148.444 350.419 148.446 355.43 144.708L357.846 142.879C361.165 140.823 363.811 137.75 365.37 134.081C365.59 133.584 365.792 133.067 365.983 132.519C366.241 131.77 366.432 130.999 366.555 130.21C366.795 128.989 366.92 127.723 366.92 126.429C366.919 116.152 359.031 107.76 349.104 107.229C347.853 107.116 346.577 107.161 345.284 107.389C344.833 107.47 344.391 107.564 343.953 107.671C342.018 108.153 340.229 108.903 338.108 110.127L337.585 110.474C328.138 116.495 323.721 128.446 323.721 128.446C323.721 128.446 326.001 127.226 335.916 125.232C343.28 123.754 347.87 127.225 346.728 134.304C345.007 144.952 330.906 147.641 330.906 147.641H306.188L306.189 167.849L330.906 167.853C330.906 167.853 345.009 170.541 346.728 181.191C347.87 188.269 343.28 191.738 335.917 190.26C326.003 188.267 323.724 187.047 323.724 187.047C323.724 187.047 328.139 198.998 337.586 205.02L338.109 205.367C340.232 206.59 342.021 207.342 343.956 207.824C344.392 207.93 344.836 208.027 345.287 208.107C346.577 208.336 347.855 208.382 349.106 208.265C359.032 207.733 366.921 199.344 366.922 189.067C366.92 187.772 366.795 186.506 366.557 185.285C366.431 184.498 366.241 183.726 365.983 182.975C365.794 182.429 365.591 181.912 365.372 181.414C363.811 177.746 361.165 174.671 357.848 172.616L355.431 170.785C350.422 167.051 353.585 167.05 357.805 166.786C361.317 166.562 367.573 166.526 369.569 166.518C370.994 170.15 374.469 172.715 378.534 172.714C380.991 172.721 383.236 171.779 384.94 170.233Z" fill="#E5254E"/>
<path d="M292.255 250.893C282.546 262.822 270.242 270.502 257.444 277.39L255.919 278.212L254.393 277.391C241.758 270.59 229.114 262.683 219.527 250.892C196.391 222.441 184.359 180.332 184.792 143.09H327.106C327.696 180.083 314.931 223.029 292.255 250.893Z" fill="white"/>
<path d="M323.444 134.663C326.337 172.665 313.606 219.423 289.736 248.756C280.454 260.159 268.626 267.592 255.918 274.432C243.371 267.677 231.203 260.018 222.044 248.755C197.72 218.843 185.855 173.169 188.39 134.664L323.444 134.663Z" fill="#8AC3EE"/>
<path d="M211.773 158.832C212.811 171.446 215.435 187.634 222.592 204.546C233.192 229.607 245.029 241.51 260.053 253.51C257.404 256.175 254.949 258.632 253.786 259.869C239.527 248.092 227.455 234.801 216.474 210.854C204.235 184.173 202.976 162.264 202.869 149.929H305.467V158.834L211.773 158.832Z" fill="white"/>
<path d="M305.466 169.546L224.94 169.544C226.417 179.369 228.982 190.146 233.572 200.976C244.172 225.923 250.855 231.939 268.283 245.056C270.086 243.16 272.377 240.827 273.918 239.289C255.944 226.17 250.838 221.126 241.003 196.509C238.6 190.425 235.759 178.591 235.759 178.591H305.466V169.546Z" fill="white"/>
<path d="M293.083 123.763C273.405 115.874 270.802 114.131 256.014 114.128C238.282 114.13 236.642 115.946 218.948 123.763C217.269 122.74 214.933 120.762 213.567 118.918C213.457 117.515 213.84 115.853 214.78 114.042C217.609 108.598 224.415 103.874 230.043 103.417C236.358 98.3421 246.725 95.474 254.269 96.9112C254.888 97.0276 255.469 97.1726 256.014 97.3388C256.561 97.1716 257.142 97.0276 257.761 96.9102C265.304 95.474 275.671 98.3442 281.986 103.417C287.616 103.874 294.42 108.599 297.249 114.042C298.191 115.853 298.575 117.516 298.462 118.919C297.096 120.761 294.761 122.739 293.083 123.763Z" fill="#B19221"/>
<path d="M256.014 83.8755C274.961 75.2277 284.198 82.3197 286.131 92.1042C309.39 86.3531 307.279 121.811 293.047 127.261L291.049 131.506C279.223 129.261 270.924 127.965 256.014 127.965C245.249 127.964 229.365 128.64 220.045 129.86L219.075 127.295C204.758 121.965 202.589 86.3404 225.897 92.1031C227.831 82.3197 237.069 75.2277 256.014 83.8755ZM220.518 118.32C229.81 118.771 229.23 112.141 228.135 106.81C227.374 103.1 225.511 101.672 225.511 95.8412C219.546 90.8109 212.695 100.275 212.159 106.787C211.203 118.378 219.928 118.289 220.518 118.32ZM253.149 86.1721C221.903 71.9066 228.262 118.632 250.366 107.566C251.667 106.914 251.611 105.502 251.378 104.185C250.415 98.7168 251.199 91.3686 253.149 86.1721ZM258.879 86.1742C260.829 91.3697 261.614 98.7178 260.651 104.185C260.418 105.501 260.362 106.914 261.663 107.565C283.768 118.632 290.126 71.9055 258.879 86.1742ZM291.513 118.317C292.101 118.291 300.827 118.379 299.87 106.785C299.335 100.276 292.484 90.8088 286.517 95.8423C286.517 101.672 284.653 103.103 283.893 106.81C282.8 112.141 282.219 118.771 291.513 118.317Z" fill="#B19221"/>
<path d="M293.818 128.674L288.578 137.533C288.697 137.664 288.748 137.829 288.749 137.995V138.189C288.749 138.385 288.621 138.577 288.432 138.772C288.305 138.967 288.116 139.097 287.925 139.097L287.734 139.096C287.48 139.096 287.164 138.967 286.912 138.772C285.075 137.866 283.301 137.026 281.525 136.313C278.991 135.342 276.586 134.499 274.304 133.918C271.707 133.205 269.235 132.689 267.018 132.365C264.294 131.977 261.949 131.782 259.859 131.782C258.464 131.715 257.259 131.716 256.184 131.782C255.17 131.717 253.966 131.715 252.573 131.782C250.483 131.783 248.01 131.977 245.351 132.366C243.071 132.689 240.662 133.205 238.065 133.92C235.785 134.503 233.377 135.343 230.844 136.378C229.068 137.09 227.294 137.867 225.458 138.773C225.14 138.968 224.888 139.097 224.635 139.097H224.507C224.255 139.098 224.066 138.968 223.939 138.774C223.475 138.354 223.472 137.847 223.792 137.535L218.554 128.676C238.566 114.545 273.801 114.548 293.818 128.674Z" fill="#B19221"/>
<path d="M253.089 70.7371C253.088 70.6704 253.088 70.6704 253.088 70.6704H258.726L257.777 74.037L260.565 73.0655V78.8261L257.778 77.8556L258.727 82.3853L253.089 82.3842L254.04 77.8556L251.251 78.8261V73.0655L254.038 74.036L253.089 70.7371Z" fill="#B19221"/>
<path d="M266.658 110.291C266.216 109.837 265.962 109.19 265.962 108.545C265.962 107.832 266.216 107.249 266.658 106.731C266.85 106.536 267.038 106.343 267.293 106.148C267.484 106.084 267.737 105.956 267.991 105.891C268.179 105.826 268.37 105.826 268.623 105.826C268.878 105.826 269.067 105.827 269.32 105.891C269.511 105.956 269.764 106.02 269.953 106.15C270.208 106.344 270.46 106.537 270.652 106.732C271.03 107.186 271.222 107.703 271.284 108.35V108.544L271.285 108.739C271.221 109.386 271.034 109.906 270.65 110.357C270.461 110.551 270.207 110.745 269.953 110.874C269.762 111.003 269.512 111.133 269.319 111.132C269.185 111.18 269.08 111.224 268.962 111.249C269.251 114.794 273.873 117.807 277.808 115.857C278.576 115.465 279.346 114.848 280.058 113.982C279.773 113.708 279.564 113.358 279.461 112.967L279.202 113.076C279.076 113.14 278.949 113.14 278.822 113.203L278.442 113.399C278.19 113.465 277.935 113.594 277.621 113.788C277.555 113.788 277.493 113.853 277.429 113.917C277.174 114.046 277.049 114.175 276.858 114.304C276.667 114.433 276.414 114.499 276.098 114.757C275.971 114.824 275.907 114.885 275.78 114.952C275.653 115.019 275.527 115.209 275.273 115.34C275.146 115.405 274.957 115.47 274.829 115.534C274.639 115.534 274.576 115.534 274.513 115.469C273.943 115.34 273.564 114.693 273.817 114.109C274.07 113.656 274.008 113.463 274.324 113.073C274.451 113.009 274.513 112.88 274.514 112.749C274.578 112.62 274.514 112.555 274.514 112.426C274.514 112.168 274.387 111.972 274.323 111.779C274.133 110.809 274.325 110.226 274.512 109.772C274.639 109.513 274.767 109.319 274.831 109.19C275.021 108.931 275.148 108.801 275.275 108.673C275.593 108.413 275.845 108.283 276.098 108.153C276.288 108.09 276.415 107.958 276.415 107.766C276.415 106.6 276.606 106.278 276.859 106.082C276.922 106.017 276.986 106.017 277.049 105.954C277.113 105.89 277.367 105.888 277.619 106.019C277.937 106.15 278.317 106.538 278.381 107.443C278.381 107.572 278.38 107.767 278.443 107.896C278.444 108.544 278.57 109.063 278.761 109.514C278.888 109.709 279.015 109.901 279.204 110.16C279.409 110.455 279.642 110.806 279.799 111.175C280.182 110.642 280.799 110.291 281.485 110.29L281.234 110.031C280.472 109.446 280.219 108.997 279.965 108.348C279.713 107.7 279.586 107.506 279.397 106.731C279.332 106.6 278.953 106.149 278.826 105.824C278.699 105.5 278.826 105.048 279.017 104.918C279.334 104.789 279.714 104.724 280.348 105.113C280.727 105.372 280.6 105.372 280.982 105.826C281.299 106.213 281.615 105.89 281.869 105.761C282.185 105.631 282.565 105.566 283.009 105.566C283.516 105.502 283.643 105.632 283.643 105.632C283.643 105.632 284.339 105.761 284.72 106.148C285.038 106.537 285.038 106.797 285.166 107.122C285.292 107.444 285.355 107.964 285.926 107.963C286.433 107.896 286.433 107.896 286.876 107.961C287.572 108.156 288.079 108.414 288.206 108.738C288.332 108.933 288.016 109.448 287.699 109.645C287.447 109.773 287.447 109.773 286.686 109.71C285.925 109.644 285.799 109.968 285.164 110.226C284.593 110.487 283.96 110.94 283.011 110.746L282.71 110.703C283.235 111.092 283.58 111.726 283.581 112.428C284.278 112.3 284.53 112.039 285.165 111.652C285.735 111.264 286.052 110.682 286.747 110.423C286.936 110.358 287.509 110.228 287.824 110.228C288.585 110.227 288.837 110.94 288.522 111.587C288.267 111.976 288.269 111.845 287.824 112.169C287.444 112.557 287.698 113.074 287.76 113.399C287.95 114.888 287.507 115.341 287.19 115.795C286.556 116.701 285.67 116.961 285.732 117.479C285.922 118.774 285.289 119.486 284.971 119.615C284.782 119.68 283.769 119.549 283.768 117.997C283.768 117.286 283.768 116.313 283.514 115.666C283.261 115.02 282.88 115.02 282.817 114.114C282.453 114.378 281.989 114.566 281.488 114.567C281.372 119.118 285.148 121.066 288.646 120.521C289.553 120.359 290.415 120.056 291.195 119.578C290.946 119.245 290.801 118.83 290.799 118.384C290.8 117.286 291.687 116.377 292.828 116.379C293.906 116.377 294.791 117.282 294.792 118.385C294.792 119.485 293.905 120.392 292.828 120.392C292.647 120.391 292.472 120.369 292.306 120.325C291.813 124.272 295.02 127.047 298.699 124.76C298.49 124.504 298.359 124.181 298.343 123.828C297.765 124.04 296.037 124.665 295.616 124.664C295.11 124.664 294.983 124.276 294.983 124.018C294.982 123.758 295.235 123.499 295.489 123.24C295.743 122.984 295.617 122.076 295.87 121.494C296.123 120.977 296.25 120.977 296.758 120.719C297.264 120.457 297.264 120.589 297.518 120.328C297.708 120.2 297.897 119.812 297.899 119.553C297.897 119.293 298.151 119.165 298.151 119.165C298.151 119.165 298.532 119.034 298.784 119.293C299.038 119.554 299.038 119.94 299.038 120.199C299.037 120.618 299.104 121.754 299.14 122.348C299.37 122.213 299.638 122.141 299.924 122.141L300.098 122.149C300.17 121.64 300.305 120.632 300.304 120.07C300.303 119.293 300.176 119.42 300.43 119.161C300.684 118.905 301.063 119.032 301.317 119.293C301.569 119.551 302.204 120.717 302.711 120.718C303.472 120.716 303.345 120.589 303.852 120.847C304.359 121.105 305.372 122.206 305.372 122.722C305.372 123.24 305.373 122.982 305.119 123.241C304.866 123.5 303.597 123.112 302.585 123.372C302.169 123.478 301.798 123.561 301.504 123.623C301.509 123.758 301.002 124.082 300.431 124.534C299.796 125.053 299.608 125.31 299.608 125.31C299.535 125.297 299.462 125.277 299.394 125.253C298.55 126.321 297.16 127.13 295.49 127.251L294.921 127.254C294.225 127.187 293.463 127.057 292.703 126.736C290.485 125.829 290.866 122.204 290.866 121.621C290.359 122.139 289.536 122.463 288.648 122.657C287.127 122.981 285.29 122.85 283.516 122.203C280.728 121.102 280.222 117.219 280.222 116.183C280.094 116.572 279.144 117.413 277.815 118.058C276.357 118.771 274.395 119.29 272.684 118.771C269.895 117.996 269.007 116.053 267.741 114.241C267.551 114.5 267.299 114.824 266.919 115.147C265.714 116.117 263.688 117.281 261.597 117.088C258.682 116.828 256.592 113.851 256.084 113.075C255.577 113.851 253.551 116.829 250.637 117.087C248.483 117.281 246.455 116.115 245.252 115.08C244.871 114.819 244.617 114.496 244.427 114.237C243.16 116.05 242.273 117.993 239.422 118.768C237.71 119.286 235.812 118.767 234.352 118.056C233.023 117.409 232.072 116.567 231.946 116.181C231.945 117.216 231.438 121.099 228.652 122.198C226.878 122.847 225.04 122.976 223.519 122.654C222.631 122.458 221.809 122.135 221.238 121.617C221.239 122.198 221.618 125.824 219.463 126.73C218.704 127.055 217.943 127.184 217.246 127.248H216.677C215.006 127.126 213.617 126.315 212.773 125.248C212.705 125.272 212.631 125.292 212.56 125.307C212.56 125.307 212.369 125.047 211.736 124.529C211.167 124.076 210.659 123.753 210.659 123.753C210.369 123.554 209.996 123.471 209.581 123.367C208.566 123.106 207.301 123.495 207.046 123.237C206.794 122.979 206.794 123.238 206.794 122.719C206.794 122.201 207.807 121.101 208.314 120.842C208.82 120.582 208.695 120.714 209.453 120.712C209.96 120.711 210.593 119.547 210.846 119.288C211.099 119.032 211.479 118.903 211.733 119.159C211.987 119.416 211.859 119.288 211.86 120.065C211.86 120.629 211.993 121.635 212.065 122.147L212.239 122.136C212.526 122.137 212.791 122.211 213.023 122.341C213.058 121.746 213.126 120.615 213.126 120.195C213.126 119.935 213.127 119.548 213.379 119.29C213.633 119.031 214.013 119.16 214.013 119.16C214.013 119.16 214.267 119.289 214.267 119.547C214.267 119.808 214.458 120.195 214.647 120.324C214.899 120.582 214.901 120.453 215.408 120.714C215.914 120.973 216.042 120.971 216.295 121.488C216.549 122.072 216.42 122.977 216.674 123.236C216.928 123.495 217.181 123.753 217.18 124.011C217.181 124.272 217.055 124.658 216.547 124.66C216.127 124.658 214.399 124.036 213.821 123.823C213.805 124.175 213.672 124.499 213.466 124.754C217.141 127.041 220.298 124.264 219.847 120.318C219.683 120.363 219.512 120.389 219.336 120.389C218.259 120.39 217.373 119.484 217.372 118.381C217.372 117.281 218.259 116.375 219.335 116.374C220.414 116.375 221.298 117.281 221.299 118.381C221.298 118.828 221.153 119.241 220.91 119.578C221.704 120.054 222.61 120.354 223.517 120.519C227.017 121.125 230.737 119.123 230.732 114.565C230.147 114.563 229.659 114.356 229.29 114.016C229.283 115.017 228.903 115.015 228.65 115.665C228.396 116.31 228.396 117.283 228.396 117.995C228.395 119.548 227.382 119.678 227.193 119.613C226.875 119.483 226.242 118.77 226.431 117.477C226.496 116.959 225.608 116.7 224.974 115.793C224.657 115.34 224.214 114.888 224.406 113.398C224.468 113.073 224.72 112.556 224.34 112.167C223.898 111.845 223.896 111.974 223.643 111.585C223.264 110.939 223.579 110.227 224.34 110.226C224.657 110.226 225.227 110.355 225.353 110.42C226.113 110.68 226.43 111.264 227.001 111.65C227.636 112.04 227.888 112.298 228.458 112.491C228.585 111.723 228.931 111.093 229.456 110.7L229.156 110.744C228.205 110.939 227.572 110.486 226.938 110.228C226.368 109.969 226.241 109.646 225.482 109.711C224.721 109.775 224.721 109.775 224.405 109.645C224.151 109.449 223.834 108.933 223.96 108.739C224.086 108.414 224.531 108.156 225.226 107.963C225.733 107.897 225.733 107.897 226.24 107.964C226.809 107.963 226.874 107.445 227 107.121C227.128 106.799 227.127 106.541 227.444 106.151C227.822 105.762 228.522 105.634 228.522 105.634C228.522 105.634 228.648 105.503 229.155 105.57C229.599 105.571 229.978 105.634 230.232 105.763C230.548 105.892 230.801 106.215 231.18 105.828C231.498 105.374 231.372 105.375 231.815 105.116C232.386 104.727 232.828 104.792 233.147 104.922C233.336 105.051 233.462 105.504 233.336 105.827C233.21 106.152 232.829 106.603 232.767 106.732C232.577 107.51 232.449 107.703 232.197 108.351C231.944 109 231.69 109.452 230.93 110.033L230.544 110.296C231.365 110.293 231.985 110.648 232.37 111.185C232.645 110.534 233.143 109.967 233.338 109.516C233.656 108.87 233.718 108.223 233.783 107.446C233.909 105.89 234.86 105.828 235.114 105.957C235.366 106.087 235.747 106.345 235.747 107.769C235.747 108.286 236.697 108.224 237.269 109.196C237.584 109.648 238.155 110.295 237.775 111.783C237.711 112.106 237.395 112.688 237.776 113.079C238.154 113.466 238.091 113.661 238.283 114.115C238.663 114.761 238.092 115.603 237.332 115.536C236.954 115.47 236.574 115.084 236.382 114.953C235.496 114.371 235.306 114.305 234.735 113.918C234.165 113.464 233.912 113.464 233.341 113.206C233.083 113.118 232.873 113.044 232.702 112.963C232.598 113.363 232.38 113.721 232.088 113.997C232.789 114.858 233.59 115.468 234.355 115.859C238.292 117.812 242.866 114.79 243.188 111.24C241.847 111.069 240.881 109.916 240.881 108.546C240.88 107.059 242.021 105.828 243.542 105.827C244.998 105.828 246.203 107.057 246.204 108.547C246.204 109.639 245.554 110.594 244.631 111.022C244.811 111.36 245.033 111.693 245.254 111.976C246.393 113.529 248.358 114.565 251.274 114.112C254.196 113.685 255.227 110.976 255.499 110.034C254.608 109.832 253.867 109.183 253.518 108.336C253.458 108.747 253.308 109.365 252.921 109.839C252.541 110.292 252.033 111.131 251.781 111.65C251.526 112.166 251.274 112.686 251.019 112.946C250.766 113.202 250.512 113.205 250.258 113.205C250.005 113.203 249.498 112.687 249.497 112.168C249.498 111.652 249.371 110.551 249.244 110.358C248.991 109.839 247.851 109.451 247.851 107.898C247.852 106.342 248.738 106.085 248.991 105.566C249.118 105.307 248.738 103.949 248.739 103.431C248.739 102.913 249.118 102.395 249.373 102.395C249.879 102.393 250.64 102.849 250.765 103.17C251.018 103.688 251.337 104.012 251.78 104.337C252.54 104.919 252.667 105.11 253.046 105.564C253.231 105.791 253.349 106.08 253.426 106.379C253.717 105.411 254.48 104.663 255.425 104.419L255.071 104.334C254.06 104.077 253.551 103.559 253.044 103.041C252.538 102.525 252.537 102.135 251.778 101.876C251.018 101.617 251.018 101.617 250.764 101.358C250.512 101.1 250.575 100.517 250.765 100.322C251.017 100.064 251.525 99.8047 252.286 99.9328C252.793 100.063 252.793 100.063 253.299 100.322C253.806 100.581 253.933 100.452 254.187 100.193C254.44 99.9339 254.756 99.2883 255.201 99.0269C255.708 98.7676 256.088 98.7686 256.088 98.7686C256.088 98.7686 256.467 98.7697 256.974 99.0279C257.481 99.2872 257.797 99.9328 257.987 100.193C258.305 100.451 258.432 100.582 258.938 100.322C259.445 100.064 259.445 100.064 259.952 99.9339C260.711 99.8047 261.217 100.064 261.471 100.322C261.662 100.517 261.725 101.099 261.472 101.358C261.218 101.618 261.219 101.617 260.459 101.875C259.699 102.135 259.698 102.522 259.192 103.042C258.685 103.56 258.178 104.078 257.099 104.336L256.761 104.416C257.722 104.652 258.487 105.377 258.794 106.325C258.879 106.047 259.004 105.781 259.191 105.566C259.255 105.438 259.319 105.373 259.382 105.307C259.573 105.112 259.761 104.92 260.078 104.659C260.205 104.53 260.268 104.465 260.459 104.337C260.584 104.27 260.711 104.206 260.775 104.077C261.094 103.884 261.282 103.56 261.472 103.172C261.662 102.912 261.916 102.721 262.234 102.589C262.424 102.46 262.677 102.393 262.867 102.396C263.185 102.524 263.5 102.979 263.5 103.432C263.5 103.948 263.121 105.309 263.247 105.569C263.311 105.699 263.5 105.893 263.627 106.023C263.945 106.346 264.261 106.798 264.325 107.704V108.093C264.262 108.87 263.945 109.321 263.628 109.646C263.374 109.905 263.121 110.099 262.993 110.359C262.866 110.875 262.74 111.718 262.74 112.171C262.74 112.559 262.487 112.946 262.233 113.076C262.17 113.143 262.043 113.207 261.98 113.208C261.726 113.208 261.6 113.208 261.536 113.142C261.41 113.143 261.282 113.076 261.219 112.948C261.092 112.819 260.902 112.625 260.774 112.364C260.648 112.169 260.584 111.911 260.459 111.654C260.332 111.457 260.204 111.2 260.079 111.007C259.825 110.618 259.572 110.23 259.38 109.905C258.929 109.366 258.78 108.748 258.721 108.337C258.367 109.191 257.608 109.843 256.678 110.041C256.954 110.987 257.995 113.689 260.965 114.115C263.753 114.568 265.716 113.533 266.92 111.977C267.145 111.69 267.371 111.35 267.553 111.005C267.461 110.97 267.376 110.928 267.301 110.877C267.038 110.744 266.848 110.55 266.658 110.291Z" fill="white"/>
<path d="M225.097 103.618C225.097 101.743 226.554 100.189 228.391 100.188C230.228 100.189 231.685 101.742 231.686 103.619C231.686 105.432 230.228 106.985 228.393 106.986C226.553 106.986 225.096 105.431 225.097 103.618Z" fill="white"/>
<path d="M226.554 84.9783C226.555 83.2299 228.012 81.7408 229.785 81.7418C231.559 81.7408 232.952 83.2299 232.954 84.9783C232.954 86.7902 231.56 88.2793 229.784 88.2782C228.012 88.2782 226.554 86.7902 226.554 84.9783Z" fill="white"/>
<path d="M231.75 81.4825C231.75 80.1236 232.89 78.9573 234.22 78.9573C235.615 78.9573 236.692 80.1236 236.692 81.4825C236.691 82.906 235.615 84.0056 234.22 84.0056C232.888 84.0067 231.75 82.906 231.75 81.4825Z" fill="white"/>
<path d="M236.438 80.058C236.437 78.7626 237.514 77.663 238.781 77.663C240.113 77.663 241.189 78.7637 241.189 80.058C241.189 81.4159 240.113 82.4531 238.781 82.4499C237.515 82.4531 236.438 81.418 236.438 80.058Z" fill="white"/>
<path d="M241.315 79.9289C241.316 78.8293 242.203 77.9222 243.278 77.9222C244.357 77.9233 245.242 78.8293 245.242 79.9289C245.242 81.0306 244.355 81.9355 243.279 81.9355C242.203 81.9366 241.315 81.0296 241.315 79.9289Z" fill="white"/>
<path d="M245.244 80.3163C245.244 79.2177 246.132 78.3107 247.207 78.3096C248.285 78.3107 249.171 79.2166 249.171 80.3163C249.172 81.4169 248.284 82.3229 247.208 82.324C246.132 82.325 245.245 81.4169 245.244 80.3163Z" fill="white"/>
<path d="M249.045 81.3513C249.046 80.512 249.679 79.8654 250.503 79.8643C251.327 79.8643 251.961 80.512 251.961 81.3534C251.96 82.1937 251.326 82.9071 250.503 82.906C249.68 82.906 249.045 82.1938 249.045 81.3513Z" fill="white"/>
<path d="M251.834 82.5176C251.834 81.872 252.403 81.2878 253.037 81.2889C253.735 81.2889 254.305 81.872 254.303 82.5187C254.303 83.2299 253.733 83.812 253.036 83.812C252.404 83.812 251.834 83.2299 251.834 82.5176Z" fill="white"/>
<path d="M254.114 83.813C254.114 82.7113 255.003 81.8064 256.078 81.8064C257.219 81.8064 258.041 82.7113 258.041 83.813C258.041 84.9772 257.219 85.8197 256.078 85.8197C255.001 85.8176 254.114 84.9772 254.114 83.813Z" fill="white"/>
<path d="M253.797 88.1491C253.796 86.8537 254.811 85.8186 256.078 85.8197C257.346 85.8207 258.421 86.8547 258.421 88.1491C258.42 89.4445 257.344 90.4796 256.076 90.4796C254.81 90.4807 253.796 89.4445 253.797 88.1491Z" fill="white"/>
<path d="M253.29 93.262C253.291 91.7094 254.558 90.4161 256.079 90.415C257.662 90.415 258.93 91.7105 258.929 93.2631C258.93 94.8813 257.663 96.1121 256.078 96.1111C254.556 96.11 253.291 94.8813 253.29 93.262Z" fill="white"/>
<path d="M252.53 99.6703C252.53 97.6647 254.114 96.0455 256.079 96.0465C258.042 96.0465 259.689 97.6637 259.689 99.6724C259.69 101.678 258.043 103.296 256.079 103.296C254.115 103.294 252.53 101.678 252.53 99.6703Z" fill="white"/>
<path d="M208.625 119.541C208.626 117.924 209.956 116.564 211.602 116.564C213.251 116.565 214.516 117.923 214.516 119.541C214.517 121.224 213.249 122.584 211.604 122.584C209.955 122.584 208.625 121.225 208.625 119.541Z" fill="white"/>
<path d="M205.584 113.974C205.584 112.099 207.105 110.608 208.941 110.609C210.717 110.608 212.236 112.098 212.235 113.976C212.234 115.853 210.714 117.343 208.942 117.342C207.104 117.342 205.584 115.851 205.584 113.974Z" fill="white"/>
<path d="M204.57 107.892C204.572 106.143 205.964 104.782 207.676 104.783C209.322 104.783 210.717 106.142 210.716 107.889C210.718 109.574 209.323 110.998 207.675 110.997C205.965 110.998 204.57 109.572 204.57 107.892Z" fill="white"/>
<path d="M205.774 102.001C205.773 100.446 206.978 99.1539 208.563 99.1539C210.083 99.1528 211.351 100.448 211.35 102.001C211.351 103.619 210.082 104.913 208.561 104.911C206.978 104.914 205.772 103.618 205.774 102.001Z" fill="white"/>
<path d="M208.182 97.3398C208.183 95.9153 209.323 94.75 210.718 94.7511C212.112 94.75 213.252 95.9174 213.252 97.3398C213.252 98.7644 212.113 99.9296 210.718 99.9275C209.323 99.9307 208.182 98.7633 208.182 97.3398Z" fill="white"/>
<path d="M211.793 93.8451C211.792 92.6153 212.806 91.5803 214.01 91.5792C215.215 91.5803 216.228 92.6153 216.229 93.8462C216.227 95.075 215.214 96.1121 214.009 96.1111C212.806 96.11 211.792 95.076 211.793 93.8451Z" fill="white"/>
<path d="M215.847 91.9042C215.847 90.8035 216.735 89.8975 217.811 89.8975C218.888 89.8965 219.774 90.8024 219.774 91.9042C219.774 93.0059 218.887 93.9108 217.811 93.9119C216.734 93.9097 215.848 93.0038 215.847 91.9042Z" fill="white"/>
<path d="M219.776 91.1262C219.776 90.1557 220.536 89.3778 221.487 89.3789C222.437 89.3778 223.263 90.1547 223.26 91.1262C223.259 92.0978 222.437 92.8736 221.487 92.8736C220.535 92.8746 219.775 92.0967 219.776 91.1262Z" fill="white"/>
<path d="M280.47 103.618C280.469 101.743 281.927 100.189 283.763 100.188C285.602 100.189 287.058 101.742 287.059 103.619C287.058 105.432 285.6 106.986 283.764 106.984C281.926 106.986 280.469 105.431 280.47 103.618Z" fill="white"/>
<path d="M279.139 84.9793C279.139 83.233 280.596 81.7418 282.371 81.7418C284.144 81.7418 285.538 83.2309 285.539 84.9793C285.538 86.7923 284.145 88.2803 282.371 88.2793C280.595 88.2793 279.139 86.7912 279.139 84.9793Z" fill="white"/>
<path d="M275.465 81.4836C275.465 80.1247 276.542 78.9562 277.936 78.9573C279.265 78.9573 280.407 80.1236 280.408 81.4825C280.407 82.9071 279.265 84.0067 277.935 84.0067C276.541 84.0078 275.465 82.9071 275.465 81.4836Z" fill="white"/>
<path d="M270.965 80.058C270.967 78.7637 272.043 77.6619 273.31 77.663C274.64 77.6619 275.717 78.7626 275.716 80.057C275.717 81.4159 274.639 82.4531 273.309 82.4531C272.042 82.4531 270.966 81.4169 270.965 80.058Z" fill="white"/>
<path d="M266.911 79.9278C266.912 78.8282 267.799 77.9212 268.874 77.9212C269.953 77.9212 270.839 78.8271 270.839 79.9278C270.839 81.0296 269.953 81.9355 268.875 81.9345C267.799 81.9366 266.911 81.0296 266.911 79.9278Z" fill="white"/>
<path d="M263.046 80.3184C263.045 79.2166 263.87 78.3117 264.947 78.3107C266.024 78.3117 266.91 79.2177 266.91 80.3184C266.911 81.4201 266.022 82.3239 264.947 82.325C263.871 82.325 263.046 81.418 263.046 80.3184Z" fill="white"/>
<path d="M260.196 81.3524C260.196 80.511 260.893 79.8643 261.717 79.8633C262.539 79.8643 263.175 80.511 263.175 81.3534C263.174 82.1959 262.539 82.9071 261.717 82.906C260.892 82.906 260.196 82.1948 260.196 81.3524Z" fill="white"/>
<path d="M257.915 82.5176C257.915 81.872 258.486 81.2878 259.183 81.2878C259.816 81.2878 260.387 81.872 260.387 82.5187C260.387 83.2309 259.817 83.813 259.183 83.813C258.486 83.813 257.916 83.2299 257.915 82.5176Z" fill="white"/>
<path d="M299.918 113.975C299.918 112.1 301.377 110.609 303.213 110.608C305.049 110.609 306.506 112.097 306.506 113.975C306.507 115.854 305.049 117.344 303.212 117.342C301.377 117.342 299.919 115.853 299.918 113.975Z" fill="white"/>
<path d="M301.566 107.892C301.566 106.208 302.898 104.848 304.481 104.849C306.129 104.851 307.459 106.21 307.458 107.891C307.458 109.509 306.129 110.868 304.481 110.869C302.897 110.87 301.567 109.51 301.566 107.892Z" fill="white"/>
<path d="M300.869 102.001C300.87 100.513 302.137 99.284 303.594 99.284C305.114 99.283 306.318 100.513 306.318 102.002C306.318 103.556 305.113 104.784 303.595 104.784C302.137 104.784 300.869 103.554 300.869 102.001Z" fill="white"/>
<path d="M298.969 97.3419C298.97 95.983 300.11 94.8157 301.441 94.8157C302.771 94.8167 303.912 95.983 303.912 97.3409C303.912 98.7644 302.77 99.864 301.44 99.864C300.109 99.8651 298.969 98.7654 298.969 97.3419Z" fill="white"/>
<path d="M295.928 93.8462C295.928 92.6164 296.941 91.5814 298.145 91.5803C299.348 91.5803 300.363 92.6164 300.361 93.8462C300.361 95.076 299.348 96.1122 298.145 96.1111C296.942 96.1111 295.928 95.076 295.928 93.8462Z" fill="white"/>
<path d="M292.378 91.9042C292.379 90.8045 293.203 89.8975 294.343 89.8975C295.42 89.8986 296.307 90.8045 296.306 91.9042C296.307 93.0048 295.42 93.9108 294.343 93.9108C293.205 93.9087 292.379 93.0048 292.378 91.9042Z" fill="white"/>
<path d="M288.895 91.1252C288.895 90.1547 289.656 89.38 290.606 89.3789C291.556 89.3789 292.38 90.1547 292.379 91.1252C292.38 92.0978 291.557 92.8757 290.606 92.8736C289.657 92.8757 288.895 92.0989 288.895 91.1252Z" fill="white"/>
<path d="M223.133 90.3494C223.133 88.473 224.654 86.9828 226.492 86.9839C228.329 86.9849 229.785 88.473 229.785 90.3505C229.784 92.227 228.328 93.7171 226.492 93.7161C224.656 93.715 223.133 92.2259 223.133 90.3494Z" fill="white"/>
<path d="M223.133 90.3494C223.133 88.473 224.654 86.9828 226.492 86.9839C228.329 86.9849 229.785 88.473 229.785 90.3505C229.784 92.227 228.328 93.7171 226.492 93.7161C224.656 93.715 223.133 92.2259 223.133 90.3494Z" fill="white"/>
<path d="M221.866 97.2107C221.866 95.075 223.577 93.3266 225.73 93.3276C227.82 93.3266 229.533 95.075 229.532 97.2118C229.531 99.3475 227.821 101.094 225.73 101.096C223.576 101.094 221.867 99.3476 221.866 97.2107Z" fill="white"/>
<path d="M282.496 90.3515C282.496 88.5386 283.889 87.0495 285.664 87.0495C287.438 87.0484 288.897 88.5386 288.895 90.3515C288.895 92.1645 287.439 93.589 285.663 93.588C283.889 93.5858 282.497 92.1634 282.496 90.3515Z" fill="white"/>
<path d="M282.624 97.3398C282.624 95.203 284.334 93.4557 286.425 93.4578C288.516 93.4568 290.227 95.2052 290.226 97.3398C290.226 99.4756 288.515 101.224 286.425 101.224C284.334 101.225 282.624 99.4767 282.624 97.3398Z" fill="white"/>
<path d="M255.907 128.933L248.304 124.144L255.907 119.289L263.51 124.143C260.979 125.732 258.387 127.258 255.907 128.933Z" fill="white"/>
<path d="M255.908 120.581C257.777 121.716 259.547 123.063 261.484 124.079L255.907 127.637L250.396 124.077L255.908 120.581Z" fill="white"/>
<path d="M267.69 128.545L279.663 132.718L281.549 126.578L269.573 122.405L267.69 128.545Z" fill="white"/>
<path d="M268.87 127.764L279.133 131.363L280.368 127.361L270.105 123.759L268.87 127.764Z" fill="white"/>
<path d="M289.302 135.865L286.498 130.64L292.904 130.245L292.712 134.292L289.302 135.865Z" fill="white"/>
<path d="M293.343 130.584L286.608 130.723L289.824 136.006C290.119 136.524 289.412 137.101 289.193 136.877L285.728 130.106C285.777 130.132 286.498 129.964 293.62 129.515C293.921 129.487 293.931 130.569 293.343 130.584Z" fill="white"/>
<path d="M244.126 128.545L232.154 132.719L230.268 126.579L242.242 122.406L244.126 128.545Z" fill="white"/>
<path d="M242.946 127.764L232.685 131.364L231.45 127.362L241.71 123.759L242.946 127.764Z" fill="white"/>
<path d="M223.084 135.865L225.888 130.639L219.481 130.246L219.674 134.292L223.084 135.865Z" fill="white"/>
<path d="M219.041 130.583L225.778 130.723L222.561 136.005C222.266 136.523 222.973 137.101 223.194 136.876L226.658 130.106C226.607 130.133 225.886 129.967 218.767 129.516C218.463 129.486 218.456 130.569 219.041 130.583Z" fill="white"/>
<path d="M297.681 119.543C297.681 117.924 299.011 116.565 300.659 116.566C302.306 116.565 303.636 117.924 303.636 119.543C303.637 121.228 302.306 122.587 300.659 122.586C299.011 122.585 297.682 121.226 297.681 119.543Z" fill="white"/>
</g>
<defs>
<clipPath id="clip0_1_3044">
<rect width="289.603" height="512" fill="white" transform="translate(111)"/>
</clipPath>
</defs>
</svg>
