<svg width="512" height="512" viewBox="0 0 512 512" fill="none" xmlns="http://www.w3.org/2000/svg">
<g clip-path="url(#clip0_2008_40)">
<g clip-path="url(#clip1_2008_40)">
<path d="M154.513 81.7304C157.383 66.3808 168.128 54.9738 181.856 51.6958C182.61 51.5113 183.276 51.4932 184.095 51.3355C185.948 50.9709 188.307 50.5407 190.571 50.8002C190.642 50.8045 190.742 50.8002 190.73 50.8002C192.525 51.0217 194.337 51.0829 196.245 51.426C198.07 51.7492 199.928 52.412 201.597 53.0352C202.004 53.1887 202.893 53.8627 203.359 53.7507L203.439 53.5696C205.633 51.3993 207.444 48.76 209.755 46.6896C215.028 41.9523 222.878 38.5407 232.214 38.5545C236.035 38.5588 239.264 39.4302 242.607 39.9836C240.841 32.5286 245.035 25.7183 248.923 23.0902C250.42 22.0757 252.144 21.4852 253.881 20.6776V14.1535H247.485V7.27081H253.881C253.881 5.00906 253.881 2.49561 253.957 0.386414H257.315H260.674C260.75 2.49561 260.75 5.00992 260.75 7.27081H267.146V14.1535H260.75V20.6776C262.487 21.4861 264.21 22.0765 265.708 23.0902C269.596 25.7183 273.79 32.5277 272.024 39.9836C275.367 39.4302 278.596 38.5588 282.417 38.5545C291.754 38.5415 299.604 41.9531 304.876 46.6896C307.188 48.76 308.999 51.3993 311.193 53.5696L311.273 53.7507C311.738 53.8627 312.627 53.1887 313.034 53.0352C314.703 52.4112 316.561 51.7483 318.386 51.426C320.294 51.0838 322.106 51.0226 323.901 50.8002C323.888 50.8002 323.99 50.8045 324.06 50.8002C326.325 50.5407 328.683 50.9709 330.536 51.3355C331.354 51.4932 332.021 51.5113 332.776 51.6958C346.503 54.9729 357.248 66.3808 360.118 81.7304C360.668 84.6749 360.914 88.3606 360.675 91.917C359.605 107.923 354.623 118.695 349.003 129.55C346.52 134.356 343.663 140.265 339.411 143.047C340.045 144.045 340.846 145.011 341.332 146.177C342.439 148.842 342.389 152.519 341.492 155.294C338.17 165.527 322.844 168.134 313.509 162.352C309.361 159.782 307.105 156.765 306.475 150.464C298.733 158.706 281.906 158.348 275.703 148.676C274.923 147.452 274.453 146.014 273.941 144.475C272.854 146.087 271.848 147.803 270.422 149.035C267.094 151.913 262.215 153.363 257.316 153.401C252.417 153.363 247.538 151.912 244.21 149.035C242.784 147.803 241.778 146.087 240.691 144.475C240.179 146.014 239.709 147.452 238.929 148.676C232.726 158.348 215.899 158.706 208.157 150.464C207.528 156.765 205.271 159.782 201.123 162.352C191.787 168.134 176.462 165.527 173.14 155.294C172.243 152.519 172.192 148.842 173.3 146.177C173.786 145.01 174.587 144.045 175.221 143.047C170.969 140.265 168.111 134.356 165.629 129.55C160.009 118.696 155.027 107.923 153.957 91.917C153.717 88.3606 153.964 84.6749 154.513 81.7304Z" fill="#F5C03E"/>
<path d="M189.292 73.0566C183.579 73.4936 179.72 76.257 177.3 80.3884C172.984 87.7451 176.084 101.234 178.496 108.364C179.787 112.177 181.738 115.709 183.537 119.09C184.72 121.321 186.234 123.439 187.609 125.524C189.504 128.397 191.895 131.114 191.367 136.433C193.686 136.815 195.405 137.034 197.204 137.593C200.379 138.572 202.535 140.659 204.88 142.513C204.88 138.708 206.117 136.413 207.673 134.374C208.512 133.277 209.384 132.332 210.47 131.513C210.956 131.149 211.364 130.849 211.91 130.53C211.344 130.017 210.74 129.343 210.236 128.743C208.11 126.24 206.897 122.368 205.514 119.09C201.388 109.316 197.754 99.191 196.245 86.3763C195.784 82.47 195.545 78.024 196.085 73.9505C194.191 73.3307 191.308 72.9032 189.292 73.0566Z" fill="#FF1119"/>
<path d="M235.81 60.4549C240.163 60.8169 243.79 62.1848 247.004 63.8492V114.979C247.004 116.961 246.912 119.051 247.164 120.792C247.466 122.848 248.262 124.637 249.164 126.066C244.122 128.714 242.143 130.523 239.727 136.165C237.659 131.705 233.52 129.169 228.701 127.761C228.97 126.277 229.464 124.887 229.338 123.026C229.095 119.353 227.493 116.989 226.381 114.354C225.279 111.737 224.159 109.129 223.1 106.491C219.976 98.6953 214.289 80.8271 218.223 70.3776C219.158 67.897 220.711 66.1386 222.464 64.569C225.517 61.8254 229.933 59.9593 235.81 60.4549Z" fill="#FF1119"/>
<path d="M325.339 73.0566C331.051 73.4936 334.91 76.257 337.33 80.3884C341.647 87.7451 338.546 101.234 336.134 108.364C334.843 112.177 332.893 115.709 331.093 119.09C329.91 121.321 328.396 123.439 327.021 125.524C325.126 128.397 322.735 131.114 323.263 136.433C320.945 136.815 319.225 137.034 317.426 137.593C314.251 138.572 312.095 140.659 309.751 142.513C309.751 138.708 308.513 136.413 306.957 134.374C306.118 133.277 305.247 132.332 304.16 131.513C303.674 131.149 303.266 130.849 302.721 130.53C303.287 130.017 303.891 129.343 304.394 128.743C306.521 126.24 307.733 122.368 309.116 119.09C313.243 109.316 316.876 99.191 318.385 86.3763C318.846 82.47 319.085 78.024 318.545 73.9505C320.44 73.3307 323.322 72.9032 325.339 73.0566Z" fill="#FF1119"/>
<path d="M278.821 60.4549C274.467 60.8169 270.84 62.1848 267.627 63.8492V114.979C267.627 116.961 267.719 119.051 267.467 120.792C267.165 122.848 266.369 124.637 265.466 126.066C270.508 128.714 272.488 130.523 274.903 136.165C276.971 131.705 281.11 129.169 285.929 127.761C285.661 126.277 285.166 124.887 285.292 123.026C285.535 119.353 287.138 116.989 288.249 114.354C289.351 111.737 290.472 109.129 291.53 106.491C294.654 98.6953 300.341 80.8271 296.407 70.3776C295.472 67.897 293.919 66.1386 292.167 64.569C289.113 61.8254 284.697 59.9593 278.821 60.4549Z" fill="#FF1119"/>
<path d="M82.473 335.15C82.473 238.41 160.748 159.989 257.318 159.989C353.878 159.989 432.157 238.409 432.157 335.15C432.157 431.895 353.878 510.319 257.318 510.319C160.748 510.319 82.473 431.895 82.473 335.15Z" fill="#FF1119"/>
<path d="M105.873 333.57C105.873 336.922 109.115 339.641 113.121 339.641C117.121 339.641 120.363 336.922 120.363 333.57C120.363 330.22 117.121 327.499 113.121 327.499C109.114 327.499 105.873 330.22 105.873 333.57Z" fill="black"/>
<path d="M120.468 388.532C128.382 386.181 133.571 377.812 131.582 369.452L129.024 358.693L98.5282 366.658L101.091 377.417C103.154 386.098 112.247 390.96 120.468 388.532ZM107.898 375.636L107.164 372.548L124.036 368.139L124.771 371.23C125.798 375.544 122.695 379.522 118.618 380.756C114.282 382.055 108.989 380.216 107.898 375.636Z" fill="black"/>
<path d="M138.381 403.458L143.586 413.303L149.721 409.74L140.864 392.982L113.375 408.942L122.489 426.181L128.63 422.613L123.173 412.295L128.395 409.258L132.836 417.662L138.973 414.093L134.535 405.694L138.381 403.458Z" fill="black"/>
<path d="M175.138 435.181L168.452 429.705L149.109 455.652L156.411 461.631C161.527 465.825 168.197 466.963 171.87 462.032C174.127 459.006 173.799 455.254 171.816 452.029C174.882 452.73 177.709 451.978 179.643 449.383C183.023 444.842 179.891 439.065 175.138 435.181ZM166.368 456.482C165.014 458.3 162.841 457.563 160.325 455.502L159.369 454.724L163.047 449.791L163.998 450.569C166.679 452.767 167.693 454.709 166.368 456.482ZM172.659 445.824C171.691 447.117 170.264 447.07 167.953 445.175L167.047 444.433L170.076 440.365L170.944 441.077C173.256 442.97 173.625 444.523 172.659 445.824Z" fill="black"/>
<path d="M180.657 476.25L186.869 481.07L191.214 475.827L200.307 480.07L199.501 486.965L207.072 488.576L209.307 454.296L203.474 451.568L180.657 476.25ZM201.201 472.44L196.028 470.027L202.408 462.304L201.201 472.44Z" fill="black"/>
<path d="M315.217 478.593L304.446 482.046L302.697 476.061L311.464 473.253L309.412 466.22L300.646 469.027L299.363 464.622L309.631 461.333L307.579 454.3L290.095 459.898L299.288 491.388L317.272 485.628L315.217 478.593Z" fill="black"/>
<path d="M347.146 461.401L337.526 466.989L325.69 444.622L319.088 448.452L334.329 477.25L350.548 467.836L347.146 461.401Z" fill="black"/>
<path d="M347.772 426.666C341.703 432.806 343.539 443.081 349.395 449.44C355.258 455.794 364.998 458.067 371.062 451.929C377.131 445.79 375.299 435.514 369.439 429.159C363.579 422.802 353.837 420.53 347.772 426.666ZM366.264 446.717C363.017 449.998 358.535 447.821 354.898 443.875C351.261 439.924 349.337 435.154 352.574 431.879C355.816 428.599 360.299 430.776 363.94 434.722C367.58 438.672 369.502 443.438 366.264 446.717Z" fill="black"/>
<path d="M390.027 400.637L369.216 401.478L365.563 408.393L393.055 424.355L396.712 417.444L381.132 408.397L401.943 407.556L405.596 400.645L378.107 384.679L374.446 391.591L390.027 400.637Z" fill="black"/>
<path d="M410.452 363.669L417.054 363.063L416.982 354.968L384.508 359.799L383.182 366.353L410.973 384.599L414.181 377.232L408.385 373.866L410.452 363.669ZM401.963 370.14L393.428 365.209L403.142 364.341L401.963 370.14Z" fill="black"/>
<path d="M396.033 337.09C396.033 340.436 399.279 343.157 403.276 343.157C407.281 343.157 410.528 340.436 410.528 337.09C410.528 333.737 407.282 331.02 403.276 331.02C399.28 331.02 396.033 333.737 396.033 337.09Z" fill="black"/>
<path d="M380.561 298.455L385.044 317.314L391.855 315.532L389.196 304.345L412.881 298.163L411.052 290.491L380.561 298.455Z" fill="black"/>
<path d="M371.024 276.867C375.239 284.522 385.2 285.153 392.502 280.734C399.804 276.32 404.266 266.965 400.051 259.31C395.836 251.655 385.874 251.027 378.573 255.445C371.271 259.865 366.809 269.215 371.024 276.867ZM382.398 262.388C386.933 259.644 391.81 258.842 394.067 262.933C396.315 267.022 393.216 271.049 388.682 273.796C384.143 276.541 379.262 277.336 377.013 273.246C374.761 269.161 377.86 265.129 382.398 262.388Z" fill="black"/>
<path d="M356.89 238.348L348.199 246.842L353.413 252.705L362.107 244.21L382.508 239.211L379.236 231.826L364.632 236.262L365.614 233.465L366.427 233.275L370.44 221.616L369.703 221.198L369.7 221.207L363.076 217.374L356.89 238.348Z" fill="black"/>
<path d="M331.096 192.431L314.44 220.358L320.837 224.544L330.274 208.719L329.989 230.538L336.385 234.728L353.04 206.803L346.639 202.613L337.203 218.435L337.243 215.354L337.797 214.372L337.995 196.958L337.48 196.597L337.479 196.61L331.096 192.431Z" fill="black"/>
<path d="M300.433 209.108L300.78 216.042L308.506 216.252L305.019 182.084L298.826 180.46L280.452 208.918L287.363 212.53L290.778 206.582L300.433 209.108ZM299.556 191.229L300.042 201.427L294.557 199.99L299.556 191.229Z" fill="black"/>
<path d="M261.394 199.315H262.601C269.308 199.315 275.75 194.54 275.75 187.517C275.75 180.487 269.308 175.713 262.601 175.713H253.852V208.644H261.394V199.315ZM261.394 183.072H262.601C265.273 183.072 268.101 184.717 268.101 187.517C268.101 190.311 265.273 191.958 262.601 191.958H261.394V183.072Z" fill="black"/>
<path d="M230.747 198.618C232.295 199.117 233.751 199.688 234.04 201.367C234.313 202.985 233.356 204.602 231.85 205.106C229.691 205.812 227.234 205.295 226.273 203.208L222.657 209.678C225.723 212.641 229.877 213.062 233.315 212.301C238.793 211.077 242.479 205.488 241.414 199.725C240.487 194.877 236.772 192.676 232.162 191.345L229.997 190.705C227.669 190.044 225.723 189.692 225.854 187.7C225.934 186.507 226.667 185.388 227.8 185.135C229.528 184.694 231.324 184.578 232.502 185.887L235.903 179.687C232.98 177.419 229.976 177.134 226.341 177.945C221.777 178.958 217.499 184.007 218.48 189.343C219.441 194.625 223.933 196.434 228.916 198.018L230.747 198.618Z" fill="black"/>
<path d="M211.078 208.692L200.794 213.492L198.362 207.778L206.737 203.87L203.881 197.152L195.505 201.061L193.714 196.849L203.525 192.273L200.672 185.554L183.971 193.343L196.755 223.424L213.934 215.411L211.078 208.692Z" fill="black"/>
<path d="M166.83 245.091C172.76 238.657 171.88 228.001 165.555 221.984C159.452 216.197 149.932 216.022 144.219 222.218L136.872 230.192L159.482 253.064L166.83 245.091ZM149.269 227.327C152.213 224.132 157.078 224.78 160.241 227.748C163.592 230.908 164.909 236.588 161.78 239.984L159.67 242.274L147.155 229.615L149.269 227.327Z" fill="black"/>
<path d="M126.437 274.485C133.721 278.709 143.692 278.099 147.725 270.466C149.961 266.246 150.439 262.506 148.933 257.992L148.927 257.993L148.77 257.461L141.934 259.091L142.063 259.459L142.055 259.461C143.314 261.944 143.139 264.541 141.679 266.958C139.246 270.875 134.041 269.736 130.145 267.475C126.249 265.216 122.701 261.274 124.45 256.959C125.515 254.375 127.264 252.881 129.86 252.382L127.855 245.764C123.401 246.816 120.633 249.225 118.398 253.443C114.567 260.694 119.151 270.254 126.437 274.485Z" fill="black"/>
<path d="M132.727 303.27L122.62 300.831L122.88 299.651L136.011 293.253L134.292 285.684L134.265 285.698L133.998 284.699L122.255 290.916C121.034 287.595 118.473 285.237 115.415 284.497C109.283 283.016 103.784 288.224 102.371 294.64L100.404 303.566L131.034 310.973L132.727 303.27ZM116.048 297.945L115.783 299.173L108.939 297.519L109.21 296.291C109.999 292.708 111.496 291.771 113.689 292.303C115.884 292.835 116.555 295.648 116.048 297.945Z" fill="black"/>
<path d="M240.237 482.319C243.323 480.816 245.399 477.973 245.892 474.712C246.87 468.203 241.538 462.819 235.327 461.788L226.683 460.354L221.772 492.877L229.224 494.115L230.844 483.382L231.98 483.57L238.992 496.85L246.081 494.523L246.062 494.49L246.931 494.262L240.237 482.319ZM238.339 473.455C237.986 475.787 235.357 476.687 233.134 476.318L231.942 476.12L233.037 468.852L234.228 469.049C237.697 469.628 238.692 471.126 238.339 473.455Z" fill="black"/>
<path d="M278.259 485.377L278.024 485.85C276.712 488.263 274.558 489.503 271.859 489.538C267.393 489.534 265.471 484.337 265.161 479.684C264.851 475.031 266.075 469.766 270.48 468.951C273.126 468.483 275.278 469.203 277.09 471.217L281.301 465.847C278.029 462.514 274.599 461.389 270.003 461.725C262.108 462.3 256.949 471.535 257.533 480.242C258.112 488.945 264.035 497.367 272.342 496.761C276.94 496.426 280.194 494.812 282.982 491.032L282.979 491.029L283.247 490.6L278.259 485.377Z" fill="black"/>
<path d="M103.826 335.299C103.826 338.65 107.068 341.368 111.07 341.368C115.075 341.368 118.317 338.65 118.317 335.299C118.317 331.951 115.075 329.234 111.07 329.234C107.067 329.234 103.826 331.951 103.826 335.299Z" fill="#F5C03E"/>
<path d="M394.099 335.299C394.099 338.65 397.342 341.368 401.347 341.368C405.348 341.368 408.59 338.65 408.59 335.299C408.59 331.951 405.348 329.234 401.347 329.234C397.342 329.234 394.099 331.951 394.099 335.299Z" fill="#F5C03E"/>
<path d="M124.289 275.163C131.579 279.393 141.548 278.777 145.582 271.149C147.818 266.924 148.291 263.187 146.79 258.675L139.907 260.14C141.166 262.626 140.994 265.223 139.53 267.636C137.102 271.56 131.892 270.418 127.996 268.158C124.1 265.893 120.557 261.956 122.301 257.637C123.366 255.054 125.119 253.56 127.715 253.064L125.71 246.442C121.256 247.495 118.488 249.902 116.252 254.128C112.42 261.371 117.009 270.933 124.289 275.163Z" fill="#F5C03E"/>
<path d="M164.099 245.21C170.03 238.774 169.144 228.117 162.82 222.102C156.718 216.315 147.197 216.14 141.484 222.336L134.137 230.315L156.751 253.183L164.099 245.21ZM146.539 227.448C149.483 224.249 154.344 224.896 157.51 227.866C160.862 231.025 162.179 236.707 159.049 240.1L156.94 242.392L144.425 229.734L146.539 227.448Z" fill="#F5C03E"/>
<path d="M335.642 232.105L352.294 204.18L345.901 199.99L336.465 215.811L336.753 193.996L330.354 189.808L313.699 217.729L320.095 221.922L329.532 206.095L329.251 227.911L335.642 232.105Z" fill="#F5C03E"/>
<path d="M298.445 207.199L298.784 214.133L306.515 214.344L303.034 180.178L296.835 178.554L278.461 207.01L285.368 210.624L288.782 204.674L298.445 207.199ZM297.564 189.32L298.05 199.517L292.564 198.082L297.564 189.32Z" fill="#F5C03E"/>
<path d="M259.402 197.407H260.609C267.316 197.407 273.758 192.633 273.758 185.604C273.758 178.579 267.316 173.806 260.609 173.806H251.861V206.735H259.402V197.407ZM259.402 181.164H260.609C263.281 181.164 266.109 182.805 266.109 185.604C266.109 188.403 263.282 190.049 260.609 190.049H259.402V181.164Z" fill="#F5C03E"/>
<path d="M229.155 196.832C230.703 197.327 232.157 197.902 232.446 199.576C232.719 201.2 231.763 202.815 230.257 203.321C228.097 204.021 225.64 203.504 224.676 201.417L221.065 207.888C224.13 210.852 228.282 211.276 231.721 210.512C237.199 209.292 240.886 203.702 239.825 197.933C238.894 193.094 235.177 190.887 230.573 189.556L228.404 188.916C226.076 188.259 224.129 187.908 224.261 185.915C224.34 184.717 225.074 183.603 226.206 183.351C227.935 182.904 229.729 182.789 230.908 184.098L234.31 177.898C231.387 175.633 228.383 175.345 224.748 176.155C220.185 177.172 215.906 182.223 216.887 187.559C217.848 192.841 222.34 194.644 227.318 196.228L229.155 196.832Z" fill="#F5C03E"/>
<path d="M198.29 212.656L195.856 206.941L204.233 203.036L201.376 196.318L193.001 200.225L191.209 196.012L201.019 191.436L198.164 184.717L181.467 192.505L194.255 222.592L211.43 214.579L208.574 207.86L198.29 212.656Z" fill="#F5C03E"/>
<path d="M379.29 229.022L364.691 233.459L369.933 218.507L363.131 214.57L356.949 235.544L348.254 244.043L353.467 249.902L362.166 241.406L382.565 236.408L379.29 229.022Z" fill="#F5C03E"/>
<path d="M370.856 274.218C375.071 281.873 385.032 282.501 392.334 278.087C399.637 273.669 404.098 264.313 399.884 256.661C395.669 249.006 385.707 248.379 378.405 252.796C371.104 257.214 366.641 266.564 370.856 274.218ZM382.23 259.74C386.765 256.993 391.641 256.198 393.899 260.284C396.15 264.373 393.047 268.401 388.513 271.144C383.979 273.892 379.093 274.687 376.845 270.598C374.589 266.511 377.692 262.478 382.23 259.74Z" fill="#F5C03E"/>
<path d="M386.353 314.866L393.164 313.088L390.506 301.9L414.185 295.72L412.36 288.047L381.874 296.012L386.353 314.866Z" fill="#F5C03E"/>
<path d="M121.718 386.03C129.636 383.677 134.824 375.306 132.837 366.946L130.278 356.186L99.7792 364.151L102.342 374.91C104.404 383.592 113.498 388.456 121.718 386.03ZM109.152 373.133L108.418 370.042L125.291 365.635L126.024 368.723C127.053 373.038 123.945 377.017 119.872 378.254C115.536 379.555 110.243 377.709 109.152 373.133Z" fill="#F5C03E"/>
<path d="M144.324 410.5L150.469 406.936L141.603 390.178L114.114 406.139L123.232 423.378L129.372 419.813L123.911 409.487L129.134 406.459L133.575 414.859L139.715 411.296L135.273 402.892L139.119 400.658L144.324 410.5Z" fill="#F5C03E"/>
<path d="M174.802 432.314L168.113 426.842L148.766 452.787L156.072 458.769C161.189 462.963 167.853 464.102 171.528 459.169C173.788 456.141 173.457 452.393 171.477 449.164C174.543 449.868 177.365 449.112 179.304 446.52C182.688 441.981 179.546 436.202 174.802 432.314ZM166.029 453.622C164.674 455.439 162.497 454.7 159.98 452.64L159.029 451.862L162.707 446.929L163.655 447.709C166.335 449.903 167.35 451.849 166.029 453.622ZM172.315 442.961C171.346 444.257 169.921 444.207 167.609 442.313L166.703 441.57L169.736 437.503L170.6 438.216C172.916 440.108 173.284 441.659 172.315 442.961Z" fill="#F5C03E"/>
<path d="M178.95 473.983L185.158 478.801L189.508 473.565L198.6 477.803L197.791 484.695L205.362 486.306L207.605 452.028L201.763 449.306L178.95 473.983ZM199.493 470.17L194.327 467.76L200.697 460.042L199.493 470.17Z" fill="#F5C03E"/>
<path d="M244.24 472.505C245.222 465.999 239.883 460.613 233.68 459.582L225.036 458.146L220.124 490.667L227.573 491.908L229.193 481.172L230.333 481.362L237.341 494.639L244.429 492.318L237.671 480.529C241.271 479.179 243.703 476.082 244.24 472.505ZM236.686 471.252C236.334 473.583 233.709 474.477 231.481 474.108L230.294 473.91L231.388 466.648L232.576 466.846C236.045 467.422 237.039 468.92 236.686 471.252Z" fill="#F5C03E"/>
<path d="M269.866 488.104C265.4 488.104 263.479 482.906 263.164 478.254C262.858 473.6 264.078 468.34 268.487 467.521C271.137 467.047 273.285 467.773 275.097 469.783L279.311 464.415C276.04 461.079 272.605 459.954 268.004 460.289C260.115 460.868 254.96 470.103 255.539 478.81C256.123 487.511 262.041 495.936 270.344 495.33C274.946 494.995 278.196 493.379 280.994 489.601L276.074 484.35C274.765 486.812 272.593 488.071 269.866 488.104Z" fill="#F5C03E"/>
<path d="M301.998 480.853L300.252 474.868L309.023 472.062L306.967 465.029L298.201 467.836L296.913 463.43L307.181 460.141L305.13 453.107L287.65 458.706L296.842 490.195L314.823 484.437L312.772 477.404L301.998 480.853Z" fill="#F5C03E"/>
<path d="M345.335 426.074C339.27 432.21 341.104 442.489 346.963 448.843C352.818 455.197 362.565 457.469 368.629 451.331C374.695 445.198 372.861 434.916 367.007 428.561C361.142 422.209 351.399 419.935 345.335 426.074ZM363.822 446.124C360.585 449.4 356.101 447.223 352.456 443.277C348.819 439.328 346.899 434.559 350.138 431.28C353.38 428.005 357.863 430.182 361.503 434.128C365.14 438.074 367.065 442.844 363.822 446.124Z" fill="#F5C03E"/>
<path d="M334.963 466.274L323.122 443.906L316.529 447.735L331.771 476.533L347.986 467.121L344.58 460.685L334.963 466.274Z" fill="#F5C03E"/>
<path d="M408.745 365.936L415.352 365.329L415.276 357.235L382.805 362.067L381.472 368.614L409.267 386.865L412.475 379.499L406.673 376.133L408.745 365.936ZM400.253 372.405L391.722 367.477L401.431 366.609L400.253 372.405Z" fill="#F5C03E"/>
<path d="M366.712 402.316L363.059 409.225L390.551 425.186L394.209 418.275L378.628 409.229L399.438 408.388L403.093 401.478L375.603 385.516L371.942 392.424L387.524 401.473L366.712 402.316Z" fill="#F5C03E"/>
<path d="M130.542 304.812L120.434 302.368L120.69 301.195L133.827 294.793L132.103 287.227L120.409 293.463C119.373 289.611 116.592 286.854 113.221 286.039C107.098 284.559 101.599 289.761 100.186 296.178L98.2193 305.107L128.845 312.513L130.542 304.812ZM113.862 299.486L113.594 300.713L106.749 299.061L107.026 297.829C107.814 294.247 109.311 293.315 111.505 293.847C113.698 294.377 114.37 297.185 113.862 299.486Z" fill="#F5C03E"/>
<path d="M297.681 226.792L151.029 380.322C154.214 387.835 158.173 394.939 162.8 401.538L319.367 237.634C312.588 233.295 305.326 229.651 297.681 226.792Z" fill="white"/>
<path d="M142.412 324.188L241.338 220.625C188.711 227.928 147.43 270.77 142.412 324.188Z" fill="white"/>
<path d="M351.84 268.787L195.283 432.687C202.056 437.02 209.312 440.66 216.95 443.516L363.602 289.991C360.419 282.483 356.464 275.383 351.84 268.787Z" fill="white"/>
<path d="M372.22 346.119L273.296 449.683C325.924 442.381 367.205 399.539 372.22 346.119Z" fill="white"/>
<path d="M319.367 237.634L162.8 401.538C171.483 413.925 182.528 424.528 195.283 432.687L351.84 268.787C343.16 256.4 332.119 245.795 319.367 237.634Z" fill="#1E6BC0"/>
<path d="M372.739 335.158C372.739 319.131 369.484 303.868 363.601 289.991L216.95 443.516C229.515 448.216 243.116 450.791 257.318 450.791C262.741 450.791 268.072 450.407 273.296 449.682L372.22 346.119C372.559 342.51 372.739 338.855 372.739 335.158Z" fill="#1E6BC0"/>
<path d="M257.318 219.517C251.895 219.517 246.562 219.9 241.339 220.625L142.412 324.188C142.073 327.799 141.892 331.457 141.892 335.159C141.892 351.184 145.148 366.447 151.029 380.322L297.681 226.792C285.116 222.092 271.518 219.517 257.318 219.517Z" fill="#1E6BC0"/>
</g>
</g>
<defs>
<clipPath id="clip0_2008_40">
<rect width="512" height="512" fill="white"/>
</clipPath>
<clipPath id="clip1_2008_40">
<rect width="351.752" height="512" fill="white" transform="translate(80.4424 -0.302673)"/>
</clipPath>
</defs>
</svg>
