<svg width="512" height="512" viewBox="0 0 512 512" fill="none" xmlns="http://www.w3.org/2000/svg">
<g clip-path="url(#clip0_1_3308)">
<path d="M258.97 73.9338L255.997 71.6405V70.8751L255.404 71.2143L254.98 70.9599V71.5535L252.007 73.8468C240.625 83.6997 161.039 93.1276 150.337 93.1276C117.721 93.1276 87.5684 86.7573 62.9366 75.8854C42.6365 107.907 30.8304 146.298 30.8304 187.578C30.8304 283.132 95.9772 364.672 181.594 386.161C181.594 386.161 239.436 411.217 254.98 435.425H256.084C271.543 411.302 329.385 386.246 329.385 386.246C414.917 364.757 480.149 283.302 480.149 187.748C480.149 146.383 468.342 107.992 447.957 75.9704C423.41 86.8423 393.258 93.2126 360.557 93.2126C349.855 93.2126 270.354 83.7845 258.972 73.9319" fill="white"/>
<path d="M254.638 436.021L254.464 435.767C239.346 412.239 183.372 387.607 181.419 386.758C160.269 381.407 140.139 372.404 121.538 360.003C103.361 347.857 87.2232 332.653 73.5482 315.071C59.8732 297.234 49.0863 277.359 41.6968 256.125C34.0523 234.126 30.1454 211.023 30.1454 187.58C30.1454 147.49 41.272 108.758 62.4214 75.5481L62.6758 75.0393L63.2694 75.2937C88.6657 86.5053 118.818 92.451 150.33 92.451C161.287 92.451 240.363 83.1078 251.575 73.3402L254.378 71.3029V69.6894L255.398 70.4527L256.587 69.5177V71.3855L259.39 73.5099C270.602 83.1927 349.679 92.6206 360.635 92.6206C392.147 92.6206 422.3 86.6752 447.696 75.3786L448.205 75.1241L448.544 75.6329C469.609 108.843 480.735 147.66 480.735 187.75C480.735 211.108 476.913 234.211 469.269 256.209C461.879 277.529 451.092 297.319 437.333 315.156C423.743 332.823 407.604 347.942 389.343 360.088C370.827 372.573 350.696 381.492 329.547 386.843C327.592 387.693 271.535 412.409 256.671 435.767L256.417 436.021H254.638ZM63.19 76.6519C42.4652 109.607 31.4235 147.914 31.4235 187.58C31.4235 210.938 35.3306 233.786 42.8899 255.699C50.2796 276.849 60.9815 296.554 74.5714 314.306C102.006 349.725 140.058 375.036 181.762 385.483L181.849 385.57C182.023 385.57 196.543 391.941 212.766 401.114C234.425 413.345 248.78 424.726 255.32 434.749H255.744C262.284 424.726 276.553 413.43 298.212 401.199C314.435 392.026 328.96 385.74 329.045 385.655H329.218C370.923 375.123 408.974 349.812 436.324 314.393C449.999 296.641 460.701 276.936 468.006 255.786C475.65 233.873 479.472 211.025 479.472 187.752C479.472 148.086 468.515 109.694 447.706 76.8236C422.225 87.9504 392.157 93.8961 360.645 93.8961C355.294 93.8961 332.871 91.6028 309.938 87.9505C289.977 84.8078 264.836 79.8815 258.551 74.4455L255.408 72.0672L252.435 74.3605C246.15 79.7115 221.008 84.638 201.048 87.8654C178.115 91.433 155.692 93.8111 150.341 93.8111C118.829 93.8111 88.7613 87.8655 63.1952 76.6539" fill="white"/>
<path d="M330.402 85.5703L362.424 87.0141L320.04 162.184L359.281 150.462L254.468 334.012L243.087 296.894L207.244 360.087L219.559 368.156L198.58 375.291L198.156 376.056L197.732 375.547L174.289 383.532L172.167 336.816L183.378 344.291L248.101 230.985L259.482 268.442L302.206 192.508L263.049 204.654" fill="#E3351C"/>
<path d="M346.88 336.475L340.595 353.038C339.49 355.84 338.642 357.794 337.962 358.728L335.753 360.172L333.716 358.983C333.292 358.474 332.442 356.69 330.998 353.547C329.639 350.404 328.535 347.601 327.6 345.223L320.636 326.877C319.701 324.328 318.683 323.054 317.663 323.054C316.558 323.054 315.965 324.159 315.795 326.282C315.541 331.208 315.456 335.625 315.456 339.787C315.456 344.034 315.63 346.922 315.965 348.451L316.9 350.488C317.324 350.912 318.428 351.593 320.212 352.696C321.402 353.375 321.995 354.651 321.995 356.349C321.995 360.935 316.984 363.229 306.876 363.229C298.383 363.229 294.136 361.02 294.136 356.518C294.136 355.414 294.39 354.566 294.814 354.055C295.238 353.547 296.343 352.696 298.212 351.677C299.401 351.081 300.164 350.233 300.505 349.214C300.929 348.109 301.27 345.986 301.61 342.929C301.864 339.616 302.203 334.265 302.46 326.706C302.714 319.231 302.884 312.776 302.884 307.425C302.884 300.63 302.46 296.128 301.61 293.75L300.505 291.882C300.081 291.458 299.316 290.947 298.212 290.269C295.748 288.91 294.474 287.041 294.474 284.833C294.474 283.389 294.899 282.115 295.833 280.841C296.768 279.651 298.042 278.803 299.571 278.377C301.099 277.784 303.138 277.358 305.771 277.018C308.319 276.594 310.528 276.425 312.311 276.34C316.813 276.34 319.956 276.764 321.824 277.699L323.949 279.312C324.457 280.078 325.223 281.437 326.242 283.644L337.199 307.342C338.388 309.975 339.152 311.504 339.662 312.098L341.53 312.948L343.398 312.013C343.906 311.417 344.587 310.23 345.265 308.531L352.74 291.543L354.523 287.296C356.221 283.22 357.92 280.416 359.619 279.143C360.978 277.953 363.017 277.19 365.82 276.764C367.433 278.632 369.217 280.332 370.916 282.795C375.587 289.42 375.503 299.442 379.325 304.539C379.07 308.276 378.985 312.353 378.985 316.94C378.985 327.387 379.409 336.645 380.26 344.544C380.434 346.499 380.769 347.772 381.195 348.451C381.619 349.217 382.808 350.234 384.592 351.679C385.866 352.614 386.46 353.972 386.46 355.586C386.46 358.474 384.847 360.512 381.619 361.701C379.92 362.38 378.136 362.806 376.268 362.976C374.4 363.23 371.596 363.315 367.689 363.315C361.743 363.315 357.412 362.806 354.439 361.871C351.211 360.766 349.597 358.813 349.597 356.18C349.597 355.16 349.852 354.397 350.276 353.717C350.7 353.121 351.719 351.934 353.503 350.234C354.438 349.384 355.032 347.686 355.371 345.223C355.71 342.76 355.88 338.513 355.88 332.653C355.88 329.34 355.706 327.132 355.456 326.112C355.202 325.093 354.693 324.584 353.843 324.584C352.823 324.584 351.89 325.349 351.04 326.962C350.105 328.576 348.746 331.719 346.878 336.475" fill="black"/>
<path d="M367.69 366.033C361.404 366.033 356.818 365.439 353.59 364.335C347.814 362.38 346.965 358.389 346.965 356.181C346.965 354.652 347.304 353.293 347.985 352.273C348.409 351.68 349.174 350.66 351.637 348.281C351.724 348.194 352.403 347.603 352.742 344.884C352.996 342.506 353.251 338.344 353.251 332.568C353.251 330.785 353.164 329.595 353.077 328.661C352.483 329.85 351.294 332.313 349.424 337.409L343.054 354.057C341.865 357.115 340.93 359.068 340.166 360.258C338.638 362.38 336.939 362.806 335.749 362.806C334.645 362.806 332.947 362.466 331.588 360.597C331.164 360.088 330.483 358.984 328.53 354.652C327.171 351.424 325.982 348.621 325.047 346.158L318.422 328.491C318.248 332.483 318.168 336.305 318.168 339.788C318.168 344.714 318.342 346.922 318.592 347.857L318.846 348.62C319.101 348.794 319.697 349.216 321.649 350.403C323.008 351.253 324.622 352.951 324.622 356.349C324.622 358.727 323.687 361.954 319.271 363.993C316.383 365.267 312.306 365.948 306.87 365.948C294.13 365.948 291.497 360.851 291.497 356.52C291.497 354.652 291.921 353.292 292.771 352.358C293.195 351.762 294.13 350.914 296.848 349.385H296.935L298.039 348.28V348.193C298.213 347.854 298.548 346.495 298.89 342.672C299.229 339.445 299.483 334.094 299.825 326.619C300.079 319.145 300.164 312.69 300.164 307.423C300.164 299.524 299.57 296.127 299.059 294.683L298.55 293.748C298.463 293.661 298.211 293.409 296.852 292.558C292.69 290.18 291.841 287.037 291.841 284.829C291.841 282.792 292.437 280.922 293.709 279.223C294.983 277.61 296.681 276.42 298.72 275.826C300.418 275.23 302.627 274.721 305.345 274.382C308.063 273.873 310.356 273.704 312.31 273.704C317.236 273.704 320.719 274.212 322.927 275.232C324.286 275.828 325.305 276.676 326.07 277.695C326.494 278.291 327.259 279.394 328.703 282.537L339.575 306.234C340.679 308.528 341.188 309.632 341.527 310.056C341.701 309.802 342.206 309.037 342.886 307.508L350.276 290.521L352.059 286.274C353.926 281.688 355.881 278.715 357.919 277.016C359.702 275.572 362.081 274.638 365.394 274.128L366.838 273.874L367.857 275.063L369.216 276.592C370.491 277.951 371.764 279.395 373.123 281.263C375.757 285.086 377.03 289.757 378.135 293.919C379.07 297.486 379.918 300.884 381.447 302.837L382.041 303.687L381.954 304.622C381.78 308.36 381.615 312.437 381.615 316.938C381.615 327.301 382.039 336.474 382.889 344.288C383.143 346.243 383.398 346.921 383.485 347.091C383.572 347.265 384.163 347.941 386.203 349.554C388.155 350.998 389.175 353.122 389.175 355.585C389.175 357.878 388.325 362.125 382.55 364.248C380.683 364.927 378.643 365.438 376.605 365.692C374.567 365.866 371.678 366.031 367.686 366.031M358.003 345.562C357.579 348.704 356.729 350.828 355.37 352.187C353.162 354.311 352.652 354.99 352.482 355.159V355.246L352.309 356.181C352.309 356.86 352.308 358.219 355.366 359.324C357.914 360.174 362.076 360.683 367.682 360.683C371.419 360.683 374.222 360.509 376.006 360.344C377.619 360.17 379.149 359.75 380.593 359.239L380.68 359.152C383.398 358.217 383.822 356.774 383.822 355.585L382.887 353.717C380.765 352.104 379.575 350.914 378.895 349.98V349.893C378.217 348.788 377.791 347.259 377.536 344.796C376.686 336.812 376.262 327.469 376.262 316.937C376.262 312.69 376.349 308.783 376.601 305.3C374.818 302.498 373.883 299.015 372.949 295.363C371.929 291.456 370.825 287.379 368.702 284.321C367.598 282.708 366.494 281.518 365.305 280.244L364.796 279.735C362.928 280.074 361.823 280.67 361.313 281.179C360.378 281.944 358.935 283.727 356.982 288.314L355.199 292.645L347.809 309.633C346.874 311.588 346.111 312.946 345.346 313.795C344.072 315.323 342.543 315.663 341.524 315.663C339.911 315.663 338.466 314.984 337.532 313.708C337.108 313.199 336.427 312.094 334.729 308.442L323.772 284.744C322.583 282.026 321.989 281.177 321.819 280.922L320.715 280.072C319.61 279.648 317.402 279.052 312.306 279.052C310.693 279.052 308.569 279.226 306.191 279.648H306.104C303.725 279.987 301.857 280.411 300.413 280.837V280.924C299.393 281.179 298.545 281.775 297.95 282.538L297.186 284.831C297.186 285.681 297.441 286.784 299.479 287.974H299.566C300.925 288.739 301.775 289.418 302.369 290.011C303.048 290.69 303.644 291.625 304.068 292.729V292.816C305.087 295.534 305.596 300.291 305.596 307.425C305.596 312.776 305.422 319.317 305.087 326.876C304.833 334.435 304.579 339.786 304.237 343.184C303.898 346.581 303.559 348.79 303.048 350.064C302.369 351.762 301.18 353.121 299.48 354.056C297.782 354.991 297.102 355.5 296.932 355.754L296.845 356.517C296.845 357.791 297.354 358.555 298.544 359.235C299.818 359.831 302.196 360.594 306.867 360.594C317.654 360.594 319.268 357.876 319.268 356.347C319.268 355.243 318.929 355.073 318.844 354.988C316.211 353.46 315.447 352.78 315.022 352.355L314.935 352.268C314.257 351.59 313.746 350.57 313.406 349.211V349.037C312.982 347.339 312.728 344.365 312.728 339.779C312.728 335.617 312.902 331.03 313.152 326.189C313.406 320.923 316.38 320.328 317.654 320.328C321.051 320.328 322.58 324.405 323.175 325.934L330.054 344.28C330.989 346.659 332.092 349.377 333.452 352.434C334.896 355.747 335.489 356.851 335.745 357.191C336.084 356.767 336.765 355.408 338.124 352.095L344.409 335.447C346.277 330.521 347.637 327.293 348.656 325.594C350.099 323.131 351.798 321.857 353.837 321.857C356.3 321.857 357.574 323.725 358.084 325.424C358.258 326.275 358.508 327.888 358.508 332.559C358.508 338.674 358.334 342.921 357.999 345.554" fill="white"/>
<path fill-rule="evenodd" clip-rule="evenodd" d="M406.846 175.944C405.063 175.944 403.873 176.622 403.363 177.811C402.855 179.085 402.685 181.973 402.685 186.56C402.685 193.44 403.024 198.876 403.79 202.698C404.044 203.802 404.383 204.653 404.809 205.246C405.318 205.842 406.168 206.605 407.527 207.454C409.226 208.559 410.415 209.833 411.095 211.362L409.058 210.938V220.365C408.207 221.044 407.103 221.724 405.83 222.148C402.772 223.338 397.931 224.016 391.391 224.271L391.478 223.166C391.478 210.51 375.085 208.982 362.429 208.982H361.409C362.003 208.303 362.938 207.453 364.213 206.519C366.25 204.99 367.61 203.121 368.374 200.997C369.053 198.789 369.564 195.137 369.903 189.786C370.157 185.964 370.242 172.119 370.242 148.336C370.242 140.777 369.903 135.681 369.222 132.963C368.626 130.245 367.185 128.206 365.06 127.017C362.936 125.828 361.578 124.809 360.898 123.874C360.135 122.939 359.794 121.666 359.794 120.137C359.794 118.1 360.472 116.4 361.748 114.956C363.107 113.428 365.061 112.323 367.439 111.559C369.476 110.963 372.196 110.708 375.763 110.708C377.292 110.708 381.199 110.963 387.399 111.472C388.504 111.646 390.372 111.646 392.92 111.646C397.167 111.646 402.773 111.391 409.823 110.711C414.324 110.371 417.467 110.115 419.251 110.115C429.273 110.115 437.597 112.918 444.137 118.524C450.083 123.535 453.056 130.585 453.056 139.588C453.056 144.514 452.036 149.101 449.998 153.263C447.874 157.34 445.072 160.398 441.419 162.436C439.891 163.286 439.211 164.304 439.211 165.579C439.211 167.107 440.316 168.382 442.609 169.401C447.535 171.438 451.187 174.582 453.481 178.744C455.774 182.906 457.388 189.361 458.407 197.94C458.831 201.592 459.427 203.885 460.275 204.99C461.038 206.009 462.908 207.027 465.796 207.962C466.73 208.302 467.494 209.067 468.089 210.087C468.682 211.191 469.024 212.295 469.024 213.654C469.024 215.268 468.43 217.052 467.326 218.751C466.136 220.449 464.693 221.808 462.909 222.742C459.936 224.356 456.029 225.375 451.358 225.715C451.951 224.102 452.293 222.403 452.293 220.449C452.293 212.295 441.675 210.681 433.521 210.681C429.784 210.681 426.641 211.105 423.669 211.36C423.245 210.34 422.818 209.238 422.479 208.132C421.205 204.31 419.761 198.365 418.148 190.295C417.043 185.114 415.599 181.547 413.901 179.423C412.287 177.301 409.909 176.111 406.851 175.941M402.774 134.407L401.924 153.433V154.111C401.924 156.064 402.178 157.424 402.689 158.018C403.198 158.697 404.218 159.038 405.662 159.038C409.824 159.038 412.796 157.764 414.75 155.386C416.618 152.838 417.553 148.931 417.553 143.495C417.553 132.962 414.325 127.696 407.87 127.696C406.002 127.696 404.727 128.205 403.963 129.225C403.285 130.16 402.859 131.944 402.774 134.407Z" fill="black"/>
<path d="M447.276 228.774L448.805 224.782C449.4 223.423 449.655 221.979 449.655 220.451C449.655 218.922 449.146 216.628 444.983 215.015C442.265 213.995 438.273 213.401 433.517 213.401C430.119 213.401 427.316 213.656 424.598 213.997L421.965 214.171L421.2 212.388C420.776 211.283 420.35 210.179 419.926 208.905C418.652 204.998 417.208 198.968 415.509 190.899C414.235 184.953 412.791 182.32 411.857 181.046C410.667 179.602 409.054 178.753 406.76 178.668L405.825 178.842C405.738 179.266 405.317 180.964 405.317 186.571C405.317 193.281 405.656 198.547 406.421 202.199L406.93 203.558C407.017 203.732 407.524 204.237 408.967 205.172C411.092 206.531 412.705 208.229 413.554 210.268L415.592 214.77L411.769 214.176V221.651L410.75 222.414C409.73 223.349 408.371 224.112 406.758 224.707C403.36 225.981 398.349 226.744 391.469 227L388.581 227.087L388.755 223.095C388.755 218.169 385.952 211.629 362.425 211.629L355.035 211.803L359.452 207.131C360.13 206.366 361.15 205.518 362.509 204.413C364.208 203.139 365.227 201.78 365.822 200.166C366.246 198.807 366.842 195.919 367.181 189.719C367.435 185.897 367.52 172.052 367.52 148.355C367.52 139.266 367.096 135.274 366.67 133.576C366.161 131.621 365.226 130.263 363.697 129.329C361.234 127.97 359.705 126.781 358.771 125.591L358.684 125.504C357.664 124.061 357.155 122.277 357.155 120.153C357.155 117.521 358.006 115.142 359.788 113.189C361.487 111.321 363.78 109.876 366.668 109.027C368.962 108.348 371.934 108.007 375.757 108.007C377.37 108.007 381.277 108.261 387.563 108.857C388.668 108.944 390.451 109.031 392.914 109.031C397.076 109.031 402.682 108.692 409.561 108.011C414.148 107.672 417.376 107.502 419.244 107.502C429.862 107.502 438.865 110.475 445.915 116.506C452.455 122.112 455.767 129.841 455.767 139.609C455.767 144.96 454.578 149.971 452.37 154.473C450.077 158.974 446.764 162.457 442.772 164.835L441.837 165.598C441.837 165.853 442.431 166.364 443.705 166.957C449.141 169.251 453.218 172.733 455.851 177.49C458.314 181.991 460.013 188.616 461.032 197.705C461.541 201.952 462.221 203.141 462.391 203.395C462.565 203.569 463.326 204.415 466.638 205.52H466.725C468.253 206.029 469.443 207.133 470.377 208.832C471.227 210.276 471.651 211.89 471.651 213.674C471.651 215.882 470.973 218.091 469.529 220.214V220.301C468.17 222.338 466.386 223.953 464.178 225.142C460.865 226.925 456.619 228.03 451.522 228.455L447.276 228.774ZM433.516 208.05C438.952 208.05 443.539 208.728 446.936 210.002C450.588 211.446 455.005 214.419 455.005 220.45L454.831 222.574C457.549 222.15 459.842 221.385 461.626 220.365C463.07 219.602 464.174 218.582 465.024 217.308C465.874 216.034 466.298 214.76 466.298 213.656L465.789 211.447H465.702L464.937 210.512C461.369 209.323 459.246 208.134 458.142 206.605H458.055C456.95 205.076 456.272 202.528 455.761 198.281C454.826 190.042 453.213 183.927 451.09 180.02C449.137 176.368 445.994 173.734 441.577 171.866C437.33 170.083 436.481 167.449 436.481 165.58C436.481 164.052 437.075 161.843 440.048 160.144C443.276 158.277 445.739 155.643 447.523 151.99C449.39 148.338 450.325 144.091 450.325 139.59C450.325 131.351 447.778 125.15 442.426 120.564C436.396 115.383 428.582 112.834 419.239 112.834C417.456 112.834 414.397 113.008 410.065 113.343C403.015 114.022 397.24 114.363 392.908 114.363C390.275 114.363 388.406 114.276 387.132 114.189C381.017 113.595 377.195 113.339 375.751 113.339C372.438 113.339 369.89 113.593 368.191 114.189C366.239 114.698 364.794 115.633 363.775 116.737C362.924 117.672 362.5 118.775 362.5 120.135L363.009 122.343C363.264 122.597 364.029 123.363 366.322 124.636V124.723C369.21 126.337 370.993 128.885 371.843 132.283C372.521 135.255 372.947 140.522 372.947 148.336C372.947 172.458 372.773 186.048 372.523 189.955C372.269 195.561 371.673 199.468 370.825 201.846C370.316 203.544 369.466 204.989 368.277 206.433C372.864 206.607 378.045 207.283 382.547 208.726C387.473 210.509 393.249 214.077 394.013 221.467C398.855 221.128 402.507 220.532 404.885 219.684L406.414 218.921V209.917L406.075 209.663C404.461 208.643 403.357 207.708 402.762 206.86C401.996 205.925 401.488 204.736 401.148 203.293V203.206C400.383 199.129 399.959 193.693 399.959 186.558C399.959 180.103 400.468 177.979 400.894 176.875V176.788C401.403 175.514 402.931 173.306 406.839 173.306H406.926C410.834 173.479 413.891 175.004 416.015 177.722C417.967 180.186 419.497 184.177 420.686 189.783C422.384 197.683 423.829 203.543 425.018 207.28L425.442 208.47C427.905 208.215 430.453 208.046 433.511 208.046" fill="white"/>
<path d="M405.657 161.674C403.363 161.674 401.58 160.996 400.56 159.719L400.473 159.632C399.623 158.443 399.284 156.744 399.284 154.111V153.261L400.049 134.32C400.136 131.177 400.728 129.054 401.917 127.525C403.107 125.912 405.145 125.062 407.863 125.062C413.469 125.062 420.179 128.204 420.179 143.493C420.179 149.524 419.074 153.941 416.866 156.998C414.403 160.141 410.666 161.67 405.655 161.67M404.804 156.234L405.655 156.321C408.967 156.321 411.26 155.471 412.619 153.688C414.063 151.733 414.828 148.252 414.828 143.495C414.828 130.415 409.732 130.415 407.863 130.415C406.843 130.415 406.25 130.67 406.08 130.839C405.993 130.926 405.486 131.774 405.401 134.491L404.636 153.432V154.111C404.636 155.3 404.723 155.979 404.81 156.235" fill="white"/>
<path d="M434.875 232.512L401.58 295.28C399.542 299.187 397.588 301.82 395.719 303.349C393.936 304.793 391.642 305.474 388.839 305.474C386.461 305.474 384.422 305.05 382.554 304.115C381.11 303.349 380.006 302.501 379.241 301.566C378.478 300.631 377.458 298.848 376.268 296.3L346.625 235.485C344.927 232.003 343.483 229.709 342.124 228.52C340.765 227.246 338.896 226.398 336.433 225.972C333.545 225.463 332.101 223.848 332.101 220.961C332.101 217.478 334.649 214.846 339.746 212.977C344.757 211.109 352.061 210.174 361.574 210.174C371.427 210.174 378.647 210.852 383.318 212.298C387.905 213.657 390.198 215.866 390.198 218.754C390.198 220.621 389.009 222.406 386.461 224.019C384.508 225.294 383.573 226.398 383.573 227.502C383.573 228.437 383.997 229.88 384.847 231.749L393.935 250.775C395.209 253.578 396.738 254.937 398.352 254.937C399.965 254.937 401.41 254.258 402.684 252.728C403.873 251.285 405.572 248.312 407.695 243.98C411.517 236.166 413.726 231.494 414.405 230.135C414.999 228.691 415.34 227.587 415.34 226.822C415.34 225.294 414.236 223.935 411.943 222.915C409.395 221.641 408.121 220.113 408.121 218.244C408.121 212.893 415.85 210.175 431.308 210.175C438.953 210.175 444.389 210.77 447.531 211.958C450.674 213.062 452.288 215.015 452.288 217.818C452.288 221.131 450.25 223.084 446.087 223.594C443.115 223.848 441.246 224.359 440.312 224.868C438.783 225.973 436.998 228.519 434.875 232.512Z" fill="#171405"/>
<path d="M388.839 308.191C386.036 308.191 383.573 307.595 381.365 306.492C379.582 305.558 378.222 304.54 377.203 303.35L377.116 303.263C376.181 302.073 375.161 300.205 373.803 297.487L344.16 236.587C342.292 232.765 341.017 231.151 340.338 230.472L340.251 230.385C339.316 229.535 337.873 228.941 336.004 228.602C331.842 227.923 329.379 225.119 329.379 220.957C329.379 217.73 331.077 213.313 338.807 210.51C344.158 208.473 351.632 207.537 361.57 207.537C371.763 207.537 379.152 208.216 384.078 209.746C388.07 210.935 392.912 213.483 392.912 218.749C392.912 221.637 391.214 224.1 387.901 226.308C386.796 226.987 386.372 227.498 386.287 227.667C386.287 228.007 386.461 228.857 387.307 230.555L396.395 249.581C397.415 251.79 398.178 252.299 398.348 252.299C398.857 252.299 399.622 252.125 400.641 251.025C401.32 250.09 402.766 247.967 405.313 242.786C409.05 235.057 411.343 230.385 411.938 229.026C412.621 227.415 412.621 226.821 412.621 226.821C412.621 226.566 412.113 225.971 410.754 225.292C406.422 223.168 405.488 220.281 405.488 218.242C405.488 215.524 406.762 211.872 413.047 209.664C417.209 208.22 423.239 207.539 431.308 207.539C439.378 207.539 444.983 208.133 448.466 209.407C450.929 210.257 455.006 212.55 455.006 217.816C455.006 220.194 454.156 222.233 452.543 223.677C451.099 225.036 449.06 225.885 446.427 226.225C442.775 226.649 441.926 227.075 441.841 227.16C441.332 227.499 439.803 228.858 437.169 233.785L403.959 296.553C401.75 300.8 399.627 303.688 397.419 305.387V305.474C395.125 307.257 392.152 308.191 388.839 308.191ZM381.28 299.868C381.876 300.546 382.724 301.142 383.744 301.736C385.272 302.414 386.886 302.84 388.84 302.84C390.964 302.84 392.747 302.331 394.106 301.227C395.126 300.377 396.909 298.424 399.202 294.092L432.498 231.324C434.876 226.737 436.914 224.019 438.868 222.66C440.142 221.81 442.265 221.301 445.833 220.877C449.655 220.453 449.655 218.755 449.655 217.819C449.655 216.715 449.231 215.356 446.597 214.422C444.645 213.743 440.397 212.809 431.308 212.809C418.483 212.896 410.839 214.846 410.839 218.245C410.839 219.008 411.604 219.773 413.047 220.453C417.124 222.405 417.973 224.954 417.973 226.823C417.973 228.013 417.634 229.371 416.869 231.155V231.242C416.19 232.601 413.981 237.188 410.159 245.172C407.865 249.758 406.082 252.816 404.723 254.43C402.515 257.063 400.051 257.658 398.352 257.658C395.634 257.658 393.341 255.703 391.557 251.967L382.469 232.856C381.365 230.648 380.941 228.864 380.941 227.505C380.941 224.362 383.998 222.408 385.018 221.729C386.207 221.051 387.566 219.861 387.566 218.756C387.566 217.143 385.868 215.868 382.554 214.849C378.138 213.49 371.088 212.812 361.575 212.812C352.402 212.812 345.437 213.747 340.68 215.53C334.82 217.652 334.82 220.201 334.82 220.966C334.82 222.325 335.074 223.088 336.857 223.344C339.915 223.853 342.208 224.957 343.907 226.572C345.52 228.015 347.219 230.564 349.003 234.301L378.646 295.116C380.005 298.004 380.854 299.278 381.279 299.872" fill="white"/>
<path d="M258.97 73.9338L255.997 71.6404V70.8751L255.404 71.2143L254.98 70.9599V71.5535L252.007 73.8468C240.625 83.6996 161.039 93.1276 150.337 93.1276C117.721 93.1276 87.5684 86.7573 62.9367 75.8853C42.6366 107.907 30.8305 146.298 30.8305 187.578C30.8305 283.132 95.9772 364.672 181.594 386.161C181.594 386.161 239.436 411.217 254.98 435.425H256.084C271.543 411.302 329.385 386.246 329.385 386.246C414.917 364.757 480.149 283.302 480.149 187.748C480.149 146.383 468.342 107.992 447.957 75.9703C423.41 86.8423 393.258 93.2126 360.557 93.2126C349.855 93.2126 270.354 83.7844 258.972 73.9318M255.999 29.085C277.064 47.4314 314.011 59.7474 356.055 59.7474C395.551 59.7474 430.545 48.8755 451.949 32.2277C489.407 73.762 512 127.357 512 185.879C512 300.969 426.723 385.312 310.699 428.969C287.596 437.633 261.35 476.025 256.424 482.735V483.669L256 483.246L255.661 483.669V482.735C250.735 476.025 224.489 437.633 201.386 428.969C85.3619 385.312 0 300.969 0 185.879C0 127.357 22.5932 73.762 60.1354 32.2277C81.5397 48.8755 116.534 59.7474 156.03 59.7474C198.073 59.7474 235.021 47.4315 255.916 29L255.999 29.085Z" fill="#BFAE30"/>
<path d="M95.7208 142.988V253.916L100.987 259.692L113.728 261.39L128.252 259.268L134.962 261.731L142.012 266.317L149.486 261.051L163.586 260.373L173.099 262.071L184.48 258.589L187.623 245.508V142.989" fill="#E3351C"/>
<path d="M141.502 146.895H99.0334V213.655L99.1203 252.642C100.055 255.275 100.564 256.804 102.943 257.908C114.069 263.089 127.999 251.622 138.871 260.541C140.145 261.561 140.824 262.239 141.929 263.344C143.033 262.239 143.712 261.561 144.987 260.541C155.858 251.622 169.788 263.089 180.915 257.908C183.293 256.803 183.803 255.275 184.737 252.642L184.824 213.655V146.895M142.016 101.283V101.457C143.12 102.308 143.799 102.816 145.073 103.582C147.198 104.941 149.66 104.175 151.019 106.3C152.208 108.168 152.802 110.122 151.528 111.821C150.849 112.756 150.169 113.434 148.98 113.434C147.536 113.434 147.705 111.141 146.262 110.716C143.374 109.951 143.713 115.557 144.903 118.275C146.262 121.248 151.613 125.325 152.462 122.098C152.801 120.739 151.612 119.975 151.866 118.53C152.29 116.237 153.734 114.198 156.113 114.283C157.218 114.371 157.896 114.707 158.661 115.388L159.851 116.832L160.275 119.04C160.275 120.569 159.851 121.588 158.746 122.607C160.87 123.542 162.738 123.458 164.777 122.353C166.56 121.418 167.58 120.4 168.089 118.446L168.344 116.578L167.92 115.389L166.9 114.115L165.88 113.941C164.351 113.767 163.077 114.791 161.973 113.686C160.953 112.582 160.953 110.883 161.973 109.694C163.671 107.742 166.305 108.505 169.023 107.486C170.806 106.721 171.741 106.297 173.44 105.362C174.544 107.145 174.459 108.674 176.412 109.778C178.537 110.968 180.829 112.242 181.084 114.96C181.171 115.979 181.258 116.743 180.66 117.593C179.981 118.612 179.046 119.291 177.857 118.951L176.413 117.508L175.904 116.742L174.8 115.723L173.525 116.742L172.675 118.356L172.251 120.478C172.251 121.667 172.506 122.433 173.186 123.451C174.63 125.744 176.754 126.763 179.302 126.424C178.708 125.065 178.708 123.96 179.302 122.601C179.811 121.582 180.322 120.988 181.339 120.564L183.632 120.39L185.076 120.984L186.011 122.343C186.605 123.532 186.52 124.38 186.266 125.655C185.926 127.184 185.502 128.119 184.398 129.138C186.52 130.666 188.814 130.836 191.193 129.562C193.656 128.203 197.053 124.211 194.505 123.107L193.401 122.852C192.127 122.598 191.022 123.872 190.003 122.939C188.899 122.004 189.664 120.561 190.177 119.202C191.536 115.38 196.378 118.182 200.2 116.908L202.578 116.058L191.026 140.69V253.656C190.263 255.611 189.667 256.714 188.563 258.498C179.305 273.447 156.372 254.761 144.311 267.671C143.291 268.691 142.783 269.285 141.933 270.389C141.083 269.285 140.489 268.691 139.555 267.671C127.494 254.761 104.56 273.447 95.3023 258.498C94.1977 256.715 93.6041 255.61 92.8392 253.656V140.69L81.2877 116.058L83.6658 116.908C87.488 118.183 92.3295 115.38 93.6885 119.202C94.1973 120.561 94.9627 122.005 93.8624 122.939C92.8426 123.874 91.7402 122.6 90.4649 122.852L89.4451 123.107C86.8119 124.211 90.2105 128.203 92.6728 129.562C95.0509 130.836 97.3443 130.666 99.4678 129.138C98.3632 128.118 97.9392 127.185 97.6 125.655C97.3456 124.381 97.2608 123.531 97.8544 122.343L98.7894 120.984L100.233 120.39L102.526 120.564C103.546 120.988 104.055 121.584 104.564 122.601C105.158 123.96 105.158 125.065 104.564 126.424C107.112 126.763 109.32 125.745 110.679 123.451C111.358 122.431 111.614 121.668 111.614 120.478L111.19 118.356L110.34 116.742L109.066 115.723L107.961 116.742L107.537 117.508L106.009 118.951C104.819 119.291 103.884 118.612 103.206 117.593C102.612 116.742 102.697 115.979 102.782 114.96C103.036 112.242 105.33 110.967 107.453 109.778C109.408 108.674 109.321 107.145 110.426 105.362C112.124 106.297 113.059 106.721 114.843 107.486C117.561 108.506 120.194 107.74 121.893 109.694C122.913 110.884 122.997 112.582 121.893 113.686C120.788 114.791 119.514 113.773 117.986 113.941L116.966 114.115L115.946 115.389L115.607 116.578L115.781 118.446C116.289 120.401 117.309 121.419 119.093 122.353C121.218 123.458 123 123.542 125.124 122.607C124.019 121.588 123.595 120.57 123.595 119.04L124.019 116.832L125.208 115.388C126.059 114.71 126.652 114.368 127.757 114.283C130.135 114.196 131.579 116.236 132.003 118.53C132.258 119.974 131.068 120.739 131.41 122.098C132.26 125.325 137.61 121.247 138.969 118.275C140.243 115.557 140.498 109.952 137.61 110.716C136.166 111.14 136.336 113.434 134.892 113.434C133.703 113.434 133.024 112.756 132.344 111.821C131.07 110.123 131.665 108.168 132.853 106.3C134.212 104.175 136.675 104.941 138.798 103.582C140.073 102.816 140.751 102.308 141.856 101.457V101.283H142.016Z" fill="#BFAE30"/>
<path d="M101.242 141.629C107.017 135.853 123.071 131.691 141.927 131.691C160.783 131.691 176.836 135.853 182.611 141.629H101.242Z" fill="#171405"/>
<path d="M183.206 141.884H100.647L101.071 141.46C107.017 135.429 123.41 131.437 141.926 131.437C160.442 131.437 176.835 135.429 182.781 141.46L183.206 141.884ZM101.921 141.375H181.932C175.732 135.684 159.849 131.947 141.927 131.947C124.005 131.947 108.122 135.684 101.921 141.375Z" fill="#171405"/>
<path d="M167.068 157.682L165.964 159.55C164.52 162.522 163.67 164.391 163.839 167.619L163.926 169.062C164.776 171.95 168.853 167.534 170.891 165.495C172.165 164.136 173.099 163.54 174.204 162.098C173.438 163.965 172.845 165.495 172.249 167.024C170.975 170.252 170.975 169.912 170.212 172.29C169.618 174.243 171.74 174.243 175.393 172.464C176.412 172.04 179.894 169.831 180.574 167.028C181.763 173.143 178.621 178.749 172.76 180.958C171.74 181.297 171.061 181.466 169.957 181.553C167.919 181.893 166.729 181.727 164.691 181.553C163.247 181.466 162.482 181.379 161.038 181.214L145.07 204.147L179.13 249.334L177.093 251.202L142.778 207.034L111.776 252.136L109.398 250.523L140.909 205.081L121.544 176.627C119.419 178.326 118.146 179.175 115.853 180.534C112.625 182.489 110.757 183.422 107.359 184.866C105.322 183.083 104.301 181.639 103.452 179.175C103.028 177.816 102.858 176.967 102.858 175.523C102.771 174.503 102.858 173.825 103.113 172.805L104.557 173.74C105.916 174.419 106.765 174.929 108.294 174.76L108.888 174.586L109.227 172.293C109.314 170.679 109.227 169.83 109.053 168.3C110.073 168.724 110.581 169.066 111.601 169.575L112.875 170.425L114.743 170.934L115.678 169.575L115.852 168.131C115.852 166.602 115.678 165.753 115.089 164.309C117.126 165.753 120.015 168.386 121.034 166.177L121.289 164.817C121.463 163.034 121.376 162.015 120.865 160.316C122.224 161.251 123.158 161.675 124.772 161.844C125.792 162.018 126.555 162.353 127.49 161.931C129.442 160.996 129.018 157.77 127.316 156.326C129.353 156.75 130.458 157.261 132.242 158.363C134.535 159.722 135.724 160.826 137.168 163.12C136.064 164.733 135.301 165.583 133.941 167.112C132.836 168.301 132.158 168.895 130.968 170C128.59 172.122 127.146 173.312 124.598 175.181L143.114 201.851L158.657 179.343C158.318 177.899 158.064 177.049 157.722 175.605C157.383 173.907 157.044 172.972 156.959 171.274C156.872 169.575 156.959 168.556 157.468 166.857C158.997 161.93 162.055 158.958 167.066 157.684" fill="#171405"/>
<path d="M111.859 252.472L109.056 250.517L140.568 205.076L121.457 177.047C119.504 178.575 118.229 179.425 115.936 180.784C112.793 182.738 110.925 183.672 107.442 185.116H107.268L107.181 185.029C105.057 183.246 104.124 181.801 103.189 179.253C102.765 177.894 102.596 177.045 102.511 175.516C102.511 174.411 102.598 173.817 102.85 172.713L102.937 172.289L103.276 172.543L104.635 173.478L105.059 173.652C106.164 174.246 106.927 174.672 108.202 174.502L108.711 174.415L108.885 172.207C108.972 170.678 108.972 169.829 108.798 168.3L108.711 167.791L109.135 168.045C110.154 168.469 110.748 168.811 111.683 169.32L112.276 169.744L113.042 170.168L113.551 170.422L114.655 170.676L115.421 169.572V169.485L115.594 168.465V168.126C115.594 166.682 115.421 165.748 114.831 164.473L114.407 163.538L115.17 164.134L116.021 164.728C117.38 165.748 119.079 166.936 120.098 166.68L120.691 166.002L120.946 165.152L121.033 164.813C121.207 163.03 121.12 162.01 120.609 160.396L120.354 159.633L121.033 160.057C122.307 160.992 123.241 161.331 124.855 161.585L125.448 161.759L127.401 161.672L128.506 159.974C128.68 158.7 128.082 157.341 127.147 156.576L127.401 156.068C129.438 156.492 130.629 157.003 132.412 158.105C134.706 159.549 135.895 160.738 137.339 162.947L137.513 163.12L137.339 163.207C136.234 164.906 135.556 165.756 134.196 167.284C133.176 168.304 132.498 168.898 131.563 169.748L131.139 170.172C128.761 172.296 127.402 173.399 124.939 175.268L143.115 201.429L158.404 179.26C158.065 177.901 157.81 177.136 157.469 175.693L157.214 174.418C156.96 173.399 156.706 172.551 156.706 171.276C156.619 169.408 156.793 168.388 157.214 166.774C158.743 161.763 161.886 158.705 166.982 157.431L167.66 157.257L167.321 157.851L166.217 159.719C164.688 162.776 163.923 164.56 164.092 167.618V168.042L164.179 168.977L164.773 169.742C166.047 169.996 168.85 167.109 170.379 165.58L170.633 165.241L171.992 163.967L174.029 161.929L174.453 162.184C173.688 163.967 173.094 165.411 172.501 167.11C171.992 168.215 171.735 168.893 171.481 169.403C171.142 170.423 170.972 170.847 170.461 172.376L170.548 173.311C170.722 173.485 171.653 173.907 175.305 172.206C176.155 171.867 179.551 169.743 180.316 166.94H180.825C182.014 173.141 178.787 179.001 172.841 181.125C171.736 181.549 171.058 181.719 169.953 181.888C168.255 182.143 167.15 182.062 165.536 181.888H164.601C163.242 181.801 162.477 181.714 161.204 181.464L145.406 204.142L179.465 249.329L177.087 251.537L142.772 207.455L111.859 252.472ZM109.735 250.434L111.689 251.709L142.776 206.607L177.176 250.774L178.704 249.246L144.73 204.144L144.817 203.97L160.955 180.867L161.129 180.954C162.488 181.128 163.253 181.209 164.696 181.293L165.631 181.38C167.16 181.554 168.264 181.554 169.963 181.293C170.983 181.12 171.661 181.039 172.681 180.7C178.032 178.662 181.09 173.65 180.495 168.044C179.306 170.507 176.333 172.291 175.569 172.716C173.614 173.651 171.152 174.499 170.218 173.735L169.963 172.207C170.472 170.678 170.642 170.254 171.068 169.234C171.242 168.725 171.577 168.045 172.003 166.856C172.512 165.667 172.938 164.563 173.362 163.458L172.427 164.393L171.068 165.668L170.729 165.922C168.435 168.3 166.142 170.593 164.698 170.254L163.678 169.149L163.591 168.045V167.621C163.418 164.308 164.27 162.355 165.716 159.467L166.481 158.108C161.895 159.467 159.177 162.27 157.733 166.941C157.309 168.47 157.224 169.489 157.224 171.273C157.311 172.462 157.478 173.31 157.733 174.331L158.072 175.605C158.326 177.049 158.581 177.813 158.922 179.257L159.009 179.344L143.126 202.362L124.185 175.097L124.439 174.923C126.987 173.056 128.431 171.951 130.724 169.827L131.233 169.319C132.168 168.468 132.847 167.959 133.781 166.855C135.056 165.496 135.819 164.647 136.839 163.118C135.48 160.996 134.291 159.89 132.083 158.531C130.639 157.681 129.619 157.172 128.176 156.748C128.769 157.683 129.195 158.957 129.026 160.061C128.852 160.996 128.432 161.759 127.582 162.098L125.374 162.272L124.78 162.098C123.336 161.924 122.402 161.59 121.298 160.909C121.637 162.268 121.722 163.372 121.552 164.816L121.465 165.155L121.211 166.26L120.191 167.195C119.001 167.534 117.218 166.26 115.689 165.158L115.602 165.071C115.941 166.09 116.111 166.938 116.111 168.128V168.467L115.937 169.657V169.743L114.832 171.187L113.304 170.848L111.945 170.169L111.436 169.83L109.399 168.726C109.486 170 109.573 170.85 109.486 172.208L109.231 174.671L109.144 174.845H108.97L108.292 175.019C106.848 175.193 105.914 174.765 104.809 174.084L104.385 173.91L103.281 173.232L103.107 175.525C103.107 176.884 103.281 177.649 103.785 179.092C104.551 181.556 105.483 182.83 107.353 184.528C110.665 183.169 112.619 182.235 115.677 180.366C117.97 178.923 119.244 178.073 121.367 176.374L121.541 176.2L121.715 176.455L141.166 205.079L141.079 205.253L109.735 250.434Z" fill="#171405"/>
<path d="M62.7654 112.75C64.0396 112.663 64.8876 112.837 66.1629 113.089C70.5795 114.279 72.618 117.081 74.7415 121.158C76.0157 123.622 76.2701 125.235 76.6093 128.038C77.0333 132.03 76.5223 134.494 75.4199 138.401C74.5697 141.119 73.7217 142.563 72.6169 145.196C71.5123 147.744 70.6643 149.103 69.6441 151.651C69.1353 153.01 68.7091 153.773 68.4547 155.133C68.2003 156.238 68.1155 156.916 68.1155 158.106L69.9833 157.171C72.2766 155.982 73.3808 154.878 75.1644 153.009C76.8626 151.226 77.7974 150.121 78.9866 147.913C79.8368 146.215 80.176 145.28 80.6848 143.411C81.2784 141.289 81.5349 140.014 81.6198 137.721L83.0636 138.316C84.9314 139.421 85.4417 140.864 85.9514 142.988C86.7167 146.046 86.8015 147.999 85.9514 151.057C85.5274 152.755 85.0164 153.69 84.0835 155.304C83.0638 157.087 82.3006 158.106 80.9409 159.72C79.9211 160.995 79.2427 161.758 78.0531 162.948C76.4397 164.646 75.4201 165.411 73.8911 167.025C72.6169 168.384 71.8537 169.062 70.6637 170.422C69.6439 171.612 69.135 172.29 68.2853 173.565L68.4592 180.36C69.6486 179.851 70.4118 179.51 71.517 178.747C74.6597 176.879 76.0187 175.179 78.227 172.292C80.945 168.809 81.1998 166.091 83.3234 162.269L84.6823 159.891C85.5325 160.826 85.9565 161.504 86.5502 162.694C86.9742 163.629 87.059 164.222 87.2286 165.242C87.907 168.384 87.6526 170.423 86.5502 173.396C85.3608 176.453 83.9169 177.812 81.7086 180.106C80.3496 181.465 79.4153 182.06 78.0563 183.333C75.763 185.542 74.5738 186.816 72.3655 189.109C71.6023 190.044 71.0065 190.468 70.3281 191.402C69.2235 192.761 68.7147 193.611 68.0348 195.055L67.9478 203.378C69.222 202.443 69.9852 201.935 71.1753 200.83L73.5536 198.706C74.9126 197.262 75.5062 196.243 76.6112 194.544C77.2896 193.355 77.631 192.676 78.1398 191.486C79.414 188.599 79.838 186.815 79.9228 183.672C81.7058 184.351 82.6408 185.116 83.5752 186.645L84.5949 189.023C84.9342 189.958 85.019 190.552 85.1907 191.486C85.4451 193.1 85.4451 194.035 85.1038 195.648C84.6798 197.942 83.9992 199.216 82.6406 201.169C81.7056 202.528 80.9424 203.124 79.8376 204.482C78.3938 206.18 77.5443 207.115 76.1005 208.729C74.9959 210.003 74.4023 210.681 73.2975 211.871C72.2777 212.891 71.6841 213.4 70.7493 214.42C69.5599 215.779 68.6271 216.457 68.1163 218.157C67.5227 219.77 67.5227 220.875 67.9424 222.489C68.9622 221.469 69.5558 220.96 70.6604 220.025C71.5954 219.09 72.189 218.582 73.2084 217.732C74.2282 216.882 74.737 216.458 75.7565 215.608C77.5395 214.079 78.5595 213.485 80.2582 211.871C81.1084 210.936 81.702 210.427 82.4667 209.492C83.2299 208.557 83.6561 207.964 84.2497 206.944C85.1847 205.416 85.4391 204.396 86.2871 202.697L87.0503 201.169C88.1549 202.867 88.6637 203.972 89.0051 206.01C89.4291 207.963 89.4291 209.068 89.0921 211.021C89.0051 212.72 88.6681 213.654 87.9875 215.183C87.2243 216.712 86.4589 217.477 85.3545 218.751C82.9761 221.299 80.9377 221.978 78.1349 223.932C76.5215 225.036 75.4169 225.46 73.8878 226.735C72.8681 227.67 72.2744 228.263 71.3399 229.453L69.8113 231.577C69.1329 232.682 68.7067 233.36 68.1979 234.55C67.6891 235.909 67.4325 236.758 67.2629 238.202C67.1759 239.731 67.3499 240.58 67.6021 242.109C67.8565 243.214 68.0261 243.807 68.4523 244.827L69.3873 246.356C69.7265 245.082 69.9831 244.401 70.6615 243.213C71.6813 241.515 72.6141 240.835 73.8889 239.306C76.2673 236.503 77.5413 234.889 80.2593 232.341L82.6376 230.048C85.9501 226.65 87.4789 224.272 89.0079 219.77C90.1125 221.469 90.5365 222.573 91.0453 224.527C91.8955 227.924 91.8955 230.218 90.7909 233.53C89.6863 236.843 88.3278 238.541 85.6946 240.835L83.6572 242.279C81.1092 244.062 79.3253 244.487 76.8622 246.355C75.6728 247.29 74.9944 247.799 73.9744 248.819L72.1066 250.856V252.215C72.9568 255.697 74.6548 256.972 77.0331 259.35C78.7313 261.048 80.0057 261.813 81.9594 263.257C83.4032 264.277 84.3375 264.87 85.8666 265.805C87.48 266.825 88.4995 267.334 90.1982 268.183C93.0012 269.542 94.53 270.308 97.5028 271.241C99.3706 271.75 100.391 272.004 102.259 272.346C110.498 273.959 115.255 273.281 123.664 273.196C130.883 273.196 134.875 273.62 142.01 273.961C149.06 273.622 153.137 273.196 160.271 273.196C168.68 273.283 173.437 273.961 181.676 272.346C183.544 272.006 184.648 271.752 186.432 271.241C189.405 270.306 190.934 269.543 193.737 268.183C195.435 267.333 196.455 266.824 198.068 265.805C199.682 264.87 200.532 264.276 202.061 263.257C204.013 261.813 205.203 261.132 206.902 259.35C209.28 256.972 210.979 255.697 211.828 252.215L211.915 250.856L209.963 248.819C208.943 247.799 208.264 247.29 207.16 246.355C204.611 244.488 202.828 244.062 200.28 242.279L198.327 240.835C195.694 238.541 194.335 236.843 193.231 233.53C192.126 230.218 192.126 227.924 192.977 224.527C193.401 222.574 193.911 221.469 194.929 219.77C196.458 224.272 197.987 226.65 201.299 230.048L203.763 232.341C206.396 234.889 207.755 236.503 210.133 239.306C211.407 240.835 212.341 241.514 213.276 243.213C213.954 244.402 214.211 245.081 214.635 246.356L215.485 244.827C215.994 243.807 216.081 243.214 216.335 242.109C216.674 240.581 216.759 239.731 216.674 238.202C216.587 236.758 216.25 235.909 215.739 234.55C215.23 233.361 214.804 232.682 214.126 231.577L212.597 229.453C211.747 228.263 211.153 227.67 210.049 226.735C208.52 225.46 207.501 225.036 205.887 223.932C202.999 221.977 200.961 221.299 198.668 218.751C197.478 217.477 196.713 216.713 196.034 215.183C195.271 213.655 195.015 212.72 194.845 211.021C194.506 209.067 194.591 207.964 194.932 206.01C195.356 203.973 195.782 202.867 196.885 201.169L197.735 202.697C198.498 204.395 198.755 205.415 199.687 206.944C200.366 207.964 200.707 208.558 201.47 209.492C202.321 210.427 202.829 210.936 203.764 211.871C205.377 213.484 206.482 214.079 208.181 215.608C209.2 216.458 209.794 216.882 210.729 217.732C211.748 218.667 212.342 219.091 213.362 220.025C214.381 220.96 215.06 221.554 216.08 222.489C216.419 220.875 216.419 219.771 215.906 218.157C215.312 216.459 214.377 215.779 213.188 214.42C212.338 213.4 211.659 212.891 210.725 211.871C209.62 210.682 209.026 210.004 207.922 208.729C206.393 207.115 205.629 206.181 204.1 204.482C202.995 203.123 202.232 202.527 201.297 201.169C199.938 199.217 199.259 197.942 198.833 195.648C198.579 194.035 198.579 193.1 198.746 191.486C198.92 190.551 199.001 189.958 199.342 189.023L200.362 186.645C201.382 185.116 202.315 184.352 204.014 183.672C204.188 186.815 204.523 188.599 205.797 191.486C206.306 192.676 206.732 193.354 207.411 194.544C208.431 196.242 209.024 197.262 210.468 198.706L212.762 200.83C214.036 201.935 214.717 202.444 216.074 203.378L215.901 195.055C215.222 193.611 214.711 192.761 213.692 191.402C212.929 190.467 212.418 190.043 211.57 189.109C209.446 186.816 208.173 185.542 205.964 183.333C204.52 182.059 203.586 181.466 202.312 180.106C200.019 177.812 198.575 176.453 197.47 173.396C196.281 170.423 196.111 168.384 196.705 165.242C196.879 164.222 197.044 163.628 197.47 162.694C197.979 161.504 198.405 160.911 199.338 159.891L200.612 162.269C202.737 166.091 203.076 168.809 205.708 172.292C207.917 175.179 209.361 176.878 212.419 178.832C213.608 179.51 214.286 179.852 215.561 180.36L215.648 173.565C214.798 172.291 214.289 171.613 213.27 170.423C212.081 169.064 211.402 168.385 210.127 167.025C208.514 165.412 207.494 164.647 205.965 162.948C204.776 161.759 204.098 161.08 202.992 159.721C201.633 158.107 200.868 157.088 199.85 155.304C198.915 153.691 198.491 152.756 197.982 151.057C197.132 147.999 197.217 146.046 197.982 142.988C198.491 140.864 199.002 139.421 200.87 138.316L202.314 137.721C202.488 140.014 202.653 141.288 203.249 143.412C203.757 145.279 204.099 146.299 205.032 147.913C206.136 150.122 207.069 151.226 208.769 153.01C210.552 154.877 211.657 155.982 213.95 157.171L215.903 158.106C215.816 156.917 215.816 156.238 215.564 155.133C215.224 153.774 214.885 153.011 214.374 151.651C213.354 149.103 212.506 147.744 211.401 145.196C210.212 142.563 209.364 141.119 208.599 138.401C207.494 134.494 206.9 132.031 207.409 128.039C207.664 125.236 208.003 123.622 209.277 121.159C211.314 117.082 213.354 114.279 217.771 113.09C219.045 112.835 219.895 112.666 221.253 112.75C221.079 113.855 220.914 114.449 220.659 115.553C220.486 116.573 220.32 117.167 220.151 118.271C219.727 120.396 219.642 121.584 219.472 123.707C219.218 126.255 218.963 127.784 219.298 130.417C219.553 131.776 219.722 132.455 220.148 133.815C220.488 135.259 220.912 136.108 221.338 137.552C221.677 139.42 221.847 140.44 221.931 142.308C222.105 144.176 222.019 145.196 221.758 147.065C221.584 148.763 221.418 149.698 221.079 151.397L220.655 153.18C220.401 154.539 220.401 155.217 220.568 156.577L221.842 155.557L223.201 154.368L224.984 152.5C226.513 150.548 227.447 149.358 228.297 146.979C228.721 145.96 228.806 145.366 229.06 144.261C229.656 141.628 229.399 140.014 229.91 137.296L230.084 136.277C231.274 136.701 231.952 137.04 232.802 137.89C235.18 140.183 235.69 142.137 236.115 145.28C236.289 146.469 236.369 147.063 236.289 148.337C236.115 150.716 235.61 152.16 234.336 154.283C233.658 155.472 233.232 156.066 232.299 157.086L229.496 160.229L226.778 163.116L223.55 167.023L221.513 170.251L220.578 171.78L220.491 177.64L222.189 176.705C224.737 175.177 226.011 173.987 227.795 171.694C228.56 170.674 228.899 170.081 229.493 168.976C230.852 166.343 231.53 164.305 231.786 161.841L232.126 159.974C233.4 160.398 234.163 160.824 235.183 161.672C238.496 164.644 238.071 168.976 236.373 173.138C235.779 174.752 235.098 175.516 234.079 176.96C232.89 178.659 232.127 179.509 230.682 181.037L228.473 183.246C227.538 184.096 226.945 184.605 225.925 185.454L224.312 186.898C222.868 188.257 222.104 189.022 220.83 190.55L220.656 202.017C222.184 201.082 223.034 200.403 224.308 199.129L226.006 197.346C227.704 195.309 228.469 193.949 229.404 191.485C229.912 190.126 229.997 189.277 230.339 187.833C230.847 185.88 231.017 184.775 231.274 182.822L233.311 184.096C235.094 186.304 235.348 187.323 236.029 189.617C236.283 190.637 236.453 191.23 236.538 192.25C236.712 193.863 236.792 194.798 236.538 196.327C236.029 199.299 235.094 201.083 232.971 203.122L230.083 206.01L227.28 208.728L223.203 213.229L221.081 215.862L220.907 220.959L221.842 220.363C222.861 219.684 223.54 219.343 224.56 218.58C228.552 215.862 231.015 214.333 233.648 210.256C235.177 207.793 235.177 205.924 236.621 203.376L237.725 201.423C238.83 202.867 239.424 203.802 239.934 205.5C241.208 208.983 241.377 211.616 239.76 214.844C238.825 216.796 237.892 217.901 236.023 219.175L229.737 223.762C227.785 224.951 226.764 225.717 224.981 227.244L222.687 229.197C221.922 230.132 221.583 230.81 221.159 231.915L220.65 240.154L222.009 239.56L223.622 238.456C225.236 237.351 226.085 236.842 227.614 235.738C228.889 234.803 229.567 234.379 230.757 233.444C233.05 231.49 234.664 230.472 236.108 227.923C236.786 226.649 237.043 225.799 237.467 224.441L238.826 226.478C239.504 227.668 239.761 228.433 239.931 229.706C240.526 232.509 240.105 234.293 238.911 236.926C238.145 238.624 237.467 239.389 236.278 240.833C233.985 243.466 232.201 244.655 229.058 246.184C227.614 246.949 226.68 247.119 225.151 247.712C223.962 248.136 223.283 248.391 222.178 248.817L220.395 249.752L218.358 251.62C216.999 253.913 216.149 255.187 214.451 257.311C212.583 259.774 211.393 261.048 209.185 263.256C204.768 267.333 201.88 269.287 196.529 272.09C193.811 273.533 192.197 274.298 189.394 275.317C186.931 276.168 185.572 276.507 183.109 277.016C180.561 277.611 179.032 277.866 176.399 277.951C167.565 278.459 162.894 278.886 154.4 277.951L156.183 279.394C157.372 280.414 158.136 280.923 159.411 281.942C161.619 283.386 162.808 284.321 164.932 286.104C165.867 286.954 166.46 287.294 167.31 288.229C168.075 289.248 168.669 289.842 169.008 291.031C169.432 292.39 169.432 293.325 169.095 294.599C168.417 297.062 166.971 298.846 164.508 299.101C162.556 299.44 161.026 298.846 159.837 297.318C158.224 295.45 157.884 294.26 156.524 292.476C154.996 290.352 154.061 289.164 152.277 287.295C151.342 286.275 150.834 285.682 149.814 284.747C148.116 283.303 147.181 282.538 145.313 281.434L143.53 280.584L142.171 280.41H141.747L140.388 280.584L138.689 281.434C136.737 282.539 135.802 283.302 134.188 284.747C133.168 285.682 132.574 286.275 131.64 287.295C129.857 289.163 128.922 290.353 127.393 292.476C126.034 294.259 125.695 295.449 124.165 297.318C122.891 298.846 121.362 299.44 119.409 299.101C116.946 298.846 115.502 297.063 114.822 294.599C114.483 293.325 114.568 292.39 114.909 291.031C115.333 289.842 115.844 289.248 116.692 288.229C117.458 287.294 118.136 286.954 119.071 286.104C121.108 284.321 122.298 283.386 124.507 281.942C125.781 280.923 126.544 280.414 127.819 279.394L129.602 277.951C121.023 278.886 116.352 278.459 107.604 277.951C104.886 277.864 103.442 277.611 100.809 277.016C98.3452 276.507 96.9862 276.165 94.608 275.317C91.7202 274.298 90.1064 273.534 87.4732 272.09C82.1222 269.287 79.1494 267.333 74.8176 263.171C72.5243 261.049 71.3353 259.774 69.4666 257.311C67.8532 255.188 66.9185 253.913 65.5595 251.62L63.5221 249.752L61.8239 248.817C60.6345 248.393 59.9561 248.139 58.766 247.712C57.3222 247.117 56.3879 246.947 54.9439 246.184C51.8012 244.655 50.0176 243.466 47.6392 240.833C46.4498 239.389 45.7714 238.624 45.0062 236.926C43.9017 234.293 43.4777 232.509 43.9864 229.706C44.2409 228.432 44.4953 227.669 45.091 226.478L46.45 224.441C46.874 225.8 47.2132 226.649 47.8938 227.923C49.3376 230.472 50.8667 231.491 53.16 233.444C54.3494 234.379 55.0278 234.803 56.3026 235.738C57.8313 236.842 58.681 237.351 60.2946 238.456L61.908 239.56L63.267 240.154L62.7582 231.915C62.3342 230.81 61.9928 230.132 61.2296 229.197L59.0213 227.244C57.2383 225.716 56.1335 224.951 54.1798 223.762L47.8945 219.175C46.0267 217.901 45.0917 216.797 44.1574 214.844C42.544 211.616 42.7984 208.983 43.9834 205.5C44.577 203.802 45.088 202.867 46.192 201.423L47.3813 203.376C48.7403 205.924 48.7403 207.793 50.3542 210.256C52.9023 214.333 55.4505 215.862 59.4425 218.58C60.4623 219.345 61.0559 219.684 62.1605 220.363L63.0107 220.959L62.8367 215.862L60.7145 213.229L56.6375 208.728L53.8345 206.01L51.0315 203.122C48.8232 201.084 47.8889 199.299 47.3792 196.327C47.1248 194.798 47.2053 193.864 47.3792 192.25C47.5531 191.23 47.6336 190.637 47.888 189.617C48.5664 187.323 48.9078 186.304 50.606 184.096L52.7304 182.822C52.9043 184.777 53.1544 185.88 53.5806 187.833C53.9198 189.277 54.0046 190.126 54.6003 191.485C55.5353 193.949 56.2986 195.308 57.9979 197.346L59.6112 199.129C60.8854 200.403 61.7356 201.084 63.2636 202.017L63.0897 190.55C61.8155 189.022 61.0523 188.257 59.6922 186.898L57.994 185.454C57.059 184.604 56.4654 184.095 55.5306 183.246L53.2375 181.037C51.7937 179.509 51.029 178.659 49.84 176.96C48.905 175.517 48.1418 174.752 47.5467 173.138C45.9333 168.976 45.4223 164.644 48.8209 161.672C49.8407 160.822 50.5191 160.398 51.8787 159.974L52.1331 161.841C52.3875 164.305 53.0681 166.343 54.4264 168.891C55.0222 170.081 55.3614 170.674 56.1246 171.694C57.9076 173.987 59.2673 175.177 61.7304 176.705L63.4286 177.64L63.3417 171.78L62.4915 170.251L60.3671 167.023L57.2245 163.116L54.4215 160.229L51.6187 157.086C50.7685 156.066 50.2597 155.472 49.5813 154.283C48.3919 152.161 47.7983 150.716 47.6265 148.337C47.5395 147.063 47.6265 146.469 47.8004 145.28C48.2244 142.137 48.8202 140.183 51.1129 137.89C52.0479 137.04 52.7263 136.701 53.8309 136.277L54.0048 137.296C54.5136 140.014 54.344 141.628 54.855 144.261C55.1094 145.366 55.279 145.96 55.6204 146.979C56.4705 149.358 57.4034 150.547 59.0178 152.5L60.716 154.368L62.075 155.557L63.3492 156.492C63.5232 155.218 63.5232 154.54 63.3492 153.18L62.8404 151.397C62.5012 149.699 62.3316 148.764 62.162 147.065C61.9076 145.197 61.9076 144.177 61.9881 142.309C62.0751 140.441 62.2425 139.421 62.6665 137.552C63.0057 136.108 63.4319 135.259 63.8559 133.815C64.1951 132.456 64.4495 131.778 64.6191 130.418C65.0431 127.784 64.7061 126.256 64.5321 123.707C64.3582 121.585 64.1929 120.395 63.8537 118.271C63.6798 117.167 63.5145 116.573 63.2579 115.553C63.0035 114.449 62.9187 113.855 62.7491 112.751" fill="#008F42"/>
</g>
<defs>
<clipPath id="clip0_1_3308">
<rect width="512" height="454.67" fill="white" transform="translate(0 29)"/>
</clipPath>
</defs>
</svg>
