<svg width="512" height="512" viewBox="0 0 512 512" fill="none" xmlns="http://www.w3.org/2000/svg">
<g clip-path="url(#clip0_1_2237)">
<path d="M322.373 212.174C305.187 195.505 281.77 185.225 255.994 185.225C230.221 185.225 206.806 195.505 189.623 212.174H0L256 466.324L512 212.174H322.373Z" fill="#DE9500"/>
<path d="M255.994 194.124C303.685 194.124 342.499 232.926 342.499 280.627C342.499 328.326 303.685 367.122 255.994 367.122C208.302 367.122 169.501 328.325 169.501 280.627C169.501 232.925 208.302 194.124 255.994 194.124Z" fill="white"/>
<path d="M216.041 263.849H223.192V253.001H216.041V239.942H236.997V275.674H216.041V263.849ZM216.041 310.921H223.192V300.085H216.041V288.494H236.997V323.263H216.041V310.921ZM274.712 323.263H249.326V288.494H254.267V292.201H261.411V288.494H271.522C274.317 288.494 274.711 293.479 274.711 293.479V323.263H274.712ZM274.712 268.378L274.673 270.008C274.673 270.008 274.047 275.593 270.41 275.675H261.412V270.998H254.268V275.675H249.327V239.943H274.712L274.712 268.378ZM305.943 311.914C305.299 313.785 301.968 323.164 298.387 323.164C298.203 323.164 298.091 323.235 297.97 323.263H285.8V292.941H285.73C285.565 290.927 284.705 288.764 284.577 288.494H297.193C298.188 288.592 306.448 291.822 306.484 302.057H298.387V311.914H305.943ZM306.503 263.605V263.618C306.503 263.618 302.066 275.662 298.179 275.662L297.915 275.674H284.142C284.343 275.279 285.8 272.51 285.8 270.007V239.941H297.56C297.77 240.011 306.503 243.092 306.503 253.736H298.387V263.605H306.503V263.605ZM325.512 253.737H318.165C318.165 253.658 316.639 234.246 302.072 227.863H286.396V227.476C286.396 211.759 274.875 208.531 266.481 208.531C258.094 208.531 254.191 212.043 254.191 212.043V223.376C254.191 223.376 254.39 219.384 265.246 219.384C277.34 219.384 274.965 227.856 274.965 227.856V227.862H249.326V220.947C249.326 209.222 243.394 206.147 236.46 206.147L231.579 206.162V218.736H234.529C236.496 218.736 236.909 220.203 236.997 221.218V227.861H197.558V239.94H206.198V252.998H197.558V263.846H206.198V275.671H197.558V288.492H206.198V300.082H197.558V310.918H206.198V323.261H197.558V334.109H236.385V337.184C236.385 339.281 234.529 339.028 234.529 339.028H230.609V351.603H238.474C241.708 351.603 249.082 348.256 249.082 340.007V335.581L249.094 334.108H274.797C274.797 339.846 271.792 342.571 263.908 342.571C256.028 342.571 253.812 338.768 253.812 338.768V350.198C256.152 352.805 265.781 353.546 265.781 353.546C285.35 353.546 285.927 337.183 285.853 334.108H303.298C303.298 334.108 315.681 328.889 317.32 311.91H325.511V302.053H317.86C317.843 301.337 317.465 285.535 309.129 281.014C309.129 281.014 317.141 276.482 317.213 263.615L317.156 263.602H325.512V253.737Z" fill="#00954C"/>
<path d="M57.656 221.072V256.874L93.7185 292.676V221.072H57.656Z" fill="#00954C"/>
<path d="M57.656 256.874V221.072H21.5935L57.656 256.874Z" fill="white"/>
<path d="M160.603 280.627C160.603 269.721 162.458 259.244 165.844 249.475V221.072H129.781V328.478L165.844 364.279V311.815C162.452 302.038 160.603 291.545 160.603 280.627Z" fill="#00954C"/>
<path d="M129.781 221.072H93.7185V292.676L129.781 328.478V221.072Z" fill="white"/>
<path d="M201.906 359.158V400.082L237.969 435.884V374.304C224.789 371.772 212.565 366.523 201.906 359.158Z" fill="#00954C"/>
<path d="M165.844 311.815V364.28L201.906 400.082V359.158C185.342 347.714 172.559 331.172 165.844 311.815Z" fill="white"/>
<path d="M181.53 221.072H165.844V249.475C169.447 239.082 174.784 229.492 181.53 221.072Z" fill="white"/>
<path d="M274.031 374.302V435.883L310.094 400.081V359.154C299.435 366.519 287.211 371.77 274.031 374.302Z" fill="#00954C"/>
<path d="M255.994 376.02C249.832 376.02 243.808 375.426 237.969 374.305V435.884L256 453.785L274.031 435.884V374.302C268.189 375.424 262.159 376.02 255.994 376.02Z" fill="white"/>
<path d="M346.156 221.072V249.477C349.542 259.244 351.397 269.721 351.397 280.627C351.397 291.544 349.548 302.036 346.156 311.814V364.28L382.219 328.478V221.072H346.156Z" fill="#00954C"/>
<path d="M310.094 359.154V400.081L346.156 364.279V311.813C339.441 331.169 326.658 347.709 310.094 359.154Z" fill="white"/>
<path d="M330.467 221.072C337.214 229.493 342.552 239.083 346.156 249.477V221.072H330.467Z" fill="white"/>
<path d="M418.281 292.675L454.344 256.874V221.072H418.281V292.675Z" fill="#00954C"/>
<path d="M418.281 221.072H382.219V328.478L418.281 292.675V221.072Z" fill="white"/>
<path d="M490.407 221.072H454.344V256.874L490.407 221.072Z" fill="white"/>
<path d="M244.61 139.018C244.61 134.904 246.83 131.315 250.126 129.352V104.069C229.719 104.955 211.233 110.519 197.05 119.195C198.476 124.968 202.107 130.494 207.622 135.292C209.009 134.672 210.542 134.321 212.164 134.321C218.383 134.321 223.42 139.361 223.42 145.582C223.42 150.036 220.823 153.876 217.069 155.7L217.129 155.844C218.186 157.971 220.008 159.564 222.263 160.322C224.514 161.077 226.926 160.911 229.059 159.856C231.191 158.797 232.777 156.972 233.533 154.718C233.647 154.391 233.729 154.056 233.799 153.715C232.04 152.941 231.122 150.948 231.743 149.088C232.406 147.11 234.553 146.052 236.526 146.717C238.498 147.378 239.56 149.518 238.899 151.496C238.653 152.215 238.215 152.809 237.659 153.246C238.704 155.222 240.463 156.789 242.647 157.518C244.901 158.275 247.31 158.113 249.443 157.052C251.576 155.994 253.158 154.175 253.917 151.918C254.117 151.339 254.224 150.747 254.297 150.152C248.829 149.381 244.61 144.703 244.61 139.018Z" fill="#D7013E"/>
<path d="M212.163 156.834C205.944 156.834 200.905 151.797 200.905 145.582C200.905 145.39 200.923 145.2 200.94 145.01C194.408 139.587 189.678 133.262 187.04 126.455C177.434 134.712 171.071 144.734 169.251 155.677C170.25 155.384 171.297 155.222 172.396 155.222C178.607 155.222 183.646 160.259 183.646 166.476C183.646 169.383 182.533 172.032 180.718 174.031C182.317 175.567 184.48 176.51 186.867 176.51C191.772 176.51 195.766 172.519 195.766 167.614C195.766 167.263 195.736 166.924 195.693 166.583C193.781 166.4 192.278 164.81 192.278 162.845C192.278 160.761 193.965 159.073 196.047 159.073C198.134 159.073 199.819 160.761 199.819 162.845C199.819 163.603 199.594 164.309 199.207 164.9C200.83 166.442 202.995 167.362 205.296 167.362C210.207 167.362 214.196 163.373 214.196 158.467C214.196 157.855 214.118 157.259 213.996 156.672C213.394 156.77 212.792 156.834 212.163 156.834Z" fill="#D7013E"/>
<path d="M267.39 139.018C267.39 134.904 265.17 131.315 261.874 129.352V104.069C282.281 104.955 300.767 110.519 314.95 119.195C313.524 124.968 309.893 130.494 304.378 135.292C302.991 134.672 301.458 134.321 299.836 134.321C293.617 134.321 288.58 139.361 288.58 145.582C288.58 150.036 291.177 153.876 294.931 155.7L294.871 155.844C293.814 157.971 291.992 159.564 289.737 160.322C287.486 161.077 285.074 160.911 282.941 159.856C280.808 158.797 279.223 156.972 278.467 154.718C278.353 154.391 278.271 154.056 278.201 153.715C279.96 152.941 280.878 150.948 280.257 149.088C279.594 147.11 277.447 146.052 275.474 146.717C273.502 147.378 272.44 149.518 273.101 151.496C273.347 152.215 273.785 152.809 274.341 153.246C273.296 155.222 271.537 156.789 269.353 157.518C267.099 158.275 264.69 158.113 262.557 157.052C260.424 155.994 258.842 154.175 258.083 151.918C257.882 151.339 257.776 150.747 257.703 150.152C263.171 149.381 267.39 144.703 267.39 139.018Z" fill="#D7013E"/>
<path d="M299.837 156.834C306.056 156.834 311.095 151.797 311.095 145.582C311.095 145.39 311.077 145.2 311.06 145.01C317.592 139.587 322.322 133.262 324.96 126.455C334.566 134.712 340.929 144.734 342.749 155.677C341.75 155.384 340.703 155.222 339.604 155.222C333.393 155.222 328.354 160.259 328.354 166.476C328.354 169.383 329.467 172.032 331.282 174.031C329.683 175.567 327.52 176.51 325.133 176.51C320.228 176.51 316.234 172.519 316.234 167.614C316.234 167.263 316.264 166.924 316.307 166.583C318.219 166.4 319.722 164.81 319.722 162.845C319.722 160.761 318.035 159.073 315.953 159.073C313.866 159.073 312.181 160.761 312.181 162.845C312.181 163.603 312.406 164.309 312.793 164.9C311.17 166.442 309.005 167.362 306.704 167.362C301.793 167.362 297.804 163.373 297.804 158.467C297.804 157.855 297.882 157.259 298.004 156.672C298.605 156.77 299.208 156.834 299.837 156.834Z" fill="#D7013E"/>
<path d="M367.588 134.495C367.588 123.825 362.954 113.582 354.533 105.666C345.505 97.1548 333.345 92.4237 319.906 92.0583C309.544 77.6354 289.154 67.2073 265.033 65.0652C265.007 60.9511 262.281 57.4838 258.531 56.3413V54.6235L263.023 54.6172L263.019 49.4745L258.517 49.4809L258.515 46L256 46.0027L253.485 46L253.483 49.4809L248.981 49.4745L248.977 54.6172L253.469 54.6235V56.3413C249.719 57.4838 246.993 60.9511 246.967 65.0652C222.846 67.2073 202.456 77.6354 192.094 92.0583C178.656 92.4237 166.495 97.1548 157.467 105.666C149.046 113.582 144.412 123.825 144.412 134.495C144.412 146.103 150.47 157.109 161.319 165.702C161.302 165.957 161.279 166.214 161.279 166.476C161.279 172.686 166.321 177.727 172.54 177.727C173.777 177.727 174.967 177.522 176.083 177.152C177.003 178.968 180.031 183.576 187.149 183.714C186.708 184.029 186.255 184.331 185.813 184.656C184.637 185.549 182.912 188.017 184.816 190.994C185.701 192.366 186.998 193.089 188.572 193.089C189.123 193.089 189.637 192.994 190.071 192.88L195.837 200.765L196.987 199.925C214.223 187.297 234.625 180.615 255.998 180.615C277.372 180.615 297.774 187.297 315.009 199.925L316.159 200.765L321.925 192.88C322.359 192.994 322.874 193.089 323.425 193.089C324.999 193.089 326.295 192.365 327.181 190.994C329.085 188.017 327.36 185.549 326.184 184.656C325.742 184.33 325.289 184.028 324.848 183.714C331.965 183.576 334.995 178.968 335.914 177.152C337.03 177.522 338.219 177.727 339.456 177.727C345.675 177.727 350.717 172.685 350.717 166.476C350.717 166.214 350.695 165.957 350.678 165.702C361.53 157.109 367.588 146.103 367.588 134.495ZM205.442 167.358C203.138 167.358 200.974 166.438 199.351 164.894C199.738 164.305 199.967 163.601 199.967 162.842C199.967 160.759 198.278 159.071 196.191 159.071C194.11 159.071 192.422 160.759 192.422 162.842C192.422 164.808 193.925 166.398 195.839 166.581C195.88 166.921 195.91 167.261 195.91 167.613C195.91 172.518 191.918 176.508 187.011 176.508C184.624 176.508 182.461 175.564 180.864 174.028C182.677 172.032 183.792 169.38 183.792 166.476C183.792 160.258 178.751 155.221 172.54 155.221C171.441 155.221 170.395 155.382 169.398 155.677C168.927 155.816 168.467 155.971 168.022 156.167C160.32 149.892 156.033 142.279 156.033 134.494C156.033 127.062 159.37 119.823 165.428 114.128C170.948 108.93 178.074 105.577 186.091 104.277C185.222 107.318 184.757 110.46 184.757 113.675C184.757 118.051 185.591 122.339 187.187 126.454C189.823 133.261 194.554 139.584 201.085 145.006C201.067 145.197 201.05 145.387 201.05 145.579C201.05 151.796 206.092 156.832 212.308 156.832C212.935 156.832 213.539 156.767 214.142 156.67C214.258 157.254 214.339 157.852 214.339 158.462C214.34 163.369 210.351 167.358 205.442 167.358ZM254.061 151.918C253.302 154.174 251.72 155.994 249.589 157.052C247.458 158.11 245.043 158.273 242.793 157.516C240.607 156.786 238.849 155.221 237.805 153.244C238.359 152.809 238.798 152.215 239.043 151.495C239.703 149.516 238.642 147.376 236.67 146.717C234.694 146.052 232.55 147.111 231.885 149.087C231.266 150.948 232.184 152.938 233.944 153.715C233.875 154.056 233.789 154.391 233.677 154.718C232.921 156.97 231.333 158.797 229.203 159.856C227.071 160.911 224.659 161.077 222.407 160.32C220.154 159.561 218.33 157.97 217.273 155.845L217.213 155.697C220.967 153.875 223.564 150.035 223.564 145.58C223.564 139.361 218.527 134.319 212.308 134.319C210.686 134.319 209.154 134.673 207.764 135.292C202.252 130.494 198.622 124.968 197.195 119.195C196.746 117.374 196.511 115.533 196.511 113.676C196.511 94.7069 220.574 78.5002 250.268 76.5825V129.35C246.975 131.315 244.755 134.903 244.755 139.018C244.755 144.703 248.971 149.381 254.44 150.152C254.366 150.747 254.259 151.337 254.061 151.918ZM294.727 155.845C293.669 157.97 291.845 159.561 289.592 160.32C287.342 161.077 284.929 160.911 282.796 159.856C280.667 158.797 279.078 156.971 278.323 154.718C278.211 154.391 278.125 154.056 278.055 153.715C279.815 152.939 280.733 150.948 280.115 149.087C279.449 147.11 277.305 146.052 275.329 146.717C273.357 147.376 272.295 149.516 272.957 151.495C273.202 152.215 273.641 152.809 274.194 153.244C273.151 155.222 271.393 156.787 269.206 157.516C266.957 158.273 264.542 158.111 262.41 157.052C260.28 155.994 258.698 154.173 257.939 151.918C257.741 151.337 257.633 150.747 257.559 150.152C263.027 149.381 267.243 144.703 267.243 139.018C267.243 134.904 265.023 131.315 261.731 129.35V76.5825C291.424 78.5011 315.487 94.7069 315.487 113.676C315.487 115.533 315.252 117.374 314.803 119.195C313.378 124.968 309.746 130.494 304.234 135.292C302.844 134.672 301.312 134.319 299.69 134.319C293.471 134.319 288.434 139.361 288.434 145.58C288.434 150.035 291.031 153.875 294.785 155.697L294.727 155.845ZM343.977 156.168C343.533 155.971 343.073 155.817 342.601 155.677C341.604 155.383 340.558 155.222 339.459 155.222C333.248 155.222 328.207 160.259 328.207 166.476C328.207 169.381 329.322 172.033 331.136 174.029C329.538 175.565 327.375 176.508 324.988 176.508C320.081 176.508 316.09 172.519 316.09 167.614C316.09 167.263 316.119 166.922 316.16 166.582C318.074 166.399 319.578 164.809 319.578 162.843C319.578 160.76 317.889 159.072 315.808 159.072C313.721 159.072 312.032 160.76 312.032 162.843C312.032 163.602 312.261 164.306 312.648 164.895C311.026 166.438 308.86 167.358 306.557 167.358C301.649 167.358 297.659 163.369 297.659 158.464C297.659 157.853 297.74 157.255 297.857 156.672C298.459 156.767 299.063 156.834 299.69 156.834C305.906 156.834 310.949 151.798 310.949 145.581C310.949 145.389 310.931 145.199 310.913 145.008C317.445 139.586 322.176 133.263 324.812 126.455C326.407 122.34 327.241 118.053 327.241 113.677C327.241 110.462 326.776 107.321 325.907 104.278C333.924 105.579 341.05 108.932 346.571 114.129C352.629 119.825 355.965 127.063 355.965 134.495C355.966 142.28 351.679 149.893 343.977 156.168Z" fill="#DE9500"/>
</g>
<defs>
<clipPath id="clip0_1_2237">
<rect width="512" height="420.324" fill="white" transform="translate(0 46)"/>
</clipPath>
</defs>
</svg>
