<svg width="512" height="512" viewBox="0 0 512 512" fill="none" xmlns="http://www.w3.org/2000/svg">
<g clip-path="url(#clip0_1_2125)">
<path d="M331.668 148.442C329.442 148.442 327.704 146.704 327.704 144.598C327.704 142.491 329.442 140.753 331.668 140.753C333.894 140.753 335.632 142.491 335.632 144.598C335.751 146.704 333.894 148.442 331.668 148.442ZM95.1152 328.122C95.1152 242.252 167.725 172.487 256.452 172.487C345.178 172.487 417.788 242.371 417.788 328.122C417.788 413.741 345.178 483.875 256.452 483.875C167.737 483.756 95.1152 413.741 95.1152 328.122ZM319.765 90.4498C323.61 91.4378 325.955 95.1635 324.967 98.8773C323.979 102.591 320.015 104.829 316.17 103.829C312.325 102.829 309.98 99.1154 310.968 95.4016C311.956 91.6878 315.92 89.45 319.765 90.4498ZM326.335 76.8206C328.561 76.8206 330.299 78.5585 330.299 80.6654C330.299 82.7723 328.561 84.5101 326.335 84.5101C324.109 84.5101 322.372 82.7723 322.372 80.6654C322.253 78.4395 324.109 76.8206 326.335 76.8206ZM322.991 62.9415C325.217 62.9415 326.954 64.6794 326.954 66.7862C326.954 68.8931 325.217 70.631 322.991 70.631C320.765 70.631 319.027 68.8931 319.027 66.7862C318.908 64.6794 320.765 62.9415 322.991 62.9415ZM372.556 99.3773C374.782 99.3773 376.519 101.115 376.519 103.222C376.519 105.329 374.782 107.067 372.556 107.067C370.33 107.067 368.592 105.329 368.592 103.222C368.592 101.115 370.33 99.3773 372.556 99.3773ZM369.211 85.629C371.437 85.629 373.175 87.3669 373.175 89.4738C373.175 91.5807 371.437 93.3185 369.211 93.3185C366.985 93.3185 365.247 91.5807 365.247 89.4738C365.247 87.3669 366.985 85.629 369.211 85.629ZM363.259 73.4877C365.485 73.4877 367.223 75.2256 367.223 77.3325C367.223 79.4394 365.366 81.1772 363.259 81.1772C361.033 81.1772 359.295 79.4394 359.295 77.3325C359.176 75.2256 361.033 73.4877 363.259 73.4877ZM353.713 62.7034C355.939 62.7034 357.677 64.4413 357.677 66.5482C357.677 68.655 355.939 70.3929 353.713 70.3929C351.487 70.3929 349.749 68.655 349.749 66.5482C349.749 64.4413 351.487 62.7034 353.713 62.7034ZM342.06 54.5259C344.285 54.5259 346.023 56.2638 346.023 58.3706C346.023 60.4775 344.285 62.2154 342.06 62.2154C339.834 62.2154 338.096 60.4775 338.096 58.3706C338.096 56.2638 339.834 54.5259 342.06 54.5259ZM329.418 49.6932C331.644 49.6932 333.382 51.4311 333.382 53.5379C333.382 55.6448 331.644 57.3827 329.418 57.3827C327.192 57.3827 325.455 55.6448 325.455 53.5379C325.455 51.4311 327.311 49.6932 329.418 49.6932ZM316.658 50.8121C318.884 50.8121 320.622 52.55 320.622 54.6568C320.622 56.7637 318.884 58.5016 316.658 58.5016C314.432 58.5016 312.694 56.7637 312.694 54.6568C312.694 52.55 314.432 50.8121 316.658 50.8121ZM307.243 40.2777C309.469 40.2777 311.206 42.0156 311.206 44.1225C311.206 46.2294 309.349 47.9672 307.243 47.9672C305.017 47.9672 303.279 46.2294 303.279 44.1225C303.279 42.0156 305.017 40.2777 307.243 40.2777ZM294.97 32.4692C297.196 32.4692 298.934 34.2071 298.934 36.314C298.934 38.4208 297.196 40.1587 294.97 40.1587C292.745 40.1587 291.007 38.4208 291.007 36.314C291.007 34.2071 292.745 32.4692 294.97 32.4692ZM282.21 27.8865C284.436 27.8865 286.174 29.6244 286.174 31.7312C286.174 33.8381 284.436 35.576 282.21 35.576C279.984 35.576 278.246 33.8381 278.246 31.7312C278.246 29.6244 279.984 27.8865 282.21 27.8865ZM269.2 25.6606C271.426 25.6606 273.164 27.3985 273.164 29.5053C273.164 31.6122 271.426 33.3501 269.2 33.3501C266.974 33.3501 265.236 31.6122 265.236 29.5053C265.117 27.3985 266.974 25.6606 269.2 25.6606ZM145.43 127.386C143.76 128.27 141.815 128.481 139.994 127.974C138.174 127.466 136.618 126.28 135.646 124.66C135.187 123.861 134.897 122.977 134.792 122.062C134.688 121.147 134.771 120.22 135.037 119.338C135.304 118.457 135.747 117.639 136.341 116.935C136.935 116.231 137.666 115.656 138.491 115.244C140.16 114.36 142.106 114.149 143.926 114.656C145.747 115.163 147.303 116.349 148.275 117.97C150.132 121.315 148.894 125.529 145.43 127.386ZM196.733 103.841C192.888 104.829 188.925 102.603 187.937 98.8892C186.949 95.1754 189.305 91.3307 193.138 90.4617C196.983 89.4738 200.947 91.6997 201.935 95.4135C202.923 99.1273 200.566 102.972 196.733 103.841ZM256.452 96.5324C255.524 96.5497 254.601 96.3839 253.737 96.0444C252.874 95.7048 252.085 95.1983 251.418 94.5537C250.75 93.9091 250.216 93.1392 249.846 92.2879C249.476 91.4367 249.277 90.5208 249.262 89.5928C249.262 85.7481 252.488 82.6532 256.452 82.6532C260.415 82.6532 263.641 85.7481 263.641 89.5928C263.641 93.4376 260.415 96.5324 256.452 96.5324ZM186.687 84.5101C184.461 84.5101 182.723 82.7723 182.723 80.6654C182.723 78.5585 184.461 76.8206 186.687 76.8206C188.913 76.8206 190.651 78.5585 190.651 80.6654C190.651 82.7723 188.794 84.5101 186.687 84.5101ZM190.032 70.631C187.806 70.631 186.068 68.8931 186.068 66.7862C186.068 64.6794 187.806 62.9415 190.032 62.9415C192.257 62.9415 193.995 64.6794 193.995 66.7862C193.995 68.8931 192.138 70.631 190.032 70.631ZM140.347 107.186C138.122 107.186 136.384 105.448 136.384 103.341C136.384 101.234 138.122 99.4963 140.347 99.4963C142.573 99.4963 144.311 101.234 144.311 103.341C144.43 105.448 142.573 107.186 140.347 107.186ZM143.692 93.3066C141.466 93.3066 139.729 91.5687 139.729 89.4619C139.729 87.355 141.585 85.6171 143.692 85.6171C145.918 85.6171 147.656 87.355 147.656 89.4619C147.775 91.5687 145.918 93.3066 143.692 93.3066ZM149.644 81.1653C147.418 81.1653 145.68 79.4275 145.68 77.3206C145.68 75.2137 147.418 73.4758 149.644 73.4758C151.87 73.4758 153.608 75.2137 153.608 77.3206C153.727 79.4275 151.87 81.1653 149.644 81.1653ZM159.19 70.381C156.964 70.381 155.227 68.6431 155.227 66.5363C155.227 64.4294 156.964 62.6915 159.19 62.6915C161.416 62.6915 163.154 64.4294 163.154 66.5363C163.154 68.6431 161.416 70.381 159.19 70.381ZM170.844 62.2035C168.618 62.2035 166.88 60.4656 166.88 58.3587C166.88 56.2519 168.618 54.514 170.844 54.514C173.069 54.514 174.807 56.2519 174.807 58.3587C174.926 60.4656 173.069 62.2035 170.844 62.2035ZM183.485 57.4898C181.259 57.4898 179.521 55.7519 179.521 53.6451C179.521 51.5382 181.259 49.8003 183.485 49.8003C185.711 49.8003 187.449 51.5382 187.449 53.6451C187.449 55.7519 185.711 57.4898 183.485 57.4898ZM196.245 58.4778C194.019 58.4778 192.281 56.7399 192.281 54.633C192.281 52.5262 194.019 50.7883 196.245 50.7883C198.471 50.7883 200.209 52.5262 200.209 54.633C200.328 56.7399 198.471 58.4778 196.245 58.4778ZM205.66 48.0744C203.435 48.0744 201.697 46.3365 201.697 44.2296C201.697 42.1227 203.554 40.3849 205.66 40.3849C207.886 40.3849 209.624 42.1227 209.624 44.2296C209.624 46.3365 207.886 48.0744 205.66 48.0744ZM217.933 40.1468C215.707 40.1468 213.969 38.4089 213.969 36.3021C213.969 34.1952 215.707 32.4573 217.933 32.4573C220.159 32.4573 221.896 34.1952 221.896 36.3021C221.896 38.4089 220.159 40.1468 217.933 40.1468ZM230.693 35.5641C228.467 35.5641 226.729 33.8262 226.729 31.7193C226.729 29.6125 228.586 27.8746 230.693 27.8746C232.919 27.8746 234.657 29.6125 234.657 31.7193C234.657 33.8262 232.919 35.5641 230.693 35.5641ZM256.452 73.4758C254.226 73.4758 252.488 71.738 252.488 69.6311C252.488 67.5242 254.345 65.7864 256.452 65.7864C258.677 65.7864 260.415 67.5242 260.415 69.6311C260.415 71.738 258.677 73.4758 256.452 73.4758ZM256.452 59.4776C254.226 59.4776 252.488 57.7398 252.488 55.6329C252.488 53.526 254.345 51.7882 256.452 51.7882C258.677 51.7882 260.415 53.526 260.415 55.6329C260.415 57.7398 258.677 59.4776 256.452 59.4776ZM256.452 45.4795C254.226 45.4795 252.488 43.7416 252.488 41.6347C252.488 39.5278 254.345 37.79 256.452 37.79C258.677 37.79 260.415 39.5278 260.415 41.6347C260.415 43.7416 258.677 45.4795 256.452 45.4795ZM243.81 33.3382C241.584 33.3382 239.716 31.6003 239.716 29.4934C239.716 27.3866 241.573 25.6487 243.81 25.6487C246.048 25.6487 247.774 27.3866 247.774 29.4934C247.774 31.7193 245.917 33.3382 243.81 33.3382ZM374.413 115.232C377.876 117.089 379.126 121.303 377.257 124.648C375.389 127.993 370.937 129.231 367.473 127.374C366.661 126.95 365.941 126.368 365.357 125.662C364.773 124.957 364.335 124.141 364.07 123.264C363.805 122.387 363.718 121.466 363.814 120.555C363.91 119.644 364.186 118.761 364.628 117.958C365.6 116.338 367.156 115.151 368.977 114.644C370.797 114.137 372.743 114.348 374.413 115.232ZM282.103 135.551C279.877 135.551 278.139 133.813 278.139 131.706C278.139 129.6 279.877 127.862 282.103 127.862C284.329 127.862 286.067 129.6 286.067 131.706C286.186 133.813 284.329 135.551 282.103 135.551ZM181.235 148.442C179.009 148.442 177.271 146.704 177.271 144.598C177.271 142.491 179.128 140.753 181.235 140.753C183.461 140.753 185.199 142.491 185.199 144.598C185.199 146.704 183.461 148.442 181.235 148.442ZM230.8 135.551C228.574 135.551 226.836 133.813 226.836 131.706C226.836 129.6 228.693 127.862 230.8 127.862C233.026 127.862 234.764 129.6 234.764 131.706C234.764 133.813 233.026 135.551 230.8 135.551Z" fill="white"/>
<path d="M286.186 107.674C287.305 110.031 288.543 111.769 290.15 113.245L279.127 111.876C281.195 110.773 283.011 109.253 284.46 107.412C285.028 107.562 285.611 107.646 286.198 107.662L286.186 107.674ZM226.705 107.674C227.331 107.655 227.954 107.571 228.562 107.424C229.931 109.281 231.788 110.769 233.764 111.888L222.742 113.256C224.48 111.649 225.837 109.793 226.705 107.686V107.674ZM205.268 116.47L195.602 118.827C197.34 116.72 198.447 114.113 198.697 111.388C200.419 113.613 202.681 115.362 205.268 116.47ZM168.463 128.124C169.389 126.62 170.098 124.993 170.57 123.291L171.07 123.172C171.996 122.951 172.878 122.572 173.677 122.053C175.204 123.043 176.874 123.794 178.628 124.279L168.463 128.124ZM256.452 104.329C257.44 106.936 259.296 109.162 261.534 110.9C259.796 110.9 258.189 110.781 256.452 110.781L251.369 110.9C253.726 109.162 255.464 106.936 256.452 104.329ZM339.227 121.922C339.965 122.422 340.965 122.791 341.833 123.041L342.333 123.16C342.702 124.898 343.452 126.505 344.44 127.993L334.156 124.029C335.971 123.663 337.685 122.947 339.227 121.922ZM317.289 118.827L307.624 116.47C310.191 115.391 312.417 113.635 314.063 111.388C314.429 114.118 315.546 116.694 317.289 118.827ZM329.799 88.5929C332.525 87.474 334.513 85.1291 335.132 82.2723C339.465 83.2603 344.297 84.3792 348.261 85.9861C351.457 87.1762 354.431 88.8943 357.058 91.0688C359.165 96.4015 360.402 102.591 361.152 110.15C358.546 111.269 356.82 113.863 355.82 116.47C354.213 120.434 354.213 124.529 358.665 127.624C357.674 127.7 356.678 127.566 355.743 127.229C354.808 126.893 353.955 126.361 353.241 125.67C352.526 124.98 351.966 124.145 351.598 123.222C351.23 122.299 351.063 121.308 351.106 120.315C351.959 119.347 352.593 118.206 352.963 116.97C354.201 112.257 351.356 107.555 346.523 106.436C341.691 105.198 336.858 108.043 335.62 112.626C335.501 113.125 335.37 113.614 335.37 114.113C331.275 118.946 323.098 116.47 322.729 110.15C330.287 111.638 333.513 107.924 334.751 102.96C335.87 98.8654 335.37 94.6636 330.537 92.1758C330.287 90.8069 330.168 89.5809 329.799 88.5929ZM202.054 71.4999C216.433 63.8223 235.133 62.4535 249.631 64.5603V65.5483C248.579 67.1248 248.173 69.0451 248.496 70.9125C248.82 72.7799 249.848 74.4518 251.369 75.5827C248.643 76.4516 246.536 78.4276 245.798 81.9033C240.347 83.1413 238.859 87.105 238.859 91.3188C238.859 96.4015 240.966 100.734 248.643 101.103C247.774 103.948 245.048 105.936 241.823 105.936C240.355 105.948 238.92 105.5 237.72 104.654C236.52 103.809 235.616 102.608 235.133 101.222C235.383 100.484 235.383 99.7344 235.383 98.9964C235.383 94.1637 231.288 90.3189 226.336 90.3189C221.385 90.3189 217.29 94.1637 217.29 98.9964C217.261 100.441 217.649 101.862 218.409 103.091C218.298 104.572 217.723 105.979 216.765 107.114C215.808 108.249 214.517 109.053 213.076 109.412C211.615 109.787 210.072 109.69 208.669 109.134C207.266 108.578 206.075 107.591 205.268 106.317C212.576 104.091 213.564 99.3773 212.207 94.4255C211.088 90.3308 208.613 86.867 203.042 86.986C202.228 85.2396 200.824 83.8361 199.078 83.0222C199.816 79.0585 200.685 75.0947 202.054 71.4999ZM263.141 64.4413C277.639 62.3344 296.47 63.7033 310.718 71.3809C312.116 75.1416 313.071 79.0524 313.563 83.0341C311.818 83.8497 310.415 85.2527 309.6 86.9979C304.029 86.8789 301.541 90.3427 300.553 94.4374C299.184 99.3892 300.184 104.103 307.493 106.329C305.886 108.805 302.779 110.173 299.684 109.424C298.237 109.076 296.94 108.276 295.98 107.139C295.021 106.002 294.45 104.587 294.351 103.103C295.093 101.867 295.48 100.45 295.47 99.0083C295.47 94.1755 291.507 90.3308 286.424 90.3308C281.472 90.3308 277.377 94.1755 277.377 99.0083C277.396 99.7561 277.48 100.501 277.627 101.234C277.13 102.611 276.221 103.801 275.025 104.644C273.828 105.487 272.402 105.942 270.938 105.948C269.437 105.961 267.971 105.501 266.747 104.634C265.522 103.766 264.602 102.535 264.117 101.115C271.795 100.746 273.902 96.4015 273.902 91.3307C273.902 86.9979 272.414 83.1532 266.962 81.9152C266.657 80.4711 265.983 79.1305 265.007 78.0231C264.031 76.9158 262.786 76.0792 261.391 75.5946C263.129 74.2257 264.367 71.9998 264.367 69.643C264.367 68.1551 263.867 66.6672 263.129 65.5483L263.141 64.4413ZM164.761 85.998C168.725 84.5101 173.558 83.2722 177.89 82.2842C178.509 85.1291 180.497 87.4859 183.223 88.6048C182.798 89.7072 182.627 90.8912 182.723 92.0687C177.771 94.5446 177.39 98.7583 178.509 102.853C179.878 107.805 182.973 111.53 190.532 110.043C190.282 116.363 181.985 118.839 177.89 114.006C177.89 113.506 177.771 113.018 177.64 112.518C176.402 107.805 171.451 105.079 166.618 106.329C161.785 107.579 158.94 112.28 160.178 116.863C160.547 118.101 161.166 119.339 162.035 120.208C162.154 122.815 160.797 125.291 158.321 126.648C157.123 127.228 155.808 127.525 154.477 127.516C158.94 124.541 158.94 120.458 157.322 116.363C156.203 113.887 154.596 111.28 151.87 110.173C152.489 102.615 153.727 96.4253 155.834 91.0926C158.06 89.3547 160.916 87.3669 164.761 85.998ZM269.343 130.361L256.452 134.944L243.691 130.361L256.452 125.767L269.343 130.361ZM172.808 147.204L171.689 151.537L171.32 153.144L170.451 152.644L166.118 150.287L167.237 146.193L167.487 145.324L168.975 145.824L172.808 147.204ZM340.084 147.204L345.416 145.217L345.666 146.086L346.785 150.299L342.571 152.525L341.703 153.025L341.334 151.418L340.084 147.204Z" fill="#E62644"/>
<path d="M317.289 118.827C315.551 116.72 314.444 114.113 314.194 111.388C312.587 113.614 310.23 115.351 307.754 116.47L317.289 118.827ZM339.227 121.922C337.739 122.91 336.001 123.66 334.275 124.148L344.559 128.112C343.579 126.637 342.866 125.001 342.452 123.279L341.952 123.16C340.965 122.91 340.096 122.422 339.227 121.922ZM256.452 104.329C255.464 106.936 253.726 109.162 251.369 110.9L256.452 110.781L261.534 110.9C259.273 109.213 257.516 106.941 256.452 104.329ZM168.475 128.124L178.759 124.16C177.021 123.66 175.295 122.922 173.808 121.934C173.069 122.434 172.07 122.803 171.201 123.053L170.701 123.172C170.082 124.91 169.463 126.636 168.475 128.124ZM205.28 116.47C202.712 115.391 200.486 113.635 198.84 111.388C198.471 114.113 197.471 116.72 195.745 118.827L205.28 116.47ZM226.717 107.674C225.848 109.781 224.491 111.638 222.754 113.245L233.776 111.876C231.723 110.806 229.943 109.279 228.574 107.412C227.955 107.531 227.336 107.674 226.717 107.674ZM286.198 107.674C285.611 107.661 285.027 107.577 284.46 107.424C283.091 109.281 281.234 110.769 279.127 111.888L290.15 113.256C288.56 111.773 287.257 110.01 286.305 108.055L286.198 107.674ZM374.424 115.232C372.755 114.345 370.809 114.133 368.988 114.64C367.166 115.147 365.61 116.335 364.64 117.958C362.783 121.303 364.021 125.517 367.485 127.374C369.155 128.258 371.1 128.469 372.921 127.962C374.741 127.455 376.298 126.268 377.269 124.648C377.742 123.853 378.044 122.968 378.156 122.049C378.268 121.131 378.188 120.199 377.92 119.314C377.653 118.428 377.204 117.608 376.602 116.905C376 116.202 375.259 115.633 374.424 115.232ZM319.777 90.4499C315.932 89.4619 311.968 91.6878 310.98 95.4016C309.992 99.1154 312.349 102.96 316.182 103.829C320.027 104.817 323.99 102.591 324.978 98.8773C325.966 95.1635 323.61 91.3188 319.777 90.4499ZM326.347 76.8207C324.121 76.8207 322.384 78.5585 322.384 80.6654C322.384 82.7723 324.24 84.5102 326.347 84.5102C328.573 84.5102 330.311 82.7723 330.311 80.6654C330.316 80.1489 330.217 79.6367 330.018 79.16C329.819 78.6833 329.525 78.252 329.154 77.8924C328.784 77.5328 328.344 77.2523 327.861 77.0681C327.378 76.8838 326.863 76.7997 326.347 76.8207ZM323.003 62.9415C320.777 62.9415 319.039 64.6794 319.039 66.7862C319.039 68.8931 320.896 70.631 323.003 70.631C325.228 70.631 326.966 68.8931 326.966 66.7862C326.966 64.6794 325.228 62.9415 323.003 62.9415ZM372.568 99.3773C370.342 99.3773 368.604 101.115 368.604 103.222C368.604 105.329 370.342 107.067 372.568 107.067C374.793 107.067 376.531 105.329 376.531 103.222C376.531 101.115 374.793 99.3773 372.568 99.3773ZM369.223 85.6291C366.997 85.6291 365.259 87.3669 365.259 89.4738C365.259 91.5807 366.997 93.3185 369.223 93.3185C371.449 93.3185 373.187 91.5807 373.187 89.4738C373.187 87.3669 371.449 85.6291 369.223 85.6291ZM363.271 73.4878C361.045 73.4878 359.307 75.2256 359.307 77.3325C359.307 79.4394 361.164 81.1773 363.271 81.1773C365.497 81.1773 367.235 79.4394 367.235 77.3325C367.235 75.2256 365.497 73.4878 363.271 73.4878ZM353.725 62.7034C351.499 62.7034 349.761 64.4413 349.761 66.5482C349.761 68.6551 351.499 70.3929 353.725 70.3929C355.951 70.3929 357.689 68.6551 357.689 66.5482C357.689 64.4413 355.951 62.7034 353.725 62.7034ZM342.072 54.5259C339.846 54.5259 338.108 56.2638 338.108 58.3707C338.108 60.4775 339.846 62.2154 342.072 62.2154C344.297 62.2154 346.035 60.4775 346.035 58.3707C346.035 56.2638 344.297 54.5259 342.072 54.5259ZM329.43 49.6932C327.204 49.6932 325.467 51.4311 325.467 53.538C325.467 55.6448 327.204 57.3827 329.43 57.3827C331.656 57.3827 333.394 55.6448 333.394 53.538C333.513 51.4311 331.656 49.6932 329.43 49.6932ZM316.67 50.8121C314.444 50.8121 312.706 52.55 312.706 54.6569C312.706 56.7637 314.444 58.5016 316.67 58.5016C318.896 58.5016 320.634 56.7637 320.634 54.6569C320.634 52.55 318.896 50.8121 316.67 50.8121ZM307.255 40.2778C305.029 40.2778 303.291 42.0156 303.291 44.1225C303.291 46.2294 305.029 47.9672 307.255 47.9672C309.48 47.9672 311.218 46.2294 311.218 44.1225C311.337 42.0156 309.48 40.2778 307.255 40.2778ZM294.982 32.4692C292.756 32.4692 291.019 34.2071 291.019 36.314C291.019 38.4209 292.756 40.1587 294.982 40.1587C297.208 40.1587 298.946 38.4209 298.946 36.314C298.946 34.2071 297.208 32.4692 294.982 32.4692ZM282.222 27.8865C279.996 27.8865 278.258 29.6244 278.258 31.7313C278.258 33.8381 279.996 35.576 282.222 35.576C284.448 35.576 286.186 33.8381 286.186 31.7313C286.305 29.6244 284.448 27.8865 282.222 27.8865ZM269.212 25.6606C266.986 25.6606 265.248 27.3985 265.248 29.5053C265.248 31.6122 266.986 33.3501 269.212 33.3501C271.438 33.3501 273.176 31.6122 273.176 29.5053C273.176 27.3985 271.438 25.6606 269.212 25.6606ZM145.43 127.386C148.894 125.529 150.144 121.315 148.275 117.97C147.312 116.341 145.755 115.147 143.931 114.639C142.108 114.131 140.158 114.348 138.491 115.244C135.027 117.101 133.777 121.315 135.646 124.66C137.515 128.005 141.966 129.242 145.43 127.386ZM196.733 103.841C200.578 102.853 202.923 99.1273 201.935 95.4135C200.947 91.6997 196.983 89.4619 193.138 90.4618C189.294 91.4616 186.949 95.1754 187.937 98.8893C188.474 100.694 189.692 102.22 191.334 103.144C192.975 104.068 194.911 104.318 196.733 103.841ZM256.452 96.5324C260.415 96.5324 263.641 93.4376 263.641 89.5928C263.626 88.6648 263.427 87.749 263.057 86.8977C262.688 86.0465 262.153 85.2765 261.486 84.6319C260.818 83.9873 260.029 83.4808 259.166 83.1413C258.302 82.8017 257.38 82.6359 256.452 82.6532C255.524 82.6359 254.601 82.8017 253.738 83.1413C252.874 83.4808 252.085 83.9873 251.418 84.6319C250.75 85.2765 250.216 86.0465 249.846 86.8977C249.476 87.749 249.278 88.6648 249.262 89.5928C249.262 93.4376 252.488 96.5324 256.452 96.5324ZM186.687 84.5102C188.913 84.5102 190.651 82.7723 190.651 80.6654C190.651 78.5585 188.913 76.8207 186.687 76.8207C184.461 76.8207 182.723 78.5585 182.723 80.6654C182.604 82.7723 184.461 84.5102 186.687 84.5102ZM190.032 70.631C192.257 70.631 193.995 68.8931 193.995 66.7862C193.995 64.6794 192.257 62.9415 190.032 62.9415C187.806 62.9415 186.068 64.6794 186.068 66.7862C185.949 68.8931 187.806 70.631 190.032 70.631ZM140.348 107.186C142.573 107.186 144.311 105.448 144.311 103.341C144.311 101.234 142.573 99.4963 140.348 99.4963C138.122 99.4963 136.384 101.234 136.384 103.341C136.384 105.448 138.122 107.186 140.348 107.186ZM143.692 93.3066C145.918 93.3066 147.656 91.5688 147.656 89.4619C147.625 88.4314 147.194 87.4535 146.454 86.7357C145.714 86.0179 144.723 85.6167 143.692 85.6171C141.466 85.6171 139.729 87.355 139.729 89.4619C139.729 91.5688 141.466 93.3066 143.692 93.3066ZM149.644 81.1653C151.87 81.1653 153.608 79.4275 153.608 77.3206C153.608 75.2137 151.87 73.4759 149.644 73.4759C147.418 73.4759 145.68 75.2137 145.68 77.3206C145.68 79.4275 147.537 81.1653 149.644 81.1653ZM159.19 70.381C161.416 70.381 163.154 68.6432 163.154 66.5363C163.154 64.4294 161.416 62.6915 159.19 62.6915C156.964 62.6915 155.227 64.4294 155.227 66.5363C155.227 68.6432 156.964 70.381 159.19 70.381ZM170.844 62.2035C173.069 62.2035 174.807 60.4656 174.807 58.3588C174.807 56.2519 173.069 54.514 170.844 54.514C168.618 54.514 166.88 56.2519 166.88 58.3588C166.88 60.4656 168.737 62.2035 170.844 62.2035ZM183.485 57.4898C185.711 57.4898 187.449 55.752 187.449 53.6451C187.449 51.5382 185.711 49.8003 183.485 49.8003C181.259 49.8003 179.521 51.5382 179.521 53.6451C179.521 55.752 181.259 57.4898 183.485 57.4898ZM196.245 58.4778C198.471 58.4778 200.209 56.7399 200.209 54.6331C200.209 52.5262 198.471 50.7883 196.245 50.7883C194.019 50.7883 192.281 52.5262 192.281 54.6331C192.281 56.7399 194.019 58.4778 196.245 58.4778ZM205.661 48.0744C207.886 48.0744 209.624 46.3365 209.624 44.2296C209.624 42.1228 207.886 40.3849 205.661 40.3849C203.435 40.3849 201.697 42.1228 201.697 44.2296C201.697 46.3365 203.435 48.0744 205.661 48.0744ZM217.933 40.1468C220.159 40.1468 221.897 38.409 221.897 36.3021C221.897 34.1952 220.159 32.4573 217.933 32.4573C215.707 32.4573 213.969 34.1952 213.969 36.3021C213.969 38.409 215.707 40.1468 217.933 40.1468ZM230.693 35.5641C232.919 35.5641 234.657 33.8262 234.657 31.7193C234.657 29.6125 232.919 27.8746 230.693 27.8746C228.467 27.8746 226.729 29.6125 226.729 31.7193C226.729 33.8262 228.467 35.5641 230.693 35.5641ZM256.452 73.4759C258.678 73.4759 260.415 71.738 260.415 69.6311C260.415 67.5242 258.678 65.7864 256.452 65.7864C254.226 65.7864 252.488 67.5242 252.488 69.6311C252.488 71.738 254.226 73.4759 256.452 73.4759ZM256.452 59.4777C258.678 59.4777 260.415 57.7398 260.415 55.6329C260.415 53.5261 258.678 51.7882 256.452 51.7882C254.226 51.7882 252.488 53.5261 252.488 55.6329C252.488 57.7398 254.226 59.4777 256.452 59.4777ZM256.452 45.4795C258.678 45.4795 260.415 43.7416 260.415 41.6347C260.415 39.5279 258.678 37.79 256.452 37.79C254.226 37.79 252.488 39.5279 252.488 41.6347C252.488 43.7416 254.226 45.4795 256.452 45.4795ZM243.81 33.3382C246.036 33.3382 247.774 31.6003 247.774 29.4934C247.743 28.463 247.312 27.4851 246.572 26.7673C245.832 26.0495 244.841 25.6482 243.81 25.6487C241.584 25.6487 239.716 27.3866 239.716 29.4934C239.716 31.7193 241.573 33.3382 243.81 33.3382ZM353.844 128.135C357.189 129.873 359.795 129.123 363.009 128.016C357.677 125.41 354.832 123.065 357.308 116.994C358.427 114.268 359.784 112.161 362.759 111.292C360.902 87.6288 354.082 76.3445 331.787 65.5721L330.18 66.0721C330.18 66.322 330.299 66.572 330.299 66.941C330.299 70.1668 328.442 71.7737 325.966 73.5116C329.93 74.2496 333.525 76.1184 333.525 80.7011C333.525 84.5459 330.799 86.6527 327.335 87.6407C328.454 89.7476 328.704 90.6165 328.454 93.0924C333.037 95.1992 334.025 97.9251 332.787 102.508C331.049 108.947 327.085 109.566 320.765 107.96C320.424 109.927 320.764 111.952 321.727 113.702C322.69 115.451 324.22 116.82 326.065 117.585C327.91 118.349 329.96 118.463 331.878 117.908C333.796 117.353 335.468 116.162 336.62 114.53C336.62 113.911 336.739 113.411 336.87 112.792C337.858 109.078 341.822 106.722 345.797 107.71C349.773 108.698 352.118 112.542 350.999 116.256C350.63 117.494 350.011 118.482 349.142 119.351C349.023 123.065 350.63 126.41 353.856 128.147L353.844 128.135ZM250.25 41.5157C250.25 41.0158 250.369 40.5277 250.369 39.9088C221.254 37.8019 200.304 57.0137 197.459 84.0221C200.066 85.0101 201.054 86.129 202.173 88.6049C207.256 88.3549 209.481 90.3427 210.719 94.7945C212.457 101.115 209.231 103.591 202.911 105.198C204.768 109.293 208.613 112.138 213.564 110.9C215.44 110.471 217.114 109.416 218.309 107.907C219.504 106.399 220.148 104.527 220.135 102.603C219.397 101.506 219.007 100.212 219.016 98.8893C219.016 95.0445 222.242 91.8306 226.325 91.8306C230.288 91.8306 233.633 94.9255 233.633 98.8893C233.631 99.6463 233.506 100.398 233.264 101.115C233.788 102.966 234.911 104.591 236.458 105.735C238.005 106.879 239.887 107.477 241.811 107.436C246.893 107.436 249.869 103.841 250.607 99.3773C244.167 99.3773 240.442 97.7703 240.442 91.1998C240.442 86.4861 242.18 84.1412 247.131 83.1413C248.25 77.3206 251.345 76.9516 256.297 76.2017C261.38 77.0706 264.355 77.3206 265.462 83.1413C270.414 84.1292 272.152 86.4861 272.152 91.1998C272.152 97.7703 268.438 99.3773 261.987 99.3773C262.725 103.841 265.7 107.436 270.783 107.436C272.697 107.438 274.561 106.824 276.1 105.686C277.638 104.548 278.771 102.946 279.33 101.115C279.087 100.398 278.963 99.6463 278.961 98.8893C278.961 95.0445 282.186 91.8306 286.269 91.8306C290.352 91.8306 293.578 94.9255 293.578 98.8893C293.588 100.212 293.198 101.507 292.459 102.603C292.578 106.567 295.066 109.912 299.029 110.9C303.981 112.138 307.826 109.293 309.683 105.198C303.362 103.591 300.267 101.103 301.874 94.7945C303.112 90.3308 305.338 88.3549 310.421 88.6049C311.659 86.129 312.528 85.0101 315.135 84.0221C312.29 57.0137 291.471 37.8019 262.225 39.9088C262.33 40.4375 262.37 40.9772 262.344 41.5157C262.344 42.8846 261.844 43.9916 261.106 45.1105V51.931C261.844 53.0499 262.344 54.1569 262.344 55.5258C262.344 56.8947 261.844 58.0017 261.106 59.1206L261.225 66.1792C261.844 67.1672 262.344 68.2861 262.344 69.524C262.344 73.6187 259.249 74.7257 256.154 76.0946C253.059 74.7257 249.964 73.4878 249.964 69.524C249.964 68.1551 250.464 67.0481 251.202 65.9292V59.2396C250.429 58.1975 249.997 56.942 249.964 55.6448C249.964 54.276 250.464 53.169 251.202 52.0501V45.1105C250.559 44.0213 250.218 42.7805 250.214 41.5157H250.25ZM155.584 116.97C157.94 123.041 155.215 125.398 149.882 127.993C153.108 129.112 155.703 129.85 159.047 128.112C160.586 127.326 161.841 126.081 162.641 124.55C163.441 123.019 163.745 121.277 163.511 119.565C162.639 118.709 162 117.643 161.654 116.47C161.24 114.614 161.565 112.67 162.56 111.05C163.556 109.43 165.144 108.261 166.987 107.793C168.048 107.513 169.159 107.477 170.236 107.685C171.314 107.894 172.331 108.342 173.211 108.997C174.092 109.652 174.813 110.498 175.322 111.47C175.832 112.442 176.115 113.517 176.152 114.613C181.723 121.672 193.007 117.958 192.008 108.043C185.687 109.531 181.723 108.912 179.985 102.591C178.747 98.1275 179.735 95.2826 184.318 93.1757C184.045 91.2836 184.441 89.3557 185.437 87.724C181.973 86.7361 179.247 84.6292 179.247 80.7844C179.247 76.0708 182.842 74.3448 186.806 73.5949C184.449 71.738 182.592 70.2501 182.592 67.0243C182.592 66.7743 182.592 66.4053 180.985 65.9054C158.309 76.6897 151.989 87.5931 150.013 111.507C153.108 112.245 154.477 114.244 155.584 116.97ZM348.392 139.396C320.515 126.755 289.281 119.565 256.452 119.565C223.622 119.565 192.519 126.624 164.63 139.265C162.773 140.134 160.666 139.265 159.797 137.527C158.928 135.67 159.797 134.301 160.666 132.813C154.965 134.551 150.751 134.551 145.799 130.826C136.634 136.777 126.099 124.505 133.039 118.934C129.813 114.84 129.813 110.388 134.527 107.412C133.635 106.188 133.155 104.713 133.158 103.198C133.158 98.6155 136.753 96.7586 140.717 96.0087C138.36 94.2708 136.503 92.6639 136.503 89.4381C136.503 84.7244 140.348 82.7485 144.43 82.3795C143.311 80.6416 142.442 79.4037 142.442 77.2968C142.442 73.4521 145.668 70.3572 149.751 70.3572C150.989 70.3572 152.227 70.7262 153.346 71.0952C152.608 69.4883 151.977 68.2503 151.977 66.5125C151.977 62.6677 155.203 59.5729 159.286 59.5729C161.273 59.5729 162.38 60.3109 164.118 61.0608C163.832 60.1782 163.664 59.2616 163.618 58.335C163.618 54.4902 166.844 51.2763 170.927 51.2763C173.153 51.2763 174.391 52.1453 176.129 53.2642C176.998 49.5504 179.104 46.5746 183.437 46.5746C186.663 46.5746 188.52 48.3124 190.127 50.6693C191.865 48.8124 193.472 47.5744 196.197 47.5744C197.316 47.5744 198.304 47.8244 199.423 48.0744C198.752 46.8561 198.369 45.5 198.304 44.1106C198.304 40.2659 201.53 37.171 205.494 37.171C207.851 37.171 209.089 38.159 210.946 39.2779C210.827 38.409 210.446 37.2901 210.446 36.3021C210.446 32.4573 213.671 29.3625 217.754 29.3625C220.111 29.3625 221.349 30.2314 223.087 31.4694C223.956 27.7556 226.063 24.7798 230.526 24.7798C233.252 24.7798 234.74 25.8987 236.478 27.6246C237.847 24.6488 239.823 22.542 243.537 22.542C244.515 22.5692 245.48 22.7792 246.381 23.1609C248.283 20.8969 250.913 19.3651 253.821 18.8282V11.4005H247.75V6.93683H253.821V1.61609H258.654V6.94873H264.724V11.2815H258.654V18.721C261.551 19.2854 264.173 20.8123 266.093 23.0538C266.995 22.672 267.96 22.4621 268.938 22.4348C272.652 22.4348 274.64 24.6607 275.997 27.5175C277.735 25.7796 279.342 24.6726 281.948 24.6726C286.412 24.6726 288.519 27.7675 289.257 31.3623C290.995 30.1243 292.352 29.2554 294.709 29.2554C298.672 29.2554 302.017 32.3502 302.017 36.195C302.017 37.1829 301.767 38.3018 301.648 39.1708C303.505 38.0519 304.743 37.1829 307.1 37.1829C311.064 37.1829 314.408 40.2778 314.408 44.1225C314.408 45.6104 313.908 46.7293 313.289 48.0863C314.34 47.7893 315.424 47.6214 316.515 47.5863C319.241 47.5863 320.848 48.8243 322.586 50.6812C324.193 48.2053 326.05 46.5865 329.276 46.5865C333.739 46.5865 335.846 49.6813 336.715 53.2761C338.453 52.1572 339.691 51.2882 341.917 51.2882C345.881 51.2882 349.225 54.3831 349.225 58.3469C349.225 59.2158 348.975 60.2038 348.856 61.0727C350.463 60.2038 351.701 59.5848 353.57 59.5848C357.534 59.5848 360.879 62.6796 360.879 66.5244C360.879 68.2622 360.26 69.5002 359.51 70.9881C360.748 70.6191 361.867 70.2501 363.224 70.2501C367.187 70.2501 370.532 73.3449 370.532 77.1897C370.532 79.2965 369.663 80.5345 368.544 82.2723C372.758 82.6413 376.603 84.6292 376.603 89.331C376.603 92.5567 374.746 94.1637 372.389 95.9015C376.353 96.7705 379.948 98.5084 379.948 103.091C379.948 104.829 379.448 105.936 378.579 107.305C383.411 110.281 383.292 114.613 380.067 118.708C384.28 122.053 382.054 127.255 378.579 129.98C374.984 132.706 371.27 133.206 367.306 130.599C362.355 134.313 358.141 134.313 352.439 132.587L353.308 134.325C354.427 137.42 351.57 140.515 348.356 139.408L348.392 139.396ZM174.176 146.455L168.225 144.348L167.725 143.479C167.225 143.729 166.856 143.729 166.487 143.848C164.88 143.967 164.999 142.241 165.749 141.86C193.257 129.35 223.861 122.41 256.333 122.41C288.805 122.41 319.408 129.35 346.916 141.86C347.654 142.229 347.785 143.967 346.178 143.848C345.809 143.848 345.44 143.729 344.94 143.479L344.44 144.348L338.489 146.455L340.227 153.025L339.727 154.144C342.821 155.513 340.715 157.739 339.358 157.12C314.075 145.598 285.948 139.277 256.214 139.277C226.479 139.277 198.352 145.598 173.069 157.12C172.451 157.37 171.701 157.12 171.332 156.382C170.963 155.644 171.332 155.144 171.832 154.644C172.082 154.394 172.451 154.275 172.82 154.144L172.32 153.025L174.176 146.455ZM207.018 141.622L219.659 133.075L204.292 131.468L191.65 140.015L207.018 141.622ZM331.668 149.549C334.513 149.549 336.87 147.323 336.87 144.598C336.87 141.872 334.513 139.646 331.668 139.646C328.823 139.646 326.466 141.872 326.466 144.598C326.585 147.323 328.823 149.549 331.668 149.549ZM230.8 136.658C233.645 136.658 236.002 134.432 236.002 131.706C236.002 128.981 233.645 126.755 230.8 126.755C227.955 126.755 225.598 128.981 225.598 131.706C225.598 134.432 227.955 136.658 230.8 136.658ZM181.235 149.549C184.08 149.549 186.437 147.323 186.437 144.598C186.437 141.872 184.211 139.646 181.235 139.646C178.39 139.646 176.033 141.872 176.033 144.598C176.033 147.323 178.39 149.549 181.235 149.549ZM282.103 136.658C284.948 136.658 287.305 134.432 287.305 131.706C287.305 128.981 284.948 126.755 282.103 126.755C281.444 126.744 280.788 126.863 280.175 127.107C279.562 127.35 279.003 127.712 278.531 128.172C278.058 128.633 277.682 129.182 277.422 129.789C277.163 130.395 277.027 131.047 277.02 131.706C277.02 134.432 279.377 136.658 282.103 136.658ZM305.898 141.61L321.265 140.003L308.623 131.456L293.256 133.063L305.898 141.61ZM272.569 130.338L256.452 124.529L240.347 130.349L256.452 136.17L272.569 130.338ZM89.6636 328.122C89.6636 416.717 164.749 489.208 256.452 489.208C348.273 489.208 423.359 416.717 423.359 328.122C423.359 239.276 348.273 167.035 256.452 167.035C164.63 167.035 89.6636 239.276 89.6636 328.122ZM441.452 328.122C441.452 426.383 358.427 506.682 256.452 506.682C154.477 506.682 71.4517 426.383 71.4517 328.122C71.4517 229.741 154.477 149.442 256.452 149.442C358.427 149.323 441.452 229.61 441.452 328.122ZM232.169 252.155L256.333 275.95L278.889 252.905C270.962 250.917 263.403 249.441 255.095 249.191C247.417 248.822 239.609 250.548 232.169 252.155ZM295.732 235.55L331.168 200.233C377.019 225.635 407.873 273.212 407.873 327.61C407.873 363.046 394.862 395.518 372.925 420.919L356.439 404.933C375.02 382.995 387.173 361.189 387.173 326.253C387.173 288.96 366.973 247.322 334.763 225.766L313.456 246.834C324.359 254.762 333.037 262.69 340.346 273.843L324.11 287.353C317.67 276.45 309.361 268.772 298.708 261.702L256.333 304.827L212.338 261.083C189.544 276.45 176.152 298.375 175.533 325.646C174.795 361.951 199.078 387.102 233.157 398.136V325.277H285.198V340.275H253.357V359.725H284.829V376.83H253.357V401.362C276.651 402.481 301.553 389.471 316.67 373.354L332.287 388.59C312.337 410.897 283.591 422.169 253.476 422.419V444.845H233.276V420.062C187.306 409.04 153.977 370.128 154.596 323.658C154.965 291.817 172.558 265.665 198.09 247.084L176.533 225.528C143.073 251.917 125.111 284.139 123.623 326.015C122.505 363.069 142.335 392.804 154.846 405.314L140.348 419.562C117.922 394.28 104.662 363.058 104.662 327.491C104.662 273.462 135.515 225.885 180.985 200.483L216.921 236.669C229.681 231.955 242.941 229.48 256.571 229.48C269.57 229.674 282.439 232.106 294.613 236.669L295.732 235.55Z" fill="#FCBF00"/>
<path d="M446.903 328.122C446.903 429.359 361.402 512.003 256.452 512.003C151.37 512.003 66 429.359 66 328.122C66 226.754 151.501 143.991 256.452 143.991C361.533 143.991 446.903 226.766 446.903 328.122ZM441.452 328.122C441.452 229.741 358.427 149.442 256.452 149.442C154.477 149.442 71.4517 229.73 71.4517 328.122C71.4517 426.383 154.477 506.682 256.452 506.682C358.427 506.682 441.452 426.383 441.452 328.122ZM95.1153 328.122C95.1153 413.742 167.725 483.875 256.452 483.875C345.178 483.875 417.788 413.861 417.788 328.122C417.788 242.252 345.178 172.487 256.452 172.487C167.737 172.368 95.1153 242.252 95.1153 328.122ZM89.6636 328.122C89.6636 239.276 164.749 167.035 256.452 167.035C348.273 167.035 423.359 239.276 423.359 328.122C423.359 416.717 348.273 489.208 256.452 489.208C164.63 489.089 89.6636 416.717 89.6636 328.122ZM276.021 292.555L366.223 382.388C376.508 366.033 381.709 349.309 381.709 326.134C381.709 285.734 358.165 248.941 335.489 232.586L321.86 246.096C332.139 253.983 340.841 263.735 347.511 274.843L322.479 295.781C316.527 284.377 310.207 276.331 299.434 268.772L276.021 292.555ZM390.387 406.433C374.151 433.072 349.368 454.141 320.003 466.782L305.398 452.403L278.139 425.514C271.824 426.887 265.389 427.633 258.927 427.74V450.296H227.705V424.276C180.866 412.004 148.525 369.628 149.025 323.658C149.144 315.98 150.263 308.541 152.12 301.351L136.753 286.234C132.17 298.625 129.563 312.005 129.075 326.253C128.206 354.749 141.097 385.602 162.535 405.302L139.979 427.478C113.458 398.732 98.96 366.391 98.96 327.479C98.96 270.724 131.182 221.159 181.854 193.901L218.159 230.575C230.181 226.361 243.81 224.254 256.321 224.254C269.831 224.373 282.091 226.73 293.125 230.575L330.049 193.52C381.102 220.909 413.312 270.474 413.312 327.586C413.431 356.582 405.385 382.853 390.387 406.397V406.433ZM227.562 375.83L180.985 329.979C182.104 355.63 198.328 379.913 227.574 390.697L227.562 375.83ZM295.732 235.55L294.494 236.788C282.353 232.112 269.463 229.68 256.452 229.611C242.822 229.611 229.562 232.086 216.802 236.8L180.866 200.614C135.396 225.897 104.543 273.474 104.543 327.503C104.543 363.189 117.803 394.292 140.229 419.574L154.727 405.326C142.216 392.816 122.386 363.069 123.504 326.027C124.992 284.139 142.954 251.929 176.414 225.54L197.971 247.096C172.451 265.677 154.846 291.829 154.477 323.67C153.858 370.14 187.068 409.04 233.157 420.074V444.857H253.357V422.407C283.591 422.157 312.337 410.885 332.168 388.578L316.551 373.342C301.434 389.447 276.651 402.588 253.238 401.35V376.818H284.71V359.713H253.238V340.263H285.079V325.265H233.038V398.124C198.959 387.102 174.557 361.939 175.414 325.634C176.033 298.375 189.413 276.438 212.219 261.071L256.214 304.815L298.589 261.69C309.373 268.748 317.551 276.438 323.991 287.341L340.227 273.831C332.918 262.678 324.24 254.75 313.337 246.823L334.644 225.754C366.866 247.311 387.054 288.948 387.054 326.241C387.054 361.058 374.913 382.996 356.32 404.921L372.806 420.907C395.361 395.057 407.778 361.905 407.754 327.598C407.754 273.2 376.9 225.623 331.049 200.221L295.732 235.55ZM232.169 252.155C239.609 250.548 247.405 248.81 255.095 249.06C263.391 249.31 270.95 250.798 278.889 252.774L256.333 275.819L232.169 252.155ZM243.191 255.381L256.202 268.272L268.343 255.881C264.01 255.012 259.546 254.643 254.833 254.512C251.988 254.393 247.655 254.762 243.191 255.381ZM340.096 147.204L341.214 151.537L341.714 153.025L342.583 152.525L346.797 150.299L345.678 146.086L345.428 145.217L340.096 147.204ZM348.392 139.396C351.618 140.515 354.463 137.289 352.975 134.563L352.106 132.825C357.808 134.563 362.021 134.563 366.973 130.838C370.937 133.444 374.532 132.944 378.245 130.219C381.84 127.493 383.947 122.291 379.733 118.946C382.959 114.852 383.078 110.4 378.245 107.543C379.114 106.174 379.614 105.067 379.614 103.329C379.614 98.7465 376.02 96.8896 372.056 96.1397C374.413 94.2828 376.27 92.7949 376.27 89.5691C376.27 84.8554 372.425 82.8795 368.211 82.5105C369.33 80.7726 370.199 79.6656 370.199 77.4278C370.199 73.5831 366.973 70.4882 362.89 70.4882C361.652 70.4882 360.414 70.8572 359.176 71.2262C359.914 69.6193 360.545 68.5004 360.545 66.7625C360.545 62.9178 357.32 59.8229 353.237 59.8229C351.249 59.8229 350.142 60.4419 348.523 61.3108C348.642 60.4419 348.892 59.4539 348.892 58.585C348.858 56.6802 348.069 54.8669 346.698 53.5435C345.328 52.22 343.488 51.4945 341.583 51.5264C339.358 51.5264 338.12 52.3953 336.382 53.5142C335.513 49.8004 333.406 46.8246 328.942 46.8246C325.716 46.8246 323.86 48.5625 322.253 50.9193C320.515 49.0624 318.908 47.8245 316.182 47.8245C315.063 47.8245 313.956 48.0744 312.956 48.3244C313.575 46.9555 314.075 45.8485 314.075 44.3606C314.075 40.5159 310.849 37.4211 306.767 37.4211C304.41 37.4211 303.172 38.29 301.315 39.4089C301.434 38.54 301.684 37.4211 301.684 36.4331C301.684 32.5883 298.458 29.4935 294.375 29.4935C292.018 29.4935 290.781 30.3624 288.924 31.6004C288.055 27.8866 285.948 24.9108 281.615 24.9108C278.889 24.9108 277.401 26.0297 275.663 27.7556C274.176 24.7798 272.319 22.673 268.605 22.673C267.486 22.673 266.748 22.9229 265.76 23.2919C263.858 21.0279 261.228 19.4961 258.32 18.9592V11.5196H264.391V6.9369H258.32V1.61615H253.488V6.9488H247.417V11.2816H253.488V18.7211C250.393 19.4591 248.405 20.578 246.048 23.0539C245.147 22.6724 244.182 22.4624 243.203 22.4349C239.49 22.4349 237.502 24.6608 236.145 27.5176C234.407 25.7797 232.8 24.6727 230.193 24.6727C225.729 24.6727 223.623 27.7675 222.754 31.3623C221.016 30.1244 219.659 29.2554 217.421 29.2554C213.457 29.2554 210.112 32.3503 210.112 36.195C210.112 37.183 210.362 38.3019 210.612 39.1708C208.755 38.0519 207.387 37.064 205.161 37.064C204.233 37.0466 203.31 37.2124 202.447 37.552C201.583 37.8915 200.794 38.3981 200.127 39.0426C199.459 39.6872 198.925 40.4572 198.555 41.3084C198.185 42.1597 197.987 43.0755 197.971 44.0035C197.971 45.4914 198.471 46.6103 199.09 47.9673C197.971 47.7173 196.983 47.4674 195.864 47.4674C193.138 47.4674 191.531 48.7053 189.794 50.5622C188.187 48.0863 186.33 46.4675 183.104 46.4675C178.64 46.4675 176.533 49.5623 175.795 53.1571C174.426 52.1692 173.07 51.3002 170.844 51.3002C168.939 51.2684 167.099 51.9938 165.729 53.3173C164.358 54.6408 163.569 56.454 163.535 58.3588C163.535 59.2278 163.785 60.2157 163.904 61.0847C162.512 60.1304 160.866 59.6124 159.178 59.5968C155.215 59.5968 151.87 62.6916 151.87 66.5363C151.87 68.2742 152.489 69.5122 153.239 71.0001C152.12 70.7501 151.013 70.3811 149.644 70.3811C145.68 70.3811 142.335 73.4759 142.335 77.3207C142.335 79.4275 143.204 80.6655 144.323 82.4033C140.229 82.7723 136.515 84.7602 136.515 89.462C136.515 92.6877 138.372 94.2947 140.728 96.0325C136.765 96.9015 133.17 98.6393 133.17 103.222C133.17 104.96 133.67 106.067 134.539 107.436C129.825 110.412 129.825 114.875 133.051 118.958C126.111 124.529 136.646 136.92 145.811 130.849C150.763 134.563 154.977 134.563 160.678 132.837C159.94 134.444 158.94 135.813 159.809 137.551C160.006 137.988 160.289 138.381 160.641 138.706C160.992 139.032 161.406 139.283 161.857 139.445C162.308 139.607 162.787 139.677 163.265 139.65C163.744 139.623 164.212 139.5 164.642 139.289C192.519 126.648 223.623 119.589 256.464 119.589C289.424 119.708 320.527 126.779 348.404 139.42L348.392 139.396ZM172.808 147.204L168.963 145.836L167.475 145.336L167.225 146.205L166.106 150.299L170.32 152.525L171.189 153.025L171.558 151.418L172.808 147.204ZM170.332 153.894L164.761 150.918L166.13 145.586C164.023 145.336 163.035 142.979 164.023 141.372C162.88 141.539 161.714 141.341 160.691 140.807C159.667 140.273 158.838 139.429 158.321 138.396C157.821 137.408 157.702 136.408 157.821 135.42C155.754 135.836 153.624 135.83 151.559 135.405C149.493 134.98 147.534 134.143 145.799 132.944C136.015 138.646 124.492 125.017 130.801 118.696C127.956 114.602 128.694 109.65 132.289 106.924C131.684 105.782 131.384 104.502 131.42 103.21C131.42 99.6154 133.777 96.5206 136.991 95.1517C135.558 93.5992 134.763 91.5631 134.765 89.4501C134.765 85.3553 137.741 82.0105 141.585 81.0226C140.98 79.8804 140.681 78.601 140.717 77.3088C140.717 72.4761 144.68 68.6313 149.644 68.6313H150.513C150.204 67.3318 150.197 65.9789 150.491 64.6761C150.785 63.3733 151.374 62.155 152.211 61.1143C153.048 60.0737 154.112 59.2383 155.322 58.672C156.532 58.1057 157.855 57.8235 159.19 57.847C160.112 57.8391 161.03 57.9633 161.916 58.216C161.916 53.5023 166.011 49.6695 170.844 49.6695C172.267 49.672 173.67 50.0105 174.938 50.6574C176.176 47.3126 179.521 44.9558 183.366 44.9558C184.688 44.9537 185.995 45.2414 187.193 45.7988C188.392 46.3561 189.455 47.1694 190.305 48.1816C191.966 46.7778 194.083 46.0286 196.257 46.0747H196.876C196.757 45.4557 196.626 44.8368 196.626 44.2178C196.626 39.3851 200.59 35.5403 205.553 35.5403C206.791 35.5403 207.91 35.7903 208.898 36.1593C209.017 31.4456 212.993 27.6128 217.826 27.6128C219.433 27.6128 220.92 27.9818 222.158 28.7317C223.396 25.3869 226.741 23.0301 230.586 23.0301C232.693 23.0301 234.55 23.649 236.038 24.887C237.645 22.5301 240.37 20.9232 243.596 20.9232C244.465 20.9232 245.203 21.0422 245.953 21.2922C247.441 19.8043 249.179 18.6854 251.286 17.8283L252.155 17.4593V12.9956H246.084V5.32996H252.155V-0.00268555H260.451V5.32996H266.522V13.0075H260.451V17.4712L261.32 17.8403C263.345 18.5603 265.172 19.7469 266.653 21.3041C267.391 21.0541 268.141 20.9351 269.01 20.9351C272.235 20.9351 274.961 22.542 276.568 24.8989C278.056 23.78 280.032 23.042 282.02 23.042C285.864 23.042 289.209 25.3988 290.447 28.7436C291.685 28.0056 293.173 27.6247 294.78 27.6247C299.732 27.6247 303.707 31.4694 303.707 36.1712C304.695 35.8022 305.814 35.5522 307.052 35.5522C312.004 35.5522 315.98 39.397 315.98 44.2297C315.98 44.8487 315.98 45.4676 315.73 46.0866H316.349C318.509 46.1217 320.599 46.8615 322.3 48.1935C323.907 46.2056 326.395 44.9677 329.24 44.9677C333.085 44.9677 336.429 47.3245 337.667 50.6693C338.935 50.0224 340.338 49.6839 341.762 49.6814C346.714 49.6814 350.689 53.5261 350.689 58.2279C351.576 57.9756 352.494 57.8513 353.415 57.8589C358.367 57.8589 362.343 61.7036 362.343 66.5363C362.343 67.2743 362.224 68.0242 362.093 68.7623H362.962C367.913 68.7623 371.889 72.607 371.889 77.4397C371.889 78.8086 371.52 80.0465 371.02 81.1535C374.984 82.0224 377.841 85.4863 377.841 89.581C377.832 91.7519 376.988 93.8362 375.484 95.4017C377.149 95.9932 378.591 97.085 379.611 98.5276C380.632 99.9702 381.182 101.693 381.186 103.46C381.186 104.829 380.817 106.067 380.317 107.174C383.911 109.9 384.649 114.852 381.804 118.946C385.768 122.91 382.304 129.231 378.96 131.837C375.734 134.313 371.151 135.801 366.687 133.206C363.224 135.563 358.879 136.551 354.665 135.682C355.165 139.146 351.939 142.122 348.475 141.634C349.463 143.241 348.475 145.598 346.369 145.848L347.737 151.18L342.167 154.156C342.905 155.025 343.036 156.263 342.536 157.382C341.798 158.87 340.06 159.739 338.441 158.989C313.409 147.585 285.531 141.265 255.916 141.265C227.494 141.196 199.39 147.24 173.51 158.989C171.903 159.727 170.165 158.87 169.415 157.382C169.534 156.013 169.665 154.775 170.403 153.918L170.332 153.894ZM174.177 146.455L172.439 153.025L172.939 154.144C172.689 154.263 172.32 154.394 171.951 154.644C171.451 155.013 171.082 155.513 171.451 156.382C171.82 157.12 172.57 157.37 173.189 157.12C198.471 145.598 226.598 139.277 256.333 139.277C286.198 139.277 314.194 145.598 339.477 157.12C340.715 157.739 342.94 155.513 339.846 154.144L340.346 153.025L338.608 146.455L344.559 144.348L345.059 143.479C345.559 143.729 345.928 143.729 346.297 143.848C347.904 143.967 347.785 142.241 347.035 141.86C318.583 128.963 287.69 122.334 256.452 122.422C223.992 122.422 193.376 129.362 165.868 141.872C165.13 142.241 164.999 143.979 166.606 143.86C166.975 143.86 167.344 143.741 167.844 143.491L168.213 144.36L174.177 146.455ZM310.23 69.8811C303.172 52.6572 286.567 40.385 264.51 41.5039C264.51 42.9918 264.01 44.3487 263.272 45.5986V51.4193C264.01 52.6572 264.51 54.0261 264.51 55.514C264.51 57.0019 264.01 58.4898 263.272 59.6087V63.3225C278.389 61.3346 296.232 62.8106 310.23 69.8811ZM263.141 65.5484C264.193 67.1249 264.599 69.0452 264.276 70.9126C263.953 72.78 262.924 74.4519 261.403 75.5828C264.129 76.4517 266.236 78.4277 266.974 81.9034C272.426 83.1413 273.914 87.1051 273.914 91.3189C273.914 96.4015 271.807 100.734 264.129 101.103C264.998 103.948 267.724 105.936 270.95 105.936C272.418 105.948 273.852 105.5 275.052 104.654C276.252 103.809 277.157 102.609 277.639 101.222C277.389 100.484 277.389 99.7345 277.389 98.9965C277.389 94.1637 281.484 90.319 286.436 90.319C291.388 90.319 295.482 94.1637 295.482 98.9965C295.482 100.484 295.113 101.841 294.363 103.091C294.482 106.067 296.589 108.543 299.696 109.412C302.791 110.15 305.886 108.912 307.505 106.317C300.196 104.091 299.208 99.3773 300.565 94.4256C301.684 90.3309 304.16 86.8671 309.611 86.9861C310.599 84.9983 311.968 83.7603 313.575 83.0223C313.075 78.9276 312.206 75.0948 310.73 71.3691C296.351 63.6915 277.651 62.3226 263.153 64.4295L263.141 65.5484ZM250.25 41.5039C250.25 42.8727 250.75 43.9797 251.488 45.0986V51.9192C250.75 53.0381 250.25 54.1451 250.25 55.514C250.25 56.8828 250.75 57.9898 251.488 59.1087V66.0483C250.75 67.1672 250.25 68.2742 250.25 69.6431C250.25 73.7378 253.345 74.8448 256.44 76.2137C259.535 74.8448 262.629 73.6069 262.629 69.6431C262.629 68.4052 262.26 67.1672 261.51 66.2983L261.391 59.2397C262.129 58.1208 262.629 57.0138 262.629 55.6449C262.629 54.276 262.129 53.169 261.391 52.0501V45.1105C262.129 43.9916 262.629 42.8846 262.629 41.5158C262.629 41.0158 262.51 40.5278 262.51 39.9088C291.626 37.802 312.575 57.0138 315.42 84.0222C312.813 85.0102 311.825 86.1291 310.707 88.6049C305.624 88.355 303.398 90.3428 302.16 94.7946C300.422 101.115 303.648 103.591 309.969 105.198C308.112 109.293 304.267 112.138 299.315 110.9C297.44 110.469 295.767 109.413 294.573 107.905C293.379 106.397 292.734 104.527 292.745 102.603C293.483 101.506 293.873 100.212 293.863 98.8893C293.829 96.9845 293.04 95.1713 291.67 93.8478C290.299 92.5243 288.46 91.7989 286.555 91.8307C284.65 91.7989 282.81 92.5243 281.44 93.8478C280.07 95.1713 279.281 96.9845 279.246 98.8893C279.249 99.6463 279.373 100.398 279.615 101.115C279.074 102.956 277.946 104.569 276.403 105.71C274.86 106.851 272.987 107.457 271.069 107.436C265.986 107.436 263.01 103.841 262.272 99.3773C268.712 99.3773 272.438 97.7704 272.438 91.1998C272.438 86.4862 270.7 84.1412 265.748 83.1413C264.629 77.3207 261.534 76.9517 256.583 76.2018C251.5 77.0707 248.524 77.3207 247.417 83.1413C242.465 84.1293 240.727 86.4862 240.727 91.1998C240.727 97.7704 244.441 99.3773 250.893 99.3773C250.155 103.841 247.179 107.436 242.096 107.436C240.182 107.438 238.319 106.824 236.78 105.686C235.241 104.548 234.109 102.946 233.55 101.115C233.792 100.398 233.917 99.6463 233.919 98.8893C233.884 96.9845 233.095 95.1713 231.725 93.8478C230.355 92.5243 228.515 91.7989 226.61 91.8307C222.516 91.8307 219.302 94.9255 219.302 98.8893C219.291 100.212 219.681 101.507 220.421 102.603C220.302 106.567 217.814 109.912 213.85 110.9C208.898 112.138 205.053 109.293 203.197 105.198C209.517 103.591 212.612 101.103 211.005 94.7946C209.767 90.3309 207.541 88.355 202.459 88.6049C201.221 86.1291 200.352 85.0102 197.745 84.0222C200.59 57.0138 221.409 37.802 250.655 39.9088C250.429 40.4155 250.304 40.9613 250.286 41.5158L250.25 41.5039ZM202.054 71.5C200.685 75.2138 199.697 79.0585 199.328 83.1533C200.935 83.8913 202.304 85.1411 203.292 87.117C208.863 86.998 211.35 90.4618 212.457 94.5565C213.826 99.5083 212.826 104.222 205.518 106.448C207.125 108.924 210.231 110.293 213.326 109.543C216.421 108.793 218.528 106.198 218.659 103.222C217.915 101.987 217.528 100.569 217.54 99.1274C217.54 94.2947 221.635 90.4499 226.586 90.4499C231.538 90.4499 235.633 94.2947 235.633 99.1274C235.633 99.8654 235.514 100.615 235.383 101.353C235.881 102.73 236.789 103.92 237.986 104.763C239.182 105.606 240.609 106.061 242.073 106.067C245.298 106.067 247.893 104.079 248.893 101.234C241.215 100.865 239.109 96.5206 239.109 91.4498C239.109 87.117 240.597 83.2723 246.048 82.0343C246.354 80.5903 247.027 79.2496 248.003 78.1423C248.979 77.0349 250.225 76.1984 251.619 75.7137C250.713 75.0044 249.975 74.1024 249.461 73.073C248.946 72.0437 248.667 70.9127 248.643 69.7621C248.643 68.2742 249.143 66.7863 249.881 65.6674V64.4295C235.133 62.4416 216.421 63.8224 202.054 71.5ZM248.524 41.5158C226.348 40.2778 209.862 52.6691 202.673 69.8931C216.552 62.9535 234.514 61.2156 249.631 63.3225V59.5968C248.893 58.3588 248.393 56.99 248.393 55.5021C248.393 54.0142 248.893 52.5262 249.631 51.4073V45.5867C248.927 44.3345 248.543 42.9281 248.512 41.492L248.524 41.5158ZM338.727 120.327L339.227 119.958C340.215 120.696 341.084 121.196 342.322 121.565C342.821 121.684 343.44 121.684 343.928 121.815C344.547 124.91 345.666 127.386 347.892 129.623L346.904 130.992C341.572 128.726 336.156 126.662 330.668 124.803L330.918 123.196C333.644 122.946 336.489 121.958 338.727 120.351V120.327ZM339.227 121.934C337.739 122.922 336.001 123.672 334.275 124.16C337.731 125.406 341.16 126.728 344.559 128.124C343.579 126.649 342.866 125.013 342.452 123.291L341.952 123.172C340.965 122.922 340.096 122.434 339.227 121.934ZM255.583 100.996H257.321C257.94 105.46 260.915 109.293 264.998 111.162L264.629 112.768C261.903 112.649 259.177 112.649 256.452 112.649C253.726 112.649 251 112.649 248.274 112.768L247.905 111.162C252 109.174 254.964 105.46 255.583 100.996ZM256.452 104.341C255.464 106.948 253.726 109.174 251.369 110.912C253.107 110.912 254.714 110.793 256.452 110.793C258.147 110.77 259.842 110.81 261.534 110.912C259.272 109.222 257.514 106.958 256.452 104.341ZM166.118 130.861L165.13 129.493C167.356 127.136 168.475 124.779 169.094 121.684C170.769 121.617 172.378 121.007 173.677 119.946C176.283 121.803 178.878 122.922 182.104 123.041L182.354 124.648C176.866 126.507 171.451 128.571 166.118 130.838V130.861ZM168.475 128.136C171.874 126.74 175.303 125.418 178.759 124.172C177.021 123.672 175.295 122.934 173.808 121.946C173.07 122.446 172.07 122.815 171.201 123.065L170.701 123.184C170.082 124.922 169.463 126.648 168.475 128.136ZM208.743 115.863V117.47C203.493 118.562 198.284 119.844 193.126 121.315L192.388 119.827C195.733 116.982 197.721 112.638 197.102 108.174L198.709 107.805C200.447 112.019 204.28 114.994 208.743 115.863ZM205.28 116.482C202.712 115.403 200.486 113.647 198.84 111.4C198.471 114.125 197.471 116.732 195.745 118.839C198.84 117.97 202.054 117.232 205.28 116.482ZM219.778 115.363L219.159 113.875C222.254 111.888 224.241 109.293 225.479 105.948H226.467C227.455 105.948 228.205 105.698 229.193 105.448C231.3 108.424 233.776 110.531 237.371 111.519L237.252 113.126C231.41 113.73 225.584 114.472 219.778 115.351V115.363ZM226.717 107.686C225.848 109.793 224.491 111.65 222.754 113.257L233.776 111.888C231.723 110.818 229.944 109.29 228.574 107.424C227.955 107.543 227.336 107.674 226.717 107.674V107.686ZM275.663 113.257L275.544 111.65C278.873 110.598 281.752 108.461 283.722 105.579C284.71 105.829 285.46 106.079 286.448 106.079H287.436C288.674 109.424 290.661 112.03 293.756 114.006L293.137 115.494C287.436 114.506 281.615 113.745 275.663 113.257ZM286.198 107.686C285.611 107.673 285.027 107.589 284.46 107.436C283.091 109.293 281.234 110.781 279.127 111.9C282.841 112.269 286.567 112.638 290.15 113.268C288.56 111.785 287.257 110.022 286.305 108.067L286.198 107.686ZM320.646 119.827L319.908 121.315C314.825 119.827 309.623 118.589 304.291 117.47V115.863C308.623 114.994 312.468 112.019 314.206 107.936L315.813 108.305C315.572 110.478 315.89 112.676 316.735 114.693C317.581 116.709 318.927 118.476 320.646 119.827ZM317.301 118.839C315.563 116.732 314.456 114.125 314.206 111.4C312.599 113.626 310.242 115.363 307.766 116.482L317.313 118.839H317.301ZM319.777 90.4618C315.932 89.4739 311.968 91.6998 310.98 95.4136C309.992 99.1274 312.349 102.972 316.182 103.841C320.027 104.829 323.991 102.603 324.978 98.8893C325.966 95.1755 323.61 91.3308 319.777 90.4618ZM320.027 89.3429C324.49 90.4618 327.216 94.7946 326.097 99.1274C324.978 103.46 320.396 106.067 315.932 104.948C314.887 104.711 313.899 104.269 313.027 103.648C312.154 103.026 311.414 102.237 310.849 101.326C310.284 100.416 309.906 99.4021 309.736 98.3441C309.567 97.2861 309.609 96.205 309.861 95.1636C310.98 90.8308 315.563 88.224 320.027 89.3429ZM326.347 76.8326C324.121 76.8326 322.384 78.5705 322.384 80.6774C322.384 82.7842 324.24 84.5221 326.347 84.5221C328.573 84.5221 330.311 82.7842 330.311 80.6774C330.316 80.1609 330.217 79.6487 330.018 79.172C329.819 78.6953 329.525 78.264 329.154 77.9044C328.784 77.5448 328.344 77.2643 327.861 77.08C327.378 76.8958 326.863 76.8116 326.347 76.8326ZM326.347 75.7137C329.192 75.7137 331.549 77.9396 331.549 80.6655C331.549 83.3913 329.192 85.6172 326.347 85.6172C323.502 85.6172 321.146 83.3913 321.146 80.6655C321.146 77.9396 323.502 75.7137 326.347 75.7137ZM323.003 62.9535C320.777 62.9535 319.039 64.6913 319.039 66.7982C319.039 68.9051 320.896 70.643 323.003 70.643C325.228 70.643 326.966 68.9051 326.966 66.7982C326.966 64.6913 325.228 62.9535 323.003 62.9535ZM323.003 61.8346C325.847 61.8346 328.204 64.0605 328.204 66.7863C328.204 69.5122 325.847 71.7381 323.003 71.7381C320.158 71.7381 317.801 69.5122 317.801 66.7863C317.801 64.0605 320.158 61.8346 323.003 61.8346ZM372.568 99.3773C370.342 99.3773 368.604 101.115 368.604 103.222C368.604 105.329 370.342 107.067 372.568 107.067C374.793 107.067 376.531 105.329 376.531 103.222C376.531 101.115 374.793 99.3773 372.568 99.3773ZM372.568 98.2584C375.412 98.2584 377.769 100.484 377.769 103.21C377.769 105.936 375.412 108.162 372.568 108.162C369.723 108.162 367.366 105.936 367.366 103.21C367.366 100.484 369.723 98.2584 372.568 98.2584ZM369.223 85.6172C366.997 85.6172 365.259 87.3551 365.259 89.462C365.259 91.5688 366.997 93.3067 369.223 93.3067C371.449 93.3067 373.187 91.5688 373.187 89.462C373.187 87.3551 371.449 85.6172 369.223 85.6172ZM369.223 84.4983C372.068 84.4983 374.424 86.7242 374.424 89.4501C374.424 92.1759 372.068 94.4018 369.223 94.4018C366.378 94.4018 364.021 92.1759 364.021 89.4501C364.14 86.7242 366.378 84.4983 369.223 84.4983ZM363.271 73.4759C361.045 73.4759 359.307 75.2138 359.307 77.3207C359.307 79.4275 361.164 81.1654 363.271 81.1654C365.497 81.1654 367.235 79.4275 367.235 77.3207C367.235 75.2138 365.497 73.4759 363.271 73.4759ZM363.271 72.357C366.116 72.357 368.473 74.5829 368.473 77.3088C368.473 80.0346 366.116 82.2605 363.271 82.2605C360.426 82.2605 358.069 80.0346 358.069 77.3088C358.069 74.5829 360.426 72.357 363.271 72.357ZM353.725 62.6916C351.499 62.6916 349.761 64.4295 349.761 66.5363C349.761 68.6432 351.499 70.3811 353.725 70.3811C355.951 70.3811 357.689 68.6432 357.689 66.5363C357.689 64.4295 355.951 62.6916 353.725 62.6916ZM353.725 61.5727C356.57 61.5727 358.926 63.7986 358.926 66.5244C358.926 69.2503 356.701 71.5 353.725 71.5C350.88 71.5 348.523 69.2741 348.523 66.5482C348.642 63.8224 350.88 61.5965 353.725 61.5965V61.5727ZM342.072 54.5141C339.846 54.5141 338.108 56.252 338.108 58.3588C338.108 60.4657 339.846 62.2036 342.072 62.2036C344.297 62.2036 346.035 60.4657 346.035 58.3588C346.035 56.252 344.297 54.5141 342.072 54.5141ZM342.072 53.3952C344.916 53.3952 347.273 55.6211 347.273 58.3469C347.273 61.0728 344.916 63.2987 342.072 63.2987C339.227 63.2987 336.87 61.0728 336.87 58.3469C336.87 55.6211 339.227 53.3952 342.072 53.3952ZM329.43 49.6814C327.204 49.6814 325.467 51.4192 325.467 53.5261C325.467 55.633 327.204 57.3709 329.43 57.3709C331.656 57.3709 333.394 55.633 333.394 53.5261C333.513 51.4192 331.656 49.6814 329.43 49.6814ZM329.43 48.5625C332.275 48.5625 334.632 50.7884 334.632 53.5142C334.632 56.2401 332.275 58.466 329.43 58.466C326.585 58.466 324.229 56.2401 324.229 53.5142C324.348 50.7884 326.585 48.5625 329.43 48.5625ZM316.67 50.7884C314.444 50.7884 312.706 52.5263 312.706 54.6331C312.706 56.74 314.444 58.4779 316.67 58.4779C318.896 58.4779 320.634 56.74 320.634 54.6331C320.634 52.5263 318.896 50.7884 316.67 50.7884ZM316.67 49.6695C319.515 49.6695 321.872 51.8954 321.872 54.6212C321.872 57.3471 319.527 59.5968 316.67 59.5968C313.813 59.5968 311.468 57.3709 311.468 54.645C311.468 51.9192 313.825 49.6933 316.67 49.6933V49.6695ZM307.255 40.254C305.029 40.254 303.291 41.9919 303.291 44.0988C303.291 46.2056 305.029 47.9435 307.255 47.9435C309.48 47.9435 311.218 46.2056 311.218 44.0988C311.337 41.9919 309.48 40.254 307.255 40.254ZM307.255 39.2661C310.099 39.2661 312.456 41.492 312.456 44.2178C312.456 46.9436 310.099 49.1695 307.255 49.1695C304.41 49.1695 302.053 46.9436 302.053 44.2178C302.172 41.492 304.41 39.2661 307.255 39.2661ZM294.982 32.4455C292.756 32.4455 291.019 34.1834 291.019 36.2902C291.019 38.3971 292.756 40.135 294.982 40.135C297.208 40.135 298.946 38.3971 298.946 36.2902C298.946 34.1834 297.208 32.4455 294.982 32.4455ZM294.982 31.3266C297.827 31.3266 300.184 33.5525 300.184 36.2783C300.184 39.0042 297.827 41.2301 294.982 41.2301C292.137 41.2301 289.781 39.0042 289.781 36.2783C289.9 33.5525 292.137 31.3266 294.982 31.3266ZM282.222 27.8628C279.996 27.8628 278.258 29.6006 278.258 31.7075C278.258 33.8144 279.996 35.5522 282.222 35.5522C284.448 35.5522 286.186 33.8144 286.186 31.7075C286.305 29.6006 284.448 27.8628 282.222 27.8628ZM282.222 26.7439C285.067 26.7439 287.424 28.9698 287.424 31.6956C287.424 34.4214 285.067 36.6473 282.222 36.6473C279.377 36.6473 277.02 34.4214 277.02 31.6956C277.139 28.9698 279.377 26.7439 282.222 26.7439ZM269.212 25.625C266.986 25.625 265.248 27.3628 265.248 29.4697C265.248 31.5766 266.986 33.3144 269.212 33.3144C271.438 33.3144 273.176 31.5766 273.176 29.4697C273.176 27.3628 271.438 25.625 269.212 25.625ZM269.212 24.5061C272.057 24.5061 274.414 26.732 274.414 29.4578C274.414 32.1836 272.057 34.4095 269.212 34.4095C268.552 34.4206 267.897 34.301 267.284 34.0576C266.671 33.8143 266.112 33.4521 265.64 32.9918C265.167 32.5315 264.791 31.9823 264.531 31.3757C264.272 30.7692 264.135 30.1174 264.129 29.4578C264.01 26.732 266.355 24.5061 269.212 24.5061ZM145.43 127.35C148.894 125.493 150.144 121.279 148.275 117.934C147.312 116.305 145.755 115.111 143.931 114.603C142.108 114.095 140.158 114.312 138.491 115.209C135.027 117.066 133.777 121.279 135.646 124.624C137.515 127.969 141.966 129.207 145.43 127.35ZM145.93 128.338C141.835 130.445 136.884 129.076 134.658 125.112C134.131 124.184 133.799 123.157 133.682 122.096C133.566 121.034 133.667 119.96 133.981 118.94C134.294 117.919 134.812 116.973 135.504 116.159C136.195 115.346 137.046 114.682 138.003 114.209C142.097 112.102 147.168 113.471 149.275 117.435C149.8 118.364 150.131 119.39 150.246 120.451C150.362 121.512 150.26 122.585 149.947 123.605C149.634 124.626 149.116 125.572 148.426 126.385C147.735 127.199 146.886 127.863 145.93 128.338ZM196.733 103.805C200.578 102.817 202.923 99.0917 201.935 95.3779C200.947 91.6641 196.983 89.4263 193.138 90.4261C189.294 91.426 186.949 95.1398 187.937 98.8536C188.474 100.659 189.692 102.184 191.334 103.108C192.975 104.032 194.911 104.282 196.733 103.805ZM197.102 104.924C194.983 105.48 192.73 105.182 190.829 104.093C188.927 103.005 187.53 101.213 186.937 99.1036C186.669 98.0616 186.615 96.9763 186.778 95.913C186.941 94.8497 187.318 93.8304 187.885 92.9163C188.452 92.0022 189.198 91.2123 190.078 90.5941C190.959 89.9759 191.955 89.5422 193.007 89.3191C197.471 88.2002 202.054 90.807 203.173 95.1398C204.292 99.4726 201.566 103.817 197.102 104.924ZM256.452 96.5325C260.415 96.5325 263.641 93.4376 263.641 89.5929C263.626 88.6649 263.427 87.749 263.057 86.8978C262.688 86.0465 262.153 85.2766 261.486 84.632C260.818 83.9874 260.029 83.4809 259.166 83.1413C258.302 82.8018 257.38 82.636 256.452 82.6533C255.524 82.636 254.601 82.8018 253.738 83.1413C252.874 83.4809 252.085 83.9874 251.418 84.632C250.75 85.2766 250.216 86.0465 249.846 86.8978C249.476 87.749 249.278 88.6649 249.262 89.5929C249.262 93.4376 252.488 96.5325 256.452 96.5325ZM256.452 97.6514C255.378 97.6671 254.311 97.4712 253.313 97.0747C252.315 96.6782 251.405 96.089 250.634 95.3407C249.864 94.5923 249.248 93.6996 248.823 92.7134C248.398 91.7272 248.171 90.6668 248.155 89.5929C248.155 85.1292 251.869 81.5344 256.452 81.5344C261.034 81.5344 264.748 85.1292 264.748 89.5929C264.867 94.0566 261.034 97.6514 256.452 97.6514ZM186.687 84.5221C188.913 84.5221 190.651 82.7842 190.651 80.6774C190.651 78.5705 188.913 76.8326 186.687 76.8326C184.461 76.8326 182.723 78.5705 182.723 80.6774C182.604 82.7842 184.461 84.5221 186.687 84.5221ZM186.687 85.641C186.027 85.652 185.372 85.5325 184.759 85.2891C184.146 85.0458 183.587 84.6836 183.115 84.2233C182.642 83.763 182.265 83.2138 182.006 82.6072C181.747 82.0007 181.61 81.3489 181.604 80.6893C181.604 77.9634 183.961 75.7375 186.687 75.7375C189.532 75.7375 191.889 77.9634 191.889 80.6893C191.769 83.4151 189.532 85.641 186.687 85.641ZM190.032 70.643C192.258 70.643 193.995 68.9051 193.995 66.7982C193.995 64.6913 192.258 62.9535 190.032 62.9535C187.806 62.9535 186.068 64.6913 186.068 66.7982C185.949 68.9051 187.806 70.643 190.032 70.643ZM190.032 71.7619C187.187 71.7619 184.83 69.536 184.83 66.8101C184.83 64.0843 187.187 61.8584 190.032 61.8584C192.876 61.8584 195.233 64.0843 195.233 66.8101C195.114 69.536 192.757 71.7619 190.032 71.7619ZM140.348 107.186C142.573 107.186 144.311 105.448 144.311 103.341C144.311 101.234 142.573 99.4964 140.348 99.4964C138.122 99.4964 136.384 101.234 136.384 103.341C136.384 105.448 138.122 107.186 140.348 107.186ZM140.348 108.305C137.503 108.305 135.146 106.079 135.146 103.353C135.146 100.627 137.503 98.4013 140.348 98.4013C141.007 98.3903 141.662 98.5099 142.275 98.7532C142.888 98.9965 143.447 99.3587 143.92 99.819C144.392 100.279 144.769 100.829 145.028 101.435C145.287 102.042 145.424 102.693 145.43 103.353C145.549 106.079 143.204 108.305 140.348 108.305ZM143.692 93.3067C145.918 93.3067 147.656 91.5688 147.656 89.462C147.625 88.4315 147.194 87.4536 146.454 86.7358C145.714 86.018 144.723 85.6168 143.692 85.6172C141.466 85.6172 139.729 87.3551 139.729 89.462C139.729 91.5688 141.466 93.3067 143.692 93.3067ZM143.692 94.4256C140.847 94.4256 138.491 92.1997 138.491 89.4739C138.491 86.748 140.847 84.5221 143.692 84.5221C146.537 84.5221 148.894 86.748 148.894 89.4739C148.894 92.1997 146.537 94.4256 143.692 94.4256ZM149.644 81.1654C151.87 81.1654 153.608 79.4275 153.608 77.3207C153.608 75.2138 151.87 73.4759 149.644 73.4759C147.418 73.4759 145.68 75.2138 145.68 77.3207C145.68 79.4275 147.537 81.1654 149.644 81.1654ZM149.644 82.2843C146.799 82.2843 144.442 80.0584 144.442 77.3326C144.442 74.6067 146.799 72.3808 149.644 72.3808C152.489 72.3808 154.846 74.6067 154.846 77.3326C154.846 80.0584 152.489 82.2843 149.644 82.2843ZM159.19 70.393C161.416 70.393 163.154 68.6551 163.154 66.5482C163.154 64.4414 161.416 62.7035 159.19 62.7035C156.964 62.7035 155.227 64.4414 155.227 66.5482C155.227 68.6551 156.964 70.393 159.19 70.393ZM159.19 71.5119C156.345 71.5119 153.989 69.286 153.989 66.5602C153.989 63.8343 156.345 61.6084 159.19 61.6084C162.035 61.6084 164.392 63.8343 164.392 66.5602C164.392 69.286 162.035 71.5 159.178 71.5L159.19 71.5119ZM170.844 62.2155C173.07 62.2155 174.807 60.4776 174.807 58.3707C174.807 56.2639 173.07 54.526 170.844 54.526C168.618 54.526 166.88 56.2639 166.88 58.3707C166.88 60.4776 168.737 62.2155 170.844 62.2155ZM170.844 63.3344C167.999 63.3344 165.642 61.1085 165.642 58.3826C165.642 55.6568 167.999 53.4309 170.844 53.4309C173.688 53.4309 176.045 55.6568 176.045 58.3826C176.045 61.1085 173.688 63.3344 170.844 63.3344ZM183.485 57.5137C185.711 57.5137 187.449 55.7758 187.449 53.669C187.449 51.5621 185.711 49.8242 183.485 49.8242C181.259 49.8242 179.521 51.5621 179.521 53.669C179.521 55.7758 181.259 57.5137 183.485 57.5137ZM183.485 58.6326C180.64 58.6326 178.283 56.4067 178.283 53.6809C178.283 50.955 180.64 48.7291 183.485 48.7291C186.33 48.7291 188.687 50.955 188.687 53.6809C188.568 56.4067 186.33 58.6326 183.485 58.6326ZM196.245 58.5136C198.471 58.5136 200.209 56.7757 200.209 54.6688C200.209 52.562 198.471 50.8241 196.245 50.8241C194.019 50.8241 192.281 52.562 192.281 54.6688C192.281 56.7757 194.019 58.5136 196.245 58.5136ZM196.245 59.6325C193.4 59.6325 191.043 57.4066 191.043 54.6807C191.043 51.9549 193.4 49.729 196.245 49.729C199.09 49.729 201.447 51.9549 201.447 54.6807C201.447 57.4066 199.078 59.5968 196.233 59.5968L196.245 59.6325ZM205.661 48.1102C207.886 48.1102 209.624 46.3723 209.624 44.2654C209.624 42.1585 207.886 40.4207 205.661 40.4207C203.435 40.4207 201.697 42.1585 201.697 44.2654C201.697 46.3723 203.435 48.1102 205.661 48.1102ZM205.661 49.2291C202.816 49.2291 200.459 47.0032 200.459 44.2773C200.459 41.5515 202.816 39.3256 205.661 39.3256C208.505 39.3256 210.862 41.5515 210.862 44.2773C210.862 47.0032 208.505 49.2291 205.661 49.2291ZM217.933 40.1826C220.159 40.1826 221.897 38.4447 221.897 36.3379C221.897 34.231 220.159 32.4931 217.933 32.4931C215.707 32.4931 213.969 34.231 213.969 36.3379C213.969 38.4447 215.707 40.1826 217.933 40.1826ZM217.933 41.3015C215.088 41.3015 212.731 39.0756 212.731 36.3498C212.731 33.6239 215.088 31.398 217.933 31.398C220.778 31.398 223.134 33.6239 223.134 36.3498C223.134 39.0756 220.778 41.3015 217.933 41.3015ZM230.693 35.5999C232.919 35.5999 234.657 33.862 234.657 31.7551C234.657 29.6483 232.919 27.9104 230.693 27.9104C228.467 27.9104 226.729 29.6483 226.729 31.7551C226.729 33.862 228.467 35.5999 230.693 35.5999ZM230.693 36.7188C227.848 36.7188 225.491 34.4929 225.491 31.767C225.491 29.0412 227.848 26.8153 230.693 26.8153C233.538 26.8153 235.895 29.0412 235.895 31.767C235.895 34.4929 233.538 36.7188 230.693 36.7188ZM256.452 73.4759C258.678 73.4759 260.415 71.7381 260.415 69.6312C260.415 67.5243 258.678 65.7864 256.452 65.7864C254.226 65.7864 252.488 67.5243 252.488 69.6312C252.488 71.7381 254.226 73.4759 256.452 73.4759ZM256.452 74.5948C253.607 74.5948 251.25 72.3689 251.25 69.6431C251.25 66.9173 253.607 64.6913 256.452 64.6913C259.296 64.6913 261.653 66.9173 261.653 69.6431C261.653 72.3689 259.296 74.5948 256.452 74.5948ZM256.452 59.4777C258.678 59.4777 260.415 57.7399 260.415 55.633C260.415 53.5261 258.678 51.7882 256.452 51.7882C254.226 51.7882 252.488 53.5261 252.488 55.633C252.488 57.7399 254.226 59.4777 256.452 59.4777ZM256.452 60.5966C253.607 60.5966 251.25 58.3707 251.25 55.6449C251.25 52.9191 253.607 50.6931 256.452 50.6931C259.296 50.6931 261.653 52.9191 261.653 55.6449C261.653 58.3707 259.296 60.5966 256.452 60.5966ZM256.452 45.4795C258.678 45.4795 260.415 43.7417 260.415 41.6348C260.415 39.5279 258.678 37.7901 256.452 37.7901C254.226 37.7901 252.488 39.5279 252.488 41.6348C252.488 43.7417 254.226 45.4795 256.452 45.4795ZM256.452 46.4675C253.607 46.4675 251.25 44.2416 251.25 41.5158C251.25 38.7899 253.607 36.564 256.452 36.564C259.296 36.564 261.653 38.7899 261.653 41.5158C261.653 44.3606 259.296 46.4675 256.452 46.4675ZM243.81 33.3382C246.036 33.3382 247.774 31.6004 247.774 29.4935C247.743 28.463 247.312 27.4851 246.572 26.7673C245.832 26.0495 244.841 25.6483 243.81 25.6488C241.584 25.6488 239.716 27.3866 239.716 29.4935C239.716 31.7194 241.573 33.3382 243.81 33.3382ZM243.81 34.5762C240.966 34.5762 238.609 32.3503 238.609 29.6244C238.609 26.8986 240.966 24.6727 243.81 24.6727C246.655 24.6727 249.012 26.8986 249.012 29.6244C248.893 32.3503 246.655 34.5762 243.81 34.5762ZM374.413 115.232C372.743 114.345 370.797 114.133 368.976 114.64C367.154 115.147 365.598 116.335 364.628 117.958C362.771 121.303 364.009 125.517 367.473 127.374C369.143 128.258 371.088 128.469 372.909 127.962C374.729 127.455 376.286 126.269 377.257 124.648C377.73 123.853 378.032 122.968 378.144 122.049C378.256 121.131 378.176 120.199 377.909 119.314C377.641 118.428 377.192 117.608 376.59 116.905C375.988 116.203 375.247 115.633 374.413 115.232ZM375.032 114.244C379.126 116.351 380.483 121.303 378.257 125.148C377.142 127.055 375.332 128.457 373.206 129.058C371.079 129.66 368.803 129.414 366.854 128.374C365.903 127.894 365.061 127.224 364.379 126.406C363.696 125.589 363.188 124.64 362.886 123.619C362.584 122.597 362.494 121.525 362.622 120.468C362.749 119.41 363.092 118.39 363.628 117.47C364.743 115.563 366.554 114.161 368.68 113.56C370.806 112.959 373.082 113.204 375.032 114.244ZM155.584 116.97C154.465 114.244 153.108 112.138 150.132 111.269C152.12 87.3551 158.429 76.4517 180.866 65.5484C182.854 66.2864 182.723 66.5363 182.723 66.7863C182.723 70.0121 184.58 71.619 186.937 73.3569C182.973 74.2258 179.378 75.9637 179.378 80.6655C179.378 84.5102 182.104 86.6171 185.568 87.6051C184.449 89.7119 184.199 90.5809 184.449 93.0567C179.866 95.1636 178.878 98.0085 179.985 102.472C181.723 108.793 185.687 109.531 192.008 107.924C192.348 109.892 192.008 111.917 191.045 113.666C190.082 115.415 188.552 116.785 186.707 117.549C184.863 118.314 182.813 118.428 180.894 117.873C178.976 117.317 177.304 116.126 176.152 114.494C176.152 113.875 176.033 113.376 175.902 112.757C174.915 109.162 170.951 106.936 166.975 107.805C163.13 108.793 160.654 112.638 161.642 116.351C162.011 117.589 162.63 118.577 163.499 119.446C163.868 123.041 162.261 126.267 159.036 127.993C155.691 129.731 153.084 128.981 149.87 127.874C155.203 125.398 157.941 123.041 155.584 116.97ZM155.953 91.0689C153.727 96.4015 152.608 102.591 151.858 110.15C154.465 111.269 156.191 113.864 157.191 116.47C158.798 120.434 158.798 124.529 154.346 127.624C155.688 127.77 157.041 127.464 158.19 126.755C160.666 125.386 162.035 122.91 161.904 120.315C161.049 119.304 160.416 118.124 160.047 116.851C158.809 112.138 161.785 107.436 166.487 106.317C168.768 105.736 171.184 106.055 173.236 107.207C175.288 108.36 176.818 110.257 177.509 112.507C177.628 113.007 177.759 113.495 177.759 113.995C181.854 118.827 190.032 116.351 190.401 110.031C182.842 111.519 179.616 107.805 178.378 102.841C177.259 98.7465 177.759 94.5446 182.592 92.0569C182.549 90.8816 182.718 89.7081 183.092 88.593C181.773 88.047 180.609 87.1849 179.701 86.0826C178.794 84.9803 178.172 83.6718 177.89 82.2724C173.558 83.1413 168.725 84.3793 164.761 85.9862C160.916 87.3551 158.06 89.331 155.953 91.0689ZM180.985 67.2862C168.475 73.6069 161.154 80.0465 156.822 88.9739C159.106 87.3144 161.61 85.9804 164.261 85.0102C168.356 83.4032 173.308 82.1653 177.64 81.2963V80.6655C177.64 77.0707 179.997 73.8449 183.211 72.607C181.882 71.1354 181.097 69.2657 180.985 67.2862ZM353.844 128.124C352.324 127.316 351.084 126.068 350.287 124.542C349.49 123.017 349.174 121.286 349.38 119.577C350.249 118.708 350.868 117.72 351.237 116.482C351.459 115.579 351.5 114.642 351.358 113.723C351.217 112.804 350.895 111.922 350.412 111.128C349.929 110.334 349.293 109.643 348.542 109.095C347.791 108.548 346.939 108.153 346.035 107.936C344.974 107.656 343.863 107.619 342.786 107.828C341.708 108.036 340.691 108.485 339.811 109.14C338.931 109.795 338.209 110.64 337.7 111.613C337.191 112.585 336.907 113.659 336.87 114.756C331.299 121.815 320.015 118.101 321.015 108.186C327.335 109.674 331.299 109.055 333.037 102.734C334.275 98.2703 333.156 95.4255 328.704 93.3186C328.977 91.4265 328.581 89.4986 327.585 87.8669C331.049 86.879 333.775 84.7721 333.775 80.9273C333.775 76.2137 330.18 74.4877 326.216 73.7378C328.573 71.8809 330.549 70.393 330.549 67.1672C330.549 66.9173 330.549 66.5483 330.43 66.2983L332.037 65.7983C354.344 76.5827 361.152 87.855 363.14 111.519C360.045 112.388 358.677 114.494 357.689 117.22C355.332 123.291 358.058 125.648 363.39 128.243C359.795 129.112 357.201 129.85 353.844 128.124ZM335.132 82.2724C334.513 85.1173 332.525 87.4741 329.799 88.593C330.224 89.6954 330.395 90.8793 330.299 92.0569C335.251 94.5327 335.632 98.7465 334.513 102.841C333.144 107.793 330.049 111.519 322.491 110.031C322.86 116.351 331.037 118.827 335.132 113.995C335.132 113.495 335.251 113.007 335.382 112.507C336.62 107.924 341.572 105.067 346.285 106.317C351.118 107.555 353.963 112.269 352.725 116.851C352.356 118.089 351.737 119.327 350.868 120.196C350.825 121.189 350.992 122.18 351.36 123.103C351.728 124.026 352.288 124.861 353.002 125.551C353.717 126.242 354.57 126.774 355.505 127.11C356.44 127.447 357.436 127.581 358.427 127.505C353.963 124.529 353.963 120.446 355.582 116.351C356.57 113.745 358.188 111.15 360.914 110.031C360.295 102.472 359.057 96.2825 356.82 90.9499C354.193 88.7753 351.219 87.0572 348.023 85.8672C344.309 84.4983 339.346 83.2604 335.132 82.2724ZM331.906 67.0363C331.787 69.1432 330.918 71.131 329.549 72.488C331.215 73.0795 332.656 74.1713 333.677 75.6139C334.698 77.0564 335.247 78.7793 335.251 80.5464V81.1654C339.715 82.1534 344.416 83.2723 348.63 84.8792C351.606 85.9981 354.082 87.3551 356.07 88.843C351.737 80.0465 344.416 73.6069 331.906 67.0363ZM305.886 141.634L293.244 133.087L308.612 131.48L321.253 140.027L305.886 141.634ZM282.091 136.682C281.432 136.693 280.776 136.573 280.163 136.33C279.55 136.087 278.991 135.725 278.519 135.264C278.047 134.804 277.67 134.255 277.411 133.648C277.151 133.042 277.015 132.39 277.008 131.73C277.008 129.004 279.365 126.779 282.091 126.779C284.936 126.779 287.293 129.004 287.293 131.73C287.293 134.456 284.936 136.682 282.091 136.682ZM282.091 135.563C284.317 135.563 286.055 133.825 286.055 131.718C286.055 129.612 284.317 127.874 282.091 127.874C279.865 127.874 278.127 129.612 278.127 131.718C278.127 133.825 279.984 135.563 282.091 135.563ZM181.223 148.454C183.449 148.454 185.187 146.716 185.187 144.61C185.187 142.503 183.449 140.765 181.223 140.765C178.997 140.765 177.259 142.503 177.259 144.61C177.259 146.716 178.997 148.454 181.223 148.454ZM181.223 149.573C178.378 149.573 176.022 147.347 176.022 144.622C176.022 141.896 178.378 139.67 181.223 139.67C184.068 139.67 186.425 141.896 186.425 144.622C186.306 147.347 184.068 149.573 181.223 149.573ZM230.788 135.575C233.014 135.575 234.752 133.837 234.752 131.73C234.721 130.7 234.29 129.722 233.55 129.004C232.81 128.286 231.819 127.885 230.788 127.886C228.562 127.886 226.824 129.623 226.824 131.73C226.705 133.837 228.562 135.575 230.788 135.575ZM230.788 136.694C227.943 136.694 225.587 134.468 225.587 131.742C225.587 129.016 227.943 126.79 230.788 126.79C233.633 126.79 235.99 129.016 235.99 131.742C235.871 134.468 233.633 136.694 230.788 136.694ZM331.656 148.466C333.882 148.466 335.62 146.728 335.62 144.622C335.62 142.515 333.882 140.777 331.656 140.777C329.43 140.777 327.692 142.515 327.692 144.622C327.692 146.728 329.43 148.466 331.656 148.466ZM331.656 149.585C328.811 149.585 326.454 147.359 326.454 144.633C326.454 141.908 328.811 139.682 331.656 139.682C334.501 139.682 336.858 141.908 336.858 144.633C336.858 147.359 334.501 149.585 331.656 149.585ZM207.006 141.658L191.639 140.051L204.28 131.504L219.647 133.111L207.006 141.658ZM269.331 130.385L256.452 125.767L243.691 130.35L256.452 134.944L269.331 130.385ZM272.557 130.385L256.452 136.182L240.347 130.361L256.452 124.529L272.557 130.385Z" fill="#004996"/>
</g>
<defs>
<clipPath id="clip0_1_2125">
<rect width="380.903" height="512" fill="white" transform="translate(66)"/>
</clipPath>
</defs>
</svg>
