<svg width="512" height="512" viewBox="0 0 512 512" fill="none" xmlns="http://www.w3.org/2000/svg">
<path d="M252.911 4.49072C254.983 4.49072 257.066 4.49072 259.148 4.49072C259.148 6.38903 259.148 8.27648 259.148 10.1748C261.676 10.1856 264.214 10.1856 266.752 10.2073C266.742 12.2683 266.742 14.3402 266.742 16.4121C264.203 16.4229 261.665 16.4229 259.138 16.4338C259.148 18.05 259.159 19.6663 259.181 21.2826C263.075 22.9531 265.646 26.5653 266.666 30.5897C262.761 32.8568 259.127 35.5904 256.024 38.8989C252.944 35.5795 249.331 32.7809 245.383 30.5572C246.663 26.6412 248.941 22.9097 252.9 21.2609C252.9 19.6446 252.9 18.0283 252.9 16.4229C250.373 16.4229 247.845 16.4229 245.318 16.4121C245.318 14.3402 245.318 12.2683 245.307 10.1965C247.845 10.1856 250.384 10.1856 252.911 10.1748C252.911 8.27648 252.911 6.38903 252.911 4.49072Z" fill="#FFD200"/>
<path d="M164.559 42.7823C174.386 33.4752 187.816 27.0427 201.57 27.8562C205.464 28.0298 209.131 29.5593 212.374 31.6311C218.015 28.5938 224.447 26.8257 230.88 27.661C240.719 28.8216 249.082 34.8745 256.111 41.4698C262.229 35.5362 269.421 30.2535 277.849 28.2793C285.15 26.4894 293.058 27.7586 299.49 31.6311C307.582 26.3918 317.92 27.0752 326.696 30.1016C339.355 34.4406 350.712 43.2488 357.134 55.0942C362.21 64.423 363.143 75.8996 359.563 85.9118C357.079 93.1796 352.567 99.5688 347.414 105.188C341.09 112.304 334.723 119.387 328.409 126.525C280.236 126.536 232.052 126.503 183.867 126.546C177.066 119.17 170.503 111.588 163.778 104.146C156.597 96.1952 151.021 86.2047 150.457 75.3138C149.687 63.002 155.609 51.0047 164.559 42.7823ZM211.886 49.9742C202.85 56.5911 200.442 68.7728 201.624 79.3274C198.316 79.3166 195.007 79.3166 191.699 79.3382C190.441 68.122 190.875 56.5586 194.476 45.7871C181.893 47.9023 171.588 58.0881 167.542 69.9335C164.591 78.2969 166.587 87.9294 172.054 94.8067C177.868 102.15 183.921 109.31 189.671 116.719C233.809 116.914 277.936 116.654 322.064 116.849C327.531 110.666 332.477 104.038 337.782 97.7247C341.416 93.4616 344.475 88.5152 345.505 82.9396C347.089 75.0969 344.388 66.9505 339.854 60.5505C334.56 53.1959 326.739 47.1538 317.584 45.7979C321.391 56.5044 321.597 68.1003 320.447 79.2949C317.139 79.3166 313.841 79.3274 310.555 79.3274C310.945 72.2223 310.728 64.7376 307.235 58.3376C304.046 51.7966 297.711 47.1755 290.758 45.3206C281.201 42.7281 270.734 44.3118 262.088 49.0196C262.153 59.1186 261.622 69.2067 261.839 79.3166C257.966 79.3166 254.094 79.3166 250.221 79.3166C249.982 69.0983 250.612 58.8474 249.885 48.6399C238.083 42.9667 222.82 41.741 211.886 49.9742Z" fill="#FFD200"/>
<path d="M203.567 85.0004C206.821 80.1516 214.609 79.9455 218.276 84.4255C220.89 87.2458 220.76 91.3136 219.935 94.8065C223.58 95.6309 227.181 97.9306 228.114 101.781C230.045 107.574 224.936 114.332 218.807 113.822C215.716 114.006 213.232 112.011 211.127 110.015C206.994 115.33 197.622 115.113 194.737 108.68C191.634 102.877 195.908 95.5767 202.297 94.8282C201.571 91.5306 201.256 87.7773 203.567 85.0004Z" fill="#FFD200"/>
<path d="M249.82 83.5906C253.953 79.5228 261.687 80.857 264.312 85.9879C265.928 88.6997 265.418 91.954 264.778 94.8828C268.412 95.4686 271.905 97.7682 272.979 101.446C275.148 107.086 270.419 114.007 264.312 113.822C261.09 114.224 258.357 112.217 256.285 109.982C253.953 111.924 251.349 114.137 248.095 113.833C242.682 114.126 237.996 108.8 238.788 103.474C238.961 98.8638 243.062 95.4903 247.412 94.8719C246.023 91.0319 246.522 86.3133 249.82 83.5906Z" fill="#FFD200"/>
<path d="M293.481 84.9572C296.789 80.1843 304.589 79.9131 308.168 84.5124C310.848 87.2568 310.707 91.3463 309.784 94.7958C314.058 95.5551 318.18 98.8311 318.278 103.452C319.146 108.887 314.319 114.256 308.797 113.833C305.652 114.072 303.135 111.967 300.987 109.961C298.004 113.475 292.83 115.113 288.61 112.792C283.067 110.08 282.037 101.597 286.593 97.5294C288.068 95.9239 290.259 95.4358 292.277 94.8826C291.582 91.5741 291.116 87.745 293.481 84.9572Z" fill="#FFD200"/>
<path d="M183.759 130.321C232.03 130.321 280.301 130.321 328.572 130.321C328.572 135.929 328.572 141.526 328.572 147.135C280.301 147.135 232.03 147.135 183.759 147.135C183.759 141.526 183.759 135.929 183.759 130.321Z" fill="#FFD200"/>
<path d="M144.708 150.931C218.926 150.931 293.134 150.931 367.352 150.931C367.363 250.099 367.341 349.277 367.363 448.445C367.233 459.14 361.18 468.751 353.673 475.954C341.98 486.986 327.162 494.026 312.117 499.232C287.797 507.325 261.709 510.828 236.206 507.498C216.431 504.916 196.873 499.558 179.094 490.392C167.488 484.187 156.195 476.149 149.448 464.575C146.65 459.683 144.892 454.14 144.708 448.488C144.708 349.299 144.708 250.121 144.708 150.931ZM159.081 165.304C159.081 175.794 159.081 186.272 159.081 196.762C223.721 196.762 288.35 196.773 352.99 196.751C352.968 186.272 352.979 175.794 352.979 165.315C288.35 165.293 223.721 165.304 159.081 165.304ZM159.092 211.102C159.059 289.139 159.113 367.175 159.059 445.223C158.766 450.321 160.09 455.43 163.029 459.639C170.536 470.14 182.012 477.017 193.662 482.093C222.614 494.08 255.124 498.408 285.953 491.91C304.957 487.853 324.342 481.952 339.691 469.575C346.145 464.271 352.686 457.318 352.99 448.499C353.033 369.367 352.99 290.234 353.012 211.102C288.372 211.113 223.732 211.102 159.092 211.102Z" fill="#FFD200"/>
<path d="M189.464 224.727C233.928 224.716 278.402 224.716 322.866 224.727C322.877 267.466 322.899 310.205 322.866 352.944C323.061 359.81 319.33 366.069 314.221 370.375C304.111 379.129 291.159 383.761 278.348 386.864C256.979 392.168 234.123 389.174 214.099 380.377C206.701 377.047 199.444 372.805 194.183 366.492C191.243 363.053 189.323 358.639 189.442 354.05C189.464 310.942 189.442 267.834 189.464 224.727ZM203.804 353.03C203.338 357.098 207.211 359.593 209.998 361.763C225.098 372.111 243.929 376.211 262.055 375.17C277.014 373.847 292.135 369.497 304.187 360.255C306.421 358.487 308.699 356.024 308.504 352.965C308.515 314.88 308.493 276.784 308.515 238.698C273.629 238.676 238.755 238.752 203.88 238.655C203.739 276.784 203.88 314.902 203.804 353.03Z" fill="#FFD200"/>
<path d="M246.479 253.169C252.89 253.18 259.301 253.158 265.711 253.18C264.779 266.131 263.781 279.094 263.325 292.079C264.768 293.218 266.069 294.53 267.306 295.908C279.423 295.018 291.539 294.14 303.667 293.554C303.591 299.845 303.612 306.126 303.645 312.418C291.55 311.799 279.466 310.649 267.371 310.096C265.918 311.289 264.616 312.656 263.206 313.893C263.705 326.812 264.713 339.699 265.44 352.607C259.149 352.586 252.857 352.618 246.577 352.575C247.575 339.742 248.323 326.877 248.974 314.012C247.585 312.765 246.273 311.43 245.047 310.031C232.844 310.725 220.662 311.745 208.448 312.407C208.524 306.115 208.556 299.813 208.426 293.521C220.586 294.194 232.746 294.997 244.884 295.897C246.186 294.519 247.52 293.174 248.887 291.872C248.323 278.953 247.292 266.066 246.479 253.169Z" fill="#FFD200"/>
<path d="M211.887 49.9742C222.821 41.7409 238.083 42.9667 249.885 48.6399C250.612 58.8474 249.983 69.0982 250.222 79.3165C254.094 79.3165 257.967 79.3165 261.839 79.3165C261.622 69.2067 262.154 59.1186 262.089 49.0196C270.734 44.3118 281.202 42.7281 290.759 45.3206C297.712 47.1755 304.047 51.7965 307.236 58.3375C310.729 64.7375 310.946 72.2223 310.555 79.3274C313.842 79.3274 317.14 79.3165 320.448 79.2948C321.598 68.1003 321.392 56.5043 317.584 45.7979C326.74 47.1538 334.561 53.1958 339.854 60.5504C344.388 66.9504 347.089 75.0969 345.506 82.9396C344.475 88.5152 341.416 93.4616 337.782 97.7247C332.478 104.038 327.531 110.666 322.064 116.849C277.937 116.653 233.809 116.914 189.671 116.719C183.922 109.31 177.869 102.15 172.055 94.8067C166.588 87.9294 164.592 78.2969 167.542 69.9335C171.588 58.0881 181.894 47.9023 194.477 45.787C190.875 56.5586 190.441 68.1219 191.7 79.3382C195.008 79.3165 198.317 79.3165 201.625 79.3274C200.443 68.7728 202.851 56.5911 211.887 49.9742ZM203.567 85.0006C201.256 87.7775 201.571 91.5308 202.298 94.8284C195.908 95.5769 191.635 102.877 194.737 108.681C197.622 115.113 206.995 115.33 211.127 110.015C213.232 112.011 215.716 114.007 218.807 113.822C224.936 114.332 230.045 107.574 228.115 101.782C227.182 97.9308 223.58 95.6311 219.936 94.8067C220.76 91.3138 220.89 87.246 218.276 84.4257C214.609 79.9457 206.821 80.1518 203.567 85.0006ZM249.82 83.5904C246.523 86.3131 246.024 91.0318 247.412 94.8718C243.062 95.4901 238.962 98.8636 238.788 103.474C237.997 108.8 242.683 114.126 248.096 113.833C251.35 114.137 253.953 111.924 256.285 109.982C258.357 112.217 261.091 114.224 264.312 113.822C270.42 114.007 275.149 107.086 272.98 101.445C271.906 97.768 268.413 95.4684 264.779 94.8826C265.419 91.9538 265.929 88.6996 264.312 85.9877C261.687 80.8569 253.953 79.5226 249.82 83.5904ZM293.481 84.9572C291.117 87.745 291.583 91.5742 292.277 94.8826C290.26 95.4358 288.068 95.924 286.593 97.5294C282.037 101.597 283.068 110.08 288.611 112.792C292.83 115.113 298.005 113.475 300.988 109.961C303.136 111.967 305.652 114.072 308.798 113.833C314.319 114.256 319.146 108.887 318.279 103.452C318.181 98.8311 314.059 95.5552 309.785 94.7958C310.707 91.3464 310.848 87.2569 308.169 84.5125C304.589 79.9131 296.79 80.1843 293.481 84.9572Z" fill="#E23627"/>
<path d="M159.081 165.304C223.721 165.304 288.35 165.293 352.979 165.315C352.979 175.794 352.969 186.272 352.99 196.751C288.35 196.773 223.721 196.762 159.081 196.762C159.081 186.272 159.081 175.794 159.081 165.304ZM222.311 167.799C222.344 176.824 222.3 185.86 222.344 194.896C223.407 194.885 225.544 194.864 226.607 194.853C226.596 191.034 226.596 187.227 226.617 183.409C228.169 183.409 229.72 183.398 231.271 183.387C233.148 187.216 234.981 191.056 236.814 194.896C238.636 194.874 240.459 194.853 242.281 194.842C240.177 191.002 238.3 187.043 236.131 183.246C241.956 180.664 242.856 171.693 237.009 168.645C232.312 166.996 227.192 168.125 222.311 167.799ZM276.787 168.222C272.654 169.654 270.3 174.058 270.561 178.299C270.636 182.975 269.628 188.518 273.196 192.238C277.839 197.326 287.667 195.417 289.511 188.594C290.292 183.951 290.205 179.146 289.609 174.481C288.242 169.079 281.864 166.4 276.787 168.222Z" fill="#094CA1"/>
<path d="M226.596 171.812C230.121 171.975 237.183 170.543 236.695 176.108C235.719 180.751 230.024 179.134 226.596 179.406C226.607 176.867 226.607 174.34 226.596 171.812Z" fill="#094CA1"/>
<path d="M278.881 172.431C281.994 171.411 285.237 174.091 285.346 177.247C285.638 180.436 285.747 183.723 285.053 186.88C284.337 189.961 280.421 191.664 277.763 189.852C274.552 187.921 275.236 183.658 275.116 180.491C275.008 177.453 275.442 173.451 278.881 172.431Z" fill="#094CA1"/>
<path d="M203.805 353.03C203.881 314.902 203.74 276.784 203.881 238.655C238.756 238.752 273.63 238.676 308.516 238.698C308.494 276.784 308.516 314.88 308.505 352.965C308.7 356.024 306.422 358.487 304.188 360.255C292.136 369.497 277.015 373.847 262.056 375.17C243.93 376.211 225.099 372.111 209.999 361.763C207.211 359.593 203.339 357.098 203.805 353.03ZM246.479 253.169C247.293 266.066 248.323 278.953 248.887 291.872C247.52 293.174 246.186 294.519 244.885 295.897C232.746 294.996 220.586 294.194 208.426 293.521C208.556 299.813 208.524 306.115 208.448 312.407C220.662 311.745 232.844 310.725 245.047 310.031C246.273 311.43 247.586 312.765 248.974 314.012C248.323 326.877 247.575 339.742 246.577 352.575C252.857 352.618 259.149 352.586 265.44 352.607C264.714 339.699 263.705 326.812 263.206 313.893C264.616 312.656 265.918 311.289 267.371 310.096C279.466 310.649 291.55 311.799 303.645 312.417C303.613 306.126 303.591 299.845 303.667 293.554C291.539 294.14 279.423 295.018 267.306 295.908C266.07 294.53 264.768 293.217 263.325 292.079C263.781 279.094 264.779 266.131 265.712 253.18C259.301 253.158 252.89 253.18 246.479 253.169Z" fill="#094CA1"/>
<path d="M246.327 398.091C258.325 395.184 271.504 397.895 281.397 405.283C294.761 414.85 301.476 432.51 297.918 448.553C295.087 462.774 284.369 475.075 270.712 479.902C263.813 482.462 256.253 483.015 249.007 481.887C235.751 479.815 223.765 471.007 217.853 458.967C211.963 447.642 211.767 433.584 217.126 422.02C222.441 410.088 233.582 400.976 246.327 398.091ZM233.885 409.253C224.567 415.74 219.057 426.75 218.167 437.955C226.162 423.354 242.802 414.601 259.333 415.49C258.477 410.62 256.481 406.053 253.704 401.974C246.62 402.658 239.635 404.99 233.885 409.253ZM262.121 402.072C268.402 413.993 267.838 429.169 260.06 440.276C262.273 444.54 265.321 448.39 269.226 451.222C275.778 441.47 277.698 428.637 273.457 417.584C271.103 411.596 267.469 405.803 262.121 402.072ZM276.755 408.125C284.966 422.27 284.554 441.014 275.301 454.584C279.911 456.472 284.923 457.068 289.869 456.624C293.134 449.529 294.848 441.491 293.34 433.735C291.691 423.354 285.487 413.906 276.755 408.125ZM220.391 453.304C227.55 441.817 241.056 434.788 254.604 435.992C257.153 431.946 258.759 427.401 259.496 422.693C241.24 420.653 222.409 434.874 220.391 453.304ZM239.602 445.299C247.022 462.036 268.554 471.452 285.541 463.881C273.522 463.165 261.622 457.025 255.526 446.405C254.539 445.169 254.268 442.815 252.326 442.782C247.965 442.695 243.681 443.813 239.602 445.299ZM224.557 460.54C230.045 468.827 238.843 474.826 248.605 476.8C256.904 478.557 265.517 477.017 273.207 473.643C256.774 473.426 240.611 464.011 233.582 448.944C229.698 452.046 226.759 456.114 224.557 460.54Z" fill="#094CA1"/>
<path d="M222.311 167.799C227.193 168.125 232.313 166.997 237.01 168.645C242.856 171.694 241.956 180.664 236.131 183.246C238.301 187.043 240.177 191.002 242.282 194.842C240.459 194.853 238.637 194.875 236.814 194.896C234.981 191.056 233.148 187.216 231.271 183.387C229.72 183.398 228.169 183.409 226.618 183.409C226.596 187.227 226.596 191.035 226.607 194.853C225.544 194.864 223.407 194.885 222.344 194.896C222.301 185.86 222.344 176.824 222.311 167.799ZM226.596 171.813C226.607 174.34 226.607 176.868 226.596 179.406C230.024 179.135 235.719 180.751 236.695 176.108C237.183 170.544 230.122 171.976 226.596 171.813Z" fill="white"/>
<path d="M276.787 168.222C281.864 166.4 288.242 169.079 289.609 174.481C290.206 179.146 290.292 183.951 289.511 188.594C287.667 195.417 277.839 197.326 273.197 192.239C269.628 188.518 270.637 182.975 270.561 178.3C270.301 174.058 272.654 169.654 276.787 168.222ZM278.881 172.431C275.442 173.451 275.008 177.454 275.117 180.491C275.236 183.658 274.553 187.921 277.764 189.852C280.421 191.664 284.337 189.961 285.053 186.88C285.747 183.723 285.639 180.437 285.346 177.247C285.237 174.091 281.994 171.411 278.881 172.431Z" fill="white"/>
<path d="M159.092 211.102C223.732 211.102 288.372 211.113 353.012 211.102C352.991 290.234 353.034 369.367 352.991 448.499C352.687 457.318 346.146 464.271 339.692 469.576C324.343 481.952 304.958 487.853 285.953 491.91C255.125 498.408 222.615 494.08 193.663 482.093C182.013 477.017 170.536 470.14 163.03 459.639C160.09 455.43 158.767 450.321 159.06 445.223C159.114 367.175 159.06 289.139 159.092 211.102ZM189.465 224.727C189.444 267.834 189.465 310.942 189.444 354.05C189.324 358.639 191.244 363.053 194.184 366.492C199.445 372.805 206.702 377.047 214.1 380.377C234.124 389.174 256.98 392.168 278.349 386.864C291.16 383.761 304.112 379.129 314.222 370.375C319.331 366.069 323.063 359.81 322.867 352.944C322.9 310.205 322.878 267.466 322.867 224.727C278.404 224.716 233.929 224.716 189.465 224.727ZM246.328 398.091C233.582 400.976 222.442 410.088 217.126 422.02C211.768 433.584 211.963 447.642 217.853 458.967C223.765 471.007 235.751 479.815 249.007 481.887C256.253 483.016 263.814 482.462 270.713 479.902C284.37 475.075 295.087 462.774 297.918 448.553C301.476 432.51 294.762 414.85 281.397 405.283C271.505 397.896 258.325 395.184 246.328 398.091Z" fill="white"/>
<path d="M233.885 409.253C239.634 404.99 246.62 402.658 253.704 401.974C256.481 406.053 258.477 410.62 259.333 415.49C242.802 414.601 226.162 423.355 218.167 437.955C219.057 426.75 224.567 415.74 233.885 409.253Z" fill="white"/>
<path d="M262.122 402.072C267.469 405.803 271.103 411.596 273.457 417.584C277.699 428.637 275.779 441.47 269.227 451.222C265.322 448.39 262.273 444.54 260.061 440.277C267.838 429.169 268.402 413.993 262.122 402.072Z" fill="white"/>
<path d="M276.755 408.125C285.487 413.906 291.692 423.355 293.34 433.736C294.848 441.492 293.134 449.529 289.869 456.624C284.923 457.068 279.911 456.472 275.301 454.584C284.554 441.014 284.966 422.27 276.755 408.125Z" fill="white"/>
<path d="M220.392 453.304C222.409 434.875 241.24 420.654 259.497 422.693C258.759 427.401 257.154 431.946 254.604 435.992C241.056 434.788 227.551 441.817 220.392 453.304Z" fill="white"/>
<path d="M239.602 445.299C243.681 443.813 247.965 442.696 252.326 442.783C254.268 442.815 254.539 445.169 255.526 446.406C261.622 457.025 273.522 463.165 285.541 463.881C268.554 471.452 247.022 462.037 239.602 445.299Z" fill="white"/>
<path d="M224.557 460.54C226.759 456.114 229.699 452.046 233.582 448.944C240.611 464.011 256.774 473.426 273.208 473.643C265.517 477.017 256.904 478.557 248.606 476.8C238.843 474.826 230.046 468.827 224.557 460.54Z" fill="white"/>
</svg>
