<svg xmlns="http://www.w3.org/2000/svg" xmlns:xlink="http://www.w3.org/1999/xlink" width="199.14" height="237.91" viewBox="0 0 199.14 237.91"><defs><linearGradient id="a" x1="134" y1="891.34" x2="137.51" y2="891.34" gradientTransform="matrix(56.69, 0, 0, -67.72, -7183.88, 60878.32)" gradientUnits="userSpaceOnUse"><stop offset="0" stop-color="#c49b74"/><stop offset="0.37" stop-color="#b88d56"/><stop offset="0.48" stop-color="#c5a678"/><stop offset="0.72" stop-color="#f7d8ba"/><stop offset="0.93" stop-color="#c5a577"/><stop offset="1" stop-color="#b88f56"/></linearGradient></defs><title>Angers SCO logo - Brandlogos.net</title><path d="M605.19,452,512,628.78,418.82,452,456,397.23H568.09Z" transform="translate(-412.43 -393.05)" style="fill:#fff"/><path d="M515.35,545.82l.38-.5.4-.49.4-.48c.27-.32.56-.63.84-.94l.43-.46.44-.45q.89-.89,1.82-1.72t1.92-1.61c.33-.26.65-.51,1-.76l.49-.35.25-.17.12-.08.06,0,0,0h0l-3.43-3.93-.26.29-.23.27-.45.54-.85,1.08c-.56.73-1.09,1.47-1.6,2.23s-1,1.52-1.46,2.31l-.35.59-.33.6-.92,1.83-.28.61-.27.63c-.08.2-.17.42-.25.63l-.11.28,1.8-11.83a11.53,11.53,0,0,0-2.2-8.69l-.75-1-.75,1a11.55,11.55,0,0,0-2.21,8.69l1.8,11.83-.11-.28c-.09-.21-.16-.43-.26-.63l-.26-.63-.28-.61c-.09-.2-.19-.41-.3-.61-.2-.41-.41-.81-.63-1.21l-.33-.6c-.11-.2-.23-.39-.35-.59-.46-.78-.94-1.55-1.45-2.31s-1.05-1.5-1.6-2.23q-.41-.54-.85-1.08l-.45-.54-.23-.27-.26-.29L500,537.75h0l0,0,.06,0,.12.08.24.17.49.35c.33.24.66.5,1,.76.65.51,1.29,1.05,1.91,1.61s1.24,1.13,1.83,1.72l.44.45.43.46c.28.31.57.62.83.94l.41.48.39.49.38.5c.13.17.25.35.37.51s.32.46.47.7l-.18,0a11.74,11.74,0,0,0-1.41.35c-.24.08-.47.16-.7.25a5.51,5.51,0,0,0-.7.35,6.39,6.39,0,0,0,.7.35l.7.26a12.92,12.92,0,0,0,1.41.35,13.21,13.21,0,0,0,1.41.2c.08.15.15.3.21.45l.25.59.22.6a13.06,13.06,0,0,1,.56,2.14l.06.37L512,553a13.1,13.1,0,0,1,.55-2.14l.22-.6.25-.59a4.61,4.61,0,0,1,.2-.43,14.88,14.88,0,0,0,1.63-.21,11.7,11.7,0,0,0,1.41-.35c.24-.08.47-.16.7-.26a6.52,6.52,0,0,0,.7-.35,5.62,5.62,0,0,0-.7-.35l-.7-.26a11.47,11.47,0,0,0-1.41-.35l-.35-.07.44-.65c.15-.21.25-.35.37-.51" transform="translate(-412.43 -393.05)" style="fill:#c5a577"/><path d="M518.54,515.88v-20h-13v20A8.67,8.67,0,0,1,512,513.6a9,9,0,0,1,6.55,2.29" transform="translate(-412.43 -393.05)" style="fill:#140e0b"/><path d="M465.87,407.34a.64.64,0,0,1,.73-.73h1.28c.52,0,.74.23.74.73V413h-2.76Zm-1.8,11h1.53a.24.24,0,0,0,.27-.27v-3.21h2.76V418a.24.24,0,0,0,.2.27h1.68a.24.24,0,0,0,.27-.27V407.34a2.23,2.23,0,0,0-2.37-2.56h-2.22a2.23,2.23,0,0,0-2.37,2.56V418a.24.24,0,0,0,.2.27h.07" transform="translate(-412.43 -393.05)" style="fill:#140e0b"/><path d="M482.06,418.3h1.53a.24.24,0,0,0,.27-.27v-7.62H484l3.06,7.62a.38.38,0,0,0,.38.27h1.09c.19,0,.27-.08.27-.27V405.17c0-.19-.08-.27-.27-.27H487c-.17,0-.25.08-.25.27v7.21h-.13l-2.89-7.2a.38.38,0,0,0-.38-.27h-1.28a.24.24,0,0,0-.27.27V418a.24.24,0,0,0,.2.27h.07" transform="translate(-412.43 -393.05)" style="fill:#140e0b"/><path d="M502.19,418.42h2.11a2.23,2.23,0,0,0,2.37-2.56v-4a.24.24,0,0,0-.2-.27h-2.77a.27.27,0,0,0-.29.25l-.12,1.23c0,.17.09.27.27.27h1v2.56a.63.63,0,0,1-.73.73h-1.2a.63.63,0,0,1-.73-.73v-8.51a.63.63,0,0,1,.73-.73h1.2a.63.63,0,0,1,.73.73v1.53a.22.22,0,0,0,.19.25h.08l1.53-.15a.28.28,0,0,0,.27-.29h0v-1.34a2.23,2.23,0,0,0-2.37-2.56h-2.11a2.23,2.23,0,0,0-2.37,2.56v8.5a2.23,2.23,0,0,0,2.37,2.56" transform="translate(-412.43 -393.05)" style="fill:#140e0b"/><path d="M518,418.3h5.62a.27.27,0,0,0,.29-.25l.17-1.32a.21.21,0,0,0-.15-.26h-4.06v-4.05h2.66a.27.27,0,0,0,.29-.25l.17-1.32a.21.21,0,0,0-.15-.26h-3v-3.81h3.75a.27.27,0,0,0,.29-.25l.17-1.32c0-.17-.06-.27-.23-.27H518a.24.24,0,0,0-.27.27V418a.24.24,0,0,0,.2.27H518" transform="translate(-412.43 -393.05)" style="fill:#140e0b"/><path d="M537.23,406.76h1.89a.63.63,0,0,1,.73.73v4.78a.63.63,0,0,1-.73.73h-1.89Zm-1.88,11.56H537a.24.24,0,0,0,.27-.27v-3.21h1.32l1.53,3.25a.33.33,0,0,0,.35.23h1.67c.19,0,.25-.15.17-.31l-1.69-3.44v-.15a2.16,2.16,0,0,0,1.41-2.36v-4.6a2.23,2.23,0,0,0-2.37-2.56h-4.27a.24.24,0,0,0-.27.27V418a.24.24,0,0,0,.2.27h.07" transform="translate(-412.43 -393.05)" style="fill:#140e0b"/><path d="M555.67,418.42h2.41c1.44,0,2.35-.82,2.35-2.56v-2.72c0-1.76-.92-2.56-2.35-2.56h-1.8c-.5,0-.74-.23-.74-.73v-2.5c0-.5.25-.73.74-.73h1.17c.5,0,.75.23.75.73v1.34a.22.22,0,0,0,.19.25h.08l1.51-.15a.27.27,0,0,0,.27-.27v-1.17c0-1.76-.92-2.56-2.35-2.56h-2.11c-1.44,0-2.35.82-2.35,2.56v2.49c0,1.76.92,2.56,2.35,2.56h1.8c.5,0,.75.23.75.73v2.72c0,.5-.25.73-.75.73h-1.45c-.5,0-.75-.23-.75-.73v-1.57a.22.22,0,0,0-.19-.25h-.08l-1.51.15a.27.27,0,0,0-.27.27v1.4c0,1.76.92,2.56,2.35,2.56" transform="translate(-412.43 -393.05)" style="fill:#140e0b"/><path d="M461.69,486.63H481a5.94,5.94,0,0,0,5.89-5.94V470.32a7.8,7.8,0,0,0-2.29-5.53L463.81,444a1.33,1.33,0,0,1-.48-1v-7.73a.45.45,0,0,1,.43-.47H477a.44.44,0,0,1,.47.47v9.33l9.44,0V433.92a7.8,7.8,0,0,0-7.8-7.8H461.69a7.8,7.8,0,0,0-7.8,7.8h0v10.23a5.93,5.93,0,0,0,1.76,4.18l21.81,21.74v7.4a.47.47,0,0,1-.47.47H463.78a.48.48,0,0,1-.48-.48h0v-9.29l-9.44,0v10.67a7.8,7.8,0,0,0,7.8,7.8h0" transform="translate(-412.43 -393.05)" style="fill:#140e0b"/><path d="M546.39,435.27a.47.47,0,0,1,.47-.47h13.39a.47.47,0,0,1,.47.47l0,42.08a.59.59,0,0,1-.59.59H547a.59.59,0,0,1-.59-.59h0Zm-1.64,51.36h17.56a7.8,7.8,0,0,0,7.8-7.8l0-44.86a7.8,7.8,0,0,0-7.79-7.81l-17.62,0a7.8,7.8,0,0,0-7.82,7.79v0l0,44.89A7.8,7.8,0,0,0,544.76,486.63Z" transform="translate(-412.43 -393.05)" style="fill:#140e0b"/><path d="M495.73,478.75a7.8,7.8,0,0,0,7.78,7.8l17.54.06a7.8,7.8,0,0,0,7.83-7.78V468.18h-9.46v9.18a.59.59,0,0,1-.59.59H505.76a.59.59,0,0,1-.59-.59h0l0-42.08a.47.47,0,0,1,.47-.46H519a.47.47,0,0,1,.47.46v9.34l9.44,0V434.23a8.11,8.11,0,0,0-8.1-8.11H503.5a7.8,7.8,0,0,0-7.8,7.8h0Z" transform="translate(-412.43 -393.05)" style="fill:#140e0b"/><path d="M418.82,452,456,397.22H568.09L605.19,452,512,628.78ZM453.89,393,412.43,452,512,631h0l99.58-179L570.17,393Z" transform="translate(-412.43 -393.05)" style="fill:url(#a)"/><path d="M598.94,452,574,419.87h0l17,32.12L570.15,495.9H557.63v26.3l-13,27.4V495.92h-13V577l-13,27.4V569.89a6.52,6.52,0,0,0-13,0h0v34.4l-13-27.4v-81h-13v53.57l-13-27.4V495.92H453.89L433,452l17-32.14h0L425.09,452l87,169.75h0Z" transform="translate(-412.43 -393.05)" style="fill:#140e0b"/></svg>