<svg xmlns="http://www.w3.org/2000/svg" width="145" height="145" viewBox="0 0 145 145"><title>RC Strasbourg Alsace logo - Brandlogos.net</title><path d="M512,439.5A72.5,72.5,0,1,0,584.5,512,72.58,72.58,0,0,0,512,439.5" transform="translate(-439.5 -439.5)"/><path d="M512,440a72,72,0,1,0,72,72,72,72,0,0,0-72-72" transform="translate(-439.5 -439.5)" style="fill:#fff"/><circle cx="72.5" cy="72.5" r="68.22" style="fill:#009fe3"/><path d="M458.91,469.11a68.31,68.31,0,0,0-14.29,32.23l91.94,74.38A68.3,68.3,0,0,0,565,555Z" transform="translate(-439.5 -439.5)" style="fill:#dc2f34"/><path d="M463.34,546.13l-1-1.55,2.8-.75-1.75,2.3Zm3.25-4.05-7.77,2,.86,1.27,1.36-.37,1.5,2.22-.85,1.11.86,1.27,4.69-6.5Z" transform="translate(-439.5 -439.5)" style="fill:#fff"/><path d="M470.15,546.87l-1-1.12-5.72,4.9,3.17,3.71,1-.86-2.22-2.59,4.72-4Z" transform="translate(-439.5 -439.5)" style="fill:#fff"/><path d="M473.56,555.73a2.39,2.39,0,0,0-.64-1.42l-.56-.72a1.25,1.25,0,0,1-.31-.68.69.69,0,0,1,.22-.54,1,1,0,0,1,1.49.1,2.07,2.07,0,0,1,.77,1.44l1.31,0a3.23,3.23,0,0,0-1.17-2.3,2.32,2.32,0,0,0-3.47-.13,2,2,0,0,0-.62,1.45,2.49,2.49,0,0,0,.64,1.45l.56.72a1.07,1.07,0,0,1,.32.65.83.83,0,0,1-.26.61c-.41.44-1,.37-1.62-.24a2.42,2.42,0,0,1-.88-1.7l-1.35,0A3.55,3.55,0,0,0,469.3,557c1.15,1.09,2.6,1.31,3.6.25a2,2,0,0,0,.66-1.55" transform="translate(-439.5 -439.5)" style="fill:#fff"/><path d="M477.14,560.13l-1.5-1.12,2.41-1.62Zm1.74-4.89-6.7,4.39,1.22.92,1.16-.79,2.15,1.6-.44,1.33,1.23.92,2.3-7.68-.92-.69Z" transform="translate(-439.5 -439.5)" style="fill:#fff"/><path d="M485.84,562.47a2.65,2.65,0,0,0-1.18-3.45,2.7,2.7,0,0,0-2.14-.33c-1,.27-1.47,1-2.19,2.23s-1.15,2-.88,3a2.71,2.71,0,0,0,1.34,1.71,2.65,2.65,0,0,0,3.58-.66l-1.29-.75a1.24,1.24,0,0,1-1.63.28,1.2,1.2,0,0,1-.61-.81c-.08-.42,0-.78.75-2s1-1.51,1.39-1.65a1.21,1.21,0,0,1,1,.14,1.23,1.23,0,0,1,.55,1.56l1.29.76Z" transform="translate(-439.5 -439.5)" style="fill:#fff"/><path d="M484.81,567.76l4.53,2,.53-1.2-3.19-1.41.74-1.67,2.72,1.2.53-1.2-2.72-1.2.72-1.62,3.19,1.41.53-1.2-4.53-2-3.05,6.88Z" transform="translate(-439.5 -439.5)" style="fill:#fff"/><path d="M476.93,463.22l1.14-.79a1,1,0,1,1,1.13,1.64l-1.14.79-1.13-1.64Zm3.54,5.11-1.71-2.47.87-.6,2.92,1.63,1.4-1-3.23-1.72a2,2,0,0,0,0-2.41,2.28,2.28,0,0,0-3.32-.51L475,463l4.28,6.19,1.21-.84Z" transform="translate(-439.5 -439.5)" style="fill:#fff"/><path d="M486.68,461.56l-1.66.87-.43-2.87Zm-1.23,3.55-.22-1.39,2.37-1.24,1,1,1.36-.71L484,457.35l-1,.54,1.07,7.94Z" transform="translate(-439.5 -439.5)" style="fill:#fff"/><path d="M490.77,461.67a2.73,2.73,0,0,0,2.17,0,2.66,2.66,0,0,0,1.73-3.21l-1.39.53a1.25,1.25,0,0,1-.8,1.45,1.23,1.23,0,0,1-1,0c-.37-.2-.59-.51-1.11-1.85s-.56-1.72-.41-2.12a1.2,1.2,0,0,1,.74-.7,1.23,1.23,0,0,1,1.55.54l1.4-.54a2.66,2.66,0,0,0-3.43-1.24,2.72,2.72,0,0,0-1.6,1.46c-.43,1-.14,1.76.37,3.11s.83,2.13,1.8,2.56" transform="translate(-439.5 -439.5)" style="fill:#fff"/><path d="M498,460,496,452.74l-1.41.4,2.05,7.24L498,460Z" transform="translate(-439.5 -439.5)" style="fill:#fff"/><path d="M501,459.26l-.82-4.55,3.76,4,1.29-.23-1.34-7.41-1.44.26.82,4.54-3.76-4-1.29.23,1.34,7.41,1.45-.26Z" transform="translate(-439.5 -439.5)" style="fill:#fff"/><path d="M507.19,457.59a3,3,0,0,0,4.13-.27,2.94,2.94,0,0,0,.61-2.33l-.06-1.1L509,454l.06,1.24,1.38-.07v.28a1.43,1.43,0,0,1-.29,1,1.35,1.35,0,0,1-1,.47,1.22,1.22,0,0,1-1-.34c-.29-.3-.4-.67-.47-2.11s0-1.8.25-2.13a1.24,1.24,0,0,1,.92-.45,1.27,1.27,0,0,1,1.41,1l1.48-.07a2.9,2.9,0,0,0-4.92-1.37c-.71.79-.68,1.63-.61,3.07s.13,2.28.91,3" transform="translate(-439.5 -439.5)" style="fill:#fff"/><path d="M518.24,458.58a2.66,2.66,0,0,0,3-2.05l-1.48-.17a1.24,1.24,0,0,1-1.38.92,1.21,1.21,0,0,1-.89-.49c-.24-.35-.29-.73-.13-2.16s.3-1.79.61-2.07a1.21,1.21,0,0,1,1-.28,1.23,1.23,0,0,1,1.13,1.2l1.49.17A2.65,2.65,0,0,0,519.1,451a2.71,2.71,0,0,0-2.09.56c-.83.66-.94,1.5-1.1,2.93s-.25,2.27.42,3.1a2.72,2.72,0,0,0,1.92,1" transform="translate(-439.5 -439.5)" style="fill:#fff"/><path d="M527.09,458.86l-3.33-.76,1.4-6.06-1.43-.33L522,459l4.76,1.09Z" transform="translate(-439.5 -439.5)" style="fill:#fff"/><path d="M529.89,461.26a2.62,2.62,0,0,0,3.49-1.58L535,455l-1.38-.49L532,459.16a1.31,1.31,0,1,1-2.47-.87l1.63-4.62-1.39-.49-1.64,4.67a2.62,2.62,0,0,0,1.73,3.41" transform="translate(-439.5 -439.5)" style="fill:#fff"/><path d="M537.93,461.21a.93.93,0,1,1-.83,1.65l-1.37-.69.83-1.65Zm0-3.42,1.28.65a.87.87,0,1,1-.78,1.55l-1.29-.65.78-1.55Zm-1.29,6.31a2.08,2.08,0,0,0,3-.9,1.83,1.83,0,0,1,1.36-2.95,2.06,2.06,0,0,0-1.13-2.94l-2.7-1.36-3.38,6.72,2.82,1.42Z" transform="translate(-439.5 -439.5)" style="fill:#fff"/><path d="M546.68,462.94l.9.67a1.32,1.32,0,0,1,.61,1c0,.43-.23.83-.93,1.78s-1,1.32-1.43,1.42a1.32,1.32,0,0,1-1.16-.28l-.9-.67,2.91-4Zm-.2,6.21c.76-.25,1.22-.86,2-1.86a4.39,4.39,0,0,0,1.2-2.43,2.57,2.57,0,0,0-1.18-2.23L546.27,461l-4.46,6.06,2.19,1.61a2.56,2.56,0,0,0,2.48.47" transform="translate(-439.5 -439.5)" style="fill:#fff"/><path d="M550.79,474.56l.9-1-2.55-2.39,1.26-1.33,2.16,2,.9-1-2.17-2,1.21-1.29L555,470l.9-1-3.61-3.4-5.16,5.49,3.61,3.4Z" transform="translate(-439.5 -439.5)" style="fill:#fff"/><path d="M557.17,477.37a1.06,1.06,0,0,1,.22.69.84.84,0,0,1-.35.57c-.48.37-1,.21-1.57-.48a2.44,2.44,0,0,1-.61-1.82l-1.33-.17a3.54,3.54,0,0,0,.9,2.78c1,1.26,2.36,1.7,3.52.81a2.07,2.07,0,0,0,.9-1.43,2.42,2.42,0,0,0-.41-1.5L558,476a1.18,1.18,0,0,1-.19-.72.69.69,0,0,1,.29-.5,1,1,0,0,1,1.46.33,2.06,2.06,0,0,1,.54,1.54l1.3.17a3.23,3.23,0,0,0-.79-2.46,2.32,2.32,0,0,0-3.41-.68,2,2,0,0,0-.84,1.33,2.51,2.51,0,0,0,.4,1.54l.44.79Z" transform="translate(-439.5 -439.5)" style="fill:#fff"/><path d="M557.57,483.3l.77,1.26,5.3-3.25,1,1.68,1.12-.68L563,477.69l-1.11.68,1,1.68-5.3,3.24Z" transform="translate(-439.5 -439.5)" style="fill:#fff"/><path d="M566.09,485.83l.58,1.26a1,1,0,1,1-1.8.83l-.58-1.26Zm-5.65,2.61,2.73-1.26.44,1-2.11,2.59.72,1.54,2.24-2.89a2,2,0,0,0,2.37.42,2.28,2.28,0,0,0,1.07-3.19l-1.24-2.68-6.84,3.16.61,1.33Z" transform="translate(-439.5 -439.5)" style="fill:#fff"/><path d="M568.37,494,566,495.73l-.57-1.78,2.9.07Zm-5.61-.12,1.4,0,.82,2.55-1.13.83.47,1.46,6.33-4.91-.35-1.1-8-.32.47,1.46Z" transform="translate(-439.5 -439.5)" style="fill:#fff"/><path d="M569.57,498.1a2,2,0,0,0-1.35.81,2.52,2.52,0,0,0-.33,1.55l0,.91a1.08,1.08,0,0,1-.12.72.84.84,0,0,1-.57.35c-.59.11-1-.28-1.18-1.14a2.45,2.45,0,0,1,.28-1.89l-1.11-.75a3.54,3.54,0,0,0-.45,2.89c.3,1.56,1.34,2.58,2.77,2.3A2,2,0,0,0,569,503a2.42,2.42,0,0,0,.31-1.52l0-.91a1.24,1.24,0,0,1,.15-.73.72.72,0,0,1,.49-.31c.51-.1,1,.18,1.15.95a2.1,2.1,0,0,1-.22,1.62l1.08.74a3.21,3.21,0,0,0,.4-2.55,2.32,2.32,0,0,0-2.74-2.14" transform="translate(-439.5 -439.5)" style="fill:#fff"/><path d="M568.77,506.67l.11,1.53a.88.88,0,0,1-.85,1,.89.89,0,0,1-1-.91l-.11-1.53Zm3.05-.22.1,1.44a.85.85,0,0,1-.79,1c-.51,0-.89-.29-.93-.91l-.11-1.44,1.73-.12Zm-6.08,2.12a2.08,2.08,0,0,0,2.33,2.14,1.83,1.83,0,0,1,3.23-.34,2.06,2.06,0,0,0,1.94-2.48l-.22-3-7.51.54.23,3.14Z" transform="translate(-439.5 -439.5)" style="fill:#fff"/><path d="M571.59,516c-.33.25-.7.33-2.13.25s-1.78-.2-2.08-.49a1.23,1.23,0,0,1-.36-1,1.28,1.28,0,0,1,.47-.93c.33-.25.68-.32,2.12-.23s1.79.19,2.09.48a1.26,1.26,0,0,1,.35,1,1.22,1.22,0,0,1-.46.92m-1.9-3.84c-1.44-.08-2.28-.12-3.07.58a3,3,0,0,0-.24,4c.71.79,1.55.86,3,.95s2.28.11,3.07-.6a2.68,2.68,0,0,0,.91-2,2.7,2.7,0,0,0-.67-2.06c-.71-.79-1.55-.86-3-.94" transform="translate(-439.5 -439.5)" style="fill:#fff"/><path d="M565,521.34a2.62,2.62,0,0,0,2.12,3.19l4.88.86.25-1.44-4.83-.85a1.31,1.31,0,1,1,.45-2.57l4.82.85.25-1.45-4.88-.86a2.62,2.62,0,0,0-3.08,2.27" transform="translate(-439.5 -439.5)" style="fill:#fff"/><path d="M567.4,529.44l.41-1.32,1.9.58L569.3,530a1,1,0,1,1-1.9-.59m-3.63-2.57,2.87.89-.31,1-3.3.52-.5,1.62,3.6-.65a2,2,0,0,0,1.48,1.9,2.28,2.28,0,0,0,2.92-1.65l.87-2.82-7.19-2.22Z" transform="translate(-439.5 -439.5)" style="fill:#fff"/><path d="M565.68,533.14c-1.31-.59-2.08-.93-3.08-.56a3,3,0,0,0-1.64,3.8,3,3,0,0,0,1.8,1.6l1,.45,1.17-2.59-1.13-.51-.57,1.26-.25-.11a1.45,1.45,0,0,1-.78-.72,1.36,1.36,0,0,1,0-1.13,1.24,1.24,0,0,1,.75-.69c.4-.12.78,0,2.08.54s1.6.82,1.78,1.2a1.36,1.36,0,0,1-1.58,1.8l-.61,1.35a2.7,2.7,0,0,0,3.36-1.59,2.73,2.73,0,0,0,.11-2.16c-.38-1-1.14-1.35-2.45-1.94" transform="translate(-439.5 -439.5)" style="fill:#fff"/><path d="M459.09,469.57l28.76,25.23a1.85,1.85,0,0,0,0,.27c.43,1.83,3.21,3.11,4.54,3.72l.47.22c1.51.78,3.32,1.95,3.73,2.69a1.32,1.32,0,0,1,.17,1.05,1.57,1.57,0,0,1-.88.87,1.26,1.26,0,0,1-.56.11c-.86,0-2.52-.54-6.52-1.86-1.56-.51-3.48-1.14-5.84-1.9a21.27,21.27,0,0,0-6.42-1.12c-5.5,0-7.52,3-7.71,3.28-2,2.55-3.17,9.36-1.57,17.74.08.4.16.8.25,1.2a46.54,46.54,0,0,0,16.07,26.15,45.33,45.33,0,0,0,28.45,10.09l1.44,0a45.54,45.54,0,0,0,19-4.82l2.72-1.37-2.95.77a41.45,41.45,0,0,1-10.05,1.2c-5.91,0-14.53-1.27-22-7.33-8.19-6.63-10.89-15.63-11.78-20.4-1.24-6.71-.42-12.64,1.09-14.51s3.84-2.27,6.37-2.79,5.42-1.11,7.18-3.28h0c1.76-2.17,1.74-5,1.72-7.71s0-5,1.41-6.81c1.59-2,7.76-4.09,14.94-4.09a33.78,33.78,0,0,1,21.43,7.29c12.92,10.47,12.81,26.9,12.66,30.08l-.15,3.05.78-3a45.34,45.34,0,0,0-15.28-46.7,46.68,46.68,0,0,0-29.21-10.28c-9,0-15.84,2.63-18,5.24-.36.35-4.61,4.78.83,14.27,1.24,2.16,2.25,3.91,3.08,5.32,2.72,4.67,3.36,5.78,3.18,6.56a1.34,1.34,0,0,1-1.23,1.19,1.78,1.78,0,0,1-.5-.08c-.81-.25-2.33-1.77-3.4-3.09l-.31-.41c-.89-1.19-2.73-3.67-4.63-3.67h-.23L459.5,469.07a1.68,1.68,0,0,0-.44-.24l-.29.36c0,.09.29.33.33.38" transform="translate(-439.5 -439.5)"/><path d="M488.47,493l0-.06a2.92,2.92,0,0,1,.87-.75l-23.76-17.75L487.92,494a2.89,2.89,0,0,1,.55-1" transform="translate(-439.5 -439.5)" style="fill:#fff"/><path d="M490.38,492.58a1.74,1.74,0,0,0-1.37.76l0,.05a1.74,1.74,0,0,0-.46,1.53c.36,1.52,3,2.76,4.19,3.28l.5.24c.34.18,3.32,1.74,4,2.94a1.94,1.94,0,0,1,.22,1.56,2.17,2.17,0,0,1-1.22,1.26,1.92,1.92,0,0,1-.83.18c-1,0-2.54-.51-6.72-1.89l-5.84-1.9a20.66,20.66,0,0,0-6.22-1.09c-5.32,0-7.15,3-7.17,3l0,0c-2.05,2.53-3.13,9.67-1.21,18.41A45.9,45.9,0,0,0,484,546.72a44.63,44.63,0,0,0,45.62,6.35,44.73,44.73,0,0,1-7.44.63c-6,0-14.79-1.29-22.42-7.47a34.75,34.75,0,0,1-12-20.79c-1.33-7.15-.36-13.08,1.22-15s4.2-2.5,6.74-3,5.21-1.07,6.82-3.06,1.6-4.69,1.58-7.3,0-5.26,1.55-7.22c1.72-2.13,8-4.33,15.44-4.33A34.42,34.42,0,0,1,543,492.93c10.84,8.78,12.68,21.66,12.9,27.74a44.71,44.71,0,0,0-15.7-43.27,46,46,0,0,0-28.81-10.14c-8.81,0-15.46,2.52-17.48,5l0,0s-4.35,4.28.93,13.5c1.24,2.16,2.25,3.9,3.08,5.32,3,5.09,3.49,6,3.24,7a1.91,1.91,0,0,1-1.85,1.68,2.45,2.45,0,0,1-.69-.11c-1.32-.4-3.47-3-3.71-3.3l-.33-.43c-.76-1-2.55-3.42-4.12-3.42" transform="translate(-439.5 -439.5)" style="fill:#fff"/><path d="M552.82,523.45a27.14,27.14,0,1,0-27.14,27.14,27.17,27.17,0,0,0,27.14-27.14" transform="translate(-439.5 -439.5)"/><path d="M525.67,497.08a26.38,26.38,0,1,0,26.38,26.37,26.41,26.41,0,0,0-26.38-26.37Z" transform="translate(-439.5 -439.5)" style="fill:#fff"/><path d="M541.26,536.13a8.19,8.19,0,0,0,6.18-2.42,9,9,0,0,0,2.68-6.23,8.25,8.25,0,0,0-2.51-5.85c-1.92-1.59-5.72-2.42-6.52-2.59s-2.26-.42-2.26-2.36a2.35,2.35,0,0,1,2.26-2.57,3,3,0,0,1,1.94,1.13c.5.5.25,2.32,2.44,2.32s2.19-2.57.5-5a5.71,5.71,0,0,0-5-2.57,6.38,6.38,0,0,0-6.46,6.71c0,6.08,6.27,6.58,8.09,7.08a4.29,4.29,0,0,1,3.38,4.07c0,2.13-2.07,4.07-4.7,4.07s-3.57-1.25-4-2.19-.75-2.82-1.07-3.95a9.76,9.76,0,0,0-2.13-2.88s-7.15-5.52-8.33-6.71c.31,0,6.77-.44,6.77-6.83s-7.52-6.71-7.52-6.71H513.39a1.77,1.77,0,0,0-1.64,1.88v19.75a2.29,2.29,0,0,0,2.25,2.07,2.42,2.42,0,0,0,2-2V506.75h10.41a2.41,2.41,0,0,1,2,2.47,2.65,2.65,0,0,1-2.34,2.55H519c-.88,0-1.72,1.13-1.72,2.09a2.6,2.6,0,0,0,.88,1.71s8.11,6.23,9.82,7.44c-.54,0-8.78,2-8.78,10.32s7.44,11.24,9.45,11.24h9.62a2.23,2.23,0,0,0,1.8-2,2.16,2.16,0,0,0-1.8-2h-8.94c-.79,0-5.81-.67-5.81-6.77s6.35-6.65,6.73-6.65a8.44,8.44,0,0,1,2.38.29c1.26,8.44,6.6,8.73,8.65,8.73" transform="translate(-439.5 -439.5)" style="fill:#004996"/><path d="M517,531.1h-7.58v-8.21l-.53-.53V518l-1.16-1.63-.82-8.4-.81,8.4L504.8,518v4.33l-.88.88v12.29s3.43,5.64,7.83,7.77h8.16l1.19-.94S517,540.82,517,531.1" transform="translate(-439.5 -439.5)" style="fill:#004996"/></svg>