<svg id="Layer_1" data-name="Layer 1" xmlns="http://www.w3.org/2000/svg" xmlns:xlink="http://www.w3.org/1999/xlink" viewBox="0 0 160.62 279.75"><defs><style>.cls-1{fill:#d9aa05;}.cls-2{fill:#ce1417;}.cls-3{fill:#fff;}.cls-4{fill:url(#linear-gradient);}.cls-5{fill:url(#linear-gradient-2);}.cls-6{fill:url(#linear-gradient-3);}.cls-7{fill:none;}</style><linearGradient id="linear-gradient" x1="-161.02" y1="239.58" x2="-161.02" y2="244.36" gradientTransform="translate(1288.18 -5460.4) scale(6.67 23.72)" gradientUnits="userSpaceOnUse"><stop offset="0" stop-color="#e30613"/><stop offset="0.3" stop-color="#e10613"/><stop offset="0.49" stop-color="#dc0812"/><stop offset="0.65" stop-color="#d10a10"/><stop offset="0.8" stop-color="#c30d0e"/><stop offset="0.93" stop-color="#b00f0a"/><stop offset="1" stop-color="#a31008"/></linearGradient><linearGradient id="linear-gradient-2" x1="-166.02" y1="236.39" x2="-166.02" y2="239.93" gradientTransform="translate(1536.01 -7282.81) scale(7.71 31.9)" xlink:href="#linear-gradient"/><linearGradient id="linear-gradient-3" x1="-152.02" y1="239.58" x2="-152.02" y2="244.36" gradientTransform="translate(1311.85 -5460.4) scale(6.67 23.72)" xlink:href="#linear-gradient"/></defs><title>as-monaco-fc-logo</title><path class="cls-1" d="M212.53,187a1.43,1.43,0,0,0,.86.18,1.11,1.11,0,0,0,1-1.17h0a1.21,1.21,0,0,0-.32-.68c0-.18-4.35-4.32-8.42-8.89-4.6-5.1-6.82-9.53-5.92-12.28a6.46,6.46,0,0,1,4.5-4.39,23.38,23.38,0,0,1-2.11-5.07,27.38,27.38,0,0,0-4.53,0,14.28,14.28,0,0,0-6,1.89,9.89,9.89,0,0,0-4.6,6C184.47,173.66,204.25,182.94,212.53,187Z" transform="translate(-175.69 -116.13)"/><path class="cls-1" d="M233.26,184.76a1.57,1.57,0,0,0,.89.29,1.28,1.28,0,0,0,.86-.32,1,1,0,0,0,.21-1.39c-6.67-7.85-18.85-23.66-14.46-33.51,3.57-6.75,14.06-3.57,16.49-3.07,1.36.36,2.36.64,3.07-.39s-.39-1.46-.61-1.68a25,25,0,0,0-17.63-8.46h-.82a15.92,15.92,0,0,0-13.85,8.46c-5.18,9.49,3.57,19.38,9.42,26A94.87,94.87,0,0,0,233.26,184.76Z" transform="translate(-175.69 -116.13)"/><path class="cls-2" d="M214.38,172.05l-.32-.36-1.68-2a8,8,0,0,0,1,7.82,53.11,53.11,0,0,0,4.64,7.14s3.57-.39,9.57-.82A89.23,89.23,0,0,1,214.38,172.05Z" transform="translate(-175.69 -116.13)"/><path class="cls-2" d="M238.08,182.58s.61.64.75.86c4,0,8.1-.29,12.49-.32a91.44,91.44,0,0,1-5-25.48,83.09,83.09,0,0,0-21.16,5.18A88.16,88.16,0,0,0,238.08,182.58Z" transform="translate(-175.69 -116.13)"/><path class="cls-1" d="M254.22,130.4a6.17,6.17,0,0,0-4.6,5.92,6.35,6.35,0,0,0,12.71,0,6.21,6.21,0,0,0-4.53-5.92v-5.5h5.67v-3.35h-5.67v-5.43h-3.57v5.43h-5.64v3.35h5.64Z" transform="translate(-175.69 -116.13)"/><path class="cls-1" d="M331.49,207.89c-.89-.43-23.77-8.67-75.49-8.67s-74.6,8.24-75.49,8.67a235.88,235.88,0,0,0-4.82,48.79c0,24.06,4.82,55.25,21.74,79.95s52.32,55.75,58.57,59.25c6.25-3.57,41.69-34.62,58.61-59.25s21.7-55.89,21.7-79.95A235.89,235.89,0,0,0,331.49,207.89Z" transform="translate(-175.69 -116.13)"/><path class="cls-1" d="M297.87,185.37a1.07,1.07,0,0,0,0,1.51l0,0a1.11,1.11,0,0,0,.64.32,2.5,2.5,0,0,0,.89-.18c8.39-4.1,28.05-13.35,25.38-24.34a9.89,9.89,0,0,0-4.64-6,14.6,14.6,0,0,0-6-1.89,27.48,27.48,0,0,0-4.53,0,23.84,23.84,0,0,1-1.89,5,6.6,6.6,0,0,1,4.64,4.43c.89,2.71-1.32,7.14-5.92,12.28C302.22,181,298,185.15,297.87,185.37Z" transform="translate(-175.69 -116.13)"/><path class="cls-1" d="M274.81,146.68c2.43-.64,12.78-3.57,16.49,3.11,4.39,9.82-7.78,25.63-14.46,33.48a1,1,0,0,0,0,1.43,1.28,1.28,0,0,0,.86.32,1.57,1.57,0,0,0,.89-.29A92.12,92.12,0,0,0,295,170.45c5.71-6.57,14.6-16.45,9.46-26a16,16,0,0,0-13.88-8.28h-.68a25.45,25.45,0,0,0-17.63,8.49s-.86.93-.54,1.5S273.45,147,274.81,146.68Z" transform="translate(-175.69 -116.13)"/><path class="cls-2" d="M299.61,169.66l-1.68,1.93-.32.36a88,88,0,0,1-13.24,12c6.14.39,9.6.79,9.6.79a56.75,56.75,0,0,0,4.64-7.14A8,8,0,0,0,299.61,169.66Z" transform="translate(-175.69 -116.13)"/><path class="cls-2" d="M273.17,183.44c0-.21.71-.75.75-.86a89.59,89.59,0,0,0,13-19.77,83.7,83.7,0,0,0-21.2-5.18,90.16,90.16,0,0,1-5,25.48C264.92,183.15,269.13,183.26,273.17,183.44Z" transform="translate(-175.69 -116.13)"/><path class="cls-1" d="M256,144.43c-3.18,0-5.85,5.21-5.67,15.78a77,77,0,0,0,4.89,23.73c.29.5.54.68.79.68s.5-.18.79-.68a78.09,78.09,0,0,0,4.89-23.56C261.85,149.64,259.18,144.43,256,144.43Z" transform="translate(-175.69 -116.13)"/><path class="cls-1" d="M256,187.76c-20.27,0-35.91,1.57-35.91,1.57V196s15.49-1.57,35.91-1.57S291.91,196,291.91,196v-6.64S276.24,187.76,256,187.76Z" transform="translate(-175.69 -116.13)"/><path class="cls-3" d="M323.67,214.31c-.79-.36-21.84-6.28-67.81-6.28S189,214,188,214.31a274.54,274.54,0,0,0-3.57,45.58c0,21.16,4.28,49.79,19.27,71.38S250,380.88,256,384.35c6-3.57,37.15-31.44,52-52.93s19.27-50.36,19.27-71.38A278.39,278.39,0,0,0,323.67,214.31Z" transform="translate(-175.69 -116.13)"/><path class="cls-1" d="M304.72,326.31c-14,20-43.37,47.4-48.72,50.36-5.35-3-34.69-30.37-48.68-50.36s-17.85-46.4-17.85-66a252.3,252.3,0,0,1,3.35-42.12c.75-.32,20.45-5.46,63.35-5.46s62.28,5.14,63.17,5.46a252.3,252.3,0,0,1,3.35,42.12C322.71,279.84,318.75,306.29,304.72,326.31Z" transform="translate(-175.69 -116.13)"/><path class="cls-3" d="M318.21,251.75H193.79c-.25,2.82-.25,5.71-.25,8.57,0,11.71,1.75,41.4,17.31,63.57A298.7,298.7,0,0,0,256,371.28a296.88,296.88,0,0,0,45.11-47.4c15.6-22.16,17.35-51.86,17.35-63.57C318.46,257.46,318.46,254.57,318.21,251.75Z" transform="translate(-175.69 -116.13)"/><path class="cls-4" d="M202.25,303.47a81.55,81.55,0,0,0,9.92,19.67,182.56,182.56,0,0,0,13.88,17.1V255.32H202.25Z" transform="translate(-175.69 -116.13)"/><path class="cls-5" d="M242.22,255.32v101.4c5.71,5.53,10.71,10,13.78,12.56,3-2.5,8.07-7.14,13.78-12.56V255.32Z" transform="translate(-175.69 -116.13)"/><path class="cls-2" d="M318.21,251.75c-.46-12.85-1.78-25-2.53-30-6.07-1.32-25-4.71-59.68-4.71s-53.54,3.39-59.68,4.71c-.75,5-2.07,17.13-2.53,30Z" transform="translate(-175.69 -116.13)"/><path class="cls-6" d="M285.95,340.05a182.56,182.56,0,0,0,13.88-16.92,81.55,81.55,0,0,0,9.92-19.49V255.32H285.95Z" transform="translate(-175.69 -116.13)"/><path class="cls-7" d="M197.43,224.91H314.82v20.17H197.43Z" transform="translate(-175.69 -116.13)"/><path class="cls-3" d="M211,233.41a1.39,1.39,0,0,1,1.25-1.46h.25a2.68,2.68,0,0,1,1.46.43l.64-2.36a5.07,5.07,0,0,0-2.57-.71,4,4,0,0,0-3.93,4h0v.36a4.93,4.93,0,0,0,2.71,4.43c.86.57,1.75,1,1.75,2.14a1.57,1.57,0,0,1-1.53,1.61h0a3.93,3.93,0,0,1-1.43-.29l-.82,2.32a4.85,4.85,0,0,0,2.5.75,4.25,4.25,0,0,0,4.32-4.07V240c0-4-4.46-4.14-4.46-6.6" transform="translate(-175.69 -116.13)"/><path class="cls-3" d="M216.92,244.4h4.25l.5-12.81v.32l2.53,12.49h2.25l2.28-12.81.86,12.81h4a3.57,3.57,0,0,1-.61-1.82c0-1.07-1.5-15.13-1.68-16.92l-4.78.32-1.36,11.14-1.68-10.92-4.6.57c-.21,2.5-1.28,15.17-1.39,16.06a3.82,3.82,0,0,1-.61,1.75" transform="translate(-175.69 -116.13)"/><path class="cls-3" d="M247.93,244.4h4v-9.49l-.18-1.93L256,244.44h3.35V227a4.25,4.25,0,0,1,.5-2h-4v8.92a12.71,12.71,0,0,0,.29,2.86L251.93,225h-3.57v17.6a2.82,2.82,0,0,1-.46,1.75" transform="translate(-175.69 -116.13)"/><path class="cls-3" d="M273.35,235A8.67,8.67,0,0,0,281,244.6l.14,0h.29a4.28,4.28,0,0,0,2.5-.54l-.82-3.25a4.39,4.39,0,0,1-1.36.29c-3.14,0-4.53-3.39-4.53-6.14s1.39-5.75,4.53-5.75a5.64,5.64,0,0,1,1.36.18l.89-3a7.14,7.14,0,0,0-2-.61h-.82a8.67,8.67,0,0,0-7.78,9.28" transform="translate(-175.69 -116.13)"/><path class="cls-3" d="M305.11,232.3l.89-2.75h-7.14V244.4h3v-6.17h2.46v-2.75h-2.46V232.3Z" transform="translate(-175.69 -116.13)"/><path class="cls-3" d="M312.5,241.94c-2.5,0-3.89-2.43-4-4.89s1.32-4.85,3.57-4.85a3.85,3.85,0,0,1,1.11,0l.61-2.25a4.18,4.18,0,0,0-2-.36,7.52,7.52,0,0,0,.64,15,3,3,0,0,0,2-.57l-.79-2.21a2.53,2.53,0,0,1-1.14.25" transform="translate(-175.69 -116.13)"/><path class="cls-3" d="M240.47,241c-2.36,0-2.5-4.78-2.5-6.28s.18-6.28,2.5-6.28,2.5,4.6,2.5,6.28-.18,6.28-2.5,6.28m0-16c-3.14,0-6.25,2.68-6.25,9.74s3.11,9.85,6.25,9.85,6.25-2.64,6.25-9.74-3.11-9.74-6.25-9.74" transform="translate(-175.69 -116.13)"/><path class="cls-3" d="M266.71,232.69l.36-2.39.39,2.39,1,5.07H266Zm-1.78,11.71.64-3.57h3.57l.64,3.57h4a5.68,5.68,0,0,1-.86-1.75c-.21-1-3.35-15.28-3.82-17.49h-3.75l-4.14,19.31Z" transform="translate(-175.69 -116.13)"/><path class="cls-3" d="M290.41,241.44c-2.36,0-2.53-4.5-2.53-5.89s.18-5.89,2.53-5.89,2.5,4.32,2.5,5.89,0,5.89-2.5,5.89m0-15c-3.18,0-6.32,2.5-6.32,9.14s3.14,9.07,6.32,9.07,6.28-2.5,6.28-9.14-3.21-9.07-6.28-9.07" transform="translate(-175.69 -116.13)"/><path class="cls-3" d="M201.43,239.23l.61-3.89.32-1.78.32,1.78.71,3.89ZM204,229.8h-3l-3.57,14.6h2.86l.54-2.93h3.11l.54,2.93h3.39a2.93,2.93,0,0,1-.54-1.18c-.18-.79-3.21-13.42-3.21-13.42" transform="translate(-175.69 -116.13)"/></svg>