<svg xmlns="http://www.w3.org/2000/svg" width="217.93" height="312.49" viewBox="0 0 217.93 312.49"><title>FC Lorient logo - Brandlogos.net</title><path d="M512,668.24l-1.57-.88c-45.27-25.42-76.7-61.24-93.39-106.49-14-37.93-14-73.54-14-88.74,0-35.46,7.49-82.3,7.56-82.77l.27-1.68,3.57-1.64c.63-5,1.39-10.5,1.39-10.5l1.54-.75a178.42,178.42,0,0,1,27-9.77,251.37,251.37,0,0,1,135.23,0,178.86,178.86,0,0,1,27,9.77l1.54.74s.76,5.5,1.39,10.5l3.57,1.64.27,1.68c.08.47,7.56,47.3,7.56,82.77,0,15.2,0,50.81-14,88.74-16.7,45.25-48.12,81.07-93.39,106.49Z" transform="translate(-403.04 -355.76)" style="fill:#fff"/><path d="M512,637.61c74.46-43.37,92.79-102,97.29-142.66H414.71c4.5,40.62,22.83,99.29,97.29,142.66m91.73-258.85S566.49,360.6,512,360.6s-91.74,18.16-91.74,18.16-4.58,32.83-6.34,63.65H610.07c-1.76-30.81-6.34-63.65-6.34-63.65" transform="translate(-403.04 -355.76)" style="fill:#f58a1f"/><path d="M563.32,557.87c-.38-.14-.77-.27-1.19-.39A50.12,50.12,0,0,0,480,519.9c-4.54-.7-9.72-1-14.14,0-.91.21-2.45.9-.33,3.64l3.41,4.38c.33.42.72,1.74-.58,1.74s-6.78-.33-7.35.24c-4.35,4.35-9.21,14.53-9.21,27.26a33.44,33.44,0,0,0,2,10.95s.48,1.31.72,1.91c9.06,23.09,31.15,38.6,57.52,38.6a61.4,61.4,0,0,0,54.39-32c4.23-8.84,3.06-16.29-3.07-18.74M505,561.74c1.35-.14,2.68-.26,4-.35,18.81-1.38,33.84,2.06,39,10.94,5.22,9-4.4,26.07-22.26,32.18l-.23.08c-.48.16-1,.31-1.45.45l-1.23.35-.56.14c-.63.15-1.26.3-1.9.42l-.07,0a43.09,43.09,0,0,1-6.89.77l-1.39,0a35.52,35.52,0,0,1-20.92-7.07c-8-6-12.63-14.4-13-19.41-.59-7.77-.87-14.1,29.5-23,8.41-2.29,13-2.65,18-3.47,6.3-1,15.74-3.09,22.26-8.63a22.72,22.72,0,0,0,2.89-.53c.61-.25,1-2.91.6-3.36s-4.18-5.89-15.35-10.47a103.86,103.86,0,0,0-38.59-7.26c-2.61,0-3.25,0-7.11-1.22-1.19-.39-3.16-1-5.56-1.5A47.34,47.34,0,0,1,559.29,557c-12.93-1.67-37,.13-54.26,4.76m-2,18v-.61h-4.1l-.28.52-1.2,2.28-.76,1.44h1.8v9.54H503v-.61a2.65,2.65,0,0,0,1.66.61h4a2.61,2.61,0,0,0,1.6-.58v.58h8.84v-.56a2.64,2.64,0,0,0,1.59.56h4a2.67,2.67,0,0,0,1.78-.73,2.4,2.4,0,0,0,.76-1.81v-4a2.39,2.39,0,0,0-.71-1.75h.71v-3a2.42,2.42,0,0,0-.78-1.82,2.67,2.67,0,0,0-1.79-.72h-4a2.69,2.69,0,0,0-1.79.74,3,3,0,0,0-.27.3,2.88,2.88,0,0,0-.29-.32,2.67,2.67,0,0,0-1.79-.72h-3.72a2.68,2.68,0,0,0-1.78.74,2.32,2.32,0,0,0-.29.33,3,3,0,0,0-.31-.35,2.68,2.68,0,0,0-1.79-.72h-4a2.65,2.65,0,0,0-1.63.61m15.16,6.14v2.75h-2.05Zm-6.91-1.33h2.09l-2.09,2.8Z" transform="translate(-403.04 -355.76)" style="fill:#fff"/><path d="M610.08,442.41c-1.76-30.81-6.34-63.64-6.34-63.64S566.49,360.6,512,360.6a247.4,247.4,0,0,0-42.42,3.67c0,.16.15.68.32,1.58.34,1.83.88,5.15,1.28,9.65-11.64,1.09-27.19,1.85-47.8,1.87-2,.86-3.11,1.39-3.11,1.39l0,.25v0c-.43,3.16-4.63,34.17-6.3,63.38Z" transform="translate(-403.04 -355.76)" style="fill:#fff"/><path d="M610.24,389.87c-1.21-.57-3.63-1.65-3.63-1.65-.73-5.92-1.37-10.55-1.37-10.55a176.8,176.8,0,0,0-26.49-9.56,248.08,248.08,0,0,0-133.49,0,176.8,176.8,0,0,0-26.49,9.56s-.64,4.63-1.37,10.55c0,0-2.41,1.08-3.63,1.65,0,0-7.52,46.64-7.52,82.26S407.79,606.07,512,664.57c104.21-58.5,105.76-156.83,105.76-192.44s-7.52-82.26-7.52-82.26m-62.76-19c36.82,0,56.1,7.78,56.25,7.84h0s2.47,17.68,4.48,39.27q-.19-2-.38-4c-6.52-.58-24.63-1.52-53.31,2.33-25.95,3.48-50.49,11.59-61,15.36.13-6.45.5-12.42,1-17.91,7.79-2.85,25.34-8.46,49.86-11.48,34.9-4.31,58.4-.93,62.18-.32-.62-5.58-1.2-10.48-1.68-14.33-3.39-1-22.71-6.32-56.08-4.34a240.74,240.74,0,0,0-50.94,8.56c.46-2.12.92-4.11,1.38-5.94,1.14-4.51,2.28-8.15,3.24-10.9a233.9,233.9,0,0,1,45-4.15M500,370.14c-4.14,1.68-12.32,3.72-27.23,5.21a101.3,101.3,0,0,0-1.44-10.5,157.29,157.29,0,0,1,24.4,1.72A45.12,45.12,0,0,1,502,368a10.32,10.32,0,0,1,1.22.48,11.49,11.49,0,0,1-3.14,1.71m-18.38-7.67c-3.15.39-6.21.83-9.17,1.31,3-.48,6-.92,9.17-1.31m-12.09,1.8c0,.16.15.68.32,1.58.34,1.83.88,5.15,1.29,9.65-11.64,1.09-27.19,1.85-47.8,1.87a216.31,216.31,0,0,1,46.19-13.1M423.32,377.4l-.64.28.64-.28M420.23,379h2.25c33.09,0,53.3-1.86,65.43-4a65.81,65.81,0,0,0,12.74-3.32c.63-.26,1.17-.51,1.65-.74-3,7.6-10.49,30-10.49,66,0,.63,0,1.26,0,1.91H538.9q4.59-1.08,9.35-2c29.91-6,52.82-6.34,61-6.25-.33-4.24-.68-8.43-1.06-12.49.73,7.83,1.4,16.17,1.87,24.37H413.92c1.67-29.28,5.89-60.38,6.3-63.4M512,637.61c-74.46-43.37-92.79-102-97.29-142.66H609.3c-4.5,40.62-22.84,99.29-97.3,142.66m9.1-87.93a12.43,12.43,0,0,1-5.78-2.6c-7.08-5.42-10.19-11.53-9.41-13.12,1.59-3.25,10.55-3.1,10.55-3.1a35.88,35.88,0,0,0-10,.76c-4,.92-4.35,3.26-3.71,5.09a34.27,34.27,0,0,0,6.67,10.2c.71.76.18,1.37-.62,1.57-1.49.38-36.7,11.31-38.9,22.45-2.9,14.72,16.85,35.81,42.13,35.81a35.52,35.52,0,0,1-20.92-7.07c-8-6-12.63-14.39-13-19.4-.6-7.77-.87-14.11,29.5-23,8.41-2.29,13-2.66,18-3.48,6.3-1,15.75-3.09,22.26-8.63-9.74,7.19-23.67,5.08-26.73,4.54M505,561.74q2-.21,4-.36c-1.31.1-2.64.21-4,.36m-51.27,6.37s.48,1.31.72,1.91c9.07,23.1,31.15,38.61,57.52,38.61a61.44,61.44,0,0,0,47-21.36,62.09,62.09,0,0,0,7.37-10.66c4.23-8.83,3.06-16.29-3.07-18.74-.38-.14-.77-.27-1.19-.39A50.11,50.11,0,0,0,480,519.9c-4.54-.7-9.72-1-14.15,0-.9.21-2.45.89-.32,3.63l3.41,4.39c.33.42.72,1.73-.58,1.73s-6.78-.33-7.36.24c-4.35,4.35-9.21,14.53-9.21,27.26a33.51,33.51,0,0,0,2,10.95M483,530.7c22-7.06,44.14-2.93,52.24.16s12.6,8.1,13.37,10a2.74,2.74,0,0,1-.73,2.58A67.41,67.41,0,0,1,535.07,546c3.34,0,12.76-.83,12.76-.83a22.72,22.72,0,0,0,2.89-.53c.61-.25,1-2.91.6-3.36s-4.18-5.89-15.35-10.47a103.85,103.85,0,0,0-38.59-7.26c-2.61,0-3.26,0-7.11-1.22-1.2-.39-3.16-1-5.56-1.5A47.34,47.34,0,0,1,559.29,557c-12.93-1.67-37,.13-54.26,4.77,22-2.35,41.57.58,46.86,10.67,6.27,12-8.79,26.24-17.42,30.25S520.31,608,512,608s-27.45-2.79-43.76-21.29c-9.67-11-20.36-44.72,14.82-56m.33,21c5.7.92,7.22.44,9.93-1.69s9.44-9.27,9.44-9.27-4.93,3.47-8.79,5.69-5.59,2.12-6.29,2.12-8.14-1.47-10.74-2.22-2.28-2.33.54-3.42c9.68-3.72,24.41-4.67,24.41-4.67-17.58-1.35-28.21,2.39-32.6,4.5s-2.82,4.45-.6,5.32a94.91,94.91,0,0,0,14.7,3.63m41-12.75c7.16,2.24,9.88-.57,10-1.41s.38-2.3-3.57-4.38a14.12,14.12,0,0,0-2.66-1.1c-.77-.16-4.46-.43-2.64,1.33,1.47,1.4,3.43,3.11,2.86,3.68s-3.27,1.21-6.74-.28c-3.77-1.62-4-3.59-4-3.59s-.46,3.51,6.71,5.77m-18.61,45.94h1.64v-2.47h-1.64Zm17.88,2.23H522v2.47h1.64Zm-4.5,5.21a2.64,2.64,0,0,0,1.59.56h4a2.68,2.68,0,0,0,1.78-.73,2.42,2.42,0,0,0,.76-1.81v-4a2.41,2.41,0,0,0-.71-1.75h.71v-3a2.43,2.43,0,0,0-.78-1.81,2.64,2.64,0,0,0-1.79-.72h-4a2.66,2.66,0,0,0-1.78.73,2.59,2.59,0,0,0-.27.3,2.89,2.89,0,0,0-.29-.32,2.66,2.66,0,0,0-1.79-.71h-3.72a2.69,2.69,0,0,0-2.07,1.06,2.93,2.93,0,0,0-.31-.35,2.64,2.64,0,0,0-1.79-.71h-4a2.6,2.6,0,0,0-1.63.61v-.61h-4.1l-.28.52-1.2,2.28-.76,1.44h1.8v9.53H503v-.61a2.65,2.65,0,0,0,1.66.61h4a2.62,2.62,0,0,0,1.6-.58v.58h8.84Zm0-10.67a1.41,1.41,0,0,1,.46-1.1,1.69,1.69,0,0,1,1.13-.47h4a1.69,1.69,0,0,1,1.13.47,1.41,1.41,0,0,1,.46,1.1v2h-2.69v-1.29H522v2.47h2.74a1.67,1.67,0,0,1,1.13.47,1.41,1.41,0,0,1,.46,1.1v3.95a1.41,1.41,0,0,1-.46,1.09,1.67,1.67,0,0,1-1.13.47h-4a1.67,1.67,0,0,1-1.13-.47,1.41,1.41,0,0,1-.46-1.09ZM502,592h-2.57v-9.53h-1.16l1.2-2.28H502Zm8.25-1.56a1.41,1.41,0,0,1-.46,1.09,1.67,1.67,0,0,1-1.13.47h-4a1.67,1.67,0,0,1-1.13-.47,1.41,1.41,0,0,1-.46-1.09v-2h2.69v1.29h1.64v-2.47h-2.75a1.66,1.66,0,0,1-1.13-.47,1.41,1.41,0,0,1-.46-1.09v-3.95a1.41,1.41,0,0,1,.46-1.1,1.69,1.69,0,0,1,1.13-.47h4a1.69,1.69,0,0,1,1.13.47,1.41,1.41,0,0,1,.46,1.1Zm1-5.81h2.09l-2.09,2.8Zm6.91,7.37h-6.87v-3l4-5.37v-1.15h-1.16v1.15h-2.86v-1.9a1.41,1.41,0,0,1,.46-1.1,1.68,1.68,0,0,1,1.13-.47h3.7a1.69,1.69,0,0,1,1.13.47,1.41,1.41,0,0,1,.46,1.1v2.57l-4,5.36h4Zm0-3.29h-2.05l2.05-2.75ZM445.22,423q2.69.91,5.4,1.8l2.58-2.07-2-1.88q-3,1.1-6,2.15M461,390.69q2.77-1.15,5.52-2.34-2.54-.8-5.07-1.62l-2.34,2.11,1.89,1.85m-.2-4.62q-.78-2.12-1.56-4.25-1.27,2.25-2.58,4.49l1.84,1.84,2.3-2.07m-3.08,2.85L455.81,387q-2.76,1.12-5.55,2.21,2.52.89,5.05,1.74l2.37-2.08m-1.16,14.81,2.94-2.47,3.64.94q-2.47-6.28-4.82-12.59-3.91,6.66-8,13.24l3.95-1.31,2.34,2.2M416.4,436.44l4.32-1,2.35,2.36,3.33-2.25,3.83,1.19q-2.19-6.44-4.26-12.9-4.67,6.36-9.56,12.63m55.65-34.37q-.86-2.1-1.7-4.22-1.27,2.28-2.57,4.55l1.94,1.79,2.33-2.13m-5.54,5.07,2.41-2.15-2-1.82q-2.84,1.19-5.7,2.34,2.62.83,5.27,1.62m5.84-.46q2.85-1.22,5.67-2.48-2.66-.73-5.29-1.49l-2.38,2.17,2,1.8m-26.92,1.48q2.91-1.06,5.8-2.15-2.61-.88-5.2-1.79l-2.5,2,1.9,1.92m-15.66-3.86,3.08-2.3,3.58,1.14q-2.1-6.41-4.09-12.85-4.28,6.43-8.8,12.76l4-1.09,2.22,2.33m-4.42,18.77-1.87-2q-3,.92-6.11,1.8Q420,424,422.68,425l2.69-1.92m6.43-33.5-1.76-2q-2.82,1-5.67,1.89,2.46,1,4.95,2l2.49-1.95m13.61,14q-.74-2.15-1.47-4.3-1.4,2.2-2.83,4.4l1.84,1.9,2.45-2m-10.45-12q2.84-1,5.65-2c-1.66-.63-3.32-1.26-5-1.91l-2.46,2,1.78,2m.07-4.63q-.66-2.17-1.31-4.33-1.4,2.17-2.83,4.33l1.72,1.94,2.41-1.94m48.44-.14-2-1.76q-2.69,1.28-5.41,2.52c1.7.5,3.42,1,5.13,1.46l2.25-2.22m-26.94,33.14q-.81-2.13-1.61-4.27-1.4,2.24-2.83,4.47L454,422l2.49-2.05m-22.13-13.55q2.58,1,5.18,1.92l2.53-2-1.87-1.93q-2.91,1-5.83,2M445,436.58l4.24-1.27,2.48,2.22,3.19-2.44,3.89,1q-2.55-6.31-5-12.64Q449.55,430,445,436.58m41.36-52.83q-.91-2.07-1.8-4.15-1.15,2.32-2.31,4.63l1.94,1.73,2.17-2.2m-31.7,38.91,2,1.87q3-1.13,6-2.29c-1.82-.54-3.62-1.1-5.42-1.67l-2.54,2.09m-27.82.43,1.9,2q3.06-1,6.09-1.95-2.67-1-5.32-2l-2.66,1.94M442.72,407q-4.29,6.51-8.81,12.95l4.13-1.18,2.35,2.28,3.14-2.37,3.73,1.06q-2.33-6.36-4.54-12.75M424.42,420.4l1.84,2,2.61-1.9q-.69-2.18-1.37-4.35-1.53,2.15-3.09,4.29m58,.24,2.11,1.75q2.92-1.3,5.82-2.63c-1.85-.44-3.68-.89-5.51-1.35l-2.42,2.23m-12.84-15q-3.9,6.75-8,13.43l4.05-1.41,2.47,2.14q1.5-1.27,3-2.54l3.79.84q-2.69-6.22-5.26-12.47m4,29.42,4.16-1.52,2.61,2.08,3-2.62,3.93.75q-2.91-6.15-5.7-12.33-3.9,6.84-8,13.64m13.28-46.73q2.7-1.31,5.37-2.66-2.59-.65-5.15-1.33l-2.22,2.24,2,1.74m-7.16,29.87,2,1.74,2.38-2.19-1.85-4.17q-1.27,2.31-2.57,4.62m1.24,2.55L478.84,419q-2.91,1.26-5.85,2.49,2.74.76,5.49,1.49l2.45-2.2m8.71-21.07q-2.82-6.13-5.53-12.29-3.52,6.87-7.27,13.68l3.86-1.54,2.46,2.06L486,399l3.68.73" transform="translate(-403.04 -355.76)" style="fill:#130c0e"/><path d="M415.89,485.5h6.88V472.27a1.05,1.05,0,0,1,1.05-1h7.36v-5.15h-7.36a1,1,0,0,1-.75-.31,1.07,1.07,0,0,1-.3-.75v-7.24a1.05,1.05,0,0,1,1.05-1h7.36v-5h-15.3Zm62.46-5.42a1,1,0,0,1-.3-.74V451.75h-7V485.5h15.15v-5.11h-7.07a1,1,0,0,1-.74-.31m51-9.81c.59-.47.81-.63,1.6-1.29a4,4,0,0,0,1.31-3.13v-9.64a4,4,0,0,0-1.31-3.13,4.8,4.8,0,0,0-3.24-1.33H514V485.5h6.75V474.68a1,1,0,0,1,.84-1l.2,0a1.05,1.05,0,0,1,1,.66L527,485.5h6.48l-4.67-12.37a2.36,2.36,0,0,1,.57-2.87M525.14,465a1.05,1.05,0,0,1-1,1h-2.31a1,1,0,0,1-1-1v-7.24A1.06,1.06,0,0,1,521,457a1,1,0,0,1,.74-.31h2.31a1,1,0,0,1,.74.31,1,1,0,0,1,.31.73Zm-17.61-11.94a4.79,4.79,0,0,0-3.24-1.33h-9a4.79,4.79,0,0,0-3.24,1.33h0a4.05,4.05,0,0,0-1.3,3.14V481a4,4,0,0,0,1.3,3.13,4.8,4.8,0,0,0,3.24,1.33h9a4.8,4.8,0,0,0,3.24-1.33,4,4,0,0,0,1.31-3.13V456.21a4.06,4.06,0,0,0-1.31-3.14ZM502,479.41a1,1,0,0,1-1,1h-2.3a1,1,0,0,1-1-1V457.78a1.07,1.07,0,0,1,.3-.74,1.06,1.06,0,0,1,.74-.31H501a1,1,0,0,1,.74.31,1,1,0,0,1,.3.73Zm84.6-26.33a4.77,4.77,0,0,0-3.24-1.33H569.84V485.5h6.91V457.78a1.06,1.06,0,0,1,1-1h2.3a1.06,1.06,0,0,1,1.05,1V485.5H588V456.21a4.08,4.08,0,0,0-1.31-3.14Zm-49.21,32.44h6.8V451.75h-6.8Zm12,0h15.3v-5h-7.36a1,1,0,0,1-1-1v-7.2a1,1,0,0,1,1-1h7.36v-5.15h-7.36a1,1,0,0,1-1-1v-7.25a1,1,0,0,1,1-1h7.36v-5h-15.3Zm43.13-33.75v5H596a1.07,1.07,0,0,1,.75.31,1.09,1.09,0,0,1,.3.74V485.5h6.5V457.78a1.05,1.05,0,0,1,.3-.74,1.07,1.07,0,0,1,.74-.31H608v-5Zm-139.38,1.33a4.78,4.78,0,0,0-3.24-1.33h-9a4.79,4.79,0,0,0-3.24,1.33h0a4.07,4.07,0,0,0-1.3,3.14V481a4.06,4.06,0,0,0,1.3,3.13,4.8,4.8,0,0,0,3.24,1.33h9a4.8,4.8,0,0,0,3.24-1.33,4,4,0,0,0,1.31-3.13v-7.74h-6.79v6.12a1,1,0,0,1-1,1H444.3a1,1,0,0,1-1-1V457.78a1.06,1.06,0,0,1,1-1h2.3a1,1,0,0,1,.74.31,1.05,1.05,0,0,1,.31.73V464h6.79v-7.76a4.06,4.06,0,0,0-1.31-3.14Z" transform="translate(-403.04 -355.76)" style="fill:#fff"/></svg>