<svg id="Layer_1" data-name="Layer 1" xmlns="http://www.w3.org/2000/svg" viewBox="0 0 184.57 225"><title>Le Havre AC logo - Brandlogos.net</title><g id="layer1"><path id="path179849" d="M384,271.5s-47,20.45-89.77,26.56c.14.06-8.22,70.1,4.52,102.26,11.83,29.4,45.67,77,85.24,96.18,39.64-19.19,73.34-66.78,85.18-96.16,12.64-32.2,4.42-102.22,4.54-102.32C431,291.93,384,271.5,384,271.5Z" transform="translate(-291.71 -271.5)" style="fill:#193260"/><path id="path179851" d="M384,278.28s-44.13,19.22-84.36,25c.14,0-7.72,65.87,4.25,96.09C315,427,346.86,471.7,384,489.73c37.26-18,68.92-62.75,80.05-90.35,11.88-30.27,4.15-96.08,4.27-96.17C428.12,297.48,384,278.28,384,278.28Z" transform="translate(-291.71 -271.5)" style="fill:#ba965c"/><path id="path179853" d="M466.57,304.92c-39.39-5.6-82.53-24.4-82.53-24.4s-43.2,18.81-82.57,24.44c.09,0-4,35.36-1.45,65.7,0,0,37.11-11.89,84-11.89s83.88,11.89,83.87,11.91c2.57-30.36-1.43-65.68-1.35-65.75ZM384,360.34s0,35.21,0,127c36.4-17.59,67.47-61.38,78.35-88.41,2.79-7,4.46-16.59,5.42-26.26C422.29,359.2,384,360.34,384,360.34Z" transform="translate(-291.71 -271.5)" style="fill:#193260"/><path id="path179855" d="M384,360.34s-38.28-1.14-83.77,12.35c1,9.67,2.64,19.24,5.42,26.26,10.88,27,42,70.81,78.35,88.41Z" transform="translate(-291.71 -271.5)" style="fill:#79bce7"/><path id="path179857" d="M364.9,463.9V452.4l-3.25,2.83v-3.75l3.25-2.82h3.51v15.24H364.9Zm12.67.12c-2.8,0-5.12-1.52-5.12-4.68a4,4,0,0,1,1.71-3.28,3.82,3.82,0,0,1-1.56-3c0-2.9,2.36-4.52,5-4.52s5,1.62,5,4.52a3.82,3.82,0,0,1-1.56,3,4,4,0,0,1,1.71,3.28c0,3.17-2.31,4.68-5.11,4.68Zm0-6.38a1.61,1.61,0,1,0,1.6,1.61A1.63,1.63,0,0,0,377.57,457.65Zm0-5.95a1.46,1.46,0,1,0,1.46,1.46A1.45,1.45,0,0,0,377.57,451.7Zm14.2,12.2h-3.86l4.76-12.08h-3.25v2.4h-3.34v-5.56h10.45v3.16Zm6.61,0v-3.17l5.52-6a2.13,2.13,0,0,0,.78-1.63,1.28,1.28,0,0,0-1.37-1.42,1.32,1.32,0,0,0-1.41,1.49h-3.52c0-3,2.27-4.65,4.92-4.65,2.82,0,4.89,1.73,4.89,4.6,0,1.61-.67,2.46-1.89,3.74l-3.65,3.85h5.53v3.17Z" transform="translate(-291.71 -271.5)" style="fill:#fff"/><path id="path179861" d="M326.42,307.67h8.64v21.49h18V307.67h8.64v42H353V336.88h-18v12.78h-8.64Zm60.64-.37h.74L407,349.66h-9.08l-2-4.76h-17l-2,4.76h-8.34Zm5.8,30.38-3-7.28c-1.23-3-2.53-7.54-2.53-7.54a77.2,77.2,0,0,1-2.47,7.54l-3,7.28Zm15.93-9c0-12.42,9.58-21.49,21.61-21.49,7.6,0,13,2.72,16.8,8.58l-6.61,4.7a11.45,11.45,0,0,0-10.19-5.5c-7.59,0-12.72,5.86-12.72,13.71s5.12,13.83,12.72,13.83c5.43,0,8.46-2.59,10.81-6.18l6.73,4.63c-3.64,5.68-9.45,9.26-17.54,9.26a21.2,21.2,0,0,1-21.61-21.55Z" transform="translate(-291.71 -271.5)" style="fill:#fff"/><path id="path179865" d="M395.27,390.34c2.76-2.18,5.75-4.28,9.44-4.46-2.89-2.13-9-1.56-12.34-.73.79-.87,2.73-1.49,4.77-2a15.31,15.31,0,0,0-13.05,4.08,9,9,0,0,1-6.18,3.41c5.6,4.92,14.49,2,17.37-.32ZM365.54,380a35.33,35.33,0,0,1,6.18,1,16.9,16.9,0,0,1,1.79-5.67l0-.86-.52.46-.51.53,0-.61.22-2,.17-1-.49.26A8.44,8.44,0,0,0,369.1,375l-.39.4,0-.61c0-.47-.2-3.94-.15-4.57l0-.6-.42.11c-2.28.6-2.95,4.77-3.45,6.09-.54-1.3-1.72-5.2-4-5.77l-.43-.11.07.6c.06.63.37,3.83.37,4.3l0,.61-.4-.4a8.62,8.62,0,0,0-3.37-2.78l-.49-.24.07.73.43,2.18v.61l-.52-.52-.53-.45,0,.86a17.13,17.13,0,0,1,1.36,5.35,48.46,48.46,0,0,1,8.28-.74Z" transform="translate(-291.71 -271.5)" style="fill:#fff"/><path id="path179867" d="M397.75,427a15.3,15.3,0,0,1,1.2-3.47s-24,1.42-22.08,8.61c0,0-.54-6.34,20.88-5.14Zm25.63-17.56.8-1a24.62,24.62,0,0,0-3.69-2.68l.57-1.5a31.52,31.52,0,0,0-5.8-1.52l.24-2.17a31.65,31.65,0,0,0-6.51.13l-.12-2.47a46.32,46.32,0,0,0-8.15,1.79l-.35-2.61a40.86,40.86,0,0,0-7.86,2.44c-.2-1-.46-2.44-.46-2.6a44,44,0,0,0-8.11,3l-.37-2.1a50.54,50.54,0,0,0-9.11,3.37l-.17-1.28a26,26,0,0,0-10.28,5.2c-9.32,6.78-15.21,1.55-15.78-6-.62-8.15,7.27-8.74,9-7.61,2,1.33,2.39,2.45,4.11,2.77s8.43.33,10.49-1.69l.07-.37a21.85,21.85,0,0,0-3.31-.75,31.13,31.13,0,0,1-3.45-1.67c2.74-.21,5.08.22,6.9-.29,2.06-.57,3.06-1.65,2.11-2.25a45.22,45.22,0,0,0-9.1-3.5c-5.14-.88-13.85.71-18.16,4-4.64,3.54-7.17,11.44-4.42,19.76,3,8.95,12.39,12.75,20.08,13.6l3.13.35A1.17,1.17,0,0,1,366,423c-.18.71-3.94,6.23-4.86,6.47l-.71.15a10.55,10.55,0,0,0-4.1,1.83,18.56,18.56,0,0,0-1.78,2,24,24,0,0,1,3.62-.84c.61,0-.25,3.11-.25,3.11s4.59-3,5.42-2.91.4,2,.4,2,3.42-1.41,3.47-2.09-.58-1.51-1.53-2.07c.9-5,7.8-7.13,7.68-7.45a9.06,9.06,0,0,1-.62-5.71l.27-.26c-.23,2.65,4,5.61,5.76,5.86a21.12,21.12,0,0,0,7.12-.34,62,62,0,0,0,9.15-3,12.67,12.67,0,0,1,2.1-.9,9.81,9.81,0,0,0,4.37,3.26l-2.76,7.48a9.86,9.86,0,0,0-4.75,2,20.24,20.24,0,0,0-1.79,2,19.72,19.72,0,0,1,3.63-.75c.67,0-.26,3-.26,3s4.73-3,5.43-2.91.39,2,.39,2,3.44-1.54,3.5-2.09c.07-.79-.62-2.12-2.52-2.92.41-4.92,7-8.78,6.69-9.14-4.74-5.94-2.55-9.56-2.55-9.56l0-.11c.15.4.23,3.68,2.65,4.81,5-.5,9.71.19,9.48,3.47-.3,4.29-4.28,4-10.23,3.95,0,0-2.55,2.46-2.88,4.11,5.28,0,12,3.19,17.46-1.49,4.92-4.23,4.67-11.56.31-16.32Zm-63.13-23.16a22.85,22.85,0,0,1,3.25.5,1.33,1.33,0,0,1-.72,1.45s-1.06.71-2.1-.7c-.61-.84-.44-1.25-.44-1.25Z" transform="translate(-291.71 -271.5)" style="fill:#fff"/></g></svg>