<svg xmlns="http://www.w3.org/2000/svg" viewBox="0 0 216.51 251.09"><title>Olympique Lyonnais logo - Brandlogos.net</title><path d="M660.69,417.45H444.21l0,184.58c0,11.35,3,20.12,9.06,26.09s14.7,8.72,26,9c32.44.9,52.88,8.1,68.91,26.1l4.34,5.29,4.34-5.29c16-18,36.47-25.2,68.91-26.1,11.26-.32,20-3.11,26-9s9.06-14.74,9.06-26.09Z" transform="translate(-444.19 -417.45)" style="fill:#d39e46"/><path d="M625.7,631.43c-33.88,1.09-57.09,8.76-73.25,27.35-16.16-18.59-39.37-26.26-73.25-27.35-19.45-.61-29.39-9.64-29.39-29.39V501.69H655.08l0,100.35c0,19.75-9.94,28.78-29.4,29.39" transform="translate(-444.19 -417.45)" style="fill:#14387f"/><polygon points="5.64 5.62 210.88 5.62 210.89 78.62 5.63 78.62 5.64 5.62" style="fill:#db0812"/><polygon points="132.59 98.63 132.59 199.34 196.8 199.34 196.8 167.3 168.1 167.3 168.1 98.63 132.59 98.63" style="fill:#d39e46"/><polygon points="163.73 103 163.73 171.67 192.43 171.67 192.43 194.97 136.95 194.97 136.95 103 163.73 103" style="fill:#fff"/><path d="M459.93,566.43a52.8,52.8,0,1,0,52.8-52.8,52.86,52.86,0,0,0-52.8,52.8" transform="translate(-444.19 -417.45)" style="fill:#d39e46"/><path d="M464.56,566.43a48.17,48.17,0,1,1,48.17,48.17,48.22,48.22,0,0,1-48.17-48.17" transform="translate(-444.19 -417.45)" style="fill:#fff"/><path d="M510.36,540.36c-5,2.23-9.1,2.09-12.9,0,.83,2.69,8,6.21,12.9,0m0-6.73s-.27-.89.84-1.11,2.45.51,3.47.86a3.79,3.79,0,0,1-4.31.26m30.44,2.86c-3,1.23-4.4-1-4.81-2.45a3.2,3.2,0,0,0-.09,4.55,5.57,5.57,0,0,0-3.1,4.63,6.93,6.93,0,0,0,5.44-.93c.15.8,1.24,2.15,3.56,1.7-1.2-1.27-1.76-3.56-.05-4.52l.45-.23a3.25,3.25,0,0,1,4.4,1.7,3.82,3.82,0,0,1-1.6,4.94l-11.22,5.79c-5.77,2.91-5.19,8.32-4,10.8l5.16,10.22a2.85,2.85,0,0,1-1.51,3.91,3.4,3.4,0,0,1-4.42-1.42l-6.93-13.56a2.48,2.48,0,0,0,2.34.27c-3-4.94,2.35-4.74.58-9.21a2.55,2.55,0,0,0,2.3.62c-2.72-6.1,3.43-6,.3-10.88a2.41,2.41,0,0,0,2.19-.27c-3.81-3.8-.38-6.36-5-7.91a1.94,1.94,0,0,0,1.7-1.48c-3.18.22-4.69-3.89-9.25-3.3a29.31,29.31,0,0,0-5.18,1.27c-1,.3-1.68,0-2.56.39a5.15,5.15,0,0,0-.71,1.39c-1.19.26-3.13.8-3.66,1.37a2.3,2.3,0,0,0,.23,1.64.57.57,0,0,1,.35.43,7.25,7.25,0,0,0,1.84,4l2.81-.7a7.35,7.35,0,0,1,3,3.09c.42,1.08.24,1.76-1.08,1.78a31.39,31.39,0,0,1-4.23-.61c-.37,1-.54,2.78.29,3.42.45.33,2.83.21,3.55.16-.18,2.59-2,4.16-5.24,3.12-9.15-3-15-3.83-18.35-11.26.12-.52.76-5.61-2.91-6.91a8.08,8.08,0,0,1,.44,4.49,4.54,4.54,0,0,0-5.16-3.65c1.58,1.12,2.56,2.53,2.58,4a5.44,5.44,0,0,0-4.92-.46c7.58,3.42,5,9.26,1.65,9.8,1.38,1.14,3.62.83,5,0l4.54,5.81a3.29,3.29,0,0,0-2,1.42,4.6,4.6,0,0,1,3,.7,8,8,0,0,1,.18,4.93,4.93,4.93,0,0,0,2.75-3.37l6.68,3.91c-3.37,1.78-13.45,6.85-18.59,4.47-.79-.36-5.85-2.53-8.64.3,1.89-.07,3.73.71,4.06,1.47-2,.21-4.31,1.07-4.9,3.24a9.11,9.11,0,0,1,4.47-.43,5.22,5.22,0,0,0-1.86,4.49s4.07-3.77,7.41-2.8c1.56.45.8,3.17.49,3.83a3.92,3.92,0,0,0,3.17-3.06l7.78-.32c.52.26.74,1.36.26,2.25a3,3,0,0,0,2.25-2.42,3,3,0,0,1,2.72,3,3.58,3.58,0,0,0,.51-3.9l8.47-2,2.94,3.25s-15.15,9.47-20.31,9.22c.8,1.83,4.52,1.62,6.23,1a3.63,3.63,0,0,0-.15,2.33,3,3,0,0,0,2.32-1.42s2.27,4.53,1.91,5.34c-1.06,2.33-8.48,2.84-8.48,2.84-1.35-1.08-5.06-2.33-7.13-.76a3.56,3.56,0,0,1,3.07,2c-.87,0-3.9.37-4.59,3.18a6.47,6.47,0,0,1,4.39-.44,4.56,4.56,0,0,0-1.84,4.27c2.18-2.31,5.22-3.36,7.25-2.9,1.18.26,1.24,2,.9,3.3a5.06,5.06,0,0,0,3-3.1l8.11-2.52a5.81,5.81,0,0,1,.25,1.87,2.83,2.83,0,0,0,2.09-2.26s1.52,2.31,3.91,1.9c-1.39-2.34-3.3-8.38-3.29-9.93,0-2,5.92-3.12,6.91-3.41l2.86,4.18s-2.91,1.42-3.41,3.29a9.18,9.18,0,0,1,5.25-.86,6,6,0,0,1,1.35,2.88,3.59,3.59,0,0,0,1.35-2.48c6.48,2.05,6.49,3,4.91,9.59-2.94-.29-7.63-.43-8.65,2.57a8.64,8.64,0,0,1,4.93.25c-1.37.47-3.85,1.9-3.25,4.74,0,0,2.39-2.68,5.15-2.21-1.48.91-3.32,2.81-1.7,5.19a6,6,0,0,1,6.31-3l2-4.4c.83-1.78,3.1-1.56,3.35.71,2.15-2.64-.26-5.52-1-5.87l1.85-4c.59.05,2.14.45,3-.62a3.79,3.79,0,0,1-2.15-1.56c.95.07,3.46.45,4.66-1.19-4-.81-13.46-6.56-14.18-10.1a6.64,6.64,0,0,0,6.84.89,6.07,6.07,0,0,0,3.21-3.3c1.68-3.46,6.1-.65,6.78-7.05-1.77,2.51-5.66.84-6.43,4-1.56-6.9,8.38-2.39,8.45-12.8-2.45,4.25-11.23,2.74-10.51,8.12-3.76-11.12,13.09-3.91,12.17-18.34-3.29,6.51-16.36,4.79-15.12,12.5l-.71-1.42a4.75,4.75,0,0,1,2.3-6.53l11.53-5.94a6.9,6.9,0,0,0,3-8.94,6.31,6.31,0,0,0-8.61-3.18" transform="translate(-444.19 -417.45)" style="fill:#d39e46"/><path d="M516.68,468.26a4.41,4.41,0,0,0-3.36-1.39,4.5,4.5,0,0,0-3.4,1.39c-1,1.09-1.28,2.3-1.28,7.31s.26,6.21,1.28,7.3a4.52,4.52,0,0,0,3.4,1.39,4.43,4.43,0,0,0,3.36-1.39c1-1.09,1.32-2.3,1.32-7.3s-.3-6.21-1.32-7.31m3.89,17.68a10.68,10.68,0,0,1-14.52,0c-2.71-2.63-2.64-5.88-2.64-10.37s-.08-7.75,2.64-10.38a10.68,10.68,0,0,1,14.52,0c2.71,2.63,2.68,5.88,2.68,10.38s0,7.74-2.68,10.37" transform="translate(-444.19 -417.45)" style="fill:#fff"/><polygon points="35.03 66.58 23.8 66.58 23.8 45.38 23.52 45.1 18.84 45.1 18.55 45.38 18.55 70.83 18.84 71.11 35.03 71.11 35.31 70.83 35.31 66.86 35.03 66.58" style="fill:#fff"/><polygon points="55.21 45.11 49.94 45.11 44.99 55.59 39.98 45.11 34.57 45.11 34.38 45.29 42.35 60.45 42.35 70.83 42.63 71.11 47.28 71.11 47.56 70.83 47.56 60.45 55.48 45.38 55.21 45.11" style="fill:#fff"/><polygon points="102.23 45.11 101.95 45.39 101.95 61.03 91.32 45.11 86.92 45.11 86.64 45.39 86.64 70.83 86.92 71.11 91.6 71.11 91.88 70.83 91.88 55.15 102.52 71.11 106.91 71.11 107.19 70.83 107.19 45.39 106.91 45.11 102.23 45.11" style="fill:#fff"/><path d="M593.86,479.69l3.39-9.46,3.28,9.46Zm5.42-16.85-.28-.28h-3.77l-.27.27-9.58,25.53.2.21h5.19l1.62-4.6h9.54l1.59,4.6h5.19l.2-.2Z" transform="translate(-444.19 -417.45)" style="fill:#fff"/><polygon points="169.79 45.11 169.5 45.39 169.5 70.83 169.79 71.11 174.47 71.11 174.75 70.83 174.75 45.39 174.47 45.11 169.79 45.11" style="fill:#fff"/><polygon points="131.28 45.11 130.99 45.39 130.99 61.03 120.36 45.11 115.96 45.11 115.68 45.39 115.68 70.83 115.96 71.11 120.64 71.11 120.92 70.83 120.92 55.15 131.56 71.11 135.96 71.11 136.24 70.83 136.24 45.39 135.96 45.11 131.28 45.11" style="fill:#fff"/><path d="M642.6,475.38a9.05,9.05,0,0,0-5.13-2l-3.17-.43a4.72,4.72,0,0,1-2.49-1A2.47,2.47,0,0,1,631,470c0-1.79,1.36-3.29,4.15-3.29a7.77,7.77,0,0,1,5.31,1.63l.39,0,2.93-2.81v-.36c-2.25-2-4.88-2.87-8.47-2.87-5.81,0-9.36,3.25-9.36,7.89a6.76,6.76,0,0,0,1.92,5.11,9.27,9.27,0,0,0,5.21,2.15l3.25.44a4.08,4.08,0,0,1,2.37.91,2.85,2.85,0,0,1,.83,2.2c0,2.08-1.67,3.21-4.75,3.21a9.1,9.1,0,0,1-6.29-2l-.39,0-3,2.9v.39c2.6,2.44,5.63,3.24,9.6,3.24,5.62,0,10-2.85,10-7.89a7.15,7.15,0,0,0-2.07-5.52" transform="translate(-444.19 -417.45)" style="fill:#fff"/><path d="M473.91,437.12a4.16,4.16,0,0,0-3.2-1.37,4.22,4.22,0,0,0-3.22,1.37c-1,1.08-1.22,2.26-1.22,7.18s.25,6.1,1.22,7.18a4.21,4.21,0,0,0,3.22,1.36,4.15,4.15,0,0,0,3.2-1.36c1-1.08,1.26-2.26,1.26-7.18s-.29-6.1-1.26-7.18m3.69,17.37a9.24,9.24,0,0,1-6.9,2.8,9.34,9.34,0,0,1-6.93-2.8c-2.58-2.59-2.51-5.78-2.51-10.19s-.07-7.61,2.51-10.2a9.32,9.32,0,0,1,6.93-2.8,9.23,9.23,0,0,1,6.9,2.8c2.59,2.59,2.55,5.78,2.55,10.2s0,7.6-2.55,10.19" transform="translate(-444.19 -417.45)" style="fill:#fff"/><path d="M593,449.47l-1.91-1.9-2.65,2.62,2.23,2.2a2.87,2.87,0,0,1-1.65.46,4.22,4.22,0,0,1-3.23-1.37c-1-1.08-1.23-2.26-1.23-7.18s.26-6.1,1.23-7.18a4.22,4.22,0,0,1,3.23-1.36,4.15,4.15,0,0,1,3.19,1.36c1,1.08,1.26,2.26,1.26,7.18a16.5,16.5,0,0,1-.46,5.16m5.87,5.87-2-2c1.61-2.37,1.58-5.2,1.58-9,0-4.41,0-7.61-2.55-10.2a9.92,9.92,0,0,0-13.82,0c-2.58,2.59-2.51,5.78-2.51,10.2s-.07,7.61,2.51,10.19a10.09,10.09,0,0,0,12.1,1.4l2.06,2.06h.4l2.23-2.22Z" transform="translate(-444.19 -417.45)" style="fill:#fff"/><polygon points="55.69 35.17 45.49 35.17 45.49 14.35 45.21 14.07 40.78 14.07 40.51 14.35 40.51 39.34 40.78 39.62 55.69 39.62 55.97 39.34 55.97 35.45 55.69 35.17" style="fill:#fff"/><polygon points="72.83 14.07 67.83 14.07 63.13 24.37 58.35 14.07 53.35 14.07 53.08 14.35 60.62 29.14 60.62 39.35 60.9 39.63 65.29 39.63 65.57 39.35 65.57 29.14 73.11 14.35 72.83 14.07" style="fill:#fff"/><polygon points="94.52 14.07 87.88 27.89 81.19 14.07 76.56 14.07 76.28 14.35 76.28 39.35 76.56 39.63 80.99 39.63 81.27 39.35 81.27 24.73 86.19 34.42 89.56 34.42 94.44 24.73 94.44 39.35 94.72 39.63 99.15 39.63 99.44 39.35 99.44 14.35 99.16 14.07 94.52 14.07" style="fill:#fff"/><polygon points="126.32 14.07 126.04 14.35 126.04 39.34 126.32 39.63 130.75 39.63 131.03 39.34 131.03 14.35 130.75 14.07 126.32 14.07" style="fill:#fff"/><path d="M616.95,431.52l-.28.28v16.34c0,2.94-1.76,4.7-4.45,4.7s-4.41-1.76-4.41-4.7V431.8l-.28-.28h-4.43l-.28.28v16.52c0,5.42,4.16,9,9.41,9s9.41-3.55,9.41-9V431.8l-.28-.28Z" transform="translate(-444.19 -417.45)" style="fill:#fff"/><polygon points="186.98 35.17 186.98 28.96 196.79 28.96 197.07 28.68 197.07 24.79 196.79 24.51 186.98 24.51 186.98 18.52 198.55 18.52 198.83 18.23 198.83 14.35 198.55 14.07 182.28 14.07 182 14.35 182 39.34 182.28 39.62 198.55 39.62 198.83 39.34 198.83 35.45 198.55 35.17 186.98 35.17" style="fill:#fff"/><path d="M558.07,443.86H553.4V436h4.67a4,4,0,0,1,0,7.89m.25-12.34h-9.63l-.28.28v25l.28.28h4.43l.28-.28v-8.45h4.92a8.42,8.42,0,1,0,0-16.83" transform="translate(-444.19 -417.45)" style="fill:#fff"/></svg>