<svg xmlns="http://www.w3.org/2000/svg" viewBox="0 0 165.64 225.35"><title>rc-lens-logo</title><path d="M512,622.64l-.81-.45C459.46,593.63,431,549.45,431,497.8V408.52l80.88-7.41L593,408.52V497.8c0,51.65-28.49,95.83-80.22,124.39Z" transform="translate(-429.18 -399.32)"/><path d="M432.75,410.15V497.8c0,51,28.15,94.56,79.25,122.8,51.1-28.24,79.24-71.85,79.24-122.8V410.15l-79.4-7.24ZM512,624.68l-1.67-.92c-52.33-28.89-81.14-73.63-81.14-126V406.89l82.67-7.57.16,0,82.81,7.56V497.8c0,52.33-28.82,97.06-81.14,126Z" transform="translate(-429.18 -399.32)"/><polygon points="82.82 3.46 3.47 10.73 3.47 40.39 162.13 40.39 162.17 10.73 82.82 3.46" style="fill:#fff"/><path d="M542.28,600.07c34.39-29,49.06-65.47,49.06-102.28V439.71H485.63Z" transform="translate(-429.18 -399.32)" style="fill:#ffd300"/><path d="M485.62,439.71h-53V497.8c0,46.21,23.12,91.86,79.35,122.91a187.52,187.52,0,0,0,30.28-20.64Z" transform="translate(-429.18 -399.32)" style="fill:#d90000"/><rect x="512.27" y="434.85" width="3.38" height="170.08" transform="translate(-573.02 -198.41) rotate(-19.46)"/><path d="M434.34,411.61V497.8c0,50.09,27.57,93,77.65,121,50.09-28,77.66-70.89,77.66-121V411.61l-77.81-7.13Zm77.65,211-.81-.44C459.46,593.62,431,549.45,431,497.8V408.52l80.88-7.41L593,408.52V497.8c0,51.65-28.49,95.82-80.22,124.39Z" transform="translate(-429.18 -399.32)"/><rect x="3.47" y="38.7" width="158.66" height="3.38"/><path d="M517.67,497.69l-.46,1.22A3.37,3.37,0,0,0,517,502a2.84,2.84,0,0,0,2.24-1.19,3.52,3.52,0,0,0,1.49,2.8,3.58,3.58,0,0,0,1.49-2.82,2.83,2.83,0,0,0,2.26,1.21,3.39,3.39,0,0,0-.2-3.05l-.45-1.22Z" transform="translate(-429.18 -399.32)" style="fill:#fff"/><path d="M519.74,499.19l.17,1.5a3.45,3.45,0,0,0,.84,2,3.49,3.49,0,0,0,.85-2.06l.17-1.52,1,1.17a2.65,2.65,0,0,0,1.32.92,3.2,3.2,0,0,0-.34-2.07l0-.06-.29-.79h-5.29l-.32.85a3.2,3.2,0,0,0-.33,2.07,2.67,2.67,0,0,0,1.31-.91Zm1,5.11-.31-.17a3.77,3.77,0,0,1-1.58-2.14,3.11,3.11,0,0,1-1.9.6l-.33,0-.17-.29a4,4,0,0,1,.15-3.64l.61-1.61h7.08l.6,1.61a4,4,0,0,1,.16,3.63l-.17.29-.33,0a3.1,3.1,0,0,1-1.93-.62,3.8,3.8,0,0,1-1.58,2.15Z" transform="translate(-429.18 -399.32)"/><path d="M523.52,496.42a5.3,5.3,0,0,1,.51-1.55,1.71,1.71,0,0,1,2-.82,3.16,3.16,0,0,1,2,1.83,5.08,5.08,0,0,0-.07-4.58,3.42,3.42,0,0,0-2-1.5s-3.19-1-4,4.68h-2.32c-.77-5.64-4-4.68-4-4.68a3.4,3.4,0,0,0-2,1.5,5.09,5.09,0,0,0-.07,4.58,3.2,3.2,0,0,1,2-1.83,1.71,1.71,0,0,1,2,.82,5.25,5.25,0,0,1,.51,1.55Z" transform="translate(-429.18 -399.32)" style="fill:#fff"/><path d="M518.48,495.77H523a5.16,5.16,0,0,1,.48-1.22,2.35,2.35,0,0,1,2.71-1.12,3.14,3.14,0,0,1,1.58,1,3.91,3.91,0,0,0-.41-2.79,2.74,2.74,0,0,0-1.64-1.21,1.83,1.83,0,0,0-1.43.28c-.87.58-1.47,1.91-1.74,3.85l-.08.56H519l-.08-.56c-.27-2-.88-3.3-1.76-3.87a1.8,1.8,0,0,0-1.36-.27,2.75,2.75,0,0,0-1.68,1.24,3.89,3.89,0,0,0-.41,2.78,3.24,3.24,0,0,1,1.62-1,2.33,2.33,0,0,1,2.67,1.12,5,5,0,0,1,.48,1.22m9.49,1.53-.58-1.12a2.62,2.62,0,0,0-1.55-1.5,1.05,1.05,0,0,0-1.24.51,4.6,4.6,0,0,0-.43,1.32l-.09.55H517.4l-.08-.55a4.65,4.65,0,0,0-.44-1.32,1,1,0,0,0-1.21-.52,2.67,2.67,0,0,0-1.59,1.51l-.58,1.11-.57-1.12A5.71,5.71,0,0,1,513,491a4,4,0,0,1,2.44-1.8,3.13,3.13,0,0,1,2.4.43c1.13.73,1.89,2.15,2.26,4.23h1.21c.37-2.08,1.12-3.5,2.26-4.23a3.13,3.13,0,0,1,2.44-.42,4.06,4.06,0,0,1,2.39,1.76,5.71,5.71,0,0,1,.1,5.23Z" transform="translate(-429.18 -399.32)"/><path d="M520.75,482.39s-4.11,3.82-.78,13.75h1.58c3.32-9.93-.79-13.75-.79-13.75" transform="translate(-429.18 -399.32)" style="fill:#fff"/><path d="M520.44,495.49h.63c2.25-7.06.57-10.75-.31-12.06-.87,1.32-2.55,5-.32,12.06m1.57,1.3H519.5l-.15-.44c-3.42-10.2.78-14.27,1-14.44l.44-.41.44.41c.18.17,4.38,4.23,1,14.44Z" transform="translate(-429.18 -399.32)"/><path d="M523.84,496.15h-6.18a1,1,0,0,0,0,2h6.18a1,1,0,0,0,0-2" transform="translate(-429.18 -399.32)"/><path d="M517.66,496.67a.47.47,0,0,0,0,.93h6.18a.47.47,0,0,0,0-.93Zm6.18,2h-6.18a1.5,1.5,0,0,1,0-3h6.18a1.5,1.5,0,0,1,0,3" transform="translate(-429.18 -399.32)"/><path d="M575.88,497.69l-.45,1.22a3.38,3.38,0,0,0-.2,3.05,2.85,2.85,0,0,0,2.25-1.19,1.8,1.8,0,1,0,3,0,2.83,2.83,0,0,0,2.26,1.21,3.37,3.37,0,0,0-.2-3.05l-.45-1.22Z" transform="translate(-429.18 -399.32)" style="fill:#fff"/><path d="M578,499.19l.17,1.5a3.41,3.41,0,0,0,.84,2,3.47,3.47,0,0,0,.85-2.06l.17-1.52,1,1.18a2.67,2.67,0,0,0,1.33.93,3.21,3.21,0,0,0-.34-2.07l0-.06-.3-.79h-5.28l-.32.85a3.22,3.22,0,0,0-.34,2.07,2.67,2.67,0,0,0,1.31-.91Zm1,5.11-.31-.17a3.78,3.78,0,0,1-1.57-2.14,3.14,3.14,0,0,1-1.91.6l-.34,0-.17-.29a4,4,0,0,1,.17-3.63l.6-1.61h7.09l.6,1.61a4,4,0,0,1,.16,3.63l-.17.29-.33,0a3.09,3.09,0,0,1-1.93-.62,3.79,3.79,0,0,1-1.58,2.15Z" transform="translate(-429.18 -399.32)"/><path d="M581.74,496.42a5.3,5.3,0,0,1,.51-1.55,1.72,1.72,0,0,1,2-.82,3.18,3.18,0,0,1,2,1.83,5.08,5.08,0,0,0-.07-4.58,3.4,3.4,0,0,0-2-1.5s-3.19-1-4,4.68h-2.32c-.77-5.64-4-4.68-4-4.68a3.41,3.41,0,0,0-2,1.5,5.08,5.08,0,0,0-.07,4.58,3.2,3.2,0,0,1,2-1.83,1.71,1.71,0,0,1,2,.82,5.51,5.51,0,0,1,.51,1.55Z" transform="translate(-429.18 -399.32)" style="fill:#fff"/><path d="M576.69,495.77h4.52a5.2,5.2,0,0,1,.47-1.22,2.36,2.36,0,0,1,2.72-1.12,3.16,3.16,0,0,1,1.57,1,3.93,3.93,0,0,0-.42-2.79,2.72,2.72,0,0,0-1.63-1.21,1.84,1.84,0,0,0-1.43.28c-.87.58-1.48,1.91-1.74,3.86l-.08.56h-3.46l-.08-.56c-.27-2-.88-3.3-1.76-3.87a1.8,1.8,0,0,0-1.36-.27,2.75,2.75,0,0,0-1.68,1.24,3.89,3.89,0,0,0-.41,2.77,3.22,3.22,0,0,1,1.61-1,2.34,2.34,0,0,1,2.68,1.12,5.2,5.2,0,0,1,.47,1.22m9.49,1.53-.58-1.11a2.65,2.65,0,0,0-1.55-1.5,1.06,1.06,0,0,0-1.24.51,4.55,4.55,0,0,0-.43,1.32l-.09.55h-6.67l-.09-.54a4.76,4.76,0,0,0-.44-1.33,1,1,0,0,0-1.2-.52,2.67,2.67,0,0,0-1.59,1.51l-.58,1.11-.57-1.11a5.69,5.69,0,0,1,.09-5.21,4.1,4.1,0,0,1,2.44-1.8,3.1,3.1,0,0,1,2.4.43c1.13.73,1.89,2.15,2.26,4.23h1.21c.37-2.08,1.13-3.5,2.26-4.22a3.12,3.12,0,0,1,2.44-.42,4.06,4.06,0,0,1,2.39,1.76,5.72,5.72,0,0,1,.11,5.23Z" transform="translate(-429.18 -399.32)"/><path d="M579,482.39s-4.11,3.82-.78,13.75h1.57c3.33-9.93-.79-13.75-.79-13.75" transform="translate(-429.18 -399.32)" style="fill:#fff"/><path d="M578.65,495.49h.63c1.48-4.66,1.22-7.82.73-9.67a8.08,8.08,0,0,0-1-2.39c-.87,1.33-2.55,5.05-.32,12.06m1.57,1.3h-2.51l-.15-.44c-3.42-10.21.78-14.27,1-14.44l.44-.41.44.41c.18.17,4.38,4.23,1,14.44Z" transform="translate(-429.18 -399.32)"/><path d="M582.05,496.15h-6.17a1,1,0,0,0,0,2h6.17a1,1,0,0,0,0-2" transform="translate(-429.18 -399.32)"/><path d="M575.88,496.67a.47.47,0,0,0,0,.93h6.17a.47.47,0,0,0,0-.93Zm6.17,2h-6.17a1.5,1.5,0,0,1,0-3h6.17a1.5,1.5,0,0,1,0,3" transform="translate(-429.18 -399.32)"/><path d="M562.75,529.6v-9.12a2.73,2.73,0,1,1,5.45,0v9.12h7.26L569,498.81l0-19.5,2.47-3.11v-5.08h-2.66v2.3h-2.26v-2.3h-2.62v2.3h-2.32v-2.3H559v2.41H540.72v-2.41h-2.6v2.3H535.8v-2.3h-2.62v2.3h-2.26v-2.3h-2.67v5.08l2.47,3.11,0,19.5-6.42,30.79h7.26v-9.12a2.73,2.73,0,1,1,5.45,0v9.12Z" transform="translate(-429.18 -399.32)" style="fill:#fff"/><path d="M568.85,528.95h5.81l-6.27-30.07v-.07l0-19.74,2.47-3.1v-4.21h-1.37v2.3h-3.55v-2.3h-1.32v2.3H561v-2.3h-1.3v2.41h-19.6v-2.41h-1.3v2.3h-3.61v-2.3h-1.32v2.3h-3.55v-2.3h-1.37V476l2.47,3.1,0,19.87-6.26,30h5.81v-8.47a3.38,3.38,0,1,1,6.75,0v8.47H562.1v-8.47a3.38,3.38,0,1,1,6.74,0Zm7.41,1.3h-8.71v-9.77a2.08,2.08,0,1,0-4.15,0v9.77H536.34v-9.77a2.09,2.09,0,1,0-4.16,0v9.77h-8.71l6.57-31.5,0-19.21-2.47-3.1v-6h4v2.3h1v-2.3h3.92v2.3h1v-2.3h3.9v2.41h17v-2.41h3.89v2.3h1v-2.3h3.92v2.3h1v-2.3h4v6l-2.47,3.1,0,19.21Z" transform="translate(-429.18 -399.32)"/><path d="M561,491.47v-5.38a2.1,2.1,0,1,1,4.19,0v5.38Z" transform="translate(-429.18 -399.32)"/><rect x="101.58" y="98.84" width="38.18" height="1.3"/><path d="M561,532l-2-14.38a2.85,2.85,0,0,0,1.32-2.43,2.8,2.8,0,0,0-1.67-2.6l-1.52-46,4.11-.27,0-1L549.87,458l-11.43,7.3v1l4.11.27-1.63,46a2.89,2.89,0,0,0-.24,5l-2,14.38v1.15H561Z" transform="translate(-429.18 -399.32)"/><rect x="115.41" y="67.71" width="1.97" height="4.69" style="fill:#ffd300"/><rect x="119.71" y="67.71" width="1.97" height="4.69" style="fill:#ffd300"/><rect x="124.06" y="67.71" width="1.98" height="4.69" style="fill:#ffd300"/><path d="M548.25,456.27a1.6,1.6,0,1,1,1.59,1.71,1.66,1.66,0,0,1-1.59-1.71m-1.32,0a2.92,2.92,0,1,0,2.92-3.14,3,3,0,0,0-2.92,3.14" transform="translate(-429.18 -399.32)"/><rect x="114.67" y="104.47" width="2.18" height="8.61" style="fill:#fff"/><rect x="124.43" y="104.47" width="2.18" height="8.61" style="fill:#fff"/><rect x="119.55" y="104.47" width="2.18" height="8.61" style="fill:#fff"/><rect x="99.14" y="76.31" width="43.02" height="1.3"/><rect x="101.49" y="79.42" width="38.26" height="1.3"/><rect x="101.49" y="95.72" width="38.26" height="1.3"/><path d="M538.69,491.47v-5.38a2.1,2.1,0,1,0-4.19,0v5.38Z" transform="translate(-429.18 -399.32)"/><path d="M465.25,475.88c3.79,0,6-1.84,6-4.78V471c0-3.16-2.3-4.77-6-4.77h-7.31v9.66Zm-18.52-19.33h19c6.15,0,10.4,1.62,13.11,4.37a12.49,12.49,0,0,1,3.56,9.37v.11c0,6.15-3.28,10.23-8.28,12.37l9.61,14H470.87l-8.1-12.19h-4.89V496.8H446.73Z" transform="translate(-429.18 -399.32)" style="fill:#fff"/><path d="M458.57,527.19v-.11c0-11.73,9-20.93,21.22-20.93,8.22,0,13.51,3.45,17.08,8.39l-8.39,6.5c-2.3-2.88-4.95-4.72-8.8-4.72-5.63,0-9.6,4.77-9.6,10.64v.12c0,6,4,10.75,9.6,10.75,4.2,0,6.67-2,9.09-4.89l8.39,6c-3.79,5.23-8.91,9.08-17.82,9.08a20.44,20.44,0,0,1-20.76-20.82" transform="translate(-429.18 -399.32)" style="fill:#fff"/><polygon points="61.83 154.02 72.98 154.02 72.98 184.49 92.47 184.49 92.47 194.26 61.83 194.26 61.83 154.02" style="fill:#fff"/><polygon points="73.18 10.24 71.22 10.85 71.53 12.15 72.72 11.85 72.72 17.5 74.2 17.5 74.2 10.24 73.18 10.24"/><path d="M507.65,410.85a1.06,1.06,0,0,0-1.16,1.1,1.07,1.07,0,0,0,1.19,1.09,1.06,1.06,0,0,0,1.17-1.08,1.09,1.09,0,0,0-1.2-1.11m-.25,6.09a3.21,3.21,0,0,1-2.25-.85l.79-1.21a2.15,2.15,0,0,0,1.49.62c.84,0,1.29-.67,1.39-1.64a2,2,0,0,1-1.39.49A2.21,2.21,0,0,1,505,412a2.47,2.47,0,0,1,2.61-2.53,2.42,2.42,0,0,1,2,.78,3.73,3.73,0,0,1,.81,2.73c0,2.35-1,3.94-3,3.94" transform="translate(-429.18 -399.32)"/><path d="M514.13,410.92c-.91,0-1.48,1-1.48,2.29s.59,2.31,1.5,2.31,1.49-1,1.49-2.29-.6-2.31-1.51-2.31m0,6c-1.83,0-3-1.62-3-3.72s1.22-3.74,3-3.74,3,1.61,3,3.72-1.22,3.74-3,3.74" transform="translate(-429.18 -399.32)"/><path d="M520.6,413.45a1,1,0,0,0-1.17,1,1.07,1.07,0,0,0,1.19,1.08,1.05,1.05,0,0,0,1.17-1.07,1.06,1.06,0,0,0-1.19-1.06m1.64-1.95a2.06,2.06,0,0,0-1.4-.57c-.85,0-1.28.72-1.38,1.67a2.28,2.28,0,0,1,1.42-.46,2.2,2.2,0,0,1,2.4,2.31,2.47,2.47,0,0,1-2.61,2.5,2.52,2.52,0,0,1-2-.77,3.69,3.69,0,0,1-.81-2.74c0-2.23,1-3.94,3-3.94a3.06,3.06,0,0,1,2.14.79Z" transform="translate(-429.18 -399.32)"/><path d="M443.87,426.27c.68,0,1.09-.48,1.09-1.32v0c0-.87-.42-1.3-1.08-1.3h-1.24v2.66Zm-4.06-6.47H444a3.32,3.32,0,0,1,3.05,1.55,5.91,5.91,0,0,1,.78,3.23v0a5,5,0,0,1-1.67,4.16l2,4.63h-3.23l-1.6-3.89h-.61v3.89h-2.83Z" transform="translate(-429.18 -399.32)"/><path d="M453.93,428.36l-.78-3.31-.77,3.31Zm-2.16-8.66h2.81l3.57,13.7h-3.08l-.44-1.82h-3l-.43,1.82h-3Z" transform="translate(-429.18 -399.32)"/><path d="M457.6,426.65v0c0-4.07,2-7.09,4.52-7.09,1.87,0,3.12,1.45,3.84,3.54l-2.34,2.19c-.32-1-.76-1.64-1.54-1.64-1,0-1.58,1.34-1.58,3v0c0,1.77.65,3,1.58,3s1.25-.7,1.6-1.71L466,430c-.72,2-1.9,3.67-4,3.67-2.35,0-4.4-2.84-4.4-7.06" transform="translate(-429.18 -399.32)"/><rect x="37.46" y="20.48" width="2.84" height="13.61"/><polygon points="41.49 20.48 44.16 20.48 47.17 26.49 47.17 20.48 49.99 20.48 49.99 34.09 47.47 34.09 44.31 27.81 44.31 34.09 41.49 34.09 41.49 20.48"/><path d="M479.79,426.65v0c0-4.07,2-7.09,4.68-7.09a4.33,4.33,0,0,1,3.55,2.06l-1.59,3.07a2.4,2.4,0,0,0-1.88-1.18c-1.1,0-1.9,1.36-1.9,3.2v0c0,1.93.83,3.25,2,3.25a1.32,1.32,0,0,0,1-.31v-1.36h-1.46v-2.92h4.11v6.3a4.76,4.76,0,0,1-3.75,2c-2.64,0-4.76-2.84-4.76-7.06" transform="translate(-429.18 -399.32)"/><path d="M492.5,426.65v0c0-4.07,2-7.09,4.51-7.09,1.87,0,3.12,1.45,3.85,3.54l-2.34,2.19c-.32-1-.76-1.64-1.54-1.64-1,0-1.59,1.34-1.59,3v0c0,1.77.66,3,1.59,3s1.25-.7,1.6-1.71l2.34,2.12c-.71,2-1.9,3.67-4,3.67-2.35,0-4.4-2.84-4.4-7.06" transform="translate(-429.18 -399.32)"/><polygon points="72.35 20.48 75.19 20.48 75.19 30.2 79.18 30.2 79.18 34.09 72.35 34.09 72.35 20.48"/><path d="M508.79,427.3v-7.5h2.9v7.44c0,1.69.54,2.41,1.3,2.41s1.31-.66,1.31-2.32v-7.53h2.89v7.4c0,4.65-1.69,6.48-4.22,6.48s-4.18-1.86-4.18-6.38" transform="translate(-429.18 -399.32)"/><path d="M522.51,430a.89.89,0,0,0,.94-1v0a.87.87,0,0,0-.92-1h-1.44v2Zm-.17-4.82a.81.81,0,0,0,.89-.93v0a.82.82,0,0,0-.91-.93h-1.23v1.9Zm-4-5.34h4.76a2.56,2.56,0,0,1,2.41,1.22,4,4,0,0,1,.52,2.11v0a3.26,3.26,0,0,1-1.51,3.11c1.09.51,1.79,1.44,1.79,3.31v0c0,2.18-1.12,3.76-3.27,3.76h-4.71Z" transform="translate(-429.18 -399.32)"/><path d="M533.79,429.44c1.3,0,2.13-.85,2.13-2.81v0c0-2-.84-2.82-2.13-2.82h-.47v5.67Zm-3.3-9.63h3.24c3.37,0,5.06,2.66,5.06,6.68v0c0,4-1.72,6.88-5.15,6.88h-3.15Z" transform="translate(-429.18 -399.32)"/><polygon points="110.2 20.48 117.43 20.48 117.43 24.21 112.99 24.21 112.99 25.59 117.14 25.59 117.14 28.88 112.99 28.88 112.99 30.36 117.49 30.36 117.49 34.09 110.2 34.09 110.2 20.48"/><polygon points="121.83 20.48 124.66 20.48 124.66 30.2 128.66 30.2 128.66 34.09 121.83 34.09 121.83 20.48"/><polygon points="129.66 20.48 136.9 20.48 136.9 24.21 132.45 24.21 132.45 25.59 136.6 25.59 136.6 28.88 132.45 28.88 132.45 30.36 136.96 30.36 136.96 34.09 129.66 34.09 129.66 20.48"/><polygon points="138.01 20.48 140.66 20.48 143.69 26.49 143.69 20.48 146.5 20.48 146.5 34.09 143.98 34.09 140.83 27.81 140.83 34.09 138.01 34.09 138.01 20.48"/><path d="M576.17,431.37l1.52-2.9a3.83,3.83,0,0,0,3,1.59c.51,0,.73-.21.73-.58v0c0-.38-.26-.6-1.17-.89-1.91-.62-3.57-1.49-3.57-4.38v0c0-2.59,1.26-4.59,3.6-4.59a4.55,4.55,0,0,1,3.82,1.87l-1.38,3.07a3.48,3.48,0,0,0-2.54-1.35.54.54,0,0,0-.62.57v0c0,.37.23.6,1.12.87,2.17.64,3.63,1.65,3.63,4.4v0c0,2.86-1.47,4.61-3.76,4.61a5.22,5.22,0,0,1-4.35-2.29" transform="translate(-429.18 -399.32)"/></svg>