<svg xmlns="http://www.w3.org/2000/svg" xmlns:xlink="http://www.w3.org/1999/xlink" width="186.87" height="228.11" viewBox="0 0 186.87 228.11"><defs><clipPath id="a" transform="translate(-425 -376.89)"><rect x="425" y="376.89" width="186.96" height="228.11" style="fill:none"/></clipPath></defs><title>Stade Rennais FC logo - Brandlogos.net</title><g style="clip-path:url(#a)"><path d="M580.94,377.54c-16.95,4.28-39.12,6.65-62.44,6.69H518c-23.07,0-45.12-2.3-62.09-6.47l-2.56-.63-18.52,23.16,1.67,2.52a36.2,36.2,0,0,1,4.4,22.29c-.58,5.11-2.75,14.13-5.28,24.59C430.87,469.24,425,493.58,425,510.78c0,31.31,12.79,46.9,50.68,61.75l3.9,1.52c14.62,5.66,30.41,10.59,35.6,22.6a31.61,31.61,0,0,1,3.3,8.36,33.43,33.43,0,0,1,3.36-8.36c7.34-13.14,21-16.93,35.6-22.59l3.9-1.52c38.09-14.93,50.37-29.88,50.53-61.53.09-16.54-5.75-41.17-10.44-61-2.52-10.63-4.7-19.82-5.27-24.94a36.2,36.2,0,0,1,4.4-22.29l1.65-2.51-1.86-2.36-16.84-21.06Z" transform="translate(-425 -376.89)" style="fill:#febd11"/><path d="M592.06,425.57c-1.69-15,5.07-25,5.07-25l-15.18-19c-16.63,4.2-38.92,6.78-63.44,6.81H518c-24.29,0-46.42-2.49-63.07-6.59l-15,18.76s6.76,10,5.07,25-15.84,59.22-15.84,85.21c0,28.54,10.8,43.3,48.06,57.91,17.4,6.82,41.08,15,41.32,27.87.24-12.88,23.93-21.06,41.32-27.87,37.26-14.61,47.76-28.37,47.91-57.72.13-25-14-70.39-15.68-85.41" transform="translate(-425 -376.89)" style="fill:#e03127"/><path d="M518.51,388.35H518c-24.29,0-46.42-2.49-63.07-6.59l-15,18.76s6.76,10,5.07,25-15.84,59.22-15.84,85.21c0,28.54,10.8,43.3,48.06,57.91,17.4,6.82,41.08,15,41.32,27.87V388.35Z" transform="translate(-425 -376.89)" style="fill:#061922"/><path d="M453,512.93a4.94,4.94,0,0,0-3.4-1.37c-1.24,0-2.8.48-2.8,2,0,3,7.46,2.93,7.46,6.94,0,2.32-2.43,4.49-5.82,4.49a11.27,11.27,0,0,1-3.88-.65l-.63-2.71a7.52,7.52,0,0,0,4.75,1.8c1.23,0,3.1-.74,3.1-2.26,0-3.38-7.46-2.78-7.46-7.38,0-2.73,2.8-3.77,5.45-3.77a10.89,10.89,0,0,1,3.23.48Z" transform="translate(-425 -376.89)" style="fill:#fff"/><path d="M460.39,521.8c0,1.24,0,2.08,1.13,2.76v.06h-4.3v-.06c1.08-.41,1-2,1-3v-9.67h-1.91a3.78,3.78,0,0,0-2.58.86h-.06l.76-2.58h.07a3.5,3.5,0,0,0,.82.15h8.64a2.4,2.4,0,0,0,1-.15H465l-.69,2.58h-.07c-.28-.76-1.15-.86-1.87-.86h-2Z" transform="translate(-425 -376.89)" style="fill:#fff"/><path d="M467.35,519.27l-1.13,3.06c-.46,1.22-.61,1.84.43,2.24v.06h-4v-.06c1.26-.63,1.63-1.84,2.1-3.08l3.62-9c.31-.78.72-1.69-.33-2v-.06h3.43L476,521.48c.5,1.24.89,2.45,2.13,3.08v.06h-4.45v-.06c1.06-.48.89-.72.3-2.24l-1.17-3.06Zm2.71-7.07-2.15,5.47h4.27Z" transform="translate(-425 -376.89)" style="fill:#fff"/><path d="M479.8,513.32c0-1,.15-2.58-1-2.91v-.06h5.32c4.94,0,8,2.69,8,7s-3.28,7.27-8.14,7.27h-5.21v-.06c1.08-.74,1-1.78,1-3.06Zm2.21,9.59a7.69,7.69,0,0,0,1.58.15c3.23,0,6.12-1.69,6.12-5.45s-2.12-5.7-5.75-5.7a8.68,8.68,0,0,0-2,.24Z" transform="translate(-425 -376.89)" style="fill:#fff"/><path d="M496.38,522.8l2.76.26a5.42,5.42,0,0,0,4-1.28h.07l-1,2.84h-9v-.06c1.11-.39,1-2,1-3v-8.18c0-1,.13-2.58-1-3v-.06h6.94a2.22,2.22,0,0,0,1-.11h.07v2.54h-.07a3,3,0,0,0-2.56-.87,12.47,12.47,0,0,0-2.21.15v4H499a2.17,2.17,0,0,0,1-.13H500v2.3h-.06c-.35-.63-1.26-.61-1.93-.61h-1.6Z" transform="translate(-425 -376.89)" style="fill:#fff"/><path d="M514.55,510.35c2.91,0,4.49,1.52,4.49,3.49a4.24,4.24,0,0,1-3.45,3.82l3.12,3.93a15.15,15.15,0,0,0,3.52,3h-2a2.85,2.85,0,0,1-2.52-1.08l-2.64-3.28-2-3.06c1.74-.26,3.75-1.06,3.75-3.1a2.49,2.49,0,0,0-2.8-2.41,11,11,0,0,0-1.47.17v9.72c0,1-.13,2.58,1,3v.07h-4.14v-.07c1.1-.39,1-2,1-3v-8.18c0-1,.15-2.58-1-3v-.06Z" transform="translate(-425 -376.89)" style="fill:#fff"/><path d="M524.67,522.8l2.76.26a5.42,5.42,0,0,0,4-1.28h.07l-1,2.84h-9v-.06c1.11-.39,1-2,1-3v-8.18c0-1,.13-2.58-1-3v-.06h6.94a2.24,2.24,0,0,0,1-.11h.06v2.54h-.06a3,3,0,0,0-2.56-.87,12.47,12.47,0,0,0-2.21.15v4h2.58a2.16,2.16,0,0,0,1-.13h.06v2.3h-.06c-.35-.63-1.26-.61-1.93-.61h-1.61Z" transform="translate(-425 -376.89)" style="fill:#fff"/><path d="M534.74,521.8c0,1.22,0,2.08,1.13,2.76v.06H532v-.06c1.15-.67,1.15-1.54,1.15-2.76v-8.65c0-1.22,0-2.08-1.13-2.74v-.06h3.17v0a1.4,1.4,0,0,0,.32.55l.31.43,7.94,10v-8.22c0-1.22,0-2.08-1.13-2.74v-.06h3.82v.06c-1.13.65-1.13,1.52-1.13,2.74v12.17a6,6,0,0,1-3.17-2.47l-7.44-9.44Z" transform="translate(-425 -376.89)" style="fill:#fff"/><path d="M549.81,521.8c0,1.22,0,2.08,1.13,2.76v.06H547.1v-.06c1.15-.67,1.15-1.54,1.15-2.76v-8.65c0-1.22,0-2.08-1.13-2.74v-.06h3.17v0a1.4,1.4,0,0,0,.32.55l.31.43,7.94,10v-8.22c0-1.22,0-2.08-1.13-2.74v-.06h3.82v.06c-1.13.65-1.13,1.52-1.13,2.74v12.17a6,6,0,0,1-3.17-2.47l-7.44-9.44Z" transform="translate(-425 -376.89)" style="fill:#fff"/><path d="M566.26,519.27l-1.13,3.06c-.46,1.22-.61,1.84.43,2.24v.06h-4v-.06c1.26-.63,1.62-1.84,2.1-3.08l3.62-9c.3-.78.71-1.69-.33-2v-.06h3.43l4.51,11.13c.5,1.24.89,2.45,2.12,3.08v.06h-4.45v-.06c1.07-.48.89-.72.3-2.24l-1.17-3.06Zm2.71-7.07-2.14,5.47h4.27Z" transform="translate(-425 -376.89)" style="fill:#fff"/><path d="M578.73,513.41c0-1,.15-2.58-1-3v-.06h4.12v.06c-1.09.41-1,2-1,3v8.18c0,1-.13,2.56,1,3v.07h-4.12v-.07c1.08-.39,1-2,1-3Z" transform="translate(-425 -376.89)" style="fill:#fff"/><path d="M591.35,512.93a4.94,4.94,0,0,0-3.4-1.37c-1.24,0-2.8.48-2.8,2,0,3,7.46,2.93,7.46,6.94,0,2.32-2.43,4.49-5.82,4.49a11.31,11.31,0,0,1-3.89-.65l-.63-2.71a7.52,7.52,0,0,0,4.75,1.8c1.23,0,3.1-.74,3.1-2.26,0-3.38-7.46-2.78-7.46-7.38,0-2.73,2.8-3.77,5.45-3.77a10.9,10.9,0,0,1,3.23.48Z" transform="translate(-425 -376.89)" style="fill:#fff"/><path d="M468.48,539c0,.55-.1,1.43.51,1.66v0H466.7v0c.62-.22.55-1.12.55-1.66v-4.57c0-.56.07-1.44-.55-1.67v0h3.88a1.26,1.26,0,0,0,.57-.06h0v1.41h0a1.73,1.73,0,0,0-1.43-.47,6.87,6.87,0,0,0-1.24.08v2.26h1.45a1.23,1.23,0,0,0,.52-.07h0v1.28h0c-.19-.36-.7-.34-1.08-.34h-.9Z" transform="translate(-425 -376.89)" style="fill:#fff"/><path d="M481.38,536.61a4.33,4.33,0,0,1-4.46,4.27,4.25,4.25,0,0,1-4.43-4.21A4.31,4.31,0,0,1,477,532.5a4.18,4.18,0,0,1,4.34,4.11m-7.51-.05A3.29,3.29,0,0,0,477,540a3,3,0,0,0,3-3.16,3.22,3.22,0,0,0-3-3.48,3,3,0,0,0-3.08,3.19" transform="translate(-425 -376.89)" style="fill:#fff"/><path d="M491.69,536.61a4.33,4.33,0,0,1-4.46,4.27,4.25,4.25,0,0,1-4.43-4.21,4.31,4.31,0,0,1,4.55-4.17,4.18,4.18,0,0,1,4.34,4.11m-7.51-.05a3.29,3.29,0,0,0,3.1,3.45,3,3,0,0,0,3-3.16,3.22,3.22,0,0,0-3-3.48,3,3,0,0,0-3.08,3.19" transform="translate(-425 -376.89)" style="fill:#fff"/><path d="M496.16,539.11c0,.69,0,1.16.63,1.54v0h-2.4v0c.61-.23.53-1.12.53-1.66v-5.41h-1.07a2.11,2.11,0,0,0-1.44.49h0l.43-1.44h0a1.94,1.94,0,0,0,.46.09h4.83a1.36,1.36,0,0,0,.56-.09h0l-.39,1.44h0c-.16-.43-.64-.49-1-.49h-1.09Z" transform="translate(-425 -376.89)" style="fill:#fff"/><path d="M501.11,534.4c0-.55.09-1.43-.53-1.66v0h2.87c1.6,0,2.53.68,2.53,1.76a1.69,1.69,0,0,1-1.21,1.57,2.23,2.23,0,0,1,2,2.15,2.44,2.44,0,0,1-1.45,2.12,6.15,6.15,0,0,1-2.72.38h-2v0c.61-.23.53-1.12.53-1.67Zm2.29,5.41c1,.09,2-.36,2-1.52s-1.14-1.68-2.21-1.62l-.85,0v3Zm-.66-3.89c.79,0,1.92-.27,1.92-1.26a1.28,1.28,0,0,0-1.5-1.2l-.81.09v2.37Z" transform="translate(-425 -376.89)" style="fill:#fff"/><path d="M510.79,537.69l-.63,1.71c-.25.68-.34,1,.24,1.25v0h-2.23v0a2.72,2.72,0,0,0,1.18-1.72l2-5.06c.17-.44.4-.95-.18-1.13v0h1.92l2.52,6.22a2.84,2.84,0,0,0,1.19,1.72v0h-2.48v0c.59-.27.5-.4.17-1.25l-.65-1.71Zm1.52-4-1.2,3.06h2.39Z" transform="translate(-425 -376.89)" style="fill:#fff"/><path d="M521.65,539.81a3,3,0,0,0,2.15-.74h0l-.63,1.61h-5v0c.62-.22.55-1.12.55-1.66v-4.57c0-.56.07-1.44-.55-1.67v0h2.31v0c-.62.23-.53,1.13-.53,1.67v5.29Z" transform="translate(-425 -376.89)" style="fill:#fff"/><path d="M528.8,539.81a3,3,0,0,0,2.15-.74h0l-.63,1.61h-5v0c.62-.22.55-1.12.55-1.66v-4.57c0-.56.07-1.44-.55-1.67v0h2.32v0c-.62.23-.54,1.13-.54,1.67v5.29Z" transform="translate(-425 -376.89)" style="fill:#fff"/><path d="M546.24,534.21a4.21,4.21,0,0,0-2.24-.69,2.78,2.78,0,0,0-2.84,3,3.18,3.18,0,0,0,3.08,3.37,5.38,5.38,0,0,0,2.59-.76h0l-.62,1.41a4.35,4.35,0,0,1-1.83.36c-2.86,0-4.63-1.6-4.63-4.19a4,4,0,0,1,4.26-4.17,9.7,9.7,0,0,1,2.21.3Z" transform="translate(-425 -376.89)" style="fill:#fff"/><path d="M552.47,539.81a3,3,0,0,0,2.15-.74h0l-.63,1.61h-5v0c.62-.22.54-1.12.54-1.66v-4.57c0-.56.08-1.44-.54-1.67v0h2.31v0c-.61.23-.53,1.13-.53,1.67v5.29Z" transform="translate(-425 -376.89)" style="fill:#fff"/><path d="M561.68,539.88a3.31,3.31,0,0,1-4.57.15,3.18,3.18,0,0,1-.62-2.39V534.4c0-.55.08-1.43-.53-1.66v0h2.31v0c-.61.23-.53,1.12-.53,1.66v3.24c0,1.61.68,2.36,1.93,2.36a2.15,2.15,0,0,0,1.77-.85,1.6,1.6,0,0,0,.25-1.1V534.4c0-.55.08-1.43-.53-1.66v0h2.31v0c-.62.23-.55,1.12-.55,1.67V539c0,.55-.07,1.43.55,1.66v0h-1.78Z" transform="translate(-425 -376.89)" style="fill:#fff"/><path d="M565.77,534.4c0-.55.08-1.43-.53-1.66v0h2.87c1.6,0,2.54.68,2.54,1.76a1.69,1.69,0,0,1-1.21,1.57,2.23,2.23,0,0,1,2,2.15,2.44,2.44,0,0,1-1.46,2.12,6.12,6.12,0,0,1-2.71.38h-2v0c.61-.23.53-1.12.53-1.67Zm2.29,5.41c1,.09,2-.36,2-1.52s-1.14-1.68-2.21-1.62l-.85,0v3Zm-.66-3.89c.79,0,1.92-.27,1.92-1.26a1.28,1.28,0,0,0-1.5-1.2l-.81.09v2.37Z" transform="translate(-425 -376.89)" style="fill:#fff"/><path d="M503.06,552.39a4.44,4.44,0,0,0,2.35-1.92h0v6.19c0,.63,0,1.13.55,1.52v0h-2.31v0c.68-.33.65-.85.65-1.52v-4.24h-1.27Z" transform="translate(-425 -376.89)" style="fill:#febd11"/><path d="M511.72,557.75a4.17,4.17,0,0,0,3.36-3.81,2.11,2.11,0,0,0-1.89-2.35,1.59,1.59,0,0,0-1.6,1.66,1.67,1.67,0,0,0,1.67,1.79,2.29,2.29,0,0,0,1.16-.35l-.75.91a2.41,2.41,0,0,1-.89.16,2.24,2.24,0,0,1-2.31-2.28,2.7,2.7,0,0,1,2.85-2.67,2.85,2.85,0,0,1,2.86,3,4.28,4.28,0,0,1-1.65,3.26,6.66,6.66,0,0,1-3.37,1.35Z" transform="translate(-425 -376.89)" style="fill:#febd11"/><path d="M520.94,554.62c0-2,1-3.81,2.93-3.81s2.9,2,2.9,3.75-.88,3.83-2.94,3.83c-1.72,0-2.89-1.74-2.89-3.76m1.17-.11c0,1.11.36,3,1.78,3,1.09,0,1.7-1.34,1.7-2.89s-.66-3-1.77-3c-1.39,0-1.71,1.78-1.71,2.84" transform="translate(-425 -376.89)" style="fill:#febd11"/><path d="M531.38,552.39a4.44,4.44,0,0,0,2.35-1.92h0v6.19c0,.63,0,1.13.55,1.52v0H532v0c.68-.33.65-.85.65-1.52v-4.24h-1.27Z" transform="translate(-425 -376.89)" style="fill:#febd11"/><polygon points="113.46 118.81 138.66 93.11 138.66 52.05 114.13 27.19 72.63 27.19 48.09 52.05 48.09 93.11 73.29 118.81 113.46 118.81" style="fill:#fff"/><path d="M497.86,496.71l-25.78-26.3V428.53l25.12-25.46h42.35l25.12,25.46V470.4l-25.49,26-.3.3Zm40.6-1v0ZM474.1,429.36v40.22l24.61,25.1H538l24.61-25.1V429.36L538.7,405.09H498Z" transform="translate(-425 -376.89)" style="fill:#fff"/><polygon points="92.82 27.19 72.62 27.19 48.09 52.05 48.09 93.11 73.29 118.81 92.82 118.81 92.82 27.19" style="fill:#e03127"/><polygon points="93.94 27.19 114.13 27.19 138.66 52.05 138.66 93.11 113.46 118.81 93.94 118.81 93.94 27.19" style="fill:#061922"/><path d="M518.34,444.62a9.5,9.5,0,1,0-9.5-9.5,9.5,9.5,0,0,0,9.5,9.5" transform="translate(-425 -376.89)" style="fill:#fff"/><path d="M521,424.07l.25-3.3a14.7,14.7,0,0,1,9.26,3.34s3.5-10.26,8.43-12.43c0,0,.33,1.33.66,1.42s1.5-1.25,1.84-1.17-.42,4.59,10,8.51l-.58,2.75s-12.77-1-12.77,6.59c0,3.42,4.92,9.35,5.75,10.43s6.18,5.42,6.93,17c0,0,1.92-1.42,1.92-5.09s-2.17-11-2.17-13.69-.42-9.85,6.84-9.85v3.67s-2.46-.07-2.75,3.17c-.25,2.75,3.34,14.85,1.67,19.44-1.37,3.77-2.09,5.26-4.75,7.34s-11.18,8.84-3,14.85L541,490.85s-4.42,1.59-4.75,1.59-1.25.17-.59-.58,6.51-6.17,6.51-12.1-8.59-7.76-8.59-16.69c0-5.92,5.17-9.51,5.17-9.51a10,10,0,0,0-1.84-2.92c-.92-.75-6-3.75-6.76-5.59,0,0-5,4.09-9,4.34a9.07,9.07,0,0,1-1.08-3s10-1.28,9.81-11.75c-.16-8.78-8.81-10.56-8.81-10.56" transform="translate(-425 -376.89)" style="fill:#fff"/><path d="M515.73,424.07l-.25-3.3a14.69,14.69,0,0,0-9.26,3.34s-3.5-10.26-8.43-12.43c0,0-.33,1.33-.67,1.42s-1.5-1.25-1.84-1.17.42,4.59-10,8.51l.58,2.75s12.77-1,12.77,6.59c0,3.42-4.92,9.35-5.76,10.43s-6.17,5.42-6.92,17c0,0-1.92-1.42-1.92-5.09s2.17-11,2.17-13.69.42-9.85-6.84-9.85v3.67s2.46-.07,2.75,3.17c.25,2.75-3.34,14.85-1.67,19.44,1.37,3.77,2.09,5.26,4.76,7.34s11.18,8.84,3,14.85l7.59,13.77s4.42,1.59,4.76,1.59,1.25.17.59-.58-6.51-6.17-6.51-12.1,8.6-7.76,8.6-16.69c0-5.92-5.17-9.51-5.17-9.51a9.94,9.94,0,0,1,1.84-2.92c.92-.75,6-3.75,6.76-5.59,0,0,5,4.09,9,4.34a9.07,9.07,0,0,0,1.08-3s-10-1.28-9.81-11.75c.16-8.78,8.81-10.56,8.81-10.56" transform="translate(-425 -376.89)" style="fill:#fff"/><path d="M500.94,477.34l7.68,11.12,4.62.78s.78,0,.33-.67-5.62-6.67-6.12-8.18-1.67-2.78.39-5.62,6-5.51,6-11.18-4.84-10.25-11.18-10.12c-2.84.06-.55,1.77-.28,2.11a13.43,13.43,0,0,1,2.73,6.79,11.34,11.34,0,0,1-1.56,6.73c0,.95,1.45,1.11,1.45,3.5,0,2.78-4.06,4.73-4.06,4.73" transform="translate(-425 -376.89)" style="fill:#fff"/><path d="M535.67,477.34,528,488.46l-4.62.78s-.78,0-.33-.67,5.62-6.67,6.12-8.18,1.67-2.78-.39-5.62-6-5.51-6-11.18,4.84-10.25,11.18-10.12c2.84.06.55,1.77.28,2.11a13.37,13.37,0,0,0-2.73,6.79,11.31,11.31,0,0,0,1.56,6.73c0,.95-1.45,1.11-1.45,3.5,0,2.78,4.06,4.73,4.06,4.73" transform="translate(-425 -376.89)" style="fill:#fff"/></g></svg>