<svg width="512" height="512" viewBox="0 0 512 512" fill="none" xmlns="http://www.w3.org/2000/svg">
<g clip-path="url(#clip0_1_2371)">
<path d="M110.826 358.478C39.6506 249.376 30.8191 118.454 29 0H482.552C480.734 118.453 471.902 249.376 400.726 358.478C343.484 446.219 255.776 512 255.776 512C255.776 512 168.067 446.219 110.826 358.478Z" fill="black"/>
<path d="M472.247 10.1313C470.148 121.709 460.772 247.893 392.241 352.943C345.264 424.949 276.432 482.647 255.776 499.139C235.119 482.647 166.287 424.948 119.311 352.943C50.7789 247.893 41.4037 121.709 39.3047 10.1313C58.5322 10.1313 453.018 10.1313 472.247 10.1313Z" fill="white"/>
<path d="M413.357 67.0197C408.583 154.559 393.935 246.226 344.594 321.859C317.787 362.951 282.636 399.214 255.776 424.039C228.915 399.215 193.764 362.952 166.958 321.859C117.616 246.227 102.97 154.56 98.194 67.0206C179.686 67.0197 331.865 67.0197 413.357 67.0197Z" fill="black"/>
<path d="M133.572 225.29C132.673 222.376 131.8 219.431 130.948 216.455L130.96 216.435C131.204 216.099 131.399 215.953 131.687 215.953C132.101 215.953 132.323 216.252 132.768 216.985C133.263 217.8 133.94 218.915 135.47 218.915C136.999 218.915 137.677 217.8 138.171 216.985C138.617 216.252 138.839 215.953 139.253 215.953C139.666 215.953 139.889 216.252 140.335 216.985C140.829 217.8 141.507 218.915 143.036 218.915V217.356C142.442 217.356 142.176 217.015 141.666 216.176C141.21 215.424 140.584 214.395 139.253 214.395C137.922 214.395 137.297 215.425 136.839 216.176C136.329 217.015 136.064 217.356 135.47 217.356C134.876 217.356 134.61 217.015 134.101 216.177C133.644 215.425 133.018 214.395 131.687 214.395C131.204 214.395 130.814 214.53 130.492 214.739L130.465 214.751C129.511 211.368 128.588 207.946 127.694 204.481L127.684 204.438H193.44C193.44 204.438 193.626 194.145 196.354 187.131C198.505 181.599 202.759 174.688 207.589 174.695C212.418 174.687 216.673 181.599 218.824 187.131C220.774 192.146 221.426 198.837 221.639 202.243L221.652 202.303L209.318 211.412L209.308 211.35V210.011C208.714 210.011 208.448 209.669 207.938 208.83C207.481 208.078 206.856 207.049 205.524 207.049C204.192 207.049 203.567 208.079 203.111 208.831C202.601 209.669 202.334 210.012 201.741 210.012C201.148 210.012 200.881 209.67 200.371 208.831C199.915 208.079 199.289 207.049 197.958 207.049C196.626 207.049 196.001 208.079 195.544 208.831C195.035 209.67 194.769 210.012 194.175 210.012C193.581 210.012 193.315 209.67 192.806 208.831C192.349 208.079 191.723 207.049 190.392 207.049C189.061 207.049 188.436 208.079 187.979 208.83C187.47 209.669 187.203 210.011 186.61 210.011V211.569C188.139 211.569 188.816 210.454 189.311 209.64C189.756 208.906 189.979 208.608 190.391 208.608C190.805 208.608 191.027 208.906 191.473 209.64C191.968 210.454 192.645 211.569 194.174 211.569C195.703 211.569 196.381 210.454 196.875 209.64C197.321 208.906 197.543 208.608 197.957 208.608C198.371 208.608 198.593 208.906 199.038 209.64C199.532 210.454 200.211 211.569 201.739 211.569C203.269 211.569 203.946 210.454 204.441 209.64C204.887 208.906 205.109 208.608 205.522 208.608C205.936 208.608 206.158 208.906 206.604 209.64C207.073 210.412 207.705 211.453 209.071 211.56L209.112 211.562L192.849 223.572L192.824 223.55C192.818 223.541 192.812 223.531 192.806 223.521C192.349 222.77 191.723 221.74 190.392 221.74C189.061 221.74 188.436 222.77 187.979 223.521C187.47 224.36 187.203 224.701 186.61 224.701V226.26C188.139 226.26 188.816 225.144 189.311 224.33C189.756 223.597 189.979 223.298 190.391 223.298C190.805 223.298 191.027 223.598 191.473 224.33C191.502 224.377 191.531 224.426 191.562 224.475L191.582 224.507L185.284 229.158L185.254 229.149C185.085 229.107 184.901 229.084 184.703 229.084C183.371 229.084 182.746 230.114 182.29 230.865C181.781 231.703 181.514 232.045 180.921 232.045C180.327 232.045 180.061 231.703 179.551 230.865C179.094 230.113 178.469 229.084 177.138 229.084C175.807 229.084 175.181 230.113 174.724 230.865C174.215 231.703 173.949 232.045 173.355 232.045V233.604C174.884 233.604 175.562 232.488 176.056 231.674C176.501 230.941 176.724 230.642 177.137 230.642C177.551 230.642 177.773 230.941 178.219 231.674C178.546 232.213 178.954 232.883 179.634 233.276L179.674 233.298L173.601 237.783L173.583 237.766C173.145 237.108 172.53 236.427 171.448 236.427C170.117 236.427 169.492 237.457 169.035 238.208C168.525 239.047 168.259 239.389 167.665 239.389C167.072 239.389 166.805 239.047 166.295 238.208C165.839 237.457 165.214 236.427 163.883 236.427C162.551 236.427 161.926 237.457 161.469 238.208C160.959 239.047 160.693 239.389 160.099 239.389V240.948C161.629 240.948 162.306 239.833 162.801 239.019C163.246 238.285 163.469 237.987 163.883 237.987C164.295 237.987 164.518 238.285 164.963 239.019C165.457 239.833 166.136 240.948 167.665 240.948C169.194 240.948 169.871 239.833 170.366 239.019C170.811 238.285 171.034 237.987 171.446 237.987C171.788 237.987 171.999 238.191 172.313 238.674L172.333 238.719L165.482 243.779L165.437 243.794C164.522 243.918 163.98 244.561 163.585 245.169L163.572 245.189L161.574 246.664L161.541 246.651C161.213 246.505 160.973 246.159 160.606 245.555C160.15 244.803 159.524 243.774 158.193 243.774C156.862 243.774 156.236 244.803 155.779 245.555C155.27 246.393 155.003 246.736 154.41 246.736C153.816 246.736 153.55 246.394 153.04 245.555C152.583 244.803 151.958 243.774 150.626 243.774C149.295 243.774 148.67 244.803 148.213 245.555C147.703 246.394 147.437 246.736 146.843 246.736V248.294C148.373 248.294 149.049 247.18 149.544 246.364C149.99 245.631 150.212 245.333 150.626 245.333C151.039 245.333 151.262 245.631 151.707 246.364C152.202 247.179 152.879 248.294 154.409 248.294C155.938 248.294 156.616 247.18 157.11 246.364C157.556 245.631 157.778 245.333 158.192 245.333C158.606 245.333 158.828 245.631 159.274 246.364C159.517 246.766 159.806 247.24 160.218 247.618L160.252 247.641L154.326 252.019L154.305 252.007C153.893 251.521 153.337 251.119 152.505 251.119C151.173 251.119 150.549 252.149 150.091 252.9C149.582 253.739 149.316 254.08 148.722 254.08C148.128 254.08 147.862 253.739 147.353 252.9C146.896 252.148 146.271 251.118 144.939 251.118C144.006 251.118 143.42 251.624 142.995 252.185C142.975 252.212 142.935 252.279 142.915 252.307L142.898 252.26C142.276 250.65 141.664 249.032 141.059 247.402L141.114 247.458C141.557 247.925 142.154 248.292 143.033 248.292V246.734C142.439 246.734 142.173 246.392 141.664 245.553C141.275 244.914 140.764 244.072 139.799 243.836L139.752 243.823C139.069 241.928 138.398 240.019 137.739 238.097L137.779 238.118C137.984 238.27 138.175 238.559 138.455 239.017C138.949 239.831 139.627 240.946 141.157 240.946C142.686 240.946 143.363 239.831 143.858 239.017C144.303 238.284 144.526 237.985 144.939 237.985C145.353 237.985 145.575 238.284 146.02 239.017C146.515 239.831 147.192 240.946 148.722 240.946C150.251 240.946 150.929 239.831 151.424 239.017C151.869 238.284 152.092 237.985 152.505 237.985C152.918 237.985 153.141 238.284 153.586 239.017C154.081 239.831 154.759 240.946 156.288 240.946V239.387C155.695 239.387 155.427 239.046 154.918 238.207C154.462 237.456 153.837 236.426 152.505 236.426C151.173 236.426 150.549 237.456 150.091 238.207C149.582 239.046 149.316 239.387 148.722 239.387C148.128 239.387 147.862 239.046 147.353 238.207C146.896 237.455 146.271 236.426 144.939 236.426C143.608 236.426 142.982 237.456 142.526 238.207C142.017 239.045 141.75 239.387 141.157 239.387C140.563 239.387 140.296 239.046 139.786 238.207C139.329 237.456 138.704 236.426 137.373 236.426C137.315 236.426 137.259 236.427 137.203 236.432L137.172 236.434C136.843 235.462 136.516 234.485 136.192 233.506L136.237 233.494C137.243 233.195 137.766 232.334 138.169 231.671C138.614 230.938 138.837 230.64 139.25 230.64C139.664 230.64 139.886 230.939 140.332 231.671C140.827 232.486 141.504 233.601 143.033 233.601V232.043C142.439 232.043 142.173 231.701 141.664 230.862C141.207 230.11 140.581 229.081 139.25 229.081C137.919 229.081 137.294 230.11 136.837 230.862C136.414 231.558 136.159 231.912 135.744 232.011L135.705 232.017C135.086 230.119 134.477 228.209 133.88 226.285L133.856 226.244C135.2 226.124 135.828 225.092 136.293 224.326C136.739 223.592 136.961 223.294 137.375 223.294C137.787 223.294 138.011 223.593 138.456 224.326C138.951 225.14 139.628 226.256 141.158 226.256C142.687 226.256 143.365 225.14 143.859 224.326C144.305 223.592 144.527 223.294 144.941 223.294C145.354 223.294 145.577 223.593 146.022 224.326C146.516 225.14 147.194 226.256 148.724 226.256C150.253 226.256 150.931 225.14 151.426 224.326C151.87 223.592 152.094 223.294 152.506 223.294C152.92 223.294 153.142 223.593 153.588 224.326C154.083 225.14 154.76 226.256 156.289 226.256V224.701C155.696 224.701 155.429 224.36 154.92 223.521C154.463 222.769 153.838 221.74 152.506 221.74C151.174 221.74 150.55 222.77 150.093 223.521C149.584 224.36 149.317 224.701 148.724 224.701C148.13 224.701 147.864 224.36 147.355 223.521C146.898 222.77 146.273 221.74 144.941 221.74C143.61 221.74 142.984 222.77 142.527 223.521C142.018 224.36 141.752 224.701 141.158 224.701C140.565 224.701 140.298 224.36 139.788 223.521C139.331 222.77 138.706 221.74 137.375 221.74C136.043 221.74 135.418 222.77 134.961 223.521C134.451 224.36 134.185 224.701 133.591 224.701V225.328L133.572 225.29Z" fill="white"/>
<path d="M275.414 162.542L263.202 159.608L263.134 159.586V144.536L263.18 144.533C264.168 144.468 265.081 144.379 265.959 144.244C266.706 144.13 266.282 145.577 266.885 146.2C267.486 146.822 267.928 147.394 267.597 147.882C266.945 148.836 266.329 149.133 265.542 149.133C264.755 149.133 264.246 149.711 264.246 150.023C264.246 150.333 264.662 150.2 265.866 150.2C267.07 150.2 268.134 150.112 268.782 149.044C269.349 148.112 269.881 147.519 269.912 146.908C269.916 146.82 270.011 146.732 270.212 146.85C270.529 147.038 271.056 147.309 271.653 147.444C272.624 147.668 273.051 148.163 273.051 149.051C273.051 149.94 273.087 150.244 272.393 150.244C271.699 150.244 271.466 150.466 271.466 150.776C271.466 151.088 272.161 151.266 273.04 151.221C273.921 151.176 274.799 150.866 274.846 149.755C274.892 148.644 275.077 147.176 274.289 146.732C273.503 146.288 272.809 145.888 273.04 144.511C273.272 143.133 273.272 142.244 273.272 142.244C273.272 142.244 274.167 143.281 275.324 144.57C276.481 145.858 277.462 147.222 279.545 147.622C281.627 148.022 282.804 147.246 283.311 146.713C283.82 146.179 283.501 145.356 282.297 145.444C281.094 145.533 279.057 145.711 277.807 144.334C276.557 142.957 275.409 141.088 272.726 140.155C270.041 139.221 267.997 139.129 265.679 139.179C264.758 139.198 263.938 139.232 263.166 139.273L263.133 139.276V122.448L263.166 122.443C264.16 122.38 265.077 122.29 265.958 122.155C266.705 122.041 266.282 123.488 266.884 124.11C267.485 124.733 267.927 125.304 267.596 125.792C266.944 126.747 266.328 127.043 265.542 127.043C264.754 127.043 264.245 127.621 264.245 127.932C264.245 128.243 264.661 128.11 265.866 128.11C267.069 128.11 268.134 128.021 268.781 126.954C269.348 126.021 269.88 125.429 269.911 124.818C269.915 124.731 270.01 124.642 270.211 124.761C270.529 124.949 271.055 125.219 271.652 125.355C272.623 125.578 273.05 126.074 273.05 126.963C273.05 127.852 273.086 128.155 272.392 128.155C271.698 128.155 271.466 128.378 271.466 128.689C271.466 129 272.16 129.178 273.039 129.134C273.92 129.089 274.799 128.778 274.845 127.667C274.892 126.556 275.076 125.09 274.289 124.645C273.502 124.202 272.808 123.801 273.039 122.423C273.271 121.045 273.271 120.157 273.271 120.157C273.271 120.157 274.166 121.193 275.323 122.482C276.48 123.77 277.461 125.134 279.544 125.534C281.627 125.934 282.803 125.158 283.31 124.625C283.819 124.092 283.5 123.268 282.296 123.357C281.093 123.446 279.056 123.623 277.807 122.246C276.556 120.87 275.408 119.001 272.725 118.067C270.04 117.133 267.997 117.042 265.679 117.091C264.761 117.111 263.947 117.144 263.178 117.185L263.132 117.189V110.821L263.164 110.814C268.629 109.496 272.93 105.194 274.246 99.7292L274.259 99.7012H279.97C280.297 99.7012 280.566 99.4332 280.566 99.1042V93.2833C280.566 92.9552 280.297 92.6871 279.97 92.6871H274.259L274.244 92.6474C272.924 87.1868 268.624 82.8907 263.163 81.574L263.132 81.5613V79.0445C263.132 78.7164 262.864 78.4483 262.536 78.4483H256.714C256.386 78.4483 256.118 78.7164 256.118 79.0445V81.5613L256.1 81.5723C250.637 82.8839 246.334 87.1783 245.01 92.6372L244.998 92.688H239.283C238.955 92.688 238.687 92.9561 238.687 93.2842V99.105C238.687 99.4332 238.955 99.7021 239.283 99.7021H244.998L245.011 99.7537C246.334 105.206 250.627 109.496 256.082 110.814L256.118 110.823V117.678L256.09 117.674C253.758 117.792 251.295 117.807 250.434 117.374C249.214 116.76 248.723 115.932 248.502 114.939C248.346 114.245 248.225 113.645 248.167 113.348C248.141 113.22 248.055 113.196 247.947 113.274C247.743 113.422 247.413 113.673 247.223 113.888C247.223 113.888 247.222 113.684 247.198 113.44C247.192 113.375 247.101 113.273 246.979 113.346C246.78 113.466 246.453 113.69 246.112 114.042C245.682 114.486 245.929 114.846 245.199 115.029C244.47 115.212 243.966 115.815 243.219 115.878C242.473 115.94 241.913 116.141 242.004 116.497C242.095 116.853 242.414 117.964 243.435 118.067C244.457 118.171 245.151 118.238 245.643 118.457C246.136 118.676 246.609 119.204 247.202 120.145C247.795 121.087 248.236 121.775 247.98 122.057C247.726 122.339 247.095 122.63 246.477 122.717C245.86 122.802 244.464 123.324 243.814 123.783C243.164 124.241 242.563 124.5 243.166 124.856C243.435 125.015 244.126 125.076 244.669 124.755C245.212 124.433 246.746 123.709 248.256 123.738C249.812 123.769 250.395 123.728 251.195 124.355C251.676 124.731 252.703 125.657 252.779 126.388C252.899 127.559 252.697 128.817 252.162 128.891C251.627 128.965 250.962 129.017 250.993 129.545C251.025 130.073 251.296 129.913 252.29 129.815C253.283 129.718 253.905 129.058 254.082 128.214C254.258 127.37 254.251 126.715 254.43 125.584C254.514 125.055 254.63 124.761 254.709 124.587C255.064 123.81 255.189 123.236 256.086 122.911L256.12 122.898V139.751L256.092 139.761C253.76 139.88 251.296 139.895 250.436 139.462C249.216 138.848 248.725 138.02 248.504 137.026C248.348 136.332 248.226 135.733 248.169 135.435C248.143 135.307 248.056 135.283 247.949 135.361C247.745 135.509 247.415 135.761 247.225 135.975C247.225 135.975 247.223 135.771 247.2 135.528C247.194 135.463 247.103 135.36 246.981 135.434C246.782 135.554 246.455 135.778 246.114 136.129C245.683 136.574 245.931 136.934 245.201 137.117C244.471 137.3 243.967 137.903 243.221 137.966C242.475 138.029 241.915 138.229 242.005 138.585C242.097 138.941 242.416 140.052 243.437 140.155C244.459 140.259 245.153 140.327 245.645 140.544C246.137 140.764 246.611 141.291 247.204 142.233C247.797 143.175 248.237 143.865 247.982 144.145C247.728 144.427 247.096 144.719 246.479 144.805C245.862 144.891 244.465 145.412 243.816 145.871C243.166 146.33 242.564 146.589 243.167 146.945C243.437 147.104 244.128 147.165 244.671 146.844C245.214 146.523 246.748 145.8 248.257 145.827C249.814 145.858 250.396 145.817 251.196 146.444C251.677 146.82 252.705 147.746 252.78 148.477C252.901 149.648 252.698 150.906 252.164 150.98C251.628 151.054 250.964 151.105 250.995 151.634C251.026 152.162 251.298 152.001 252.291 151.905C253.285 151.807 253.907 151.147 254.083 150.304C254.26 149.46 254.253 148.805 254.432 147.674C254.516 147.145 254.631 146.851 254.711 146.677C255.065 145.9 255.19 145.327 256.085 145.002L256.121 145V157.907L256.029 157.885L217.911 148.727C217.592 148.65 217.108 148.737 216.834 148.918L193.938 164.104C193.664 164.285 193.441 164.164 193.441 163.837V123.273C193.441 122.945 193.172 122.677 192.844 122.677H166.745C166.417 122.677 166.148 122.945 166.148 123.273V152.668C166.148 152.996 165.879 153.265 165.551 153.265H117.115L117.103 153.206C113.401 130.042 110.731 105.049 108.946 77.1527C126.46 77.1527 336.905 77.1527 391.108 77.1527L391.04 77.2069L275.469 162.559L275.414 162.542Z" fill="white"/>
<path d="M66.578 177.892C66.3759 178.151 65.942 178.363 65.6139 178.363H57.163C56.8349 178.363 56.7325 178.151 56.9338 177.892L73.3925 156.818C73.5946 156.559 73.5946 156.136 73.3925 155.878L56.9338 134.802C56.7325 134.543 56.8349 134.332 57.163 134.332H65.6139C65.942 134.332 66.375 134.543 66.578 134.802L78.2155 149.704C78.4176 149.963 78.7474 149.963 78.9504 149.704L90.587 134.802C90.7891 134.543 91.223 134.332 91.5511 134.332H100.002C100.33 134.332 100.433 134.543 100.231 134.802L83.7716 155.878C83.5695 156.136 83.5695 156.559 83.7716 156.818L100.23 177.892C100.432 178.151 100.329 178.363 100.001 178.363H91.5502C91.2221 178.363 90.7883 178.151 90.5862 177.892L78.9487 162.991C78.7466 162.733 78.4167 162.733 78.2138 162.991L66.578 177.892Z" fill="black"/>
<path d="M444.973 177.892C445.175 178.151 445.609 178.363 445.936 178.363H454.388C454.716 178.363 454.82 178.151 454.617 177.892L438.159 156.818C437.957 156.559 437.957 156.136 438.159 155.878L454.617 134.802C454.82 134.543 454.716 134.332 454.388 134.332H445.936C445.609 134.332 445.175 134.543 444.973 134.802L433.336 149.704C433.134 149.963 432.804 149.963 432.601 149.704L420.964 134.802C420.763 134.543 420.329 134.332 420.001 134.332H411.549C411.221 134.332 411.119 134.543 411.32 134.802L427.779 155.878C427.981 156.136 427.981 156.559 427.779 156.818L411.32 177.892C411.119 178.151 411.221 178.363 411.549 178.363H420.001C420.329 178.363 420.762 178.151 420.964 177.892L432.602 162.991C432.804 162.733 433.134 162.733 433.336 162.991L444.973 177.892Z" fill="black"/>
<path d="M143.231 143.002C137.61 143.002 132.786 145.783 130.725 149.745H155.738C153.678 145.783 148.854 143.002 143.231 143.002Z" fill="black"/>
<path d="M248.308 182.616L225.344 199.575L225.345 199.538C225.695 195.944 226.426 191.029 227.943 187.13C230.094 181.598 234.348 174.687 239.178 174.694C242.722 174.688 245.957 178.409 248.278 182.577L248.308 182.616Z" fill="white"/>
<path d="M149.514 268.17L402.251 81.5199L402.321 81.4615C399.316 125.649 394.022 162.537 385.839 196.534C374.657 242.988 358.39 282.171 336.11 316.324C311.746 353.67 280.144 387.009 255.776 410.146C231.408 387.009 199.806 353.67 175.443 316.324C165.653 301.316 157.023 285.338 149.476 268.196L149.514 268.17Z" fill="white"/>
<path d="M237.211 391.842C243.681 398.473 249.936 404.602 255.776 410.146C261.03 405.158 266.622 399.694 272.404 393.817L272.422 393.802V177.412L272.399 177.419L237.211 203.405L237.193 203.422V391.817L237.211 391.842Z" fill="#EE2523"/>
<path d="M304.492 358.625V153.718L304.515 153.699L339.697 127.717L339.722 127.709V310.661L339.704 310.685C338.523 312.58 337.325 314.459 336.109 316.324C326.417 331.179 315.58 345.402 304.508 358.599L304.492 358.625Z" fill="#EE2523"/>
<path d="M169.923 307.559C171.72 310.518 173.56 313.439 175.442 316.324C184.564 330.307 194.7 343.727 205.092 356.261L205.122 356.298V227.105L205.089 227.127L169.916 253.104L169.892 253.127V307.492L169.923 307.559Z" fill="#EE2523"/>
<path d="M371.793 243.86V104.025L371.812 104L402.25 81.5199L402.32 81.4615C399.315 125.649 394.021 162.537 385.839 196.534C381.827 213.2 377.16 228.929 371.798 243.826L371.793 243.86Z" fill="#EE2523"/>
<path d="M180.415 91.9641L193.173 117.466C193.32 117.759 193.171 117.999 192.843 117.999H166.744C166.416 117.999 166.268 117.759 166.415 117.466L179.168 91.9734L179.21 91.8846V86.8925L179.188 86.8671C178.395 86.0544 177.82 83.8743 177.82 82.9956C177.82 81.9047 178.704 81.0209 179.794 81.0209C180.884 81.0209 181.768 81.9047 181.768 82.9956C181.768 83.8768 181.19 86.0654 180.394 86.873L180.378 86.8917V91.9091L180.415 91.9641Z" fill="black"/>
<path d="M176.601 208.83C176.092 209.668 175.825 210.011 175.232 210.011C174.638 210.011 174.372 209.669 173.862 208.83C173.405 208.078 172.78 207.048 171.448 207.048C170.117 207.048 169.492 208.078 169.035 208.83C168.525 209.669 168.259 210.011 167.665 210.011C167.072 210.011 166.805 209.669 166.295 208.83C165.839 208.078 165.214 207.048 163.883 207.048C162.551 207.048 161.926 208.078 161.469 208.829C160.959 209.668 160.693 210.01 160.099 210.01V211.569C161.629 211.569 162.306 210.453 162.801 209.639C163.246 208.905 163.469 208.607 163.883 208.607C164.295 208.607 164.518 208.905 164.963 209.639C165.457 210.453 166.136 211.569 167.665 211.569C169.193 211.569 169.871 210.453 170.366 209.639C170.811 208.905 171.034 208.607 171.446 208.607C171.86 208.607 172.082 208.905 172.528 209.639C173.023 210.453 173.7 211.569 175.23 211.569C176.759 211.569 177.436 210.453 177.931 209.639C178.377 208.905 178.599 208.607 179.013 208.607C179.426 208.607 179.649 208.905 180.094 209.639C180.588 210.453 181.266 211.569 182.795 211.569V210.01C182.201 210.01 181.935 209.668 181.425 208.829C180.969 208.078 180.344 207.048 179.012 207.048C177.683 207.048 177.058 208.078 176.601 208.83Z" fill="black"/>
<path d="M150.094 208.83C149.585 209.668 149.318 210.011 148.724 210.011C148.131 210.011 147.864 209.669 147.355 208.83C146.899 208.078 146.274 207.048 144.942 207.048C143.611 207.048 142.985 208.078 142.528 208.83C142.019 209.669 141.753 210.011 141.159 210.011C140.565 210.011 140.299 209.669 139.789 208.83C139.331 208.078 138.707 207.048 137.375 207.048C136.044 207.048 135.418 208.078 134.962 208.829C134.452 209.668 134.185 210.01 133.592 210.01V211.569C135.122 211.569 135.798 210.453 136.293 209.639C136.739 208.905 136.961 208.607 137.375 208.607C137.787 208.607 138.011 208.905 138.456 209.639C138.951 210.453 139.628 211.569 141.158 211.569C142.687 211.569 143.365 210.453 143.859 209.639C144.305 208.905 144.527 208.607 144.941 208.607C145.354 208.607 145.577 208.905 146.022 209.639C146.516 210.453 147.194 211.569 148.724 211.569C150.253 211.569 150.931 210.453 151.426 209.639C151.87 208.905 152.094 208.607 152.506 208.607C152.92 208.607 153.142 208.905 153.588 209.639C154.083 210.453 154.76 211.569 156.289 211.569V210.01C155.696 210.01 155.429 209.668 154.92 208.829C154.463 208.078 153.838 207.048 152.506 207.048C151.175 207.048 150.55 208.078 150.094 208.83Z" fill="black"/>
<path d="M211.946 201.484C211.436 202.323 211.171 202.664 210.576 202.664C209.983 202.664 209.716 202.323 209.207 201.484C208.75 200.732 208.125 199.703 206.794 199.703C205.462 199.703 204.837 200.732 204.38 201.484C203.871 202.322 203.604 202.664 203.011 202.664C202.417 202.664 202.151 202.323 201.641 201.484C201.184 200.732 200.559 199.704 199.227 199.704C197.896 199.704 197.271 200.733 196.814 201.484C196.304 202.323 196.037 202.664 195.444 202.664V204.223C196.973 204.223 197.651 203.107 198.146 202.293C198.591 201.559 198.815 201.261 199.227 201.261C199.641 201.261 199.864 201.56 200.309 202.293C200.804 203.107 201.481 204.223 203.011 204.223C204.54 204.223 205.217 203.107 205.712 202.293C206.158 201.559 206.38 201.261 206.794 201.261C207.207 201.261 207.43 201.56 207.874 202.293C208.369 203.107 209.046 204.223 210.575 204.223C212.105 204.223 212.783 203.107 213.277 202.293C213.723 201.559 213.946 201.261 214.359 201.261C214.773 201.261 214.994 201.56 215.441 202.293C215.935 203.107 216.613 204.223 218.142 204.223V202.664C217.548 202.664 217.282 202.323 216.772 201.484C216.315 200.732 215.689 199.704 214.358 199.704C213.029 199.704 212.403 200.732 211.946 201.484Z" fill="black"/>
<path d="M176.601 223.521C176.092 224.359 175.825 224.701 175.232 224.701C174.638 224.701 174.372 224.359 173.862 223.521C173.405 222.77 172.78 221.74 171.448 221.74C170.117 221.74 169.492 222.77 169.035 223.521C168.525 224.36 168.259 224.701 167.665 224.701C167.072 224.701 166.805 224.359 166.295 223.521C165.839 222.77 165.214 221.74 163.883 221.74C162.551 221.74 161.926 222.77 161.469 223.521C160.959 224.36 160.693 224.701 160.099 224.701V226.26C161.629 226.26 162.306 225.144 162.801 224.33C163.246 223.597 163.469 223.298 163.883 223.298C164.295 223.298 164.518 223.598 164.963 224.33C165.457 225.144 166.136 226.26 167.665 226.26C169.193 226.26 169.871 225.144 170.366 224.33C170.811 223.597 171.034 223.298 171.446 223.298C171.86 223.298 172.082 223.598 172.528 224.33C173.023 225.144 173.7 226.26 175.23 226.26C176.759 226.26 177.436 225.144 177.931 224.33C178.377 223.597 178.599 223.298 179.013 223.298C179.426 223.298 179.649 223.598 180.094 224.33C180.588 225.144 181.266 226.26 182.795 226.26V224.701C182.201 224.701 181.935 224.36 181.425 223.521C180.969 222.769 180.344 221.74 179.012 221.74C177.683 221.74 177.058 222.77 176.601 223.521Z" fill="black"/>
<path d="M163.347 216.176C162.838 217.014 162.572 217.356 161.978 217.356C161.384 217.356 161.118 217.014 160.609 216.176C160.152 215.424 159.526 214.394 158.195 214.394C156.864 214.394 156.238 215.424 155.782 216.176C155.273 217.015 155.005 217.356 154.413 217.356C153.819 217.356 153.553 217.014 153.043 216.176C152.586 215.424 151.961 214.394 150.629 214.394C149.297 214.394 148.673 215.424 148.215 216.175C147.705 217.014 147.439 217.356 146.845 217.356V218.914C148.375 218.914 149.052 217.799 149.547 216.984C149.992 216.251 150.215 215.952 150.628 215.952C151.042 215.952 151.264 216.251 151.71 216.984C152.205 217.799 152.882 218.914 154.412 218.914C155.941 218.914 156.618 217.799 157.113 216.984C157.559 216.251 157.781 215.952 158.195 215.952C158.608 215.952 158.83 216.251 159.276 216.984C159.771 217.799 160.448 218.914 161.977 218.914C163.506 218.914 164.184 217.799 164.679 216.984C165.124 216.251 165.347 215.952 165.761 215.952C166.174 215.952 166.396 216.251 166.842 216.984C167.336 217.799 168.014 218.914 169.543 218.914V217.356C168.949 217.356 168.683 217.014 168.174 216.175C167.717 215.423 167.091 214.394 165.76 214.394C164.43 214.394 163.804 215.424 163.347 216.176Z" fill="black"/>
<path d="M189.856 216.176C189.346 217.014 189.08 217.356 188.486 217.356C187.892 217.356 187.626 217.014 187.117 216.176C186.66 215.424 186.034 214.394 184.703 214.394C183.371 214.394 182.746 215.424 182.29 216.176C181.781 217.015 181.514 217.356 180.921 217.356C180.327 217.356 180.061 217.014 179.551 216.176C179.094 215.424 178.469 214.394 177.138 214.394C175.807 214.394 175.181 215.424 174.724 216.175C174.215 217.014 173.949 217.356 173.355 217.356V218.914C174.884 218.914 175.561 217.799 176.056 216.984C176.501 216.251 176.724 215.952 177.137 215.952C177.551 215.952 177.773 216.251 178.219 216.984C178.713 217.799 179.391 218.914 180.92 218.914C182.45 218.914 183.127 217.799 183.622 216.984C184.067 216.251 184.29 215.952 184.703 215.952C185.116 215.952 185.338 216.251 185.784 216.984C186.279 217.799 186.956 218.914 188.485 218.914C190.015 218.914 190.693 217.799 191.186 216.984C191.632 216.251 191.854 215.952 192.268 215.952C192.682 215.952 192.904 216.251 193.35 216.984C193.844 217.799 194.522 218.914 196.052 218.914V217.356C195.458 217.356 195.192 217.014 194.682 216.175C194.225 215.423 193.6 214.394 192.268 214.394C190.939 214.394 190.313 215.424 189.856 216.176Z" fill="black"/>
<path d="M163.347 230.867C162.838 231.706 162.572 232.048 161.978 232.048C161.384 232.048 161.118 231.706 160.609 230.868C160.152 230.116 159.526 229.087 158.195 229.087C156.864 229.087 156.238 230.116 155.782 230.868C155.273 231.706 155.005 232.048 154.413 232.048C153.819 232.048 153.553 231.706 153.043 230.867C152.586 230.115 151.961 229.086 150.629 229.086C149.297 229.086 148.673 230.115 148.215 230.867C147.705 231.706 147.439 232.048 146.845 232.048V233.606C148.375 233.606 149.052 232.491 149.547 231.676C149.992 230.943 150.215 230.645 150.628 230.645C151.042 230.645 151.264 230.944 151.71 231.676C152.205 232.491 152.882 233.606 154.412 233.606C155.941 233.606 156.618 232.491 157.113 231.676C157.559 230.943 157.781 230.645 158.195 230.645C158.608 230.645 158.83 230.944 159.276 231.676C159.771 232.491 160.448 233.606 161.977 233.606C163.506 233.606 164.184 232.491 164.679 231.676C165.124 230.943 165.347 230.645 165.761 230.645C166.174 230.645 166.396 230.944 166.842 231.676C167.336 232.491 168.014 233.606 169.543 233.606V232.048C168.949 232.048 168.683 231.706 168.174 230.867C167.717 230.115 167.091 229.086 165.76 229.086C164.43 229.086 163.804 230.115 163.347 230.867Z" fill="black"/>
<path d="M143.646 254.179C144.229 255.665 144.819 257.142 145.417 258.611L145.457 258.573L149.621 255.498L149.545 255.52C149.301 255.598 149.03 255.643 148.725 255.643C147.195 255.643 146.517 254.528 146.023 253.713C145.578 252.98 145.354 252.682 144.942 252.682C144.528 252.682 144.306 252.98 143.86 253.713C143.785 253.838 143.705 253.969 143.618 254.102L143.646 254.179Z" fill="white"/>
<path d="M150.812 254.618L153.068 252.952L153.028 252.914C152.868 252.753 152.71 252.681 152.506 252.681C152.094 252.681 151.87 252.979 151.426 253.712C151.267 253.973 151.09 254.265 150.871 254.541L150.812 254.618Z" fill="white"/>
<path d="M329.51 382.906C328.852 369.911 333.4 363.741 336.745 361.653C340.095 359.564 344.969 359.86 345.63 372.851C346.291 385.841 341.745 392.012 338.396 394.1C335.05 396.19 330.173 395.897 329.51 382.906ZM323.313 386.772C324.42 408.556 334.889 404.76 338.815 402.312C342.74 399.86 352.938 390.768 351.832 368.981C350.722 347.198 340.256 350.994 336.329 353.446C332.401 355.893 322.203 364.99 323.313 386.772Z" fill="black"/>
<path d="M176.417 384.417L184.892 393.603C187.289 396.198 189.684 400.373 189.684 404.514C189.684 409.312 187.821 409.392 184.584 405.882L176.418 397.032V384.417H176.417ZM170.026 398.255L183.519 412.876C190.04 419.945 191.771 420.18 193.59 419.521C195.278 418.918 196.343 416.525 196.343 412.779C196.343 408.113 195.323 402.406 191.418 396.005C192.748 396.464 195.323 397.346 195.323 390.58C195.323 385.715 193.326 376.324 185.515 367.86L170.026 351.076V398.255H170.026ZM176.417 366.15L184.049 374.421C187.066 377.691 188.93 380.893 188.93 384.769C188.93 388.517 186.845 387.766 184.226 384.929L176.416 376.464L176.417 366.15Z" fill="black"/>
<path d="M210.515 443.318L203.557 436.397V389.215L210.515 396.137V443.318Z" fill="black"/>
<path d="M233.088 456.246L248.992 470.935L248.983 479.465L225.881 458.132V410.951L233.088 417.609V456.246Z" fill="black"/>
<path d="M266.166 456.258L274.726 448.743C277.145 446.62 279.566 446.032 279.566 450.069C279.566 454.743 277.683 458.446 274.411 461.318L266.166 468.56V456.258ZM259.71 482.168L273.336 470.205C279.925 464.423 281.67 461.286 283.508 457.112C285.214 453.246 286.288 448.843 286.288 445.192C286.288 440.642 285.257 437.065 281.314 438.412C282.657 436.272 285.257 432.133 285.257 425.533C285.257 420.794 283.241 415.519 275.352 422.443L259.709 436.172V482.168H259.71ZM266.166 438.451L273.873 431.685C276.92 429.009 278.802 428.511 278.802 432.287C278.802 435.939 276.697 439.263 274.052 441.583L266.166 448.51V438.451Z" fill="black"/>
<path d="M308.012 400.503L308.107 400.414L312.427 415.179L303.543 423.192L308.012 400.503ZM301.601 433.09L314.47 421.49L316.703 429.201L323.715 422.882L311.607 386.618L303.932 393.535L291.498 451.921L299.173 445.006L301.601 433.09Z" fill="black"/>
<path d="M77.5305 23.0322C77.4197 23.0322 77.3191 23.0974 77.2726 23.1988L63.7991 53.0076C63.7594 53.0955 63.7678 53.1962 63.8186 53.2773C63.871 53.3577 63.9598 53.4067 64.0562 53.4067H68.7464C68.858 53.4067 68.9587 53.3416 69.0043 53.2401C69.0043 53.2401 73.1964 43.8911 73.341 43.568C73.6928 43.568 85.9299 43.568 86.2859 43.568C86.4288 43.8978 90.4653 53.2359 90.4653 53.2359C90.5101 53.3399 90.6116 53.4067 90.7249 53.4067H95.5732C95.6688 53.4067 95.7584 53.3585 95.81 53.2782C95.8624 53.1978 95.8701 53.0964 95.8312 53.0084L82.559 23.1997C82.5133 23.0974 82.4118 23.0322 82.3002 23.0322H77.5305ZM79.8367 29.3115C80.2782 30.2882 83.7742 38.0195 84.0888 38.7155C83.3311 38.7155 76.3423 38.7155 75.5854 38.7155C75.8992 38.0195 79.3953 30.2882 79.8367 29.3115Z" fill="black"/>
<path d="M97.5885 23.0322C97.432 23.0322 97.3052 23.1583 97.3052 23.3147V27.6006C97.3052 27.7571 97.432 27.8831 97.5885 27.8831C97.5885 27.8831 107.223 27.8831 107.758 27.8831C107.758 28.4362 107.758 53.1226 107.758 53.1226C107.758 53.279 107.885 53.405 108.041 53.405H112.327C112.484 53.405 112.61 53.2782 112.61 53.1226C112.61 53.1226 112.61 28.4362 112.61 27.8831C113.146 27.8831 122.78 27.8831 122.78 27.8831C122.935 27.8831 123.061 27.7562 123.061 27.6006V23.3147C123.061 23.1583 122.935 23.0322 122.78 23.0322H97.5885Z" fill="black"/>
<path d="M151.947 23.0322C151.79 23.0322 151.664 23.1583 151.664 23.3147C151.664 23.3147 151.664 34.5226 151.664 35.063C151.125 35.063 135.282 35.063 134.745 35.063C134.745 34.5234 134.745 23.3147 134.745 23.3147C134.745 23.1583 134.618 23.0322 134.461 23.0322H130.175C130.019 23.0322 129.893 23.1583 129.893 23.3147V53.1226C129.893 53.279 130.019 53.405 130.175 53.405H134.461C134.618 53.405 134.745 53.2782 134.745 53.1226C134.745 53.1226 134.745 40.4559 134.745 39.9138C135.282 39.9138 151.125 39.9138 151.664 39.9138C151.664 40.4559 151.664 53.1226 151.664 53.1226C151.664 53.279 151.79 53.405 151.947 53.405H156.233C156.389 53.405 156.515 53.2782 156.515 53.1226V23.3147C156.515 23.1583 156.388 23.0322 156.233 23.0322H151.947Z" fill="black"/>
<path d="M167.314 23.0322C167.156 23.0322 167.03 23.1583 167.03 23.3147V53.1226C167.03 53.279 167.156 53.405 167.314 53.405H189.683C189.839 53.405 189.965 53.2782 189.965 53.1226V48.8366C189.965 48.6802 189.839 48.5542 189.683 48.5542C189.683 48.5542 172.43 48.5542 171.882 48.5542C171.882 48.0011 171.882 23.3147 171.882 23.3147C171.882 23.1583 171.756 23.0322 171.6 23.0322H167.314Z" fill="black"/>
<path d="M194.558 23.0322C194.402 23.0322 194.275 23.1583 194.275 23.3147V53.1226C194.275 53.279 194.402 53.405 194.558 53.405H219.71C219.866 53.405 219.992 53.2782 219.992 53.1226V48.8366C219.992 48.6802 219.866 48.5542 219.71 48.5542C219.71 48.5542 199.677 48.5542 199.127 48.5542C199.127 48.04 199.127 40.5252 199.127 40.0111C199.662 40.0111 208.98 40.0111 208.98 40.0111C209.136 40.0111 209.262 39.8842 209.262 39.7286V35.4427C209.262 35.2862 209.136 35.1602 208.98 35.1602C208.98 35.1602 199.662 35.1602 199.127 35.1602C199.127 34.6545 199.127 28.3897 199.127 27.8839C199.677 27.8839 218.955 27.8839 218.955 27.8839C219.112 27.8839 219.238 27.7571 219.238 27.6015V23.3156C219.238 23.1591 219.112 23.0331 218.955 23.0331L194.558 23.0322Z" fill="black"/>
<path d="M224.411 23.0322C224.255 23.0322 224.128 23.1583 224.128 23.3147V27.6006C224.128 27.7571 224.255 27.8831 224.411 27.8831C224.411 27.8831 234.046 27.8831 234.581 27.8831C234.581 28.4362 234.581 53.1226 234.581 53.1226C234.581 53.279 234.708 53.405 234.864 53.405H239.149C239.306 53.405 239.432 53.2782 239.432 53.1226C239.432 53.1226 239.432 28.4362 239.432 27.8831C239.967 27.8831 249.602 27.8831 249.602 27.8831C249.759 27.8831 249.885 27.7562 249.885 27.6006V23.3147C249.885 23.1583 249.759 23.0322 249.602 23.0322H224.411Z" fill="black"/>
<path d="M256.462 23.0322C256.305 23.0322 256.18 23.1583 256.18 23.3147V53.1226C256.18 53.279 256.306 53.405 256.462 53.405H260.748C260.905 53.405 261.03 53.2782 261.03 53.1226V23.3147C261.03 23.1583 260.904 23.0322 260.748 23.0322H256.462Z" fill="black"/>
<path d="M277.84 23.6538C275.908 24.4851 274.207 25.6353 272.783 27.0721C271.36 28.5098 270.231 30.2248 269.428 32.1699C268.623 34.115 268.216 36.2309 268.216 38.4567C268.216 40.768 268.665 42.9067 269.551 44.8154C270.436 46.7216 271.633 48.3758 273.111 49.7322C274.587 51.0887 276.308 52.1568 278.226 52.9069C280.145 53.6579 282.153 54.0393 284.191 54.0393C286.345 54.0393 288.229 53.8702 289.794 53.537C291.358 53.2029 292.743 52.7488 293.912 52.1856C295.082 51.6215 296.106 50.9669 296.954 50.2413C297.796 49.52 298.586 48.7639 299.302 47.9944C299.402 47.8861 299.403 47.7187 299.302 47.6096L296.44 44.5101C296.387 44.4526 296.305 44.4298 296.228 44.4289C296.15 44.4281 296.067 44.4687 296.012 44.5245L294.671 45.9038C294.095 46.429 293.357 46.9364 292.481 47.4142C291.601 47.892 290.55 48.3132 289.358 48.6624C288.17 49.0109 286.779 49.1876 285.223 49.1876C283.23 49.1876 281.454 48.8671 279.949 48.2354C278.439 47.6036 277.159 46.7681 276.144 45.7516C275.129 44.7368 274.355 43.5773 273.84 42.3071C273.327 41.0352 273.067 39.7388 273.067 38.4567C273.067 36.652 273.392 35.0342 274.034 33.6464C274.677 32.2578 275.53 31.0781 276.571 30.1402C277.611 29.2015 278.805 28.4776 280.115 27.9888C281.43 27.4992 282.787 27.2505 284.15 27.2505C285.65 27.2505 287.022 27.4332 288.221 27.7952C289.434 28.1605 290.514 28.5884 291.432 29.0662C292.349 29.544 293.129 30.0421 293.749 30.5462L295.224 31.7225C295.33 31.8071 295.478 31.8012 295.58 31.7141L298.801 28.9715C298.863 28.9182 298.901 28.843 298.903 28.7609C298.903 28.6789 298.871 28.6028 298.81 28.5487L297.072 27.0129C296.279 26.327 295.253 25.6353 294.024 24.9545C292.793 24.2737 291.338 23.6707 289.7 23.1659C288.048 22.6568 286.168 22.3988 284.111 22.3988C281.884 22.3988 279.774 22.8208 277.84 23.6538Z" fill="black"/>
<path d="M326.883 23.6538C324.951 24.4851 323.25 25.6353 321.827 27.0721C320.404 28.5098 319.274 30.2248 318.471 32.1699C317.666 34.115 317.259 36.2309 317.259 38.4567C317.259 40.768 317.708 42.9067 318.594 44.8154C319.479 46.7216 320.676 48.3758 322.153 49.7322C323.631 51.0887 325.351 52.1568 327.269 52.9069C329.188 53.6579 331.196 54.0393 333.234 54.0393C335.388 54.0393 337.273 53.8702 338.837 53.537C340.401 53.2029 341.786 52.7488 342.955 52.1856C344.125 51.6215 345.149 50.9669 345.998 50.2413C346.838 49.52 347.629 48.7639 348.344 47.9944C348.446 47.8861 348.446 47.7187 348.346 47.6096L345.483 44.5101C345.431 44.4526 345.349 44.4298 345.271 44.4289C345.193 44.4281 345.11 44.4687 345.056 44.5245L343.714 45.9038C343.137 46.429 342.4 46.9364 341.524 47.4142C340.644 47.892 339.593 48.3132 338.4 48.6624C337.213 49.0109 335.822 49.1876 334.266 49.1876C332.272 49.1876 330.497 48.8671 328.992 48.2354C327.482 47.6036 326.202 46.7681 325.187 45.7516C324.172 44.7368 323.397 43.5773 322.884 42.3071C322.371 41.0352 322.11 39.7388 322.11 38.4567C322.11 36.652 322.435 35.0342 323.077 33.6464C323.721 32.2578 324.574 31.0781 325.613 30.1402C326.654 29.2015 327.848 28.4776 329.159 27.9888C330.472 27.4992 331.83 27.2505 333.194 27.2505C334.695 27.2505 336.065 27.4332 337.265 27.7952C338.478 28.1605 339.559 28.5884 340.475 29.0662C341.394 29.544 342.173 30.0421 342.792 30.5462L344.269 31.7225C344.375 31.8071 344.522 31.8012 344.624 31.7141L347.845 28.9715C347.906 28.9182 347.946 28.843 347.946 28.7609C347.947 28.6789 347.915 28.6028 347.854 28.5487L346.117 27.0129C345.324 26.327 344.298 25.6353 343.069 24.9545C341.837 24.2737 340.381 23.6707 338.743 23.1659C337.092 22.6568 335.212 22.3988 333.155 22.3988C330.927 22.3988 328.817 22.8208 326.883 23.6538Z" fill="black"/>
<path d="M355.938 23.0322C355.78 23.0322 355.655 23.1583 355.655 23.3147V53.1226C355.655 53.279 355.78 53.405 355.938 53.405H378.307C378.464 53.405 378.589 53.2782 378.589 53.1226V48.8366C378.589 48.6802 378.464 48.5542 378.307 48.5542C378.307 48.5542 361.054 48.5542 360.506 48.5542C360.506 48.0011 360.506 23.3147 360.506 23.3147C360.506 23.1583 360.38 23.0322 360.223 23.0322H355.938Z" fill="black"/>
<path d="M405.879 23.0322C405.722 23.0322 405.596 23.1583 405.596 23.3147V41.8775C405.596 42.9312 405.466 43.9215 405.209 44.8213C404.958 45.6983 404.515 46.4662 403.887 47.1055C403.258 47.7466 402.391 48.2574 401.311 48.6261C400.22 48.9982 398.798 49.1868 397.087 49.1868C395.375 49.1868 393.954 48.9982 392.862 48.6261C391.782 48.2574 390.915 47.7466 390.287 47.1055C389.659 46.467 389.216 45.6983 388.965 44.8213C388.709 43.9232 388.579 42.9329 388.579 41.8775V23.3147C388.579 23.1583 388.453 23.0322 388.296 23.0322H384.009C383.853 23.0322 383.728 23.1583 383.728 23.3147V41.8733C383.728 43.2957 383.897 44.7418 384.233 46.171C384.572 47.6265 385.24 48.9559 386.218 50.1229C387.198 51.2925 388.579 52.249 390.323 52.9644C392.06 53.6773 394.335 54.0393 397.089 54.0393C399.842 54.0393 402.117 53.6773 403.854 52.9644C405.598 52.249 406.977 51.2925 407.959 50.1229C408.936 48.9559 409.605 47.6265 409.945 46.171C410.28 44.7385 410.45 43.2923 410.45 41.8733V23.3147C410.45 23.1583 410.324 23.0322 410.167 23.0322H405.879Z" fill="black"/>
<path d="M420.321 23.0323C420.164 23.0323 420.038 23.1583 420.038 23.3147V53.1226C420.038 53.279 420.164 53.405 420.321 53.405H437.327C438.777 53.405 440.155 53.2131 441.421 52.8359C442.695 52.4562 443.815 51.8845 444.754 51.1352C445.697 50.3826 446.446 49.4396 446.978 48.3326C447.511 47.2239 447.781 45.9182 447.781 44.4501C447.781 43.4953 447.642 42.6023 447.369 41.7938C447.097 40.9904 446.746 40.2707 446.324 39.6559C445.901 39.0411 445.437 38.5142 444.945 38.0905C444.561 37.759 444.201 37.5552 443.844 37.3624C444.098 37.0926 444.5 36.6647 444.5 36.6647C444.829 36.296 445.137 35.8579 445.414 35.364C445.689 34.8718 445.92 34.2968 446.099 33.6541C446.278 33.0096 446.369 32.2561 446.369 31.4147C446.369 29.9745 446.105 28.7093 445.583 27.6565C445.065 26.6061 444.377 25.7266 443.542 25.0416C442.709 24.3591 441.739 23.8475 440.661 23.5202C439.59 23.1955 438.473 23.0314 437.338 23.0314H420.321V23.0323ZM437.343 27.884C438.774 27.884 439.841 28.1994 440.514 28.8218C441.19 29.4476 441.518 30.2958 441.518 31.4147C441.518 32.6841 441.169 33.6938 440.48 34.4177C439.797 35.1365 438.741 35.501 437.343 35.501C437.343 35.501 425.43 35.501 424.889 35.501C424.889 34.9928 424.889 28.3922 424.889 27.884C425.43 27.884 437.343 27.884 437.343 27.884ZM437.33 40.3519C438.411 40.3519 439.327 40.4559 440.056 40.6606C440.77 40.8618 441.352 41.1392 441.784 41.486C442.209 41.8259 442.498 42.2335 442.668 42.7316C442.842 43.245 442.931 43.8243 442.931 44.4535C442.931 45.8091 442.499 46.8045 441.609 47.4988C440.71 48.199 439.271 48.555 437.33 48.555C437.33 48.555 425.431 48.555 424.89 48.555C424.89 48.0434 424.89 40.8652 424.89 40.3527C425.43 40.3519 437.33 40.3519 437.33 40.3519Z" fill="black"/>
</g>
<defs>
<clipPath id="clip0_1_2371">
<rect width="453.552" height="512" fill="white" transform="translate(29)"/>
</clipPath>
</defs>
</svg>
