<svg width="846" height="240" viewBox="0 0 846 240" fill="none" xmlns="http://www.w3.org/2000/svg">
<g clip-path="url(#clip0_2003_14)">
<path d="M374.266 148.89V174.886H314.266L302.261 161.339C300.254 159.119 299.155 156.013 299.155 153.117V45.7767H326.037V148.89H374.266ZM578.929 148.89V174.886H518.929L506.925 161.339C504.917 159.119 503.818 156.013 503.818 153.117V45.7767H530.701V148.89H578.929ZM594.04 45.7767H620.923V174.886H594.04V45.7767ZM468.714 82.8883L461.592 54.8855C460.261 49.5597 455.379 45.7767 449.82 45.7767H418.499L408.947 82.8883L388.721 162.226C388.277 164.001 388.045 165.777 388.045 167.552V174.886H412.053L417.168 155.336L457.175 136.231L467.171 174.886H489.616V163.114L468.735 82.8883H468.714ZM423.614 130.229L435.829 82.677L439.612 68.0099L443.396 82.677L455.611 130.229H423.614ZM824.699 82.8883L817.598 54.8855C816.266 49.5597 811.384 45.7767 805.826 45.7767H774.484L764.931 82.8883L744.495 162.226C744.051 164.001 743.818 165.777 743.818 167.552V174.886H767.827L772.941 155.336L812.948 136.231L822.945 174.886H845.389V163.114L824.72 82.8883H824.699ZM779.366 130.229L791.581 82.677L795.365 68.0099L799.148 82.677L811.363 130.229H779.366ZM735.153 128.221V134.667C735.153 157.555 716.703 176.006 693.815 176.006H681.367C676.252 176.006 671.37 175.118 666.932 173.343C651.166 167.573 640.049 152.23 640.049 134.688V87.3477C640.049 85.7837 640.049 84.2409 640.282 82.9095C642.057 67.1222 652.497 54.019 666.953 48.6932C671.391 46.9179 676.294 46.0303 681.388 46.0303H693.836C715.16 46.0303 732.723 62.2614 734.942 82.9095H708.714V79.8027C708.714 74.6883 704.72 70.6939 699.605 70.6939H676.062C670.948 70.6939 666.953 74.6883 666.953 79.8027V141.789C666.953 146.904 670.948 150.898 676.062 150.898H699.605C704.72 150.898 708.714 146.904 708.714 141.789V125.114H686.037V99.5632H717.147L717.591 100.007L728.919 112.223C732.934 116.449 735.153 122.219 735.153 128.221ZM52.9411 115.118H106.495L24.9383 156.456L24.2831 155.336L6.50928 131.772C-1.94441 120.655 -2.15575 105.333 5.83298 93.9838L72.9552 0H134.942L52.9411 115.118ZM122.494 191.56H185.157L89.609 240L89.1651 239.324L68.0521 211.553C59.5984 200.669 59.3871 185.558 67.3758 174.23L188.728 0H256.062L122.515 191.56H122.494Z" fill="#FF4B44"/>
</g>
<defs>
<clipPath id="clip0_2003_14">
<rect width="845.368" height="240" fill="white"/>
</clipPath>
</defs>
</svg>
