<svg width="512" height="512" viewBox="0 0 512 512" fill="none" xmlns="http://www.w3.org/2000/svg">
<g clip-path="url(#clip0_2004_3)">
<g clip-path="url(#clip1_2004_3)">
<path d="M390.236 255.573V248.653L397.074 247.334V254.173L390.236 255.573ZM128.983 307.478V265.542L136.151 264.142V299.816L147.521 297.509V303.771L128.983 307.478ZM151.97 302.946V261.011L171.249 257.139V263.4L159.137 265.789V276.665L168.447 274.771V281.032L159.137 282.926V295.202L172.072 292.648V298.91L151.97 302.946ZM192.422 252.937L199.508 251.536L190.774 295.202L183.524 296.685L174.791 256.48L181.877 254.997L187.067 283.091L192.422 252.937ZM210.053 275.841L215.82 274.687L213.019 257.221L210.053 275.841ZM207.746 291.824L200.744 293.225L208.488 249.724L217.386 247.912L225.13 288.364L218.21 289.765L216.891 280.702L208.982 282.267L207.746 291.824ZM229.332 287.54V245.604L236.005 244.286L244.821 266.531L244.905 242.474L251.414 241.238V283.173L245.153 284.409L235.925 260.022L235.841 286.222L229.332 287.54ZM262.534 245.275L255.614 246.675V240.331L276.705 236.13V242.474L269.785 243.792V279.466L262.534 280.949V245.275ZM280.989 277.241V235.306L300.268 231.434V237.778L288.157 240.167V250.96L297.467 249.148V255.409L288.157 257.221V269.579L301.092 267.026V273.287L280.989 277.241ZM319.712 227.644L326.88 226.161V257.798C326.88 260.929 328.198 262.165 330.752 261.67C333.306 261.177 334.542 259.363 334.542 256.315V224.678L341.792 223.195V254.585C341.792 258.21 340.803 261.176 338.826 263.483C336.85 265.79 334.212 267.273 330.752 267.932C327.292 268.675 324.573 268.179 322.595 266.696C320.619 265.214 319.712 262.659 319.712 259.034V227.644ZM348.3 263.895V257.056L355.139 255.656V262.494L348.3 263.895ZM368.815 253.843L371.369 253.35L375.324 251.289C376.148 250.3 376.477 248.653 376.477 246.511V228.138C376.477 225.914 376.148 224.431 375.324 223.772L371.369 223.278L368.815 223.772V253.843ZM361.647 219.323L372.275 217.098C376.065 216.356 378.949 216.851 380.844 218.499C382.738 220.228 383.727 223.195 383.727 227.561V244.121C383.727 248.488 382.738 251.866 380.844 254.337C378.95 256.727 376.065 258.374 372.275 259.116L361.647 261.176V219.323Z" fill="black"/>
<path d="M209.065 23.6511C209.065 0.500017 209.149 0.5 232.298 0.5C240.867 0.5 248.446 5.1962 252.401 12.1991H258.662C262.7 5.1962 270.197 0.5 278.847 0.5C301.999 0.5 302.081 0.500017 302.081 23.6511C302.081 35.8445 292.689 45.8135 280.743 46.802C279.424 50.5095 278.682 54.4641 278.682 58.6659C278.682 77.8624 294.253 93.4337 313.45 93.4337C332.728 93.4337 348.3 77.8624 348.3 58.6659C348.3 45.5663 341.05 34.1143 330.339 28.1824L338.496 11.7048C459.277 45.3191 508.874 173.103 422.943 328.816C427.392 334.666 430.029 341.916 430.029 349.825C430.029 369.022 414.375 384.593 395.179 384.593C392.624 384.593 390.071 384.346 387.681 383.768C362.471 418.207 330.751 453.551 291.864 489.225C258.002 520.286 253.059 520.203 219.362 489.309C180.475 453.635 148.674 418.209 123.463 383.77C121.073 384.346 118.52 384.595 115.966 384.595C96.7691 384.595 81.1978 369.024 81.1978 349.827C81.1978 341.918 83.7517 334.668 88.2007 328.818C2.18751 173.105 51.7852 45.3209 172.649 11.7066L180.723 28.1842C170.012 34.1162 162.844 45.5682 162.844 58.6678C162.844 77.8643 178.416 93.4355 197.612 93.4355C216.809 93.4355 232.38 77.8643 232.38 58.6678C232.38 54.466 231.637 50.5113 230.319 46.8039C218.455 45.8147 209.063 35.8463 209.063 23.653M267.888 415.161C273.326 413.431 278.022 410.959 281.482 408.487C277.363 411.453 272.832 413.76 267.888 415.161Z" fill="black"/>
<path d="M390.236 255.573L397.074 254.173V247.335L390.236 248.653V255.573ZM128.984 307.478L147.521 303.77V297.509L136.152 299.816V264.142L128.984 265.542V307.478ZM151.97 302.946L172.073 298.91V292.648L159.138 295.202V282.926L168.448 281.032V274.771L159.138 276.665V265.789L171.249 263.4V257.139L151.97 261.011V302.946ZM192.423 252.937L187.067 283.091L181.877 254.997L174.791 256.479L183.525 296.685L190.775 295.202L199.508 251.536L192.423 252.937ZM207.747 291.824L208.983 282.267L216.892 280.702L218.21 289.765L225.131 288.364L217.386 247.912L208.488 249.723L200.744 293.224L207.747 291.824ZM229.332 287.54L235.841 286.222L235.925 260.022L245.153 284.409L251.414 283.173V241.238L244.906 242.474L244.821 266.531L236.006 244.286L229.332 245.604L229.332 287.54ZM262.535 245.275V280.949L269.785 279.466V243.792L276.705 242.474V236.13L255.614 240.332V246.676L262.535 245.275ZM280.99 277.241L301.092 273.287V267.025L288.157 269.579V257.221L297.467 255.409V249.148L288.157 250.959V240.167L300.269 237.777V231.433L280.99 235.306V277.241ZM319.712 227.644V259.034C319.712 262.659 320.619 265.213 322.596 266.696C324.572 268.178 327.292 268.672 330.752 267.932C334.212 267.274 336.849 265.789 338.826 263.483C340.802 261.176 341.792 258.21 341.792 254.585V223.195L334.542 224.678V256.315C334.542 259.363 333.306 261.175 330.752 261.67C328.198 262.163 326.88 260.927 326.88 257.797V226.16L319.712 227.644ZM348.301 263.895L355.139 262.494V255.656L348.301 257.057V263.895ZM361.647 219.323V261.176L372.276 259.115C376.065 258.373 378.949 256.726 380.844 254.337C382.738 251.865 383.728 248.487 383.728 244.12V227.56C383.728 223.194 382.738 220.228 380.844 218.498C378.95 216.851 376.065 216.356 372.276 217.097L361.647 219.323ZM419.401 201.939C420.884 218.911 419.73 237.366 415.529 256.974L116.296 316.458C107.975 298.992 101.878 282.102 97.7585 265.954L419.401 201.939ZM210.053 275.841L213.02 257.221L215.821 274.687L210.053 275.841ZM368.815 253.843V223.772L371.369 223.278L375.324 223.772C376.149 224.43 376.478 225.914 376.478 228.138V246.511C376.478 248.653 376.149 250.301 375.324 251.289L371.369 253.35L368.815 253.843Z" fill="white"/>
<path d="M357.775 378.167C340.309 402.142 318.805 426.776 293.018 451.822V404.613C300.268 396.045 304.635 385.005 304.635 372.811C304.635 360.7 300.268 349.578 293.018 341.01V286.469L357.775 273.534V378.167ZM293.018 162.722C295.819 163.711 298.95 164.287 302.163 164.287C305.211 164.287 308.095 163.629 311.061 162.887C314.686 171.29 322.101 177.634 331.246 179.611L357.775 184.884V209.106L293.018 222.041V162.722ZM218.21 451.739C192.257 426.693 170.836 402.059 153.37 378.084V314.234L218.21 301.381V341.174C210.959 349.743 206.593 360.783 206.593 372.811C206.593 384.923 210.959 395.963 218.21 404.531V451.739ZM153.37 185.049C168.694 182.001 179.981 179.612 179.981 179.612C189.127 177.635 196.542 171.29 200.167 162.887C203.133 163.629 206.016 164.287 209.065 164.287C212.278 164.287 215.326 163.711 218.21 162.805V236.871L153.37 249.724V185.049Z" fill="#B3023D"/>
<path fill-rule="evenodd" clip-rule="evenodd" d="M294.995 392.667C294.584 384.84 286.756 379.897 276.705 382.698C276.621 373.718 266.489 369.022 256.19 371.081C247.21 361.03 250.259 348.754 266.983 351.308C276.705 352.873 291.37 360.289 299.609 375.366C299.198 381.545 297.633 387.394 294.995 392.667ZM218.951 397.198C225.872 400.576 233.863 396.292 236.417 386.323C244.327 390.772 253.472 384.347 256.85 374.377C270.032 371.658 279.177 380.391 268.549 393.573C262.37 401.235 248.776 410.133 231.721 409.804C226.613 406.508 222.247 402.224 218.951 397.198ZM229.991 336.973C223.482 351.226 224.553 366.056 228.015 375.036C229.58 379.073 231.475 382.039 233.535 384.099C230.981 397.446 218.046 399.753 213.02 384.099C212.113 380.474 211.62 376.766 211.62 372.812C211.62 358.064 218.869 344.964 229.991 336.973ZM253.061 328.899C246.47 333.101 246.058 342.328 253.472 349.661C245.728 354.274 246.716 365.397 253.641 373.306C249.439 386.076 237.246 389.619 231.149 373.8C227.607 364.654 226.7 348.259 235.681 333.594C240.954 330.875 246.803 329.228 253.065 328.898M299.449 368.856C290.469 356.004 276.957 349.495 267.482 348.012C263.198 347.354 259.656 347.518 256.854 348.259C246.309 339.196 251.252 326.426 268.306 330.793C273.579 332.193 282.065 336.56 288.986 344.139C294.835 350.895 298.625 359.464 299.449 368.856ZM267.894 415.158C264.022 416.312 259.903 416.887 255.619 416.887C249.11 416.887 242.931 415.487 237.411 412.933C252.9 411.45 265.176 403.129 271.19 395.714C273.909 392.336 275.474 389.205 276.216 386.321C289.398 381.708 298.048 392.418 285.69 405.024L285.114 405.517L281.489 408.483C277.452 411.449 272.839 413.756 267.895 415.157M281.489 408.483C277.452 411.449 272.839 413.756 267.895 415.157C273.333 413.426 278.029 410.955 281.489 408.483Z" fill="#DCA33A"/>
<path d="M223.153 336.067V300.31L287.993 287.458V335.984C279.342 328.404 267.973 323.791 255.614 323.791C243.174 323.791 231.804 328.404 223.153 336.067ZM148.345 370.999C136.481 353.945 126.595 337.302 118.521 321.154L148.345 315.222V370.999ZM287.993 456.6C285.027 459.401 282.061 462.203 279.012 465.004C276.541 467.228 259.981 484.118 256.026 484.283C251.742 484.367 234.688 467.228 232.216 465.004C229.168 462.203 226.119 459.319 223.153 456.518V409.639C231.804 417.219 243.174 421.915 255.614 421.915C267.973 421.915 279.342 417.301 287.993 409.721V456.6ZM414.376 262.329C406.467 295.779 389.824 332.524 362.801 371.164V272.545L414.376 262.329ZM96.5229 261.093C90.3438 234.235 89.6847 209.518 93.804 187.603C97.6764 166.924 108.387 156.79 115.967 156.79C119.674 156.79 122.64 159.756 122.64 163.463C122.64 167.088 119.756 170.054 115.802 170.054H110.776L111.023 191.805C110.938 191.889 118.355 191.72 126.1 190.322C133.762 188.922 141.342 187.438 148.345 186.038V250.795L96.5229 261.093ZM362.801 185.873L385.046 190.322C390.731 191.393 395.756 191.887 400.205 191.805L400.452 170.054H395.426C391.472 170.054 388.588 167.088 388.588 163.463C388.588 159.756 391.554 156.79 395.179 156.79C402.841 156.79 413.552 166.923 417.424 187.603C418 190.651 418.413 193.782 418.824 196.995L362.8 208.117L362.801 185.873ZM223.153 160.497C225.79 159.015 228.097 157.119 230.074 154.977C236.995 160.745 245.892 164.122 255.614 164.205C265.336 164.205 274.234 160.745 281.155 154.977C283.131 157.119 285.439 159.014 287.993 160.497V222.947L223.153 235.883V160.497Z" fill="#005CA3"/>
<path d="M352.173 30.4069C417.259 55.5351 456.723 113.866 452.192 192.299C451.203 137.758 426.075 94.7519 384.634 69.5412L381.75 67.8117C376.313 94.5878 354.315 115.35 325.974 115.35C309.166 115.35 294.501 108.347 284.532 97.389C292.524 103.321 302.493 106.864 313.203 106.864C339.815 106.864 361.4 85.2779 361.4 58.6665C361.4 48.1209 357.94 38.3161 352.173 30.4069ZM158.561 30.4075C152.794 38.3167 149.416 48.1209 149.416 58.6665C149.416 85.2779 171.002 106.864 197.613 106.864C208.323 106.864 218.292 103.321 226.284 97.389C216.315 108.347 201.65 115.35 184.843 115.35C156.501 115.35 134.504 94.5878 129.066 67.8117L126.182 69.5412C84.7413 94.7519 59.5304 137.758 58.5419 192.299C54.0929 113.866 93.5569 55.5357 158.561 30.4075Z" fill="#B0B0B0"/>
<path d="M255.614 159.179C245.151 159.179 235.841 154.566 229.415 147.315C225.46 154.401 217.88 159.262 209.065 159.262L203.38 158.519C203.874 156.377 204.12 154.07 204.12 151.681L203.627 146.243L209.147 147.644C215.573 147.644 220.764 142.453 220.764 136.027V128.2H232.71C234.606 139.158 244.162 147.479 255.614 147.479C267.148 147.479 276.623 139.158 278.518 128.2H290.464V136.027C290.464 142.453 295.654 147.644 302.08 147.644L307.518 146.243L307.107 151.681C307.107 154.07 307.354 156.377 307.847 158.519L302.162 159.262C293.429 159.262 285.767 154.401 281.813 147.315C275.469 154.566 266.077 159.179 255.614 159.179ZM127.665 163.463C127.665 157.037 122.474 151.764 115.966 151.764C104.349 151.764 92.8144 165.605 88.8598 186.697C75.1834 259.857 112.505 362.018 228.837 468.711C259.403 496.723 253.142 495.487 282.389 468.711C398.721 362.018 436.043 259.857 422.367 186.697C418.412 165.605 406.795 151.764 395.179 151.764C388.752 151.764 383.562 157.037 383.562 163.463C383.562 169.89 388.752 175.08 395.426 175.08L395.257 186.779C382.405 186.779 371.941 176.316 371.941 163.463C371.941 150.611 382.405 140.148 395.339 140.148C418.491 140.232 428.542 163.628 432.661 186.697C446.255 264.306 405.391 369.434 289.141 476.044C253.302 508.999 257.916 508.999 222.078 476.044C105.828 369.434 64.9635 264.306 78.5575 186.697C82.5944 163.628 92.7281 140.23 115.879 140.148C128.814 140.148 139.277 150.611 139.277 163.463C139.277 176.316 128.814 186.779 115.962 186.779L115.793 175.08C122.466 175.08 127.657 169.89 127.657 163.463M171.487 128.449L173.959 128.202C186.894 128.202 197.44 138.748 197.44 151.682C197.44 162.969 189.53 172.362 178.985 174.669L178.16 174.837L139.026 182.582C143.31 177.392 145.946 170.718 145.946 163.468C145.946 151.851 139.355 141.8 129.716 136.774L171.487 128.449ZM339.641 128.449L381.494 136.77C371.855 141.795 365.264 151.847 365.264 163.463C365.264 170.714 367.9 177.387 372.184 182.577L333.05 174.833L332.225 174.664C321.68 172.357 313.771 162.965 313.771 151.678C313.771 138.743 324.234 128.197 337.251 128.197L339.641 128.449Z" fill="#FAC200"/>
</g>
</g>
<defs>
<clipPath id="clip0_2004_3">
<rect width="512" height="512" fill="white"/>
</clipPath>
<clipPath id="clip1_2004_3">
<rect width="421.172" height="512" fill="white" transform="translate(44.958 0.5)"/>
</clipPath>
</defs>
</svg>
