<svg width="512" height="512" viewBox="0 0 512 512" fill="none" xmlns="http://www.w3.org/2000/svg">
<g clip-path="url(#clip0_2_61)">
<path d="M255.947 0C342.027 0 411.893 114.667 411.893 256C411.893 397.333 342.133 512 255.947 512C169.867 512 100 397.333 100 256C100 114.667 169.867 0 255.947 0Z" fill="white"/>
<path d="M144.48 401.173C170.293 457.707 210.613 494.187 255.947 494.187C333.493 494.187 396.747 387.093 396.747 255.893C396.747 204.16 386.933 156.267 370.293 117.12L367.627 111.147C341.813 54.4 301.387 17.7067 255.947 17.7067C178.4 17.7067 115.147 124.8 115.147 256C115.147 307.947 125.067 356.053 141.813 395.2L144.48 401.173Z" fill="white"/>
<path d="M255.947 17.7067C301.387 17.7067 341.813 54.4 367.627 111.253L141.813 395.2C125.067 355.947 115.147 307.84 115.147 256C115.147 124.8 178.4 17.7067 255.947 17.7067Z" fill="#0A67B1"/>
<path d="M370.293 117.227C386.933 156.373 396.747 204.267 396.747 256C396.747 387.2 333.493 494.293 255.947 494.293C210.613 494.293 170.293 457.813 144.48 401.28L370.293 117.227Z" fill="#1D1E1C"/>
<path d="M381.813 261.333C381.92 261.653 380.96 263.147 380.427 263.893C367.2 280.747 344.8 286.933 320.907 282.88C294.773 278.4 273.013 260.267 242.933 254.4C241.013 253.547 244.427 252.587 244.853 252.373C247.947 251.413 254.88 252.16 258.933 252.907C282.187 257.173 303.947 269.76 326.88 272.533C348.64 275.2 364.213 268.267 380.32 261.333C381.28 260.907 381.813 261.013 381.813 261.333Z" fill="#1D1E1C"/>
<path d="M379.147 237.653C379.253 237.76 379.147 238.187 378.827 238.613C362.08 270.507 312.907 259.093 276.107 242.987C271.947 241.173 268 238.933 263.733 237.44C254.24 234.347 245.067 234.133 236.96 232.32C236.533 232.213 235.467 232.107 235.467 231.787C235.467 231.467 237.173 230.827 238.987 229.973C249.013 225.067 262.987 227.52 276.96 231.893C291.573 236.373 306.08 243.84 320.267 247.467C344.48 253.547 362.293 246.507 378.72 237.76C378.933 237.547 379.147 237.547 379.147 237.653Z" fill="#1D1E1C"/>
<path d="M374.347 216.533C374.667 216.853 374.347 217.387 374.347 217.387C364.533 232.32 343.413 238.293 322.4 234.56C314.613 233.173 306.507 229.76 298.293 226.667C276.427 218.347 250.613 207.147 227.573 210.773C226.613 210.133 228.747 208.533 229.173 208.213C236.427 202.24 249.653 199.467 261.813 201.493C284.747 205.333 306.933 221.76 329.653 225.493C347.573 228.48 359.627 221.547 373.173 216.533C373.067 216.64 374.24 216.32 374.347 216.533Z" fill="#1D1E1C"/>
<path d="M367.413 198.72C367.52 199.04 366.88 199.787 366.88 199.787C355.147 211.52 337.973 216.107 318.347 211.413C299.147 206.827 283.147 193.493 263.52 188.587C249.013 184.96 236 185.707 222.24 186.773C223.627 182.827 228.427 179.307 232.373 177.493C251.893 168.533 275.893 179.2 296.267 189.227C305.653 193.92 315.467 199.36 324.64 201.6C341.173 205.653 353.227 200.853 366.773 198.187C366.773 198.293 367.307 198.4 367.413 198.72ZM371.36 305.6C358.773 327.573 316.96 331.2 290.08 312.64C285.173 309.227 280.373 305.493 277.707 300.8C277.6 300.587 277.493 300.373 277.6 300.267C277.6 300.267 277.92 300.373 278.24 300.373C290.4 304.533 301.173 310.827 313.867 314.027C336.373 319.573 355.68 313.6 370.187 304.747C370.187 304.747 371.04 304.32 371.36 304.533C371.68 304.853 371.36 305.6 371.36 305.6Z" fill="#1D1E1C"/>
<path d="M379.147 283.413C357.92 316.8 289.653 305.173 258.933 277.44C258.933 277.44 257.76 276.48 257.867 276.267C257.973 276.053 259.573 276.693 259.573 276.693C281.013 284.16 304.907 290.987 325.813 293.013C347.253 295.04 364.747 290.347 378.613 281.92C378.613 281.92 379.253 281.493 379.467 281.707C379.68 281.813 379.467 282.453 379.147 283.413Z" fill="#1D1E1C"/>
<path d="M380.427 263.893C367.2 280.747 344.8 286.933 320.907 282.88C294.773 278.4 273.013 260.267 242.933 254.4C242.08 254.08 242.293 253.653 242.72 253.333C243.253 252.8 244.533 252.587 244.853 252.48C247.947 251.52 254.88 252.267 258.933 253.013C282.187 257.28 303.947 269.867 326.88 272.64C348.64 275.307 364.213 268.373 380.32 261.44C381.28 261.013 381.813 261.12 381.813 261.44C381.92 261.653 380.96 263.147 380.427 263.893ZM379.147 283.413C357.92 316.8 289.653 305.173 258.933 277.44C258.933 277.44 257.76 276.48 257.867 276.267C257.973 276.053 259.573 276.693 259.573 276.693C281.013 284.16 304.907 290.987 325.813 293.013C347.253 295.04 364.747 290.347 378.613 281.92C378.613 281.92 379.253 281.493 379.467 281.707C379.68 281.813 379.467 282.453 379.147 283.413ZM371.36 305.6C358.773 327.573 316.96 331.2 290.08 312.64L289.12 312C289.013 311.893 288.907 311.893 288.8 311.787C288.587 311.68 288.373 311.467 288.16 311.36C288.053 311.253 287.947 311.147 287.84 311.147C287.627 311.04 287.413 310.827 287.307 310.72C287.2 310.613 287.093 310.507 286.88 310.4C286.667 310.293 286.56 310.187 286.347 309.973C286.24 309.867 286.133 309.76 285.92 309.653C285.707 309.547 285.6 309.44 285.387 309.227C285.28 309.12 285.173 309.013 284.96 308.907C284.747 308.8 284.64 308.693 284.427 308.48C284.32 308.373 284.213 308.267 284 308.16C283.893 308.053 283.68 307.947 283.573 307.733C283.467 307.627 283.36 307.52 283.147 307.413L282.72 306.987L282.4 306.667L281.973 306.24L281.653 305.92L281.227 305.493L280.907 305.173C280.8 305.067 280.693 304.853 280.48 304.747C280.373 304.64 280.267 304.533 280.16 304.32C280.053 304.213 279.947 304 279.84 303.893C279.733 303.787 279.627 303.68 279.52 303.467C279.413 303.36 279.307 303.147 279.2 303.04C279.093 302.933 278.987 302.827 278.88 302.613C278.773 302.507 278.667 302.293 278.56 302.187C278.453 302.08 278.347 301.867 278.24 301.76C278.133 301.653 278.027 301.44 277.92 301.333C277.813 301.227 277.707 301.013 277.707 300.907C277.707 300.8 277.6 300.8 277.6 300.693C277.6 300.587 277.493 300.587 277.493 300.48C277.387 300.373 277.387 300.16 277.28 300.053C277.387 300.053 277.493 300.16 277.6 300.16C277.707 300.16 277.92 300.267 278.027 300.267C278.347 300.373 278.56 300.48 278.88 300.587C279.2 300.693 279.52 300.8 279.947 300.907C280.373 301.013 280.8 301.227 281.227 301.333C281.547 301.44 281.867 301.547 282.187 301.76C282.613 301.973 283.04 302.08 283.467 302.293C283.787 302.4 284.107 302.507 284.427 302.72C284.853 302.933 285.28 303.04 285.707 303.253C286.027 303.36 286.347 303.467 286.667 303.68C287.093 303.893 287.52 304 287.947 304.213C288.267 304.32 288.587 304.427 288.907 304.64C289.333 304.853 289.76 305.067 290.293 305.173C290.613 305.28 290.933 305.387 291.147 305.6C291.787 305.92 292.427 306.133 293.173 306.453C293.493 306.56 293.813 306.773 294.133 306.88C294.56 307.093 294.987 307.307 295.413 307.413C295.733 307.52 296.16 307.733 296.48 307.84C296.907 308.053 297.227 308.16 297.653 308.373C298.08 308.48 298.4 308.693 298.827 308.8C299.147 308.907 299.573 309.12 299.893 309.227C300.32 309.333 300.64 309.547 301.067 309.653C301.387 309.76 301.813 309.973 302.133 310.08C302.56 310.187 302.88 310.4 303.307 310.507C303.627 310.613 304.053 310.827 304.373 310.933C304.8 311.04 305.227 311.253 305.653 311.36C305.973 311.467 306.293 311.573 306.72 311.68C307.147 311.787 307.573 312 308 312.107L308.96 312.427C309.493 312.533 309.92 312.747 310.453 312.853C310.773 312.96 310.987 313.067 311.307 313.067C312.053 313.28 312.907 313.493 313.653 313.707C336.16 319.253 355.467 313.28 369.973 304.427C369.973 304.427 370.827 304 371.147 304.213C371.68 304.853 371.36 305.6 371.36 305.6ZM255.093 380.373H254.453C253.28 380.373 252.107 380.267 250.933 380.267C234.187 379.413 218.08 375.36 203.147 368.107C188.64 361.067 175.84 351.467 165.067 339.52C154.293 327.573 145.973 313.813 140.427 298.773C134.773 283.2 132.32 266.773 133.173 250.027C134.027 233.28 138.08 217.173 145.333 202.24C152.373 187.733 161.973 174.933 173.92 164.16C185.867 153.387 199.627 145.067 214.667 139.52C230.24 133.867 246.667 131.413 263.413 132.16C280.16 133.013 296.267 137.067 311.2 144.32C325.707 151.36 338.507 160.96 349.28 172.907C352.8 176.747 356 180.8 358.987 185.067C351.093 188.267 343.84 191.573 334.987 190.613C322.933 189.333 309.28 183.36 296.48 177.173C268.427 163.627 237.387 152 216.8 171.307C214.987 173.013 212.213 176.32 210.933 179.2C209.867 181.547 209.867 184.64 208.373 187.413C205.707 192.64 199.52 196.267 195.573 201.493C193.44 204.267 191.627 206.72 190.027 209.92C187.787 214.4 185.973 221.12 183.307 225.493C180.747 229.44 175.947 234.133 171.893 237.973C168.693 240.96 161.44 245.653 160.48 250.453C159.307 256 166.453 258.027 166.347 262.72C166.24 266.24 162.187 269.013 161.653 271.893C161.013 275.307 162.507 275.84 164.213 279.36C163.68 281.387 161.333 280.32 161.333 283.093C161.867 286.4 164.32 287.68 164 292.16C163.68 297.067 160.48 301.227 160.8 305.173C161.76 315.52 186.4 316.8 198.667 320.853C215.52 326.4 224.587 339.093 233.12 350.507C235.36 353.493 238.667 357.547 241.227 361.387C242.507 363.307 246.773 370.773 250.4 376C286.987 375.253 318.24 363.627 346.827 334.187H353.333C324.533 365.547 292.213 378.88 255.093 380.373ZM367.413 198.72C367.52 199.04 366.88 199.787 366.88 199.787C355.147 211.52 337.973 216.107 318.347 211.413C299.147 206.827 283.147 193.493 263.52 188.587C249.013 184.96 236 185.707 222.24 186.773C223.627 182.827 228.427 179.307 232.373 177.493C251.893 168.533 275.893 179.2 296.267 189.333C305.653 194.027 315.467 199.467 324.64 201.707C341.173 205.76 353.227 200.96 366.773 198.293C366.773 198.293 367.307 198.4 367.413 198.72ZM374.347 216.533C374.667 216.853 374.347 217.387 374.347 217.387C364.533 232.32 343.413 238.293 322.4 234.56C314.613 233.173 306.507 229.76 298.293 226.667C276.427 218.347 250.613 207.147 227.573 210.773C226.613 210.133 228.747 208.533 229.173 208.213C236.427 202.24 249.653 199.467 261.813 201.493C284.747 205.333 306.933 221.76 329.653 225.493C347.573 228.48 359.627 221.547 373.173 216.533C373.067 216.64 374.24 216.32 374.347 216.533ZM379.147 237.653C379.253 237.76 379.147 238.187 378.827 238.613C362.08 270.507 312.907 259.093 276.107 242.987C271.947 241.173 268 238.827 263.733 237.44C263.093 237.227 262.56 237.013 261.92 236.907C261.707 236.8 261.493 236.8 261.28 236.693C260.853 236.587 260.533 236.48 260.107 236.373C259.893 236.267 259.573 236.267 259.36 236.16C259.04 236.053 258.613 235.947 258.293 235.947C258.08 235.84 257.76 235.84 257.547 235.733C257.227 235.627 256.907 235.627 256.587 235.52C256.267 235.413 256.053 235.413 255.733 235.307C255.413 235.2 255.093 235.2 254.773 235.093C254.453 235.093 254.24 234.987 253.92 234.987C253.6 234.88 253.28 234.88 252.96 234.773C252.64 234.773 252.427 234.667 252.107 234.667C251.787 234.667 251.467 234.56 251.253 234.56C250.933 234.56 250.72 234.453 250.4 234.453C250.08 234.453 249.867 234.347 249.547 234.347C249.227 234.347 248.907 234.24 248.587 234.24C248.267 234.24 248.053 234.133 247.733 234.133C247.2 234.027 246.667 234.027 246.133 233.92C245.92 233.92 245.707 233.813 245.6 233.813C245.173 233.707 244.853 233.707 244.427 233.6C244.213 233.6 244 233.493 243.787 233.493C243.467 233.493 243.04 233.387 242.72 233.387C242.507 233.387 242.293 233.28 242.08 233.28C241.76 233.28 241.44 233.173 241.12 233.067C240.907 233.067 240.693 232.96 240.48 232.96C240.16 232.853 239.84 232.853 239.52 232.747C239.307 232.747 239.093 232.64 238.88 232.64C238.56 232.533 238.24 232.533 237.813 232.427C237.6 232.427 237.387 232.32 237.28 232.32H237.067C236.747 232.213 236.213 232.213 235.893 232H235.787C235.68 232 235.68 231.893 235.68 231.787C235.68 231.467 237.387 230.827 239.2 229.973C239.307 229.867 239.52 229.867 239.627 229.76C239.733 229.76 239.84 229.653 239.947 229.653C248.16 226.027 258.72 226.987 269.813 229.76H270.027C270.453 229.867 270.773 229.973 271.2 230.08C271.307 230.08 271.413 230.187 271.52 230.187C271.84 230.293 272.267 230.4 272.587 230.507C272.693 230.507 272.8 230.613 273.013 230.613L273.973 230.933C274.08 230.933 274.293 231.04 274.4 231.04C274.72 231.147 275.04 231.253 275.467 231.36C275.573 231.36 275.68 231.467 275.893 231.467C276.32 231.573 276.853 231.787 277.28 231.893C291.893 236.373 306.4 243.84 320.587 247.467C344.8 253.547 362.613 246.507 379.04 237.76C378.933 237.547 379.147 237.547 379.147 237.653ZM262.88 118.187C187.36 114.347 123.147 173.013 119.307 249.067C115.467 325.12 173.493 389.973 249.013 393.813C324.533 397.653 388.747 338.987 392.587 262.933C396.427 186.88 338.4 122.027 262.88 118.187ZM174.24 120.853L181.28 126.613L184.907 124.16L160.053 104.853L156.32 107.413L163.04 138.773L166.453 136.533L164.32 127.467L174.24 120.853ZM163.573 123.733L160.48 109.973H160.587L171.253 118.613L163.573 123.733Z" fill="white"/>
<path d="M174.24 120.853L181.28 126.613L184.907 124.16L160.053 104.853L156.32 107.413L163.04 138.773L166.453 136.533L164.32 127.467L174.24 120.853ZM163.573 123.733L160.48 109.973H160.587L171.253 118.613L163.573 123.733ZM169.12 97.7067L190.667 87.4667L192.053 90.7733L183.093 95.04L193.973 119.04L190.347 120.747L179.573 96.7467L170.613 101.013L169.12 97.7067Z" fill="white"/>
<path d="M169.12 97.7066L190.667 87.4666L192.053 90.7733L183.093 95.04L193.973 119.04L190.347 120.747L179.573 96.7466L170.613 101.013L169.12 97.7066ZM217.227 101.227L222.347 108.8L226.507 107.627L208.373 81.6L204.107 82.88L201.44 114.88L205.387 113.707L206.027 104.427L217.227 101.227ZM206.133 100.693L207.2 86.6133H207.307L214.987 98.1333L206.133 100.693Z" fill="white"/>
<path d="M217.227 101.227L222.347 108.8L226.507 107.627L208.373 81.6L204.107 82.88L201.44 114.88L205.387 113.707L206.027 104.427L217.227 101.227ZM206.133 100.693L207.2 86.6133H207.307L214.987 98.1333L206.133 100.693ZM233.867 102.187L248.587 100.373L249.013 103.893L230.347 106.24L226.827 76.3733L230.773 75.84L233.867 102.187Z" fill="white"/>
<path d="M233.867 102.187L248.587 100.373L249.013 103.893L230.347 106.24L226.827 76.3733L230.773 75.84L233.867 102.187ZM271.947 96.64L274.08 105.6L278.347 106.027L270.453 75.0933L265.973 74.6666L252.32 103.573L256.373 104L260.213 95.5733L271.947 96.64ZM261.813 92.16L267.68 79.36H267.787L270.88 92.9066L261.813 92.16Z" fill="white"/>
<path d="M271.947 96.64L274.08 105.6L278.347 106.027L270.453 75.0933L265.973 74.6666L252.32 103.573L256.373 104L260.213 95.5733L271.947 96.64ZM261.813 92.16L267.68 79.36H267.787L270.88 92.9066L261.813 92.16ZM309.28 82.9866L312.907 84.0533L304.587 112.853L300.32 111.573L292.853 83.9466H292.747L286.027 107.2L282.293 106.133L290.72 77.2266L295.2 78.6133L302.453 106.24H302.56L309.28 82.9866Z" fill="white"/>
<path d="M309.28 82.9867L312.907 84.0534L304.587 112.853L300.32 111.573L292.853 83.9467H292.747L286.027 107.2L282.293 106.133L290.72 77.2267L295.2 78.6133L302.453 106.24H302.56L309.28 82.9867ZM317.92 85.6534L339.467 96L337.973 99.2L329.013 94.9333L318.133 118.933L314.507 117.227L325.387 93.2267L316.427 88.96L317.92 85.6534Z" fill="white"/>
<path d="M317.92 85.6534L339.467 96.0001L337.973 99.2001L329.013 94.9334L318.133 118.933L314.507 117.227L325.387 93.2268L316.427 88.9601L317.92 85.6534ZM343.307 124.48L340.96 133.44L344.587 135.893L352.053 104.853L348.32 102.293L322.933 120.96L326.347 123.307L333.6 117.76L343.307 124.48ZM336.48 115.52L347.573 107.2H347.68L344.053 120.64L336.48 115.52Z" fill="white"/>
<path d="M343.307 124.48L340.96 133.44L344.587 135.893L352.053 104.853L348.32 102.293L322.933 120.96L326.347 123.307L333.6 117.76L343.307 124.48ZM336.48 115.52L347.573 107.2H347.68L344.053 120.64L336.48 115.52Z" fill="white"/>
<path d="M200.8 436.373L196.107 434.88L204 409.387L195.893 406.72L196.96 403.2C202.72 404.693 205.28 404.8 208.48 399.467L211.893 400.64L200.8 436.373ZM230.347 431.36C233.653 431.787 237.493 430.613 239.2 427.947L239.307 428.053C237.067 437.547 233.867 441.493 228.96 440.96C225.227 440.533 223.307 437.867 223.52 434.133L218.933 433.6C218.507 437.227 220 443.84 228.533 444.907C241.013 446.507 243.68 429.547 244.213 425.493C244.96 419.413 245.173 408 233.547 406.613C225.867 405.653 221.173 411.2 220.32 417.92C219.467 425.28 223.627 430.507 230.347 431.36ZM231.52 427.307C228.427 426.88 224.267 425.493 225.12 418.347C225.76 413.333 228.853 410.347 233.12 410.88C238.347 411.52 240.053 415.467 239.52 419.733C238.56 426.987 233.867 427.52 231.52 427.307Z" fill="white"/>
<path d="M230.347 431.36C233.653 431.787 237.493 430.613 239.2 427.947L239.307 428.053C237.067 437.547 233.867 441.493 228.96 440.96C225.227 440.533 223.307 437.867 223.52 434.133L218.933 433.6C218.507 437.227 220 443.84 228.533 444.907C241.013 446.507 243.68 429.547 244.213 425.493C244.96 419.413 245.173 408 233.547 406.613C225.867 405.653 221.173 411.2 220.32 417.92C219.467 425.28 223.627 430.507 230.347 431.36ZM231.52 427.307C228.427 426.88 224.267 425.493 225.12 418.347C225.76 413.333 228.853 410.347 233.12 410.88C238.347 411.52 240.053 415.467 239.52 419.733C238.56 426.987 233.867 427.52 231.52 427.307ZM281.227 426.24C280.8 418.453 278.027 407.147 267.573 407.787C257.12 408.427 255.733 420.053 256.267 427.84C256.693 435.627 259.467 446.933 269.92 446.293C280.267 445.653 281.653 434.027 281.227 426.24ZM276.32 426.56C276.853 435.947 274.827 441.813 269.6 442.133C264.373 442.453 261.6 437.013 261.067 427.52C260.533 418.133 262.56 412.267 267.787 411.947C273.013 411.627 275.787 417.173 276.32 426.56Z" fill="white"/>
<path d="M281.227 426.24C280.8 418.453 278.027 407.147 267.573 407.787C257.12 408.427 255.733 420.053 256.267 427.84C256.693 435.627 259.467 446.933 269.92 446.293C280.267 445.653 281.653 434.027 281.227 426.24ZM276.32 426.56C276.853 435.947 274.827 441.813 269.6 442.133C264.373 442.453 261.6 437.013 261.067 427.52C260.533 418.133 262.56 412.267 267.787 411.947C273.013 411.627 275.787 417.173 276.32 426.56ZM287.093 405.44L311.413 398.293L312.48 402.24C310.027 407.04 304.8 421.013 306.827 437.867L302.027 439.253C300.427 429.013 303.307 414.187 307.787 404.053L288.48 409.707L287.093 405.44Z" fill="white"/>
<path d="M287.093 405.44L311.413 398.293L312.48 402.24C310.027 407.04 304.8 421.013 306.827 437.867L302.027 439.253C300.427 429.013 303.307 414.187 307.787 404.053L288.48 409.707L287.093 405.44Z" fill="white"/>
</g>
<defs>
<clipPath id="clip0_2_61">
<rect width="311.573" height="512" fill="white" transform="translate(100)"/>
</clipPath>
</defs>
</svg>
