<svg width="512" height="512" viewBox="0 0 512 512" fill="none" xmlns="http://www.w3.org/2000/svg">
<g clip-path="url(#clip0_2_300)">
<g clip-path="url(#clip1_2_300)">
<path d="M197.272 -0.00012207V70.2945C172.836 70.6407 149.542 71.1403 131.395 71.9405C111.469 72.8191 97.4636 73.7435 89.9469 75.6017L78.074 78.4713L78.2156 112.325V112.327C78.3115 130.789 78.3978 149.525 78.4594 168.316H8V285.343H78.4223C80.4436 321.619 93.3457 354.195 117.567 383.562C138.963 409.509 165.111 431.538 197.309 451.003V512H314.345V450.98C339.151 436.079 361.96 418.074 382.062 397.244L382.076 397.23L382.09 397.216C414.156 363.585 431.117 326.477 433.213 285.343H503.619V168.27H433.285V161.198C433.285 138.122 433.201 114.32 433.415 90.7919V90.7896L433.517 78.4756L421.568 75.5596C414.092 73.7384 400.09 72.8057 380.17 71.9196C362.029 71.1126 338.735 70.6034 314.298 70.2503V-0.00012207H197.272Z" fill="white"/>
<path d="M426.759 161.197C426.759 138.137 426.676 114.316 426.89 90.7322L426.949 83.6002L420.031 81.9122C408.323 79.0594 362.119 77.3002 307.772 76.6226V6.53809H203.81V76.6702C149.464 77.3358 103.248 79.0475 91.5158 81.9479L84.6334 83.612L84.7523 112.295C84.8593 132.918 84.9662 153.827 85.0257 174.855H14.537V278.805H84.574C85.311 316.32 97.7683 349.282 122.612 379.403C144.234 405.625 170.646 427.818 203.846 447.443V505.462H307.808V447.384C333.381 432.421 356.782 414.024 377.358 392.704C410.224 358.233 426.545 320.908 427.068 278.805H497.081V174.808H426.747L426.759 161.197Z" fill="#10416A"/>
<path d="M102.63 98.2329V112.152C102.915 164.787 103.201 219.217 102.428 272.874C101.929 308.534 113.019 339.618 136.353 367.968C165.059 402.772 203.05 430.195 255.696 454.064C300.414 434.106 336.075 409.952 364.353 380.271C395.948 347.142 410.557 311.327 409 270.686C408.263 251.858 408.441 233.041 408.62 214.818V213.63C408.715 205.309 408.798 197.06 408.798 188.81V161.209C408.798 140.609 408.715 119.379 408.857 98.2091C361.584 92.8125 149.892 92.8006 102.63 98.2329Z" fill="white"/>
<path d="M171.312 259.988V245.831C171.337 245.548 171.3 245.264 171.204 244.997C171.107 244.73 170.953 244.487 170.752 244.287C170.552 244.086 170.309 243.932 170.042 243.835C169.775 243.739 169.491 243.702 169.208 243.727H156.132C155.848 243.692 155.56 243.723 155.289 243.816C155.019 243.91 154.773 244.064 154.571 244.267C154.369 244.47 154.217 244.716 154.125 244.988C154.033 245.259 154.004 245.547 154.04 245.831V256.315C154.04 259.881 152.198 261.569 148.786 261.569H141.975C138.564 261.569 136.733 259.858 136.733 256.315V196.525C136.733 193.113 138.433 191.283 141.975 191.283H148.786C152.198 191.283 154.04 193.113 154.04 196.525V207.021C154.003 207.304 154.032 207.592 154.124 207.863C154.216 208.134 154.369 208.38 154.571 208.582C154.773 208.784 155.019 208.937 155.29 209.029C155.561 209.121 155.849 209.15 156.132 209.113H169.208C169.49 209.14 169.775 209.105 170.042 209.01C170.308 208.915 170.551 208.762 170.752 208.562C170.953 208.362 171.107 208.12 171.204 207.854C171.301 207.587 171.338 207.303 171.312 207.021V192.852C171.312 180.537 164.62 173.975 152.424 173.975H137.744C125.417 173.975 118.725 180.537 118.725 192.852V259.988C118.725 272.315 125.417 278.864 137.744 278.864H152.424C164.62 278.864 171.312 272.315 171.312 259.988Z" fill="#10416A"/>
<path d="M184.411 259.988C184.411 272.315 190.961 278.864 203.287 278.864H217.968C230.306 278.864 236.856 272.315 236.856 259.988V192.852C236.856 180.537 230.306 173.975 217.968 173.975H203.287C190.961 173.975 184.411 180.537 184.411 192.852V259.988ZM201.849 196.132C201.849 192.721 203.68 190.89 207.091 190.89H214.699C218.11 190.89 219.941 192.721 219.941 196.132V256.755C219.941 260.321 218.11 262.009 214.699 262.009H207.091C203.68 262.009 201.849 260.297 201.849 256.755V196.132Z" fill="#10416A"/>
<path d="M252.582 278.865H264.647C265 278.902 265.356 278.86 265.69 278.742C266.025 278.624 266.328 278.432 266.579 278.182C266.83 277.931 267.021 277.627 267.139 277.293C267.258 276.959 267.299 276.602 267.262 276.249V217.243H268.177L281.158 276.511C281.244 277.201 281.592 277.832 282.129 278.274C282.666 278.717 283.352 278.936 284.046 278.888H290.465C291.159 278.936 291.845 278.717 292.382 278.274C292.92 277.832 293.267 277.201 293.354 276.511L306.358 217.243H307.273V276.249C307.235 276.603 307.277 276.961 307.396 277.296C307.515 277.631 307.708 277.936 307.96 278.187C308.212 278.438 308.517 278.629 308.853 278.746C309.189 278.863 309.546 278.904 309.9 278.865H322.096C322.448 278.902 322.805 278.86 323.139 278.742C323.474 278.624 323.777 278.432 324.028 278.182C324.279 277.931 324.47 277.627 324.588 277.293C324.706 276.959 324.748 276.602 324.711 276.249V176.602C324.75 176.249 324.71 175.891 324.592 175.555C324.475 175.219 324.284 174.914 324.033 174.662C323.782 174.41 323.478 174.218 323.142 174.099C322.807 173.98 322.45 173.938 322.096 173.975H304.765C304.071 173.93 303.387 174.151 302.85 174.593C302.314 175.034 301.966 175.664 301.876 176.353L287.339 241.635L272.778 176.341C272.691 175.653 272.345 175.024 271.811 174.582C271.276 174.14 270.593 173.919 269.901 173.964H252.582C252.227 173.924 251.868 173.965 251.531 174.083C251.195 174.201 250.889 174.393 250.636 174.645C250.384 174.898 250.192 175.203 250.074 175.54C249.956 175.877 249.915 176.236 249.955 176.591V276.249C249.917 276.603 249.959 276.961 250.078 277.296C250.197 277.631 250.389 277.936 250.642 278.187C250.894 278.438 251.199 278.629 251.535 278.746C251.87 278.863 252.228 278.904 252.582 278.865Z" fill="#10416A"/>
<path d="M373.97 173.975H359.289C346.963 173.975 340.413 180.537 340.413 192.852V259.988C340.413 272.315 346.963 278.864 359.289 278.864H373.97C386.308 278.864 392.858 272.315 392.858 259.988V192.852C392.858 180.537 386.308 173.975 373.97 173.975ZM375.943 256.708C375.943 260.274 374.112 261.961 370.701 261.961H363.093C359.682 261.961 357.851 260.25 357.851 256.708V196.132C357.851 192.721 359.682 190.89 363.093 190.89H370.701C374.112 190.89 375.943 192.721 375.943 196.132V256.708Z" fill="#10416A"/>
<path d="M186.717 118.773H179.621C179.082 118.773 178.646 119.21 178.646 119.748V153.756C178.646 154.294 179.082 154.731 179.621 154.731H186.717C187.255 154.731 187.692 154.294 187.692 153.756V119.748C187.692 119.21 187.255 118.773 186.717 118.773Z" fill="#10416A"/>
<path d="M209.611 142.642C210.169 143.184 210.822 143.619 211.537 143.926C212.284 144.259 213.096 144.426 213.914 144.413H225.373C225.499 144.409 225.625 144.43 225.744 144.475C225.862 144.52 225.97 144.588 226.062 144.675C226.156 144.757 226.231 144.86 226.28 144.975C226.329 145.09 226.352 145.215 226.348 145.34V153.768C226.34 154.021 226.43 154.268 226.597 154.457C226.683 154.55 226.788 154.624 226.905 154.673C227.022 154.722 227.148 154.746 227.275 154.743H234.407C234.535 154.746 234.663 154.723 234.782 154.673C234.901 154.624 235.008 154.551 235.096 154.457C235.189 154.368 235.262 154.261 235.311 154.143C235.36 154.024 235.384 153.896 235.382 153.768V124.812C235.39 123.994 235.224 123.183 234.894 122.434C234.285 121.004 233.148 119.863 231.72 119.249C230.971 118.922 230.161 118.756 229.343 118.761H213.89C213.072 118.755 212.262 118.921 211.513 119.249C210.798 119.555 210.145 119.99 209.587 120.532C209.035 121.073 208.599 121.72 208.304 122.434C207.997 123.189 207.844 123.997 207.852 124.812V138.422C207.844 139.237 207.998 140.044 208.304 140.799C208.612 141.494 209.057 142.121 209.611 142.642ZM216.6 126.951H226.621V135.997H216.6V126.951Z" fill="#10416A"/>
<path d="M259.44 152.983C260.575 154.109 262.11 154.737 263.708 154.731H279.161C279.976 154.741 280.786 154.583 281.538 154.267C282.252 153.972 282.899 153.535 283.44 152.983C283.974 152.419 284.409 151.768 284.724 151.058C285.051 150.308 285.217 149.498 285.211 148.68V124.812C285.219 123.994 285.053 123.183 284.724 122.434C284.411 121.73 283.976 121.086 283.44 120.532C282.893 119.988 282.247 119.552 281.538 119.249C280.789 118.92 279.979 118.754 279.161 118.761H263.708C262.89 118.754 262.079 118.92 261.33 119.249C260.615 119.555 259.963 119.99 259.405 120.532C258.853 121.073 258.416 121.72 258.121 122.434C257.805 123.187 257.647 123.996 257.657 124.812V148.752C257.649 149.567 257.806 150.376 258.121 151.129C258.437 151.826 258.885 152.456 259.44 152.983ZM266.43 127.498H276.438V145.994H266.43V127.498Z" fill="#10416A"/>
<path d="M306.797 127.189H322.821L310.649 150.618L308.901 153.946C308.664 154.505 308.901 154.778 309.472 154.778H317.638C317.928 154.772 318.21 154.69 318.458 154.541C318.71 154.413 318.911 154.203 319.029 153.946L319.849 152.413L330.012 133.132L332.485 128.378C332.627 128.097 332.738 127.802 332.818 127.498C332.898 127.195 332.942 126.884 332.948 126.571V119.795C332.954 119.541 332.86 119.293 332.687 119.106C332.604 119.012 332.501 118.938 332.386 118.888C332.271 118.839 332.146 118.816 332.021 118.821H306.797C306.665 118.801 306.529 118.812 306.402 118.854C306.274 118.896 306.159 118.967 306.064 119.062C305.969 119.157 305.898 119.272 305.856 119.4C305.814 119.527 305.803 119.663 305.823 119.795V126.262C305.818 126.387 305.841 126.512 305.89 126.627C305.94 126.742 306.014 126.845 306.108 126.928C306.199 127.015 306.307 127.084 306.426 127.129C306.544 127.174 306.671 127.194 306.797 127.189Z" fill="#10416A"/>
<path d="M346.214 307.797C345.739 308.07 345.216 308.344 344.657 308.641C344.098 308.938 343.468 309.235 342.886 309.532C336.185 312.787 329.038 315.03 321.68 316.189C311.303 317.746 300.818 317.092 290.382 315.702C284.331 314.786 278.329 313.645 272.326 312.385C266.061 311.042 259.821 309.592 253.568 308.213C247.316 306.834 241.147 305.61 234.894 304.576C229.905 303.802 224.87 303.366 219.822 303.268C209.243 303.268 196.417 304.457 186.539 308.51C179.098 311.981 174.652 313.384 168.614 319.363C167.425 320.551 166.403 321.657 165.499 322.667C165.048 323.167 164.631 323.642 164.251 324.082L163.229 325.271C162.04 326.768 161.826 327.054 161.351 327.648L159.068 330.834C159.068 330.834 159.77 330.394 161.089 329.645L162.195 329.003L163.538 328.254C164.501 327.731 165.606 327.149 166.866 326.531C173.586 323.346 180.727 321.141 188.072 319.981C198.426 318.4 208.957 319.089 219.37 320.468C225.421 321.372 231.423 322.501 237.438 323.749C243.69 325.092 249.931 326.495 256.172 327.874C262.412 329.253 268.593 330.429 274.846 331.44C280.754 332.32 286.707 332.863 292.676 333.068C303.111 333.257 313.478 331.353 323.166 327.47C330.674 324.04 337.515 319.307 343.373 313.491C343.956 312.896 344.562 312.302 345.025 311.791L346.487 310.198C347.391 309.2 348.152 308.296 348.758 307.559L350.636 305.182L348.615 306.371C347.961 306.787 347.177 307.262 346.214 307.797Z" fill="#10416A"/>
<path d="M165.212 399.353C173.422 399.322 183.378 399.959 191.437 401.525C197.381 402.714 203.382 404.103 209.326 405.625C215.507 407.242 221.676 408.929 227.857 410.593C234.038 412.257 240.149 413.709 246.342 414.993C252.206 416.145 258.131 416.962 264.088 417.44C274.501 418.1 284.941 416.67 294.792 413.233C302.458 410.146 309.514 405.718 315.629 400.157C316.235 399.599 316.818 399.065 317.365 398.542C317.912 398.019 318.41 397.494 318.886 397.019C319.837 396.068 320.633 395.201 321.263 394.488L323.237 392.206C323.237 392.206 322.512 392.622 321.157 393.395C320.479 393.763 319.647 394.191 318.661 394.69L317.068 395.449C316.498 395.727 315.89 396.002 315.248 396.271C308.408 399.205 301.17 401.104 293.77 401.906C283.334 402.987 272.884 401.903 262.519 400.002C256.576 398.813 250.632 397.401 244.689 395.867C238.496 394.239 232.327 392.503 226.146 390.838C219.965 389.174 213.854 387.677 207.661 386.369C202.711 385.369 197.7 384.702 192.661 384.373C182.093 383.873 169.22 384.455 159.199 388.092L154.947 389.958C154.947 389.958 156.772 393.115 165.212 399.353Z" fill="#10416A"/>
<path d="M137.566 369.312C154.445 365.889 171.787 366.042 189.034 367.29C199.293 368.217 209.527 369.525 219.75 371.046C230.448 372.675 241.052 374.434 251.702 376.122C262.353 377.809 272.862 379.2 283.476 380.282C293.509 381.18 303.585 381.51 313.655 381.269C331.486 380.234 348.259 376.693 364.425 368.859C371.527 365.054 378.361 360.567 384.594 355.461C388.64 349.469 392.153 343.373 395.195 337.176C384.425 343.069 372.747 347.386 360.752 349.996C343.433 353.634 325.732 353.56 308.009 352.253C297.751 351.314 287.517 349.983 277.282 348.462C266.584 346.797 255.968 344.98 245.318 343.268C234.667 341.556 224.148 340.118 213.521 339.001C205.048 338.187 196.53 337.948 188.025 338.286C170.194 339.284 148.727 342.517 132.561 350.375C130.183 351.646 124.236 354.652 122.192 355.769L131.471 373.391L137.566 369.312Z" fill="#10416A"/>
</g>
</g>
<defs>
<clipPath id="clip0_2_300">
<rect width="512" height="512" fill="white"/>
</clipPath>
<clipPath id="clip1_2_300">
<rect width="495.619" height="512" fill="white" transform="translate(8 -0.00012207)"/>
</clipPath>
</defs>
</svg>
