<svg width="512" height="512" viewBox="0 0 512 512" fill="none" xmlns="http://www.w3.org/2000/svg">
<g clip-path="url(#clip0_2_327)">
<path d="M257.238 445.789C363.703 445.789 450.011 359.481 450.011 253.016C450.011 146.55 363.703 60.2429 257.238 60.2429C150.772 60.2429 64.4648 146.55 64.4648 253.016C64.4648 359.481 150.772 445.789 257.238 445.789Z" fill="#ED1C24"/>
<path d="M257.239 89.7723C167.225 89.7723 93.9929 163.002 93.9929 253.016C93.9929 343.031 167.225 416.259 257.239 416.259C347.251 416.259 420.484 343.031 420.484 253.016C420.484 163.002 347.251 89.7723 257.239 89.7723ZM257.239 386.734C183.507 386.734 123.521 326.749 123.521 253.017C123.521 179.285 183.507 119.299 257.239 119.299C330.971 119.299 390.955 179.284 390.955 253.016C390.955 326.747 330.971 386.734 257.239 386.734Z" fill="#808285"/>
<path d="M123.52 253.016C123.52 326.747 183.506 386.732 257.238 386.732C330.969 386.732 390.954 326.747 390.954 253.016C390.954 179.284 330.971 119.299 257.239 119.299C183.507 119.299 123.52 179.284 123.52 253.016Z" fill="#CF9C51"/>
<path d="M257.239 23.9186V274.417C285.781 252.437 310.226 237.016 310.226 158.276C310.226 126.452 327.941 116.846 338.929 116.846V72.1159C313.179 72.1159 291.424 51.324 291.424 23.9186" fill="#0A4A9B"/>
<path d="M216.137 230.127H257.239V187.147H205.583C207.422 205.476 211.106 219.233 216.137 230.127ZM175.548 116.847C184.988 116.847 199.384 123.953 203.254 146.138H257.238V103.158H175.548V116.847ZM223.054 23.9186C223.054 39.8098 215.73 53.4697 204.561 62.1485H257.239V23.9186H223.054Z" fill="#ED1C24"/>
<path d="M204.251 158.278C204.251 169.037 204.722 178.575 205.583 187.147H257.239V146.138H203.256C203.889 149.773 204.251 153.798 204.251 158.278ZM257.239 274.417V230.127H216.137C225.975 251.427 240.933 261.861 257.239 274.417ZM204.561 62.1486C196.47 68.4363 186.366 72.116 175.549 72.116V103.158H257.239V62.1486H204.561Z" fill="white"/>
<path d="M277.418 53.056C266.4 53.056 262.653 63.5152 262.653 72.9744C262.653 86.9753 269.872 103.159 269.872 103.159V106.112H267.985V108.064H265.766V115.512H267.985C265.448 121.688 266.082 180.979 266.082 180.979C266.082 180.979 261.802 185.424 261.802 192.552C261.802 201.896 269.569 209.196 279.715 209.196C292.397 209.196 298.58 202.373 298.58 191.279C298.58 183.191 296.994 180.024 290.969 177.011C290.969 177.011 290.654 120.261 287.641 115.511H289.542V108.374L287.482 107.582V104.252C287.482 104.252 293.981 94.5812 293.981 76.5123C293.982 59.8675 286.532 53.056 277.418 53.056Z" fill="#CF9C51"/>
<path d="M267.352 80.7909C267.352 79.681 269.255 80.7909 269.255 80.7909C269.255 80.7909 271.631 84.2778 276.069 84.2778C283.045 84.2778 285.897 81.7425 289.068 78.5724C289.514 88.0558 287.15 97.5877 283.995 105.678H281.777C281.777 105.678 281.935 98.704 285.582 88.7174C285.468 87.4376 283.601 87.527 282.413 88.7174C279.558 94.1073 279.242 105.837 279.242 105.837H273.375C273.374 96.8009 267.352 86.3392 267.352 80.7909ZM269.887 110.274V113.92C274.486 113.92 276.069 115.188 280.668 115.188C283.361 115.188 285.739 114.079 285.739 114.079V110.116C285.739 110.116 283.521 109.006 280.668 109.006C277.814 109.006 276.547 110.274 273.852 110.274C272.265 110.274 269.887 110.274 269.887 110.274Z" fill="white"/>
<path d="M287.325 140.394V157.196L270.048 131.674C270.048 131.674 269.651 120.975 270.683 119.944C274.089 121.29 287.325 140.394 287.325 140.394ZM270.682 175.424C269.968 176.138 270.682 184.776 270.682 184.776L276.069 188.741H281.616V184.776C281.616 184.776 276.069 176.851 270.682 175.424Z" fill="#ED1C24"/>
<path d="M287.325 165.756V179.864C287.325 179.864 274.088 165.835 270.048 160.365C270.048 158.938 269.017 144.912 270.048 143.881C276.114 150.54 287.325 165.756 287.325 165.756ZM279.082 118.043L285.422 125.809V118.361L279.082 118.043Z" fill="#808285"/>
<path d="M269.73 193.021C269.73 195.398 271.949 198.251 271.949 198.251C271.949 198.251 271.949 200.947 270.682 200.947C267.827 200.947 265.766 197.142 265.766 192.229C265.766 190.166 266.876 186.204 268.143 186.204C269.411 186.203 269.73 188.106 269.73 193.021ZM275.12 190.801C274.167 190.801 273.059 192.86 273.059 194.288C273.059 197.933 275.911 204.115 277.339 204.115C278.764 204.115 280.113 202.688 280.113 201.341C276.427 196.308 277.814 190.801 275.12 190.801ZM281.617 190.801C280.034 194.606 282.887 202.373 285.899 202.373C287.484 202.373 289.227 200.79 289.227 199.045C283.52 194.924 287.799 190.801 281.617 190.801ZM287.642 187.946C287.642 190.324 290.338 196.666 292.873 196.666C294.3 196.666 295.409 194.129 295.409 190.801C295.409 189.374 291.923 186.124 290.733 186.124C289.544 186.124 287.642 187.153 287.642 187.946Z" fill="white"/>
<path d="M10.769 165.198V203.935C10.769 310.976 87.3553 360.354 162.756 360.354V165.198H123.428V318.959C81.4405 301.175 50.3924 269.281 50.3924 165.198H10.769Z" fill="black"/>
<path d="M129.334 171.103C129.334 182.024 129.334 327.873 129.334 327.873L121.125 324.396C82.0395 307.843 45.8468 277.642 44.5479 171.103C37.5385 171.103 23.7431 171.103 16.6737 171.103C16.6737 179.588 16.6737 203.935 16.6737 203.935C16.6737 305.095 86.1228 351.872 156.849 354.329C156.849 343.368 156.849 181.856 156.849 171.102C149.828 171.103 136.357 171.103 129.334 171.103Z" fill="white"/>
<path d="M347.365 165.198V199.321C347.365 316.265 427.843 360.354 501.232 360.354V327.267C432.557 327.267 388.863 278.854 388.863 204.665H461.479V251.82H501.232V165.198H347.365Z" fill="black"/>
<path d="M353.27 171.103C353.27 179.181 353.27 199.321 353.27 199.321C353.27 310.534 428.464 352.045 495.328 354.339C495.328 347.962 495.328 338.972 495.328 332.909C426.892 330.179 382.955 280.542 382.955 204.665V198.759H467.383C467.383 198.759 467.383 236.875 467.383 245.914C474.453 245.914 488.258 245.914 495.328 245.914C495.328 236.408 495.328 180.609 495.328 171.102C484.841 171.103 363.756 171.103 353.27 171.103Z" fill="white"/>
<path d="M321.883 287.127C321.883 287.127 295.234 285.992 282.477 285.992C273.216 285.992 257.713 285.665 244.404 290.04C225.531 296.246 209.615 314.623 209.615 335.887C209.615 385.495 294.666 399.105 294.666 430.01C294.666 444.745 280.774 454.674 262.629 454.674H209.615V488.081H274.538C295.234 488.081 336.059 467.429 336.059 428.025C336.059 399.672 317.186 384.889 297.813 371.918C274.95 356.608 251.006 346.202 251.006 333.62C251.006 322.277 258.378 318.31 298.069 318.31C304.024 318.31 321.884 318.595 321.884 318.595V287.127H321.883Z" fill="black"/>
<path d="M246.251 295.65C230.979 300.672 215.522 316.106 215.522 335.888C215.522 360.327 239.521 375.217 262.73 389.616C282.19 401.687 300.573 413.09 300.573 430.01C300.573 447.721 284.614 460.579 262.63 460.579C262.63 460.579 224.847 460.579 215.522 460.579C215.522 466.863 215.522 475.888 215.522 482.177C225.282 482.177 274.539 482.177 274.539 482.177C293.415 482.177 330.153 463.061 330.153 428.025C330.153 402.769 313.303 389.394 294.529 376.825C288.937 373.08 283.293 369.643 277.836 366.32C259.55 355.181 245.103 346.386 245.103 333.62C245.103 315.355 260.718 312.405 298.072 312.405C298.072 312.405 309.248 312.538 315.981 312.619C315.981 306.521 315.981 298.657 315.981 292.8C307.479 292.47 291.428 291.898 282.481 291.898L280.658 291.897C271.562 291.877 257.82 291.846 246.251 295.65Z" fill="white"/>
</g>
<defs>
<clipPath id="clip0_2_327">
<rect width="512" height="512" fill="white"/>
</clipPath>
</defs>
</svg>
