<svg width="512" height="512" viewBox="0 0 512 512" fill="none" xmlns="http://www.w3.org/2000/svg">
<g clip-path="url(#clip0_2_356)">
<path d="M65 0V381.063C65 402.446 65 429.058 78.2462 450.352C93.8152 475.388 123.446 487.554 168.779 487.554C195.378 487.554 213.753 490.592 226.07 494.07C238.029 497.448 248.212 501.968 255.343 512.019H256.687C263.825 501.974 274.001 497.448 285.961 494.07C298.284 490.592 316.659 487.554 343.258 487.554C388.603 487.554 418.221 475.388 433.79 450.352C447.037 429.058 447.037 402.446 447.03 381.063V0H65Z" fill="#FFD508"/>
<path d="M255.952 496.802C255.952 496.802 271.464 476.851 340.909 476.851C435.472 476.851 436.207 422.183 436.207 380.078V91.145H256.034L255.952 496.802Z" fill="#00263E"/>
<path d="M256.015 91.145H75.6915V380.078C75.6915 422.183 74.9507 476.851 168.779 476.851C238.218 476.851 255.953 496.802 255.953 496.802L256.015 91.145Z" fill="#AE1919"/>
<path d="M436.208 10.6911H75.6915V120.371H436.208V10.6911Z" fill="white"/>
<path d="M425.586 57.6933H263.85V21.1312H248.181V57.6933H86.0938V73.3627H248.181V109.925H263.85V73.3627H425.586V57.6933Z" fill="#AE1919"/>
<path d="M190.663 311.311C189.923 312.793 187.324 316.132 191.034 317.588L189.552 321.669C189.552 321.669 195.861 320.181 195.861 316.101C195.861 313.508 193.633 305.711 192.151 303.118C201.794 304.599 214.042 304.97 220.345 304.229C228.506 303.489 235.192 301.26 241.866 296.809C241.866 296.809 238.532 303.859 225.914 306.087C233.978 313.347 242.821 319.693 252.28 325.009C252.28 325.009 216.666 332.059 212.579 332.799C208.493 333.54 205.134 335.43 203.627 339.498C196.602 359.173 215.555 368.451 215.555 370.303C215.555 372.532 207.764 387.743 207.764 387.743C200.344 381.434 195.893 384.033 194.775 385.515C195.893 385.515 197.745 386.632 197.745 387.743C196.494 387.048 195.094 386.667 193.664 386.632C189.584 386.632 188.472 388.114 187.732 389.972C188.843 389.972 190.325 390.342 190.695 391.855C189.67 391.309 188.515 391.053 187.355 391.114C179.564 391.114 182.534 402.245 182.534 402.245C184.015 401.134 185.503 400.763 188.472 400.763H209.993C211.542 400.783 213.077 400.461 214.488 399.82C215.899 399.179 217.15 398.234 218.154 397.053L233.365 381.465C235.594 378.873 235.964 376.644 235.248 374.415C233.02 366.254 231.168 354.383 231.168 354.383C231.168 354.383 232.279 355.494 234.501 357.352C239.596 360.693 245.254 363.082 251.201 364.402C250.83 361.803 246.379 348.08 252.311 338.035C252.311 338.035 249.719 348.08 256.022 364.754C261.59 377.737 273.091 387.756 289.42 387.756C308.341 387.756 306.112 414.844 306.112 414.844C298.322 407.418 293.5 410.758 291.674 413.357C293.162 413.357 295.754 413.727 296.871 415.956C296.871 415.956 293.532 414.468 290.933 414.468C289.62 414.403 288.33 414.82 287.304 415.641C286.278 416.462 285.588 417.63 285.364 418.925C285.741 418.925 288.334 419.666 288.704 421.147C287.362 420.874 285.994 420.749 284.623 420.777C279.061 420.777 281.654 433.766 281.654 433.766L282.772 432.649C283.483 431.993 284.398 431.6 285.364 431.537H312.453C316.163 431.537 319.874 428.568 319.874 424.858V389.225C319.874 384.774 316.904 383.662 312.823 383.662C312.823 383.662 315.052 381.779 315.052 377.724C315.052 377.724 312.823 378.471 303.545 375.501C297.267 373.273 293.162 367.34 293.532 351.018C307.971 359.92 325.066 365.118 332.454 354.728C336.911 348.789 338.023 336.177 325.404 326.158C308.341 311.317 313.903 307.607 318.731 303.156C319.472 303.897 322.812 305.008 325.781 302.786C329.491 299.816 326.892 293.137 330.232 290.908C330.232 290.908 322.441 289.797 317.984 292.791C313.903 295.39 315.762 299.841 316.502 300.953C311.31 305.774 303.143 312.453 319.101 326.924C329.146 336.573 329.491 343.246 325.379 348.074C318.335 355.124 298.296 341.394 293.475 337.314C293.105 331.751 290.506 326.553 287.166 322.473C279.375 313.571 269.356 299.471 264.164 282.772C267.011 285.324 270.37 287.239 274.016 288.391C277.662 289.543 281.511 289.905 285.308 289.451L277.486 272.325C282.684 283.086 295.691 289.765 311.254 285.685L293.048 264.164C302.321 277.524 321.242 283.086 340.54 271.214L308.655 249.349C321.638 258.621 340.195 255.658 353.178 242.299L321.267 230.798C353.178 242.299 363.567 213.358 363.567 213.358C335.367 225.229 306.439 189.615 289.734 216.698C280.455 234.138 270.066 238.218 263.756 240.441C269.325 236.73 275.263 233.397 284.165 217.809C294.925 199.603 304.204 198.517 320.897 203.709C325.348 204.826 328.687 204.826 331.657 203.709C343.158 198.875 344.25 190.714 344.25 190.714C320.131 202.585 299.722 173.274 285.239 197.394C276.337 213.346 270.8 221.877 264.095 228.927C265.979 222.994 267.058 208.524 260.755 192.936C267.805 191.454 266.317 183.293 266.317 183.293C266.317 183.293 264.095 185.516 258.527 185.516C253.706 185.516 252.588 180.324 241.828 180.324C229.586 180.324 224.394 186.602 224.394 186.602C209.183 186.972 208.806 198.473 208.806 198.473C208.806 198.473 227.012 194.763 227.734 209.604C227.734 215.913 224.394 220.734 214.004 225.556C206.214 229.266 196.935 238.174 193.966 250.416C191.573 260.539 192.77 271.179 197.349 280.518C197.579 278.371 198.079 276.262 198.837 274.24C200.319 277.95 205.51 285.371 207.369 287.593C205.548 288.112 203.802 288.861 202.171 289.822C195.127 294.273 193.639 295.39 189.558 296.1C188.818 294.988 186.589 289.822 183.25 281.661C179.169 272.382 170.637 281.661 170.637 281.661H175.829C175.829 281.661 174.718 285.741 179.169 286.852C183.62 287.964 185.848 295.761 185.848 295.761L170.631 286.451C166.55 284.228 162.84 289.79 161.723 292.729L165.433 291.617C165.93 292.815 166.828 293.804 167.973 294.413C169.118 295.022 170.439 295.214 171.711 294.957C178.02 293.839 184.7 300.149 184.7 300.149C184.7 300.149 176.539 299.408 173.198 299.037C169.112 298.667 167.63 303.859 166.89 307.199L170.599 304.97C170.599 304.97 172.822 307.94 175.791 306.853C179.131 305.736 183.212 301.285 188.41 304.97C191.003 306.853 191.379 309.798 190.632 311.279M238.532 189.238C238.902 189.986 238.155 191.467 237.044 191.837C234.822 192.578 232.593 191.097 232.223 189.954C232.602 189.379 233.093 188.885 233.667 188.502C234.24 188.119 234.885 187.855 235.563 187.725C241.125 186.614 244.464 188.096 244.464 188.096C240.384 188.466 238.532 189.207 238.532 189.207M162.821 230.057C165.791 230.057 170.612 225.229 174.693 230.427C177.292 234.138 173.211 237.847 173.211 237.847C173.211 237.847 168.754 241.929 171.723 245.638L169.124 248.237C169.124 248.237 176.174 248.978 176.922 245.268L179.144 234.138L192.133 246.009C196.213 235.964 206.232 233.397 206.232 233.397C194.725 227.828 176.922 223.748 176.922 223.748L165.81 208.919C162.47 204.469 158.383 208.549 156.531 211.142L159.871 210.772C159.5 212.259 159.13 215.599 164.322 216.71C170.261 217.821 173.23 224.871 173.23 224.871C173.23 224.871 163.951 222.649 160.612 221.902C156.901 221.532 155.05 226.73 155.05 230.063L158.013 227.094C158.424 228.017 159.106 228.795 159.967 229.325C160.829 229.854 161.83 230.112 162.84 230.063" fill="#FFD508"/>
</g>
<defs>
<clipPath id="clip0_2_356">
<rect width="382.03" height="512" fill="white" transform="translate(65)"/>
</clipPath>
</defs>
</svg>
