<svg width="512" height="512" viewBox="0 0 512 512" fill="none" xmlns="http://www.w3.org/2000/svg">
<g clip-path="url(#clip0_2_446)">
<path fill-rule="evenodd" clip-rule="evenodd" d="M326.766 0.0256286C328.968 2.86438e-05 329.506 0.0512286 331.426 0.537629C332.808 0.896029 334.19 1.38243 335.368 1.94563C336.341 2.43203 337.672 3.25123 338.312 3.73763C338.952 4.22403 339.95 5.12003 340.565 5.76003C341.154 6.40003 341.896 7.32163 342.254 7.80803C342.587 8.29443 343.176 9.31843 343.534 10.0608C343.893 10.8032 344.405 12.1344 344.661 13.0304C344.917 13.9008 345.224 15.4112 345.326 16.3328C345.454 17.5616 345.454 18.5856 345.301 19.9424C345.173 20.9664 344.891 22.5024 344.635 23.3472C344.405 24.192 343.816 25.6 343.355 26.496C342.894 27.3664 342.075 28.672 341.538 29.3632C340.974 30.0544 340.027 31.0528 339.413 31.616C338.824 32.1536 337.646 32.9984 336.827 33.5104C336.008 33.9968 334.626 34.6624 333.755 34.9952C332.859 35.328 331.554 35.712 330.888 35.84C330.197 35.9936 328.866 36.1728 327.918 36.224C326.92 36.2752 325.461 36.224 324.437 36.096C323.438 35.968 321.979 35.6864 321.211 35.456C320.418 35.2256 319.291 34.816 318.702 34.56C318.088 34.304 316.962 33.6384 316.142 33.1264C315.323 32.5888 314.094 31.5904 313.403 30.8992C312.712 30.208 311.714 28.9536 311.176 28.16C310.638 27.3408 309.947 26.0864 309.666 25.3696C309.358 24.6528 308.923 23.3472 308.693 22.5024C308.386 21.1968 308.309 20.4288 308.309 18.1504C308.309 15.872 308.386 15.0784 308.693 13.824C308.898 12.9792 309.333 11.6992 309.64 10.9568C309.947 10.2144 310.664 8.90883 311.202 8.08963C311.765 7.24483 312.814 5.93923 313.582 5.19683C314.35 4.48003 315.682 3.40483 316.552 2.86723C317.422 2.32963 318.856 1.61283 319.726 1.30563C320.571 0.972829 321.954 0.563229 322.773 0.384029C323.797 0.153629 325 0.0256286 326.766 0.0256286ZM321.749 8.21763C320.981 8.62723 320.008 9.34403 319.317 10.0608C318.523 10.8544 317.934 11.648 317.474 12.5696C317.115 13.312 316.706 14.4384 316.552 15.0784C316.398 15.7184 316.27 17.024 316.27 17.9712C316.27 19.1488 316.373 20.0704 316.629 21.0176C316.834 21.76 317.269 22.8352 317.576 23.424C317.909 24.0384 318.702 25.088 319.394 25.7792C320.11 26.4704 321.134 27.2896 321.749 27.5968C322.338 27.904 323.208 28.288 323.72 28.416C324.206 28.5696 325.256 28.7488 326.05 28.8256C326.997 28.9024 327.944 28.8512 328.917 28.672C329.685 28.544 330.862 28.1856 331.502 27.8528C332.142 27.5456 333.115 26.9056 333.653 26.4448C334.19 25.9584 334.958 25.0368 335.368 24.4224C335.778 23.7824 336.264 22.8096 336.469 22.272C336.674 21.7344 336.93 20.6848 337.058 19.9424C337.186 19.1232 337.237 18.0736 337.16 17.3312C337.109 16.64 336.93 15.5904 336.776 15.0016C336.622 14.4128 336.187 13.3632 335.829 12.672C335.419 11.8272 334.728 10.9312 333.832 10.0352C332.91 9.11363 332.117 8.49923 331.323 8.11523C330.683 7.80803 329.685 7.42403 329.096 7.27043C328.482 7.11683 327.355 7.01443 326.587 7.01443C325.794 7.01443 324.667 7.14243 324.078 7.29603C323.464 7.44963 322.414 7.85923 321.749 8.21763ZM476.936 0.0256286C478.83 2.86438e-05 479.88 0.0768287 481.314 0.384029C482.338 0.588829 483.72 0.947229 484.36 1.20323C485 1.43363 486.05 1.92003 486.69 2.27843C487.33 2.63683 488.302 3.27683 488.84 3.68643C489.378 4.12163 490.069 4.65923 490.862 5.29923L485.973 10.9568L484.923 10.112C484.334 9.62563 483.336 8.93443 482.722 8.57603C482.082 8.19203 481.058 7.73123 480.418 7.52643C479.778 7.32163 478.6 7.11683 477.832 7.04003C476.987 6.98883 475.912 7.04003 475.221 7.16803C474.581 7.29603 473.454 7.68003 472.712 8.03843C471.739 8.49923 471.048 9.01123 470.203 9.88163C469.435 10.6496 468.821 11.52 468.386 12.3904C468.002 13.1328 467.566 14.2592 467.387 14.8992C467.182 15.6928 467.08 16.6912 467.106 18.048C467.106 19.6608 467.208 20.3008 467.566 21.4528C467.822 22.2464 468.334 23.3728 468.693 23.9872C469.051 24.576 469.666 25.3952 470.075 25.8304C470.485 26.2656 471.304 26.9312 471.918 27.3408C472.507 27.7248 473.454 28.1856 474.069 28.3648C474.658 28.544 475.579 28.7488 476.117 28.8C476.654 28.8768 477.781 28.8512 478.626 28.7232C479.47 28.6208 480.622 28.3392 481.237 28.1088C481.826 27.904 482.773 27.4176 483.387 27.0336C483.976 26.6496 484.846 26.0096 486.178 24.8832L491.093 29.824L489.838 31.0272C489.147 31.6928 488.046 32.6144 487.406 33.0496C486.766 33.4848 485.666 34.0992 485 34.4064C484.309 34.7392 483.131 35.1488 482.389 35.3536C481.646 35.5584 480.187 35.8144 479.163 35.9424C478.139 36.0448 476.526 36.096 475.579 36.0448C474.632 35.9936 473.301 35.8144 472.635 35.6608C471.944 35.5072 470.92 35.2512 470.382 35.0464C469.845 34.8672 468.872 34.4576 468.232 34.1248C467.592 33.792 466.594 33.2032 466.005 32.7936C465.39 32.4096 464.443 31.5904 463.829 30.976C463.24 30.3872 462.395 29.3632 461.934 28.7232C461.474 28.0832 460.757 26.88 460.373 26.0352C459.963 25.1904 459.477 23.8592 459.272 23.0656C459.067 22.2976 458.811 20.864 458.709 19.9424C458.581 18.688 458.581 17.6896 458.734 16.256C458.862 15.1552 459.144 13.5936 459.4 12.7488C459.63 11.904 460.194 10.5472 460.629 9.70243C461.064 8.85763 461.806 7.65443 462.293 7.01443C462.754 6.37443 463.675 5.35043 464.315 4.76163C464.93 4.19843 466.03 3.35363 466.722 2.89283C467.387 2.45763 468.565 1.81763 469.307 1.51043C470.05 1.20323 471.33 0.768029 472.174 0.563229C473.019 0.358429 473.864 0.153629 474.069 0.128029C474.248 0.0768286 475.554 0.0256286 476.936 0.0256286ZM151.048 0.179229L158.242 0.281629L165.666 17.7664C169.736 27.4176 173.09 35.3792 173.09 35.5072C173.09 35.6864 172.194 35.7376 165.128 35.6352L162.005 27.9296H147.208L144.085 35.6352L140.219 35.6864C137.736 35.712 136.354 35.6864 136.354 35.5584C136.354 35.4304 132.13 35.3536 111.906 35.2768V0.460829L119.432 0.358429L119.509 28.3648H136.891V30.7968C136.891 32.128 136.942 33.2288 137.019 33.2288C137.096 33.2288 140.142 26.1376 143.778 17.4592C147.413 8.80643 150.536 1.35683 150.715 0.947229L151.048 0.179229ZM150.024 20.7872C150.05 20.8128 152.123 20.8128 154.658 20.7872L159.266 20.736C155.835 12.3136 154.76 9.88163 154.658 9.88163C154.581 9.88163 153.48 12.3136 152.226 15.3088C150.997 18.304 149.998 20.7616 150.024 20.7872ZM185.557 0.204829C186.325 0.179229 187.707 0.281629 188.603 0.384029C189.474 0.486429 190.882 0.768029 191.726 1.02403C192.571 1.25443 193.902 1.76643 194.696 2.15043C195.464 2.53443 196.693 3.25123 198.715 4.65923L197.333 6.68163C196.565 7.80803 195.669 9.13923 194.696 10.5728L193.698 9.93283C193.16 9.57443 192.059 8.96003 191.291 8.60163C190.498 8.24323 189.32 7.80803 188.68 7.62883C188.04 7.47523 186.939 7.29603 186.274 7.24483C185.582 7.19363 184.558 7.21923 184.021 7.34723C183.483 7.44963 182.766 7.73123 182.434 7.93603C182.101 8.16643 181.666 8.55043 181.461 8.80643C181.282 9.03683 181.077 9.60003 181.026 10.0608C180.974 10.5984 181.026 11.0848 181.23 11.5456C181.384 11.9296 181.845 12.4416 182.28 12.7488C182.69 13.056 183.483 13.4656 184.021 13.6704C184.558 13.8752 186.018 14.3104 187.246 14.6688C188.475 15.0016 190.242 15.5136 191.189 15.8208C192.136 16.128 193.467 16.6656 194.184 17.024C194.901 17.3824 195.925 18.0224 196.437 18.432C196.949 18.816 197.717 19.6608 198.152 20.3008C198.562 20.9408 199.074 21.9904 199.278 22.6304C199.509 23.4496 199.611 24.32 199.611 25.6C199.611 26.5984 199.483 27.8528 199.33 28.4672C199.202 29.056 198.818 30.08 198.485 30.72C198.126 31.4624 197.512 32.3072 196.744 33.0496C196.002 33.792 195.08 34.4576 194.235 34.9184C193.493 35.3024 192.136 35.8144 191.189 36.0448C189.934 36.3776 188.987 36.48 187.528 36.48C186.12 36.5056 184.994 36.3776 183.662 36.096C182.638 35.8912 181.128 35.5072 180.36 35.2512C179.566 34.9952 178.261 34.4832 177.493 34.1248C176.699 33.7408 175.445 33.024 174.702 32.5376C173.96 32.0512 173.064 31.36 172.731 31.0016C172.142 30.4128 172.117 30.336 172.398 30.0288C172.552 29.8752 173.525 28.6976 174.574 27.4432C175.624 26.1632 176.546 25.1392 176.597 25.1392C176.622 25.1392 177.262 25.6 177.979 26.1376C178.696 26.6752 179.925 27.4432 180.718 27.8272C181.486 28.2112 182.792 28.6976 183.586 28.9024C184.533 29.1584 185.582 29.2864 186.811 29.2864C187.784 29.2864 188.834 29.2352 189.141 29.184C189.422 29.1072 189.96 28.9024 190.293 28.7232C190.626 28.5696 191.163 28.16 191.47 27.8016C191.778 27.4688 192.059 26.9056 192.136 26.5216C192.213 26.1632 192.187 25.5488 192.085 25.1392C191.982 24.6784 191.701 24.2432 191.317 23.936C191.01 23.68 190.318 23.2704 189.806 23.04C189.294 22.8096 187.554 22.2464 185.941 21.8112C184.354 21.3504 182.382 20.7872 181.614 20.5312C180.821 20.3008 179.515 19.7632 178.696 19.3792C177.672 18.8928 176.827 18.3296 176.034 17.5616C175.214 16.7936 174.677 16.0768 174.344 15.36C174.062 14.7712 173.755 13.8496 173.653 13.3376C173.525 12.8256 173.448 11.6736 173.448 10.8288C173.448 9.95843 173.576 8.75523 173.73 8.16643C173.883 7.57763 174.318 6.52803 174.677 5.86243C175.086 5.04323 175.752 4.22403 176.494 3.50723C177.134 2.91843 178.158 2.17603 178.747 1.86883C179.336 1.53603 180.206 1.15203 180.718 0.998429C181.205 0.819229 182.178 0.563229 182.869 0.435229C183.534 0.307229 184.763 0.204829 185.557 0.204829ZM396.27 0.179229H403.464L410.939 17.8176C415.035 27.52 418.414 35.5328 418.414 35.6096C418.414 35.6864 416.648 35.7376 414.523 35.7376C411.528 35.7632 410.581 35.6864 410.427 35.5328C410.325 35.4048 409.557 33.6128 407.227 27.8272L392.379 27.9296L389.256 35.6352L385.365 35.6864C382.37 35.7376 381.499 35.6864 381.499 35.5072C381.499 35.3792 384.827 27.392 388.872 17.7408L396.27 0.179229ZM394.99 20.7872C395.016 20.8128 397.09 20.8128 399.624 20.7872L404.206 20.736C400.699 12.2112 399.65 9.70243 399.598 9.65123C399.547 9.60003 398.472 12.0832 397.218 15.1552C395.963 18.2272 394.965 20.7616 394.99 20.7872ZM20.7696 0.358429H28.296V14.3616H42.632V0.358429H50.1584V35.5584H42.632V21.5552H28.296V35.7376H20.7696V0.358429ZM54.9968 0.358429H81.3392V7.37283H62.5232V14.5408H79.1888L79.112 21.4528L62.5232 21.5552V28.9024H81.5184V35.9168H54.9968V0.358429ZM84.744 0.358429H92.2704V28.3648H109.832L109.755 35.2768L84.744 35.3792V0.358429ZM219.426 0.358429L223.982 12.5696C226.491 19.3024 228.616 24.7296 228.667 24.6528C228.744 24.576 230.766 19.2256 233.173 12.7488C235.605 6.27203 237.627 0.844829 237.678 0.665629C237.781 0.384029 238.139 0.358429 241.902 0.358429C245.742 0.358429 246.024 0.384029 245.922 0.665629C245.896 0.844829 242.722 8.85763 231.97 35.9168L225.211 35.84L218.043 18.1504C214.126 8.39683 210.901 0.435229 210.901 0.409629C210.901 0.384029 212.821 0.358429 219.426 0.358429ZM247.637 0.358429H273.979V7.37283H255.163V14.5408H271.65V21.5552H255.163V28.9024H274.158V35.9168H247.637V0.358429ZM277.384 0.358429H285.858C290.722 0.358429 294.971 0.435229 295.842 0.537629C296.686 0.665629 298.094 0.972829 298.99 1.28003C299.861 1.58723 301.166 2.17603 301.858 2.58563C302.523 3.02083 303.496 3.81443 304.008 4.35203C304.494 4.88963 305.109 5.76003 305.365 6.29763C305.646 6.83523 306.005 7.80803 306.158 8.44803C306.389 9.26723 306.491 10.2912 306.491 11.8528C306.491 13.1584 306.414 14.5152 306.261 15.0784C306.133 15.616 305.723 16.6912 305.39 17.408C304.904 18.4576 304.443 19.0976 303.291 20.1984C302.267 21.2224 301.448 21.8624 299.067 23.0656L303.189 29.184C305.467 32.5376 307.31 35.3536 307.31 35.4304C307.31 35.5072 305.365 35.5584 298.632 35.5584L291.106 24.448L285.09 24.4224V35.5584H277.384V0.358429ZM285.09 17.7664C291.054 17.7664 292.795 17.7152 292.795 17.6384C292.795 17.5616 293.256 17.4592 293.819 17.408C294.382 17.3312 295.304 17.1008 295.816 16.8704C296.354 16.6144 297.045 16.1536 297.352 15.7952C297.659 15.4624 298.069 14.8224 298.248 14.3616C298.478 13.7728 298.555 13.2096 298.504 12.2112C298.453 11.1104 298.325 10.7008 297.89 9.95843C297.454 9.24163 297.122 8.96003 296.123 8.44803L294.894 7.80803L285.115 7.70563L285.09 17.7664ZM348.526 0.358429H355.618L363.682 10.9568C368.11 16.768 371.797 21.504 371.874 21.4528C371.95 21.4016 372.002 16.64 372.002 0.358429H379.528V35.5584H373L356.155 13.2864L356.053 35.5584H348.526V0.358429ZM431.138 0.358429H457.659V7.37283H438.664V14.72H455.509V21.7344H438.664V35.3792H431.138V0.358429ZM118.434 77.4144C118.485 77.4144 138.811 106.445 208.674 206.515L208.622 207.36C208.597 207.846 205.832 256.307 202.478 315.085C199.125 373.862 196.334 422.477 196.13 424.371L143.445 346.906C114.466 304.333 90.632 269.363 90.4784 269.261C90.3248 269.133 89.8896 268.954 89.5056 268.826C89.0448 268.698 86.0752 268.57 81.3392 268.467C77.2432 268.39 72.4816 268.237 70.7664 268.134C69.0512 268.032 67.3104 267.904 66.9264 267.827C66.5168 267.776 65.6208 267.571 64.904 267.392C64.1872 267.213 62.984 266.726 62.216 266.342C61.448 265.958 60.2192 265.165 59.4768 264.576C58.7344 264.013 57.736 263.091 57.2752 262.554C56.7888 262.016 55.9696 260.915 55.4576 260.122C54.92 259.328 54.1264 257.971 53.6912 257.075C53.256 256.179 52.616 254.694 52.2576 253.747C51.8992 252.826 51.3872 251.11 51.08 249.984C50.7984 248.858 50.4144 247.142 50.2608 246.221C50.1072 245.274 49.8256 242.765 49.6208 240.64C49.416 238.515 48.9808 233.958 48.6224 230.502C48.2896 227.046 47.7264 221.747 47.368 218.726C47.0352 215.731 46.5488 211.686 46.2928 209.766C46.0624 207.821 45.7296 205.568 45.576 204.723C45.4224 203.878 45.0128 202.317 44.6544 201.216C44.3216 200.141 43.6048 198.374 43.0928 197.274C42.5552 196.198 41.6592 194.56 41.0704 193.69C40.4816 192.794 39.6368 191.616 39.2272 191.078C38.792 190.541 37.8192 189.466 37.0768 188.672C36.3344 187.904 35.0032 186.65 34.1328 185.907C33.2368 185.165 31.496 183.885 30.2672 183.066C29.0384 182.246 26.9904 181.069 25.7104 180.429C24.4048 179.789 22.4336 178.893 21.3072 178.458C20.1808 178.022 18.3632 177.408 17.288 177.075C16.1872 176.768 14.4976 176.358 13.5248 176.179C12.5264 175.974 10.2992 175.718 5.3584 175.36V156.237H23.2272C33.0576 156.237 52.9232 156.237 67.3616 156.237C81.8 156.237 95.112 156.16 100.258 155.904L100.667 155.392C101 155.008 101.077 154.778 100.974 154.266C100.923 153.907 100.744 153.498 100.565 153.344C100.386 153.165 93.704 149.043 85.6912 144.128C77.6784 139.238 71.0736 135.219 71.048 135.219C70.9968 135.219 64.7248 139.392 57.096 144.486C46.7024 151.45 42.9904 154.01 42.2224 154.829C41.5824 155.494 41.1728 155.802 41.096 155.648C41.0448 155.52 41.0192 150.426 41.1216 133.171L41.608 131.738C41.8896 130.944 42.4784 129.766 42.888 129.126C43.3232 128.486 44.1424 127.488 44.7056 126.925C45.2944 126.362 46.1648 125.594 46.6768 125.235C47.1632 124.902 48.008 124.365 48.5456 124.109C49.0832 123.827 58.9136 119.526 70.408 114.509C81.9024 109.517 95.0864 103.782 99.72 101.76C107.272 98.4832 108.219 98.0224 108.936 97.3056C109.371 96.8704 109.986 96 110.293 95.36C110.6 94.72 112.546 90.4192 114.594 85.8112C116.667 81.1776 118.382 77.4144 118.434 77.4144ZM393.506 77.5168C393.582 77.5936 395.349 81.5104 397.448 86.1952C399.547 90.9056 401.493 95.1808 401.774 95.7184C402.056 96.256 402.594 96.9984 402.952 97.3824C403.541 97.9456 407.125 99.5584 427.118 108.262C440.021 113.894 453.486 119.757 457.045 121.293C460.962 123.008 463.982 124.416 464.75 124.928C465.416 125.389 466.466 126.234 467.029 126.771C467.618 127.334 468.437 128.307 468.872 128.947C469.282 129.587 469.87 130.688 470.664 132.634L470.843 156.339L506.76 156.416L506.683 175.539L503.995 175.667C502.51 175.718 500.539 175.898 499.592 176.077C498.645 176.23 497.134 176.563 496.187 176.794C495.24 177.05 493.883 177.434 493.141 177.664C492.398 177.92 490.939 178.458 489.915 178.867C488.891 179.277 487.022 180.122 485.794 180.787C484.565 181.427 482.747 182.477 481.774 183.117C480.776 183.757 479.24 184.883 478.37 185.6C477.474 186.317 475.861 187.827 474.786 188.954C473.685 190.08 472.251 191.77 471.586 192.717C470.92 193.638 469.819 195.533 469.154 196.915C468.462 198.298 467.643 200.243 467.336 201.216C467.029 202.214 466.619 203.75 466.44 204.646C466.261 205.517 465.774 208.922 465.39 212.173C464.981 215.45 464.366 220.723 464.034 223.949C463.675 227.149 463.061 233.165 462.677 237.312C462.267 241.459 461.832 245.581 461.678 246.477C461.525 247.373 461.141 249.037 460.859 250.163C460.552 251.29 460.04 253.005 459.682 253.926C459.323 254.874 458.709 256.333 458.274 257.178C457.864 257.997 457.045 259.43 456.456 260.301C455.867 261.197 454.792 262.528 454.05 263.27C453.333 264.013 452.078 265.037 451.31 265.574C450.517 266.086 449.237 266.752 448.469 267.059C447.701 267.341 446.37 267.699 445.525 267.853C444.654 267.981 442.248 268.186 440.2 268.288C438.126 268.39 433.774 268.493 430.523 268.493C427.246 268.493 424.072 268.57 423.432 268.672C422.792 268.774 422.024 268.928 421.742 269.03C421.282 269.158 413.474 280.55 315.656 424.371L315.502 423.142C315.426 422.477 312.635 373.888 309.282 315.162C305.928 256.461 303.163 207.974 303.112 206.438L341.179 152.013C362.094 122.086 382.421 93.056 386.312 87.5008C390.203 81.92 393.454 77.44 393.506 77.5168ZM411.349 153.549C411.093 153.805 410.99 154.163 410.99 154.624C410.99 155.059 411.093 155.443 411.298 155.648C411.528 155.878 412.066 156.006 413.09 156.109C413.909 156.186 427.195 156.288 442.658 156.339L470.741 156.416C470.331 155.597 469.947 155.059 469.614 154.675C469.307 154.317 462.754 149.837 455.074 144.691C447.368 139.546 440.994 135.322 440.917 135.296C440.814 135.27 434.184 139.29 426.222 144.23C418.235 149.146 411.528 153.344 411.349 153.549ZM5 187.315H6.4848C7.304 187.315 8.8144 187.443 9.8384 187.597C10.8624 187.75 12.6032 188.109 13.704 188.39C14.7792 188.672 16.4688 189.235 17.4672 189.645C18.44 190.029 19.8992 190.746 20.6928 191.181C21.4608 191.642 22.7152 192.461 23.4576 193.024C24.2 193.562 25.5312 194.739 26.4272 195.661C27.2976 196.557 28.5264 198.016 29.1152 198.912C29.704 199.782 30.4464 200.96 30.7536 201.498C31.0608 202.035 31.6752 203.366 32.1104 204.467C32.5456 205.542 33.0832 207.053 33.288 207.77C33.4928 208.512 33.9792 211.021 34.3888 213.35C34.7728 215.68 35.2848 219.213 35.5408 221.261C35.7968 223.283 36.1296 226.253 36.2576 227.891C36.4112 229.53 36.616 232.806 36.7184 235.162C36.8208 237.542 37.128 241.306 37.3584 243.507C37.6144 245.734 38.024 248.602 38.2544 249.882C38.5104 251.187 38.9456 253.107 39.2528 254.208C39.56 255.283 40.072 256.947 40.4304 257.894C40.7888 258.816 41.4544 260.403 41.9664 261.376C42.4528 262.374 43.272 263.834 43.8096 264.627C44.3472 265.421 45.2944 266.624 45.9344 267.315C46.5744 268.006 47.0352 268.621 46.984 268.698C46.9328 268.774 37.4608 268.851 5 268.851V187.315ZM506.76 187.315V268.851H485.845C474.325 268.851 464.853 268.8 464.776 268.723C464.725 268.646 465.16 268.058 465.749 267.392C466.338 266.752 467.285 265.549 467.874 264.704C468.437 263.859 469.307 262.374 469.794 261.376C470.28 260.403 470.971 258.816 471.33 257.894C471.688 256.947 472.2 255.283 472.507 254.208C472.814 253.107 473.25 251.187 473.506 249.882C473.736 248.602 474.146 245.734 474.402 243.507C474.632 241.306 474.939 237.542 475.042 235.162C475.144 232.806 475.4 229.171 475.579 227.098C475.758 225.024 476.142 221.773 476.373 219.904C476.629 218.035 477.09 215.04 477.371 213.248C477.678 211.482 478.088 209.331 478.293 208.512C478.498 207.667 478.907 206.336 479.189 205.542C479.496 204.749 480.034 203.443 480.418 202.675C480.776 201.882 481.698 200.346 482.414 199.245C483.182 198.118 484.411 196.582 485.358 195.635C486.229 194.739 487.56 193.562 488.302 193.024C489.045 192.486 490.376 191.616 491.272 191.104C492.142 190.618 493.525 189.952 494.318 189.619C495.086 189.312 496.546 188.826 497.544 188.544C498.517 188.262 500.053 187.904 500.949 187.75C501.819 187.622 502.741 187.469 502.997 187.418C503.253 187.392 504.2 187.341 506.76 187.315ZM227.003 232.09C227.08 232.141 233.582 240.973 241.467 251.75C249.352 262.528 255.829 271.334 255.88 271.334C255.931 271.334 261.819 263.296 268.962 253.466C276.104 243.635 282.53 234.778 283.246 233.805C283.963 232.832 284.578 232.038 284.629 232.064C284.68 232.09 285.218 240.717 285.806 251.238C286.395 261.76 286.882 270.746 286.882 272.077H224.878V271.232C224.878 270.746 225.288 262.323 225.774 252.493C226.261 242.662 226.722 234.035 226.798 233.318C226.85 232.602 226.952 232.064 227.003 232.09ZM223.803 290.918H287.957V291.789C287.957 292.25 288.11 295.962 288.315 300.006C288.494 304.051 288.699 307.942 288.853 309.965H222.728L222.83 308.659C222.882 307.942 223.112 303.974 223.368 299.827C223.598 295.68 223.803 291.968 223.803 291.61V290.918ZM289.749 328.832V329.395C289.774 329.728 289.979 334.054 290.747 348.032H221.038L221.499 338.483C221.755 333.21 221.986 328.883 221.986 328.858C222.011 328.832 237.243 328.832 289.749 328.832ZM219.861 366.899H291.72V367.386C291.72 367.667 291.95 371.917 292.258 376.858C292.565 381.798 292.795 385.869 292.795 385.894C292.795 385.92 276.181 385.92 255.88 385.92C235.579 385.92 218.965 385.869 218.965 385.792C218.965 385.715 219.17 381.67 219.426 376.781C219.656 371.891 219.861 367.667 219.861 367.386V366.899ZM293.691 404.966L293.794 406.349C293.845 407.117 294.408 417.69 295.048 429.85C295.688 441.984 296.2 452.224 296.149 452.557C296.123 453.043 291.618 459.75 276.027 482.586C264.994 498.765 255.931 511.949 255.854 511.872C255.803 511.795 247.074 498.97 236.45 483.354C225.8 467.738 216.814 454.528 215.714 453.018L216.917 429.21C217.557 416.128 218.12 405.325 218.171 405.197C218.222 405.018 225.954 404.966 293.691 404.966Z" fill="#002F6C"/>
</g>
<defs>
<clipPath id="clip0_2_446">
<rect width="501.76" height="512" fill="white" transform="translate(5)"/>
</clipPath>
</defs>
</svg>
