<svg width="512" height="512" viewBox="0 0 512 512" fill="none" xmlns="http://www.w3.org/2000/svg">
<g clip-path="url(#clip0_2_749)">
<path d="M255.473 511.979C236.409 497.247 218.872 480.638 203.115 462.404C185.188 441.669 168.974 419.499 154.616 396.144C129.436 355.304 109.455 311.46 93.579 266.247C77.6161 220.455 65.9849 173.274 58.8185 125.304C54.7022 97.9813 52.093 70.4384 51.0216 42.8239C50.6833 33.7301 50.5398 24.6363 50.4937 15.5527V10.9136C86.0999 15.9321 122.111 17.4443 158.01 15.4246C190.894 13.692 223.747 9.05791 255.447 0.0205048C255.54 -0.00512595 255.663 -0.00512595 255.755 0.0205048C277.844 6.51021 300.768 10.524 323.635 12.9948C369.202 17.8903 415.189 17.1572 460.565 10.8316C460.77 73.468 453.23 135.879 438.123 196.665C426.717 243.369 410.842 288.838 390.706 332.487C373.826 369.175 353.162 404.002 329.074 436.415C313.957 456.643 297.036 475.471 278.51 492.644C271.154 499.446 263.47 505.879 255.56 511.995L255.478 511.974L255.473 511.979Z" fill="#C89C66"/>
<path d="M236.45 487.723C198.68 452.696 167.38 408.985 143.103 363.67C120.517 321.343 102.309 276.843 88.7347 230.836C71.6134 173.238 61.2329 113.831 57.8035 53.8349C57.1166 41.9422 56.845 29.9829 56.7219 18.0492C91.2773 22.4372 126.161 23.5906 160.931 21.5042C192.826 19.6434 224.629 15.1273 255.437 6.51022C255.529 6.48459 255.652 6.48459 255.745 6.51022C269.724 10.5804 283.959 13.7432 298.343 15.9885C341.203 22.8831 384.965 24.1442 428.24 20.8481C436.97 20.1817 445.679 19.2487 454.378 18.1312C454.04 66.0248 449.154 113.79 439.779 160.756C430.598 207.394 417.013 253.042 399.231 297.117C382.115 339.444 361.133 379.668 335.195 417.269C318.294 441.931 298.866 464.763 277.228 485.39C270.293 491.957 263.034 498.195 255.601 504.142C248.988 498.908 242.571 493.438 236.445 487.738L236.455 487.717L236.45 487.723ZM249.629 132.624C252.11 132.885 254.617 132.931 257.098 132.783C262.686 132.229 268.109 130.517 272.994 127.749C273.256 125.909 273.22 124.048 272.902 122.223C270.734 124.207 268.242 125.801 265.546 126.97C259.118 129.64 252.572 129.461 247.158 124.658C239.049 117.404 237.793 104.251 239.474 94.1418C241.279 83.2641 248.937 75.8773 260.333 77.4305C262.117 77.6766 268.083 79.1478 268.514 81.1624C268.919 83.3615 269.104 85.576 269.098 87.8058L271.918 87.3189C272.733 83.3615 273.476 79.4092 274.014 75.4262C267.494 73.3757 260.609 72.7555 253.817 73.6013C243.191 74.5958 234.061 81.5776 230.304 91.5736C227.946 98.1197 227.289 105.168 228.417 112.047C229.94 122.889 238.562 131.701 249.629 132.639L249.64 132.629L249.629 132.624ZM280.155 173.633C283.19 174.197 286.814 173.269 288.752 170.767C290.413 168.604 291.402 165.6 290.341 162.981C289.439 160.756 287.25 159.628 285.2 158.66C286.215 158.07 287.153 157.342 287.978 156.496C289.623 154.897 290.146 152.467 289.331 150.324C287.958 147.177 283.928 146.388 280.812 147.213C277.751 148.002 275.609 150.745 275.609 153.902C275.675 156.573 277.321 158.947 279.781 159.982C276.834 161.192 274.865 164.021 274.773 167.215C274.783 170.373 277.049 173.069 280.145 173.643L280.155 173.633ZM257.718 62.7902C258.421 63.1542 259.231 63.2311 259.994 63.0158C261.706 62.5186 262.716 60.7808 262.306 59.0533C261.855 57.336 260.087 56.3005 258.369 56.7414C256.632 57.172 255.57 58.92 256.001 60.668C256.247 61.5907 256.873 62.3596 257.718 62.8005V62.7902ZM261.947 173.669C264.336 174.335 266.91 173.715 268.729 172.023C272.405 168.097 272.353 162.197 272.225 157.122C272.133 153.477 271.246 148.874 267.479 147.387C265.315 146.521 262.219 146.552 260.328 148.13C257.8 150.227 256.878 152.99 256.478 156.163C255.878 161.264 255.668 171.947 261.983 173.659H261.958L261.947 173.669ZM295.083 62.8569C295.795 63.2157 296.616 63.2618 297.364 62.9697C299.076 62.416 300.004 60.5911 299.461 58.8944C299.45 58.838 299.435 58.8021 299.404 58.7457C299.133 57.9101 298.522 57.2437 297.713 56.8952C296.123 56.2646 294.304 56.9157 293.483 58.4176C292.674 60.017 293.294 61.9598 294.903 62.7749C294.96 62.8005 295.016 62.8415 295.073 62.8569H295.083ZM240.535 63.4361C241.079 63.4361 241.617 63.3797 242.16 63.2977C245.287 62.4314 248.368 61.4369 251.403 60.3399L250.644 58.1767C249.506 58.5407 247.487 59.2583 246.39 58.5919C245.949 58.0844 245.692 57.4437 245.677 56.7773C245.303 52.0253 245.19 47.2529 245.369 42.4855C245.451 37.3748 245.708 32.264 246.128 27.1737L238.198 29.4754C238.603 35.8523 238.618 42.2549 238.629 48.6523C238.762 50.9335 238.639 53.2197 238.29 55.4752C238.065 56.1878 237.588 56.808 236.957 57.213C234.62 59.0635 231.554 60.3143 228.52 59.5044C223.727 58.228 223.296 53.4555 223.276 49.3085C223.276 41.9781 223.388 34.6733 223.194 27.3634C219.349 28.3989 215.453 29.2242 211.516 29.8137V31.9769C212.372 31.9769 216.155 31.613 216.222 32.7664C216.642 40.1532 216.335 47.5092 216.699 54.855C216.766 56.8849 217.534 58.838 218.862 60.3707C221.251 62.8979 224.506 63.6104 227.899 63.472C231.78 63.2465 235.502 61.8265 238.536 59.4019C238.547 60.5962 238.762 63.6207 240.535 63.4413V63.4361ZM272.974 63.0722C278.761 64.2666 286.953 62.7082 289.911 57.1156C291.12 54.9472 291.459 52.379 290.838 49.9646C288.911 44.0439 282.329 42.4855 277.526 39.415C276.972 38.9998 276.49 38.5128 276.09 37.9592C274.681 35.5909 275.075 32.0948 277.905 30.9107C280.284 29.988 282.99 30.6083 284.733 32.4691L284.79 36.3957L286.953 35.8523L288.127 28.5629C287.112 28.1887 286.051 27.917 284.979 27.7479C280.114 27.0456 273.753 27.7479 270.662 32.0692C268.586 34.9552 268.273 39.2663 270.585 42.1318C273.584 45.8791 278.869 46.771 282.396 49.8826C284.846 52.5021 284.708 56.5978 282.103 59.0533C281.529 59.5966 280.873 60.0119 280.14 60.3194C276.101 61.5958 272.753 58.5458 270.677 55.3983L267.191 60.6526C268.939 61.8265 270.923 62.6518 272.989 63.0773H272.964H272.974V63.0722ZM311.625 132.614C319.734 133.495 327.916 131.798 335 127.739C335.272 125.898 335.236 124.027 334.934 122.197C331.807 125.042 328.049 127.082 323.958 128.144C318.771 129.553 313.219 128.226 309.211 124.648C300.942 116.989 299.732 104.327 301.562 93.8035C303.444 82.9924 311.107 75.9337 322.333 77.4203C324.138 77.6561 330.105 79.1324 330.525 81.1521C330.94 83.3307 331.125 85.5657 331.099 87.7956L333.954 87.3086C334.769 83.3512 335.503 79.399 336.041 75.4159C332.027 74.119 327.849 73.3962 323.63 73.2527C310.569 72.3402 297.953 78.1687 292.73 90.5483C288.926 99.678 288.86 109.951 292.571 119.127C295.795 126.672 303.561 131.829 311.651 132.619H311.625V132.614ZM128.273 131.67C139.648 131.229 150.982 131.265 162.398 131.67L162.885 123.976C155.631 126.898 147.475 127.564 139.714 127.544C138.633 109.346 139.15 91.1173 139.35 72.9195C133.035 74.5086 126.684 75.9183 120.271 77.0256L120.891 79.8244C122.901 79.7578 124.895 79.8244 126.884 79.8244C127.606 79.8244 127.514 80.0192 127.965 80.4447C128.042 80.7471 128.088 81.065 128.114 81.3725C128.698 87.8366 128.929 94.3366 128.837 100.837C128.811 111.207 128.698 121.48 128.283 131.67L128.273 131.66V131.67ZM213.254 131.67H213.669L214.269 124.053C206.462 126.77 197.942 127.426 189.751 127.436C189.197 119.142 189.095 110.807 189.253 102.492C195.21 102.492 201.146 102.795 207.103 103.271L207.62 97.8685C201.525 98.499 195.389 98.6579 189.233 98.7041L189.879 78.1584C191.909 78.1584 193.954 78.2968 195.994 78.4199C198.711 78.6095 202.899 78.7121 205.426 79.5015C205.652 79.5784 205.847 79.7065 205.99 79.8859L206.488 87.0523L209.204 86.8165L210.896 73.9089C201.792 74.3241 192.268 73.5705 183.348 74.1447C178.935 74.4369 174.695 75.9491 170.374 76.8615L170.974 79.8039C173.039 79.6348 175.126 79.6348 177.192 79.8039C177.427 79.8603 177.668 79.9423 177.894 80.05C178.155 80.3524 178.314 80.7369 178.324 81.1316C179.406 97.9505 178.822 114.862 178.324 131.706C189.992 131.301 201.633 131.322 213.244 131.732V131.675L213.254 131.67ZM389.917 131.67H390.265L390.865 124.022C383.078 126.8 374.528 127.385 366.306 127.441C365.778 119.137 365.66 110.802 365.819 102.487C371.755 102.487 377.711 102.779 383.576 103.266L384.175 97.8634C378.096 98.4939 371.97 98.6528 365.875 98.6989C365.875 91.8709 366.183 85.0019 366.495 78.1533C368.997 78.1533 371.503 78.2661 374.01 78.4455C376.742 78.6505 379.818 78.6505 382.438 79.5989C382.586 79.9628 382.684 80.3576 382.73 80.7471C382.919 82.8335 383.037 84.9198 383.104 87.0318L385.826 86.7858L387.518 73.8115C378.414 74.2523 368.961 73.5193 360.047 74.0729C355.602 74.3651 351.317 75.8773 346.98 76.7898L347.58 79.7014C349.676 79.5527 351.788 79.5681 353.875 79.7834C354.392 79.7834 354.833 80.1884 354.879 80.7061C355.295 86.3141 355.479 91.9632 355.5 97.5968C355.5 108.628 355.331 119.665 354.992 130.722V131.681C366.644 131.322 378.29 131.265 389.932 131.737V131.681L389.911 131.66L389.917 131.67ZM233.067 173.3H233.487V172.105C232.293 172.116 231.108 171.982 229.945 171.741C229.663 171.48 229.494 171.121 229.448 170.747C229.12 162.771 229.448 154.999 229.571 147.044C229.514 146.839 229.401 146.659 229.232 146.516C226.367 147.971 223.399 149.222 220.344 150.227L220.569 152.165C222.127 151.375 223.727 150.688 225.285 149.919C225.398 149.873 225.5 149.843 225.613 149.807C225.772 149.807 225.921 149.889 226.09 149.94C226.09 156.876 226.362 163.852 225.788 170.752C225.762 171.249 225.424 171.675 224.952 171.834C223.855 172.003 222.727 172.105 221.61 172.126L221.692 173.3C225.485 173.218 229.263 173.187 233.067 173.3ZM240.525 173.859L241.181 173.725C245.651 172.577 249.45 169.629 251.659 165.559C254.048 161.038 254.899 152.247 250.578 148.623C247.871 146.413 244.047 146.254 241.171 148.218C237.978 150.699 236.681 154.907 237.931 158.752C238.869 161.966 242.104 163.929 245.39 163.288C247.343 162.981 248.63 161.335 250.116 160.208C249.757 167.056 245.108 171.526 238.664 173.023C239.013 173.315 240.074 174.007 240.525 173.859ZM275.004 434.124L275.332 434.247L275.962 434.113C275.398 433.693 274.901 433.185 274.506 432.611C274.506 432.668 274.414 433.877 274.676 434.047C274.722 434.113 274.845 434.093 275.014 434.124H275.004ZM242.565 449.589C242.647 449.722 242.755 449.835 242.827 449.963C243.063 449.487 243.211 448.959 243.247 448.431C242.883 446.334 242.986 444.822 242.77 442.905C242.576 442.377 242.432 441.833 242.33 441.28C242.612 440.285 242.95 439.316 243.334 438.358C243.345 437.486 243.252 436.61 243.042 435.754C242.678 435.031 242.396 434.267 242.196 433.478C242.273 431.986 242.863 429.756 242.899 428.29C242.75 426.634 242.852 424.984 243.227 423.359C243.452 423.415 244.58 424.24 244.964 424.44C244.985 425.307 245.328 426.142 245.944 426.752L246.584 426.311C246.395 426.106 246.22 425.881 246.056 425.655C245.923 425.46 245.862 425.235 245.862 425.009C245.841 423.948 245.431 422.923 244.708 422.144C245.236 421.118 245.61 419.729 246.097 418.848C246.743 417.653 247.599 417.71 247.533 416.151L248.912 414.731C249.045 416.525 249.373 417.786 249.634 419.483C249.691 419.857 249.286 421.129 249.388 421.421C249.65 422.154 249.809 422.923 249.85 423.702C249.783 424.604 249.419 425.471 249.296 426.306C249.363 426.952 249.455 427.613 249.588 428.249C249.327 430.11 248.932 431.96 248.394 433.765C248.281 434.308 248.507 435.549 248.394 436.041C248.281 436.533 247.748 437.281 247.774 437.676C247.774 438.588 247.604 439.378 247.604 440.27V440.577C247.912 441.275 248.45 442.069 248.204 442.858C248.296 443.053 248.45 443.648 248.512 443.433C249.009 442.382 248.917 441.141 248.25 440.193C248.635 439.403 248.758 438.532 248.614 437.666C248.963 437.179 249.204 436.615 249.347 436.03C249.44 435.241 249.47 434.441 249.429 433.652C250.583 434.067 251.526 434.918 252.049 436.03L253.13 436.164L253.648 438.173C253.874 437.384 253.874 436.569 253.648 435.779C252.556 434.493 251.367 433.298 250.08 432.217C250.229 430.658 250.485 429.126 250.813 427.603C250.983 426.193 251.049 424.794 250.983 423.374C251.177 422.887 251.726 422.292 251.669 421.749C251.546 420.667 251.828 418.068 253.079 417.735C253.53 416.356 253.351 415.808 254.791 415.059C255.155 416.151 255.796 417.135 256.642 417.925C256.662 419.042 256.944 420.124 257.457 421.098C257.58 421.964 257.58 422.826 257.457 423.692C257.129 424.461 256.478 425.225 256.124 425.973C256.032 426.178 256.032 426.404 256.124 426.614C256.462 427.608 256.565 428.664 256.432 429.695C257.277 430.904 256.77 432.683 256.227 433.924C256.555 435.144 256.755 436.405 256.816 437.661C256.76 437.886 256.816 438.122 256.965 438.306C257.472 438.947 257.708 439.752 257.631 440.572C257.395 442.002 256.965 443.371 256.652 444.801C256.462 444.94 256.124 445.176 256.006 445.252C255.714 446.595 255.642 447.974 255.76 449.348C255.76 449.425 255.76 449.687 255.76 449.594H256.493C256.468 448.513 256.514 447.426 256.662 446.355C256.867 445.765 257.236 445.237 257.744 444.863L259.389 445.381C259.471 445.473 259.615 445.575 259.651 445.688C259.876 446.56 260.574 446.56 261.107 446.949C261.64 447.339 261.696 447.739 261.978 448.323C262.101 448.569 262.27 448.559 262.337 448.323C262.357 448.021 262.337 447.703 262.27 447.4C261.527 446.836 260.953 446.093 260.579 445.237L258.118 443.704C258.108 443.284 258.144 442.869 258.241 442.464C258.323 442.218 258.964 440.987 258.984 440.839C258.938 439.665 258.759 438.481 258.431 437.343C259.097 437.174 259.805 437.266 260.394 437.614C261.317 438.312 262.168 439.05 262.978 439.86C264.792 440.106 264.839 440.844 265.484 442.387C266.299 442.864 267.176 443.761 267.853 444.099C268.268 444.294 268.791 444.36 268.442 444.099C267.801 443.581 267.202 443.017 266.617 442.438L266.31 442.156C266.007 441.177 265.474 440.295 264.777 439.562C264.034 439.28 263.301 438.932 262.614 438.537C262.163 438.173 261.824 437.666 261.655 437.102C261.573 436.989 261.45 436.907 261.317 436.856C260.266 436.359 259.261 435.764 258.328 435.072C258.205 434.98 258.123 434.846 258.082 434.708C257.529 433.052 258.949 431.596 258.636 430.479C258.272 429.551 258.159 428.541 258.328 427.557C258.656 426.193 259.646 424.215 259.841 423.02C259.979 421.057 259.815 419.073 259.343 417.156C259.625 416.443 259.984 415.767 260.425 415.136C260.989 415.352 261.486 415.721 261.835 416.218C262.081 417.571 262.537 418.878 263.178 420.098C263.096 420.642 263.096 421.19 263.178 421.734C263.721 423.312 264.106 424.948 264.341 426.598L263.357 427.331C263.096 427.706 263.188 428.413 262.547 429.213C262.424 430.51 262.455 431.817 262.614 433.114C262.614 433.114 262.614 433.247 262.614 433.226L263.132 433.068C262.906 431.996 262.942 430.889 263.244 429.828C263.536 429.31 263.865 428.823 264.229 428.351C264.536 428.044 264.931 427.823 265.367 427.721C265.613 429.346 265.787 431.063 266.012 432.739C265.93 433.17 265.874 433.606 265.854 434.036C265.874 435.051 266.115 436.046 266.566 436.958C266.904 437.814 268.068 437.943 268.801 438.563C269.714 439.352 270.539 440.224 271.282 441.182C271.374 441.264 271.472 441.387 271.518 441.51C271.79 442.72 272.164 443.899 272.666 445.032L273.081 445.155C273.163 444.509 272.743 442.874 272.779 441.915C272.056 440.957 271.518 439.906 270.898 438.891C270.477 438.44 269.96 438.091 269.385 437.886C270.042 437.727 270.718 437.625 271.385 437.604C272.23 437.953 273.153 438.081 274.055 438.009C275.409 438.629 276.808 439.173 278.254 439.67C278.5 440.911 278.628 442.177 278.659 443.458C278.659 443.674 278.951 444.294 278.966 444.048C279.043 442.807 279.043 441.556 278.966 440.316C281.022 440.552 281.129 440.813 282.76 441.951L283.257 441.756C282.555 441.11 281.596 440.536 280.812 439.87C278.818 439.091 277.316 437.932 275.286 437.153C272.994 436.456 270.211 436.174 267.883 435.631V435.01L268.022 433.375L267.084 431.099L266.812 426.234L265.674 423.953L265.197 421.031L263.47 416.802L263.311 416.161C263.173 415.71 263.321 415.223 263.685 414.921C264.664 416.254 265.546 417.643 266.346 419.083C266.72 420.134 266.986 421.226 267.115 422.323C267.161 422.518 267.304 422.687 267.479 422.774C268.529 423.415 269.421 424.276 270.108 425.301L273.753 426.578C273.087 427.424 273.558 429.51 273.404 430.761C273.789 431.448 273.922 432.273 274.286 432.996C274.491 433.426 274.568 432.857 274.491 432.375C274.378 431.719 274.209 431.058 273.973 430.433C273.973 430.31 273.973 430.207 274.05 430.094C274.266 429.013 274.424 428.167 274.604 427.126C274.763 427.014 275.024 426.65 275.122 426.834L275.752 428.095C276.249 428.029 276.757 428.105 277.208 428.31C278.684 429.689 280.591 430.52 282.611 430.612C282.442 430.884 282.478 431.412 282.349 431.694C282.652 432.688 283.149 433.621 283.826 434.416C284.021 434.575 284.133 434.821 284.133 435.072C284.133 435.625 284.226 436.169 284.405 436.697C284.866 437.174 285.569 437.061 285.815 437.778C287.419 437.722 288.875 438.763 289.326 440.316L289.803 439.901C289.521 439.337 289.183 438.819 288.808 438.322C288.332 437.835 287.814 437.399 287.24 437.035C286.743 436.789 286.204 436.615 285.651 436.517C285.512 436.369 285.405 436.189 285.343 436C284.882 434.298 284.272 432.637 283.539 431.038C284.205 430.925 285.097 431.115 285.953 430.961C286.394 431.038 286.835 431.166 287.25 431.335C288.188 432.206 289.167 433.647 290.172 434.575C291.084 435.354 292.228 435.784 293.412 435.805C293.94 436.538 296.651 437.722 297.641 438.342C298.005 438.65 298.343 439.029 298.62 439.424C298.845 439.696 298.892 439.275 298.733 438.963C298.538 438.599 298.302 438.26 298.02 437.958C297.072 437.02 295.857 436.502 294.965 435.692C295.267 435.344 295.667 435.108 296.113 434.98C297.815 435.205 299.522 435.318 301.224 435.308L301.711 434.81C300.547 434.282 299.25 434.108 297.979 434.293C297.282 434.272 296.616 434.077 296.026 433.729C295.821 433.652 295.585 433.652 295.38 433.729C294.442 433.975 293.509 434.293 292.592 434.611C292.386 434.452 290.064 432.335 290.018 432.186C289.711 431.407 289.203 430.71 288.562 430.176C287.635 429.792 286.645 429.531 285.64 429.418C284.436 429.495 283.247 429.372 282.073 429.079C280.955 428.741 279.909 428.213 278.982 427.501C279.346 427.362 279.725 427.275 280.12 427.239C280.986 427.172 281.857 427.306 282.678 427.603C283.098 427.398 283.559 427.275 284.031 427.265C285.338 427.378 286.681 427.388 287.932 427.501C288.983 427.695 289.962 428.09 290.854 428.695C291.059 428.787 291.284 428.818 291.5 428.751C292.233 428.592 292.955 428.377 293.663 428.105L293.473 427.562C292.694 427.926 291.812 427.977 290.992 427.675C290.992 426.875 291.182 426.086 291.51 425.363C291.51 425.148 291.433 424.912 291.387 424.697C290.967 425.624 290.382 426.47 289.67 427.203C289.254 426.819 288.747 426.547 288.193 426.424C285.917 426.311 283.728 425.973 281.704 425.947C280.725 426.081 279.761 426.152 278.782 426.163C276.695 425.927 276.562 424.64 275.214 424.276C274.527 424.081 273.204 424.163 272.62 423.912C271.897 423.538 271.231 423.046 270.636 422.467C270.513 422.354 270.354 422.277 270.298 422.128C269.924 420.211 268.919 418.473 267.443 417.187C267.648 416.69 268.165 416.377 268.709 416.428C269.309 416.848 269.929 417.284 270.513 417.745C271.087 417.576 271.687 417.54 272.287 417.653C273.122 418.017 273.891 418.468 274.635 419.017C275.357 418.924 276.08 418.96 276.798 419.13C278.085 419.535 280.407 420.688 281.663 420.934C282.396 421.083 283.887 420.585 284.595 420.688C285.938 421.036 287.235 421.498 288.485 422.098C288.485 422.098 288.788 422.164 288.814 422.18C289.454 421.985 290.121 421.944 290.767 422.087C291.295 422.257 291.93 422.79 292.392 422.933C293.34 423.066 294.319 422.81 295.088 422.236C296.692 423.184 298.405 423.964 300.178 424.558C301.034 424.707 301.906 424.753 302.782 424.691L303.403 424.194C301.747 423.958 300.117 423.538 298.553 422.928C297.625 422.513 295.744 421.088 294.975 420.862C293.35 420.421 290.982 421.001 289.47 420.785C288.321 420.626 286.932 419.545 285.892 419.237C284.4 418.93 282.857 418.873 281.335 419.048C279.843 418.325 278.443 417.458 277.116 416.454C276.357 416.408 275.593 416.331 274.84 416.208C273.676 415.849 272.615 415.213 271.759 414.347C271.467 414.055 271.431 413.604 271.677 413.265C271.451 413.096 271.2 412.958 270.944 412.835C269.17 412.148 267.438 411.358 265.777 410.456C265.664 410.389 265.572 410.287 265.515 410.164C264.818 408.97 263.926 407.929 262.855 407.063C262.855 406.847 262.788 404.828 262.732 404.638C262.393 403.556 261.286 401.398 261.086 400.419C260.953 399.009 260.738 397.62 260.445 396.246C260.671 395.488 260.866 394.714 261.02 393.935C261.02 392.955 260.881 389.331 261.322 388.731C261.02 388.009 260.815 387.24 260.702 386.45C260.702 385.143 261.009 383.846 261.122 382.56C261.255 380.058 261.204 377.551 260.973 375.06C262.522 375.352 264.1 375.444 265.679 375.362C266.043 375.737 266.525 375.983 267.043 376.049C267.596 375.957 268.16 376.029 268.668 376.265C271.251 377.495 273.327 379.607 274.501 382.221C275.101 383.441 276.362 385.989 276.326 387.106C276.316 387.353 276.439 387.593 276.634 387.747C277.121 388.168 278.044 388.675 278.167 389.372C278.459 390.977 278.551 392.612 278.459 394.247C278.3 395.103 278.074 395.949 277.762 396.764C277.234 397.026 276.68 397.215 276.106 397.338C275.127 397.554 273.102 397.769 271.897 398.005C271.615 398.061 271.369 398.21 271.185 398.42C270.995 398.722 270.913 399.076 270.939 399.435C270.646 399.886 269.662 400.429 269.775 401.06C269.842 401.501 269.765 401.972 269.56 402.367C269.58 402.572 269.616 402.782 269.652 402.987C269.847 403.069 270.067 403.126 270.283 403.126C272.225 402.987 274.184 402.987 276.137 403.126C276.624 402.864 277.808 401.747 278.3 401.408C278.366 400.64 278.751 399.922 279.381 399.471C280.227 398.83 281.094 398.389 281.955 397.836C282.124 397.63 282.293 397.42 282.432 397.195C282.703 396.323 283.2 395.539 283.867 394.914C284.113 394.406 284.226 393.852 284.205 393.289C284.149 392.689 283.821 392.14 283.303 391.833C283.277 391.674 283.277 391.505 283.303 391.346C283.744 389.757 282.447 388.967 282.467 387.768C282.488 386.568 282.852 385.261 282.883 384.2C282.908 383.939 283.021 383.703 283.211 383.513C284.308 383.062 285.333 382.431 286.235 381.662C286.481 382.759 286.902 383.826 287.496 384.8C288.588 386.163 289.89 387.337 291.366 388.285C292.202 388.793 292.786 388.839 293.386 389.639C295.631 390.203 298.282 390.623 300.45 391.264C300.891 391.387 302.29 392.145 302.731 392.192C303.172 392.238 303.951 392.079 304.556 392.053C304.689 392.13 304.802 392.212 304.915 392.315C305.356 392.776 305.761 393.396 306.176 393.96C306.683 394.996 307.099 396.093 307.396 397.2C307.406 398.066 307.35 398.927 307.227 399.783C307.17 400.03 307.058 400.26 306.878 400.44C305.95 401.255 304.715 401.67 303.469 401.578C303.064 402.121 302.541 402.557 301.921 402.808C301.921 403.213 301.706 404.3 302.07 404.546C303.218 405.279 304.448 405.627 305.648 406.529C305.838 406.668 306.068 406.719 306.294 406.663C307.309 406.401 308.954 406.089 309.872 405.735C310.323 405.545 310.753 405.304 311.138 404.992C311.138 404.643 311.374 403.49 311.43 403.049C312.05 402.459 312.378 401.629 312.378 400.773C312.143 399.025 311.589 397.323 310.774 395.754C310.887 394.591 310.528 393.417 309.79 392.515C309.979 391.705 309.923 390.854 309.621 390.069C308.831 388.593 307.17 388.285 305.658 388.209C304.587 387.204 303.377 386.358 302.08 385.681C301.957 385.589 301.865 385.487 301.772 385.374C301.142 384.292 300.081 382.37 299.609 381.304C299.066 379.858 298.82 378.305 298.876 376.767C298.81 375.168 300.24 373.327 300.747 371.882C301.829 368.883 300.327 366.012 299.45 363.116C299.384 362.911 299.327 362.696 299.281 362.475L299.983 362.337C300.629 362.937 301.244 363.577 301.808 364.264C302.382 365.3 303.075 366.264 303.884 367.14L304.187 368.222C304.392 368.299 305.135 368.663 305.145 368.945C305.222 370.042 305.448 371.144 305.802 372.184C305.858 372.307 305.935 372.41 306.027 372.492C306.442 372.897 307.744 373.922 307.519 374.547C307.949 374.773 308.949 375.204 309.087 375.757C309.605 377.92 312.03 378.146 313.158 379.658C313.522 380.145 314.024 381.821 314.434 382.278C314.844 382.734 315.516 382.765 316.09 383.113C316.971 383.928 317.612 384.984 317.93 386.148C317.956 386.655 317.956 387.153 317.93 387.66L319.319 388.506V389.265L320.908 390.131L321.113 391.418H321.621C321.703 391.305 321.759 391.182 321.836 391.069C321.97 390.874 322.052 390.654 322.108 390.428C321.975 389.941 321.913 388.485 322.303 388.116L321.657 385.589C322.072 385.43 322.313 385.015 322.257 384.584C321.826 383.431 321.242 382.339 320.519 381.345C320.386 381.15 320.329 380.914 320.37 380.689C320.596 379.873 320.462 378.976 319.996 378.264C318.509 375.819 316.756 373.276 315.1 370.964C314.526 370.149 313.147 369.883 312.507 369.339C311.671 368.616 310.861 367.104 310.056 366.407C309.636 366.023 309.041 365.787 308.636 365.392C308.149 363.721 307.406 361.26 305.704 360.42C304.551 359.835 303.346 359.328 302.126 358.908C301.685 358.749 299.507 358.646 299.204 358.456C297.251 357.195 295.324 355.299 293.35 354.012C292.269 353.269 291.069 352.705 289.788 352.377C286.999 351.736 284.18 351.28 281.335 351.003C278.628 350.767 275.916 350.834 273.225 351.198C270.211 350.68 268.022 350.952 265.11 350.757C263.962 350.624 262.665 350.495 261.681 350.296C261.307 347.881 261.05 345.446 260.938 343.016C260.927 342.611 261.071 342.227 261.343 341.935L260.856 340.638C262.234 338.552 260.789 338.259 260.948 336.568C261.061 335.486 261.794 334.405 261.876 333.328C262.014 331.467 261.501 329.581 261.46 327.802C261.46 325.557 261.876 323.224 261.768 320.979C261.66 318.734 260.968 316.104 260.856 314.166C260.881 312.213 261.025 310.25 261.271 308.302C261.394 307.502 261.655 306.744 262.06 306.036C263.378 304.729 265.377 303.238 266.617 301.807C267.904 300.09 269.011 298.229 269.934 296.281C270.067 296.02 270.564 295.333 270.508 295.615C270.17 297.496 270.149 299.352 271.943 300.474C272.133 300.28 272.292 300.09 272.441 299.875C272.564 299.275 272.871 298.727 273.322 298.306C273.527 298.655 274.112 298.578 274.404 298.578C274.486 297.988 274.753 297.424 275.163 296.978L276.649 298.183L277.362 297.901C277.454 296.82 277.485 295.738 277.428 294.661C277.418 294.4 277.51 294.154 277.7 293.964C278.648 293.467 279.325 292.544 279.494 291.473C280.35 291.775 281.094 292.319 281.657 293.031C282.134 293.934 282.524 294.872 282.811 295.84C283.611 295.84 284.415 295.897 285.205 296.01C286.343 296.63 287.542 297.107 288.773 297.486C289.588 297.542 290.126 297.486 290.577 296.789L289.213 294.918L289.926 294.333C289.926 294.164 289.926 293.995 289.982 293.826C289.541 293.488 289.224 293.026 289.07 292.493L290.674 291.847L291.038 291.001C291.966 291.406 292.832 291.924 293.632 292.534C294.299 291.945 295.052 291.442 295.857 291.078C296.815 294.082 301.147 294.103 303.72 293.775C304.443 292.457 304.602 290.899 304.172 289.453C303.356 287.567 302.229 285.742 301.285 283.948C301.193 283.666 301.014 283.43 300.768 283.261C300.065 282.999 299.414 282.63 298.825 282.179C298.184 281.098 297.672 279.867 297.087 278.77L295.585 279.334C295.17 279.468 294.77 279.411 295.067 279.098C295.431 278.694 295.713 278.232 295.913 277.735C296.467 277.894 298.077 278.729 298.507 278.524C298.938 278.319 300.245 277.545 300.783 277.679C301.808 277.94 303.059 278.196 304.089 278.376C304.223 277.73 304.418 277.099 304.674 276.494C305.489 275.705 306.837 275.331 306.837 274.013C308.944 274.147 311.046 273.675 312.886 272.66C312.963 272.537 313.019 272.414 313.045 272.286C313.214 271.261 312.968 270.21 312.358 269.364C310.871 267.975 309.303 266.668 307.678 265.463L308.267 265.304C308.811 265.801 309.487 266.114 310.21 266.206C311.092 266.186 311.948 265.904 312.671 265.406C313.26 265.847 313.763 266.432 314.101 267.098C313.696 267.908 313.547 268.81 313.65 269.702C314.419 272.014 316.889 273.265 318.96 274.341C319.663 274.049 320.303 273.629 320.842 273.08C320.821 273.711 320.965 274.341 321.257 274.895C322.385 276.382 323.876 277.545 325.578 278.268C325.927 277.96 326.219 277.602 326.445 277.186C327.439 275.136 326.65 272.798 326.24 270.697C326.193 270.338 326.219 269.974 326.316 269.615C326.916 269.533 327.526 269.625 328.085 269.897C328.716 270.425 329.069 271.286 329.71 271.824C331.371 273.188 333.872 272.804 335.872 272.409C336.107 271.066 335.713 269.692 334.79 268.697C333.58 267.57 332.422 266.386 331.335 265.13C330.669 264.935 330.002 264.699 329.372 264.397C328.741 263.889 328.198 263.305 327.736 262.628C330.725 262.177 331.945 259.491 332.376 256.728C332.15 256.59 331.899 256.456 331.653 256.364C330.505 255.877 329.208 255.887 328.075 256.42C326.711 257.077 325.302 257.63 323.856 258.066L322.615 259.27C321.995 259.619 321.349 259.891 320.678 260.086C320.227 260.152 319.765 260.06 319.371 259.824C318.289 258.671 317.207 257.23 315.47 258.189C315.357 258.789 315.357 259.419 315.47 260.029C315.47 260.491 315.393 260.911 315.131 260.547C314.726 259.973 314.152 259.542 313.506 259.286C311.871 258.789 310.2 258.338 308.642 257.717C308.042 257.717 306.478 258.373 306.037 258.179C305.351 257.84 304.628 257.635 303.874 257.558C305.53 255.621 307.114 254.954 309.277 253.734C309.651 254.006 310.113 254.149 310.574 254.139C311.533 253.914 312.517 253.832 313.506 253.903C314.203 254.534 314.952 255.067 315.782 255.528C318.863 256.723 322 255.246 324.83 253.837C323.748 252.632 322.462 250.971 321.308 249.92C320.273 249.121 319.186 248.372 318.068 247.696C318.202 247.526 318.263 247.188 318.489 247.209C319.145 247.265 319.776 247.48 320.329 247.849C320.534 247.916 320.76 247.916 320.97 247.849C321.354 247.66 321.816 247.147 322.277 247.398C323.066 247.839 323.825 248.336 324.553 248.89C324.958 249.059 325.399 249.116 325.819 249.023C325.968 249.5 326.25 250.264 326.824 250.387C327.331 250.469 327.762 250.792 327.998 251.243C328.244 252.278 328.664 253.263 329.259 254.165C329.464 254.303 329.689 254.411 329.946 254.472C330.228 254.226 330.679 253.693 331.027 253.637C331.253 253.56 331.514 253.647 331.648 253.852C332.099 254.339 333.529 255.908 334.288 255.739C335.774 255.4 336.656 253.914 337.133 252.499C337.44 251.576 336.758 250.402 336.41 249.587H337.686L338.163 247.885C338.64 247.865 339.122 247.931 339.583 248.08C340.167 248.429 341.3 248.926 341.859 249.285C342.105 249.423 342.32 249.644 342.459 249.885C342.9 250.843 342.987 251.474 344.12 251.827C344.402 251.961 344.607 252.186 344.704 252.473C344.986 253.468 345.345 254.426 345.786 255.359C345.975 255.641 346.262 255.836 346.585 255.903C346.949 255.518 347.375 255.19 347.846 254.924C348.041 255.057 348.21 255.205 348.364 255.375C348.723 255.805 350.02 257.317 350.64 257.189C352.188 256.83 353.019 255.252 353.439 253.76C353.746 252.678 352.793 251.187 352.357 250.192C352.434 250.079 352.516 249.772 352.603 249.864C353.306 250.566 354.341 251.771 355.469 251.463C355.536 250.823 355.705 250.202 355.987 249.638C356.853 250.002 357.801 250.136 358.739 250.023C359.36 249.885 359.606 249.095 359.724 248.567C359.918 247.362 359.806 246.132 359.421 244.989C359.365 244.794 359.232 244.625 359.062 244.528C357.571 243.267 355.72 242.528 353.782 242.364L353.916 241.493C354.761 241.232 356.499 240.827 356.658 239.765C356.75 238.479 356.243 237.228 355.279 236.382H354.859C353.29 236.213 351.711 236.495 350.292 237.182C348.918 238.017 347.575 238.884 346.139 239.576C346.139 239.924 346.139 240.714 345.755 240.919C345.032 241.37 343.93 242.329 343.479 242.498C343.387 242.544 343.274 242.575 343.171 242.58C342.402 242.513 341.639 242.385 340.89 242.175C339.629 241.555 338.327 241.103 336.964 240.801C336.881 240.606 336.559 240.314 336.758 240.237C337.738 239.863 338.676 239.422 339.593 238.93C340.46 238.453 340.465 237.023 340.09 236.213C339.132 234.163 338.886 233.594 336.502 233.819C337.122 233.096 338.578 231.097 338.276 230.118C339.496 229.036 341.695 230.559 343.171 230.784C343.658 230.866 343.802 230.718 344.166 230.41C344.222 229.867 344.335 229.339 344.54 228.831C345.714 228.708 348.344 228.831 349.01 227.75C349.369 227.165 349.461 226.463 349.292 225.807C349.077 225.028 348.805 224.274 348.456 223.541C347.949 222.967 347.236 222.619 346.473 222.557C346.247 222.49 346.303 222.321 346.473 222.229C346.801 222.091 347.103 221.88 347.344 221.639L347.503 221.122C347.195 220.747 346.96 220.286 346.862 219.804C346.985 219.645 347.124 219.502 347.293 219.389C348.374 218.815 350.092 218.184 350.676 217.031C351.173 216.052 350.256 215.032 349.594 214.335C348.805 213.694 347.933 213.181 346.99 212.787C345.929 212.879 344.883 213.079 343.863 213.386C344.55 212.233 344.294 210.746 343.274 209.88C342.541 209.224 341.715 208.67 340.829 208.219C340.142 207.994 340.254 207.937 339.532 208.219C336.815 209.065 334.39 210.664 332.55 212.822C331.468 214.232 329.469 217.359 328.152 218.338C327.947 218.528 327.788 218.743 327.675 218.984C327.675 219.63 327.767 220.281 327.808 220.937C327.752 221.173 327.639 221.398 327.47 221.583C326.839 222.173 326.275 222.844 325.809 223.567C325.178 223.059 324.748 222.362 324.548 221.583C324.968 220.25 325.45 218.697 324.794 217.354C323.676 215.324 322.052 213.622 320.068 212.423C319.437 213.858 318.535 215.221 317.981 216.744C317.52 217.984 317.484 219.363 317.125 220.624C317.043 220.932 316.628 221.788 316.628 221.48C316.326 220.317 315.972 219.169 315.546 218.041C313.998 215.965 311.753 215.765 309.298 215.591C308.293 217.359 308.262 219.507 309.216 221.291C309.713 222.296 310.764 225.171 311.179 225.827C311.451 226.248 312.917 227.171 313.106 227.452C313.727 228.647 314.244 229.877 314.665 231.133C315.013 230.897 316.121 230.503 316.515 230.718C317.597 231.302 318.791 232.081 319.811 230.943L320.534 232.092C319.576 232.522 318.663 233.071 317.812 233.691C316.505 234.967 315.141 236.423 313.706 237.592C313.583 238.305 313.501 239.048 313.445 239.755C313.445 239.945 313.501 240.499 313.445 240.34L313.03 240.217C313.188 239.776 313.245 239.289 313.163 238.827C312.578 238.412 312.148 237.833 311.902 237.167C311.835 236.239 311.835 235.316 311.902 234.388L310.128 234.25C309.61 233.732 309.046 233.271 308.426 232.886C307.785 232.594 307.037 232.681 306.473 233.102C306.058 233.629 306.324 234.183 306.612 234.757C306.181 235.029 306.16 235.716 305.745 236.023C305.894 236.567 305.991 237.115 306.027 237.679L304.638 238.376C304.279 238.602 304.141 239.073 304.33 239.458C304.807 239.935 305.31 240.381 305.822 240.791C305.991 240.95 306.084 241.175 306.048 241.421C305.351 243.477 306.104 244.312 307.816 245.497C306.699 245.374 305.581 245.573 304.576 246.071C304.274 246.24 304.274 245.989 304.361 245.65C304.556 245.01 304.556 244.333 304.361 243.697C303.377 241.575 301.844 239.771 299.917 238.463C299.343 239.817 298.358 241.406 297.933 242.718C297.574 243.866 297.415 245.348 297.077 246.506C297 246.742 296.805 246.701 296.769 246.45C296.328 244.215 292.899 243.21 290.982 242.882C290.833 243.031 290.7 243.19 290.567 243.369C289.87 244.297 289.582 245.466 289.767 246.609C290.151 248.265 290.633 249.849 290.987 251.484C291.561 251.961 292.069 252.509 292.51 253.109C292.894 254.134 293.15 255.205 293.268 256.302C293.868 256.179 294.509 256.179 295.119 256.302C296.564 257.225 297.62 258.65 298.061 260.306C298.138 260.567 298.22 260.68 298.061 260.952C297.103 262.879 296.313 264.889 295.693 266.955C295.006 267.078 294.375 267.339 293.806 267.724C293.581 267.882 293.524 267.724 293.571 267.452C293.796 266.709 293.935 265.95 294.001 265.171C293.437 264.515 293.022 263.741 292.791 262.905C292.735 261.757 292.95 260.624 293.007 259.476C292.263 259.476 291.52 259.327 290.844 259.014C290.146 258.168 289.208 256.851 287.952 257.481C287.66 257.615 287.117 257.922 287.173 258.348C287.363 259.804 287.763 260.229 286.553 261.28C286.461 261.485 286.42 261.711 286.461 261.926C286.62 262.346 286.655 262.797 286.543 263.233C286.045 263.71 285.461 264.079 284.825 264.315C284.636 264.55 284.461 265.273 284.667 265.535C285.107 266.088 285.681 266.616 286.122 267.16C286.256 267.354 286.312 267.59 286.271 267.816C285.287 270.297 286.133 271.686 288.188 273.219L287.747 273.808C286.712 273.48 285.579 273.649 284.667 274.259C284 274.803 284.067 275.623 283.964 276.423C282.011 276.13 280.725 278.263 279.961 279.729C280.12 277.709 280.412 275.71 280.842 273.726C280.381 273.08 279.863 272.46 279.33 271.876C279.274 271.707 279.248 271.512 279.253 271.322C279.253 270.384 279.253 269.461 279.197 268.533L277.316 268.4C276.234 267.688 275.465 266.55 273.973 266.821C273.553 266.903 272.892 267.242 272.969 267.749C273.051 268.267 273.204 268.774 273.43 269.251C273.138 269.702 272.789 270.117 272.405 270.481L272.825 271.871C272.251 272.399 271.585 272.809 270.841 273.075C270.718 273.434 270.652 274.013 271 274.27C271.667 274.685 272.261 275.218 272.712 275.859C272.723 276.274 272.635 276.674 272.466 277.063C271.949 277.007 271.462 276.828 271.036 276.51C270.247 275.751 269.467 275.008 268.658 274.275C267.135 275.233 266.72 275.121 265.033 274.659C264.895 272.434 265.382 270.205 266.453 268.231C265.684 266.35 266.612 263.91 267.299 262.126C267.73 262.08 268.165 262.208 268.504 262.49C269.134 263.212 270.277 264.443 271.369 263.73C271.708 263.582 271.913 263.243 271.887 262.874C271.795 262.331 271.641 261.849 271.523 261.341L272.446 260.121L272.097 258.768C272.292 258.409 272.605 258.148 272.999 258.035L273.338 258.127C273.471 258.276 273.563 258.455 273.62 258.645C273.686 259.727 273.62 260.808 273.62 261.885C274.286 261.895 274.952 261.962 275.614 262.08C276.254 262.418 276.957 263.228 277.567 263.566C278.29 263.894 279.146 263.756 279.73 263.207C280.094 262.644 279.674 261.91 279.448 261.393C279.653 260.865 280.032 260.414 280.53 260.132C280.381 259.645 280.268 259.153 280.222 258.645C280.304 258.512 280.355 258.363 280.458 258.286C281.047 257.927 281.678 257.645 282.339 257.44C282.339 256.923 282.134 256.425 281.765 256.062C281.314 255.754 280.14 254.98 280.309 254.426C280.478 253.873 280.837 252.432 280.376 251.822C279.674 250.92 278.818 250.161 277.859 249.541C277.936 249.449 278.049 249.336 278.141 249.233C278.233 249.131 278.377 248.895 278.5 248.736C278.172 248.321 277.915 247.87 277.71 247.383C278.397 246.998 279.028 246.527 279.617 245.994C279.607 245.825 279.607 245.655 279.617 245.486C278.874 244.989 278.059 244.574 277.223 244.256C276.952 244.123 276.952 244.01 276.859 243.713C277.208 242.416 276.475 241.073 275.199 240.657C275.614 240.273 276.07 239.945 276.577 239.709C276.936 240.017 277.423 240.129 277.874 239.991C278.561 239.663 279.115 239.155 279.499 238.504C280.186 238.202 280.873 237.961 281.596 237.792C281.222 238.433 280.899 239.109 280.668 239.812C280.396 240.76 280.253 241.749 280.253 242.734C280.345 243.251 281.335 244.471 281.335 244.676V246.84C281.786 246.84 282.78 246.84 283.108 247.188C283.754 248.09 284.959 248.408 285.974 247.967C286.04 247.439 285.948 246.906 285.692 246.435C285.851 246.076 286.122 245.778 286.461 245.568L286.199 244.697C286.256 244.502 286.322 244.292 286.368 244.097C286.886 244.071 287.353 243.805 287.676 243.4V243.072C287.609 242.867 287.481 242.687 287.312 242.544C286.825 242.195 286.456 241.734 286.23 241.18C286.784 240.919 287.404 240.852 288.004 240.975L290.054 242.523C290.382 242.093 290.787 241.724 291.259 241.442C291.474 241.349 292.412 241.308 292.556 241.252C292.996 241.027 294.135 240.078 293.55 239.504C293.166 239.232 292.74 239.084 292.356 238.838C292.243 238.32 292.017 237.833 291.689 237.418C291.982 237.418 292.274 237.223 292.556 237.341C293.186 237.577 293.853 237.894 294.498 238.11C295.785 237.407 296.744 238.991 297.738 239.566C297.984 239.714 298.574 239.689 298.717 239.34C298.912 238.863 299.168 238.417 299.496 238.023C300.286 238.325 301.132 238.443 301.978 238.371C303.802 237.874 303.705 235.629 303.649 234.05C303.649 233.476 303.018 233.127 302.623 232.845C300.178 231.041 297.22 231.369 294.396 231.569C295.231 230.61 296.123 229.708 297.103 228.898C298.107 228.155 299.271 227.637 300.511 227.411L301.506 228.078C302.013 227.883 302.511 227.719 302.941 228.191C303.346 228.775 303.925 229.206 304.597 229.421L305.407 227.873C306.048 228.232 306.781 228.35 307.493 228.201C307.924 228.042 308.252 227.658 308.329 227.206C308.452 226.068 308.677 224.941 309.031 223.854C308.785 223.592 308.477 223.393 308.149 223.264C307.237 222.824 306.242 222.552 305.238 222.465C303.849 222.398 302.495 222.465 301.132 222.465C300.963 222.829 300.691 223.162 300.353 223.393C300.24 223.413 300.147 223.439 300.045 223.449L297.8 223.336C298.107 223.823 298.276 224.387 298.287 224.971C298.138 225.469 297.846 225.92 297.441 226.258C296.231 226.945 295.006 227.647 293.873 228.421C293.704 228.309 293.227 228.232 293.376 228.114C294.042 227.55 294.673 226.919 295.237 226.253C295.754 225.407 295.611 224.31 294.878 223.623C294.473 223.203 293.514 222.214 292.894 222.393C291.079 222.9 289.485 223.982 288.337 225.474C287.547 226.668 286.666 227.796 285.697 228.857C285.461 229.498 285.846 230.236 285.415 230.795C284.784 231.574 284.174 232.297 283.564 233.076C283.759 233.199 283.939 233.337 284.118 233.481L282.175 233.958C281.883 234.07 281.575 233.958 281.827 233.742C282.37 233.46 282.775 232.984 283.001 232.425C283.19 231.835 282.56 231.466 282.119 231.343L285.005 229.652C285.118 229.077 285.164 228.498 285.164 227.914C285.107 224.812 283.001 222.634 281.145 220.342C281.452 220.184 281.811 220.081 282.17 220.081C282.836 220.204 283.487 220.384 284.113 220.635C284.743 220.691 285.466 220.117 286.056 220.419C287.081 220.983 288.163 221.414 289.295 221.696C289.408 221.716 289.511 221.716 289.623 221.696C289.757 221.583 289.905 221.48 290.044 221.388L290.11 220.055C291.09 220.168 293.745 220.722 294.186 219.502C294.775 217.897 293.765 216.334 292.73 215.273C292.889 215.227 293.038 215.18 293.191 215.124C293.822 214.929 294.468 214.832 295.129 214.832C296.416 215.273 297.733 215.913 299.03 216.252C299.256 216.277 299.481 216.252 299.686 216.17C299.768 216.057 299.876 215.954 299.978 215.867L300.055 214.673C300.245 214.581 300.44 214.524 300.645 214.514C301.603 214.596 304.243 215.098 304.761 213.986C305.135 213.151 305.089 212.192 304.638 211.392C304.31 210.746 303.972 209.665 303.249 209.398C301.398 208.563 299.425 208.065 297.395 207.922C294.821 207.922 292.217 208.281 289.654 208.409L288.106 205.636C287.419 205.497 286.727 205.466 286.03 205.559C285.769 205.559 285.805 205.41 285.974 205.2C286.968 204.205 288.127 203.395 289.403 202.811C289.618 203.139 289.741 203.508 289.762 203.893C289.48 204.257 289.403 204.759 289.567 205.19C290.018 205.892 290.731 206.394 291.561 206.569C292.51 206.681 293.478 206.445 294.283 205.928C294.996 206.097 295.718 206.235 296.446 206.348C296.974 206.143 297.528 205.974 298.082 205.83C299.235 206.076 300.245 206.589 301.321 206.912C301.737 206.989 302.157 206.891 302.475 206.64C302.475 206.066 302.598 205.502 302.823 204.979C303.726 204.979 306.309 204.708 306.955 204.041C307.575 204.605 308.431 204.81 309.231 204.595C309.749 205.092 311.005 206.671 311.871 206.087L312.312 204.846C313.122 205.174 313.983 205.333 314.849 205.343C315.131 205.138 315.357 204.856 315.505 204.544C315.89 203.493 315.89 202.345 315.505 201.304C314.029 199.576 311.861 199.197 309.626 199.274C309.821 198.992 310.425 198.336 310.764 198.29C311.645 198.167 312.512 197.916 313.322 197.521L312.343 196.086C313.076 195.609 313.722 195.014 314.26 194.312C314.285 193.938 314.193 193.553 313.988 193.23C313.358 192.359 312.466 191.718 311.425 191.436C310.297 191.698 309.246 192.159 308.288 192.8L307.903 192.226C307.488 192.113 307.104 191.99 306.709 191.81C306.847 191.098 306.868 190.375 306.776 189.647C306.586 189.14 306.119 188.791 305.571 188.776C304.689 188.719 303.797 188.853 302.977 189.181C302.218 189.709 302.208 190.052 301.895 190.965C300.983 193.353 301.706 195.814 301.895 198.218C301.06 198.151 300.224 198.198 299.394 198.331L299.009 198.003C299.143 197.813 299.291 197.644 299.45 197.495C299.891 197.167 301.142 196.116 301.039 195.501C300.947 194.789 300.599 194.138 300.055 193.676C299.942 193.584 298.487 192.595 298.43 192.595C296.354 192.584 294.411 193.574 293.176 195.235C292.32 196.475 291.382 197.67 290.367 198.797C290.562 199.248 290.931 200.002 290.505 200.433C290.157 200.781 289.849 201.166 289.577 201.581C286.937 201.289 284.446 203.185 282.842 205.113C282.918 204.528 282.918 203.939 282.842 203.344C282.888 203.108 282.99 202.893 283.149 202.703C283.908 202.058 284.559 201.273 285.066 200.422C285.159 200.217 285.159 199.992 285.066 199.782C284.579 199.377 284.005 199.115 283.395 199.002C283.903 198.044 284.174 196.972 284.185 195.875C284.108 195.009 283.698 194.86 282.867 194.543C281.704 194.235 280.478 194.194 279.299 194.45C278.566 194.712 278.484 195.04 277.992 195.737C275.829 198.761 275.829 201.14 275.475 204.738C274.978 204.738 273.989 204.58 273.804 204.005C273.215 202.222 272.451 200.766 270.564 200.104C270.441 199.935 270.011 199.628 270.216 199.561C270.959 199.423 271.636 199.043 272.143 198.479C272.846 196.316 273.768 196.819 275.685 195.942C276.09 195.752 276.68 195.076 276.383 194.599C276.085 194.122 275.829 193.799 275.573 193.425C275.573 193.133 275.685 192.861 275.875 192.646C276.495 192.062 277.039 191.405 277.521 190.703C277.982 189.642 277.659 188.412 276.721 187.735C276.09 187.228 274.276 185.782 273.425 186.136C271.846 186.7 270.411 187.581 269.206 188.755C267.279 190.918 266.387 193.574 264.567 195.696C264.239 195.347 263.572 194.717 263.019 194.84C261.009 195.27 259.138 196.229 257.616 197.618C257.616 197.157 257.672 196.69 257.785 196.239C258.374 195.158 259.241 193.927 258.764 192.651C258.098 192.559 257.447 192.359 256.837 192.067C256.77 191.944 256.714 191.805 256.688 191.682C256.688 190.77 256.826 189.222 256.247 188.442C254.914 186.73 252.187 187.561 250.516 188.294C249.219 190.739 248.912 193.584 249.634 196.25C249.511 196.383 249.363 196.803 249.276 196.665C248.748 195.537 248.127 194.445 247.435 193.425C247.21 193.097 246.882 192.861 246.507 192.728C244.78 192.241 243.396 193.112 242.119 194.173C242.063 196.398 242.647 198.587 243.78 200.494C245.041 202.319 246.343 204.118 247.512 205.969C248.158 206.276 248.83 206.543 249.522 206.748L247.866 212.038L247.338 211.541C247.338 211.541 247.225 211.428 247.143 211.428C247.03 211.408 246.938 211.408 246.835 211.428C246.359 211.51 245.877 211.484 245.416 211.336C244.908 210.311 244.334 209.306 243.698 208.347C242.324 206.62 239.854 207.794 238.475 208.937C238.418 209.378 238.398 209.839 238.418 210.29C238.68 213.53 240.402 216.226 242.401 218.738C240.628 219.82 238.834 221.004 237.086 222.121C236.947 222.214 236.609 222.429 236.558 222.629C236.511 223.362 236.117 224.038 235.476 224.423C234.979 223.275 234.041 222.393 232.872 221.973C230.944 221.306 229.714 221.624 227.997 221.332C226.28 221.04 224.624 220.25 222.83 220.025C223.235 219.281 223.768 218.635 224.429 218.107C225.839 217.861 227.248 217.631 228.668 217.41C228.294 216.416 228.238 215.334 228.52 214.309C229.038 214.647 229.658 214.796 230.268 214.729C230.709 214.617 231.508 213.243 231.677 212.812C232.826 212.935 233.989 212.935 235.133 212.812C237.378 211.966 237.578 209.306 237.48 207.168C237.357 207.03 237.234 206.897 237.075 206.804C235.712 205.846 234.128 205.246 232.462 205.077C232.19 205.077 232.37 204.831 232.621 204.738C233.702 204.364 235.455 203.713 235.768 202.462C236.106 200.761 235.743 199.013 234.753 197.588C234.62 197.372 234.405 197.224 234.169 197.157C231.744 196.931 229.309 197.393 227.151 198.5C226.644 197.203 225.665 196.142 224.429 195.542C224.224 195.429 223.978 195.429 223.773 195.542C222.963 195.891 222.194 196.342 221.497 196.895C220.913 196.162 220.021 195.014 218.903 195.317C218.519 195.394 218.201 195.665 218.057 196.029C217.765 197.177 217.191 197.798 215.981 197.69C215.786 197.711 215.607 197.823 215.494 197.982C215.279 198.397 214.91 199.515 214.356 199.515C213.7 199.494 213.039 199.382 212.413 199.187C212.301 199.166 212.188 199.166 212.075 199.187C211.655 199.187 210.993 199.807 211.152 200.268C211.311 200.73 211.737 202.873 211.414 203.144C210.512 203.652 209.712 204.339 209.066 205.138C208.83 205.559 208.84 205.026 208.784 204.539C208.728 204.052 208.646 203.513 208.087 203.278C207.528 203.042 206.708 202.78 206.482 202.263C206.062 201.304 205.667 200.197 205.221 199.259C204.816 199.597 203.745 200.253 203.212 200.074C202.679 199.894 201.577 199.407 200.936 199.658C200.305 199.848 199.818 200.325 199.649 200.955C199.526 201.688 200.223 202.222 200.654 202.75C200.362 203.247 200.531 203.898 200.326 204.441C200.685 204.749 201.305 205.615 201.115 206.158C200.777 206.733 200.418 207.296 200.034 207.83C199.829 208.065 198.727 208.911 198.363 208.752C197.153 208.245 195.507 207.004 194.134 207.486C192.816 208.076 191.868 209.301 191.632 210.726C191.632 210.849 191.54 211.254 191.632 211.372C192.073 211.992 192.58 212.546 193.154 213.033C195.907 215.524 198.219 215.749 201.602 216.836C202.089 217.026 202.54 217.277 202.956 217.605C202.448 218.02 201.971 218.471 201.546 218.969C202.571 219.712 203.273 220.399 202.925 221.778C202.284 222.183 201.628 222.547 200.941 222.859C200.218 222.859 199.711 222.157 198.988 222.362C198.47 222.665 198.029 223.218 197.363 223.095C196.774 222.711 196.215 222.229 195.738 221.706C195.646 221.629 195.533 221.573 195.41 221.547C194.99 221.414 194.272 221.547 194.123 222.044C193.426 223.997 193.324 225.284 190.884 224.479C190.884 222.085 189.279 222.675 188.403 221.06C187.875 219.773 187.48 218.441 187.249 217.067C186.537 217.19 185.814 217.236 185.086 217.236C184.363 216.975 183.148 216.016 182.482 215.78C181.954 215.585 181.354 215.632 180.857 215.903C180.339 216.072 180.021 216.616 180.144 217.164C180.339 217.615 181.308 219.025 181.128 219.445C180.939 219.866 180.349 220.527 180.698 221.07C181.046 221.614 181.513 222.152 181.339 222.695C180.888 223.239 180.36 223.721 179.816 224.172C179.816 224.479 179.703 225.074 180.011 225.31C180.8 225.899 181.636 226.391 182.461 226.945C182.656 227.104 182.789 227.319 182.836 227.576C182.753 229.052 183.276 230.487 184.312 231.538C182.687 232.081 181.016 232.466 179.314 232.691C178.694 233.67 177.894 234.506 176.956 235.183L173.055 236.5C173.244 237.167 173.757 238.228 173.347 238.894C172.937 239.56 172.194 240.493 172.265 241.16C172.265 241.744 172.537 242.298 172.998 242.646C173.403 242.872 173.87 242.882 174.295 242.703C174.885 242.252 175.556 241.893 176.238 241.621C176.766 241.78 177.31 241.903 177.863 241.959C179.104 241.539 179.432 240.437 180.785 241.539L178.268 242.846C178.063 243.749 177.725 244.615 177.274 245.42C176.459 246.142 175.582 246.799 174.67 247.414C174.67 247.48 174.793 247.957 174.803 247.957C175.085 248.454 175.254 249.008 175.321 249.582C175.095 250.802 174.521 252.314 175.592 253.283C175.787 253.452 176.315 253.704 176.571 253.432C176.817 253.16 177.427 252.437 177.812 252.058C178.196 251.679 178.77 252.058 179.073 252.191L180.529 250.782L181.959 251.72C182.39 251.832 182.83 251.627 183.041 251.222C183.287 250.31 183.456 249.408 183.681 248.516C184.912 247.885 186.183 247.342 186.557 245.866C186.762 246.158 188.72 247.942 188.951 248.188C189.366 248.383 189.822 248.434 190.268 248.347C190.607 248.29 191.35 248.044 191.35 247.634C191.432 247.091 191.417 246.542 191.273 246.009C191.253 245.763 191.34 245.512 191.509 245.322C191.883 245.097 192.232 244.815 192.524 244.487C192.468 244.082 192.242 243.133 192.524 242.826C193.165 242.375 193.857 242.016 194.59 241.744C194.785 241.519 195.077 241.114 194.918 240.765C194.441 240.191 193.836 239.448 193.385 238.822C193.247 238.597 192.965 237.941 193.195 238.033C195.677 238.971 198.06 240.14 200.336 241.529C199.829 241.97 199.275 242.344 198.68 242.667C197.589 242.78 196.512 242.969 195.441 243.241C194.964 243.467 194.585 243.841 194.359 244.323C194.226 244.671 194.405 245.066 194.744 245.194C194.969 245.281 194.974 245.286 194.764 245.204C195.261 245.409 195.846 245.625 196.353 245.835C196.107 246.286 196.005 246.814 196.071 247.321C196.635 247.491 197.163 247.742 197.65 248.08C197.322 248.68 197.05 249.321 196.835 249.967C196.912 250.125 196.994 250.295 197.096 250.464C198.122 250.546 199.152 250.53 200.167 250.397V250.735C199.116 250.679 198.06 250.715 197.009 250.858C196.804 250.858 196.681 251.017 196.625 251.279C196.502 251.935 196.343 252.586 196.128 253.217C195.338 254.524 193.703 255.38 193.816 257.107C193.816 257.594 194.087 258.348 194.744 258.189C195.4 258.03 196.061 257.83 196.697 257.604C196.471 258.194 196.122 258.743 195.702 259.209C194.641 259.291 193.626 259.696 192.78 260.347C191.842 261.352 191.401 262.623 190.545 263.587C189.674 264.499 188.536 265.119 187.306 265.391C187.326 264.443 187.249 263.505 187.059 262.572C186.46 261.972 185.896 261.311 185.388 260.629C185.04 259.634 184.789 258.609 184.619 257.569C183.84 257.42 183.107 257.092 182.456 256.631C181.303 255.549 179.955 253.955 178.217 254.355C178.227 254.601 178.273 254.862 178.35 255.098C178.653 255.585 178.878 256.103 179.037 256.656C178.709 256.733 178.417 256.938 178.248 257.22C178.612 257.697 178.832 258.271 178.868 258.876L177.602 258.999L177.14 259.404C177.186 259.619 177.289 259.819 177.443 259.978C178.186 260.737 178.955 261.48 179.662 262.259C179.504 264.325 180.385 265.396 181.938 266.657C180.677 266.714 179.437 266.519 178.263 266.104C178.058 266.027 177.822 266.027 177.617 266.104C176.782 266.601 175.905 267.042 175.013 267.411C173.865 267.534 172.711 267.534 171.563 267.411C171.481 267.57 170.128 269.318 170.087 269.354C168.821 270.435 166.309 271.517 166.34 273.311L166.688 273.649L168.851 273.219L169.087 273.998L169.518 274.244L170.738 273.936L171.199 274.126L171.03 275.582C171.168 275.772 171.312 275.941 171.461 276.11C172.588 275.623 173.66 275.013 174.634 274.27C174.828 274.147 175.049 274.1 175.274 274.111C176.448 274.562 177.766 274.475 178.863 273.865C178.976 274.562 178.888 275.254 178.647 275.915C178.084 276.894 177.453 277.822 176.761 278.693C177.089 279.503 177.361 280.339 177.597 281.185C177.597 283.235 177.315 285.245 178.986 286.711C179.345 285.865 179.683 285.065 180.067 284.25C180.442 284.173 180.847 284.271 181.149 284.522C181.241 283.938 181.667 282.866 182.231 282.651C182.569 283.056 182.964 283.394 183.394 283.676L183.722 283.599C183.871 283.476 183.984 283.317 184.05 283.138C184.184 282.056 184.22 280.975 184.189 279.898C184.209 279.693 184.281 279.483 184.404 279.314C185.219 278.76 185.834 277.935 186.096 276.976C186.301 275.351 186.332 273.737 186.378 272.101C186.378 271.753 186.444 271.455 186.66 271.737C187.167 272.424 187.639 273.147 188.033 273.901C189.161 274.116 190.253 274.485 191.273 274.982C192.129 275.725 192.929 276.54 193.662 277.407C193.8 277.35 195.964 276.863 196.087 276.879C198.25 277.094 199.818 277.96 201.602 276.305C201.013 275.592 200.229 275.044 199.367 274.726L199.865 273.521C199.265 273.157 198.701 272.732 198.173 272.255C198.727 271.794 199.188 271.24 199.552 270.62C199.419 270.405 199.224 270.235 198.998 270.133C198.05 269.83 197.071 269.625 196.076 269.543C195.83 269.487 195.589 269.395 195.374 269.241C194.954 268.369 194.303 267.616 193.493 267.078C192.345 266.627 191.135 266.345 189.915 266.242C189.474 266.242 188.956 266.093 189.371 265.96C190.848 265.473 192.078 264.458 192.867 263.125C193.59 263.013 194.257 262.705 194.795 262.203C196.225 260.813 197.173 258.896 199.331 258.578C199.49 258.578 199.875 258.655 199.808 258.502L200.193 260.034C200.418 260.393 200.88 260.532 201.274 260.383C202.007 259.84 202.653 259.178 203.191 258.44C203.407 258.179 203.699 258.009 204.037 257.943C203.971 258.891 203.812 259.829 203.54 260.752C202.966 261.541 202.32 262.285 201.623 262.977C202.084 263.561 202.392 264.243 202.525 264.976C202.525 266.452 202.31 267.841 203.453 268.959H203.904C204.478 268.631 204.627 267.749 204.786 267.211L205.99 267.457L206.58 266.237L207.221 266.099C207.528 266.473 207.954 266.744 208.425 266.878C208.671 266.739 208.999 266.586 208.999 266.247C208.999 265.627 208.999 263.72 209.363 263.289C211.178 262.151 211.25 260.998 211.137 258.968C212.659 258.302 214.284 257.876 215.945 257.728C215.945 258.112 216.463 259.204 216.868 259.286C217.565 259.424 218.247 259.532 218.965 259.701L221.2 262.182C221.389 262.116 221.564 262.033 221.728 261.91C223.465 260.48 223.711 261.547 225.306 261.177C225.946 261.039 227.033 260.296 226.741 259.46C226.536 258.83 225.659 258.532 225.095 258.322L225.265 256.959L224.644 256.215C224.737 256.138 224.849 256.067 224.952 256C225.224 255.851 225.608 255.58 225.936 255.636C227.018 255.785 228.099 256.021 229.109 256.277L229.524 255.375C232.739 255.974 235.989 256.369 239.259 256.528C241.93 256.677 245.749 255.964 248.025 256.472C249.245 256.677 250.326 257.384 250.993 258.414C251.07 258.491 251.162 258.537 251.264 258.563C254.007 259.486 254.899 263.525 255.181 266.134C254.853 266.539 254.694 267.057 254.75 267.57C254.909 268.492 255.406 269.308 256.139 269.871C256.826 269.466 257.595 270.02 258.046 270.538C259.22 271.871 259.379 272.906 260.21 274.382C260.399 274.721 259.984 274.685 259.712 274.382C259.441 274.08 259.487 274.157 259.354 274.054C258.595 273.352 257.754 272.496 257.062 271.707C256.714 272.035 255.673 272.701 255.176 272.609C253.956 272.404 252.556 271.922 251.608 273.014C251.531 271.819 251.664 270.625 252.013 269.482C252.069 269.256 252.033 269.02 251.9 268.826C251.47 268.328 250.49 267.652 250.49 266.883V263.925L248.425 263.792C247.794 263.079 246.989 262.531 246.077 262.223C245.492 262.1 244.872 262.249 244.421 262.643C243.903 263.207 244.421 264.145 244.683 264.807L243.601 265.97C243.862 266.432 244.016 266.955 244.042 267.483L242.012 268.656C241.92 269.118 242.094 269.584 242.473 269.866C243.196 270.281 243.806 270.861 244.242 271.578C242.75 271.384 241.238 271.44 239.772 271.737C239.782 270.543 239.623 269.349 239.31 268.205C238.793 266.775 238.162 265.432 237.788 263.976C237.711 263.715 237.542 263.489 237.311 263.346C236.609 263.018 235.978 262.567 235.43 262.028C234.81 261.049 234.435 259.942 233.882 258.948C233.395 259.153 232.349 259.547 231.826 259.286C230.944 258.825 229.842 258.204 228.904 258.901C228.689 259.071 228.386 259.476 228.443 259.768C228.704 260.583 229.155 261.326 229.76 261.931C229.571 262.259 229.284 263.013 229.565 263.407C229.847 263.802 230.422 264.366 230.411 264.704C230.345 265.248 230.063 265.729 229.642 266.068C229.202 265.852 228.694 265.852 228.253 266.068C227.746 266.339 227.192 266.544 226.628 266.652C225.352 266.503 224.045 266.165 222.758 265.955C222.758 266.386 222.543 267.442 222.117 267.682C221.461 268.057 220.277 268.498 220.051 269.282C219.913 269.723 219.995 270.21 220.277 270.579C220.907 271.153 221.733 270.953 222.543 270.85C221.989 272.07 221.312 273.229 220.523 274.306L220.938 271.214C218.842 270.999 216.73 270.907 214.623 270.922C212.68 271.071 210.742 271.553 208.789 271.635C208.087 272.337 207.333 272.978 206.513 273.552C205.18 273.972 203.807 274.264 202.417 274.418C202.679 274.946 203.284 275.807 203.058 276.428C202.561 276.981 202.212 277.648 202.053 278.371C202.11 278.955 202.428 279.468 202.935 279.76C204.14 280.483 205.032 279.345 206.175 279.206C206.729 279.329 207.267 279.478 207.8 279.647C208.487 279.555 209.143 279.345 209.753 279.027L210.399 279.365C210.209 279.56 209.994 279.724 209.753 279.826C208.881 280.088 207.836 280.38 206.964 280.672C206.728 281.656 206.411 282.615 206.026 283.558C204.806 285.475 203.499 287.08 203.714 289.484C204.335 289.12 204.955 288.751 205.539 288.331C205.606 288.331 206.195 288.192 206.16 288.807L206.621 289.259C206.969 288.818 207.477 288.515 208.041 288.413L208.2 290.366L208.564 290.786C208.779 290.694 208.979 290.561 209.138 290.402C209.861 289.479 210.876 287.731 212.003 287.398C212.419 287.746 212.706 288.213 212.839 288.751C212.757 289.833 212.813 290.919 213.008 291.991C213.3 292.508 213.89 293.477 214.613 293.365C215.335 293.252 215.607 292.227 215.976 291.719C216.345 291.212 217.206 291.642 217.724 291.719C217.893 291.022 218.278 290.412 218.806 289.945C219.462 290.407 220.195 290.781 220.969 291.027C221.318 290.745 221.671 290.484 221.681 289.945C221.512 289.033 221.692 288.095 222.189 287.316C222.45 288.187 222.45 289.13 222.189 290.012C223.045 290.284 223.881 290.653 224.65 291.094C225.29 291.622 226.136 292.806 226.813 293.257C227.489 293.708 228.72 294.159 229.371 293.462L228.884 291.196C229.335 291.263 229.796 290.832 230.078 290.596L229.704 289.356C229.781 289.187 229.863 288.992 229.95 288.812C230.637 288.895 231.329 288.792 231.959 288.51L232.052 287.721C233.825 288.961 236.44 290.463 238.008 291.796C239.146 292.944 240.33 294.021 241.586 295.036C241.894 295.794 242.289 296.522 242.75 297.199C243.406 297.886 244.237 298.393 245.139 298.685C244.057 299.557 242.976 300.51 241.899 301.428C242.248 302.002 243.047 302.976 242.893 303.694C242.622 304.914 242.407 306.334 243.514 307.205C243.75 307.395 244.442 307.59 244.595 307.272C244.954 306.631 245.462 306.108 246.072 305.703C246.456 305.703 246.851 305.795 247.266 305.795C247.574 305.252 247.979 304.77 248.471 304.365C248.66 304.391 248.83 304.458 248.999 304.534C249.563 304.95 250.275 305.062 250.942 304.883C251.628 305.596 252.49 306.257 253.187 306.939C253.602 307.626 253.694 308.451 253.448 309.215C253.146 310.512 252.285 311.967 252.069 313.116C251.741 315.053 251.552 316.996 251.495 318.949C251.413 320.554 252.295 322.189 252.418 323.506C252.577 325.162 251.639 326.315 251.403 327.725C251.188 328.935 251.834 331.493 251.767 332.59C251.69 333.518 251.065 335.261 251.065 336.168C251.065 338.593 251.639 340.838 250.926 343.216C251.331 343.703 251.572 344.308 251.628 344.934C251.47 346.343 251.47 347.753 251.628 349.163C251.639 349.322 251.639 349.491 251.628 349.65C251.403 349.65 251.188 349.583 250.972 349.557C248.466 349.255 245.964 348.799 243.514 348.194C240.761 347.256 238.111 346.841 235.717 345.677C232.231 343.96 229.637 341.176 226.305 339.326C224.239 338.177 221.984 337.952 219.816 337.342C219.6 336.891 219.677 336.132 219.375 335.332C219.646 334.902 219.795 334.405 219.795 333.897C219.605 332.759 219.211 331.677 218.59 330.703C218.083 331.006 217.652 331.426 217.36 331.944C216.955 333.154 216.504 334.338 215.986 335.512C215.725 336.03 215.356 336.496 214.905 336.855C213.787 336.937 212.67 336.901 211.552 336.742C210.988 335.748 210.547 334.676 210.255 333.569C210.23 333.436 210.143 333.323 210.04 333.241C209.374 332.698 208.651 332.236 207.877 331.852C207.492 332.585 207.256 333.384 207.19 334.21C207.303 335.327 207.62 336.409 208.148 337.403C205.913 337.496 205.293 339.208 203.94 340.72C204.017 342.14 202.248 342.806 201.269 343.473C201.12 343.611 200.987 343.775 200.905 343.96C200.7 344.841 200.377 345.708 199.957 346.523C198.604 347.717 196.517 348.686 195.072 349.762C194.574 350.178 194.292 350.777 194.303 351.418C194.867 352.29 195.282 353.258 195.523 354.273L196.076 354.509C196.932 354.771 197.824 354.771 198.68 354.509C198.885 354.643 199.101 354.755 199.326 354.858C200.039 354.55 200.818 354.381 201.602 354.407C202.146 354.576 202.663 354.822 203.135 355.119C204.017 354.704 205.052 354.689 205.954 355.053C207.149 354.648 208.302 354.125 209.394 353.494C209.486 353.428 209.609 353.412 209.722 353.428C210.532 353.428 211.322 353.192 211.998 352.73C212.982 352.536 213.997 352.638 214.92 353.012C217.514 354.996 218.765 357.652 221.056 359.907C221.364 360.21 222.512 361.045 222.727 361.337C223.506 362.614 224.501 363.762 225.659 364.71C225.905 364.915 226.392 366.156 226.608 366.366C227.941 367.709 229.847 369.242 231.042 370.575C231.237 370.99 231.37 371.42 231.426 371.872L231.237 372.2C231.17 372.338 229.806 374.071 229.678 374.255C227.038 374.255 226.316 375.834 224.332 376.254C222.896 376.424 221.476 376.741 220.103 377.193C218.842 377.89 217.765 378.848 216.935 380.002C216.125 381.365 215.402 382.775 214.771 384.22C214.633 384.502 214.633 385.63 214.413 385.845C213.095 387.142 212.88 388.598 211.906 390.075C212.044 392.038 212.337 393.991 212.772 395.908C213.177 396.846 213.485 397.836 213.685 398.84C213.71 399.199 213.931 399.496 214.259 399.64C214.971 399.835 215.694 399.978 216.422 400.06L216.683 399.799C216.955 399.507 217.191 399.179 217.396 398.84C217.181 397.902 217.98 395.344 218.165 394.283C218.098 393.755 217.883 393.258 217.545 392.848C217.847 391.72 217.95 390.567 217.852 389.408C217.775 388.778 217.852 389.408 217.975 388.767C217.975 388.552 218.549 386.804 218.642 386.486C218.934 385.933 219.288 385.425 219.723 384.974C220.815 383.995 221.969 383.093 223.173 382.257C223.25 382.201 223.286 382.052 223.388 382.042C224.767 382.021 226.141 381.909 227.52 381.739C229.232 381.252 229.683 381.109 231.098 380.658C232.554 380.068 233.974 379.34 235.307 378.495H236.019C236.45 380.15 236.932 382.344 237.496 383.898C237.655 384.349 238.803 385.722 238.69 386.179C238.398 387.091 238.259 388.029 238.275 388.978C238.357 389.849 239.695 391.141 240.351 391.72C240.351 393.345 240.443 396.323 241.13 397.743V398.071C241.13 398.599 240.771 400.506 240.274 400.732C239.336 401.06 238.321 401.096 237.352 400.865C236.686 400.675 234.384 401.803 235.189 403.028L234.107 403.695C234.025 403.843 233.969 404.023 233.948 404.192C233.948 404.822 233.713 405.432 233.282 405.894C233.713 406.232 234.241 406.412 234.784 406.422C237.106 406.176 237.875 406.56 239.987 406.724C240.756 406.704 241.52 406.576 242.253 406.309C242.524 406.217 242.458 406.422 242.612 406.171C242.76 405.925 243.027 405.525 243.232 405.176C243.232 405.007 243.093 404.689 243.232 404.53C243.56 403.931 244.042 403.433 244.642 403.095L244.565 400.65C245.231 400.096 245.805 399.44 246.267 398.697C246.405 397.938 246.492 397.184 246.513 396.416C246.108 395.062 245.17 393.381 244.934 392.186C244.642 390.741 245.349 389.895 245.385 388.624C245.385 386.681 244.57 384.887 244.165 383.098C244.073 382.667 244.288 380.366 244.165 380.166C243.083 378.561 243.15 377.392 244.585 376.09C245.026 375.65 245.59 375.347 246.21 375.219C247.656 375.07 249.168 375.05 250.644 374.937C250.116 379.023 250.147 384.087 249.957 388.296C250.332 389.787 250.588 391.3 250.701 392.832C250.69 393.714 250.531 394.606 250.224 395.436C249.896 396.149 249.352 396.416 249.296 397.061C249.214 397.933 249.322 398.83 249.645 399.645C249.665 399.758 249.665 399.871 249.645 399.983C249.532 400.839 249.24 401.644 249.147 402.567C248.886 403.638 248.558 404.689 248.153 405.704C246.856 406.663 247.015 407.252 246.169 408.334C244.795 409.836 243.278 411.189 241.632 412.373C240.946 412.85 240.177 413.183 239.351 413.357C236.87 413.885 234.266 414.126 231.883 414.701C230.135 415.116 228.53 416.008 226.679 416.008C226.218 416.449 225.665 416.797 225.054 417.012C223.117 417.274 221.548 418.489 219.867 418.853C217.734 419.155 215.571 419.283 213.423 419.258C212.608 419.955 211.706 420.544 210.753 421.031C209.604 419.822 208.159 418.945 206.554 418.504C206.554 418.422 205.473 416.146 205.201 415.639C204.965 415.526 204.468 415.054 204.499 415.311C204.529 415.567 204.632 416.156 204.724 416.52C204.883 417.141 205.719 420.129 206.498 420.052C207.579 419.914 208.215 420.862 208.553 421.698C205.821 422.544 203.171 423.625 200.644 424.937C199.988 425.322 199.47 425.917 199.152 426.609C199.152 426.721 199.039 427.029 199.003 426.916L199.578 427.331C200.075 426.486 200.782 425.799 201.633 425.312C203.304 424.579 205.052 424.004 206.836 423.6C208.405 423.543 209.927 423.01 211.158 422.031C211.891 422.113 212.644 422.01 213.321 421.703C213.592 421.544 214.305 420.821 214.618 420.775C215.879 420.642 217.135 420.642 218.396 420.775C217.042 421.677 215.776 422.713 214.618 423.846C213.895 424.635 213.254 425.491 212.588 426.337C212.014 427.07 211.829 428.039 212.101 428.92C211.342 430.745 209.43 432.77 207.308 432.698C206.406 433.319 205.662 434.144 205.145 435.113C205.145 435.19 205.052 435.472 205.011 435.374L205.77 435.805C206.098 435.138 206.559 434.539 207.144 434.067C208.676 433.421 210.168 432.688 211.614 431.848C212.101 431.258 212.495 430.607 212.818 429.91C213.013 428.772 213.382 427.685 213.9 426.67C215.725 424.855 218.221 423.072 220.149 421.359C220.984 420.872 221.861 420.457 222.753 420.119C223.296 420.037 224.537 420.232 225.019 420.119C225.5 420.006 227.182 419.104 227.623 419.037C229.899 418.776 230.862 418.191 232.826 417.956C233.584 417.956 234.338 417.879 235.091 417.73C235.286 417.807 235.825 417.879 235.655 417.976C234.22 418.663 232.687 419.396 231.211 419.929C229.048 420.719 226.89 421.431 224.721 422.174C224.055 422.4 223.481 422.831 223.06 423.395C222.866 423.676 222.261 425.122 221.912 425.671C221.707 426.158 221.687 426.706 221.835 427.219C221.025 427.865 220.549 428.854 220.538 429.894C219.795 430.31 219.026 430.674 218.237 430.976C217.314 431.032 216.432 431.325 215.653 431.822C215.202 432.283 214.838 432.827 214.572 433.421C214.561 433.985 214.448 434.539 214.233 435.056C213.434 435.866 212.675 436.748 211.988 437.65C211.706 438.373 211.511 439.142 211.424 439.926C211.424 439.993 211.424 440.229 211.424 440.162L212.065 440.301C212.29 439.388 212.593 438.517 212.947 437.65C213.49 436.769 214.279 436.051 215.228 435.62C215.366 434.708 215.745 433.847 216.309 433.119C216.863 432.499 217.652 432.16 218.473 432.135C219.016 433.929 219.175 435.431 218.068 437.02C218.144 437.245 217.955 437.573 218.18 437.968C218.134 438.194 218.057 438.409 217.945 438.609C217.868 438.701 217.806 439.024 217.775 438.911L218.365 439.116C218.806 437.763 219.349 436.343 219.913 435.046C219.836 433.954 219.913 432.868 220.149 431.807C220.215 431.673 220.318 431.56 220.451 431.478C221.21 431.073 221.871 430.53 222.404 429.874C223.214 428.003 224.178 426.634 224.855 424.999C225.952 424.343 227.177 423.907 228.443 423.712L229.314 422.774C229.673 423.066 229.801 423.856 230.252 424.476C229.991 424.973 229.53 426.111 229.776 426.639C229.36 427.024 228.997 427.475 228.694 427.947C228.489 428.362 228.412 429.167 228.197 429.572C227.792 430.212 227.269 430.735 226.638 431.15C226.638 431.355 226.444 431.807 226.638 431.75C226.977 431.683 227.305 431.601 227.633 431.504C228.366 430.838 229.022 430.084 229.617 429.284C229.909 428.787 229.786 428.695 229.863 428.08C230.222 427.875 231.375 427.065 231.355 426.634V422.615C232.134 422.877 232.959 422.908 233.748 422.708C235.522 421.723 237.45 421.159 239.274 420.314C240.71 419.504 242.027 418.489 243.175 417.299C243.309 417.243 243.56 416.951 243.596 417.105C243.621 418.027 243.519 418.93 243.288 419.822C242.473 420.949 241.576 422.031 240.638 423.061C240.638 423.794 240.638 424.497 240.73 425.307C240.033 425.102 239.295 425.137 238.623 425.419C237.865 425.835 237.168 426.342 236.547 426.942C236.547 426.942 236.183 428.228 236.183 428.249C236.378 428.992 236.465 429.751 236.445 430.525C236.368 432.252 234.492 432.791 233.118 433.052C232.913 433.119 232.754 433.257 232.641 433.437C232.18 434.083 232.144 434.872 231.493 435.379C230.591 436.077 229.668 436.856 228.822 437.614C228.551 437.886 228.345 438.204 228.233 438.573L228.571 438.988C229.089 437.907 230.083 437.625 231.032 436.994C231.954 436.236 232.749 435.359 233.42 434.375C233.61 434.159 233.836 434.011 234.087 433.913C234.707 433.775 235.307 433.555 235.881 433.283C236.163 432.36 236.84 431.612 237.742 431.232C237.742 430.453 237.66 427.711 238.316 427.296C239.085 426.778 240.007 426.506 240.935 426.552C241.566 428.516 240.576 428.715 240.73 429.848C240.966 431.642 240.966 433.457 240.73 435.251C241.284 435.954 242.094 437.327 241.735 438.286C241.376 439.245 241.227 440.167 240.879 441.039L238.716 441.685C238.567 441.818 238.444 441.987 238.367 442.172C238.06 443.13 237.634 443.253 236.865 443.92C236.65 445.068 236.378 446.221 236.065 447.359C236.045 447.472 236.045 447.575 236.065 447.687C236.065 447.8 236.142 448.128 236.065 448.026L236.768 447.949C236.845 446.708 237.209 445.504 237.849 444.442C238.875 443.361 239.623 443.438 240.807 442.741C241.304 443.576 241.673 444.468 241.889 445.411C241.889 446.585 242.084 447.769 242.473 448.877C242.396 449.01 242.34 449.159 242.314 449.307C242.391 449.384 242.473 449.476 242.509 449.476L242.601 449.497V449.564L242.565 449.589Z" fill="#002856"/>
<path d="M257.57 302.52C258.169 301.777 258.662 300.941 259.015 300.059C259.502 298.424 259.887 296.82 260.517 295.195C260.722 294.651 259.989 292.903 259.82 292.273C260.015 290.919 260.261 289.576 260.553 288.254C258.477 287.531 258.672 286.936 257.698 285.173C257.37 284.809 256.929 284.583 256.437 284.527C256.032 284.445 255.647 284.696 255.57 285.101C255.57 285.111 255.57 285.122 255.56 285.127C255.468 285.773 255.437 286.424 255.494 287.07C255.494 287.644 254.714 287.915 254.412 288.367C254.412 288.638 254.279 290.038 254.335 290.217C253.894 290.52 253.356 290.704 252.823 290.725C252.346 290.919 252.08 291.437 252.223 291.934C252.29 292.216 252.382 292.498 252.515 292.749C251.5 292.908 250.516 293.226 249.583 293.672C248.548 294.431 247.451 295.118 246.343 295.758C244.549 293.523 242.35 291.652 239.854 290.243C237.193 288.879 233.2 287.367 230.422 286.224C230.001 286.055 229.781 285.378 229.678 284.983C230.206 284.137 230.232 283.076 229.755 282.205C229.248 281.539 228.704 280.887 228.13 280.267C226.967 279.309 225.793 278.314 224.691 277.309C226.203 276.945 226.854 275.592 227.254 274.218C227.669 274.024 229.217 273.08 229.417 273.044C229.576 272.988 229.755 272.962 229.924 272.932C231.344 273.813 233.138 273.87 234.605 273.07C234.907 272.88 235.245 272.788 235.066 273.07C234.784 273.757 234.266 274.311 233.62 274.669C232.81 275.085 231.196 275.469 230.268 275.818C230.406 276.458 230.483 277.104 230.514 277.761C230.052 278.289 229.678 278.909 229.432 279.565C229.355 280.221 229.735 280.862 230.36 281.098C230.575 281.144 230.801 281.118 231.016 281.041C231.898 280.554 232.564 279.888 233.6 280.411C234.118 280.693 234.804 280.129 235.225 279.857C235.527 279.698 235.891 279.719 236.163 279.924C236.378 280.365 236.522 280.852 236.593 281.344C236.163 281.795 235.778 282.282 235.42 282.8C235.158 283.205 235.578 283.784 235.881 284.009C236.071 284.148 236.296 284.225 236.522 284.245C238.295 284.112 238.177 283.163 240.423 283.727C240.874 283.615 241.304 283.445 241.72 283.22C241.914 283.107 242.15 283.081 242.366 283.143C242.883 283.276 243.801 283.774 244.319 283.979C244.534 283.989 244.759 283.958 244.964 283.886C245.585 283.399 246.128 282.815 246.589 282.169C246.784 282.031 247.005 281.943 247.235 281.908C248.373 281.918 249.481 281.636 250.475 281.098C252.008 280.016 252.638 278.13 252.977 276.417H250.085L251.372 274.07C251.587 274.147 252.828 275.085 253.141 275.29C253.453 275.495 253.479 276.371 253.423 276.781C253.781 276.976 254.812 277.955 255.094 278.068C255.012 278.586 254.848 279.083 254.617 279.56C254.422 279.975 255.022 280.575 255.36 280.698C256.288 280.913 257.221 281.062 258.169 281.149C259.051 282.231 259.559 283.312 260.876 283.845C262.05 284.219 263.29 284.373 264.521 284.296C264.428 284.927 264.193 285.516 263.854 286.044C263.311 286.777 262.342 287.603 261.758 288.326C261.455 288.823 261.261 289.376 261.194 289.951C261.173 290.289 261.271 290.637 261.476 290.899L263.347 290.166C263.977 290.427 263.947 290.581 264.157 291.181L266.028 290.514C266.11 293.857 267.248 295.579 264.382 298.086C264.234 298.219 263.065 298.527 262.691 298.783C260.784 300.213 259.297 302.11 258.369 304.299L257.534 302.525H257.57V302.52Z" fill="#002856"/>
<path d="M215.166 211.156C216.181 210.593 217.104 209.859 217.873 208.993L218.211 209.783C218.144 210.572 217.591 211.238 216.837 211.474C216.263 211.541 215.684 211.428 215.176 211.167L215.166 211.156Z" fill="#002856"/>
<path d="M210.952 257.189C210.783 256.205 210.578 255.206 210.312 254.247L213.459 253.545C213.664 254.683 214.182 255.723 214.961 256.579C213.598 256.636 212.254 256.907 210.978 257.379C210.978 257.312 210.952 257.241 210.952 257.184V257.194V257.189Z" fill="#002856"/>
<path d="M323.671 237.413C323.697 236.746 323.671 236.07 323.595 235.403C323.595 235.111 323.789 235.039 323.958 235.265C324.41 235.921 325.594 235.547 326.234 235.413C326.496 235.393 326.742 235.506 326.901 235.716C327.285 236.449 327.926 237.033 328.695 237.351C328.885 237.418 328.357 237.464 328.177 237.51L327.557 237.802C327.49 238.105 327.388 238.387 327.208 238.648L323.666 237.418L323.671 237.413Z" fill="#002856"/>
<path d="M248.983 243.323C248.553 242.918 247.948 242.739 247.358 242.826C247.246 242.846 247.133 242.846 247.02 242.826C246.42 242.523 245.867 242.113 245.395 241.616C245.369 240.986 245.405 240.355 245.544 239.755C245.959 240.601 246.774 241.175 247.707 241.278C248.948 241.36 250.198 241.083 251.275 240.463C251.623 240.273 251.577 240.632 251.388 240.97C250.69 242.144 250.362 243.497 250.45 244.861C250.45 245.281 250.45 245.799 250.316 245.404C250.024 244.615 249.573 243.913 248.973 243.328H248.983V243.323Z" fill="#002856"/>
<path d="M265.074 220.999C264.962 220.312 264.813 219.645 264.644 218.979C260.322 217.308 256.985 218.359 252.833 219.722C252.756 218.999 252.813 218.266 252.982 217.559C253.274 216.677 254.145 216.18 254.73 215.503C254.776 214.873 254.899 214.263 255.094 213.663C255.094 213.514 257.677 211.5 258.262 210.741C258.846 209.983 257.595 209.296 257.18 209.003C257.565 208.122 258.385 207.481 259.343 207.343C259.605 207.23 259.83 207.071 260.01 206.866C260.092 206.281 260.451 205.784 260.958 205.492C261.906 205.164 262.896 204.918 263.89 204.749C264.454 204.533 264.792 203.97 264.7 203.375C263.921 202.427 264.285 201.601 265.105 200.868C264.664 202.683 264.936 204.6 265.864 206.215C266.945 207.999 267.971 209.588 269.104 211.403C269.749 212.002 270.539 212.453 271.395 212.699C271.913 213.299 272.318 213.996 272.589 214.75C271.99 214.827 271.436 215.134 271.067 215.616C270.898 215.878 270.616 216.923 270.411 217.216C269.913 217.6 269.375 217.938 268.811 218.22C268.55 218.354 268.381 218.584 268.335 218.866C268.335 220.132 266.561 220.578 265.561 220.83C265.392 220.876 265.213 220.922 265.064 220.999L265.074 221.009V220.999Z" fill="#002856"/>
<path d="M267.197 248.188C267.345 247.332 267.468 246.496 267.561 245.661L268.473 245.799V247.593C269.555 248.157 270.975 248.741 270.749 250.233L267.207 248.183H267.197V248.188Z" fill="#002856"/>
<path d="M322.744 229.626L323.964 228.544C323.964 227.991 323.887 227.519 323.851 226.986C323.815 226.453 324.281 226.176 324.64 226.058C325.24 225.766 325.927 225.674 326.583 225.776C327.101 225.858 327.665 227.355 327.731 227.786C328.715 228.032 329.761 227.975 330.72 227.617L330.243 228.811C329.679 228.944 329.095 228.944 328.531 228.811C328.09 228.729 326.624 229.769 326.255 229.975C325.568 230.303 323.477 229.841 322.733 229.626H322.744Z" fill="#002856"/>
<path d="M244.067 227.34C243.991 227.206 243.765 227.068 243.862 226.966C244.38 226.325 244.247 226.12 244.221 225.341C244.196 224.561 246.272 223.931 246.943 223.516L247.364 224.238C246.215 225.289 245.164 226.448 244.237 227.688L244.067 227.34Z" fill="#002856"/>
<path d="M249.065 253.96C249.27 253.314 249.347 252.627 249.27 251.961C249.111 251.294 248.809 249.515 248.65 249.039C248.604 248.89 248.537 248.747 248.445 248.624L246.933 247.824L246.02 245.543L243.626 245.804C244.329 244.82 244.846 243.718 245.185 242.564C245.928 243.872 247.363 244.63 248.865 244.492C249.624 246.183 250.285 247.911 250.849 249.669C251.264 251.484 251.234 253.35 251.772 255.344C250.962 254.724 250.044 254.252 249.065 253.965V253.96Z" fill="#002856"/>
<path d="M237.614 253.668C235.707 253.452 233.825 253.094 231.975 252.586C232.426 251.92 232.257 251.007 231.59 250.556C230.95 250.694 230.283 250.694 229.648 250.556C229.489 250.197 229.263 249.474 228.781 249.474C228.34 249.613 227.869 249.613 227.428 249.474C227.125 248.854 226.941 248.178 226.9 247.48C225.818 246.896 224.916 247.942 223.978 248.562C223.471 248.89 221.815 247.48 220.4 248.147C220.098 248.285 220.154 248.024 220.277 247.726C220.692 246.732 222.44 245.819 223.368 245.266L222.512 243.313C222.84 242.441 222.917 241.498 222.748 240.591C222.579 240.063 222.174 239.642 221.666 239.437C221.517 239.391 221.338 239.391 221.189 239.437L219.923 240.847C219.323 240.709 218.703 240.709 218.098 240.847C216.709 239.607 216.878 239.099 216.612 237.351C216.555 236.946 215.822 236.367 215.53 236.203C214.336 235.618 213.982 237.284 213.931 238.064C213.049 238.064 212.552 237.838 211.947 238.607C211.583 237.648 211.393 236.613 211.419 235.583C210.609 235.593 209.794 235.46 209.03 235.178C207.405 234.311 206.718 232.548 204.473 233.271C204.058 233.419 203.853 233.891 204.012 234.296C204.022 234.342 204.037 234.373 204.068 234.419C204.294 234.839 204.488 235.285 204.658 235.726C204.827 236.234 204.083 236.741 203.663 236.808C203.991 237.448 204.227 238.141 204.376 238.838C203.822 239.253 203.212 239.581 202.551 239.817C202.135 240.063 202.223 240.652 202.469 240.98C202.715 241.308 202.581 241.421 202.392 241.273C199.854 239.309 196.943 237.864 193.841 237.033C194.216 235.726 193.549 234.788 192.688 233.865C194.718 233.301 196.804 232.937 198.916 232.784C199.337 232.04 199.798 231.307 200.305 230.62C200.475 230.431 200.69 230.318 200.936 230.257C202.11 229.908 203.181 229.488 204.355 229.175C204.094 228.473 203.878 227.745 203.714 227.012C203.714 226.786 203.74 226.571 203.827 226.356C204.381 225.54 204.637 224.561 204.55 223.577C205.529 223.577 205.76 222.921 206.175 222.188C206.421 221.747 207.021 221.773 207.441 221.803C207.687 221.793 207.928 221.691 208.128 221.542L208.784 220.66C209.01 222.306 209.076 223.967 208.979 225.622C209.579 226.084 210.435 226.607 210.681 227.34C210.927 228.493 211.101 229.677 211.199 230.851C211.788 230.805 212.372 230.718 212.967 230.579C213.203 230.59 213.428 230.661 213.623 230.784C214.505 231.574 215.463 232.046 216.535 231.302C217.606 230.559 216.909 229.534 216.535 228.642C216.396 228.278 216.976 227.212 217.201 226.925C217.053 226.34 216.863 225.761 216.637 225.197C217.135 224.613 217.719 224.044 218.196 223.449C218.503 223.085 218.196 222.367 217.837 222.132C217.309 221.655 216.709 221.26 216.068 220.937C215.899 220.881 216.361 220.701 216.499 220.563C217.663 220.235 218.913 220.235 220.077 220.563C221.441 221.106 222.107 221.88 223.645 222.29C225.752 222.706 227.889 222.988 230.032 223.136C229.222 223.136 228.453 223.439 227.869 224.003C227.664 224.08 227.438 224.095 227.223 224.079C226.5 223.777 225.731 223.572 224.942 223.495C224.706 223.516 224.48 223.644 224.352 223.854C224.116 224.341 223.993 224.879 223.993 225.423C223.911 225.628 223.845 225.787 223.645 225.843C221.42 226.484 220.19 226.658 220.195 229.298C220.195 230.369 220.487 231.405 221.03 232.322C223.368 231.902 225.88 231.892 228.048 230.79C228.34 231.964 226.772 233.291 225.885 233.814C224.803 234.46 224.88 236.105 225.172 237.054C225.659 238.653 226.536 240.114 227.73 241.293C229.017 241.18 230.268 240.863 231.442 240.314C232.534 239.771 233.518 239.038 234.364 238.151C234.938 238.571 235.527 238.966 236.147 239.314C236.87 239.745 236.342 242.031 236.353 242.892C236.409 244.922 238.982 246.132 240.776 246.358C241.135 246.64 241.407 247.014 241.576 247.439C241.643 247.742 241.33 248.08 241.125 248.275C241.274 248.726 241.586 249.121 242.007 249.357L240.259 251.069L242.832 252.053C242.806 252.699 242.924 253.35 243.191 253.939C241.33 253.996 239.459 253.893 237.619 253.668L237.573 253.657L237.614 253.668Z" fill="#002856"/>
<path d="M268.14 283.394H267.812C267.586 283.046 267.381 282.692 267.212 282.313L269.493 282.471L268.186 283.41L268.14 283.389V283.394Z" fill="#002856"/>
<path d="M288.921 235.403C288.434 234.885 288.142 234.716 288.111 234.106C288.081 233.496 289.024 232.809 289.418 232.538C289.823 233.419 290.413 234.378 289.577 235.208L289.157 235.639L288.921 235.403Z" fill="#002856"/>
<path d="M289.711 283.281C290.433 282.323 291.638 281.846 292.822 282.041L292.699 283.025L289.7 283.286L289.711 283.276V283.281Z" fill="#002856"/>
<path d="M261.655 270.738C258.067 269.461 255.089 261.418 253.997 257.763C252.279 252.109 251.254 245.051 252.736 239.248C252.884 237.284 252.321 235.321 251.136 233.742C249.727 232.353 248.461 230.831 247.333 229.216C246.856 228.698 245.631 228.662 244.975 228.662C245.472 227.386 246.328 226.284 247.425 225.469C247.979 225.976 248.655 226.314 249.388 226.448C249.183 227.35 250.132 227.883 250.798 228.298L251.003 229.718C251.869 230.149 252.382 230.8 251.916 231.794C251.834 232.235 251.962 232.697 252.264 233.025C252.782 233.101 253.315 233.148 253.843 233.158C254.089 233.137 254.33 233.24 254.473 233.45C255.058 234.229 255.422 235.275 256.457 235.613C258.005 235.921 259.615 235.762 261.061 235.152C261.276 234.004 261.04 232.814 260.42 231.825C259.395 230.492 258.257 229.206 257.078 227.955C256.601 227.627 256.052 227.427 255.478 227.37C254.935 227.288 254.268 226.289 253.986 225.858C254.407 225.52 254.945 225.382 255.478 225.453C256.56 225.781 257.303 226.14 258.4 226.391C259.21 226.586 259.538 225.556 259.707 225.002C259.784 224.7 260.046 224.459 260.353 224.428C261.445 224.402 262.532 224.233 263.593 223.951C264.157 223.577 264.644 223.085 265.023 222.521L265.438 223.526C264.68 224.336 263.485 225.182 263.439 226.299C263.362 227.898 266.576 228.903 267.76 229.165C268.463 229.313 270.693 227.904 271.339 227.504C270.821 228.78 270.503 230.133 270.39 231.507C270.308 233.67 270.334 235.829 270.513 237.997C269.872 237.413 269.17 236.915 268.417 236.495C268.304 236.439 268.135 236.064 268.114 236.018C267.899 235.152 267.571 234.301 267.299 233.455C265.356 234.234 265.392 233.819 263.562 233.26C262.921 233.25 262.322 233.522 261.901 234.004C261.835 234.127 261.778 234.25 261.742 234.388C261.835 234.885 262.091 235.337 262.445 235.695C262.793 236.054 262.368 236.654 262.209 236.992C262.05 237.331 262.737 238.356 263.091 238.571C262.47 239.012 261.963 239.586 261.578 240.232C261.512 240.458 261.578 240.719 261.747 240.878C262.311 241.226 262.921 241.467 263.562 241.647C264.147 241.842 264.203 243.123 264.182 243.631C262.696 244.015 261.184 244.297 259.661 244.466C259.492 244.476 259.323 244.533 259.184 244.615C258.902 245.317 258.482 245.948 257.954 246.486C257.57 246.609 255.427 247.398 255.222 247.409C255.514 248.065 255.652 248.782 255.652 249.495C254.873 250.669 254.73 251.807 255.765 252.822C256.216 253.263 257.062 252.514 257.401 252.248C257.739 251.981 258.323 252.248 258.631 252.576C258.472 253.206 258.574 253.375 257.99 253.837C257.303 254.457 256.58 255.011 255.827 255.549C256.99 257.194 256.99 257.374 256.908 259.409C256.908 259.937 257.641 260.67 257.99 260.931C258.554 261.336 258.913 261.024 259.256 260.66C259.559 260.332 259.83 259.963 260.056 259.578C260.461 259.558 260.845 259.599 261.23 259.701C261.758 259.419 262.158 258.922 262.311 258.338C263.193 258.676 264.095 258.958 265.018 259.173C265.018 260.45 265.264 263.628 264.895 264.576C264.264 266.211 263.516 267.816 262.911 269.441C262.65 269.994 262.214 270.446 261.681 270.738C261.671 270.748 261.671 270.758 261.671 270.763L261.65 270.753L261.655 270.738Z" fill="#002856"/>
<path d="M301.05 270.794C300.973 270.205 300.701 269.656 300.281 269.236C300.086 269.123 299.866 269.077 299.64 269.087C298.943 269.359 298.287 269.728 297.687 270.169C297.226 270.307 296.739 270.317 296.257 270.225L298.671 267.724L298.784 266.457C299.189 266.524 299.573 266.662 299.932 266.878C300.394 267.17 300.373 267.657 300.383 268.154C300.686 268.559 301.116 268.851 301.593 268.99C301.839 269.082 301.921 269.564 301.865 269.779C301.788 270.194 301.501 270.861 301.368 271.235C301.291 271.471 301.086 270.963 301.06 270.794H301.05Z" fill="#002856"/>
<path d="M304.515 272.614C303.828 272.614 303.613 272.773 303.746 272.096L303.828 271.655C304.412 271.666 304.966 271.947 305.33 272.414C305.069 272.547 304.787 272.609 304.515 272.619V272.609V272.614Z" fill="#002856"/>
<path d="M325.271 267.918C325.025 267.39 324.943 266.791 325.025 266.206C325.87 266.796 325.84 266.862 326.05 267.98L325.363 268.118C325.286 268.128 325.286 267.98 325.271 267.913V267.918Z" fill="#002856"/>
<path d="M243.478 277.227C243.842 276.458 244.278 275.715 244.754 275.008C245.441 275.597 246.185 276.1 246.989 276.494L243.478 277.227Z" fill="#002856"/>
<path d="M289.654 275.669C289.946 275.397 290.285 275.182 290.649 275.023L291.561 275.643L289.859 276.074L289.654 275.669Z" fill="#002856"/>
<path d="M281.14 172.341C278.208 171.711 277.126 168.553 277.418 165.852C277.721 163.57 279.13 161.576 281.165 160.525C283.216 161.428 285.743 162.376 287.122 164.237C288.501 166.098 287.957 168.738 286.819 170.409C285.466 172.126 283.241 172.89 281.135 172.346L281.14 172.341Z" fill="#002856"/>
<path d="M283.734 158.019C280.56 156.583 277.244 154.702 278.705 150.632C279.417 149.053 281.027 148.094 282.765 148.207C284.605 148.125 286.286 149.233 286.917 150.96C287.819 153.749 286.543 156.773 283.918 158.08L283.728 158.003V158.014L283.734 158.019Z" fill="#002856"/>
<path d="M244.103 160.874C240.864 159.869 240.366 155.471 240.864 152.616C241.089 150.227 243.016 148.361 245.421 148.182C247.62 148.238 249.481 149.807 249.911 151.96C250.68 154.712 250.813 158.788 248.03 160.479C246.835 161.166 245.41 161.294 244.113 160.884L244.103 160.874Z" fill="#002856"/>
<path d="M263.27 172.418C260.189 171.506 259.569 166.338 259.446 163.627C259.277 159.68 259.097 155.435 260.169 151.611C260.527 149.76 262.05 148.371 263.916 148.171C265.474 148.089 266.92 148.94 267.596 150.335C269.76 154.712 269.334 163.396 268.581 168.194C268.299 169.906 267.35 171.998 265.525 172.515C264.767 172.674 263.993 172.638 263.249 172.403L263.26 172.423L263.27 172.418Z" fill="#002856"/>
<path d="M426.902 173.413C384.57 175.017 341.603 173.787 299.225 173.413V162.007H429.337C429.311 162.335 429.255 162.653 429.188 162.986C428.419 166.436 427.799 169.927 426.963 173.377L426.907 173.423V173.413H426.902Z" fill="#E10E14"/>
<path d="M211.634 173.423H84.1263L81.7324 162.027H212.014V173.443L211.639 173.423H211.634Z" fill="#E10E14"/>
<path d="M211.634 158.193H80.943L78.7798 146.705H212.055V158.193H211.634Z" fill="#FCE803"/>
<path d="M430.162 158.08C430.07 158.137 429.967 158.162 429.86 158.193C387.025 159.772 342.197 158.193 299.148 158.193V146.705H432.366L430.203 158.08H430.157H430.162Z" fill="#FCE803"/>
</g>
<defs>
<clipPath id="clip0_2_749">
<rect width="410.241" height="512" fill="white" transform="translate(50.4115)"/>
</clipPath>
</defs>
</svg>
