<svg width="512" height="512" viewBox="0 0 512 512" fill="none" xmlns="http://www.w3.org/2000/svg">
<g clip-path="url(#clip0_3_2092)">
<path d="M173.506 411.656L186.187 418.619C186.187 418.619 200.914 423.156 201.286 423.23C201.658 423.3 214.08 427.545 214.08 427.545L234.311 431.338L258.262 432.751L275.816 431.636L295.75 427.545L310.403 424.049L330.932 415.569L351.461 403.668L367.23 392.287L381.437 379.345L396.76 361.94L414.239 332.411L420.487 316.642L427.405 290.46L430.38 274.394L431.198 253.046L429.338 231.699L425.842 214.591L422.123 201.872L413.272 181.046L406.652 167.657L393.114 148.615L381.065 133.739L361.204 116.706L341.27 103.095L317.543 92.9048L293.815 85.9874L272.393 81.9708L246.137 81.4501L223.004 83.756L201.954 89.0371L180.681 97.4421L159.78 108.897L138.878 125.26L127.721 135.153L116.713 148.244L106.968 162.004L98.0431 177.773L91.0512 192.053L85.6215 209.905L81.0842 228.798L79.0759 247.319L80.1172 271.344L81.6048 284.509L85.9933 304.964L92.6132 323.559L101.093 340.443L115.076 363.65L137.316 386.931L154.796 401.287L173.506 411.656Z" fill="#B2B3B5"/>
<path opacity="0.96" d="M182.11 268.467L250.064 179.056L255.136 177.09L255.938 176.749L257.844 177.806L313.009 236.642L333.555 282.085L333.887 284.257L336.394 313.743L322.256 326.408L319.519 327.156L314.207 326.093L192.527 327.104L175.723 308.662L178.431 282.081L182.11 268.467Z" fill="#312C28"/>
<mask id="mask0_3_2092" style="mask-type:luminance" maskUnits="userSpaceOnUse" x="-9" y="0" width="531" height="512">
<path d="M-9 512H521.32V6.10352e-05H-9V512Z" fill="white"/>
</mask>
<g mask="url(#mask0_3_2092)">
<path d="M95.3763 251.007C96.0107 247.001 97.1405 246.114 101.999 246.888L125.333 250.607C137.414 252.528 141.481 244.498 142.498 238.092C143.88 229.367 139.96 222.849 130.452 221.337L106.666 217.547C101.877 216.783 101.025 215.522 101.616 211.768L100.521 211.603L98.5484 224.013L99.6522 224.187C100.313 219.99 101.486 219.242 106.275 220.007L129.8 223.753C137.553 224.978 141.437 230.166 140.412 236.632C139.604 241.682 136.058 246.079 127.715 244.758L102.963 240.813C98.2443 240.057 97.297 238.918 97.9314 234.912L96.8451 234.729L94.2726 250.833L95.3763 251.007Z" fill="white"/>
<path d="M118.581 191.466C122.101 184.366 130.044 183.01 139.795 187.842C149.39 192.596 153.005 199.366 149.563 206.31C148.755 207.962 147.704 209.309 146.591 210.195L117.295 195.682C117.573 193.891 117.886 192.857 118.581 191.466ZM117.929 201.843L141.272 213.402C145.166 215.34 145.435 216.409 143.662 219.998L144.514 220.433L151.093 207.127C155.604 198.037 152.962 187.399 142.411 182.167C133.572 177.787 122.726 178.7 116.877 190.502L110.42 203.547L111.272 203.964C112.975 200.392 114.027 199.905 117.929 201.843Z" fill="white"/>
<path d="M137.266 168.14L157.854 184.071C161.131 186.591 161.409 187.868 159.001 190.884L159.758 191.458L168.7 179.908L167.944 179.325C165.798 182.106 164.729 182.758 161.07 179.925L140.473 163.995C137.075 161.362 137.04 160.136 139.369 157.225L138.622 156.634L129.679 168.193L130.435 168.775C132.72 165.82 133.868 165.507 137.266 168.14Z" fill="white"/>
<path d="M147.869 149.794L150.424 150.402L168.553 171.886C170.56 174.276 170.612 175.623 168.005 177.891L168.613 178.621L177.6 171.034L177 170.304C173.837 173.129 172.55 173.337 169.639 169.887L154.022 151.385L154.109 151.315L190.54 160.927L191.131 160.423L169.37 134.637C167.501 132.43 167.588 130.97 169.804 129.093L169.187 128.371L160.792 135.454L161.409 136.176C164.442 133.542 165.702 133.577 168.44 136.819L182.284 153.227L182.197 153.297L149.763 144.771L143.454 150.098L144.062 150.811C145.34 149.742 146.2 149.377 147.869 149.794Z" fill="white"/>
<path d="M183.588 127.137L194.851 150.62C196.754 154.591 196.268 155.626 192.678 157.294L193.087 158.146L215.709 147.291L214.223 137.497L213.249 137.644C214.006 143.476 212.789 146.344 208.609 148.351L203.681 150.707C201.621 151.697 201.048 151.419 199.892 149.003L194.008 136.741L200.344 133.699C203.264 132.291 204.872 132.951 206.627 136.749L207.487 136.323L201.743 124.356L200.882 124.782C202.794 128.623 202.342 130.388 198.527 132.221L193.087 134.829L186.647 121.401L193.591 118.073C197.51 116.187 199.335 115.996 202.273 120.706L203.177 120.272L199.11 113.076L176.626 123.861L177.044 124.713C180.815 122.775 181.85 123.513 183.588 127.137Z" fill="white"/>
<path d="M216.786 124.617C219.95 126.555 226.19 128.441 228.684 129.962C231.1 131.448 232.213 132.96 232.751 135.185C233.577 138.653 231.804 141.773 228.502 142.572C224.33 143.572 218.968 141.355 216.882 134.342L215.856 134.594L218.837 147.013L219.863 146.77C219.776 145.414 220.28 144.658 221.366 144.397C222.992 144.006 225.634 145.44 229.371 144.545C235.124 143.163 238.513 137.705 237.149 132.004C236.471 129.18 234.533 126.616 231.978 125.043C228.145 122.696 221.983 121.184 218.89 119.29C216.804 118.012 215.622 116.404 215.144 114.458C214.483 111.685 216.256 109.026 219.341 108.287C222.714 107.479 228.432 109.087 230.492 116.222L231.413 116.004L228.51 103.907L227.589 104.124C227.546 105.402 226.998 106.219 226.077 106.436C224.938 106.714 222.375 105.376 218.307 106.349C212.997 107.635 210.216 112.311 211.528 117.786C212.276 120.88 214.101 122.966 216.786 124.617Z" fill="white"/>
<path d="M242.772 108.817L243.45 134.855C243.554 139.261 242.694 140.008 238.731 140.052L238.748 140.999L263.838 140.356L266.498 130.805L265.542 130.553C263.847 136.167 261.553 138.288 256.92 138.418L251.463 138.557C249.177 138.618 248.777 138.122 248.699 135.446L248.351 121.845L255.374 121.662C258.606 121.575 259.823 122.827 259.867 127.016L260.814 126.99L260.475 113.719L259.519 113.745C259.693 118.038 258.554 119.455 254.322 119.568L248.299 119.715L247.917 104.837L255.608 104.637C259.954 104.515 261.7 105.089 262.456 110.59L263.465 110.564L262.691 102.334L237.766 102.977L237.792 103.924C242.024 103.707 242.668 104.802 242.772 108.817Z" fill="white"/>
<path d="M293.092 147.647C299.332 149.629 305.024 147.734 310.056 142.059L309.222 141.234C304.52 146.066 300.461 147.595 295.534 146.014C288.051 143.632 285.079 136.575 289.268 123.409C293.743 109.373 299.853 103.151 307.579 105.61C313.515 107.496 316.2 113.501 314.428 120.984L315.549 121.34L319.277 107.062L318.217 106.723C317.356 108.582 316.757 109.147 315.948 108.895C314.384 108.391 312.724 104.976 307.675 103.368C297.385 100.092 286.608 107.583 282.324 121.062C277.909 134.915 284.357 144.866 293.092 147.647Z" fill="white"/>
<path d="M332.2 134.507L332.287 134.568L328.585 148.291L321.589 143.797L332.2 134.507ZM306.215 149.759L305.702 150.568L314.384 156.138L314.897 155.348C312.516 153.879 312.194 152.74 312.976 151.524C313.193 151.193 313.585 150.785 314.123 150.263L319.929 145.249L327.994 150.437L326.256 157.068C325.839 158.537 325.7 158.963 325.361 159.484C324.509 160.788 323.44 160.831 321.467 159.563L320.954 160.362L331.879 167.384L332.4 166.585C330.149 165.133 329.619 164.612 331.01 159.458L339.857 126.303L339.109 125.816L313.228 148.03C309.943 150.889 308.518 151.237 306.215 149.759Z" fill="white"/>
<path d="M333.33 167.671L332.626 168.305L349.399 186.747L358.655 182.011L358.264 181.168C351.728 184.175 349.651 183.879 345.593 179.43L342.933 176.492C341.36 174.763 341.438 174.102 343.29 172.408L363.174 154.322C366.468 151.324 367.598 151.576 370.266 154.583L370.97 153.948L360.758 142.729L360.063 143.363C362.766 146.248 362.905 147.482 359.646 150.446L340.378 167.967C337.371 170.704 336.215 170.921 333.33 167.671Z" fill="white"/>
<path d="M357.49 201.965C360.219 206.832 364.869 208.961 371.317 208.353L371.256 207.344C365.529 207.631 362.114 206.206 359.958 202.365C356.682 196.524 358.942 190.406 369.197 184.644C380.147 178.508 387.578 178.17 390.958 184.201C393.557 188.824 391.732 194.134 386.291 197.767L386.787 198.645L397.398 191.91L396.938 191.084C395.321 191.736 394.617 191.745 394.261 191.11C393.583 189.893 394.53 186.799 392.323 182.863C387.821 174.832 376.749 173.242 366.242 179.143C355.439 185.2 353.666 195.151 357.49 201.965Z" fill="white"/>
<path d="M395.121 205.537L370.527 214.089C366.616 215.444 365.39 214.984 364.182 211.334L363.287 211.638L368.093 225.447L368.98 225.135C367.824 221.815 367.867 220.563 372.239 219.042L396.842 210.491C400.901 209.083 401.952 209.717 403.126 213.272L404.021 212.959L399.223 199.149L398.328 199.462C399.554 202.999 399.18 204.129 395.121 205.537Z" fill="white"/>
<path d="M407.375 234.347C408.271 240.465 403.36 243.837 390.932 245.653C380.13 247.235 372.969 246.427 371.952 239.526C371.065 233.399 375.984 230.036 388.395 228.22C399.98 226.525 406.437 227.889 407.375 234.347ZM387.491 222.041C377.123 223.561 368.632 230.21 370.031 239.813C371.5 249.851 382.024 253.275 391.845 251.833C401.5 250.425 410.782 244.167 409.305 234.06C407.827 223.97 397.146 220.633 387.491 222.041Z" fill="white"/>
<path d="M440.4 398.22C446.597 394.118 447.77 392.841 447.77 392.841C447.77 392.841 440.756 388.278 423.323 393.31C423.323 393.31 412.798 395.995 401.448 405.703C390.107 415.419 372.212 428.403 357.238 433.314C357.238 433.314 370.804 436.355 393.618 426.874C416.422 417.401 434.195 402.305 440.4 398.22Z" fill="#A0834A"/>
<path d="M330.288 435.33C303.616 430.95 270.548 454.745 270.548 454.745C313.871 457.248 330.288 435.33 330.288 435.33Z" fill="#A0834A"/>
<path d="M390.863 394.335C390.863 394.335 368.215 394.692 346.21 434.061C346.21 434.061 375.923 427.777 390.863 394.335Z" fill="#A0834A"/>
<path d="M331.939 463.697C361.557 459.047 385.674 451.842 385.674 451.842C385.674 451.842 378.531 442.378 356.899 444.081C335.268 445.794 323.483 452.616 316.044 454.78C308.605 456.961 293.248 459.586 288.442 459.673C288.442 459.673 302.321 468.355 331.939 463.697Z" fill="#A0834A"/>
<path d="M361.575 91.2531C378.948 117.517 412.894 123.174 412.894 123.174C393.905 92.0613 361.575 91.2531 361.575 91.2531Z" fill="#A0834A"/>
<path d="M467.429 99.0486C467.429 99.0486 450.89 122.453 459.007 153.774C459.007 153.774 477.727 133.794 467.429 99.0486Z" fill="#A0834A"/>
<path d="M432.057 66.5972C432.057 66.5972 428.016 95.6939 452.055 123.982C452.055 123.982 452.672 86.7946 432.057 66.5972Z" fill="#A0834A"/>
<path d="M464.821 196.742C467.637 211.612 470.957 237.006 470.444 241.89C470.444 241.89 484.175 225.978 478.978 186.652C475.589 161.075 474.911 151.697 475.328 149.299C475.328 149.299 467.107 151.28 463.465 172.607C463.465 172.607 462.005 181.863 464.821 196.742Z" fill="#A0834A"/>
<path d="M405.985 390.546C405.985 390.546 430.98 373.269 433.265 334.169C433.265 334.169 411.59 345.849 405.985 390.546Z" fill="#A0834A"/>
<path d="M492.632 235.216C492.632 235.216 481.421 239.153 474.903 250.373C468.385 261.584 465.499 279.913 463.231 291.132C460.954 302.352 455.653 317.804 455.653 317.804C455.653 317.804 473.234 302.048 479.448 283.406C485.662 264.773 491.12 239.005 492.632 235.216Z" fill="#A0834A"/>
<path d="M515.836 234.303C515.836 234.303 492.954 242.177 484.315 286.578C484.315 286.578 512.96 262.192 515.836 234.303Z" fill="#A0834A"/>
<path d="M453.176 186.539C443.92 148.882 415.727 137.227 415.727 137.227C416.866 162.405 453.176 186.539 453.176 186.539Z" fill="#A0834A"/>
<path d="M487.852 192.266C487.852 192.266 500.132 164.699 488.373 128.806C488.373 128.806 479.318 138.374 480.465 161.779C481.612 185.192 487.852 192.266 487.852 192.266Z" fill="#A0834A"/>
<path d="M485.158 226.499C516.367 190.189 504.512 175.415 504.512 175.415C483.394 196.646 485.158 226.499 485.158 226.499Z" fill="#A0834A"/>
<path d="M452.48 173.085C452.48 173.085 456.921 165.611 450.456 142.572C443.99 119.542 432.683 103.976 427.625 97.719C422.575 91.4529 421.767 84.5785 421.767 84.5785C421.767 84.5785 412.277 106.61 427.833 129.041C443.39 151.463 450.056 161.77 452.48 173.085Z" fill="#A0834A"/>
<path d="M455.522 358.425C455.522 358.425 463.257 350.847 470.531 338.567C477.797 326.295 484.011 317.961 485.984 316.596C485.984 316.596 475.989 312.964 457.799 329.485C439.61 345.997 444.007 360.546 419.456 383.585C419.456 383.585 434.308 381.916 455.522 358.425Z" fill="#A0834A"/>
<path d="M307.344 44.2533C308.187 41.2289 308.787 39.4386 309.83 37.0312C312.898 35.3713 315.635 34.928 318.225 35.6494C323.753 37.1963 325.169 45.1397 321.936 56.7158C319.685 64.7461 315.818 68.6048 311.151 67.3012C305.102 65.6065 303.72 57.2112 307.344 44.2533ZM309.317 69.865C319.781 72.7851 328.341 62.7907 331.218 52.5008C333.799 43.2625 330.027 34.7542 322.423 32.6337C318.616 31.5647 314.836 32.0949 311.281 34.1719L311.16 33.9547C318.112 20.0668 329.515 12.2625 340.074 14.4613L340.517 12.9056C326.003 7.83019 305.954 18.2417 299.696 40.6292C295.594 55.3166 299.47 67.11 309.317 69.865Z" fill="#A0834A"/>
<path d="M445.702 325.079C445.702 325.079 464.187 297.503 452.828 267.945C452.828 267.945 435.09 286.587 445.702 325.079Z" fill="#A0834A"/>
<path d="M398.163 37.0921C398.163 37.0921 388.664 58.5149 411.703 93.2693C411.703 93.2693 417.161 59.7229 398.163 37.0921Z" fill="#A0834A"/>
<path d="M274.406 35.3192C268.688 34.8412 265.803 27.315 266.793 15.3391C267.489 7.02198 270.565 2.50277 275.389 2.90255C281.646 3.43268 284.496 11.4021 283.375 24.8207C283.115 28.0363 282.967 29.8179 282.393 32.3904C279.69 34.5891 277.083 35.5451 274.406 35.3192ZM277.7 55.2211C286.513 47.7644 290.867 37.5875 291.753 26.9499C293.013 11.7585 286.904 0.894974 276.71 0.0432777C266.072 -0.834492 259.389 10.2202 258.476 21.214C257.685 30.7739 262.987 38.4131 270.852 39.0736C274.789 39.3951 278.396 38.1697 281.498 35.4669L281.672 35.6581C277.448 50.6932 267.732 60.4181 256.938 60.2443L256.808 61.8521C265.255 63.0949 271.982 60.0531 277.7 55.2211Z" fill="#A0834A"/>
<path d="M447.527 195.907C438.262 217.965 461.893 252.397 461.893 252.397C468.645 220.042 447.527 195.907 447.527 195.907Z" fill="#A0834A"/>
<path d="M408.245 109.234C408.245 109.234 406.419 88.8283 388.647 74.0714C370.865 59.3231 351.468 43.1582 347.626 39.117C347.626 39.117 342.977 50.641 359.959 67.814C376.923 84.987 396.92 94.8858 408.245 109.234Z" fill="#A0834A"/>
<path d="M391.645 67.8053C391.645 67.8053 384.171 35.8841 351.233 19.5106C351.233 19.5106 355.683 45.583 391.645 67.8053Z" fill="#A0834A"/>
<path d="M379.043 438.615C379.043 438.615 402.317 452.216 439.436 439.397C439.436 439.397 416.813 424.266 379.043 438.615Z" fill="#A0834A"/>
<path d="M47.4032 196.742C50.219 181.863 48.759 172.607 48.759 172.607C45.1176 151.28 36.8961 149.299 36.8961 149.299C37.3132 151.697 36.6354 161.075 33.2546 186.652C28.0489 225.978 41.7803 241.89 41.7803 241.89C41.2675 237.006 44.5874 211.612 47.4032 196.742Z" fill="#A0834A"/>
<path d="M42.4493 399.741C63.5071 424.188 102.45 427.23 102.45 427.23C73.6753 396.578 42.4493 399.741 42.4493 399.741Z" fill="#A0834A"/>
<path d="M103.198 460.385C120.171 476.933 170.143 469.519 170.143 469.519C123.708 449.878 103.198 460.385 103.198 460.385Z" fill="#A0834A"/>
<path d="M133.181 438.615C95.4111 424.266 72.7803 439.397 72.7803 439.397C109.916 452.216 133.181 438.615 133.181 438.615Z" fill="#A0834A"/>
<path d="M49.9234 361.91C33.098 322.202 6.87793 319.021 6.87793 319.021C12.9441 342.06 49.9234 361.91 49.9234 361.91Z" fill="#A0834A"/>
<path d="M7.77332 175.415C7.77332 175.415 -4.08091 190.189 27.1277 226.499C27.1277 226.499 28.8919 196.646 7.77332 175.415Z" fill="#A0834A"/>
<path d="M148.129 486.101C148.129 486.101 178.365 494.323 205.575 471.362C205.575 471.362 173.715 465.947 148.129 486.101Z" fill="#A0834A"/>
<path d="M31.8464 161.787C32.9936 138.383 23.9378 128.806 23.9378 128.806C12.1792 164.699 24.4593 192.275 24.4593 192.275C24.4593 192.275 30.6993 185.192 31.8464 161.787Z" fill="#A0834A"/>
<path d="M-9 272.803C6.31316 301.292 38.2779 307.202 38.2779 307.202C17.3678 274.168 -9 272.803 -9 272.803Z" fill="#A0834A"/>
<path d="M27.9358 286.587C19.2884 242.186 -3.58569 234.303 -3.58569 234.303C-0.709045 262.183 27.9358 286.587 27.9358 286.587Z" fill="#A0834A"/>
<path d="M73.3885 384.185C50.3579 360.241 18.0803 364.335 18.0803 364.335C37.6259 386.609 73.3885 384.185 73.3885 384.185Z" fill="#A0834A"/>
<path d="M462.301 361.91C462.301 361.91 499.28 342.06 505.347 319.021C505.347 319.021 479.118 322.202 462.301 361.91Z" fill="#A0834A"/>
<path d="M438.836 384.185C438.836 384.185 474.599 386.609 494.153 364.335C494.153 364.335 461.867 360.241 438.836 384.185Z" fill="#A0834A"/>
<path d="M474.034 307.202C474.034 307.202 506.007 301.292 521.32 272.803C521.32 272.803 494.944 274.159 474.034 307.202Z" fill="#A0834A"/>
<path d="M409.809 427.221C409.809 427.221 448.752 424.18 469.81 399.732C469.81 399.732 438.593 396.578 409.809 427.221Z" fill="#A0834A"/>
<path d="M256.156 462.68C256.156 462.671 256.165 462.645 256.165 462.645C256.156 462.645 256.138 462.654 256.13 462.662C256.112 462.654 256.104 462.645 256.095 462.645C256.095 462.645 256.095 462.671 256.104 462.68C225.538 479.766 222.766 512 222.766 512C246.874 503.691 255.539 465.556 256.13 462.81C256.721 465.556 265.385 503.691 289.485 512C289.485 512 286.713 479.766 256.156 462.68Z" fill="#A0834A"/>
<path d="M328.984 496.174C319.737 487.996 292.918 461.02 256.851 460.255C256.851 460.255 268.818 465.565 283.219 478.592C297.611 491.629 318.529 512.243 345.054 503.144C345.054 503.144 338.231 504.352 328.984 496.174Z" fill="#A0834A"/>
<path d="M255.461 460.255C219.394 461.011 192.574 487.987 183.327 496.174C174.089 504.352 167.267 503.144 167.267 503.144C193.782 512.243 214.692 491.629 229.093 478.592C243.493 465.556 255.461 460.255 255.461 460.255Z" fill="#A0834A"/>
<path d="M342.108 469.519C342.108 469.519 392.08 476.932 409.053 460.385C409.053 460.385 388.56 449.878 342.108 469.519Z" fill="#A0834A"/>
<path d="M306.649 471.37C333.86 494.331 364.095 486.11 364.095 486.11C338.518 465.939 306.649 471.37 306.649 471.37Z" fill="#A0834A"/>
<path d="M241.729 454.736C241.729 454.736 208.661 430.941 181.989 435.321C181.989 435.321 198.406 457.239 241.729 454.736Z" fill="#A0834A"/>
<path d="M44.7959 99.0486C34.4973 133.794 53.2173 153.774 53.2173 153.774C61.3345 122.453 44.7959 99.0486 44.7959 99.0486Z" fill="#A0834A"/>
<path d="M71.911 398.22C78.1163 402.305 95.8889 417.401 118.694 426.874C141.498 436.355 155.073 433.314 155.073 433.314C140.099 428.403 122.205 415.419 110.863 405.703C99.513 395.995 88.9884 393.31 88.9884 393.31C71.5547 388.278 64.5413 392.841 64.5413 392.841C64.5413 392.841 65.7058 394.118 71.911 398.22Z" fill="#A0834A"/>
<path d="M126.576 451.834C126.576 451.834 150.693 459.038 180.311 463.688C209.921 468.346 223.8 459.664 223.8 459.664C218.985 459.586 203.646 456.953 196.207 454.78C188.75 452.607 176.965 445.785 155.334 444.073C133.711 442.369 126.576 451.834 126.576 451.834Z" fill="#A0834A"/>
<path d="M106.327 390.546C100.712 345.849 79.0463 334.169 79.0463 334.169C81.3146 373.269 106.327 390.546 106.327 390.546Z" fill="#A0834A"/>
<path d="M50.3581 252.397C50.3581 252.397 73.971 217.965 64.7153 195.907C64.7153 195.907 43.588 220.042 50.3581 252.397Z" fill="#A0834A"/>
<path d="M26.2844 316.596C28.2485 317.961 34.4624 326.295 41.7366 338.575C49.0195 350.847 56.7456 358.425 56.7456 358.425C77.9598 381.916 92.8124 383.585 92.8124 383.585C68.2609 360.546 72.6584 345.997 54.4686 329.476C36.2875 312.964 26.2844 316.596 26.2844 316.596Z" fill="#A0834A"/>
<path d="M66.6097 325.079C77.2211 286.587 59.4833 267.945 59.4833 267.945C48.1244 297.503 66.6097 325.079 66.6097 325.079Z" fill="#A0834A"/>
<path d="M228.78 3.07636C233.777 2.54622 237.705 6.47446 238.348 12.6275C238.931 18.1549 237.166 22.8566 232.804 26.837C224.652 21.3705 221.931 16.9642 221.514 12.9491C220.958 7.68248 223.965 3.58043 228.78 3.07636ZM243.824 50.2152C244.406 55.7512 241.182 60.2356 236.184 60.7658C230.031 61.4089 225.625 56.4551 224.747 48.0685C224.087 41.8199 225.521 37.3354 229.293 33.7896C239.947 40.6988 243.224 44.4184 243.824 50.2152ZM227.12 32.0254C220.637 38.1263 217.812 43.923 218.464 50.0848C219.359 58.6539 226.737 64.4593 235.576 63.5294C244.319 62.6256 250.385 55.0385 249.455 46.2C248.734 39.3256 244.788 34.4153 235.237 28.4795C242.52 22.2917 245.11 17.6943 244.545 12.3407C243.937 6.53529 238.513 -0.382568 229.067 0.608181C220.228 1.53809 214.762 7.97796 215.648 16.3646C216.256 22.17 219.628 26.7761 227.12 32.0254Z" fill="#A0834A"/>
<path d="M37.3218 250.373C30.8125 239.161 19.5927 235.216 19.5927 235.216C21.1135 239.005 26.5627 264.773 32.7766 283.415C38.9905 302.048 56.5632 317.813 56.5632 317.813C56.5632 317.813 51.2619 302.352 48.9849 291.141C46.7166 279.921 43.8312 261.584 37.3218 250.373Z" fill="#A0834A"/>
<path d="M121.362 394.335C136.301 427.777 166.015 434.061 166.015 434.061C144.01 394.692 121.362 394.335 121.362 394.335Z" fill="#A0834A"/>
<path d="M150.737 91.2531C150.737 91.2531 118.407 92.0613 99.4176 123.174C99.4176 123.174 133.364 117.517 150.737 91.2531Z" fill="#A0834A"/>
<path d="M114.148 37.0921C95.1502 59.7229 100.617 93.2693 100.617 93.2693C123.647 58.5149 114.148 37.0921 114.148 37.0921Z" fill="#A0834A"/>
<path d="M59.0488 186.539C59.0488 186.539 95.3589 162.405 96.4974 137.227C96.4974 137.227 68.3132 148.882 59.0488 186.539Z" fill="#A0834A"/>
<path d="M84.426 129.032C99.9825 106.601 90.4921 84.5785 90.4921 84.5785C90.4921 84.5785 89.6839 91.4442 84.6259 97.7103C79.5765 103.976 68.2611 119.533 61.7952 142.572C55.3292 165.611 59.7789 173.085 59.7789 173.085C62.2037 161.761 68.8695 151.463 84.426 129.032Z" fill="#A0834A"/>
<path d="M80.1674 66.5972C59.5529 86.7946 60.1699 123.982 60.1699 123.982C84.1999 95.6939 80.1674 66.5972 80.1674 66.5972Z" fill="#A0834A"/>
<path d="M160.992 19.5193C128.062 35.884 120.579 67.814 120.579 67.814C156.551 45.5829 160.992 19.5193 160.992 19.5193Z" fill="#A0834A"/>
<path d="M177.33 19.1629C179.303 18.5633 180.572 19.9538 181.824 24.0819L193.608 62.8689C194.877 67.0752 194.069 69.6737 189.81 71.0556L190.254 72.5156L209.13 66.7884L208.687 65.3197C204.394 66.632 202.169 65.1458 200.752 60.5137L185.152 9.09899L183.683 9.54222L173.724 20.258L174.715 21.3617C175.305 20.5274 176.383 19.4497 177.33 19.1629Z" fill="#A0834A"/>
<path d="M152.301 67.8053C169.274 50.6323 164.624 39.1171 164.624 39.1171C160.792 43.1496 141.394 59.3144 123.613 74.0714C105.823 88.8196 104.015 109.226 104.015 109.226C115.322 94.8858 135.328 84.9696 152.301 67.8053Z" fill="#A0834A"/>
<path d="M255.808 83.1358C351.407 83.1358 429.259 160.988 429.259 256.691C429.259 296.625 415.692 333.465 392.931 362.831L333.521 282.155C334.121 276.271 333.955 272.786 333.955 272.786V176.753H255.895L333.495 282.085C333.486 282.216 333.469 282.363 333.451 282.502C333.399 283.006 333.347 283.519 333.286 284.049C333.278 284.101 333.269 284.154 333.26 284.214C333.182 284.831 333.104 285.475 333.008 286.144C333 286.196 332.991 286.248 332.982 286.318C332.687 288.429 332.296 290.75 331.774 293.244C331.765 293.305 331.748 293.348 331.739 293.392C331.574 294.2 331.392 295.034 331.201 295.869C331.183 295.921 331.174 295.99 331.157 296.043C330.966 296.877 330.757 297.737 330.531 298.606C330.514 298.676 330.497 298.745 330.47 298.824C330.253 299.684 330.027 300.553 329.767 301.44C329.723 301.613 329.671 301.796 329.628 301.97C329.384 302.761 329.158 303.56 328.915 304.386C328.845 304.603 328.767 304.829 328.698 305.038C328.446 305.828 328.202 306.619 327.941 307.419C327.855 307.645 327.776 307.879 327.689 308.114C327.42 308.914 327.151 309.713 326.846 310.53C326.716 310.886 326.568 311.26 326.438 311.625C326.169 312.32 325.917 313.016 325.638 313.72C325.456 314.18 325.256 314.667 325.047 315.128C324.804 315.753 324.561 316.362 324.3 316.987C324.083 317.491 323.848 318.004 323.622 318.508C323.361 319.108 323.109 319.708 322.831 320.307C322.466 321.098 322.075 321.898 321.693 322.697C321.528 323.027 321.38 323.358 321.215 323.688C320.659 324.818 320.068 325.956 319.459 327.103L255.912 240.856L255.886 240.83L192.47 327.103C192.452 327.095 192.443 327.086 192.443 327.086C191.861 326.008 191.314 324.931 190.784 323.862C190.618 323.532 190.453 323.193 190.288 322.854C189.932 322.124 189.576 321.394 189.245 320.672C189.054 320.273 188.88 319.89 188.706 319.49C188.402 318.83 188.107 318.169 187.82 317.518C187.646 317.109 187.472 316.709 187.307 316.31C187.038 315.666 186.777 315.032 186.516 314.406C186.36 313.998 186.204 313.607 186.047 313.207C185.795 312.572 185.552 311.929 185.317 311.295C185.178 310.93 185.039 310.556 184.917 310.2C184.657 309.496 184.413 308.801 184.179 308.114C184.083 307.827 183.987 307.541 183.892 307.271C183.579 306.315 183.266 305.368 182.988 304.438C182.918 304.229 182.866 304.021 182.805 303.821C182.579 303.1 182.371 302.378 182.171 301.683C182.075 301.318 181.971 300.97 181.884 300.614C181.736 300.075 181.589 299.528 181.458 299.006C181.354 298.624 181.25 298.241 181.163 297.85C181.041 297.372 180.928 296.894 180.815 296.425C180.728 296.034 180.633 295.643 180.546 295.26C180.45 294.826 180.355 294.374 180.259 293.939C180.181 293.557 180.094 293.175 180.024 292.801C179.929 292.384 179.859 291.984 179.781 291.567C179.703 291.193 179.633 290.819 179.572 290.463C179.494 290.072 179.433 289.69 179.373 289.325C179.199 288.273 179.025 287.256 178.886 286.292L178.895 286.3C178.677 284.805 178.503 283.398 178.364 282.12L118.815 363.031C95.9498 333.63 82.3313 296.729 82.3313 256.691C82.3313 160.988 160.183 83.1358 255.808 83.1358ZM255.808 430.254C214.031 430.254 175.644 415.384 145.661 390.668L192.417 327.13C195.711 333.265 199.735 339.592 204.68 345.91C228.215 375.928 255.912 387.044 255.912 387.044C255.912 387.044 283.714 375.928 307.205 345.91C312.142 339.601 316.165 333.283 319.459 327.156L366.111 390.52C336.102 415.332 297.654 430.254 255.808 430.254ZM78.5856 256.682C78.5856 354.549 158.115 434.156 255.912 434.156C353.77 434.156 433.343 354.549 433.343 256.682C433.343 158.806 353.77 79.2337 255.912 79.2337C158.115 79.2337 78.5856 158.806 78.5856 256.682Z" fill="white"/>
<path d="M177.939 176.753V272.795C177.939 272.795 177.774 276.245 178.365 282.085L255.869 176.753H234.681H177.939Z" fill="white"/>
</g>
</g>
<defs>
<clipPath id="clip0_3_2092">
<rect width="530.32" height="512" fill="white" transform="translate(-9)"/>
</clipPath>
</defs>
</svg>
