<svg xmlns="http://www.w3.org/2000/svg" width="143.6" height="181.82" viewBox="0 0 143.6 181.82"><title>AJ Auxerre logo - Brandlogos.net</title><path d="M537.2,603.14c12.32-17.19,47.5-23.5,60.1-26.65S609,564.31,609,564.31v-143H465.42v143s-.93,9,11.68,12.18,47.79,9.46,60.11,26.65" transform="translate(-465.4 -421.32)" style="fill:#034ea1"/><path d="M537.1,599c-12.65-14.12-39.51-20.34-54.34-23.77-2-.44-3.65-.84-5.06-1.19-10-2.51-9.84-8.81-9.79-9.52v0l0-.13V423.83H606.48V564.57a.08.08,0,0,0,0,0c.05.71.25,7-9.79,9.52-1.41.36-3.1.75-5.05,1.19-14.87,3.44-41.84,9.68-54.44,23.88Z" transform="translate(-465.4 -421.32)" style="fill:none;stroke:#fff;stroke-width:0.8259999752044678px"/><polygon points="71.8 90.19 93.5 43.7 71.8 57.45 50.1 43.7 71.8 90.19" style="fill:#fff"/><polygon points="71.8 59.74 81.9 54.02 71.8 64.33 61.7 54.02 71.8 59.74" style="fill:#034ea1"/><polygon points="71.8 90.19 93.5 136.69 71.8 122.93 50.1 136.69 71.8 90.19" style="fill:#fff"/><polygon points="71.8 120.64 81.9 126.37 71.8 116.06 61.7 126.37 71.8 120.64" style="fill:#034ea1"/><polygon points="71.8 90.19 25.3 68.49 39.06 90.19 25.3 111.89 71.8 90.19" style="fill:#fff"/><polygon points="41.35 90.19 35.62 80.09 45.93 90.19 35.62 100.3 41.35 90.19" style="fill:#034ea1"/><polygon points="71.8 90.19 118.29 68.49 104.54 90.19 118.29 111.89 71.8 90.19" style="fill:#fff"/><polygon points="102.25 90.19 107.98 80.09 97.66 90.19 107.98 100.3 102.25 90.19" style="fill:#034ea1"/><path d="M537.2,533.19a21.68,21.68,0,1,0-21.68-21.68,21.69,21.69,0,0,0,21.68,21.68" transform="translate(-465.4 -421.32)" style="fill:#034ea1"/><path d="M537.2,529.24a17.73,17.73,0,1,0-17.73-17.73,17.74,17.74,0,0,0,17.73,17.73" transform="translate(-465.4 -421.32)" style="fill:#fff"/><path d="M537.2,527.42a15.91,15.91,0,1,0-15.9-15.91,15.91,15.91,0,0,0,15.9,15.91" transform="translate(-465.4 -421.32)" style="fill:#034ea1"/><polygon points="62.84 76.87 61.98 79.95 59.41 80.31 60.13 79.09 62.84 76.87" style="fill:#fff"/><polygon points="62.13 84.68 57.61 90.84 60.91 97.72 67.57 95.85 67.51 87.4 62.13 84.68" style="fill:#fff"/><polygon points="65.86 98.22 67.36 103.16 71.8 101.66 75.95 102.95 78.18 98.43 75.24 97.36 75.24 92.92 69.08 92.92 69.08 97.21 65.86 98.22" style="fill:#fff"/><polygon points="71.8 90.19 69.08 90.19 69.01 86.39 66.14 84.89 69.22 80.45 72.73 81.74 76.17 80.66 78.96 85.47 75.74 86.9 75.74 90.19 71.8 90.19" style="fill:#fff"/><polygon points="77.03 88.04 77.03 96.14 83.05 98 86.42 92.41 83.11 85.53 77.03 88.04" style="fill:#fff"/><polygon points="87.71 87.11 88.14 91.13 86.77 89.12 87.71 87.11" style="fill:#fff"/><polygon points="83.62 79.16 83.69 81.31 85.63 81.67 83.62 79.16" style="fill:#fff"/><polygon points="81.54 78.3 80.75 78.08 80.75 78.95 78.68 79.88 81.47 84.25 83.69 83.53 85.2 86.11 86.13 83.82 82.41 82.17 81.54 78.3" style="fill:#fff"/><polygon points="57.11 85.04 57.83 88.04 55.68 90.77 55.83 86.89 57.11 85.04" style="fill:#fff"/><polygon points="56.32 91.13 57.61 93.92 56.55 95.49 55.76 92.27 56.32 91.13" style="fill:#fff"/><polygon points="58.69 96.64 60.2 99.29 63.56 98.79 65.21 103.88 64.64 104.38 61.77 102.58 58.98 99.87 57.83 98 58.69 96.64" style="fill:#fff"/><polygon points="66.5 105.09 72.01 103.09 76.81 105.09 74.67 105.96 69.29 106.03 66.5 105.09" style="fill:#fff"/><polygon points="68.15 74.79 66.71 77.66 72.87 80.16 78.61 78.08 77.67 75.43 74.17 74.14 71.16 74.07 68.15 74.79" style="fill:#fff"/><polygon points="78.18 103.95 80.61 99.29 83.48 100.01 85.27 97.36 85.77 98 84.12 100.5 82.41 102.37 79.97 104.16 78.96 104.52 78.18 103.95" style="fill:#fff"/><polygon points="58.62 81.95 59.62 85.39 61.84 82.82 64.13 83.75 66.92 79.74 64.85 78.44 65.21 77.3 64.13 77.01 62.92 81.17 58.62 81.95" style="fill:#fff"/><polyline points="57.54 83.96 58.55 88.4 56.83 90.91 58.4 94.35 57.4 95.86" style="fill:none;stroke:#fff;stroke-width:0.16500000655651093px"/><polyline points="57.61 97.14 58.9 95.64 60.77 98.72 63.84 98 66 104.31 65.78 104.88" style="fill:none;stroke:#fff;stroke-width:0.16500000655651093px"/><polygon points="68.43 92.34 75.89 92.34 75.89 97 78.96 98.22 76.17 103.73 72.01 102.23 67 103.8 65.14 97.72 68.36 96.5 68.43 92.34" style="fill:none;stroke:#fff;stroke-width:0.16500000655651093px"/><polyline points="78.03 104.88 77.25 104.1 80.26 98.58 83.11 99.22 87.42 92.42 85.91 89.48 87.34 86.03" style="fill:none;stroke:#fff;stroke-width:0.16500000655651093px"/><polyline points="86.92 84.46 85.34 87.83 83.62 84.46 81.26 85.32 77.67 79.52 79.82 78.51 79.54 77.58 81.76 77.52" style="fill:none;stroke:#fff;stroke-width:0.16500000655651093px"/><polyline points="82.33 78.51 82.83 81.81 85.91 83.03" style="fill:none;stroke:#fff;stroke-width:0.16500000655651093px"/><polyline points="63.56 76.87 62.42 80.6 58.69 81.09" style="fill:none;stroke:#fff;stroke-width:0.16500000655651093px"/><polyline points="57.83 82.31 59.41 86.83 61.99 83.67 64.42 84.61 67.93 79.44 65.64 78.16 66 76.8 63.99 76.29" style="fill:none;stroke:#fff;stroke-width:0.16500000655651093px"/><polygon points="65.21 84.96 68.36 86.83 68.51 91.2 76.1 91.2 76.31 87.47 80.11 85.68 76.67 79.95 72.73 81.09 69.08 79.59 65.21 84.96" style="fill:none;stroke:#fff;stroke-width:0.16500000655651093px"/><path d="M537.2,495.1a16.41,16.41,0,1,0,16.41,16.41A16.41,16.41,0,0,0,537.2,495.1m0,32.06a15.65,15.65,0,1,1,15.65-15.65,15.65,15.65,0,0,1-15.65,15.65" transform="translate(-465.4 -421.32)" style="fill:#034ea1"/><rect x="5.4" y="5.59" width="132.39" height="24.64" style="fill:#fff"/><path d="M480.83,432.14,488.34,446l-3.51.71-1.42-3h-5.3l-1.4,3-3.36-.71,7.43-13.87Zm-1.89,9h3.69l-1.85-3.41Z" transform="translate(-465.4 -421.32)" style="fill:#034ea1"/><polygon points="23.67 23.02 26.05 20.69 28.42 23.02 26.05 25.36 23.67 23.02" style="fill:#034ea1"/><path d="M498.65,432.47l3.45-.33v9.36c0,3.14-1.7,5.21-4.93,5.21a3.85,3.85,0,0,1-1.28-.14l-.83-3.45a4.19,4.19,0,0,0,1.5.25c1.73,0,2.09-.89,2.09-2.56Z" transform="translate(-465.4 -421.32)" style="fill:#034ea1"/><polygon points="39.24 23.02 41.62 20.69 43.99 23.02 41.62 25.36 39.24 23.02" style="fill:#034ea1"/><path d="M517.61,432.14,525.12,446l-3.51.71-1.43-3H514.9l-1.41,3-3.35-.71,7.43-13.87Zm-1.89,9h3.69l-1.85-3.41Z" transform="translate(-465.4 -421.32)" style="fill:#034ea1"/><path d="M538,441.56c0,3.25-2.53,5.16-6,5.16-3.25,0-5.52-1.52-5.52-4.91v-9.33l3.45-.33v8.69c0,1.48.42,2.72,2.15,2.72,2.23,0,2.5-1.56,2.5-3.47v-7.61l3.45-.33Z" transform="translate(-465.4 -421.32)" style="fill:#034ea1"/><polygon points="78.75 17.85 74.57 11.84 77.98 10.82 80.82 15.13 83.63 10.82 86.92 11.96 82.79 17.78 87.24 24.26 83.73 25.4 80.74 20.69 77.62 25.4 74.31 24.18 78.75 17.85" style="fill:#034ea1"/><polygon points="89.07 25.07 89.07 11.15 96.94 11.15 97.55 14.09 92.52 14.09 92.52 16.51 96.11 16.51 96.11 19.45 92.52 19.45 92.52 22.13 97.98 22.13 97.12 25.07 89.07 25.07" style="fill:#034ea1"/><path d="M565.31,432.47h3.91c3.25,0,5.63,1.13,5.63,4.3a3.78,3.78,0,0,1-2.25,3.53l3.76,5.3-3.5,1.12-4.06-6.58h0v6.09l-3.45.33Zm3.45,6.83c1.49.11,2.64-.38,2.64-2s-1.22-1.93-2.64-1.87Z" transform="translate(-465.4 -421.32)" style="fill:#034ea1"/><path d="M577.62,432.47h3.92c3.25,0,5.62,1.13,5.62,4.3a3.78,3.78,0,0,1-2.25,3.53l3.75,5.3-3.49,1.12-4.06-6.58h0v6.09l-3.45.33Zm3.45,6.83c1.48.11,2.64-.38,2.64-2s-1.22-1.93-2.64-1.87Z" transform="translate(-465.4 -421.32)" style="fill:#034ea1"/><polygon points="124.84 25.07 124.84 11.15 132.72 11.15 133.33 14.09 128.29 14.09 128.29 16.51 131.88 16.51 131.88 19.45 128.29 19.45 128.29 22.13 133.75 22.13 132.91 25.07 124.84 25.07" style="fill:#034ea1"/></svg>