<svg xmlns="http://www.w3.org/2000/svg" viewBox="0 0 194.3 184.79"><title>lille-osc-logo</title><path d="M196.72,275.51h3.68v8.05h-3.68Z" transform="translate(-158.85 -163.61)" style="fill:none;stroke:#ff0;stroke-width:0.13743948936462402px"/><path d="M316,348.39H196L158.85,234.19,256,163.61l97.15,70.58Z" transform="translate(-158.85 -163.61)" style="fill:#24216a"/><path d="M310,340.09H202L168.61,237.35l87.4-63.5,87.4,63.5Z" transform="translate(-158.85 -163.61)" style="fill:#fff"/><path d="M254.63,181.52c.06,12.26-6.59,22.65-30.65,38.2-36.46,25.19-34.66,36.26-39.11,49.48L175,239.41Z" transform="translate(-158.85 -163.61)" style="fill:#e01e13"/><path d="M194.34,297.69c-6.64-19.05-3.82-33.28,2.59-44.26,6-10.25,15-17.9,25-24.8-6.61,8.15-11,14.8-13.87,20.42-7.77,15.2-6.35,24.64-3.75,32.53.43-10.56,1.9-20.88,13-29.34-7.68,18.83-3.09,30.31,1.12,35.88Z" transform="translate(-158.85 -163.61)" style="fill:#e01e13"/><path d="M256,278.58l-60.25,24.86,10.16,31.26H306.11l10.16-31.26Z" transform="translate(-158.85 -163.61)" style="fill:#e01e13"/><path d="M251.59,253.3c-1.16,10.81,3.07,12.47,7.2,14.82.29-4.54,1.77-5.73,3.84-6.19,9.84-2.19,12.59,8.74,18.9,12.41,3.49,2,10.58,1.15,14.22.1C308.43,270.75,313,257.77,314,248c2.16-1.28,4.74-1.4,5.37-6.83a132,132,0,0,1-26.89-14.94c1-.71,2.76-.64,3.11-2.38.1-.29-1.89-1.89-4.1-3.84-5-4.41-13.43-11.11-17.67-12.08-.09-4.58-1-9-6-12.81a26.54,26.54,0,0,1-2,10.61l-3.9-.3c1.94-7.33,2.14-15.22-2.26-22.27l77.43,56.25-18.93,58.27-60.46-23.89C251.83,271.26,245,265.46,251.59,253.3Z" transform="translate(-158.85 -163.61)" style="fill:#24216a"/><path d="M269.46,224a16.22,16.22,0,0,1,8,9.09,19.19,19.19,0,0,1,5.61-.79c2.15-.67,2.94-2.65,3.11-4.76A6,6,0,0,1,282,228C278.32,224.16,274,223.51,269.46,224Z" transform="translate(-158.85 -163.61)" style="fill:#201e5f"/><path d="M256.61,297.6c.41-4.12,6.09-3.58,6.09-3.58l-2.14-2.65a3.61,3.61,0,0,0-3.69,2.56l-.06.17a.08.08,0,0,1-.1.06s-.06,0,0-.1,0-.11,0-.15a17,17,0,0,1,2.22-5.06L256.08,285l-2.83,3.82a17,17,0,0,1,2.22,5.06s0,.08,0,.15,0,.09,0,.1a.08.08,0,0,1-.1-.06l-.06-.17a3.61,3.61,0,0,0-3.69-2.56L249.45,294s5.69-.53,6.09,3.58h1.06Z" transform="translate(-158.85 -163.61)" style="fill:#fff"/><path d="M213.07,303.06v24.58h16l-1.52-5.44H220V303.06Z" transform="translate(-158.85 -163.61)" style="fill:#fff"/><path d="M283.66,303.09a4.14,4.14,0,0,0-4.31,4v13.57l2.36,7h12.93a4.14,4.14,0,0,0,4.31-4v-4.8h-6.57v3.65h-6.47V308.34h6.47v3.53h6.57v-4.8a4.14,4.14,0,0,0-4.31-4Z" transform="translate(-158.85 -163.61)" style="fill:#fff"/><path d="M235.85,303.09a4.14,4.14,0,0,0-4.31,4v13.57l2.36,7h12.93a4.14,4.14,0,0,0,4.31-4V307.06a4.14,4.14,0,0,0-4.31-4Zm2.26,5.24h6.47v14.15H238.1Z" transform="translate(-158.85 -163.61)" style="fill:#fff"/><path d="M261.28,317.09l7.2,1.71v3.69H262v-1.86h-6.57l2.36,7h12.93a4.14,4.14,0,0,0,4.31-4v-5.52c-.12-1.93-1.64-3.59-7.54-4.76L262,312v-3.69h6.47v2H275v-3.32a4.14,4.14,0,0,0-4.31-4h-11a4.14,4.14,0,0,0-4.31,4v6.31c.07,2.36,3.4,3.08,5.84,3.72Z" transform="translate(-158.85 -163.61)" style="fill:#fff"/></svg>