<?xml version="1.0" encoding="UTF-8"?><svg id="uuid-6aeba708-8a80-4b5c-bc36-46061a524330" xmlns="http://www.w3.org/2000/svg" viewBox="0 0 44.81 57.98">
<title>Olympique de Marseille logo - Brandlogos.net</title><path d="M22.22,48.89c-4.38,0-8.35-1.82-11.25-4.77l5.13-14.73c.48,1.84,1.51,5.66,1.5,5.65l.22,1c.22.97.4,1.75.4,2.47,0,1.07-.39,2.03-1.62,3.32l.2.59c.63.39,1.8.74,2.63.78.26,1.27,1.75,3.21,2.8,4.11,1.05-.9,2.54-2.83,2.8-4.11.84-.04,2-.38,2.63-.78l.2-.59c-1.23-1.29-1.62-2.25-1.62-3.32,0-.72.18-1.5.4-2.47l.22-1s1.02-3.81,1.5-5.65l5.17,14.66c-2.91,2.99-6.91,4.84-11.32,4.84M6.13,32.18c0-5.7,2.75-10.72,6.94-13.74-.4,4.88-3.41,13.6-5.76,20.02-.76-1.94-1.18-4.05-1.18-6.28M26.39,16.04c-.07,1.11-.32,2.17-.54,3.13,0,0-.23,1.03-.23,1.05,0,0-2.91,11.7-3.39,13.53-.48-1.82-3.39-13.52-3.39-13.53,0-.02-.23-1.05-.23-1.05-.22-.97-.47-2.03-.54-3.14,1.32-.37,2.71-.56,4.15-.56s2.84.2,4.18.57M38.31,32.18c0,2.16-.4,4.22-1.12,6.11-2.37-6.39-5.38-14.99-5.79-19.83,4.17,3.02,6.91,8.04,6.91,13.72M39.59,44.71c-.13-.36-.28-.77-.45-1.22,2.77-3.13,4.41-7.05,4.41-11.31,0-7.32-4.86-13.64-11.93-16.67.32-1.44.87-3,1.49-4.1.24-.4.51-.78.8-1.14.01-.01.08-.08.08-.08h0c.45-.54.88-.93,1.22-1.2l-.29-.68c-1.42.63-4.41,2.05-6.25,3.71-.88-.82-2.54-1.66-3.76-2.05l-.23.56c.15.16.17.18.26.34h0s0,.03,0,.03c.76,1.01,1.16,2.04,1.34,3.05-1.32-.22-2.68-.34-4.07-.34s-2.74.12-4.05.34c.18-1.01.59-2.04,1.34-3.05h0s0-.03,0-.03c.09-.15.11-.18.26-.34l-.23-.56c-1.22.39-2.88,1.23-3.76,2.05-1.84-1.66-4.83-3.09-6.25-3.71l-.29.68c.34.27.78.66,1.22,1.19h0s.07.08.08.09c.29.35.56.74.8,1.14.62,1.1,1.17,2.65,1.49,4.09C5.77,18.52.9,24.85.9,32.18c0,4.3,1.68,8.26,4.5,11.41-.15.41-.29.79-.41,1.12-1.52,3.31-3.67,5.16-4.88,6.01l.28.59c5.17-.72,6.93-.18,8.08,0l1.39-3.99c3.49,2.16,7.76,3.44,12.37,3.44s8.95-1.29,12.45-3.49l1.43,4.05c1.15-.18,2.92-.72,8.09,0l.29-.59c-1.21-.84-3.36-2.7-4.88-6.01" style="fill:#0097d7; fill-rule:evenodd;"/><path d="M22.23,0l-.96,2.98h-3.13l2.54,1.85-.95,2.98,2.53-1.85,2.54,1.82-.97-2.97,2.52-1.84h-3.13l-.99-2.98Z" style="fill:#c5a459; fill-rule:evenodd;"/><path d="M1.72,55.24h-.4v1.95h.44c.37,0,.66-.12.66-1.06,0-.79-.3-.89-.7-.89ZM3.29,57.51c-.32.26-.74.41-1.43.41H0v-3.4h1.81c.35,0,.81.02,1.22.21.58.27.84.74.84,1.43,0,.53-.12.99-.58,1.35ZM5.85,55.24v.69h.38c.45,0,.6-.14.6-.37,0-.24-.2-.32-.61-.32h-.37ZM6.99,57.92l-.54-.95c-.2-.35-.32-.4-.6-.4v1.35h-1.32v-3.4h1.77c1.51,0,1.99.4,1.99.97s-.46.88-1.07.95c.18.03.39.19.52.37.17.23.6.86.77,1.11h-1.52ZM11.81,56.2c0-.85-.25-1.05-.82-1.05-.6,0-.85.41-.85,1.06,0,.87.32,1.08.86,1.08s.8-.22.8-1.09ZM8.67,56.3c0-1.21,1-1.84,2.36-1.84,1.74,0,2.25.88,2.25,1.63,0,.98-.46,1.89-2.3,1.89-1.49,0-2.31-.65-2.31-1.67ZM13.94,57.92v-3.4h1.35v3.4h-1.35ZM19.53,55.24h-1.19v2.68h-1.33v-2.68h-1.19v-.72h3.87l-.15.72ZM23.34,55.97c-.05-.15-.09-.35-.1-.48-.01.13-.05.31-.14.54l-.21.56h.66l-.22-.62ZM24.1,57.92l-.26-.65h-1.21l-.28.65h-1.38l1.65-3.4h1.37l1.55,3.4h-1.43ZM29.59,56.87c0,.29-.01.42-.12.56-.21.28-.79.55-1.8.55-.81,0-1.37-.15-1.68-.42-.19-.19-.25-.27-.25-.72v-2.31h1.33v2.22c0,.31.15.52.61.52s.6-.18.6-.51v-2.23h1.32v2.35ZM33.94,56.52h-.49v.67h.5c.33,0,.47-.14.47-.35,0-.17-.08-.32-.49-.32ZM33.45,55.24v.59h.52c.32,0,.43-.15.43-.32s-.13-.27-.44-.27h-.51ZM34.22,57.92h-2.08v-3.4h2.27c.74,0,1.35.21,1.35.83,0,.31-.19.63-.76.75.5.09.94.36.94.77,0,.62-.55,1.05-1.72,1.05ZM40.42,56.87c0,.29-.02.42-.13.56-.21.28-.79.55-1.8.55-.81,0-1.37-.15-1.68-.42-.19-.19-.25-.27-.25-.72v-2.31h1.33v2.22c0,.31.15.52.61.52s.6-.18.6-.51v-2.23h1.32v2.35ZM44.66,55.24h-1.19v2.68h-1.33v-2.68h-1.19v-.72h3.87l-.15.72Z" style="fill:#c5a459; fill-rule:evenodd;"/></svg>