<svg xmlns="http://www.w3.org/2000/svg" width="316.23" height="316.23" viewBox="0 0 316.23 316.23"><title>Toulouse FC logo - Brandlogos.net</title><path d="M670.11,512A158.11,158.11,0,1,1,512,353.89,158.11,158.11,0,0,1,670.11,512" transform="translate(-353.89 -353.89)" style="fill:#38284f"/><path d="M665.84,512A153.84,153.84,0,1,1,512,358.16,153.84,153.84,0,0,1,665.84,512" transform="translate(-353.89 -353.89)" style="fill:#fff"/><path d="M661.57,512A149.57,149.57,0,1,1,512,362.43,149.57,149.57,0,0,1,661.57,512" transform="translate(-353.89 -353.89)" style="fill:#38284f"/><path d="M608.19,512A96.19,96.19,0,1,1,512,415.81,96.19,96.19,0,0,1,608.19,512" transform="translate(-353.89 -353.89)" style="fill:#fff"/><path d="M429.09,481.63v60.75l9.64,20.7,20.18,20.7V440.23l-20.18,20.7Z" transform="translate(-353.89 -353.89)" style="fill:#695188"/><path d="M474.32,593.21l29.82,8.14V422.66l-29.82,8.13Z" transform="translate(-353.89 -353.89)" style="fill:#695188"/><path d="M519.56,601.37l29.82-8V430.66l-29.82-8Z" transform="translate(-353.89 -353.89)" style="fill:#695188"/><path d="M594.61,543.29V480.72L585,460.35,564.79,440V584L585,563.66Z" transform="translate(-353.89 -353.89)" style="fill:#695188"/><path d="M512,420.12A91.88,91.88,0,1,0,603.88,512,91.88,91.88,0,0,0,512,420.12Zm0,4.27A87.6,87.6,0,1,1,424.4,512,87.6,87.6,0,0,1,512,424.4Z" transform="translate(-353.89 -353.89)" style="fill:#38284f"/><path d="M378.35,505.47h-3.29V502h7.41v21h-4.12Z" transform="translate(-353.89 -353.89)" style="fill:#fff"/><path d="M398.63,509.07a3.8,3.8,0,0,0-7.61,0,3.69,3.69,0,0,0,3.84,3.88c2.54,0,3.76-1.63,3.76-3.88m-3.17,6.85a3.77,3.77,0,0,1-1.31.24,7,7,0,0,1-7.37-7.09c0-4.64,3.65-7.41,8-7.41s8,2.7,8,7.33c0,2.18-1,4.2-2.89,6.9L395,523h-4.52Z" transform="translate(-353.89 -353.89)" style="fill:#fff"/><path d="M617.36,517.48l3.48-1.78a5.2,5.2,0,0,0,4.9,3.4c2.49,0,4.07-1.39,4.07-4s-2.06-3.84-4.43-3.84a10.22,10.22,0,0,0-3.24.47l-.32-.59,5.14-6.33H619v-3.48h14.71v.2l-5.61,7a6.47,6.47,0,0,1,5.93,6.64c0,4.15-2.73,7.47-8.3,7.47a9,9,0,0,1-8.38-5.18" transform="translate(-353.89 -353.89)" style="fill:#fff"/><path d="M646.36,504.82h-10v-3.48h15.9v.2L642.4,522.3h-4.35Z" transform="translate(-353.89 -353.89)" style="fill:#fff"/><path d="M429.84,411.26l-5.77,5.52,13.53,14.15-3.52,3.36-13.53-14.15-5.77,5.52-3-3.18,15.06-14.4Z" transform="translate(-353.89 -353.89)" style="fill:#fff"/><path d="M452.53,414.7a7.33,7.33,0,0,0,3.49-4.78,7.68,7.68,0,0,0-1-6,7.83,7.83,0,0,0-4.89-3.68,7.25,7.25,0,0,0-5.87.9,7.37,7.37,0,0,0-3.51,4.83,7.94,7.94,0,0,0,1.07,6,7.79,7.79,0,0,0,4.84,3.67,7.47,7.47,0,0,0,5.88-.95m8.14-3.84a12.24,12.24,0,0,1-5.75,7.75,12.4,12.4,0,0,1-9.55,1.6A12.66,12.66,0,0,1,436.09,405a12.28,12.28,0,0,1,5.76-7.8,12.15,12.15,0,0,1,9.54-1.55,12.57,12.57,0,0,1,9.27,15.17" transform="translate(-353.89 -353.89)" style="fill:#fff"/><path d="M480.8,381.25l4.08,12.6a11.62,11.62,0,0,1-.17,8.63,9.62,9.62,0,0,1-6.15,5.27,10,10,0,0,1-8.25-.6,11.48,11.48,0,0,1-5.27-6.87L461,387.69l4.63-1.5,4.08,12.6c1.24,3.81,4.19,5.6,7.46,4.54,3.1-1,4.37-4.16,3.13-8l-4.08-12.6Z" transform="translate(-353.89 -353.89)" style="fill:#fff"/><path d="M509.44,397.14l.46,4.38-17.15,1.82-2.53-23.84,4.84-.51,2.06,19.47Z" transform="translate(-353.89 -353.89)" style="fill:#fff"/><path d="M524.78,398.47a7.34,7.34,0,0,0,5.68-1.66,7.69,7.69,0,0,0,2.84-5.38,7.83,7.83,0,0,0-1.64-5.9,7.23,7.23,0,0,0-5.2-2.86,7.38,7.38,0,0,0-5.72,1.69,7.94,7.94,0,0,0-2.81,5.42,7.81,7.81,0,0,0,1.61,5.86,7.49,7.49,0,0,0,5.24,2.83m8.79,1.91A12.25,12.25,0,0,1,524.3,403a12.4,12.4,0,0,1-8.55-4.55,12.66,12.66,0,0,1,1.89-17.69,12.29,12.29,0,0,1,9.32-2.68,12.15,12.15,0,0,1,8.51,4.58,12.57,12.57,0,0,1-1.89,17.69" transform="translate(-353.89 -353.89)" style="fill:#fff"/><path d="M567.57,389.18l-4.44,12.47a11.61,11.61,0,0,1-5.4,6.74,9.62,9.62,0,0,1-8.09.43,10,10,0,0,1-6.17-5.5,11.49,11.49,0,0,1,0-8.66l4.44-12.47,4.58,1.63-4.44,12.47c-1.34,3.78-.09,7,3.14,8.14,3.07,1.09,6-.64,7.34-4.41L563,387.55Z" transform="translate(-353.89 -353.89)" style="fill:#fff"/><path d="M588.26,402.57a8.19,8.19,0,0,1,.1,6l-4.66-1.72a4.49,4.49,0,0,0-2-5.65c-2-1.23-4-1-4.88.46-.7,1.12-.45,2.21.75,3.33l3.83,3.6c2.92,2.83,3.67,6,1.72,9.16a6.58,6.58,0,0,1-5.13,3.3,10.93,10.93,0,0,1-6.94-1.92,12.28,12.28,0,0,1-4.81-5.14,7.15,7.15,0,0,1,.06-6.2l4.89,1.82c-.86,2.54,0,4.58,2.5,6.15,2.31,1.44,4.3,1.15,5.22-.33.76-1.22.51-2.25-1-3.69l-3.81-3.51c-3.08-3-3.67-6-1.72-9.16a6.41,6.41,0,0,1,4.88-3.16A10.12,10.12,0,0,1,584,397.7a10.26,10.26,0,0,1,4.3,4.87" transform="translate(-353.89 -353.89)" style="fill:#fff"/><path d="M598.83,435.69l-3,3.19-13.2-12.56L599.13,409l13.14,12.51-3,3.19-9.62-9.15-3.72,3.92,8.87,8.44-3,3.14-8.87-8.43-3.75,3.94Z" transform="translate(-353.89 -353.89)" style="fill:#fff"/><path d="M412.86,570.5l-4.29,2.76,5.47,8.51-3.22,2.07-5.47-8.51-6.81,4.37-2.29-3.56,17.54-11.28L422.21,578,419,580Z" transform="translate(-353.89 -353.89)" style="fill:#fff"/><path d="M417.55,598.82a6.37,6.37,0,0,0,4.69,2.13,6.69,6.69,0,0,0,4.93-1.93,6.81,6.81,0,0,0,2.27-4.82,6.29,6.29,0,0,0-1.8-4.84,6.41,6.41,0,0,0-4.73-2.14,6.91,6.91,0,0,0-4.93,2A6.78,6.78,0,0,0,415.7,594a6.5,6.5,0,0,0,1.84,4.84m4.71,6.25a10.66,10.66,0,0,1-7.61-3.53,10.79,10.79,0,0,1-3-7.85,11,11,0,0,1,11.29-10.57,10.69,10.69,0,0,1,7.66,3.54,10.55,10.55,0,0,1,3,7.85,10.93,10.93,0,0,1-11.29,10.57" transform="translate(-353.89 -353.89)" style="fill:#fff"/><path d="M438.06,616.61a6.38,6.38,0,0,0,5,1.12,6.68,6.68,0,0,0,4.42-2.91,6.8,6.8,0,0,0,1.23-5.18,6.3,6.3,0,0,0-2.76-4.36,6.42,6.42,0,0,0-5.07-1.11,6.92,6.92,0,0,0-4.42,2.95,6.78,6.78,0,0,0-1.24,5.13,6.5,6.5,0,0,0,2.8,4.35m5.89,5.15a10.65,10.65,0,0,1-8.18-1.88,10.77,10.77,0,0,1-4.6-7A11,11,0,0,1,440,600.15a10.69,10.69,0,0,1,8.22,1.87,10.57,10.57,0,0,1,4.55,7.06A10.93,10.93,0,0,1,444,621.75" transform="translate(-353.89 -353.89)" style="fill:#fff"/><path d="M471.89,619.63l-6.3-2.92-7.15,15.44-3.84-1.78,7.16-15.44L455.46,612l1.61-3.47,16.43,7.61Z" transform="translate(-353.89 -353.89)" style="fill:#fff"/><path d="M478.35,621.29,477,626.21l5.1,1.39a2.57,2.57,0,0,0,3.41-1.84,2.43,2.43,0,0,0-1.79-3Zm-3.59,13.14,5.4,1.47c1.8.49,3-.21,3.44-1.74a2.48,2.48,0,0,0-1.93-3.2l-5.55-1.52Zm10.67-4.37c1.77.74,3,3,2.23,5.64-.93,3.39-3.68,5-8,3.81l-9.93-2.71,5.49-20.11,9.9,2.7c3.6,1,5.34,3.84,4.42,7.2a4.39,4.39,0,0,1-1.71,2.6,3.51,3.51,0,0,1-2.36.74Z" transform="translate(-353.89 -353.89)" style="fill:#fff"/><path d="M504.91,635.17l-2.36-7.67-3.69,7.15Zm7.22,8.94-4.56-.4-1.41-4.59-9.18-.8-2.22,4.27-4.56-.4,10.8-20,3.94.35Z" transform="translate(-353.89 -353.89)" style="fill:#fff"/><path d="M531.47,638.73l.32,3.81-14.94,1.24L515.12,623l4.22-.35,1.4,17Z" transform="translate(-353.89 -353.89)" style="fill:#fff"/><path d="M551,634.37l.89,3.72-14.58,3.5-4.87-20.26,4.11-1,4,16.55Z" transform="translate(-353.89 -353.89)" style="fill:#fff"/><path d="M575.12,618.55l4-1.1a9.72,9.72,0,0,1-.43,7.09,11.22,11.22,0,0,1-13.34,5.69,11,11,0,0,1-7-13.8,11.19,11.19,0,0,1,12.44-7.4,9.55,9.55,0,0,1,5.86,3.59l-3.14,2.88c-2.23-2.75-5.15-3.22-7.84-1.86a6.3,6.3,0,0,0-3.35,3.93,6.79,6.79,0,0,0,.49,5.26,6.92,6.92,0,0,0,4,3.55A6.39,6.39,0,0,0,572,626c2.75-1.39,4-4,3.14-7.45" transform="translate(-353.89 -353.89)" style="fill:#fff"/><path d="M597.47,608.86l2.3,3.06-12,9-12.53-16.65,3.38-2.54,10.23,13.6Z" transform="translate(-353.89 -353.89)" style="fill:#fff"/><path d="M601.21,580.87l8.36,7.91a10.11,10.11,0,0,1,3.46,6.66,8.37,8.37,0,0,1-2.5,6.59,8.66,8.66,0,0,1-6.54,3,10,10,0,0,1-6.89-3L588.74,594l2.91-3.07,8.36,7.91c2.53,2.39,5.53,2.53,7.58.36s1.6-5-.93-7.39l-8.36-7.91Z" transform="translate(-353.89 -353.89)" style="fill:#fff"/><path d="M619.92,584.12l3.06-4.69c1-1.56.73-2.94-.6-3.81a2.48,2.48,0,0,0-3.64.86l-3.14,4.82Zm-11.42-7.44,4.28,2.79,2.89-4.43a2.57,2.57,0,0,0-.71-3.81,2.43,2.43,0,0,0-3.41.79ZM619,572.61c1.25-1.45,3.74-1.91,6.06-.4,2.94,1.92,3.62,5,1.18,8.79l-5.63,8.63-17.47-11.39,5.61-8.6c2-3.13,5.3-3.9,8.21-2a4.39,4.39,0,0,1,2,2.42,3.5,3.5,0,0,1,0,2.48Z" transform="translate(-353.89 -353.89)" style="fill:#fff"/><path d="M512,428.67c-29.84,0-68.17,4.23-68.17,4.23V554.25c-.12,33.39,52.82,17,68.17,45.36,15.34-28.34,68.17-12,68.17-45.36V432.9S545,428.67,512,428.67" transform="translate(-353.89 -353.89)" style="fill:#dab072"/><path d="M575.64,485.67H448.36V437c10.59-1.06,40-3.78,63.65-3.78,25.9,0,53.54,2.67,63.64,3.75Z" transform="translate(-353.89 -353.89)" style="fill:#695188"/><path d="M575.64,554.25c0,13.69-10.21,16.75-28.25,21-11.54,2.7-24.29,5.71-33.13,14.11v-21a12.63,12.63,0,0,1-4.52.08v20.88c-8.85-8.41-21.61-11.41-33.16-14.12-18.06-4.22-28.27-7.28-28.22-21V490.2H509.8l0,53.41a12.66,12.66,0,0,1,4.52.05l0-53.46h61.33Z" transform="translate(-353.89 -353.89)" style="fill:#de003c"/><path d="M498.42,537.18a.56.56,0,1,1,1.11,0v1.47h-1.11Zm-.46,1.47h-1.11v-1.47a.56.56,0,1,1,1.11,0Zm-1.34-14.5a1.4,1.4,0,1,1,2.76,0l0,2.65h-2.79Zm-.23,14.5h-1.1v-1.47a.56.56,0,1,1,1.1,0Zm-1.57,0h-1.11v-1.47a.56.56,0,1,1,1.11,0Zm-4.25-11.82v-2.68a1.39,1.39,0,1,1,2.76,0l0,2.65Zm2.68,11.82h-1.11v-1.47a.56.56,0,1,1,1.11,0Zm-1.57,0h-1.11v-1.47a.56.56,0,1,1,1.11,0Zm-1.57,0H489v-1.47a.56.56,0,1,1,1.11,0Zm-1.57,0h-1.11v-1.47a.56.56,0,1,1,1.11,0Zm-1.57,0h-1.11v-1.47a.56.56,0,1,1,1.11,0Zm-1.57,0h-1.11v-1.47a.56.56,0,1,1,1.11,0Zm-1.57,0h-1.11v-1.47a.56.56,0,1,1,1.11,0Zm-1.57,0h-1.11v-1.47a.56.56,0,1,1,1.11,0Zm1.2-10H481.5V522.3h1.94Zm-2.51-15.58a1.39,1.39,0,1,1,2.76,0l0,2.65h-2.79Zm-.26,25.57h-1.11v-1.47a.56.56,0,1,1,1.11,0Zm-1.57,0H478v-1.47a.56.56,0,1,1,1.11,0Zm-4.24-22.89v-2.68a1.4,1.4,0,1,1,2.76,0l0,2.65Zm2.67,22.89h-1.11v-1.47a.56.56,0,1,1,1.11,0Zm-2.63-16.28h1.94v6.36h-1.94ZM476,538.65h-1.11v-1.47a.56.56,0,1,1,1.11,0Zm-1.57,0h-1.11v-1.47a.56.56,0,1,1,1.11,0Zm-1.57,0h-1.11v-1.47a.56.56,0,1,1,1.11,0Zm-1.57,0h-1.11v-1.47a.56.56,0,1,1,1.11,0Zm-1.57,0h-1.11v-1.47a.56.56,0,1,1,1.11,0Zm-4.11-11.82v-2.68a1.39,1.39,0,1,1,2.76,0l0,2.65Zm2.54,11.82H467v-1.47a.56.56,0,1,1,1.11,0Zm-1.57,0h-1.11v-1.47a.56.56,0,1,1,1.11,0Zm-1.57,0h-1.11v-1.47a.56.56,0,1,1,1.11,0Zm-1.57,0h-1.11v-1.47a.56.56,0,1,1,1.11,0Zm-1.57,0h-1.11v-1.47a.56.56,0,1,1,1.11,0Zm-1.57,0h-1.11v-1.47a.56.56,0,1,1,1.11,0Zm-.74-14.5a1.4,1.4,0,1,1,2.76,0l0,2.65h-2.79Zm-.83,14.5h-1.11v-1.47a.56.56,0,1,1,1.11,0Zm41.3-1.47a.56.56,0,1,1,1.11,0v1.47H500ZM499.57,553a12.44,12.44,0,0,1,2-4.28V514.05h-1.9v4.27h-1.9v-4.27h-1.9v4.27H494v-4.27h-1.9v4.27h-1.9v-4.27h-1.9v18.18h-1.9v-32h-1.58v5.36h-1.58V500.2H481.6v5.36H480V500.2h-1.58v5.36h-1.59V500.2h-1.58v5.36h-1.59V500.2h-1.58v32h-1.9V514.05h-1.9v4.28h-1.9v-4.28h-1.9v4.28h-1.9v-4.28h-1.9v4.28h-1.9v-4.28h-1.9v42.8h17.38l0-9.6a7.19,7.19,0,0,1,1.49-4,4.57,4.57,0,0,1,3.51-2.09h0c2.8,0,4.91,3.72,4.91,6.14v9.6h15.1a12.4,12.4,0,0,1,.33-3.86" transform="translate(-353.89 -353.89)" style="fill:#fff"/><path d="M532.59,529H522.47v-.42h10.13Z" transform="translate(-353.89 -353.89)" style="fill:#fff"/><path d="M567.06,528.63V529H556.94v-.42" transform="translate(-353.89 -353.89)" style="fill:#fff"/><path d="M567.06,528.21H556.94L562,514.77Z" transform="translate(-353.89 -353.89)" style="fill:#fff"/><path d="M562.66,514.11a.66.66,0,1,1-.66-.66.66.66,0,0,1,.66.66" transform="translate(-353.89 -353.89)" style="fill:#fff"/><path d="M545.42,497.54a.66.66,0,1,1-.66-.66.66.66,0,0,1,.66.66" transform="translate(-353.89 -353.89)" style="fill:#fff"/><path d="M551.7,507.66l-13.8,0,6.87-9.43Z" transform="translate(-353.89 -353.89)" style="fill:#fff"/><path d="M550.77,532.61h-2v-4.77c0-.69.41-1.25.91-1.25h.13c.5,0,.91.56.91,1.25Zm-2.85,0h-2.68v-4.77a1.25,1.25,0,0,1,1.25-1.25h.18a1.25,1.25,0,0,1,1.25,1.25Zm-3.58,0h-2.68v-4.77a1.25,1.25,0,0,1,1.25-1.25h.18a1.25,1.25,0,0,1,1.25,1.25Zm-3.58,0h-2v-4.77c0-.69.41-1.25.92-1.25h.14c.51,0,.92.56.92,1.25Zm-2.88-6.9v7.78h13.81v-7.75Z" transform="translate(-353.89 -353.89)" style="fill:#fff"/><path d="M543.35,494.82h1.14v2.73H545v-2.73h1.14v-.68h-1.14v-1.36h-.57v1.36h-1.14Z" transform="translate(-353.89 -353.89)" style="fill:#fff"/><path d="M560.9,511.35h.87v2.1h.44v-2.1h.88v-.52h-.87v-1h-.44v1h-.87Z" transform="translate(-353.89 -353.89)" style="fill:#fff"/><path d="M532.59,528.21H522.47l5.06-13.44Z" transform="translate(-353.89 -353.89)" style="fill:#fff"/><path d="M528.19,514.11a.66.66,0,1,1-.66-.66.66.66,0,0,1,.66.66" transform="translate(-353.89 -353.89)" style="fill:#fff"/><path d="M526.44,511.35h.87v2.1h.44v-2.1h.87v-.52h-.87v-1h-.44v1h-.88Z" transform="translate(-353.89 -353.89)" style="fill:#fff"/><path d="M550.79,524.35h-2v-3l1-3,1,3Zm-2.85,0h-2.68v-3l1.34-3,1.34,3Zm-3.58,0h-2.68v-3l1.34-3,1.34,3Zm-3.58,0h-2v-3l1-3,1,3Zm-2.88-7v8l13.81,0v-8Z" transform="translate(-353.89 -353.89)" style="fill:#fff"/><path d="M550.79,515.94h-2v-3l1-3,1,3Zm-2.85,0h-2.68v-3l1.34-3,1.34,3Zm-3.58,0h-2.68v-3l1.34-3,1.34,3Zm-3.58,0h-2v-3l1-3,1,3Zm-2.88-7v8l13.81,0v-8Z" transform="translate(-353.89 -353.89)" style="fill:#fff"/><path d="M537.89,508.08h13.8v.45h-13.8" transform="translate(-353.89 -353.89)" style="fill:#fff"/><path d="M566.12,544h-2v-1a1,1,0,1,1,2,0Zm-2.91,0h-2v-1a1,1,0,1,1,2,0Zm-2.91,0h-2v-1a1,1,0,1,1,2,0Zm-2.91,0h-2v-1a1,1,0,1,1,2,0Zm-2.91,0h-2v-1a1,1,0,1,1,2,0Zm-2.91,0h-2v-1a1,1,0,1,1,2,0Zm-2.73-4.28v-3.52c0-.69.41-1.25.91-1.25h.13c.5,0,.91.56.91,1.25v3.52Zm-.18,4.28h-2v-1a1,1,0,1,1,2,0Zm-2.91,0h-2v-1a1,1,0,1,1,2,0Zm-2.91,0h-2v-1a1,1,0,1,1,2,0Zm-2.06-4.28h-2v-3.52c0-.69.41-1.25.92-1.25h.14c.51,0,.92.56.92,1.25Zm-.85,4.28h-2v-1a1,1,0,1,1,2,0Zm1.74-7.81a1.25,1.25,0,0,1,1.25-1.25h.18a1.25,1.25,0,0,1,1.25,1.25v3.52h-2.68Zm3.58,0a1.25,1.25,0,0,1,1.25-1.25h.18a1.25,1.25,0,0,1,1.25,1.25v3.52h-2.68ZM537,544h-2v-1a1,1,0,1,1,2,0Zm-2.91,0h-2v-1a1,1,0,1,1,2,0Zm-2.91,0h-2v-1a1,1,0,1,1,2,0Zm-2.91,0h-2v-1a1,1,0,1,1,2,0Zm-2.91,0h-2v-1a1,1,0,1,1,2,0Zm31.56-14.49v10.2H551.7v-5.76H537.89v5.76h-5.3v-10.2H522.47v19.82c.16.26.33.52.47.79a12.52,12.52,0,0,1,1.47,6.4h9.67v-6.62a3.94,3.94,0,0,1,3.11-3.94,3.82,3.82,0,0,1,4.53,3.75v6.81H548v-6.81a3.82,3.82,0,0,1,7.64,0v6.81h11.42v-27Z" transform="translate(-353.89 -353.89)" style="fill:#fff"/><path d="M522.94,550.08c-.14-.27-.31-.53-.47-.79a12.71,12.71,0,0,0-7.1-5.37c-.36-.11-.71-.19-1.08-.26a12.56,12.56,0,0,0-12.72,5,12.32,12.32,0,0,0-2.33,8.15,12.7,12.7,0,0,0,1.83,5.78,12.57,12.57,0,0,0,7.71,5.63c.32.08.65.14,1,.19v-.17c-.31-.06-.62-.13-.92-.22a12,12,0,0,1-7.12-5.8,11.89,11.89,0,0,1,4.57-15.86,11.56,11.56,0,0,1,3.48-1.32,12,12,0,0,1,4.52-.06c.25,0,.49.09.74.15a11.82,11.82,0,0,1,7.26,5.28c.07.11.12.22.19.34a12,12,0,0,1,1.56,5.68,11.75,11.75,0,0,1-.32,3,12,12,0,0,1-5.62,7.44,12.59,12.59,0,0,0,5.82-7.39,12.38,12.38,0,0,0,.5-3.1,12.53,12.53,0,0,0-1.47-6.4" transform="translate(-353.89 -353.89)" style="fill:#dab072"/><path d="M505.42,572.19l-.17,0h0c.13.28.51,0,.21,0m.33,0a.29.29,0,0,0-.13,0c.25,0,.23,0,.13,0m2.16-.08a1.47,1.47,0,0,0-.36,0l-1.72,0c.35.67-.12.9-.06,1.1a.87.87,0,0,1,.58.08.19.19,0,0,1,0,0c0-.11,0-.22.15-.24s.19.2.19.23a.35.35,0,0,1-.21.33l0,0c0,.14-.24.29-.61.4a8.39,8.39,0,0,1,.56,3.76c.39.86-1.61,2-.81,2.29.44-.93.16.84,1.2.29,1.13.09.41-1.2,1.32-1.43.2-1.56-.54-3.15-.07-4.64.52-.69.87-2.2-.14-2.2m6.7-.58a.5.5,0,0,1-.55.25l-.08,0c.11,0,.2.12.26.11s.44-.15.43-.35,0,0-.06,0m7.08-.58c-.34.32,1,1.08-.31.81-.37.42.14,1.36-.14,2.06a5.49,5.49,0,0,1-2.05,4.67c-.39.74.8-.48.41.41,1.06.51,1.63-.71,2-1.32-.06-1.74,1-3.3,2.08-4.72-.62-.32-.42-1.41-1.63-1,.61-.53.47-.69-.41-.87m-.18-.45c-.61.35-1.8.78-.44.52-.07-.19,1.08-.53.44-.52m-8.76-.16c.17,0,.42.32.43.43a.24.24,0,0,1-.19.27.49.49,0,0,1-.49-.45c0-.17.22-.25.26-.25m12.61-.08a.34.34,0,0,1,.22.06c0,.05.06.13.09.19s.11.08.17.15a.29.29,0,0,1,.07.16c0,.14-.19.21-.25.22s-.17,0-.2-.07a2.23,2.23,0,0,1-.3-.5.22.22,0,0,1,.19-.21m.57-.47c.06,0,.2.15.28.23a.23.23,0,0,1,0,.11c0,.05-.05.14-.11.15s-.4-.27-.4-.29.13-.18.19-.19m-12.09-.33a.25.25,0,0,1,.26.25c0,.11,0,.14-.1.15s-.12,0-.17,0-.43.26-.49.27-.17,0-.17-.12.09-.45.26-.47.17,0,.22,0,.14-.07.19-.07m.69-.07c.19,0,.43.26.43.43s-.21.27-.24.27-.14,0-.2,0-.25.13-.3.14-.14-.13-.14-.13,0-.17.23-.3,0-.2.07-.28a.17.17,0,0,1,.14-.09m1.88-1.21c.14,0,.15.21.15.23,0,.39-.33.23-.36.65a.25.25,0,0,1-.14.07c-.19,0-.23-.2-.23-.23a.64.64,0,0,1,0-.22c.08-.09.19-.16.27-.25s.11-.15.16-.21.06,0,.11,0m-3.22,0c.09,0,.15,0,.15.12s0,.17,0,.23.2.26.21.31a.32.32,0,0,1,0,.18,2.33,2.33,0,0,1-.46.32c-.11,0-.11-.07-.11-.1s.11-.15.16-.24-.17-.23-.18-.37,0-.42.23-.44h.1m4.7-.68a.2.2,0,0,1,.23.17c0,.14-.21.33-.29.33s-.14-.12-.14-.15.06-.31.18-.35h0m1.12-.05c.06,0,.17.13.22.15s.11,0,.14,0a.13.13,0,0,1,.06.1c0,.06-.21.27-.29.42s0,0-.09,0a.18.18,0,0,1-.14-.1c0-.14,0-.33,0-.39s0-.22.14-.23m-3.55-.27c.06,0,.08,0,.08.07s-.1.23-.09.29.2.4.21.45a.76.76,0,0,1-.07.23c-.05.06-.32.45-.4.46s-.17-.26-.17-.26.15-.32.15-.38-.06-.13-.06-.19.06-.64.36-.67m7.46-.58a.29.29,0,0,1,.17.07c.06,0,.06.08.12.13a.19.19,0,0,1,.11,0s0,.05,0,.11,0,.14-.1.15-.43-.24-.44-.38,0,0,0-.05,0,0,.09,0m-6.72-.52c.11,0,.15.18.15.21s-.06,0-.06.09.09.11.09.16,0,.22-.16.24-.23-.17-.23-.28,0-.39.21-.41m-9.94-.09c.21,0,.15.24.34.22s.22-.14.28-.14.29.33.3.45-.06.23-.13.23a.38.38,0,0,1-.32-.19h-.06c-.2.24-.13.32-.32.34s-.29-.36-.29-.47,0-.42.2-.44m-.53-.89a.26.26,0,0,1,.18.06c0,.08,0,.2,0,.25s.14.18.14.24-.08.12-.14.12-.08,0-.13,0-.2.16-.25.17-.2-.23-.32-.33-.25-.06-.4-.13v-.08a.7.7,0,0,1,.2-.08c.15,0,.21.09.31.08s.07-.26.31-.28h.05m15.33-.23.06,0a1.63,1.63,0,0,1,.29.33.3.3,0,0,1,.06.16c0,.05-.05.12-.05.17s.06.19.07.27-.1.34-.19.35-.28-.28-.29-.34.06-.42.06-.47-.2-.12-.21-.37c0-.08.06-.11.11-.12H521m-14.61-.43c.14,0,.1.24.23.23s.14-.09.2-.1.23,0,.23.14a.42.42,0,0,1-.13.26c-.06,0-.14,0-.2,0a.41.41,0,0,1-.16.07.34.34,0,0,1-.34-.3c0-.11,0-.31.18-.32m1.22-.31c.06,0,.39.1.45.09a.66.66,0,0,0,.19-.08.13.13,0,0,1,.06.11c0,.14-.27.19-.3.2h-.22c-.06,0-.25.13-.3.14s-.24,0-.24-.12.24-.33.36-.34m-.14-1.49s.06,0,.09,0,0,0,0,.05-.26.22-.27.25-.06.09-.11.12a2.57,2.57,0,0,0-.43.1s-.11.09-.15.09a1,1,0,0,1-.25.09h-.26c-.15,0-.18.27-.4.29a.27.27,0,0,1-.31-.25c0-.17.28-.64.43-.65s.21.26.2.34a.46.46,0,0,0,.2,0c.07,0,.19-.24.4-.26s.21.06.31.05Zm21.5-.43c.25,0,.29.28.29.39s-.15.4-.15.46a.64.64,0,0,0,.09.21c.06.08.22.15.28.23a.34.34,0,0,1,.15.32c0,.17-.08.22-.21.49-.08.09-.07.23-.15.35h-.08s-.11-.1-.12-.16v-.3c0-.25-.27-.53-.28-.59s.11-.12.16-.15-.06-.05-.06-.08c0-.44-.18-.37-.19-.68,0-.06,0-.47.26-.49m-22-1a.56.56,0,0,1-.05.2c-.3.14-.29.31-.52.33-.06,0-.1,0-.15,0s-.17.27-.38.29c-.06,0-.16-.07-.21-.06s-.11.07-.17.07a.28.28,0,0,1-.3-.28.41.41,0,0,1,.4-.46c.13,0,.07,0,.28.08s.14,0,.2,0a.71.71,0,0,0,.2.06c.06,0,.18-.1.27-.11a.42.42,0,0,1,.26-.05Zm-2.93-.35s-.06.08-.08.28c-.67.26.39.85-.52.78.14.71.68,1.08-.44.93-.57.77,1-.27.45.62.61.71-.94,2.53.44,2.14,0,.51-.56,1.53.6,1.09.31-1.17-1.45-1.38-.39-2.54-.43-.37-.1-1.12.18-1.36,0-.19-.07-.38-.07-.39s-.11,0-.15,0a.27.27,0,0,1-.1-.18c0-.25.21-.49.3-.81,0,0,0-.11,0-.17l0,0c-.13,0-.21-.33-.27-.31m5.85-1.41a.17.17,0,0,1,.19.15c0,.11-.17.43-.26.44a.1.1,0,0,1-.11-.07v-.36c0-.11.18-.16.19-.16m-4.58-.33c.05,0,0,0,.07,0s.06.16.09.24.35-.12.36.1-.58.39-.6.39a.27.27,0,0,1-.31-.25c0-.11.19-.49.38-.51m4-.61c.08,0,.22.34.22.34s0,.31-.14.32a.13.13,0,0,1-.11,0c0-.05,0-.08,0-.14a.57.57,0,0,0-.1-.18s0,0,0-.08.08-.2.15-.21m-3.9-1c.09,0,.12.1.12.1s0,.12,0,.18.23.09.23.23a.15.15,0,0,1,0,.11l-.5.16c-.14,0-.06-.13-.09-.21s-.08,0-.13-.07-.13-.18-.13-.18,0-.25.17-.27.14.1.2.09.15-.13.21-.13M504.19,556c-.06,0-.16.1-.18.13s0,.17-.07.23a2.38,2.38,0,0,0-.18.32.34.34,0,0,0,.16,0,.37.37,0,0,0,.11,0c.14-.18.25-.39.41-.57-.08,0-.19-.12-.24-.12m3.94-.27c.19,0,.23.28.23.33s0,.17,0,.23,0,.11,0,.16-.09.12-.11.12c-.18,0-.26-.31-.26-.34s.05-.17,0-.23,0-.16,0-.22a.11.11,0,0,1,.1-.06m-3.38-1.51c-.29,0-.55.49-.6.72s-.14.16-.21.19a.29.29,0,0,0,.19.09.66.66,0,0,0,.21-.08c.17-.16.37-.51.57-.55,0,0,.35-.06.34-.2s0-.06,0-.08-.42-.09-.48-.09m5.55-.32a2.53,2.53,0,0,1,.35.16c.11,0,.26.06.39.1s.71.43.71.63a.11.11,0,0,1-.11.12c-.06,0-.22-.09-.32-.11s-.33,0-.48,0a.59.59,0,0,1-.33-.5c-.07,0-.32-.17-.33-.25a.12.12,0,0,1,.1-.12m.43-1.41c.06,0,.06,0,.09,0s.31.22.32.31a.14.14,0,0,1-.13.15c-.12,0-.2-.15-.24-.23a.87.87,0,0,0-.27,0,.16.16,0,0,1-.06-.11c0-.11.28-.17.29-.17m-1.31-2.19-.26,0c-.84.18-2.45.53-2.61,1.1.71,0,2.16,1.69.77.85-.36-.51-2.64-1.11-1.23-.11.46.55,2.67,1.41.73,1-.87-.26-1.77-1.84-2.55-1.46a3,3,0,0,0,3.21,2c.13.77-1.37.22-1.53,1-.09.26,0,1.12-.78.76-.35.43,1.19.91,0,.93-.34.49.12,1.12-.76,1,.51.84-1.36-.11-.58.91.73.52-1.09,1.71.09,1.47.58-.33.48-2.61.74-1.1.63.67-.58,1.19,0,1.91a.86.86,0,0,1-.22.4c.13,0,.08.05.2.09v.3c0,.06-.07.07-.07.12s.21.06.21.22-.12.32-.12.37.19.06.19.26-.13.32-.13.38.05.13.05.19v.17s0,0-.09,0a.25.25,0,0,1-.17,0c0,.06,0,.11,0,.18,1,.79-.28,2.23.25,3.34.44.88-1,.24-.14,1.15.8-.06.72-1,.64-1.48,1.09.27.35,2.37,1.72,1.73.26.54-.65,1.39-.43.39-.41.29-1.72-.74-1,.17.67.57.71.81-.21.94-1.2.14-1.55.78-2.59,1.23-1.07.18-2.41.8-2.21,2a16.21,16.21,0,0,1-.76,4.28c0,.84.19,2.13.84,1.82.9.14,1.41-1.86.85-2.67a8.59,8.59,0,0,1,1.14-4.09c1.37-1,3.36-.13,4.58-1.21.76.09,1.85.64,2-.62.88.22-.2,1.33,1.08,1.46,1.25.66,1.85-.2,1.41-1.24,0-1,.89-.88.43.18-.47.8,1.18,2,.89,1.43-.84-.78.48-.78.86-.87-.83-.8,0-1,.52-.33a3.43,3.43,0,0,0,.95-.79.35.35,0,0,1,0,.09h.11a1.37,1.37,0,0,1,.55-.28c.06,0,.12,0,.17,0a4.12,4.12,0,0,0-.43-.15l-.13,0a1.48,1.48,0,0,1,1.53-.46c.79.37-1.4,1,.16.73.41-.4.81-2.53.84-1.23.08-.12.27-.17.37-.31s0-.14,0-.19.11-.12.16-.13.31.14.32.25-.38.43-.37.46.12.24.12.29,0,0,0,.06,0,0-.08,0a.66.66,0,0,1-.5-.26c-.35.67.73.67.41,1.06.38-.39.52-.77,1.14-.5,1.07-.28.4-1.55,1.19-2.26-.5-.07-.83-1.34-.32-1.32.27-.51,1,1.93,1,.4,1-.4.12,1.41,1.16,1.31a.59.59,0,0,1,.28.19.37.37,0,0,0,0-.1c0-.05,0-.05,0-.08s-.25-.09-.26-.23a.21.21,0,0,1,.19-.13h.08c.39,0,.45.12.46.4a2.17,2.17,0,0,1-.19.8h-.11l0,0c0,.48-.09,1,.71.82a.53.53,0,0,1,0-.13c-.14-.1-.34,0-.34-.22s.19-.18.27-.19.26.08.34.08a1.43,1.43,0,0,0,.3-.09.4.4,0,0,0,.16-.15.44.44,0,0,1,0-.17.22.22,0,0,1,.11-.06.3.3,0,0,1,.28.22l0,.41a.44.44,0,0,1-.22.16c-.05,0-.22,0-.28,0s-.05.06-.11.1c.12.13.36.19.37.41,0,.06-.07.18-.07.23s.12.24.12.29-.07.26-.09.4a.4.4,0,0,1-.16.07c-.11,0-.15-.19-.15-.21s0-.09,0-.14-.22,0-.28,0l-.06-.06c-.07.12-.23.05-.44-.43-1.28.66-.85-1.22-1.45-1.57-.38-.35-.63-.92-1.08-.16.17.39.65,1.71.6.45,1.39.13.07,2.45,1.84,2.1.34.78,1.52-.19,2,.72.92-.44.89-.05.85.61.54-1.71.49,1,.78,1.46a10.82,10.82,0,0,1-.37,4.12c0,.73-1.83,1.72-.21,1.78a2,2,0,0,0,1.86-2.26,11.17,11.17,0,0,1,1.07-5c-.13-1.17-1-2.13-.44-3.35,0-1.3,1.08-2.18.37-3.38.52-1.6.31.59.93.94a7.14,7.14,0,0,0-.89,2.66c-.43.73.38,2.27.08.67-.07-.7.54-1.36.71-2.07.6.7-.8,2.6.18,3.13.75-.44.12-1.12.73-1.85-.17-1.06.7-2.26-.13-3.29.58-1.1-.7-1.85-.61-2.89-.41-1.15-1.81-1.86-2.46-2.9a5.34,5.34,0,0,0-3.82-.6c-1.2-.67-2.41.69-3.53.12-1.2,0-2.14,1-3.37.73-1.31.79-2.82-.43-4.2-.21-1,.14-2.73.08-2.06-1.24-.88,0-.71-.93-1.79-.77-.85-.24-.5-1.41,0-.38a5,5,0,0,0,2.61-.25c.61.21,2.66.17,1-.17-.57-.83,2.23.84,1.27-.5-1-.27-.34-1,.23-.15.1-1.43-1.45-2.76-2.3-3.49-.95-.53,1.14-.09.26-1a3.62,3.62,0,0,0-3.06-1.58" transform="translate(-353.89 -353.89)" style="fill:#fff"/><path d="M512,533.37A21.37,21.37,0,1,1,533.37,512,21.37,21.37,0,0,1,512,533.37m0-44.81A23.44,23.44,0,1,0,535.44,512,23.47,23.47,0,0,0,512,488.56" transform="translate(-353.89 -353.89)" style="fill:#dab072"/><path d="M512,490.63A21.37,21.37,0,1,0,533.37,512,21.37,21.37,0,0,0,512,490.63" transform="translate(-353.89 -353.89)" style="fill:#38284f"/><path d="M528.26,510.72a1.28,1.28,0,0,0-1.14.72l-1.61-.81a5,5,0,0,1-1.79-2.53l-.24-.71a1.28,1.28,0,0,0-.4-2.49,1.29,1.29,0,0,0-1.29,1.29,1.25,1.25,0,0,0,.24.7l-.63.42a22.07,22.07,0,0,1-7.22,2.52,22.43,22.43,0,0,1,2.52-7.23l.41-.62a1.25,1.25,0,0,0,.7.23,1.29,1.29,0,0,0,0-2.57,1.27,1.27,0,0,0-1.2.88l-.7-.23a5.12,5.12,0,0,1-2.53-1.79l-.8-1.6a1.29,1.29,0,1,0-1.15,0l-.8,1.6a5.13,5.13,0,0,1-2.54,1.8l-.69.23a1.27,1.27,0,0,0-1.2-.88,1.29,1.29,0,0,0,0,2.57,1.25,1.25,0,0,0,.69-.23l.4.61a22.46,22.46,0,0,1,2.52,7.23,22.09,22.09,0,0,1-7.22-2.52l-.63-.42a1.26,1.26,0,0,0,.24-.7,1.29,1.29,0,1,0-1.69,1.21l-.24.71a5.13,5.13,0,0,1-1.79,2.53l-1.61.81a1.29,1.29,0,1,0,0,1.14l1.61.81a5.13,5.13,0,0,1,1.79,2.53l.24.7a1.27,1.27,0,0,0-.88,1.2,1.29,1.29,0,1,0,2.57,0,1.25,1.25,0,0,0-.24-.7l.62-.42a22.09,22.09,0,0,1,7.22-2.52,22.51,22.51,0,0,1-2.52,7.23l-.41.62a1.25,1.25,0,0,0-.7-.23,1.29,1.29,0,0,0,0,2.57,1.27,1.27,0,0,0,1.2-.88l.7.23a5.12,5.12,0,0,1,2.53,1.79l.81,1.61a1.29,1.29,0,1,0,1.14,0l.81-1.61a5,5,0,0,1,2.53-1.79l.7-.24a1.27,1.27,0,0,0,1.2.89,1.29,1.29,0,0,0,0-2.57,1.25,1.25,0,0,0-.7.23l-.41-.62a22.46,22.46,0,0,1-2.52-7.23,22.1,22.1,0,0,1,7.22,2.52l.63.43a1.25,1.25,0,0,0-.24.7,1.29,1.29,0,1,0,2.57,0,1.27,1.27,0,0,0-.88-1.2l.24-.71a5.12,5.12,0,0,1,1.79-2.53l1.61-.81a1.28,1.28,0,1,0,1.14-1.85" transform="translate(-353.89 -353.89)" style="fill:#dab072"/><path d="M512,499.18c.85,1.71,3.42,2.56,3.42,2.56a24.45,24.45,0,0,0-3,9.83c1.71,0,7.12-1.17,9.83-3,0,0,.85,2.56,2.56,3.42-1.71.85-2.56,3.42-2.56,3.42-2.71-1.82-8.12-3-9.83-3a24.46,24.46,0,0,0,3,9.83s-2.57.85-3.42,2.56c-.85-1.71-3.42-2.56-3.42-2.56a24.5,24.5,0,0,0,3-9.83c-1.71,0-7.12,1.17-9.83,3,0,0-.85-2.56-2.56-3.42,1.71-.85,2.56-3.42,2.56-3.42,2.71,1.82,8.12,3,9.83,3a24.47,24.47,0,0,0-3-9.83s2.56-.85,3.42-2.56" transform="translate(-353.89 -353.89)" style="fill:#de003c"/><path d="M535,430c-.79,1.3-4,3.67-5.76,4.34-.45.18,2.13-.1,3.29-.25,1.52-.19,3.49-1.13,3.44-.8a6.42,6.42,0,0,0,2.64,5.21l.18.11.19-.11a6.48,6.48,0,0,0,2.64-5.21c0-.33,1.92.61,3.44.8,1.15.15,3.74.43,3.29.25-1.72-.68-5-3-5.76-4.34Z" transform="translate(-353.89 -353.89)" style="fill:#dab072"/><path d="M509.63,462.19a14.52,14.52,0,0,0-1.73-6.51c-2.81-5.91-11.38-5.76-9.49,1.46.7,2.66,3.06,4.23,5.87,4.5-.2-.7-1.32-3.18-.42-3.67,1.44.05,3.4,3,3.83,4.22h1.94" transform="translate(-353.89 -353.89)" style="fill:#dab072"/><path d="M516.19,462.19c.43-1.19,2.39-4.16,3.83-4.22.9.49-.22,3-.42,3.67,2.81-.27,5.18-1.83,5.87-4.5,1.89-7.22-6.68-7.36-9.49-1.46a14.54,14.54,0,0,0-1.73,6.51h1.94" transform="translate(-353.89 -353.89)" style="fill:#dab072"/><path d="M511.78,441.49c-2.72,2.93-4.54,6.31-3.75,10.28a47.34,47.34,0,0,0,2.22,6.33,10.94,10.94,0,0,1,.53,4.1h2.3a11.23,11.23,0,0,1,.53-4.1,55.49,55.49,0,0,0,2.23-6.33c.83-4.1-1.12-7.19-3.74-10.27l-.16-.2Z" transform="translate(-353.89 -353.89)" style="fill:#dab072"/><path d="M517.36,466.63H506.48a1.18,1.18,0,0,1-1.17-1.18v-.89a1.18,1.18,0,0,1,1.17-1.18h10.87a1.18,1.18,0,0,1,1.17,1.18v.89a1.18,1.18,0,0,1-1.17,1.18" transform="translate(-353.89 -353.89)" style="fill:#dab072"/><path d="M508.12,467.83c-.79,1.3-4,3.67-5.76,4.34-.45.18,2.13-.1,3.29-.25,1.52-.19,3.49-1.13,3.44-.8a6.41,6.41,0,0,0,2.64,5.21l.18.11.19-.11a6.47,6.47,0,0,0,2.64-5.21c0-.33,1.92.61,3.44.8,1.15.15,3.74.42,3.29.25-1.72-.68-5-3-5.76-4.34Z" transform="translate(-353.89 -353.89)" style="fill:#dab072"/><path d="M486.42,476.07l-.16-.2-.16.19c-2.71,2.92-4.53,6.3-3.75,10.25h7.81c.82-4.08-1.13-7.17-3.74-10.24" transform="translate(-353.89 -353.89)" style="fill:#dab072"/><path d="M538.93,476.07l-.16-.2-.16.19c-2.71,2.92-4.53,6.3-3.75,10.25h7.81c.82-4.08-1.13-7.17-3.74-10.24" transform="translate(-353.89 -353.89)" style="fill:#dab072"/><path d="M457.29,462.19a14.52,14.52,0,0,0-1.73-6.51c-2.81-5.91-11.38-5.76-9.49,1.46.7,2.66,3.06,4.23,5.87,4.5-.2-.7-1.32-3.18-.42-3.67,1.44.05,3.4,3,3.83,4.22h1.94" transform="translate(-353.89 -353.89)" style="fill:#dab072"/><path d="M463.86,462.19c.43-1.19,2.39-4.16,3.83-4.22.9.49-.22,3-.42,3.67,2.81-.27,5.18-1.83,5.87-4.5,1.89-7.22-6.68-7.36-9.49-1.46a14.52,14.52,0,0,0-1.73,6.51h1.94" transform="translate(-353.89 -353.89)" style="fill:#dab072"/><path d="M459.45,441.49c-2.72,2.93-4.54,6.31-3.75,10.28a47.56,47.56,0,0,0,2.23,6.33,10.94,10.94,0,0,1,.53,4.1h2.3a11.23,11.23,0,0,1,.53-4.1c.71-2.12,1.78-4.14,2.23-6.33.83-4.1-1.12-7.19-3.74-10.27l-.16-.2Z" transform="translate(-353.89 -353.89)" style="fill:#dab072"/><path d="M465,466.63H454.15a1.18,1.18,0,0,1-1.17-1.18v-.89a1.18,1.18,0,0,1,1.17-1.18H465a1.18,1.18,0,0,1,1.17,1.18v.89a1.18,1.18,0,0,1-1.17,1.18" transform="translate(-353.89 -353.89)" style="fill:#dab072"/><path d="M455.79,467.83c-.79,1.3-4,3.67-5.76,4.34-.45.18,2.13-.1,3.29-.25,1.52-.19,3.49-1.13,3.44-.8a6.41,6.41,0,0,0,2.64,5.21l.18.11.19-.11a6.47,6.47,0,0,0,2.64-5.21c0-.33,1.92.61,3.44.8,1.15.15,3.74.42,3.29.25-1.72-.68-5-3-5.76-4.34Z" transform="translate(-353.89 -353.89)" style="fill:#dab072"/><path d="M562.39,462.19a14.54,14.54,0,0,0-1.73-6.51c-2.81-5.91-11.38-5.76-9.49,1.46.7,2.66,3.06,4.23,5.87,4.5-.2-.7-1.32-3.18-.42-3.67,1.44.05,3.4,3,3.83,4.22h1.94" transform="translate(-353.89 -353.89)" style="fill:#dab072"/><path d="M569,462.19c.43-1.19,2.39-4.16,3.83-4.22.9.49-.22,3-.42,3.67,2.81-.27,5.18-1.83,5.87-4.5,1.89-7.22-6.68-7.36-9.49-1.46a14.52,14.52,0,0,0-1.73,6.51H569" transform="translate(-353.89 -353.89)" style="fill:#dab072"/><path d="M564.55,441.49c-2.72,2.93-4.54,6.31-3.75,10.28A47.56,47.56,0,0,0,563,458.1a11,11,0,0,1,.53,4.1h2.3a11.23,11.23,0,0,1,.53-4.1c.71-2.12,1.78-4.14,2.23-6.33.83-4.1-1.12-7.19-3.74-10.27l-.16-.2Z" transform="translate(-353.89 -353.89)" style="fill:#dab072"/><path d="M570.12,466.63H559.25a1.18,1.18,0,0,1-1.17-1.18v-.89a1.18,1.18,0,0,1,1.17-1.18h10.87a1.18,1.18,0,0,1,1.17,1.18v.89a1.18,1.18,0,0,1-1.17,1.18" transform="translate(-353.89 -353.89)" style="fill:#dab072"/><path d="M560.89,467.83c-.8,1.3-4,3.67-5.76,4.34-.45.18,2.13-.1,3.29-.25,1.52-.19,3.49-1.13,3.44-.8a6.41,6.41,0,0,0,2.64,5.21l.18.11.19-.11a6.47,6.47,0,0,0,2.64-5.21c0-.33,1.92.61,3.44.8,1.15.15,3.74.42,3.29.25-1.72-.68-5-3-5.76-4.34Z" transform="translate(-353.89 -353.89)" style="fill:#dab072"/><path d="M482.46,430c-.79,1.3-4,3.67-5.76,4.34-.45.18,2.13-.1,3.29-.25,1.52-.19,3.49-1.13,3.44-.8a6.41,6.41,0,0,0,2.64,5.21l.18.11.19-.11a6.48,6.48,0,0,0,2.64-5.21c0-.33,1.92.61,3.44.8,1.15.15,3.74.43,3.29.25-1.72-.68-5-3-5.76-4.34Z" transform="translate(-353.89 -353.89)" style="fill:#dab072"/></svg>