<svg width="512" height="512" viewBox="0 0 512 512" fill="none" xmlns="http://www.w3.org/2000/svg">
<g clip-path="url(#clip0_2_101)">
<path d="M248.027 0.143278C247.679 0.184238 245.918 0.348078 244.116 0.532398C242.313 0.716718 239.548 1.06488 237.972 1.33112C236.395 1.59736 234.121 2.00696 232.954 2.25272C231.766 2.49848 229.861 2.90808 228.735 3.1948C227.609 3.48152 225.581 4.03448 224.229 4.4236C222.878 4.8332 220.994 5.40664 220.031 5.73432C219.068 6.04152 217.225 6.69688 215.935 7.16792C214.624 7.65944 212.331 8.58104 210.795 9.21592C209.279 9.87128 206.74 11.0386 205.163 11.7964C203.586 12.5542 201.046 13.8649 199.531 14.7046C197.995 15.5442 195.742 16.8345 194.492 17.5718C193.264 18.309 191.011 19.7426 189.536 20.7257C188.041 21.7087 185.952 23.1423 184.908 23.9001C183.863 24.6374 181.815 26.1734 180.341 27.3202C178.887 28.4466 176.06 30.7609 174.094 32.4402C172.128 34.1401 168.012 38.0108 164.96 41.0623C161.909 44.0934 158.161 48.0255 156.645 49.7663C155.109 51.5071 152.529 54.5996 150.891 56.6271C149.273 58.6546 146.999 61.5628 145.873 63.0783C144.747 64.5938 143.088 66.9081 142.187 68.1983C141.265 69.4886 139.668 71.8438 138.623 73.4207C137.579 74.9977 135.735 77.9058 134.527 79.8719C133.319 81.838 131.619 84.6642 130.779 86.1183C129.94 87.5929 128.444 90.2348 127.482 92.0166C126.499 93.7778 124.697 97.239 123.468 99.6966C122.239 102.134 120.539 105.656 119.659 107.52C118.778 109.384 117.262 112.783 116.279 115.098C115.296 117.412 113.965 120.627 113.31 122.266C112.654 123.904 111.446 127.037 110.627 129.229C109.808 131.42 108.436 135.291 107.596 137.83C106.736 140.37 105.568 143.954 104.995 145.818C104.421 147.681 103.623 150.262 103.254 151.552C102.865 152.842 102.005 155.976 101.349 158.515C100.674 161.055 99.8749 164.147 99.5677 165.376C99.281 166.625 98.8918 168.141 98.728 168.755C98.5846 169.37 98.3184 170.537 98.1546 171.315C97.9702 172.114 97.6221 173.814 97.3354 175.104C97.0486 176.394 96.5981 178.606 96.3114 180.019C96.0246 181.432 95.5536 183.828 95.2874 185.344C95.0006 186.859 94.5706 189.215 94.3453 190.566C94.12 191.918 93.7514 194.171 93.5261 195.584C93.3008 196.997 92.9322 199.475 92.7069 201.114C92.4816 202.752 92.113 205.558 91.8877 207.36C91.6624 209.162 91.2938 212.378 91.048 214.528C90.8227 216.678 90.4541 220.59 90.2288 223.232C90.0035 225.874 89.6349 231.69 89.4096 236.134C89.1024 242.278 89 247.071 89 256C89 264.929 89.1024 269.722 89.4096 275.866C89.6349 280.31 90.0035 286.126 90.2288 288.768C90.4541 291.41 90.8227 295.342 91.048 297.472C91.2938 299.622 91.6624 302.838 91.8877 304.64C92.113 306.442 92.584 309.862 92.9117 312.218C93.2394 314.593 93.608 317.03 93.7104 317.645C93.8128 318.259 94.0995 319.918 94.3248 321.331C94.5706 322.744 95.0006 325.14 95.2874 326.656C95.5741 328.171 96.0246 330.527 96.2909 331.878C96.5776 333.23 97.0077 335.401 97.2944 336.691C97.5606 337.981 97.9293 339.702 98.1136 340.48C98.2774 341.258 98.7894 343.429 99.24 345.293C99.711 347.156 100.489 350.29 101.001 352.256C101.513 354.222 102.066 356.25 102.21 356.762C102.353 357.274 102.681 358.379 102.906 359.219C103.152 360.059 103.95 362.742 104.708 365.158C105.445 367.575 106.633 371.323 107.35 373.453C108.067 375.603 109.07 378.491 109.582 379.904C110.094 381.317 110.75 383.119 111.057 383.898C111.344 384.696 112.265 387.031 113.084 389.12C113.924 391.209 115.419 394.854 116.443 397.21C117.447 399.585 118.778 402.575 119.372 403.866C119.966 405.156 121.686 408.658 123.181 411.648C124.676 414.638 126.417 418.038 127.052 419.226C127.687 420.413 129.141 422.994 130.267 424.96C131.394 426.926 133.196 429.978 134.281 431.718C135.346 433.459 137.108 436.224 138.172 437.862C139.237 439.501 141.081 442.225 142.268 443.904C143.456 445.604 145.586 448.491 146.999 450.355C148.412 452.219 150.522 454.922 151.73 456.397C152.918 457.871 155.191 460.534 156.768 462.336C158.345 464.138 161.888 467.886 164.653 470.651C167.418 473.416 170.572 476.447 171.637 477.389C172.702 478.331 173.91 479.375 174.299 479.723C174.688 480.092 176.224 481.341 177.678 482.529C179.153 483.717 181.59 485.622 183.126 486.748C184.642 487.875 186.772 489.39 187.836 490.127C188.901 490.865 191.257 492.38 193.059 493.507C194.861 494.612 197.442 496.148 198.814 496.886C200.165 497.623 202.603 498.893 204.241 499.712C205.879 500.531 208.788 501.862 210.692 502.682C212.617 503.501 214.747 504.381 215.423 504.627C216.099 504.873 217.696 505.426 219.007 505.876C220.297 506.327 222.755 507.085 224.434 507.597C226.134 508.088 228.346 508.682 229.349 508.928C230.373 509.153 232.319 509.583 233.671 509.85C235.022 510.136 237.316 510.546 238.791 510.771C240.265 510.996 242.743 511.324 244.32 511.508C246.184 511.734 249.748 511.877 254.376 511.939C260.581 512.02 262.158 511.979 265.968 511.611C268.384 511.386 271.845 510.955 273.648 510.648C275.45 510.362 277.805 509.931 278.87 509.727C279.956 509.501 281.696 509.092 282.782 508.826C283.847 508.559 285.465 508.15 286.366 507.904C287.267 507.658 289.622 506.921 291.588 506.286C293.575 505.631 296.524 504.566 298.162 503.91C299.78 503.255 302.422 502.149 303.999 501.412C305.576 500.695 308.382 499.302 310.245 498.34C312.109 497.377 315.017 495.759 316.717 494.735C318.396 493.732 320.895 492.155 322.247 491.254C323.598 490.353 325.728 488.898 326.957 488.018C328.206 487.137 330.705 485.233 332.507 483.799C334.33 482.365 336.808 480.297 338.057 479.232C339.286 478.167 340.802 476.836 341.416 476.283C342.03 475.709 344.631 473.17 347.15 470.63C349.69 468.091 353.028 464.589 354.585 462.848C356.121 461.107 358.373 458.486 359.561 457.011C360.77 455.557 362.592 453.243 363.637 451.891C364.681 450.539 366.524 448.061 367.774 446.362C369.003 444.682 371.501 441.037 373.324 438.272C375.126 435.507 377.809 431.268 379.243 428.851C380.697 426.434 382.827 422.687 384.014 420.557C385.182 418.427 387.455 414.003 389.073 410.726C390.691 407.47 392.923 402.76 394.029 400.282C395.115 397.803 396.343 394.998 396.732 394.035C397.122 393.073 397.756 391.516 398.146 390.554C398.535 389.591 399.497 387.154 400.255 385.126C401.033 383.099 402.18 380.006 402.795 378.266C403.409 376.525 404.515 373.248 405.273 370.995C406.01 368.742 407.013 365.527 407.525 363.827C408.037 362.148 408.795 359.567 409.205 358.093C409.614 356.618 410.024 355.164 410.126 354.816C410.208 354.488 410.884 351.846 411.601 348.979C412.338 346.112 413.28 342.241 413.69 340.378C414.099 338.514 414.53 336.589 414.652 336.077C414.755 335.565 415.308 332.902 415.84 330.138C416.393 327.373 416.885 324.71 416.967 324.198C417.049 323.686 417.274 322.314 417.499 321.126C417.704 319.939 418.052 317.788 418.277 316.314C418.523 314.859 418.892 312.32 419.117 310.682C419.342 309.043 419.711 306.237 419.936 304.435C420.162 302.633 420.551 299.418 420.776 297.267C421.001 295.117 421.37 291.164 421.595 288.461C421.82 285.757 422.169 280.74 422.353 277.299C422.64 272.384 422.722 267.837 422.722 256C422.722 244.04 422.64 239.636 422.353 234.598C422.148 231.117 421.759 225.587 421.472 222.31C421.206 219.034 420.837 215.122 420.653 213.606C420.489 212.091 420.162 209.367 419.936 207.565C419.731 205.762 419.342 202.916 419.117 201.216C418.871 199.537 418.236 195.42 417.684 192.102C417.131 188.785 416.27 183.992 415.758 181.453C415.267 178.913 414.652 175.964 414.427 174.899C414.222 173.834 413.649 171.336 413.198 169.37C412.727 167.403 411.847 163.799 411.212 161.382C410.597 158.966 409.594 155.238 408.98 153.088C408.365 150.938 407.362 147.579 406.747 145.613C406.133 143.647 405.15 140.595 404.576 138.854C403.982 137.114 402.795 133.693 401.914 131.277C401.033 128.86 400.214 126.648 400.091 126.362C399.968 126.075 399.272 124.334 398.535 122.47C397.797 120.607 396.937 118.456 396.61 117.658C396.282 116.859 395.115 114.196 394.029 111.718C392.923 109.24 390.711 104.55 389.093 101.274C387.475 98.0172 385.223 93.6345 384.076 91.5455C382.908 89.4566 381.598 87.1218 381.147 86.3231C380.697 85.5449 379.611 83.7426 378.772 82.3295C377.932 80.9164 376.539 78.6636 375.679 77.3119C374.839 75.9602 373.262 73.5641 372.197 71.9871C371.132 70.4102 369.105 67.502 367.692 65.5359C366.258 63.5698 364.108 60.6617 362.859 59.0847C361.63 57.5078 359.541 54.9273 358.23 53.3503C356.899 51.7734 354.359 48.8652 352.557 46.8991C350.755 44.933 347.621 41.6972 345.594 39.7311C343.587 37.765 340.863 35.2255 339.573 34.0786C338.283 32.9522 336.255 31.2114 335.067 30.2079C333.879 29.2249 331.258 27.1769 329.21 25.6409C327.182 24.1254 324.192 21.9954 322.554 20.91C320.916 19.845 318.048 18.0428 316.205 16.9369C314.341 15.8514 310.839 13.9468 308.402 12.718C305.986 11.4892 303.344 10.2194 302.565 9.89176C301.767 9.5436 300.067 8.8268 298.777 8.29432C297.466 7.76184 294.373 6.63544 291.895 5.81624C289.417 4.99704 285.956 3.95256 284.215 3.502C282.454 3.05144 280.058 2.49848 278.87 2.25272C277.703 2.02744 275.388 1.59736 273.75 1.33112C272.112 1.06488 268.896 0.655278 266.582 0.409518C263.162 0.081838 261.093 -8.20681e-05 255.502 0.0203979C251.714 0.0408779 248.355 0.102318 248.027 0.143278Z" fill="#DEDEE2"/>
<path d="M252.021 12.0012C251.509 12.0421 249.707 12.1855 248.027 12.2879C246.327 12.4108 243.378 12.7385 241.453 13.0252C239.548 13.3119 237.091 13.7215 236.026 13.9468C234.94 14.1721 232.647 14.7045 230.906 15.1346C229.145 15.5852 226.052 16.4863 224.025 17.1621C221.997 17.838 219.089 18.9029 217.573 19.5173C216.037 20.1317 213.559 21.2172 212.023 21.9135C210.508 22.6303 208.009 23.8591 206.494 24.6783C204.978 25.4975 202.664 26.7877 201.374 27.5455C200.063 28.3237 197.626 29.8597 195.926 30.9861C194.247 32.1125 191.42 34.0991 189.68 35.4098C187.939 36.7001 185.399 38.7071 184.048 39.8335C182.696 40.9394 180.75 42.5983 179.726 43.5199C178.723 44.421 176.429 46.5919 174.627 48.3327C172.845 50.0735 170.265 52.7154 168.892 54.1695C167.52 55.6441 165.349 58.0812 164.039 59.5967C162.728 61.1122 160.926 63.2831 160.025 64.4095C159.124 65.5359 157.403 67.7477 156.215 69.3247C155.048 70.9017 153.061 73.6255 151.833 75.3663C150.604 77.1071 148.617 80.0562 147.429 81.9199C146.221 83.7836 144.398 86.7327 143.354 88.4735C142.309 90.2143 140.548 93.2658 139.442 95.2319C138.357 97.198 136.616 100.434 135.592 102.4C134.568 104.366 132.889 107.786 131.865 109.978C130.82 112.169 130.042 114.094 130.103 114.237C130.165 114.36 131.148 115.876 132.274 117.555L134.322 120.627V407.142C137.538 413.245 139.115 416.174 139.913 417.587C140.692 419 142.371 421.847 143.62 423.936C144.869 426.025 147.327 429.896 149.088 432.538C150.87 435.179 153.389 438.825 154.72 440.627C156.052 442.429 158.161 445.194 159.41 446.771C160.66 448.328 162.605 450.683 163.711 451.993C164.817 453.284 166.906 455.639 168.36 457.216C169.814 458.793 172.108 461.189 173.46 462.541L175.938 464.998C175.938 228.905 176.02 160.358 176.101 160.358C176.183 160.358 177.535 161.116 179.112 162.058C180.689 163.021 183.515 164.598 185.379 165.581C187.243 166.564 190.11 167.997 191.789 168.776C193.448 169.554 196.131 170.742 197.728 171.397C199.326 172.073 201.763 173.035 203.115 173.527C204.466 174.018 207.006 174.899 208.747 175.473C210.508 176.046 213.273 176.865 214.911 177.336C216.529 177.787 218.27 178.258 218.741 178.36L219.621 178.585V493.363C225.417 495.247 228.121 496.087 229.349 496.415C230.599 496.763 232.852 497.316 234.388 497.643C235.903 497.992 238.299 498.442 239.712 498.688C241.125 498.913 243.44 499.22 244.832 499.384C246.245 499.548 249.44 499.773 251.918 499.896C254.396 500.019 257.509 500.04 258.841 499.958L261.237 499.814V326.656H305.74V487.014C308.525 485.54 310.798 484.188 312.601 483.062L315.898 481.034L315.796 316.416H261.237V278.118H315.796C315.775 180.879 315.816 170.865 316.041 170.68C316.185 170.557 316.901 170.209 317.639 169.882C318.356 169.574 320.813 168.386 323.066 167.26C325.319 166.154 328.555 164.434 330.234 163.471C331.934 162.529 334.432 161.034 335.784 160.174C337.136 159.334 339.45 157.798 340.904 156.795C342.379 155.791 344.816 154.03 346.331 152.863C347.867 151.716 350.263 149.811 351.676 148.623L354.236 146.493L354.339 278.118C410.004 278.016 410.167 278.016 410.229 277.606C410.27 277.381 410.352 275.313 410.413 272.998C410.495 270.684 410.577 268.595 410.638 268.349L410.72 267.878H364.599V136.499C367.18 133.632 368.9 131.666 370.088 130.253C371.255 128.84 373.406 126.136 374.839 124.211C376.273 122.306 378.28 119.48 379.284 117.965C380.308 116.449 381.291 114.934 381.495 114.586L381.884 113.971C375.986 102.072 373.406 97.0956 372.382 95.2319C371.337 93.3682 369.515 90.2348 368.327 88.2687C367.159 86.3026 364.681 82.4319 362.859 79.6671C361.015 76.9023 358.435 73.1749 357.104 71.3727C355.793 69.5705 353.622 66.7647 352.332 65.1263C351.021 63.4879 349.157 61.2351 348.195 60.1087C347.232 58.9823 345.614 57.1391 344.611 56.0127C343.587 54.8863 341.334 52.5106 339.573 50.7084C337.832 48.9266 335.108 46.3052 333.531 44.8716C331.954 43.4175 329.415 41.2057 327.879 39.9564C326.363 38.6866 323.926 36.741 322.452 35.6351C320.977 34.5292 318.499 32.7474 316.922 31.6825C315.345 30.6175 312.56 28.8562 310.757 27.7708C308.955 26.6853 305.678 24.8831 303.487 23.7772C301.275 22.6713 298.388 21.2786 297.015 20.6847C295.664 20.0908 293.227 19.1077 291.588 18.4933C289.95 17.8789 287.41 17.0188 285.956 16.5682C284.482 16.1177 281.86 15.3804 280.099 14.9503C278.358 14.5202 275.962 13.9673 274.774 13.742C273.586 13.5167 271.231 13.1481 269.552 12.9228C267.852 12.6975 265.312 12.4108 263.899 12.2879C262.507 12.165 259.455 12.0421 257.141 12.0012C254.827 11.9602 252.533 11.9602 252.021 12.0012Z" fill="#1B2838"/>
<path d="M259.762 23.2447C259.742 23.2857 258.513 23.3676 257.038 23.4291C255.564 23.511 253.905 23.6134 253.352 23.6543C252.779 23.6953 251.816 23.7772 251.202 23.8387C250.567 23.9001 249.563 24.0025 248.949 24.0844C248.314 24.1459 247.597 24.2073 247.351 24.1868C247.106 24.1868 246.819 24.3097 246.737 24.494C246.655 24.6783 246.675 24.8831 246.778 24.9446C246.901 25.0265 247.167 25.3542 247.372 25.7023C247.577 26.0505 247.925 26.7263 248.15 27.2383C248.375 27.7503 248.683 28.4262 248.846 28.7743C248.99 29.1225 249.174 29.6345 249.235 29.9622C249.297 30.2694 249.42 30.7609 249.502 31.0886C249.584 31.3958 249.666 49.8892 249.666 72.1919C249.645 94.4947 249.584 112.968 249.502 113.254C249.44 113.541 248.949 114.626 248.437 115.671C247.925 116.695 247.515 117.617 247.515 117.719C247.515 117.801 247.331 118.088 247.085 118.374C246.86 118.661 246.675 119.009 246.675 119.153C246.675 119.275 246.594 119.398 246.471 119.398C246.368 119.398 246.266 119.583 246.266 119.808C246.266 120.218 246.409 120.218 257.55 120.218C264.944 120.218 268.835 120.156 268.835 120.013C268.835 119.91 268.507 119.316 268.118 118.743C267.729 118.149 267.401 117.576 267.401 117.453C267.401 117.35 267.217 116.797 266.992 116.224C266.787 115.671 266.541 115.016 266.459 114.79C266.377 114.565 266.275 114.278 266.254 114.176C266.234 114.074 266.131 113.705 266.05 113.357C265.947 113.029 265.845 105.308 265.824 96.215L265.763 79.6671C275.941 79.7081 276.658 79.7491 277.744 80.1177C278.419 80.343 279.013 80.6092 279.034 80.7116C279.054 80.814 279.198 80.8959 279.341 80.8959C279.484 80.8959 280.037 81.367 280.57 81.9199C281.102 82.4934 281.573 82.9439 281.594 82.9439C281.614 82.9439 281.655 78.5612 281.655 73.2159C281.655 66.8671 281.573 63.4879 281.451 63.4879C281.328 63.4879 280.816 63.7337 280.304 64.0204C279.812 64.3071 279.259 64.5734 279.075 64.6143C278.911 64.6348 278.46 64.8191 278.051 65.0035C277.662 65.1878 277.109 65.3926 276.822 65.4745C276.535 65.5564 273.893 65.6179 270.924 65.6179L265.538 65.6383C265.578 45.6499 265.599 39.6492 265.619 39.4444C265.64 39.2191 265.927 38.7276 266.275 38.359C266.828 37.7241 266.971 37.6831 268.016 37.7241C268.63 37.7446 269.715 37.9699 270.412 38.2361C271.129 38.5023 271.702 38.6457 271.702 38.5433C271.682 38.4614 271.804 38.5023 271.948 38.6252C272.091 38.7686 272.521 38.9119 272.89 38.9939C273.238 39.0553 273.566 39.0963 273.607 39.0758C273.627 39.0553 273.832 39.1577 274.057 39.2806C274.283 39.4035 274.692 39.5468 274.979 39.5878C275.266 39.6492 276.699 40.0998 278.153 40.6118C279.628 41.1033 281.102 41.6358 281.451 41.7791C281.778 41.9225 282.475 42.1887 282.987 42.3731C283.478 42.5779 284.809 43.1718 285.895 43.7452C287.001 44.2982 288.086 44.8307 288.311 44.9535C288.537 45.0764 288.721 45.2198 288.721 45.3222C288.721 45.4041 288.803 45.4655 288.926 45.4655C289.028 45.4655 289.274 45.5884 289.438 45.7318C289.622 45.8547 289.868 46.0799 290.011 46.1823C290.155 46.3052 290.544 46.6124 290.871 46.8582C291.219 47.1244 291.568 47.3292 291.65 47.3087C291.731 47.3087 291.793 43.7452 291.793 39.383L291.813 31.4367C291.076 31.0886 290.605 30.8633 290.257 30.7199C289.929 30.5766 289.479 30.3923 289.274 30.2899C289.09 30.1875 288.823 30.1055 288.721 30.1055C288.598 30.1055 288.188 29.9622 287.799 29.7983C287.41 29.6345 286.755 29.3478 286.366 29.1839C285.977 29.0201 285.547 28.8767 285.444 28.8767C285.321 28.8767 284.932 28.7539 284.563 28.59C284.195 28.4262 282.188 27.7299 280.099 27.0335C278.03 26.3372 276.085 25.7228 275.798 25.6614C275.511 25.6204 275.122 25.4771 274.938 25.3747C274.733 25.2723 274.569 25.2313 274.569 25.2927C274.569 25.3542 274.405 25.3132 274.221 25.2108C274.016 25.1084 273.627 24.9651 273.34 24.9036C273.054 24.8422 272.624 24.7603 272.357 24.6988C272.112 24.6169 271.702 24.5145 271.436 24.4531C271.19 24.3916 270.883 24.3302 270.78 24.2892C270.658 24.2687 270.391 24.1868 270.166 24.1049C269.941 24.0435 269.388 23.9206 268.937 23.8591C268.487 23.7772 267.872 23.6748 267.606 23.6339C267.319 23.5724 266.766 23.4905 266.377 23.4495C265.968 23.3881 264.35 23.3062 262.752 23.2652C261.155 23.2243 259.803 23.2038 259.762 23.2447ZM213.027 33.6895C212.986 33.7305 212.535 33.8329 212.023 33.8943C211.532 33.9763 211.061 34.0582 210.999 34.0991C210.958 34.1401 210.672 34.2425 210.385 34.2835C210.119 34.3449 209.689 34.4883 209.463 34.5907C209.238 34.7135 208.275 35.1641 207.313 35.6351C206.35 36.0857 205.388 36.5772 205.163 36.7206C204.937 36.8435 204.712 37.0073 204.651 37.0687C204.589 37.1302 204.282 37.3145 203.954 37.4783C203.647 37.6422 203.196 37.9494 202.992 38.1542C202.766 38.3385 202.5 38.5023 202.398 38.5023C202.275 38.5023 202.193 38.5843 202.193 38.7071C202.193 38.83 202.07 38.9119 201.927 38.9119C201.783 38.9119 201.394 39.1782 201.026 39.4854C200.677 39.7926 200.186 40.1817 199.94 40.3455C199.694 40.5094 199.326 40.7961 199.121 40.9599C198.916 41.1238 198.527 41.4105 198.281 41.5743C198.035 41.7382 197.605 42.0659 197.36 42.2911C197.093 42.5164 196.643 42.8851 196.356 43.1103C196.049 43.3356 195.598 43.7043 195.332 43.9295C195.066 44.1548 194.554 44.5644 194.185 44.8511C193.817 45.1379 193.243 45.5884 192.956 45.8751C192.649 46.1619 192.055 46.6739 191.625 47.0015C191.195 47.3497 190.478 47.9436 190.028 48.3327C189.577 48.7219 188.799 49.4182 188.287 49.8687C187.775 50.3193 187.099 50.9132 186.792 51.1999C186.485 51.4867 185.461 52.4083 184.539 53.2479C183.597 54.0876 182.266 55.3574 181.549 56.0742L180.238 57.3439C181.447 57.5283 181.979 57.7126 182.204 57.8559C182.43 58.0198 182.88 58.6137 183.208 59.2281C183.556 59.822 183.843 60.4159 183.863 60.5183C183.884 60.6412 184.007 61.1942 184.13 61.7471C184.252 62.423 184.334 71.1884 184.334 87.0399C184.334 106.271 184.273 111.534 184.068 112.435C183.925 113.05 183.781 113.603 183.781 113.664C183.781 113.725 183.679 114.135 183.556 114.586C183.433 115.036 183.331 115.466 183.331 115.569C183.331 115.65 183.003 116.265 182.614 116.941C182.204 117.617 181.897 118.211 181.897 118.272C181.897 118.333 181.651 118.62 181.385 118.948C181.099 119.255 180.853 119.665 180.853 119.869C180.853 120.156 181.099 120.238 182.041 120.32C182.696 120.381 191.523 120.443 201.681 120.463C211.819 120.463 220.338 120.422 220.584 120.34C220.85 120.279 221.239 120.177 221.465 120.115C221.69 120.054 222.079 119.972 222.325 119.91C222.591 119.849 223.123 119.706 223.513 119.562C223.902 119.439 224.455 119.214 224.741 119.05C225.028 118.907 225.356 118.784 225.458 118.784C225.581 118.784 226.585 118.313 227.711 117.739C228.837 117.187 230.046 116.531 230.373 116.306C230.722 116.101 231.131 115.855 231.315 115.773C231.479 115.691 231.725 115.528 231.868 115.425C231.991 115.302 232.258 115.077 232.421 114.954C232.606 114.811 232.811 114.688 232.892 114.688C232.974 114.688 233.2 114.524 233.404 114.34C233.589 114.135 234.101 113.705 234.531 113.357C234.961 113.029 235.678 112.374 236.128 111.923C236.579 111.473 237.357 110.612 237.869 109.998C238.381 109.404 238.995 108.585 239.262 108.216C239.507 107.827 239.712 107.418 239.712 107.315C239.712 107.213 239.774 107.09 239.876 107.069C239.958 107.028 240.388 106.271 240.839 105.37C241.289 104.468 241.658 103.69 241.678 103.629C241.678 103.567 241.76 103.383 241.822 103.219C241.883 103.055 242.047 102.543 242.19 102.093C242.334 101.642 242.477 101.192 242.518 101.069C242.539 100.966 242.62 100.659 242.682 100.413C242.743 100.147 242.846 99.7375 242.907 99.4918C242.969 99.2255 243.071 98.6111 243.153 98.0991C243.235 97.5871 243.296 95.8054 243.296 94.1055C243.296 92.4262 243.235 90.6239 243.153 90.1119C243.071 89.5999 242.969 88.9651 242.907 88.6783C242.846 88.3916 242.743 87.9411 242.682 87.6543C242.62 87.3676 242.539 87.0604 242.518 86.9375C242.477 86.8351 242.293 86.2207 242.088 85.6063C241.904 84.9919 241.699 84.3571 241.637 84.2342C241.596 84.0908 241.555 83.927 241.555 83.8655C241.555 83.8041 241.248 83.1897 240.9 82.5139C240.531 81.8175 240.142 81.0803 240.019 80.8755C239.917 80.6502 239.753 80.4863 239.671 80.4863C239.569 80.4863 239.507 80.4044 239.507 80.2815C239.507 80.1791 239.426 79.9539 239.303 79.831C239.2 79.6876 238.729 79.1142 238.279 78.5407C237.828 77.9878 236.784 76.9433 235.964 76.247C235.145 75.5302 234.367 74.9567 234.224 74.9567C234.08 74.9567 233.978 74.8543 233.978 74.7519C233.978 74.6495 233.732 74.5062 233.466 74.4447C233.179 74.3833 232.954 74.2809 232.954 74.199C232.954 74.0966 232.462 73.8099 231.868 73.5436C231.275 73.2774 230.599 72.9907 230.373 72.9087C230.148 72.8063 229.575 72.6015 229.104 72.4172C228.612 72.2329 228.243 72.151 228.243 72.2329C228.243 72.3353 228.1 72.2534 227.916 72.0895C227.609 71.8028 227.609 71.7619 227.916 71.639C228.08 71.5366 228.223 71.3318 228.223 71.1679C228.223 71.0041 228.305 70.8403 228.407 70.8198C228.51 70.7788 229.001 70.1235 229.513 69.3247C230.005 68.526 230.844 67.031 231.377 66.007C231.909 64.9625 232.278 64.1023 232.237 64.1023C232.176 64.1023 232.258 63.8771 232.442 63.5903C232.606 63.3036 232.667 63.0783 232.585 63.0783C232.503 63.0988 232.544 62.9759 232.667 62.8326C232.79 62.6892 233.077 61.9724 233.323 61.2351C233.568 60.4979 233.794 59.6787 233.855 59.3919C233.896 59.1052 233.998 58.6547 234.08 58.3679C234.142 58.0812 234.244 57.6716 234.285 57.4463C234.326 57.2211 234.449 56.5247 234.551 55.9103C234.674 55.2959 234.736 53.3503 234.695 51.6095C234.654 49.8687 234.572 48.087 234.51 47.6774C234.428 47.2473 234.183 46.3257 233.957 45.6294C233.732 44.9126 233.22 43.7043 232.831 42.9055C232.442 42.1273 231.909 41.2057 231.664 40.8985C231.418 40.5708 230.517 39.6287 229.657 38.7891C228.817 37.9494 228.059 37.2735 227.977 37.2735C227.895 37.2735 227.691 37.1507 227.547 37.0073C227.404 36.8844 227.117 36.6387 226.892 36.4953C226.667 36.3724 225.786 35.9219 224.946 35.5123C224.106 35.1027 222.96 34.6316 222.386 34.4473C221.813 34.2835 221.178 34.1196 220.953 34.0787C220.727 34.0377 220.256 33.9353 219.929 33.8739C219.58 33.7919 217.922 33.71 216.222 33.6691C214.501 33.6281 213.088 33.6281 213.027 33.6895Z" fill="white"/>
<path d="M211.102 50.1965C210.651 50.2989 209.463 50.8109 208.439 51.3024C207.436 51.8144 205.777 52.8384 204.753 53.5961C203.749 54.3744 202.009 55.8694 200.903 56.9344L198.896 58.88C199.019 75.7555 199.019 75.8784 199.428 75.7965C199.653 75.776 201.067 75.1411 202.603 74.4038C204.118 73.687 206.289 72.5197 207.415 71.8438C208.542 71.1475 210.303 69.9801 211.307 69.2224C212.331 68.4646 213.989 66.9696 215.013 65.9251C216.324 64.5529 217.102 63.5289 217.696 62.3616C218.167 61.4605 218.659 60.3136 218.802 59.8016C218.925 59.2896 219.048 58.2861 219.048 57.5488C219.048 56.8115 218.925 55.808 218.802 55.296C218.659 54.784 218.331 53.9443 218.065 53.4118C217.778 52.8589 217.266 52.1011 216.898 51.671C216.529 51.2614 215.771 50.7085 215.218 50.4422C214.501 50.1145 213.846 49.9712 213.047 49.9917C212.433 50.0121 211.552 50.0941 211.102 50.1965Z" fill="#1B2838"/>
<path d="M313.092 50.0941C313.051 50.135 312.703 50.2169 312.293 50.2784C311.904 50.3193 311.351 50.4217 311.065 50.4832C310.798 50.5651 310.286 50.6675 309.938 50.729C309.611 50.7904 309.099 50.9747 308.812 51.1181C308.525 51.2819 308.156 51.4048 307.972 51.4048C307.808 51.4048 307.583 51.4662 307.501 51.5686C307.419 51.6506 307.276 51.712 307.214 51.712C307.133 51.7325 306.252 52.1421 305.269 52.6336C304.265 53.1456 303.282 53.6576 303.057 53.76C302.852 53.8829 302.668 54.0262 302.668 54.1286C302.668 54.2106 302.545 54.272 302.402 54.272C302.258 54.272 301.644 54.6611 301.029 55.1322C300.395 55.6032 299.022 56.8729 297.957 57.9584C296.872 59.0233 295.807 60.1702 295.582 60.4979C295.357 60.8051 295.09 61.1738 294.967 61.3171C294.865 61.44 294.476 61.993 294.107 62.5254C293.739 63.0579 293.431 63.5904 293.431 63.6928C293.431 63.8157 293.37 63.8976 293.288 63.8976C293.206 63.8976 292.715 64.6963 292.223 65.6793C291.732 66.6829 291.179 67.7888 290.994 68.1779C290.81 68.567 290.667 68.9357 290.646 68.9971C290.646 69.0585 290.585 69.2634 290.503 69.4272C290.441 69.591 290.175 70.3283 289.929 71.0656C289.704 71.8029 289.458 72.5811 289.417 72.8064C289.376 73.0317 289.253 73.4413 289.151 73.728C289.028 74.0147 288.905 74.5267 288.864 74.8544C288.823 75.1821 288.741 75.5712 288.66 75.6736C288.598 75.7965 288.496 76.329 288.414 76.9024C288.332 77.4758 288.229 78.1517 288.189 78.4384C288.148 78.7251 288.045 79.6058 287.963 80.384C287.881 81.1827 287.799 83.7018 287.799 86.016C287.799 88.3302 287.861 90.8698 287.963 91.648C288.045 92.4467 288.168 93.4093 288.229 93.7984C288.291 94.1875 288.373 94.6995 288.414 94.9248C288.455 95.1501 288.537 95.6211 288.598 95.9488C288.66 96.2969 288.762 96.768 288.823 97.0342C288.885 97.28 288.967 97.6896 289.049 97.9558C289.11 98.2016 289.172 98.4883 289.213 98.6112C289.233 98.7341 289.52 99.5942 289.827 100.557C290.134 101.519 290.462 102.482 290.544 102.707C290.646 102.932 291.056 103.854 291.486 104.755C291.916 105.656 292.407 106.516 292.551 106.66C292.694 106.783 292.817 107.049 292.817 107.213C292.817 107.377 292.919 107.52 293.022 107.52C293.145 107.52 293.227 107.663 293.227 107.827C293.227 107.991 293.329 108.134 293.431 108.134C293.554 108.134 293.636 108.257 293.636 108.401C293.636 108.524 293.943 108.995 294.312 109.445C294.681 109.875 295.766 111.022 296.708 111.964C297.671 112.927 298.838 113.951 299.289 114.258C299.739 114.545 300.149 114.852 300.21 114.913C300.251 114.995 301.296 115.569 302.504 116.204C303.712 116.838 304.716 117.289 304.695 117.207C304.695 117.105 304.818 117.146 304.962 117.268C305.105 117.391 305.74 117.658 306.354 117.862C306.969 118.047 307.583 118.231 307.685 118.272C307.808 118.292 308.116 118.374 308.402 118.436C308.689 118.518 309.201 118.62 309.529 118.682C309.877 118.743 310.573 118.866 311.065 118.948C311.577 119.009 313.379 119.071 315.079 119.071C316.758 119.071 318.601 119.009 319.175 118.927C319.728 118.845 320.342 118.723 320.506 118.682C320.67 118.62 321.038 118.538 321.325 118.456C321.612 118.395 321.919 118.333 322.042 118.292C322.144 118.272 322.8 118.067 323.476 117.862C324.151 117.658 324.848 117.432 325.012 117.35C325.175 117.268 325.728 117.002 326.24 116.756C326.752 116.531 327.346 116.204 327.572 116.081C327.797 115.937 328.35 115.569 328.8 115.282C329.251 114.975 330.07 114.34 330.623 113.848L331.627 112.947C331.237 111.677 331.074 111.165 331.012 111.002C330.951 110.838 330.889 110.653 330.869 110.592C330.848 110.531 330.725 110.121 330.562 109.67C330.418 109.22 330.07 108.36 329.804 107.786C329.538 107.192 329.312 106.598 329.312 106.496C329.312 106.394 329.21 106.045 329.087 105.738C328.944 105.411 328.821 105.062 328.8 104.96C328.78 104.858 328.555 104.325 328.329 103.793C328.084 103.24 327.879 102.687 327.879 102.564C327.899 102.42 327.797 102.216 327.694 102.093C327.592 101.99 327.428 101.581 327.346 101.192C327.244 100.803 327.06 100.454 326.916 100.413C326.773 100.393 326.527 100.475 326.384 100.618C326.24 100.741 325.851 101.048 325.524 101.274C325.196 101.519 324.172 102.052 323.271 102.482C322.37 102.892 321.469 103.342 321.264 103.444C321.079 103.547 320.567 103.69 320.137 103.752C319.728 103.813 319.236 103.956 319.072 104.038C318.908 104.12 317.598 104.182 316.205 104.161C314.792 104.141 313.399 104.059 313.113 103.977C312.846 103.895 312.416 103.772 312.191 103.69C311.966 103.629 311.147 103.199 310.348 102.748C309.57 102.298 308.443 101.458 307.87 100.884C307.317 100.311 306.477 99.2051 306.027 98.4064C305.576 97.6077 305.105 96.7475 304.962 96.4608C304.839 96.1741 304.573 95.3958 304.368 94.72C304.183 94.0442 303.999 93.3478 303.958 93.184C303.917 93.0202 303.835 92.5082 303.774 92.0576C303.712 91.607 303.63 91.1974 303.589 91.136C303.548 91.0746 303.446 90.071 303.344 88.8832C303.262 87.6954 303.2 86.4665 303.2 86.1184C303.2 85.7907 303.262 84.5005 303.344 83.2512C303.426 82.0224 303.528 80.7731 303.569 80.4864C303.61 80.1997 303.712 79.6058 303.794 79.1552C303.876 78.7046 303.938 78.1926 303.938 78.0288C303.938 77.865 304.06 77.5987 304.183 77.4554C304.306 77.312 304.347 77.1482 304.245 77.1072C304.163 77.0458 304.224 76.6976 304.388 76.329C304.552 75.9808 304.736 75.3869 304.798 75.0592C304.859 74.7315 305.044 74.1581 305.207 73.8304C305.371 73.5027 305.658 72.8269 305.883 72.3354C306.088 71.8643 306.313 71.4752 306.416 71.4752C306.498 71.4752 306.559 71.3933 306.559 71.2704C306.559 71.1475 307.051 70.4512 307.645 69.7139C308.238 68.9562 309.078 68.055 309.529 67.7069C309.979 67.3587 310.409 67.031 310.45 66.9696C310.512 66.9082 311.167 66.56 311.884 66.1914C312.621 65.8227 313.461 65.4746 313.727 65.4131C314.014 65.3517 314.567 65.2493 314.976 65.1878C315.365 65.1264 316.185 65.065 316.82 65.065C317.434 65.065 318.192 65.1059 318.478 65.1469C318.786 65.1878 319.113 65.3107 319.195 65.3926C319.298 65.4746 319.523 65.536 319.687 65.536C319.851 65.536 320.608 65.8637 321.366 66.2528C322.144 66.6419 322.902 67.0925 323.086 67.2358C323.271 67.3587 323.803 67.8707 324.274 68.3622C324.725 68.8333 325.196 69.2429 325.278 69.2224C325.36 69.2224 325.626 68.8742 325.892 68.4646C326.138 68.0346 326.65 67.1334 327.019 66.4576C327.387 65.7818 327.92 64.7168 328.206 64.1024C328.514 63.488 328.821 62.935 328.903 62.8736C329.005 62.8122 329.333 62.2592 329.62 61.6448C329.927 61.0304 330.48 59.9245 330.869 59.1872C331.36 58.2042 331.504 57.7536 331.36 57.5078C331.258 57.303 330.951 56.8934 330.705 56.5862C330.459 56.279 330.05 55.849 329.824 55.6237C329.599 55.3779 329.087 54.9274 328.698 54.6202C328.309 54.313 327.715 53.8214 327.367 53.5552C327.039 53.2685 326.015 52.695 325.114 52.2445C324.213 51.7939 322.759 51.2 321.878 50.9133C321.018 50.6266 319.953 50.3194 319.523 50.2579C319.113 50.1965 317.495 50.1146 315.959 50.0736C314.423 50.0326 313.133 50.0326 313.092 50.0941Z" fill="white"/>
<path d="M213.662 85.0944C212.945 85.2378 211.593 85.6064 210.692 85.9136C209.791 86.2003 208.173 86.8762 207.108 87.3677C206.043 87.8797 204.282 88.8832 203.217 89.6C202.152 90.3168 200.882 91.2179 200.391 91.6275L199.531 92.3648V106.291C203.565 106.373 206.33 106.332 208.235 106.25C210.16 106.189 212.699 105.964 213.867 105.779C215.054 105.595 216.775 105.267 217.676 105.042C218.577 104.817 219.785 104.448 220.379 104.223C220.973 104.018 222.038 103.547 222.755 103.199C223.554 102.789 224.557 102.011 225.479 101.089C226.707 99.84 226.994 99.4304 227.363 98.263C227.609 97.4848 227.813 96.4198 227.813 95.8464C227.813 95.2934 227.67 94.1466 227.486 93.3478C227.322 92.5286 226.83 91.1565 226.441 90.3168C225.929 89.2518 225.315 88.3917 224.455 87.5315C223.738 86.8147 222.734 86.0774 222.079 85.7702C221.465 85.4835 220.461 85.1354 219.867 85.0125C219.273 84.8896 217.942 84.7872 216.898 84.8077C215.853 84.8077 214.399 84.951 213.662 85.0944Z" fill="#1B2838"/>
<path d="M128.813 116.593C128.199 117.965 126.909 121.037 125.905 123.392C124.922 125.768 123.365 129.72 122.423 132.198C121.502 134.676 119.781 139.571 118.614 143.053C117.447 146.534 115.808 151.798 114.969 154.726C114.109 157.655 112.962 161.853 112.388 164.045C111.815 166.236 110.893 170.066 110.32 172.544C109.746 175.022 108.681 179.999 107.965 183.603C107.248 187.208 106.244 192.778 105.732 195.994C105.22 199.209 104.524 203.96 104.176 206.541C103.848 209.142 103.336 213.422 103.049 216.064C102.783 218.706 102.312 224.01 102.046 227.84C101.759 231.67 101.493 235.827 101.431 237.056C101.37 238.305 101.206 243.036 101.083 247.603C100.899 253.85 100.899 257.966 101.083 264.294C101.206 268.923 101.37 273.654 101.431 274.842C101.493 276.029 101.677 278.978 101.841 281.395C102.005 283.812 102.271 287.416 102.435 289.382C102.619 291.348 102.885 294.298 103.07 295.936C103.234 297.574 103.561 300.421 103.787 302.285C104.012 304.148 104.421 307.282 104.688 309.248C104.974 311.214 105.568 315.085 106.039 317.85C106.49 320.614 107.391 325.591 108.067 328.909C108.722 332.227 109.705 336.794 110.217 339.046C110.729 341.299 111.671 345.088 112.265 347.443C112.88 349.819 113.986 353.812 114.702 356.352C115.44 358.891 116.689 363.028 117.508 365.568C118.307 368.107 119.7 372.203 120.58 374.682C121.461 377.16 122.853 380.887 123.652 382.976C124.451 385.065 125.844 388.465 126.724 390.554C127.605 392.642 129.059 395.96 129.96 397.926C130.861 399.892 132.192 402.698 132.909 404.173L134.22 406.835L134.322 120.627C131.086 115.794 130.103 114.319 130.042 114.237C129.96 114.155 129.407 115.2 128.813 116.593Z" fill="#9F1F33"/>
<path d="M380.942 115.405C380.635 115.917 380.369 116.429 380.369 116.531C380.369 116.634 380.287 116.736 380.164 116.736C380.062 116.736 379.959 116.879 379.959 117.043C379.959 117.207 379.877 117.35 379.755 117.35C379.652 117.35 379.55 117.473 379.57 117.617C379.57 117.739 379.386 118.067 379.161 118.333C378.915 118.579 378.731 118.886 378.731 118.989C378.731 119.112 378.669 119.194 378.587 119.194C378.505 119.194 378.157 119.644 377.809 120.218C377.481 120.771 377.133 121.242 377.051 121.242C376.969 121.242 376.887 121.344 376.887 121.446C376.887 121.549 376.785 121.774 376.642 121.938C376.498 122.081 376.232 122.429 376.068 122.675C375.904 122.921 375.556 123.371 375.29 123.658C375.044 123.965 374.573 124.58 374.266 125.03C373.959 125.481 373.467 126.136 373.16 126.464C372.832 126.792 372.587 127.119 372.587 127.181C372.607 127.242 372.382 127.529 372.136 127.816C371.87 128.123 371.44 128.655 371.153 129.003C370.866 129.372 370.457 129.884 370.231 130.13C370.006 130.396 369.556 130.929 369.228 131.297C368.921 131.686 368.265 132.444 367.794 132.977C367.323 133.53 366.422 134.533 365.767 135.229L364.579 136.499L364.599 267.878C405.723 267.878 410.556 267.817 410.659 267.633C410.741 267.489 410.782 262.39 410.782 256.307C410.782 250.225 410.679 242.954 410.536 240.128C410.413 237.322 410.27 234.312 410.208 233.472C410.147 232.632 409.963 229.949 409.799 227.533C409.614 225.116 409.307 221.245 409.082 218.931C408.857 216.617 408.386 212.48 408.058 209.715C407.71 206.95 407.116 202.527 406.727 199.885C406.338 197.243 405.641 193.003 405.191 190.464C404.72 187.924 403.982 184.013 403.532 181.76C403.061 179.507 402.283 175.862 401.771 173.67C401.279 171.479 400.48 168.202 400.03 166.4C399.579 164.598 398.801 161.608 398.289 159.744C397.777 157.88 396.732 154.235 395.954 151.654C395.176 149.074 393.763 144.65 392.821 141.824C391.858 139.018 390.466 135.045 389.708 133.018C388.95 130.99 387.619 127.529 386.718 125.338C385.837 123.146 384.506 119.972 383.748 118.272C383.011 116.593 382.356 115.036 382.315 114.852C382.253 114.647 382.069 114.483 381.864 114.483C381.659 114.483 381.25 114.893 380.942 115.405Z" fill="white"/>
<path d="M180.566 119.726C180.464 119.808 180.402 119.992 180.423 120.156C180.443 120.34 180.73 120.402 181.324 120.381C182.041 120.361 182.082 120.34 181.529 120.279C181.119 120.238 180.832 120.095 180.812 119.89C180.771 119.706 180.668 119.624 180.566 119.726ZM209.975 120.566C211.061 120.607 212.843 120.607 213.969 120.566C215.116 120.545 214.235 120.504 212.023 120.504C209.832 120.504 208.91 120.545 209.975 120.566Z" fill="#DEDEE2"/>
<path d="M264.329 128.266C264.268 128.328 263.838 128.45 263.387 128.512C262.937 128.594 262.076 128.901 261.442 129.208C260.827 129.515 260.049 129.925 259.701 130.15C259.373 130.376 258.574 131.072 257.96 131.707C257.346 132.362 256.629 133.14 256.383 133.468C256.117 133.775 255.912 134.164 255.912 134.308C255.912 134.431 255.851 134.554 255.748 134.554C255.666 134.554 255.318 135.168 254.949 135.926C254.581 136.704 254.151 137.728 253.966 138.24C253.782 138.752 253.598 139.346 253.557 139.571C253.516 139.796 253.413 140.206 253.352 140.493C253.291 140.779 253.188 141.332 253.127 141.722C253.045 142.111 252.963 142.725 252.922 143.053C252.881 143.401 252.84 144.548 252.82 145.613C252.82 146.678 252.86 148.029 252.922 148.582C253.004 149.156 253.086 149.832 253.127 150.118C253.168 150.405 253.27 150.856 253.352 151.142C253.413 151.429 253.516 151.88 253.577 152.166C253.639 152.453 253.721 152.719 253.762 152.781C253.803 152.842 253.905 153.108 253.966 153.395C254.028 153.682 254.437 154.644 254.888 155.546C255.339 156.447 255.83 157.368 255.973 157.573C256.096 157.798 256.322 158.106 256.424 158.269C256.547 158.433 257.346 159.293 258.226 160.174C259.086 161.075 259.947 161.792 260.11 161.792C260.295 161.792 260.418 161.853 260.418 161.956C260.418 162.038 260.704 162.242 261.073 162.406C261.462 162.57 261.851 162.714 261.954 162.734C262.076 162.754 262.588 162.898 263.08 163.062C263.592 163.226 264.616 163.328 265.353 163.307C266.07 163.287 266.992 163.205 267.401 163.123C267.79 163.062 268.794 162.652 269.634 162.242C270.576 161.771 271.62 161.034 272.398 160.256C273.095 159.58 273.955 158.597 274.324 158.065C274.692 157.512 274.979 157 274.979 156.877C274.979 156.774 275.061 156.672 275.143 156.672C275.225 156.692 275.409 156.406 275.552 156.058C275.696 155.73 275.798 155.402 275.798 155.341C275.798 155.279 275.962 154.931 276.146 154.583C276.331 154.214 276.535 153.764 276.617 153.6C276.699 153.436 276.822 152.986 276.904 152.637C276.965 152.269 277.047 151.9 277.047 151.818C277.068 151.716 277.15 151.511 277.252 151.347C277.334 151.183 277.477 150.487 277.559 149.811C277.662 149.135 277.723 147.333 277.723 145.818C277.723 144.302 277.662 142.684 277.6 142.234C277.518 141.783 277.396 141.087 277.314 140.698C277.252 140.308 277.109 139.817 277.006 139.612C276.904 139.428 276.884 139.264 276.924 139.264C276.986 139.264 276.863 138.772 276.658 138.199C276.453 137.605 276.126 136.868 275.941 136.54C275.757 136.233 275.675 135.987 275.757 135.987C275.839 136.008 275.798 135.885 275.655 135.741C275.532 135.598 275.204 135.086 274.938 134.615C274.692 134.144 274.242 133.448 273.955 133.079C273.668 132.71 273.074 132.034 272.624 131.584C272.173 131.133 271.579 130.601 271.333 130.417C271.088 130.212 270.78 130.048 270.678 130.048C270.555 130.048 270.473 129.986 270.473 129.905C270.473 129.802 270.125 129.577 269.716 129.372C269.285 129.167 268.896 129.024 268.835 129.024C268.773 129.044 268.446 128.942 268.118 128.819C267.77 128.676 267.319 128.532 267.094 128.491C266.869 128.43 266.172 128.328 265.558 128.266C264.923 128.205 264.37 128.205 264.329 128.266ZM293.431 128.471C293.37 128.532 292.878 128.614 292.305 128.676C291.752 128.737 291.056 128.86 290.769 128.922C290.482 128.983 290.032 129.085 289.745 129.147C289.458 129.208 289.131 129.331 289.028 129.393C288.905 129.474 288.782 129.536 288.721 129.536C288.66 129.536 288.209 129.72 287.738 129.946C287.246 130.171 286.857 130.417 286.878 130.519C286.878 130.601 286.755 130.662 286.612 130.662C286.468 130.662 285.936 131.092 285.424 131.645C284.912 132.178 284.318 132.895 284.092 133.222C283.867 133.57 283.458 134.431 283.171 135.168C282.761 136.294 282.679 136.868 282.679 138.854C282.679 140.145 282.741 141.394 282.802 141.619C282.864 141.844 283.028 142.438 283.191 142.95C283.335 143.462 283.58 144.015 283.724 144.179C283.867 144.343 283.99 144.548 283.99 144.65C284.011 144.732 284.113 144.937 284.256 145.121C284.4 145.306 284.809 145.756 285.157 146.104C285.506 146.452 285.956 146.862 286.14 147.005C286.325 147.128 286.755 147.435 287.124 147.661C287.492 147.866 288.434 148.255 289.233 148.5C290.032 148.746 290.81 148.992 290.974 149.033C291.138 149.074 291.65 149.156 292.1 149.238C292.551 149.32 293.411 149.361 294.005 149.34C294.844 149.299 295.07 149.361 295.07 149.606C295.07 149.77 294.967 150.118 294.844 150.364C294.722 150.63 294.558 150.876 294.476 150.938C294.414 150.999 294.189 151.286 294.005 151.613C293.8 151.921 293.186 152.392 292.612 152.678C292.059 152.965 291.199 153.334 290.728 153.477C290.114 153.702 289.172 153.764 287.595 153.723C286.345 153.682 285.137 153.579 284.871 153.518C284.42 153.395 284.42 153.416 284.4 155.709V158.003C286.079 158.556 286.98 158.781 287.492 158.863C288.004 158.925 289.008 158.986 289.745 158.986C290.482 158.986 291.404 158.925 291.793 158.863C292.182 158.781 292.735 158.679 293.022 158.618C293.308 158.556 293.78 158.454 294.046 158.392C294.332 158.331 294.885 158.146 295.275 157.962C295.684 157.798 296.278 157.532 296.606 157.368C296.954 157.204 297.425 156.959 297.65 156.815C297.896 156.672 298.347 156.385 298.674 156.16C299.002 155.935 299.924 155.095 300.702 154.296C301.5 153.498 302.238 152.699 302.361 152.535C302.463 152.371 302.668 152.064 302.811 151.839C302.934 151.634 303.323 150.876 303.671 150.18C304.02 149.463 304.306 148.828 304.327 148.746C304.327 148.644 304.409 148.48 304.511 148.378C304.613 148.275 304.736 147.947 304.798 147.661C304.859 147.374 304.962 146.923 305.023 146.637C305.105 146.35 305.248 145.756 305.33 145.306C305.433 144.855 305.474 143.298 305.453 141.824C305.412 140.37 305.31 138.834 305.248 138.445C305.166 138.056 305.044 137.585 304.982 137.421C304.921 137.257 304.818 136.97 304.798 136.806C304.757 136.642 304.388 135.803 303.958 134.963C303.446 133.939 302.77 133.018 301.931 132.198C301.234 131.522 300.517 130.847 300.333 130.724C300.149 130.58 299.944 130.458 299.903 130.458C299.842 130.458 299.534 130.273 299.227 130.048C298.92 129.802 298.531 129.597 298.367 129.577C298.183 129.536 297.835 129.413 297.589 129.27C297.343 129.126 297.118 129.065 297.118 129.126C297.118 129.188 296.872 129.126 296.565 129.003C296.258 128.881 295.807 128.737 295.582 128.696C295.356 128.655 294.804 128.573 294.353 128.491C293.902 128.43 293.493 128.41 293.431 128.471ZM232.503 128.942C232.462 128.983 232.299 129.065 232.135 129.085C231.95 129.126 231.316 129.311 230.681 129.495C230.066 129.679 229.124 130.109 228.592 130.458C228.059 130.785 227.076 131.604 226.4 132.26C225.745 132.895 225.008 133.755 224.762 134.144C224.537 134.533 224.229 135.086 224.107 135.373C223.963 135.659 223.758 136.151 223.595 136.499C223.451 136.827 223.267 137.523 223.185 138.035C223.103 138.547 223.042 139.694 223.042 140.595C223.042 141.496 223.083 142.561 223.164 142.95C223.226 143.339 223.328 143.913 223.39 144.22C223.451 144.548 223.615 145.039 223.758 145.367C223.881 145.674 224.025 146.063 224.045 146.227C224.086 146.391 224.373 146.903 224.68 147.354C224.987 147.804 225.663 148.582 226.175 149.094C226.687 149.606 227.65 150.303 228.325 150.63C229.39 151.163 229.8 151.224 231.316 151.224C232.258 151.224 233.609 151.163 234.285 151.081C234.961 150.978 235.555 150.876 235.616 150.835C235.678 150.794 235.964 150.712 236.272 150.651C236.579 150.589 237.091 150.487 237.398 150.426C237.726 150.364 238.094 150.262 238.217 150.221C238.381 150.159 238.484 150.282 238.484 150.528C238.484 150.753 238.32 151.531 238.115 152.269C237.931 153.006 237.705 153.6 237.603 153.6C237.521 153.6 237.46 153.702 237.46 153.805C237.46 153.928 237.255 154.214 236.988 154.46C236.743 154.726 236.149 155.115 235.719 155.32C235.268 155.546 234.756 155.75 234.592 155.791C234.408 155.832 233.63 155.873 232.852 155.873C232.053 155.873 231.193 155.812 230.947 155.75C230.701 155.689 230.332 155.607 230.128 155.566C229.923 155.525 229.083 155.238 228.223 154.931C227.383 154.624 226.339 154.194 225.929 153.989C225.499 153.764 225.069 153.6 224.946 153.6C224.823 153.6 224.741 154.603 224.741 156.221C224.721 158.106 224.803 158.884 224.987 159.068C225.131 159.191 225.95 159.662 226.789 160.113C227.65 160.543 228.653 161.014 229.042 161.137C229.452 161.28 230.005 161.444 230.271 161.505C230.558 161.567 231.07 161.669 231.418 161.73C231.746 161.792 232.892 161.853 233.978 161.853C235.043 161.874 236.149 161.812 236.436 161.751C236.722 161.69 237.193 161.526 237.5 161.403C237.828 161.28 238.074 161.218 238.074 161.28C238.074 161.341 238.647 161.075 239.364 160.727C240.06 160.358 240.757 159.928 240.9 159.805C241.064 159.662 241.248 159.539 241.31 159.539C241.392 159.539 241.883 159.109 242.416 158.577C242.948 158.024 243.604 157.348 243.87 157.041C244.116 156.733 244.709 155.73 245.16 154.788C245.631 153.846 246.123 152.719 246.266 152.269C246.409 151.818 246.573 151.265 246.614 151.04C246.635 150.815 246.737 150.262 246.819 149.811C246.901 149.361 246.983 147.517 246.983 145.715C246.983 143.913 246.921 142.029 246.839 141.517C246.757 141.005 246.635 140.329 246.573 139.981C246.512 139.653 246.164 138.547 245.815 137.523C245.488 136.52 245.058 135.373 244.873 135.004C244.689 134.635 244.464 134.349 244.382 134.349C244.3 134.349 244.218 134.205 244.218 134.042C244.218 133.878 244.136 133.734 244.013 133.734C243.911 133.734 243.808 133.611 243.829 133.468C243.829 133.345 243.255 132.649 242.539 131.932C241.822 131.236 241.125 130.662 241.003 130.662C240.859 130.662 240.736 130.601 240.736 130.519C240.757 130.417 240.224 130.109 239.569 129.802C238.914 129.495 238.094 129.188 237.767 129.106C237.419 129.024 236.128 128.942 234.859 128.901C233.609 128.881 232.544 128.881 232.503 128.942ZM210.119 130.109C209.832 130.58 209.34 131.195 209.033 131.482C208.706 131.768 207.927 132.219 207.313 132.485C206.699 132.751 206.002 132.997 205.777 133.038C205.552 133.079 205.122 133.161 204.794 133.222L204.241 133.325V137.626C206.699 137.482 207.6 137.4 207.825 137.339C208.05 137.298 208.337 137.236 208.48 137.236C208.603 137.216 208.869 137.073 209.033 136.909C209.34 136.622 209.361 137.462 209.361 146.022V155.443C210.405 155.894 211.348 156.262 212.126 156.57C212.924 156.877 213.744 157.184 213.969 157.286C214.215 157.368 214.645 157.532 214.952 157.675C215.259 157.798 215.771 158.003 216.078 158.126C216.386 158.249 216.816 158.433 217 158.536C217.205 158.638 217.41 158.72 217.471 158.72C217.512 158.72 217.573 152.228 217.573 144.282C217.573 134.861 217.492 129.802 217.369 129.741C217.246 129.679 216.345 129.597 215.362 129.536C214.379 129.474 212.904 129.393 212.085 129.331L210.61 129.249L210.119 130.109Z" fill="white"/>
<path d="M204.077 135.434L204.118 137.728C204.241 133.632 204.282 133.304 204.589 133.243C204.855 133.181 204.814 133.161 204.487 133.14C204.036 133.12 204.036 133.161 204.077 135.434Z" fill="#DEDEE2"/>
<path d="M233.363 135.025C232.954 135.168 232.339 135.496 231.971 135.741C231.561 136.008 231.09 136.663 230.762 137.38C230.271 138.445 230.23 138.731 230.291 140.411C230.373 142.029 230.455 142.397 231.008 143.278C231.438 143.974 231.909 144.425 232.544 144.753C233.056 145.019 233.834 145.203 234.326 145.203C234.818 145.203 235.493 145.08 235.862 144.937C236.231 144.773 236.886 144.343 237.316 143.954C237.746 143.565 238.299 142.848 238.524 142.336C238.832 141.701 238.954 141.046 238.934 140.186C238.934 139.469 238.729 138.445 238.442 137.728C238.197 137.052 237.705 136.233 237.357 135.885C237.009 135.557 236.374 135.147 235.923 135.025C235.473 134.881 234.858 134.758 234.592 134.779C234.306 134.779 233.753 134.881 233.363 135.025ZM292.51 135.25C291.895 135.557 291.26 136.069 290.933 136.54C290.626 136.97 290.277 137.728 290.154 138.24C290.011 138.752 289.97 139.51 290.032 139.94C290.093 140.349 290.339 141.046 290.544 141.476C290.769 141.885 291.199 142.479 291.527 142.787C291.834 143.094 292.366 143.442 292.674 143.544C292.981 143.667 293.657 143.77 294.148 143.77C294.66 143.77 295.336 143.647 295.643 143.483C295.95 143.339 296.483 142.889 296.831 142.52C297.179 142.131 297.63 141.373 297.834 140.8C298.121 140.042 298.183 139.51 298.08 138.752C297.998 138.199 297.712 137.339 297.425 136.868C297.159 136.376 296.585 135.762 296.155 135.475C295.725 135.209 294.967 134.922 294.455 134.861C293.738 134.758 293.329 134.84 292.51 135.25ZM263.244 136.192C262.629 136.581 261.994 137.236 261.503 137.994C261.093 138.629 260.52 139.858 260.233 140.698C259.762 142.09 259.721 142.541 259.721 145.613C259.721 148.787 259.742 149.094 260.295 150.63C260.602 151.532 261.216 152.781 261.626 153.375C262.035 154.01 262.773 154.747 263.285 155.075C263.94 155.484 264.493 155.648 265.087 155.648C265.558 155.648 266.295 155.484 266.725 155.259C267.155 155.054 267.79 154.542 268.159 154.132C268.528 153.723 269.101 152.863 269.429 152.228C269.756 151.572 270.186 150.446 270.391 149.709C270.658 148.726 270.76 147.64 270.76 145.613C270.76 143.606 270.658 142.479 270.391 141.517C270.186 140.779 269.736 139.592 269.388 138.875C269.019 138.158 268.343 137.216 267.852 136.786C267.381 136.335 266.746 135.905 266.48 135.782C266.193 135.68 265.558 135.578 265.087 135.578C264.473 135.578 263.92 135.762 263.244 136.192Z" fill="#1B2838"/>
<path d="M351.656 148.582C350.263 149.791 347.867 151.716 346.331 152.863C344.816 154.03 342.379 155.791 340.904 156.795C339.45 157.798 337.136 159.334 335.784 160.174C334.432 161.034 331.934 162.529 330.234 163.471C328.555 164.434 325.319 166.154 323.066 167.26C320.813 168.387 318.355 169.574 317.639 169.882C316.901 170.209 316.185 170.557 316.041 170.68C315.816 170.865 315.775 180.879 315.775 224.522L315.795 278.118H261.237V316.416H315.795C315.795 464.323 315.836 480.85 316.041 480.788C316.185 480.747 317.27 480.051 318.458 479.232C319.646 478.392 321.346 477.164 322.247 476.488C323.148 475.812 324.991 474.378 326.343 473.272C327.694 472.187 330.009 470.262 331.483 468.972C332.937 467.702 336.173 464.63 338.651 462.131C341.15 459.653 344.549 456.069 346.229 454.144C347.908 452.239 350.407 449.229 351.799 447.488L354.339 444.314V316.416L405.989 316.518C406.317 314.614 406.686 312.136 407.013 309.76C407.362 307.384 407.812 303.944 408.037 302.08C408.283 300.216 408.693 296.346 408.979 293.478C409.246 290.611 409.635 286.351 409.799 284.017C409.963 281.661 410.106 279.388 410.106 278.938V278.118H354.339L354.195 146.411L351.656 148.582Z" fill="#9F1F33"/>
<path d="M224.618 156.16C224.618 157.635 224.659 158.187 224.7 157.389C224.721 156.611 224.721 155.402 224.7 154.726C224.659 154.051 224.618 154.706 224.618 156.16Z" fill="#DEDEE2"/>
<path d="M175.938 312.689V464.998C179.972 468.644 182.348 470.712 183.822 471.941C185.297 473.19 187.877 475.218 189.577 476.467C191.277 477.737 193.53 479.355 194.595 480.092C195.68 480.829 197.667 482.12 199.019 482.959C200.37 483.82 202.623 485.151 204.036 485.929C205.449 486.728 207.886 488.018 209.463 488.796C211.04 489.595 213.764 490.844 215.525 491.581C217.266 492.319 218.905 492.974 219.15 493.035L219.621 493.158V178.586C218.27 178.258 216.529 177.787 214.911 177.336C213.273 176.865 210.508 176.046 208.747 175.473C207.006 174.899 204.466 174.019 203.115 173.527C201.763 173.036 199.326 172.073 197.728 171.397C196.131 170.742 193.448 169.554 191.789 168.776C190.11 167.997 187.243 166.564 185.379 165.581C183.515 164.598 180.689 163.021 179.112 162.058C177.535 161.116 176.183 160.358 176.101 160.358C176.02 160.358 175.938 228.905 175.938 312.689Z" fill="#9F1F33"/>
<path d="M305.269 174.858C305.474 174.961 305.535 184.996 305.576 221.389L305.637 267.776C305.74 177.029 305.719 174.694 305.371 174.694C305.125 174.694 305.105 174.756 305.269 174.858Z" fill="#DEDEE2"/>
<path d="M304.9 174.981C304.859 175.042 304.511 175.124 304.142 175.186C303.774 175.247 303.282 175.391 303.016 175.493C302.77 175.595 302.483 175.677 302.402 175.698C302.32 175.698 301.767 175.903 301.173 176.128C300.579 176.353 299.78 176.599 299.391 176.66C298.981 176.722 298.551 176.886 298.408 177.009C298.244 177.152 298.142 177.193 298.142 177.111C298.142 177.009 297.896 177.05 297.589 177.172C297.282 177.295 296.872 177.439 296.667 177.48C296.462 177.521 296.155 177.602 295.95 177.643C295.746 177.684 295.172 177.848 294.66 177.992C294.169 178.135 293.657 178.278 293.534 178.299C293.431 178.34 293.104 178.422 292.817 178.483C292.53 178.545 292.08 178.647 291.793 178.708C291.506 178.77 290.912 178.913 290.462 179.016C290.011 179.118 289.458 179.241 289.233 179.302C289.008 179.343 288.598 179.425 288.311 179.507C288.025 179.569 287.615 179.671 287.39 179.712C287.164 179.753 286.755 179.835 286.468 179.896C286.181 179.978 285.587 180.081 285.137 180.121C284.686 180.183 284.174 180.285 284.011 180.326C283.826 180.388 283.458 180.47 283.191 180.531C282.905 180.593 282.352 180.695 281.963 180.756C281.553 180.818 281 180.9 280.713 180.941C280.447 180.982 279.833 181.084 279.382 181.145C278.931 181.207 278.338 181.309 278.051 181.35C277.785 181.391 277.17 181.494 276.72 181.555C276.269 181.617 275.45 181.719 274.876 181.78C274.323 181.842 273.627 181.924 273.34 181.944C273.054 181.985 272.235 182.067 271.497 182.149C270.76 182.21 269.613 182.313 268.937 182.374C268.261 182.436 267.012 182.538 266.172 182.62C265.312 182.682 263.981 182.763 263.182 182.784C262.404 182.804 261.646 182.825 261.503 182.845C261.298 182.886 261.237 191.549 261.237 225.382V267.878H305.535C305.535 182.784 305.494 174.899 305.269 174.899C305.105 174.899 304.941 174.94 304.9 174.981Z" fill="white"/>
<path d="M354.339 380.375L354.318 444.314C356.346 441.61 357.575 439.951 358.332 438.886C359.111 437.821 360.831 435.323 362.183 433.357L364.599 429.773V326.656L404.249 326.554C404.638 324.342 405.027 322.109 405.355 320.205C405.703 318.3 405.928 316.662 405.887 316.58C405.846 316.477 394.234 316.416 380.062 316.416H354.339V380.375Z" fill="#1B2838"/>
<path d="M261.237 413.286V499.917C263.551 499.733 265.148 499.589 266.275 499.487C267.401 499.364 269.244 499.139 270.371 498.975C271.497 498.811 273.381 498.483 274.569 498.258C275.757 498.033 277.744 497.623 278.972 497.336C280.222 497.05 282.618 496.415 284.318 495.923C285.997 495.432 288.823 494.51 290.564 493.875C292.305 493.24 295.029 492.175 296.606 491.479C298.203 490.803 300.845 489.554 302.504 488.735L305.535 487.219V326.656H261.237V413.286ZM364.599 377.958C364.599 412.017 364.661 429.261 364.804 429.261C364.907 429.261 365.173 428.954 365.378 428.605C365.603 428.237 366.524 426.68 367.467 425.165C368.388 423.649 370.047 420.844 371.153 418.918C372.259 417.014 374.184 413.45 375.474 411.034C376.744 408.617 378.218 405.709 378.751 404.582C379.283 403.456 380.246 401.429 380.881 400.077C381.536 398.725 383.031 395.366 384.219 392.602C385.407 389.837 386.882 386.294 387.496 384.717C388.11 383.14 389.216 380.232 389.954 378.266C390.691 376.3 391.838 373.064 392.514 371.098C393.169 369.132 394.336 365.568 395.074 363.213C395.79 360.858 396.958 356.987 397.634 354.611C398.289 352.256 399.395 348.14 400.05 345.498C400.706 342.856 401.586 339.21 401.996 337.408C402.385 335.606 403.061 332.513 403.45 330.547C403.839 328.581 404.167 326.902 404.167 326.82C404.167 326.717 395.258 326.656 384.383 326.656H364.599V377.958Z" fill="white"/>
</g>
<defs>
<clipPath id="clip0_2_101">
<rect width="333.824" height="512" fill="white" transform="translate(89)"/>
</clipPath>
</defs>
</svg>
