<svg width="512" height="512" viewBox="0 0 512 512" fill="none" xmlns="http://www.w3.org/2000/svg">
<g clip-path="url(#clip0_2_163)">
<mask id="mask0_2_163" style="mask-type:luminance" maskUnits="userSpaceOnUse" x="44" y="-1" width="424" height="514">
<path d="M44.3844 512H467.584V-0.00134277H44.3844V512Z" fill="white"/>
</mask>
<g mask="url(#mask0_2_163)">
<path d="M255.984 512.001C382.832 435.569 467.586 297.131 467.586 139.026C467.586 104.363 463.384 70.6855 455.685 38.3574C394.115 13.6375 326.841 0 256.352 0C185.523 0 117.986 13.8529 56.1767 38.7976C48.5445 70.9966 44.3814 104.521 44.3814 139.026C44.3814 297.131 129.135 435.569 255.984 512.001Z" fill="white"/>
<path d="M255.984 7.80936C187.451 7.85721 122.106 21.2794 62.297 45.4203C54.8945 76.6287 50.8606 109.129 50.8606 142.582C50.8606 295.839 133.021 430.042 255.984 504.135V7.80936Z" fill="#B01028"/>
<path d="M256.341 7.80685C256.222 7.80685 256.102 7.80685 255.982 7.80685V504.132C378.945 430.044 461.105 295.841 461.105 142.579C461.105 108.974 457.038 76.3296 449.573 44.9919C389.889 21.0281 324.672 7.80685 256.341 7.80685Z" fill="#082242"/>
<path d="M413.044 164.523C413.044 152.536 412.494 140.679 411.422 128.97C362.47 113.667 310.38 105.398 256.342 105.398C202.031 105.398 149.686 113.758 100.524 129.209C99.462 140.837 98.9212 152.618 98.9212 164.523C98.9212 291.725 160.654 404.601 255.983 475.244C351.312 404.601 413.044 291.725 413.044 164.523Z" fill="white"/>
<path d="M295.056 329.385C295.43 328.892 296.071 328.016 297.272 326.796C298.468 325.576 300.224 324.001 302.832 322.121C305.435 320.24 308.895 318.049 313.503 315.58C316.264 314.106 318.963 312.79 321.552 311.613C324.145 310.431 326.638 309.397 328.983 308.478C331.332 307.565 333.538 306.77 335.562 306.076C337.591 305.383 339.443 304.804 341.07 304.296C341.07 304.296 341.501 302.655 340.793 301.052C340.08 299.449 338.228 297.875 333.653 298.013C329.988 298.124 327.624 297.535 325.016 297.186C322.408 296.832 319.556 296.707 314.934 297.736C312.431 298.296 310.637 299.133 308.967 300.162C307.297 301.191 305.746 302.411 303.751 303.732C301.311 305.349 299.708 305.99 298.349 306.722C296.99 307.454 295.889 308.282 294.477 310.287C293.061 312.307 292.985 313.871 293.042 315.685C293.095 317.498 293.276 319.556 292.396 322.556C291.267 326.389 295.056 329.385 295.056 329.385ZM351.76 329.729C351.521 329.327 349.894 327.212 349.525 326.313C349.162 325.418 347.109 323.389 348.09 321.236C348.406 320.547 348.3 319.307 348.008 317.886C348.008 317.886 347.147 317.986 345.625 318.216C344.099 318.436 341.917 318.786 339.295 319.283C336.668 319.776 333.605 320.417 330.299 321.236C326.997 322.049 323.456 323.044 319.901 324.226C315.159 325.805 311.058 327.375 307.699 328.772C304.34 330.169 301.722 331.385 299.942 332.251C298.162 333.122 297.219 333.643 297.219 333.643C295.779 336.39 296.258 337.878 297.339 338.763C298.425 339.649 300.54 339.845 301.119 340.252C303.77 342.137 303.689 346.898 302.976 349.138C302.263 351.382 300.995 352.908 301.459 353.774C301.923 354.636 303.78 355.583 305.895 356.626C308.005 357.665 310.383 358.803 311.881 360.048C314.996 362.627 317.618 364.77 320.016 366.393C322.418 368.015 324.595 369.115 326.825 369.613C329.045 370.106 331.318 369.991 333.912 369.178C336.491 368.369 332.055 365.905 333.931 361.229C336.065 355.913 334.242 354.746 336.06 354.683C340.864 354.506 343.908 354.104 345.736 353.272C347.568 352.444 348.186 351.186 348.128 349.315C348.047 346.879 346.109 345.908 348.358 344.084C349.779 342.931 347.956 341.151 347.185 340.811C347.138 340.792 348.98 340.62 349.123 338.577C349.166 337.998 347.439 337.007 348.209 335.931C348.851 335.041 351.191 335.51 352.315 334.538C353.358 333.634 353.085 331.681 351.76 329.729Z" fill="#082242"/>
<path d="M292.438 174.472C293.51 171.069 293.28 168.739 293.213 166.681C293.141 164.624 293.232 162.844 294.959 160.547C296.672 158.274 298.017 157.331 299.673 156.504C301.328 155.671 303.285 154.944 306.257 153.111C308.693 151.608 310.578 150.226 312.616 149.058C314.65 147.89 316.832 146.943 319.88 146.311C323.641 145.527 326.441 145.33 328.833 145.402C331.221 145.474 333.202 145.818 335.331 146.125C337.461 146.431 339.738 146.699 342.72 146.618C348.294 146.464 350.577 148.244 351.448 150.068C352.323 151.886 351.802 153.747 351.802 153.747C349.816 154.317 347.562 154.987 345.093 155.771C342.619 156.556 339.925 157.461 337.064 158.499C334.202 159.537 331.164 160.719 328.005 162.054C324.847 163.389 321.56 164.882 318.196 166.557C312.573 169.361 308.358 171.849 305.18 173.984C301.998 176.118 299.864 177.898 298.405 179.285C296.94 180.673 296.156 181.664 295.701 182.224C295.701 182.224 291.069 178.821 292.438 174.472ZM365.669 188.08C364.296 189.344 361.448 188.65 360.673 189.66C359.735 190.875 361.841 192.009 361.798 192.669C361.63 194.985 359.372 195.177 359.429 195.201C360.367 195.584 362.611 197.612 360.889 198.919C358.137 200.995 360.53 202.091 360.64 204.852C360.721 206.972 359.96 208.403 357.726 209.345C355.491 210.288 351.773 210.743 345.897 210.944C343.672 211.015 345.921 212.346 343.332 218.385C341.064 223.682 346.485 226.486 343.337 227.4C340.169 228.323 337.394 228.457 334.666 227.897C331.943 227.337 329.269 226.084 326.331 224.242C323.388 222.399 320.172 219.964 316.349 217.035C314.516 215.628 311.602 214.341 309.018 213.159C306.429 211.973 304.156 210.896 303.587 209.915C303.018 208.939 304.573 207.197 305.439 204.656C306.3 202.11 306.3 196.684 303.128 194.574C302.405 194.091 299.845 193.885 298.515 192.88C297.189 191.875 296.601 190.181 298.357 187.061C298.357 187.061 299.505 186.473 301.678 185.487C303.85 184.501 307.047 183.118 311.147 181.534C315.248 179.946 320.249 178.166 326.034 176.371C330.374 175.027 334.69 173.902 338.724 172.979C342.753 172.05 346.495 171.318 349.701 170.754C352.902 170.194 355.563 169.797 357.424 169.543C359.281 169.289 360.338 169.175 360.338 169.175C360.707 170.787 360.826 172.194 360.444 172.979C359.257 175.419 361.774 177.726 362.224 178.745C362.673 179.764 364.669 182.18 364.97 182.621C366.478 184.807 367.114 187.061 365.669 188.08Z" fill="#082242"/>
<path d="M163.829 329.385C164.16 328.892 164.729 328.016 165.825 326.796C166.921 325.576 168.547 324.001 170.993 322.121C173.443 320.24 176.711 318.049 181.118 315.58C183.75 314.106 186.334 312.79 188.827 311.613C191.325 310.431 193.722 309.397 195.995 308.478C198.263 307.565 200.407 306.77 202.378 306.076C204.345 305.383 206.144 304.804 207.728 304.296C207.728 304.296 208.025 302.655 207.178 301.052C206.331 299.449 204.34 297.875 199.78 298.013C196.129 298.124 193.712 297.535 191.076 297.186C188.439 296.832 185.573 296.707 181.037 297.736C178.591 298.296 176.864 299.133 175.28 300.162C173.696 301.191 172.251 302.411 170.371 303.732C168.064 305.349 166.504 305.99 165.212 306.722C163.915 307.454 162.887 308.282 161.647 310.287C160.398 312.307 160.451 313.871 160.657 315.685C160.863 317.498 161.221 319.556 160.595 322.556C159.786 326.389 163.829 329.385 163.829 329.385ZM220.566 329.729C220.294 329.327 218.48 327.212 218.04 326.313C217.6 325.418 215.37 323.389 216.174 321.236C216.432 320.547 216.231 319.307 215.82 317.886C215.815 317.886 214.293 318.068 211.743 318.479C209.192 318.891 205.622 319.537 201.536 320.475C197.45 321.413 192.846 322.647 188.238 324.226C183.63 325.805 179.663 327.375 176.419 328.772C173.175 330.169 170.662 331.385 168.954 332.251C167.251 333.122 166.351 333.643 166.351 333.643C165.14 336.39 165.743 337.878 166.901 338.763C168.059 339.649 170.184 339.835 170.801 340.252C173.701 342.185 173.935 346.898 173.414 349.138C172.888 351.382 171.753 352.908 172.289 353.774C172.825 354.636 174.763 355.583 176.964 356.626C179.166 357.665 181.63 358.803 183.233 360.048C186.568 362.627 189.372 364.77 191.908 366.393C194.444 368.015 196.717 369.115 198.981 369.613C201.249 370.106 203.512 369.991 206.034 369.178C208.546 368.369 203.909 365.905 205.388 361.229C207.077 355.913 205.149 354.746 206.962 354.683C211.752 354.506 214.762 354.104 216.523 353.272C218.284 352.444 218.801 351.186 218.585 349.315C218.303 346.879 216.284 345.898 218.365 344.084C219.686 342.941 217.714 341.151 216.915 340.811C216.867 340.792 218.7 340.62 218.671 338.577C218.662 337.998 216.858 337.007 217.542 335.931C218.102 335.045 220.485 335.5 221.519 334.538C222.485 333.639 222.059 331.681 220.566 329.729Z" fill="#082242"/>
<path d="M146.969 174.472C147.754 171.069 147.333 168.739 147.089 166.681C146.845 164.624 146.787 162.844 148.318 160.552C149.84 158.274 151.103 157.336 152.687 156.504C154.271 155.671 156.176 154.948 158.994 153.111C161.3 151.608 163.066 150.226 165.004 149.058C166.942 147.89 169.047 146.943 172.038 146.311C175.732 145.527 178.522 145.33 180.919 145.402C183.317 145.474 185.326 145.823 187.48 146.129C189.638 146.436 191.935 146.704 194.906 146.622C200.471 146.464 202.893 148.244 203.921 150.068C204.945 151.886 204.586 153.747 204.586 153.747C202.648 154.322 200.452 154.991 198.045 155.776C195.643 156.561 193.026 157.465 190.25 158.504C187.475 159.542 184.542 160.719 181.494 162.054C178.445 163.394 175.287 164.887 172.062 166.562C166.679 169.361 162.669 171.849 159.673 173.984C156.673 176.118 154.683 177.898 153.338 179.285C151.993 180.673 151.3 181.668 150.888 182.228C150.888 182.228 145.964 178.821 146.969 174.472ZM221.353 188.08C220.09 189.344 217.171 188.659 216.482 189.664C215.654 190.875 217.851 192.009 217.86 192.669C217.889 194.985 215.65 195.177 215.712 195.201C216.678 195.579 219.081 197.617 217.473 198.919C214.908 200.986 217.387 202.091 217.726 204.852C217.985 206.977 217.353 208.403 215.2 209.345C213.047 210.288 209.367 210.743 203.505 210.944C201.29 211.015 203.634 212.351 201.557 218.385C199.734 223.682 205.4 226.486 202.328 227.4C199.241 228.323 196.471 228.457 193.696 227.897C190.925 227.337 188.15 226.089 185.054 224.246C181.953 222.399 178.532 219.964 174.464 217.035C172.507 215.628 169.497 214.341 166.813 213.159C164.124 211.973 161.76 210.896 161.109 209.915C160.458 208.939 161.86 207.197 162.511 204.656C163.162 202.11 162.808 196.742 159.358 194.574C158.582 194.081 156.013 193.885 154.601 192.88C153.19 191.875 152.458 190.186 153.95 187.066C153.95 187.066 155.046 186.473 157.137 185.487C159.228 184.501 162.305 183.118 166.272 181.534C170.239 179.951 175.091 178.166 180.728 176.371C184.953 175.027 189.174 173.902 193.126 172.979C197.079 172.05 200.763 171.318 203.921 170.754C207.075 170.194 209.702 169.801 211.539 169.548C213.377 169.294 214.425 169.175 214.425 169.175C214.927 170.787 215.166 172.194 214.85 172.979C213.865 175.419 216.578 177.726 217.114 178.745C217.655 179.764 219.856 182.185 220.191 182.621C221.894 184.817 222.717 187.061 221.353 188.08Z" fill="#082242"/>
<path d="M129.437 53.7755C127.618 54.2013 125.891 54.8234 124.259 55.6512C122.628 56.479 121.082 57.5078 119.618 58.7376C118.158 59.9674 116.775 61.3981 115.474 63.0251C114.177 64.6568 113.038 66.3699 112.067 68.1595C111.095 69.9491 110.296 71.8201 109.65 73.7628C109.009 75.7008 108.535 77.7201 108.229 79.8064C107.928 81.8545 107.703 83.3905 107.478 84.9265C107.253 86.4625 107.028 87.9985 106.727 90.0466C106.42 92.1424 106.329 94.0517 106.454 95.7743C106.583 97.4922 106.932 99.0282 107.507 100.373C108.081 101.722 108.88 102.875 109.904 103.852C110.933 104.823 112.119 105.541 113.469 106C114.818 106.464 116.33 106.68 117.996 106.641C119.666 106.608 121.493 106.325 123.475 105.804C125.451 105.287 127.307 104.641 129.04 103.861C130.777 103.086 132.389 102.177 133.877 101.134C135.365 100.09 136.729 98.9086 137.969 97.5975C139.203 96.2815 140.261 94.8987 141.141 93.4344C142.017 91.9702 142.711 90.4246 143.232 88.8072C143.749 87.1851 144.089 85.4816 144.251 83.6967C144.232 83.6202 144.223 83.5819 144.204 83.5053C142.285 83.9121 140.854 84.2327 139.418 84.5485C137.988 84.8691 136.557 85.1945 134.653 85.6347C134.461 87.3095 134.112 88.812 133.595 90.1614C133.083 91.506 132.408 92.6927 131.571 93.7167C130.734 94.7455 129.724 95.6116 128.532 96.3198C127.346 97.028 125.977 97.5783 124.441 97.9755C122.896 98.3726 121.551 98.4301 120.407 98.1334C119.264 97.8415 118.326 97.2003 117.589 96.2002C116.857 95.2049 116.378 93.9656 116.144 92.4917C115.914 91.0131 115.928 89.2953 116.192 87.343C116.469 85.3045 116.675 83.7733 116.881 82.2421C117.086 80.7108 117.287 79.1748 117.565 77.1363C117.823 75.2032 118.264 73.3896 118.89 71.6957C119.512 70.0018 120.321 68.4275 121.307 66.9776C122.293 65.5229 123.374 64.3505 124.566 63.4557C125.757 62.5609 127.059 61.9436 128.465 61.6087C130.035 61.2354 131.375 61.1397 132.49 61.3168C133.6 61.4891 134.485 61.9389 135.131 62.6518C135.782 63.3696 136.222 64.3171 136.457 65.5038C136.686 66.6857 136.705 68.1116 136.519 69.7673C138.394 69.3462 139.811 69.0399 141.227 68.7337C142.644 68.4322 144.065 68.1356 145.965 67.748C145.998 67.6571 146.017 67.614 146.051 67.5279C146.39 64.786 146.266 62.4174 145.677 60.4268C145.094 58.4314 144.05 56.8092 142.562 55.5651C141.572 54.7325 140.423 54.1104 139.117 53.6989C137.811 53.2826 136.351 53.0816 134.739 53.0912C133.121 53.1008 131.356 53.3304 129.437 53.7755ZM172.373 46.3681C173.89 46.1432 175.412 45.9231 177.441 45.6408C178.073 47.9711 178.671 50.1579 179.245 52.2299C179.819 54.3018 180.365 56.2637 180.891 58.1538C181.422 60.0439 181.934 61.8623 182.441 63.6423C182.944 65.4224 183.441 67.1642 183.939 68.906C184.442 70.6477 184.944 72.3895 185.461 74.1648C185.978 75.9449 186.504 77.7584 187.059 79.639C187.614 81.5243 188.193 83.4862 188.81 85.5486C189.423 87.6157 190.078 89.7882 190.782 92.1042C188.686 92.3673 187.116 92.5731 185.552 92.7884C183.987 92.999 182.422 93.2191 180.341 93.5253C179.819 91.5204 179.427 90.0178 179.039 88.5153C178.652 87.0128 178.264 85.5055 177.752 83.5005C175.369 83.8594 173.393 84.1657 171.546 84.4623C169.703 84.759 167.99 85.0461 166.153 85.3572C164.315 85.673 162.353 86.0223 159.999 86.4529C159.109 88.7067 158.444 90.4054 157.774 92.0994C157.104 93.7981 156.434 95.4968 155.535 97.7649C153.487 98.1669 151.955 98.4779 150.424 98.7937C148.898 99.1095 147.371 99.4254 145.338 99.8656C146.338 97.4874 147.276 95.2432 148.17 93.109C149.07 90.9701 149.922 88.9364 150.74 86.9841C151.558 85.027 152.343 83.156 153.109 81.3233C153.869 79.4906 154.616 77.7058 155.353 75.9401C156.09 74.1696 156.822 72.423 157.554 70.6573C158.286 68.8964 159.028 67.1259 159.779 65.3124C160.535 63.4988 161.306 61.6422 162.105 59.7186C162.904 57.7949 163.732 55.8043 164.598 53.718C165.464 51.6269 166.368 49.4449 167.325 47.1385C169.34 46.8227 170.857 46.593 172.373 46.3681ZM169.55 77.1794C171.45 76.8684 173.354 76.5669 175.905 76.1841C175.292 73.7437 174.79 71.71 174.321 69.8103C173.852 67.9107 173.417 66.145 172.957 64.2453C172.493 62.3456 172 60.3071 171.416 57.8572C171.335 57.8715 171.292 57.8763 171.211 57.8907C170.421 59.9147 169.723 61.69 169.077 63.3409C168.431 64.987 167.832 66.5134 167.234 68.0399C166.636 69.5663 166.033 71.0975 165.382 72.7532C164.732 74.4136 164.028 76.2032 163.22 78.2465C165.746 77.8063 167.646 77.4904 169.55 77.1794ZM216.937 71.4899C218.765 71.3559 220.129 71.2602 221.502 71.1693C222.871 71.0784 224.239 70.9923 226.067 70.887C225.986 72.6671 225.928 73.9973 225.866 75.3324C225.804 76.6626 225.747 77.9977 225.66 79.7729C224.866 80.4955 223.722 81.1367 222.215 81.6918C220.717 82.2516 218.746 82.6153 216.315 82.7971C214.597 82.9311 213.076 82.7684 211.75 82.3138C210.42 81.8592 209.291 81.108 208.357 80.0553C207.42 79.0073 206.754 77.7584 206.348 76.3181C205.946 74.873 205.802 73.2365 205.922 71.4038C206.056 69.3749 206.156 67.8532 206.257 66.3316C206.353 64.8099 206.453 63.2882 206.587 61.2594C206.702 59.4554 207.046 57.7997 207.616 56.2876C208.19 54.7708 208.984 53.4022 209.999 52.1772C211.023 50.957 212.166 50.0096 213.444 49.3445C214.722 48.6745 216.129 48.2869 217.674 48.1769C219.134 48.0764 220.406 48.1769 221.497 48.4784C222.588 48.7798 223.498 49.2775 224.22 49.9761C225.67 51.3733 226.436 53.3448 226.503 55.8905C228.417 55.7804 229.852 55.7134 231.288 55.6417C232.723 55.5747 234.159 55.5125 236.068 55.4407C236.097 55.3593 236.116 55.3211 236.145 55.2397C236.188 52.9237 235.819 50.847 235.058 49.0095C234.293 47.172 233.13 45.5786 231.57 44.2244C230.532 43.3248 229.331 42.5927 227.967 42.0328C226.603 41.473 225.077 41.0854 223.383 40.87C221.694 40.6547 219.837 40.6164 217.813 40.7552C215.865 40.8892 214.023 41.2289 212.281 41.7744C210.544 42.3151 208.908 43.0664 207.377 44.0138C205.845 44.9613 204.415 46.1049 203.089 47.4543C201.759 48.8037 200.625 50.2584 199.687 51.8136C198.754 53.3735 198.017 55.0339 197.471 56.7901C196.931 58.5462 196.586 60.4028 196.447 62.3552C196.299 64.384 196.184 65.9009 196.074 67.4178C195.964 68.9395 195.849 70.4563 195.701 72.4804C195.557 74.4423 195.643 76.2607 195.959 77.9259C196.275 79.5959 196.821 81.1128 197.601 82.4861C198.385 83.8594 199.4 85.0844 200.649 86.1706C201.898 87.2568 203.295 88.1229 204.845 88.7833C206.396 89.4388 208.09 89.8886 209.932 90.1279C211.774 90.3672 213.769 90.4054 215.904 90.238C218.425 90.0418 220.741 89.6972 222.852 89.1948C224.962 88.6924 226.866 88.032 228.551 87.2042C230.24 86.3812 231.709 85.5246 232.958 84.6298C234.207 83.735 235.235 82.8019 236.044 81.8257C236.125 79.4141 236.188 77.4043 236.25 75.5285C236.312 73.6528 236.369 71.911 236.427 70.0352C236.489 68.1595 236.556 66.1497 236.633 63.7428C234.058 63.8385 231.905 63.9342 229.9 64.0347C227.895 64.1352 226.034 64.2357 224.033 64.3601C222.029 64.4797 219.88 64.6185 217.306 64.8051C217.234 66.145 217.176 67.145 217.119 68.1451C217.066 69.15 217.014 70.1501 216.937 71.4899ZM255.73 46.5643C255.725 48.5932 255.72 50.5072 255.716 52.3495C255.716 54.1918 255.711 55.9623 255.711 57.7088C255.706 59.4554 255.701 61.178 255.701 62.9246C255.697 64.6711 255.697 66.4416 255.692 68.2839C255.687 70.1262 255.687 72.0402 255.682 74.0691C255.677 76.098 255.677 78.2513 255.673 80.5673C258.017 80.5577 260.07 80.5673 261.975 80.5864C263.874 80.6008 265.63 80.6295 267.382 80.663C269.138 80.6965 270.889 80.7395 272.784 80.7969C274.684 80.8496 276.727 80.9214 279.057 81.0171C279.105 82.5004 279.148 83.6106 279.187 84.7255C279.225 85.8357 279.268 86.9506 279.321 88.434C277.043 88.3383 274.952 88.2617 272.985 88.2043C271.023 88.1469 269.176 88.099 267.401 88.0655C265.621 88.032 263.903 88.0033 262.185 87.989C260.463 87.9698 258.74 87.965 256.95 87.965C255.165 87.965 253.314 87.9746 251.337 87.9937C249.366 88.0129 247.265 88.0464 244.978 88.099C245.021 85.7017 245.064 83.4527 245.107 81.3233C245.145 79.1892 245.188 77.1651 245.227 75.2223C245.265 73.2748 245.299 71.4038 245.337 69.5711C245.37 67.7336 245.409 65.9392 245.442 64.14C245.476 62.3456 245.509 60.5464 245.547 58.7137C245.581 56.8762 245.614 55.0052 245.653 53.0577C245.691 51.1102 245.729 49.0908 245.772 46.9567C245.815 44.8225 245.858 42.5783 245.901 40.181C247.878 40.1427 249.356 40.1188 250.83 40.1044C252.309 40.0853 253.783 40.0757 255.74 40.0709C255.735 42.3821 255.73 44.5354 255.73 46.5643ZM286.068 88.7594C288.183 88.8742 289.766 88.9699 291.346 89.0752C292.929 89.1757 294.504 89.2857 296.609 89.4436C296.475 87.0367 296.351 84.7782 296.231 82.6344C296.116 80.4907 296.001 78.4618 295.896 76.5047C295.786 74.5476 295.686 72.6671 295.58 70.8248C295.48 68.9825 295.379 67.1785 295.284 65.3698C295.183 63.5658 295.083 61.7618 294.982 59.9195C294.882 58.0725 294.776 56.1967 294.671 54.2396C294.561 52.2825 294.451 50.2536 294.331 48.1099C294.217 45.9662 294.087 43.7076 293.958 41.3007C291.953 41.1715 290.46 41.0806 288.958 40.9945C287.46 40.9083 285.958 40.827 283.967 40.7313C284.072 43.1334 284.168 45.3824 284.259 47.5213C284.355 49.6603 284.445 51.6892 284.532 53.6367C284.613 55.589 284.699 57.4648 284.78 59.3023C284.857 61.1445 284.938 62.9437 285.015 64.7429C285.091 66.5469 285.173 68.3461 285.254 70.1884C285.335 72.0259 285.417 73.9016 285.503 75.8539C285.584 77.8015 285.675 79.8304 285.771 81.9693C285.862 84.1035 285.962 86.3572 286.068 88.7594ZM321.98 43.8129C323.511 43.9851 325.047 44.1622 327.086 44.4158C328.023 46.6744 328.913 48.8085 329.76 50.8518C330.607 52.895 331.416 54.8425 332.201 56.7231C332.981 58.6036 333.742 60.4172 334.479 62.1925C335.22 63.9677 335.938 65.6999 336.661 67.4226C337.378 69.1452 338.091 70.8535 338.814 72.5809C339.536 74.3083 340.268 76.0549 341.02 77.8398C341.766 79.6294 342.541 81.4621 343.341 83.3713C344.144 85.2806 344.977 87.2616 345.853 89.3479C346.728 91.4342 347.647 93.621 348.628 95.9466C346.566 95.5829 345.02 95.3197 343.47 95.0661C341.919 94.8077 340.364 94.5541 338.292 94.2335C337.412 92.0132 336.751 90.3528 336.096 88.6924C335.44 87.0367 334.785 85.3763 333.914 83.1704C331.531 82.8258 329.54 82.5531 327.679 82.3043C325.817 82.0602 324.085 81.8401 322.219 81.6152C320.353 81.3855 318.357 81.1463 315.951 80.8831C315.4 82.8928 314.984 84.4049 314.568 85.9122C314.151 87.4195 313.735 88.9316 313.17 90.9414C311.065 90.7165 309.481 90.5586 307.902 90.4054C306.318 90.2523 304.73 90.1088 302.61 89.9221C303.366 87.5918 304.064 85.405 304.725 83.3283C305.385 81.2515 306.002 79.2801 306.596 77.3852C307.189 75.4903 307.754 73.6671 308.304 71.8823C308.859 70.0927 309.395 68.3461 309.926 66.5948C310.462 64.8434 310.993 63.0968 311.529 61.312C312.07 59.5224 312.615 57.6992 313.18 55.8043C313.745 53.9047 314.328 51.938 314.936 49.8565C315.549 47.7797 316.185 45.5882 316.86 43.253C318.908 43.4684 320.444 43.6358 321.98 43.8129ZM324.348 74.3036C326.272 74.5428 328.196 74.7916 330.756 75.141C329.966 73.136 329.282 71.3894 328.645 69.7673C328.009 68.1451 327.425 66.6474 326.841 65.1544C326.258 63.6567 325.674 62.1637 325.042 60.5464C324.411 58.9338 323.731 57.1968 322.961 55.211C322.875 55.2014 322.841 55.1966 322.755 55.1871C322.123 57.637 321.592 59.6755 321.09 61.58C320.592 63.4844 320.133 65.2501 319.626 67.1546C319.123 69.0543 318.578 71.0928 317.922 73.5427C320.496 73.8298 322.425 74.0643 324.348 74.3036ZM387.435 70.9109C387.23 69.2888 386.871 67.7336 386.349 66.2359C385.823 64.7477 385.143 63.317 384.306 61.958C383.468 60.5942 382.468 59.3023 381.315 58.0773C380.162 56.8571 378.903 55.7709 377.53 54.833C376.157 53.8903 374.664 53.096 373.066 52.4452C371.467 51.7896 369.754 51.2824 367.922 50.9188C365.381 50.4115 363.247 50.0096 361.251 49.6411C359.256 49.2727 357.394 48.9377 355.385 48.5884C353.375 48.2439 351.217 47.8754 348.618 47.4591C348.858 49.9235 349.083 52.2394 349.293 54.4358C349.504 56.6322 349.7 58.7137 349.896 60.7187C350.088 62.7236 350.274 64.652 350.456 66.5421C350.638 68.4322 350.82 70.2793 350.997 72.1311C351.174 73.983 351.351 75.8348 351.533 77.7201C351.714 79.6102 351.901 81.5386 352.092 83.5436C352.289 85.5486 352.49 87.6301 352.7 89.8264C352.911 92.0228 353.131 94.3388 353.37 96.8031C355.404 97.1811 356.925 97.473 358.447 97.7745C359.964 98.0712 361.486 98.3726 363.505 98.7889C363.261 96.3916 363.05 94.3866 362.864 92.5205C362.668 90.6495 362.486 88.9173 362.294 87.0463C362.103 85.1801 361.897 83.1799 361.648 80.7778C363.361 81.1128 364.644 81.3712 365.921 81.6343C367.204 81.8975 368.481 82.1655 370.185 82.5292C371.343 84.5437 372.357 86.319 373.305 87.965C374.252 89.6159 375.128 91.1423 376.004 92.6736C376.879 94.2048 377.755 95.736 378.712 97.4013C379.664 99.0665 380.703 100.866 381.88 102.928C383.875 103.411 385.363 103.789 386.851 104.167C388.34 104.545 389.828 104.928 391.804 105.455C390.526 103.215 389.416 101.263 388.392 99.4589C387.363 97.6501 386.416 95.9849 385.473 94.3292C384.526 92.6688 383.593 91.0179 382.574 89.2283C381.559 87.4435 380.468 85.5198 379.224 83.3331C381.176 83.0794 382.827 82.4622 384.157 81.4429C385.569 80.3615 386.545 78.9403 387.086 77.189C387.631 75.4328 387.742 73.337 387.435 70.9109ZM376.501 74.1265C375.281 75.3467 373.31 75.6482 370.577 75.0692C368.644 74.6577 367.189 74.3562 365.73 74.0643C364.275 73.7676 362.816 73.4805 360.864 73.1025C360.639 70.9301 360.447 69.1165 360.275 67.4226C360.098 65.7334 359.94 64.1639 359.763 62.47C359.591 60.7809 359.404 58.9673 359.179 56.7949C361.108 57.149 362.553 57.4217 363.988 57.6992C365.429 57.9768 366.864 58.2591 368.769 58.6467C370.128 58.9194 371.333 59.3645 372.396 59.9722C373.458 60.5799 374.382 61.3503 375.157 62.2882C375.932 63.2213 376.549 64.2309 377.009 65.3076C377.468 66.3842 377.769 67.5231 377.913 68.7337C378.19 71.1119 377.722 72.9063 376.501 74.1265ZM397.336 57.6753C398.699 58.039 400.058 58.4027 401.858 58.8955C402.236 61.4747 402.594 63.8912 402.929 66.188C403.269 68.4849 403.585 70.6573 403.891 72.7532C404.202 74.8491 404.499 76.8636 404.791 78.8398C405.083 80.8113 405.365 82.7493 405.652 84.6825C405.934 86.6156 406.222 88.5488 406.509 90.5251C406.801 92.4965 407.097 94.5111 407.408 96.6069C407.715 98.7028 408.03 100.875 408.37 103.172C408.71 105.469 409.064 107.885 409.447 110.465C407.499 109.876 406.03 109.441 404.566 109.01C403.097 108.579 401.628 108.158 399.661 107.603C399.317 105.048 398.996 102.655 398.69 100.378C398.384 98.0999 398.092 95.9466 397.814 93.8699C397.532 91.7931 397.259 89.7977 396.996 87.8406C396.733 85.8835 396.474 83.9695 396.216 82.0506C395.958 80.1366 395.704 78.2178 395.441 76.2607C395.173 74.3036 394.905 72.3082 394.622 70.2314C394.345 68.1547 394.053 66.0014 393.747 63.7237C393.441 61.4508 393.115 59.0534 392.771 56.4982C394.608 56.9623 395.977 57.3164 397.336 57.6753Z" fill="white"/>
<path d="M391.048 242.105C355.279 244.751 314.587 246.933 271.238 247.349C271.655 209.906 271.88 170.323 271.88 129.372C271.88 127.707 271.88 126.052 271.875 124.391C266.707 124.224 261.52 124.118 256.304 124.118C250.634 124.118 244.987 124.233 239.36 124.434C239.36 126.08 239.36 127.722 239.36 129.372C239.36 170.319 239.585 209.891 240.001 247.335C196.897 246.876 156.458 244.689 120.91 242.047C122.613 251.048 124.661 259.929 127.054 268.667C161.191 273.06 199.601 276.237 240.379 276.907C241.332 343.482 242.915 402.104 244.935 447.946C248.567 450.869 252.237 453.745 255.984 456.521C259.472 453.937 262.888 451.266 266.276 448.558C268.31 402.631 269.899 343.793 270.86 276.931C311.883 276.318 350.532 273.16 384.889 268.767C387.287 260.011 389.34 251.12 391.048 242.105Z" fill="#B01028"/>
</g>
</g>
<defs>
<clipPath id="clip0_2_163">
<rect width="512" height="512" fill="white"/>
</clipPath>
</defs>
</svg>
