<svg width="512" height="512" viewBox="0 0 512 512" fill="none" xmlns="http://www.w3.org/2000/svg">
<g clip-path="url(#clip0_2_1376)">
<path d="M1.70654 256L255.97 1.74377L510.219 256L255.963 510.256L1.70654 256Z" fill="white"/>
<path d="M13.2826 256L255.963 13.3194L498.651 256L255.963 498.681L13.2826 256Z" fill="#5A348B"/>
<path d="M47.9873 256L256.008 47.987L464.021 256L256 464.013L47.9873 256Z" fill="white"/>
<path d="M363.431 185.478L336.592 158.624C333.122 155.138 328.421 153.155 323.503 153.104C318.585 153.052 313.843 154.936 310.302 158.349C295.461 172.633 279.686 190.204 269.238 210.885C273.964 179.757 284.635 146.395 298.748 120.765L259.628 81.6232L220.509 120.765C234.622 146.447 245.292 179.808 250.012 210.885C239.512 190.152 223.788 172.633 208.948 158.349C205.406 154.939 200.667 153.056 195.75 153.107C190.834 153.159 186.135 155.14 182.665 158.624L155.826 185.485L199.339 229.012V188.757C212.398 192.653 239.178 208.221 248.684 229.012H231.617V237.85H250.568L234.733 250.806C233.799 251.574 233.035 252.528 232.49 253.608C231.945 254.688 231.632 255.869 231.569 257.077C231.506 258.285 231.696 259.493 232.125 260.623C232.555 261.754 233.216 262.782 234.066 263.643L259.74 289.391L285.355 263.643C286.209 262.785 286.875 261.757 287.308 260.626C287.741 259.495 287.932 258.286 287.869 257.076C287.807 255.867 287.491 254.684 286.943 253.604C286.394 252.524 285.626 251.571 284.687 250.806L268.852 237.85H287.803V229.012H270.737C280.19 208.221 307.022 192.653 320.082 188.757V229.012L363.594 185.478H363.431Z" fill="#E2241C"/>
<path d="M81.6232 259.71H186.249L256 327.977L325.751 259.71H430.377L256 430.377L81.6232 259.71Z" fill="#5A348B"/>
</g>
<defs>
<clipPath id="clip0_2_1376">
<rect width="512" height="512" fill="white"/>
</clipPath>
</defs>
</svg>
