<svg width="512" height="512" viewBox="0 0 512 512" fill="none" xmlns="http://www.w3.org/2000/svg">
<g clip-path="url(#clip0_2_664)">
<g clip-path="url(#clip1_2_664)">
<path d="M256 512C397.385 512 512 397.385 512 256C512 114.615 397.385 0 256 0C114.615 0 0 114.615 0 256C0 397.385 114.615 512 256 512Z" fill="black"/>
<path d="M256 475.429C377.187 475.429 475.429 377.187 475.429 256C475.429 134.813 377.187 36.5714 256 36.5714C134.813 36.5714 36.5714 134.813 36.5714 256C36.5714 377.187 134.813 475.429 256 475.429Z" fill="#00239C"/>
<path d="M393.265 135.192L375.954 172.251C392.533 196.023 402.286 224.853 402.286 256C402.286 282.088 395.459 306.53 383.512 327.741L388.267 382.293C419.596 349.501 438.857 305.006 438.857 256.061C438.857 209.676 421.669 167.436 393.265 135.192ZM274.53 401.128V110.872C289.89 112.823 304.518 117.15 317.989 123.49L333.47 90.3314C309.943 79.299 283.672 73.1429 256 73.1429C228.328 73.1429 202.057 79.299 178.53 90.3314L194.011 123.49C207.665 117.09 222.476 112.762 238.019 110.811V401.189C223.512 399.421 209.615 395.459 196.754 389.79L193.402 427.886C212.907 434.956 233.996 438.857 256 438.857C278.065 438.857 299.276 434.956 318.842 427.764L315.49 389.669C302.751 395.398 288.975 399.299 274.53 401.128ZM118.735 135.192C90.3315 167.436 73.1429 209.676 73.1429 256C73.1429 305.067 92.4648 349.623 123.916 382.415L128.671 327.985C116.602 306.773 109.714 282.21 109.714 256C109.714 224.853 119.467 196.023 136.046 172.312L118.735 135.192ZM352.122 179.505L379.368 121.051C370.164 112.64 360.168 105.204 349.379 98.8038L292.937 219.977V306.53L321.219 245.882L336.457 420.267C348.891 414.171 360.533 406.674 371.2 398.019L352.122 179.505ZM219.794 221.989L162.438 98.9257C151.711 105.326 141.653 112.823 132.511 121.234L159.878 179.931L159.817 180.968L140.861 398.019C151.528 406.674 163.17 414.171 175.604 420.267L190.842 246.187L219.916 308.541V221.989H219.794Z" fill="white"/>
</g>
</g>
<defs>
<clipPath id="clip0_2_664">
<rect width="512" height="512" fill="white"/>
</clipPath>
<clipPath id="clip1_2_664">
<rect width="512" height="512" fill="white"/>
</clipPath>
</defs>
</svg>
