<svg width="512" height="512" viewBox="0 0 512 512" fill="none" xmlns="http://www.w3.org/2000/svg">
<g clip-path="url(#clip0_2_824)">
<g clip-path="url(#clip1_2_824)">
<path d="M256 0C114.612 0 0 114.612 0 256C0 397.388 114.612 512 256 512C397.388 512 512 397.388 512 256C512 114.612 397.388 0 256 0ZM256 10.8551C321.493 10.8551 383.005 36.365 429.32 82.6802C475.635 128.995 501.145 190.507 501.145 256C501.145 321.493 475.635 383.005 429.32 429.32C383.005 475.635 321.493 501.145 256 501.145C190.507 501.145 128.996 475.635 82.5901 429.32C36.3654 383.005 10.8551 321.493 10.8551 256C10.8551 190.507 36.365 128.995 82.6802 82.6802C128.995 36.365 190.507 10.8551 256 10.8551Z" fill="#000035" fill-opacity="0.985646"/>
<path d="M256 68.0247C152.334 68.0247 68.0247 152.334 68.0247 256C68.0247 359.666 152.334 443.975 256 443.975C359.666 443.975 443.975 359.666 443.975 256C443.975 152.334 359.666 68.0247 256 68.0247ZM256 75.2615C355.686 75.2615 436.738 156.314 436.738 256C436.738 355.686 355.686 436.738 256 436.738C156.314 436.738 75.2615 355.686 75.2615 256C75.2615 156.314 156.314 75.2615 256 75.2615Z" fill="#000035" fill-opacity="0.985646"/>
<path d="M149.167 148.444H215.203L322.669 276.896C323.392 277.71 324.659 277.258 324.659 276.172V179.652C324.659 167.35 314.708 157.399 302.406 157.399H295.802V148.353H362.742V157.399H358.31C347.273 157.399 338.318 166.355 338.318 177.391V361.837H329.543L192.045 197.382C191.683 196.93 190.869 197.201 190.869 197.835V324.749C190.869 337.775 201.453 348.359 214.479 348.359H219.816V356.5H149.258V348.359H156.495C167.531 348.359 176.486 339.404 176.486 328.368V178.657L166.445 166.717L162.736 162.284C160.113 159.209 156.314 157.399 152.334 157.399H149.348V148.444H149.167Z" fill="#000035" fill-opacity="0.985646"/>
</g>
</g>
<defs>
<clipPath id="clip0_2_824">
<rect width="512" height="512" fill="white"/>
</clipPath>
<clipPath id="clip1_2_824">
<rect width="512" height="512" fill="white"/>
</clipPath>
</defs>
</svg>
