<svg width="512" height="512" viewBox="0 0 512 512" fill="none" xmlns="http://www.w3.org/2000/svg">
<g clip-path="url(#clip0_2_1033)">
<path d="M256.341 502.452C148.606 502.452 60.9495 392.937 60.9495 255.999C60.9495 119.06 148.606 7.65332 256.341 7.65332C364.076 7.65332 451.723 119.06 451.723 255.999C451.723 392.937 364.076 502.452 256.341 502.452Z" fill="black"/>
<path d="M256.341 502.453C148.606 502.453 60.9494 392.939 60.9494 256C60.9494 119.062 148.606 7.6544 256.341 7.6544C364.076 7.6544 451.723 119.062 451.723 256C451.723 392.939 364.076 502.453 256.341 502.453ZM256.332 0C145.318 0 55 114.836 55 256C55 397.154 145.318 512 256.332 512C367.364 512 457.682 397.154 457.682 256C457.682 114.836 367.364 0 256.332 0Z" fill="white"/>
<path d="M218.79 239.007V188.123C192.5 189.397 168.084 192.077 143.697 196.378V439.57C138.084 433.977 131.086 426.82 125.952 420.354C90.7427 375.973 71.3584 315.992 71.3584 251.43C71.3584 198.345 82.8169 148.37 107.054 107.596C81.2799 147.883 65.8492 199.271 65.8492 256.255C65.8492 390.439 151.304 493.686 256.341 493.686C361.367 493.686 446.832 390.439 446.832 256.255C446.832 199.272 431.402 147.883 405.628 107.596C429.866 148.369 441.323 198.345 441.323 251.43C441.323 315.992 421.93 375.973 386.721 420.354C381.586 426.809 374.588 433.985 368.976 439.57V196.378C344.588 192.068 320.182 189.398 293.883 188.123L294.427 233.197L293.883 421.047V483.183C281.506 486.415 269.299 488.082 256.341 488.082C243.383 488.082 231.166 486.414 218.79 483.183V409.092V239.007Z" fill="#0063AF"/>
<path d="M396.427 180.573C396.343 179.562 395.265 178.596 393.757 178.277C391.921 177.884 391.011 177.697 389.175 177.322C389.279 178.727 389.335 179.44 389.456 180.854C391.311 181.238 392.238 181.434 394.112 181.829C395.594 182.147 396.511 181.614 396.427 180.573ZM388.997 175.262C390.702 175.609 391.555 175.786 393.26 176.152C394.815 176.479 395.612 175.946 395.527 174.98C395.433 173.912 394.552 173.106 392.997 172.779C391.292 172.413 390.439 172.235 388.734 171.889C388.838 173.237 388.895 173.912 388.997 175.262ZM397.073 177.678C397.082 177.8 397.092 177.857 397.092 177.978C398.638 178.746 399.668 180.067 399.79 181.501C400.015 184.115 397.879 185.042 394.206 184.256C391.124 183.6 389.578 183.281 386.495 182.663C386.055 177.117 385.84 174.352 385.409 168.806C388.389 169.407 389.878 169.705 392.857 170.343C396.52 171.121 398.601 172.949 398.807 175.327C398.909 176.601 398.272 177.463 397.073 177.678ZM367.692 176.836C365.097 176.395 363.71 174.568 363.588 172.657C363.383 169.49 363.279 167.906 363.073 164.731C361.818 164.525 361.19 164.422 359.926 164.225C360.131 167.391 360.226 168.975 360.431 172.151C360.648 175.72 363.523 178.766 367.862 179.505C372.274 180.255 374.673 178.109 374.419 174.531C374.195 171.363 374.073 169.771 373.848 166.595C372.592 166.369 371.965 166.258 370.709 166.032C370.935 169.209 371.037 170.792 371.262 173.968C371.392 175.908 370.306 177.276 367.692 176.836ZM341.974 161.62C340.718 161.451 340.082 161.367 338.817 161.207C339.097 166.726 339.239 169.489 339.51 175.008C344.157 175.588 346.471 175.907 351.109 176.572C351.053 175.598 351.025 175.111 350.969 174.136C347.614 173.649 345.929 173.425 342.565 172.984C342.33 168.432 342.218 166.163 341.974 161.62ZM323.002 161.77C325.073 161.975 326.741 163.325 326.741 163.325C327.434 162.548 327.772 162.163 328.464 161.385C328.464 161.385 326.665 159.484 322.844 159.1C317.718 158.585 314.609 161.527 314.749 165.499C314.889 169.471 318.244 172.957 323.415 173.481C327.247 173.865 328.933 172.366 328.933 172.366C328.174 171.429 327.79 170.961 327.032 170.033C327.032 170.033 325.767 171.083 323.369 170.839C320.343 170.539 318.131 168.412 318.038 165.789C317.933 163.175 319.985 161.46 323.002 161.77ZM284.664 159.025C287.156 159.129 288.758 160.402 288.758 160.402C289.479 159.597 289.844 159.185 290.575 158.379C290.575 158.379 288.785 156.543 284.664 156.365C279.473 156.15 276.334 159.278 276.382 163.242C276.429 167.205 279.642 170.494 284.86 170.718C289.807 170.924 292.337 168.235 292.243 164.15C292.234 163.607 292.234 163.344 292.216 162.802C289.059 162.633 287.484 162.558 284.327 162.427C284.336 163.336 284.345 163.786 284.365 164.694C286.173 164.769 287.081 164.807 288.899 164.9V165.078C288.852 166.868 287.343 168.189 284.786 168.076C281.769 167.954 279.708 165.959 279.67 163.345C279.633 160.73 281.665 158.893 284.664 159.025ZM250.85 156.111C250.832 161.611 250.823 164.365 250.803 169.864C252.087 169.855 252.724 169.846 254.007 169.837C254.007 166.482 254.016 164.806 254.026 161.451C258.251 164.786 260.368 166.473 264.651 169.873C264.96 169.883 265.109 169.883 265.419 169.883C265.39 164.392 265.381 161.648 265.344 156.157C264.088 156.139 263.461 156.129 262.196 156.119C262.205 159.398 262.205 161.028 262.225 164.308C257.971 160.991 255.853 159.352 251.638 156.101C251.319 156.102 251.169 156.111 250.85 156.111ZM238.905 156.336C237.631 156.364 237.004 156.383 235.729 156.429C235.663 161.929 235.625 164.684 235.551 170.183C236.834 170.145 237.472 170.126 238.755 170.09C238.82 164.59 238.849 161.835 238.905 156.336ZM219.942 170.877C220.045 166.352 220.091 164.085 220.195 159.549C222.247 159.437 223.268 159.381 225.32 159.278C225.338 158.303 225.347 157.826 225.367 156.851C219.998 157.113 217.31 157.264 211.941 157.639C211.914 158.614 211.903 159.1 211.876 160.075C213.928 159.934 214.958 159.86 217.019 159.738C216.907 164.272 216.85 166.54 216.739 171.065C218.022 170.989 218.659 170.952 219.942 170.877ZM191.695 166.567C193.259 166.407 194.047 166.332 195.61 166.183C197.606 165.996 198.843 165.106 198.9 163.503C198.956 161.92 197.757 161.198 195.705 161.395C194.178 161.535 193.418 161.61 191.882 161.76C191.806 163.691 191.769 164.646 191.695 166.567ZM188.818 159.653C191.648 159.362 193.072 159.213 195.901 158.95C199.893 158.576 202.291 160.093 202.188 163.101C202.113 165.153 200.914 166.642 199.077 167.56C199.068 167.644 199.068 167.682 199.068 167.766C200.51 169.378 201.231 170.193 202.693 171.804C202.684 171.916 202.675 171.973 202.675 172.084C201.232 172.197 200.511 172.262 199.058 172.394C197.719 170.838 197.044 170.061 195.704 168.505C194.064 168.665 193.24 168.74 191.599 168.908C191.525 170.585 191.496 171.428 191.432 173.114C190.158 173.236 189.52 173.302 188.237 173.442C188.471 167.926 188.584 165.171 188.818 159.653ZM169.5 164.327C166.567 164.721 164.374 166.933 164.225 169.555C164.075 172.178 166.071 173.79 169.013 173.387C171.983 172.994 174.204 170.81 174.335 168.196C174.465 165.574 172.441 163.925 169.5 164.327ZM177.585 167.784C177.398 171.766 174.053 175.364 168.863 176.057C163.71 176.76 160.721 174.014 160.955 170.033C161.19 166.052 164.525 162.35 169.641 161.657C174.774 160.964 177.772 163.812 177.585 167.784ZM145.167 168.15C143.65 168.412 142.891 168.543 141.372 168.816C141.232 170.764 141.166 171.739 141.026 173.688C142.563 173.407 143.331 173.275 144.867 173.013C146.9 172.657 148.175 171.692 148.286 170.006C148.391 168.412 147.201 167.794 145.167 168.15ZM151.529 169.358C151.324 172.581 148.484 174.727 144.596 175.401C143.106 175.663 142.356 175.794 140.867 176.056C140.746 177.714 140.689 178.549 140.567 180.207C139.303 180.441 138.675 180.554 137.41 180.787C137.804 175.25 138.01 172.476 138.413 166.94C141.233 166.415 142.638 166.172 145.467 165.675C149.384 165.002 151.717 166.342 151.529 169.358ZM120.527 181.904C117.979 182.448 116.04 181.558 116.04 181.558C115.281 182.561 114.906 183.067 114.147 184.069C114.147 184.069 116.096 185.372 120.387 184.462C124.66 183.554 126.721 181.24 126.917 178.813C127.096 176.573 125.418 175.731 121.708 175.618C119.329 175.543 118.551 175.337 118.626 174.503C118.692 173.65 119.563 172.938 121.268 172.573C123.807 172.039 125.372 172.853 125.372 172.853C126.122 171.804 126.497 171.27 127.237 170.221C127.237 170.221 125.645 169.124 121.484 170.006C117.502 170.848 115.3 172.957 115.094 175.44C114.898 177.66 116.641 178.353 120.098 178.475C122.74 178.578 123.376 178.906 123.302 179.805C123.234 180.686 122.42 181.501 120.527 181.904ZM274.751 134.253C266.263 134.009 257.822 131.349 250.664 126.907C246.841 131.564 244.92 133.916 241.023 138.656C250.401 145.795 263.424 147.959 274.93 148.306C288.805 148.728 307.937 143.93 307.59 126.138C307.29 110.604 290.538 105.086 278.743 101.442C272.859 99.624 263.049 98.0122 262.441 91.7351C262.066 87.8848 266.853 84.4647 275.436 84.6705C282.941 84.8579 290.465 87.2192 296.591 91.5477C299.954 86.9755 301.622 84.7084 304.911 80.211C296.564 73.6062 285.742 72.022 275.671 71.4507C262.591 70.7103 245.418 76.8656 244.5 92.8215C243.685 107.025 260.465 112.15 271.295 114.876C277.094 116.347 288.516 118.792 288.806 126.353C288.974 130.908 284.748 134.543 274.751 134.253ZM227.606 73.7946C221.366 74.1509 218.247 74.366 212.007 74.8811C210.105 98.941 208.147 123.553 206.152 148.766C212.925 148.185 216.317 147.941 223.091 147.538C224.627 122.382 226.135 97.8074 227.606 73.7946ZM140.83 122.982C148.784 121.409 152.765 120.687 160.711 119.376C169.198 118.195 177.912 113.015 179.092 103.758C180.235 94.8194 171.335 91.7658 164.027 93.4421C156.354 94.6975 152.512 95.3815 144.849 96.8807C143.519 105.509 142.179 114.203 140.83 122.982ZM135.293 159.025C128.472 160.402 125.062 161.134 118.241 162.688C122.644 136.951 126.954 111.814 131.152 87.2674C142.872 84.6725 154.612 82.4331 166.37 80.5407C180.995 77.9735 197.448 83.5666 195.639 101.124C193.718 119.89 175.111 129.681 158.454 132.37C150.612 133.682 146.686 134.394 138.835 135.959C137.663 143.594 136.483 151.286 135.293 159.025ZM340.662 130.664L369.716 134.553L354.688 103.12L340.662 130.664ZM330.395 150.798C322.74 150.04 311.225 149.187 311.225 149.187L351.053 79.0876L356.88 79.5187L399.959 161.573L381.202 157.863L375.637 146.714L335.378 141.186C335.378 141.186 332.398 146.948 330.395 150.798ZM422.323 210.264C372.329 192.623 315.985 181.819 256.35 181.819C196.715 181.819 140.352 192.623 90.3586 210.273C140.352 195.17 196.716 188.125 256.35 188.125C315.984 188.125 372.329 195.17 422.323 210.264ZM284.879 462.723C284.879 462.301 284.795 461.917 284.644 461.552C284.484 461.186 284.279 460.868 283.998 460.605C283.726 460.325 283.407 460.118 283.052 459.959C282.686 459.8 282.293 459.725 281.88 459.725C281.449 459.725 281.065 459.8 280.709 459.959C280.343 460.119 280.025 460.325 279.754 460.605C279.473 460.868 279.266 461.186 279.107 461.552C278.957 461.917 278.873 462.301 278.873 462.723C278.873 463.145 278.957 463.538 279.107 463.895C279.267 464.26 279.473 464.579 279.754 464.85C280.025 465.121 280.343 465.337 280.709 465.496C281.065 465.636 281.449 465.721 281.88 465.721C282.293 465.721 282.686 465.637 283.052 465.496C283.408 465.336 283.727 465.121 283.998 464.85C284.279 464.579 284.485 464.26 284.644 463.895C284.795 463.537 284.879 463.144 284.879 462.723ZM278.667 473.806L282.621 467.716L282.574 467.669C282.405 467.762 282.171 467.838 281.89 467.875C281.599 467.922 281.318 467.95 281.047 467.95C280.316 467.95 279.651 467.809 279.042 467.528C278.433 467.256 277.918 466.872 277.477 466.394C277.037 465.916 276.69 465.354 276.447 464.717C276.213 464.089 276.091 463.414 276.091 462.703C276.091 461.85 276.241 461.072 276.531 460.379C276.831 459.686 277.234 459.086 277.749 458.599C278.273 458.121 278.891 457.737 279.613 457.475C280.334 457.213 281.112 457.082 281.946 457.082C282.789 457.082 283.585 457.204 284.307 457.466C285.028 457.719 285.647 458.084 286.163 458.562C286.678 459.049 287.081 459.639 287.362 460.332C287.662 461.025 287.802 461.813 287.802 462.674C287.802 463.545 287.662 464.332 287.362 465.035C287.081 465.738 286.706 466.46 286.265 467.181L282.059 473.805L278.667 473.806ZM261.55 465.58C261.55 466.095 261.588 466.686 261.663 467.36C261.728 468.035 261.868 468.672 262.084 469.271C262.31 469.871 262.628 470.386 263.04 470.808C263.462 471.23 264.015 471.435 264.717 471.435C265.41 471.435 265.963 471.23 266.385 470.808C266.797 470.386 267.116 469.871 267.341 469.271C267.557 468.671 267.697 468.034 267.763 467.36C267.837 466.685 267.875 466.095 267.875 465.58C267.875 465.074 267.837 464.474 267.763 463.8C267.697 463.135 267.557 462.498 267.341 461.89C267.116 461.29 266.797 460.774 266.385 460.353C265.963 459.94 265.41 459.725 264.717 459.725C264.015 459.725 263.462 459.94 263.04 460.353C262.628 460.774 262.31 461.29 262.084 461.89C261.868 462.499 261.728 463.136 261.663 463.8C261.588 464.474 261.55 465.074 261.55 465.58ZM258.768 465.58C258.768 464.278 258.871 463.173 259.086 462.245C259.292 461.326 259.564 460.549 259.911 459.921C260.247 459.303 260.622 458.797 261.053 458.413C261.484 458.038 261.906 457.748 262.356 457.56C262.796 457.364 263.218 457.242 263.63 457.176C264.042 457.12 264.398 457.083 264.716 457.083C265.016 457.083 265.381 457.121 265.793 457.176C266.196 457.242 266.627 457.364 267.067 457.56C267.517 457.748 267.939 458.038 268.361 458.413C268.801 458.797 269.176 459.303 269.522 459.921C269.859 460.549 270.14 461.326 270.337 462.245C270.552 463.173 270.655 464.278 270.655 465.58C270.655 466.883 270.552 467.998 270.337 468.915C270.14 469.834 269.859 470.611 269.522 471.229C269.176 471.857 268.801 472.363 268.361 472.747C267.939 473.122 267.518 473.413 267.067 473.609C266.627 473.806 266.196 473.928 265.793 473.984C265.381 474.05 265.016 474.087 264.716 474.087C264.398 474.087 264.041 474.05 263.63 473.984C263.217 473.928 262.796 473.806 262.356 473.609C261.906 473.413 261.484 473.122 261.053 472.747C260.622 472.363 260.247 471.857 259.911 471.229C259.564 470.611 259.292 469.834 259.086 468.915C258.87 467.998 258.768 466.883 258.768 465.58ZM250.41 462.723C250.41 462.301 250.335 461.917 250.175 461.552C250.016 461.186 249.81 460.868 249.538 460.605C249.267 460.325 248.948 460.118 248.592 459.959C248.217 459.8 247.833 459.725 247.412 459.725C246.99 459.725 246.596 459.8 246.24 459.959C245.875 460.119 245.556 460.325 245.285 460.605C245.004 460.868 244.797 461.186 244.648 461.552C244.498 461.917 244.404 462.301 244.404 462.723C244.404 463.145 244.498 463.538 244.648 463.895C244.797 464.26 245.004 464.579 245.285 464.85C245.556 465.121 245.876 465.337 246.24 465.496C246.596 465.636 246.99 465.721 247.412 465.721C247.833 465.721 248.217 465.637 248.592 465.496C248.949 465.336 249.267 465.121 249.538 464.85C249.81 464.579 250.017 464.26 250.175 463.895C250.335 463.537 250.41 463.144 250.41 462.723ZM244.209 473.806L248.153 467.716L248.106 467.669C247.937 467.762 247.713 467.838 247.422 467.875C247.131 467.922 246.85 467.95 246.579 467.95C245.848 467.95 245.183 467.809 244.583 467.528C243.974 467.256 243.45 466.872 243.019 466.394C242.569 465.916 242.232 465.354 241.988 464.717C241.745 464.089 241.632 463.414 241.632 462.703C241.632 461.85 241.782 461.072 242.072 460.379C242.363 459.686 242.766 459.086 243.29 458.599C243.805 458.121 244.424 457.737 245.155 457.475C245.867 457.213 246.645 457.082 247.478 457.082C248.331 457.082 249.118 457.204 249.839 457.466C250.552 457.719 251.179 458.084 251.695 458.562C252.219 459.049 252.623 459.639 252.904 460.332C253.194 461.025 253.335 461.813 253.335 462.674C253.335 463.545 253.195 464.332 252.904 465.035C252.623 465.738 252.248 466.46 251.798 467.181L247.601 473.805L244.209 473.806ZM229.602 460.568L226.511 463.415L224.881 461.494L229.855 457.362H232.385V473.805H229.603V460.568H229.602Z" fill="white"/>
<path d="M303.955 325.532C303.955 365.359 271.66 397.655 231.841 397.655C192.013 397.655 159.727 365.36 159.727 325.532C159.727 285.713 192.013 253.418 231.841 253.418C271.659 253.417 303.955 285.713 303.955 325.532Z" fill="#E30613"/>
<path d="M231.841 247.656C188.893 247.656 153.955 282.593 153.955 325.532C153.955 368.479 188.892 403.417 231.841 403.417C274.779 403.417 309.716 368.48 309.716 325.532C309.716 282.593 274.779 247.656 231.841 247.656ZM231.841 253.418C271.659 253.418 303.954 285.712 303.954 325.531C303.954 365.358 271.659 397.654 231.841 397.654C192.013 397.654 159.726 365.359 159.726 325.531C159.727 285.713 192.013 253.418 231.841 253.418Z" fill="black"/>
<path d="M276.7 315.496C252.884 322.701 235.045 323.713 235.045 323.713C235.045 323.713 236.047 305.884 243.261 282.068C235.766 279.126 231.841 275.05 231.841 275.05C231.841 275.05 227.952 279.126 220.42 282.068C227.625 305.884 228.636 323.713 228.636 323.713C228.636 323.713 210.807 322.701 187.001 315.496C184.077 323.029 179.992 326.908 179.992 326.908C179.992 326.908 184.077 330.824 187.001 338.347C210.808 331.124 228.636 330.121 228.636 330.121C228.636 330.121 227.625 347.96 220.42 371.776C227.952 374.728 231.841 378.803 231.841 378.803C231.841 378.803 235.766 374.728 243.261 371.776C236.047 347.96 235.045 330.121 235.045 330.121C235.045 330.121 252.884 331.124 276.7 338.347C279.622 330.824 283.698 326.908 283.698 326.908C283.698 326.908 279.622 323.029 276.7 315.496ZM276.437 312.938C279.548 312.938 282.077 310.4 282.077 307.289C282.077 304.16 279.547 301.63 276.437 301.63C273.327 301.63 270.787 304.16 270.787 307.289C270.787 310.4 273.327 312.938 276.437 312.938ZM276.437 340.905C273.326 340.905 270.787 343.444 270.787 346.573C270.787 349.684 273.326 352.185 276.437 352.185C279.548 352.185 282.077 349.684 282.077 346.573C282.078 343.444 279.548 340.905 276.437 340.905ZM291.793 321.277C288.682 321.277 286.152 323.806 286.152 326.908C286.152 330.046 288.682 332.566 291.793 332.566C294.893 332.566 297.433 330.046 297.433 326.908C297.433 323.806 294.894 321.277 291.793 321.277ZM187.263 340.905C184.133 340.905 181.623 343.444 181.623 346.573C181.623 349.684 184.133 352.185 187.263 352.185C190.383 352.185 192.921 349.684 192.921 346.573C192.921 343.444 190.383 340.905 187.263 340.905ZM187.263 312.938C190.383 312.938 192.921 310.4 192.921 307.289C192.921 304.16 190.383 301.63 187.263 301.63C184.133 301.63 181.623 304.16 181.623 307.289C181.623 310.4 184.133 312.938 187.263 312.938ZM171.878 321.277C168.787 321.277 166.229 323.806 166.229 326.908C166.229 330.046 168.787 332.566 171.878 332.566C175.035 332.566 177.556 330.046 177.556 326.908C177.556 323.806 175.036 321.277 171.878 321.277ZM251.469 365.855C248.367 365.855 245.828 368.403 245.828 371.522C245.828 374.623 248.367 377.153 251.469 377.153C254.598 377.153 257.146 374.624 257.146 371.522C257.147 368.403 254.598 365.855 251.469 365.855ZM212.203 365.855C209.103 365.855 206.572 368.403 206.572 371.522C206.572 374.623 209.103 377.153 212.203 377.153C215.342 377.153 217.862 374.624 217.862 371.522C217.862 368.403 215.342 365.855 212.203 365.855ZM231.841 381.239C228.73 381.239 226.191 383.759 226.191 386.879C226.191 389.99 228.73 392.529 231.841 392.529C234.951 392.529 237.49 389.99 237.49 386.879C237.49 383.759 234.951 381.239 231.841 381.239ZM212.203 287.97C215.342 287.97 217.862 285.45 217.862 282.33C217.862 279.219 215.342 276.69 212.203 276.69C209.103 276.69 206.572 279.219 206.572 282.33C206.572 285.45 209.102 287.97 212.203 287.97ZM251.469 287.97C254.598 287.97 257.146 285.45 257.146 282.33C257.146 279.219 254.597 276.69 251.469 276.69C248.367 276.69 245.828 279.219 245.828 282.33C245.828 285.45 248.368 287.97 251.469 287.97ZM226.191 266.974C226.191 263.863 228.73 261.325 231.841 261.325C234.951 261.325 237.49 263.863 237.49 266.974C237.49 270.085 234.951 272.642 231.841 272.642C228.73 272.642 226.191 270.084 226.191 266.974Z" fill="white"/>
<path d="M268.446 275.618H262.9L267.527 280.237L262.9 303.351H346.134L351.69 275.618H268.446Z" fill="white"/>
<path d="M358.725 269.856H351.69H268.446H262.909H248.986L258.833 279.693L261.269 282.139L257.259 302.216L255.882 309.121H262.909H346.144H350.865L351.793 304.483L357.34 276.751L358.725 269.856ZM351.69 275.618L346.143 303.35H262.908L267.527 280.236L262.908 275.617H268.444L351.69 275.618Z" fill="black"/>
<path d="M248.499 375.475L242.952 375.457L247.581 380.084L242.962 403.198H326.168L331.715 375.457L248.499 375.475Z" fill="white"/>
<path d="M228.983 369.661L238.877 379.536L241.322 381.982L237.303 402.069L235.925 408.964H242.961H326.168H330.89L331.818 404.326L337.365 376.595L338.751 369.69L331.715 369.699L248.499 369.708L242.972 369.699L228.983 369.661ZM331.715 375.46L326.168 403.192H242.961L247.581 380.078L242.952 375.459L248.499 375.477L331.715 375.46Z" fill="black"/>
<path d="M331.715 270.071L337.261 242.338H297.274H292.871H291.728L296.346 246.957L291.728 270.071H331.715Z" fill="white"/>
<path d="M344.297 236.575H337.261H297.274H292.871H291.718H277.796L287.642 246.412L290.079 248.848L286.069 268.945L285.179 273.086H292.205H332.193H336.924L337.365 271.203L342.912 243.471L344.297 236.575ZM337.261 242.336L331.714 270.068H291.718L296.337 246.954L291.718 242.335H292.871H297.274H337.261V242.336Z" fill="black"/>
<path d="M255.151 342.179H249.605L254.223 346.797L249.605 369.911H332.82L338.377 342.179H255.16H255.151Z" fill="white"/>
<path d="M345.403 336.417H338.367H255.151H249.604H235.682L245.528 346.254L247.965 348.69L243.945 368.787L242.568 375.683H249.604H332.82H337.542L338.47 371.045L344.017 343.313L345.403 336.417ZM338.367 342.179L332.82 369.911H249.604L254.223 346.797L249.604 342.178H255.141H255.15H338.367V342.179Z" fill="black"/>
<path d="M261.794 308.898H256.248L260.875 313.517L256.248 336.63H339.482L345.028 308.898H261.794Z" fill="white"/>
<path d="M352.064 303.136H345.028H261.803H256.257H242.335L252.181 312.973L254.617 315.419L250.607 335.505L249.221 342.401H256.257H339.483H344.214L345.142 337.763L350.688 310.031L352.064 303.136ZM345.028 308.898L339.481 336.63H256.257L260.876 313.516L256.257 308.897H261.794H261.803L345.028 308.898Z" fill="black"/>
</g>
<defs>
<clipPath id="clip0_2_1033">
<rect width="402.682" height="512" fill="white" transform="translate(55)"/>
</clipPath>
</defs>
</svg>
