<svg width="512" height="512" viewBox="0 0 512 512" fill="none" xmlns="http://www.w3.org/2000/svg">
<g clip-path="url(#clip0_2_1035)">
<path d="M249.933 508.587C202.573 480.213 162.573 443.733 131.107 400.213C102.093 360.107 81.5066 315.627 69.88 268.053L68.8133 263.893L65.08 245.867C56.76 200.533 56.9733 154.24 65.4 108.373L66.7866 101.013L74.04 99.52C74.5733 99.4133 122.68 89.28 165.56 65.28C226.573 30.9333 247.16 9.28 247.373 9.06667L255.587 0L263.693 8.96C263.907 9.17333 284.387 30.8267 345.507 65.1733C388.387 89.1733 436.493 99.3067 436.92 99.4133L444.173 100.907L445.56 108.267C454.093 154.133 454.2 200.32 445.88 245.76L444.707 252.267L441.08 268.053C429.453 315.627 408.867 360.107 379.853 400.213C348.387 443.733 308.493 480.213 261.133 508.587L255.587 512L249.933 508.587Z" fill="black"/>
<path d="M436.28 108.48C436.28 108.48 386.04 98.1333 340.92 72.8533C275.96 36.5867 255.587 14.2933 255.587 14.2933C255.587 14.2933 235.213 36.5867 170.36 72.8533C125.24 98.0267 74.9999 108.48 74.9999 108.48C65.7199 158.187 66.7866 208.107 77.3466 255.573H434.04C444.387 208 445.453 158.187 436.28 108.48Z" fill="#FFB300"/>
<path d="M255.587 502.293C349.453 446.187 411.32 358.507 432.867 260.693H78.2C99.8533 358.507 161.613 446.187 255.587 502.293Z" fill="#8E001C"/>
<path d="M128.227 323.52C128.227 311.467 128.227 309.227 128.12 306.667C128.013 304 127.373 302.72 124.707 302.08C124.067 301.973 122.68 301.867 121.613 301.867C120.76 301.867 120.227 301.653 120.227 301.12C120.227 300.587 120.76 300.373 121.933 300.373C126.2 300.373 131.107 300.587 132.813 300.587C135.48 300.587 141.56 300.373 144.013 300.373C149.027 300.373 154.36 300.8 158.627 303.787C160.867 305.28 164.067 309.333 164.067 314.667C164.067 320.533 161.613 325.973 153.613 332.48C160.653 341.333 166.2 348.48 170.893 353.387C175.373 357.973 178.573 358.507 179.853 358.827C180.707 359.04 181.453 359.04 182.093 359.04C182.733 359.04 183.053 359.253 183.053 359.68C183.053 360.32 182.52 360.427 181.56 360.427H173.987C169.507 360.427 167.587 360 165.453 358.933C162.04 357.12 159.053 353.387 154.573 347.2C151.373 342.827 147.747 337.387 146.68 336.213C146.253 335.787 145.827 335.68 145.293 335.68L138.36 335.467C137.933 335.467 137.72 335.68 137.72 336.107V337.173C137.72 344.533 137.72 350.827 138.147 354.133C138.36 356.48 138.893 358.187 141.24 358.507C142.413 358.613 144.227 358.827 145.187 358.827C145.827 358.827 146.147 359.04 146.147 359.467C146.147 360 145.613 360.213 144.547 360.213C139.96 360.213 134.093 360 132.813 360C131.32 360 126.307 360.213 123.107 360.213C122.04 360.213 121.507 360 121.507 359.467C121.507 359.04 121.827 358.827 122.787 358.827C123.96 358.827 124.92 358.613 125.667 358.507C127.267 358.187 127.693 356.48 128.013 354.133C128.44 350.827 128.44 344.533 128.44 337.173V323.52H128.227ZM137.613 329.813C137.613 330.667 137.827 330.987 138.36 331.2C140.067 331.733 142.413 331.947 144.44 331.947C147.64 331.947 148.6 331.627 150.093 330.56C152.44 328.853 154.787 325.12 154.787 318.613C154.787 307.307 147.32 304.107 142.627 304.107C140.6 304.107 139.213 304.213 138.467 304.427C137.933 304.64 137.72 304.853 137.72 305.493V329.813H137.613ZM179.533 330.453C179.533 316.907 188.493 299.307 212.387 299.307C232.227 299.307 244.493 310.827 244.493 329.067C244.493 347.307 231.8 361.707 211.64 361.707C188.813 361.6 179.533 344.533 179.533 330.453ZM233.4 331.947C233.4 314.133 223.16 303.147 210.147 303.147C200.973 303.147 190.627 308.267 190.627 328C190.627 344.533 199.8 357.653 215.053 357.653C220.493 357.653 233.4 354.987 233.4 331.947ZM256.867 301.44C257.08 300.053 257.613 299.413 258.253 299.413C258.893 299.413 259.32 299.84 260.387 301.867L282.04 346.027L303.693 301.333C304.333 300.053 304.76 299.413 305.4 299.413C306.147 299.413 306.573 300.16 306.787 301.867L314.04 350.507C314.787 355.52 315.533 357.867 317.987 358.507C320.333 359.253 321.933 359.253 322.893 359.253C323.64 359.253 324.173 359.36 324.173 359.787C324.173 360.427 323.213 360.64 322.147 360.64C320.12 360.64 309.24 360.427 306.04 360.213C304.227 360 303.693 359.787 303.693 359.36C303.693 358.933 304.013 358.72 304.547 358.507C304.973 358.293 305.293 357.333 304.973 355.093L300.173 320.533H299.853L282.573 355.947C280.76 359.68 280.333 360.427 279.587 360.427C278.84 360.427 278.093 358.827 276.813 356.48C274.893 352.853 268.6 340.693 267.64 338.453C266.893 336.747 262.2 327.36 259.427 321.493H259.107L254.947 352.533C254.733 353.92 254.733 354.987 254.733 356.267C254.733 357.76 255.8 358.507 257.08 358.827C258.467 359.147 259.64 359.253 260.387 359.253C261.027 359.253 261.56 359.467 261.56 359.787C261.56 360.533 260.813 360.64 259.64 360.64C256.333 360.64 252.707 360.427 251.32 360.427C249.827 360.427 245.987 360.64 243.427 360.64C242.68 360.64 242.04 360.533 242.04 359.787C242.04 359.36 242.467 359.253 243.32 359.253C243.96 359.253 244.493 359.253 245.667 359.04C247.907 358.613 248.547 355.413 248.973 352.747L256.867 301.44Z" fill="#1D1D1B"/>
<path d="M344.013 340.267C343.587 340.267 343.48 340.48 343.267 340.907L339 351.787C338.147 353.813 337.827 355.733 337.827 356.587C337.827 357.973 338.573 359.04 341.027 359.04H342.2C343.16 359.04 343.373 359.147 343.373 359.68C343.373 360.32 342.947 360.427 341.987 360.427C339.427 360.427 336.013 360.213 333.56 360.213C332.707 360.213 328.333 360.427 324.173 360.427C323.107 360.427 322.68 360.213 322.68 359.68C322.68 359.253 323 359.04 323.64 359.04C324.387 359.04 325.453 358.933 326.093 358.827C329.72 358.4 331.213 355.627 332.813 351.68L352.76 302.4C353.72 300.053 354.147 299.2 355 299.2C355.747 299.2 356.173 299.947 357.027 301.76C358.947 306.133 371.64 337.92 376.76 349.973C379.747 357.12 382.093 358.187 383.8 358.613C384.973 358.827 386.147 358.933 387.107 358.933C387.747 358.933 388.173 359.04 388.173 359.573C388.173 360.213 387.427 360.32 384.547 360.32C381.667 360.32 375.907 360.32 369.507 360.107C368.12 360 367.16 360 367.16 359.467C367.16 359.04 367.48 358.827 368.227 358.72C368.76 358.507 369.293 357.867 368.973 356.907L362.573 340.48C362.467 340.053 362.147 339.947 361.827 339.947H344.013V340.267ZM360.227 336.32C360.653 336.32 360.653 336.107 360.653 335.893L353.507 316.373C353.4 316.053 353.293 315.627 353.08 315.627C352.867 315.627 352.653 316.053 352.653 316.373L345.293 335.893C345.187 336.213 345.293 336.427 345.613 336.427H360.227V336.32Z" fill="#1D1D1B"/>
<path d="M130.36 321.707C130.36 309.653 130.36 307.413 130.253 304.853C130.147 302.187 129.507 300.907 126.84 300.267C126.2 300.16 124.813 300.053 123.747 300.053C122.893 300.053 122.36 299.947 122.36 299.307C122.36 298.773 122.893 298.56 124.067 298.56C128.227 298.56 133.24 298.773 134.947 298.773C137.613 298.773 143.693 298.56 146.147 298.56C151.16 298.56 156.493 298.987 160.76 301.973C163 303.467 166.2 307.52 166.2 312.853C166.2 318.72 163.747 324.16 155.747 330.667C162.787 339.52 168.333 346.667 173.027 351.573C177.507 356.16 180.707 356.693 181.987 357.013C182.84 357.227 183.587 357.227 184.227 357.227C184.867 357.227 185.187 357.44 185.187 357.867C185.187 358.507 184.653 358.613 183.693 358.613H176.12C171.64 358.613 169.72 358.187 167.587 357.12C164.173 355.307 161.187 351.573 156.707 345.387C153.507 341.013 149.88 335.573 148.813 334.4C148.387 333.973 147.96 333.867 147.427 333.867H140.387C139.96 333.867 139.747 333.973 139.747 334.507V335.573C139.747 342.933 139.747 349.227 140.173 352.64C140.387 354.987 140.92 356.693 143.267 357.013C144.44 357.227 146.253 357.333 147.213 357.333C147.853 357.333 148.173 357.547 148.173 357.973C148.173 358.507 147.64 358.72 146.573 358.72C141.987 358.72 136.12 358.507 134.84 358.507C133.347 358.507 128.333 358.72 125.133 358.72C124.067 358.72 123.533 358.507 123.533 357.973C123.533 357.547 123.853 357.333 124.813 357.333C125.987 357.333 126.947 357.12 127.693 357.013C129.293 356.693 129.72 354.987 130.04 352.64C130.467 349.333 130.467 343.04 130.467 335.68L130.36 321.707ZM139.747 328C139.747 328.853 139.853 329.173 140.493 329.387C142.2 329.92 144.547 330.133 146.573 330.133C149.773 330.133 150.733 329.813 152.227 328.747C154.573 327.04 156.92 323.307 156.92 316.8C156.92 305.493 149.453 302.293 144.76 302.293C142.733 302.293 141.347 302.4 140.6 302.613C140.067 302.827 139.853 303.04 139.853 303.787V328H139.747ZM181.667 328.747C181.667 315.2 190.627 297.6 214.52 297.6C234.36 297.6 246.627 309.12 246.627 327.36C246.627 345.6 233.933 360 213.667 360C190.84 359.893 181.667 342.72 181.667 328.747ZM235.427 330.24C235.427 312.427 225.187 301.44 212.173 301.44C203 301.44 192.653 306.56 192.653 326.293C192.653 342.827 201.827 355.947 217.08 355.947C222.627 355.84 235.427 353.173 235.427 330.24ZM259 299.627C259.213 298.24 259.747 297.6 260.387 297.6C261.027 297.6 261.453 298.027 262.52 300.053L284.173 344.213L305.827 299.413C306.467 298.133 306.893 297.493 307.533 297.493C308.28 297.493 308.707 298.24 308.92 299.947L316.173 348.587C316.92 353.6 317.667 355.947 320.12 356.587C322.467 357.333 324.067 357.333 325.027 357.333C325.773 357.333 326.307 357.44 326.307 357.867C326.307 358.507 325.347 358.72 324.28 358.72C322.253 358.72 311.373 358.613 308.173 358.293C306.36 358.187 305.827 357.867 305.827 357.44C305.827 357.013 306.147 356.8 306.68 356.587C307.107 356.373 307.427 355.413 307.107 353.173L302.307 318.613H301.987L284.707 354.027C282.893 357.76 282.467 358.507 281.72 358.507C280.973 358.507 280.227 356.907 278.947 354.56C277.027 350.933 270.733 338.773 269.773 336.533C269.027 334.827 264.333 325.44 261.56 319.467H261.24L257.08 350.507C256.867 351.893 256.867 352.96 256.867 354.24C256.867 355.733 257.933 356.48 259.213 356.8C260.6 357.12 261.773 357.227 262.52 357.227C263.16 357.227 263.693 357.333 263.693 357.76C263.693 358.507 262.947 358.613 261.773 358.613C258.467 358.613 254.84 358.4 253.453 358.4C251.96 358.4 248.12 358.613 245.56 358.613C244.813 358.613 244.173 358.4 244.173 357.76C244.173 357.333 244.6 357.227 245.453 357.227C246.093 357.227 246.627 357.227 247.8 357.013C250.04 356.587 250.68 353.387 251.107 350.72L259 299.627Z" fill="#FFB300"/>
<path d="M346.147 338.453C345.72 338.453 345.613 338.56 345.4 339.093L341.133 349.973C340.387 352 339.96 353.92 339.96 354.773C339.96 356.16 340.707 357.227 343.16 357.227H344.333C345.293 357.227 345.507 357.333 345.507 357.867C345.507 358.507 345.08 358.613 344.12 358.613C341.56 358.613 338.147 358.4 335.693 358.4C334.84 358.4 330.467 358.613 326.307 358.613C325.24 358.613 324.813 358.4 324.813 357.867C324.813 357.44 325.133 357.227 325.773 357.227C326.52 357.227 327.587 357.12 328.227 357.013C331.853 356.587 333.347 353.813 334.947 349.867L354.893 300.587C355.853 298.24 356.28 297.387 357.133 297.387C357.88 297.387 358.307 298.133 359.16 299.947C361.08 304.32 373.773 336.107 378.893 348.16C381.88 355.307 384.227 356.48 385.933 356.8C387.107 357.013 388.28 357.12 389.24 357.12C389.88 357.12 390.307 357.227 390.307 357.76C390.307 358.4 389.56 358.507 386.68 358.507C383.8 358.507 378.04 358.507 371.64 358.293C370.253 358.187 369.293 358.187 369.293 357.653C369.293 357.227 369.613 357.013 370.36 356.907C370.893 356.693 371.427 356.053 371.107 355.093L364.707 338.667C364.6 338.24 364.28 338.133 363.96 338.133H346.147V338.453ZM362.36 334.507C362.787 334.507 362.787 334.293 362.787 334.08L355.64 314.56C355.533 314.24 355.427 313.813 355.213 313.813C355 313.813 354.787 314.24 354.787 314.56L347.427 334.08C347.32 334.4 347.427 334.613 347.747 334.613H362.36V334.507Z" fill="#FFB300"/>
<path d="M227.32 406.72C227.32 410.347 229.88 415.147 236.173 415.147C238.413 415.147 240.653 414.507 241.827 413.12C241.933 413.013 242.04 412.8 242.04 412.693C242.04 412.48 241.827 412.267 241.72 412.267C241.507 412.267 241.293 412.48 240.867 412.8C240.333 413.013 239.48 413.333 237.987 413.333C236.493 413.333 232.227 411.733 232.227 405.12C232.227 401.387 234.253 398.613 237.453 398.613C240.76 398.613 244.067 402.027 244.067 409.707C244.067 420.053 237.347 427.2 232.867 429.867C232.653 430.08 232.333 430.293 232.333 430.613C232.333 430.827 232.547 431.04 232.76 431.04C233.08 431.04 233.293 431.04 233.507 430.827C238.84 428.267 249.4 420.587 249.4 408.427C249.4 401.813 245.56 396.587 238.52 396.587C231.693 396.587 227.32 400.853 227.32 406.72ZM204.067 404.48C204.067 404.693 204.28 404.907 204.387 404.907C204.6 404.907 204.813 404.8 205.027 404.693C205.987 404.267 209.187 402.56 210.04 402.56C210.68 402.56 210.68 403.093 210.68 404.16V416.853C210.68 421.013 210.68 424.747 210.467 426.667C210.36 428.053 210.147 428.693 208.76 429.013C208.013 429.227 205.773 429.333 205.347 429.333C205.133 429.333 205.027 429.44 205.027 429.76C205.027 430.08 205.24 430.187 205.773 430.187C208.547 430.187 212.173 430.08 213.133 430.08C214.307 430.08 217.08 430.187 220.387 430.187C220.813 430.187 221.027 430.08 221.027 429.76C221.027 429.44 220.813 429.333 220.6 429.333C220.28 429.333 218.36 429.227 217.72 429.12C216.333 428.8 216.12 428.16 216.013 426.773C215.8 424.853 215.8 421.12 215.8 416.96V408.853C215.8 402.133 216.013 397.867 216.013 397.547C216.013 397.12 215.907 396.587 215.48 396.587C215.16 396.587 214.733 396.907 214.307 397.12C212.813 398.293 204.493 403.733 204.28 403.84C204.28 403.947 204.067 404.16 204.067 404.48ZM253.027 429.44C253.027 429.76 253.347 430.08 253.667 430.08H270.627C273.4 430.08 274.04 429.973 274.36 428.8C274.787 427.307 275.64 423.253 275.64 422.613C275.64 422.187 275.64 421.76 275.32 421.76C275.107 421.76 274.893 421.973 274.787 422.507C274.253 424.533 272.867 426.027 269.88 426.347C268.28 426.56 263.16 426.56 262.413 426.56H259.427C259.213 426.56 259.107 426.453 259.32 426.24C264.867 421.76 274.147 414.4 274.147 405.867C274.147 400.747 270.947 396.587 263.267 396.587C259.427 396.587 257.187 397.333 255.48 398.293C255.053 398.613 254.947 398.827 254.947 399.147C254.947 400.427 255.16 404.053 255.16 404.373C255.16 404.907 255.373 405.227 255.587 405.227C256.013 405.227 256.12 404.8 256.12 404.373C256.12 403.2 256.867 401.173 257.933 400.213C259.213 399.04 260.707 398.613 262.52 398.613C264.653 398.613 268.387 400 268.387 406.933C268.387 416.107 259.747 422.933 253.773 428.267C253.56 428.693 253.027 429.013 253.027 429.44ZM280.333 404.693C280.333 405.12 280.333 405.333 280.653 405.333C280.867 405.333 281.08 405.12 281.08 404.8C281.187 404.053 281.72 402.667 282.467 402.133C283.533 401.387 285.347 401.387 286.52 401.387H297.72C291.747 411.413 286.2 424.32 285.027 428.48C284.813 429.227 284.707 429.867 284.707 430.293C284.707 430.72 284.813 430.827 285.347 430.827C287.267 430.827 290.787 429.013 290.787 428.16C290.787 427.627 290.68 427.307 290.787 426.56C291.427 421.013 298.147 403.627 301.773 398.507C301.88 398.293 302.093 397.973 302.093 397.76C302.093 397.547 301.88 397.44 301.027 397.44H287.267C282.68 397.44 281.72 397.013 281.4 397.013C281.187 397.013 280.973 397.227 280.973 397.653C280.973 398.08 280.333 402.987 280.333 404.693Z" fill="black"/>
<path d="M228.6 405.44C228.6 409.067 231.16 413.867 237.453 413.867C239.693 413.867 241.933 413.227 243.107 411.84C243.213 411.733 243.32 411.52 243.32 411.413C243.32 411.2 243.107 410.987 243 410.987C242.787 410.987 242.573 411.2 242.147 411.52C241.613 411.733 240.76 412.053 239.267 412.053C237.773 412.053 233.507 410.453 233.507 403.84C233.507 400.107 235.533 397.333 238.733 397.333C242.04 397.333 245.24 400.747 245.24 408.427C245.24 418.773 238.52 425.92 234.04 428.587C233.827 428.8 233.507 429.013 233.507 429.333C233.507 429.547 233.72 429.76 233.933 429.76C234.253 429.76 234.467 429.76 234.68 429.547C240.013 426.987 250.573 419.307 250.573 407.147C250.573 400.533 246.733 395.307 239.693 395.307C233.08 395.307 228.6 399.573 228.6 405.44ZM205.347 403.2C205.347 403.413 205.56 403.627 205.667 403.627C205.88 403.627 206.093 403.52 206.307 403.413C207.267 402.987 210.467 401.28 211.32 401.28C211.96 401.28 211.96 401.813 211.96 402.88V415.573C211.96 419.733 211.96 423.467 211.747 425.387C211.64 426.773 211.427 427.413 210.04 427.733C209.293 427.947 207.053 428.053 206.627 428.053C206.413 428.053 206.307 428.16 206.307 428.48C206.307 428.8 206.52 428.907 207.053 428.907C209.827 428.907 213.453 428.8 214.413 428.8C215.587 428.8 218.36 428.907 221.667 428.907C222.093 428.907 222.307 428.8 222.307 428.48C222.307 428.16 222.093 428.053 221.88 428.053C221.56 428.053 219.64 427.947 219 427.84C217.613 427.52 217.4 426.88 217.293 425.493C217.08 423.573 217.08 419.84 217.08 415.68V407.573C217.08 400.853 217.293 396.587 217.293 396.267C217.293 395.84 217.187 395.307 216.76 395.307C216.44 395.307 216.013 395.627 215.587 395.84C214.093 397.013 205.773 402.453 205.56 402.56C205.56 402.773 205.347 402.987 205.347 403.2ZM254.413 428.16C254.413 428.48 254.733 428.8 255.053 428.8H272.013C274.787 428.8 275.427 428.693 275.747 427.52C276.173 426.027 277.027 421.973 277.027 421.333C277.027 420.907 277.027 420.48 276.707 420.48C276.493 420.48 276.28 420.693 276.173 421.227C275.64 423.253 274.253 424.747 271.267 425.067C269.667 425.28 264.547 425.387 263.8 425.387H260.813C260.6 425.387 260.493 425.28 260.707 425.067C266.253 420.587 275.533 413.227 275.533 404.693C275.533 399.573 272.333 395.413 264.653 395.413C260.813 395.413 258.573 396.16 256.867 397.12C256.44 397.44 256.333 397.547 256.333 397.973C256.333 399.253 256.547 402.88 256.547 403.2C256.547 403.733 256.76 404.053 256.973 404.053C257.4 404.053 257.507 403.627 257.507 403.2C257.507 402.027 258.253 400 259.32 399.04C260.6 397.867 262.093 397.44 263.907 397.44C266.04 397.44 269.773 398.827 269.773 405.76C269.773 414.933 261.133 421.76 255.16 427.093C254.84 427.413 254.413 427.84 254.413 428.16ZM281.72 403.413C281.72 403.84 281.72 404.053 282.04 404.053C282.253 404.053 282.467 403.84 282.467 403.52C282.573 402.773 283.107 401.387 283.853 400.853C284.92 400.107 286.733 400.107 287.907 400.107H299.107C293.133 410.133 287.587 423.04 286.413 427.2C286.2 427.947 286.093 428.587 286.093 429.013C286.093 429.44 286.2 429.547 286.733 429.547C288.653 429.547 292.173 427.733 292.173 426.88C292.173 426.347 292.067 426.027 292.173 425.28C292.813 419.733 299.533 402.347 303.16 397.227C303.267 397.013 303.48 396.693 303.48 396.48C303.48 396.267 303.267 396.16 302.413 396.16H288.653C284.067 396.16 283.107 395.733 282.787 395.733C282.573 395.733 282.36 395.947 282.36 396.373C282.36 396.8 281.72 401.813 281.72 403.413Z" fill="#BDBBBB"/>
<path d="M401.613 225.387C400.653 224.107 399.48 222.827 398.413 221.44C393.293 215.253 381.88 199.893 381.88 199.893C381.88 150.293 372.92 141.013 363.853 133.227C355.747 126.4 342.947 122.88 329.187 120.747C325.453 120.213 321.293 119.893 316.6 119.893C312.013 119.893 307.427 120.107 302.84 120.427C299.107 120.64 234.467 123.307 213.667 119.893C204.6 118.4 192.12 120.107 184.653 121.067C181.24 121.493 162.573 124.48 160.333 120.853C159.907 120.213 160.013 118.72 160.12 117.12C160.333 114.453 161.507 111.36 159.373 108.48C156.6 104.533 153.507 100.373 151.8 100.373C151.267 100.373 146.68 104.213 145.507 105.28C143.587 107.2 143.053 110.293 143.16 113.92C143.267 116.16 143.053 115.733 142.947 115.84C142.627 116.16 130.787 116.16 127.693 116.373C127.693 115.733 127.587 112.64 125.56 109.76C124.28 107.84 123.213 101.547 123.213 101.547C123.213 101.547 118.947 109.013 117.453 111.04C115.853 113.28 114.147 115.52 113.187 118.187C112.76 119.147 112.76 120.427 112.653 121.6C112.547 122.453 112.44 124.16 112.12 124.48C109.88 126.187 108.6 128.427 108.387 131.307C108.28 132.16 108.493 133.227 108.813 134.613C109.027 135.467 109.24 136.747 109.24 137.387C109.027 137.493 108.813 137.707 108.6 137.813C106.573 139.093 103.8 140.907 104.013 144.107C104.333 148.907 105.4 150.827 106.893 153.493C107.32 154.24 107.747 154.987 108.28 155.84C108.92 157.12 109.24 159.04 109.56 160.747C109.987 163.307 107.64 166.08 109.24 167.573C111.373 169.6 116.813 169.813 119.16 169.813C119.8 169.813 122.253 169.707 122.893 169.707C123.853 169.707 124.493 169.707 125.133 169.813C129.72 170.667 134.2 171.093 138.68 171.413C144.76 171.947 150.52 172.373 156.28 174.08C166.947 177.173 177.4 181.547 188.387 187.413C189.027 187.733 189.56 188.053 190.093 188.267C194.147 190.293 195 190.08 196.92 195.627C198.84 201.173 195.32 244.8 194.573 249.28C193.4 256.533 191.053 260.907 187.32 262.293C182.307 264.107 180.173 268.053 178.147 271.893C177.507 273.173 177.613 274.667 176.867 275.84C176.867 275.84 175.267 277.653 175.8 278.08C176.333 278.507 181.453 277.333 181.453 277.333C183.16 277.44 181.347 278.4 183.053 278.4C187.32 278.4 192.547 278.4 197.88 275.307C200.12 275.307 198.627 278.187 200.653 277.76C207.053 276.587 207.587 271.68 208.333 267.093C209.613 259.2 209.4 257.813 210.36 257.173C211.213 256.427 214.093 257.6 214.84 256.747C215.373 256.107 214.733 250.347 215.053 245.227C215.48 237.867 217.613 229.227 219.747 222.08L219.853 221.76C220.28 220.16 221.027 218.24 221.88 216.213C223.907 210.773 226.467 204.16 226.147 198.827C228.387 199.253 228.813 199.36 230.093 201.173C230.307 201.493 230.627 202.027 231.053 202.667C233.507 206.72 234.893 207.893 236.493 207.893C236.707 207.893 236.813 207.893 237.027 207.787C239.693 207.04 241.187 204.8 242.68 201.813C244.173 198.827 245.773 195.84 248.227 195.2H248.547C250.573 195.2 254.2 197.013 256.333 200.213C260.92 207.253 264.76 202.347 265.187 201.707C265.72 200.853 269.347 194.88 270.307 193.493C271.373 191.787 272.12 191.68 272.333 191.68H272.44C274.68 192 284.28 203.627 287.693 202.88C291 202.56 294.733 189.76 296.76 189.76C296.867 189.76 296.973 189.76 297.08 189.867C297.613 190.293 298.68 192 299.427 193.173C301.987 197.013 302.52 199.68 304.653 199.68C305.293 199.68 306.467 199.147 307.107 197.44C307.32 197.013 308.067 195.093 308.173 194.88C308.28 194.987 309.987 200.747 314.147 195.733C314.147 195.627 314.04 195.52 314.04 195.52C314.04 195.52 313.933 195.52 313.933 195.413L314.04 195.52C314.573 194.24 322.36 201.813 325.987 204.8C329.4 207.893 332.173 210.56 332.387 210.773C340.387 217.92 350.2 226.667 352.227 236.373C353.293 241.92 353.08 248.213 351.48 254.293C351.16 255.573 350.84 256.32 350.52 256.533C350.2 256.747 349.347 256.747 348.173 256.853H346.467C343.8 257.067 341.88 259.947 340.28 262.507C339.533 263.68 338.573 264.64 338.04 265.6C337.507 266.453 338.36 267.947 338.787 268.267C339.32 268.587 344.227 269.76 345.72 269.76C346.147 269.76 346.573 269.76 346.893 269.653C347.96 270.08 349.24 270.293 350.627 270.293C354.893 270.293 360.227 268.48 361.827 265.493C364.387 260.48 366.093 254.933 367.907 249.6C368.12 248.96 368.227 248.427 368.44 247.787C368.867 246.613 369.293 245.333 369.827 243.947C371.747 239.04 374.84 233.813 373.453 229.013C372.707 226.453 370.147 224 368.547 221.867C367.16 219.947 361.72 212.8 360.013 210.347C365.133 215.253 379.213 222.507 382.733 231.04C384.013 234.027 382.733 246.507 382.413 249.92C382.307 251.52 382.2 253.12 382.2 254.72C382.093 259.84 380.6 260.8 375.48 261.333C371 261.76 368.973 268.373 367.907 271.893C367.8 272.107 367.8 272.32 367.693 272.427L367.16 274.027L368.867 274.347C369.507 274.453 370.253 274.56 371.107 274.773C374.307 275.413 379.747 277.333 383.48 277.333C387.96 277.333 391.16 276.267 393.187 274.027C395.747 271.253 396.813 266.133 397.667 261.76C397.987 260.053 399.8 254.08 400.547 251.947C404.6 238.4 408.76 233.173 401.613 225.387ZM114.467 159.787C112.867 160.747 112.333 158.08 112.333 158.08C111.907 157.013 111.907 155.84 112.44 155.413C113.613 156.16 115 156.16 115.427 156.8C115.96 157.547 115.32 159.253 114.467 159.787Z" fill="black"/>
<path d="M200.013 271.36C199.907 271.467 199.693 271.467 199.693 271.36L199.267 270.827C199.16 270.72 199.267 270.613 199.48 270.507L199.8 270.293C199.907 270.187 200.12 270.187 200.12 270.293L200.547 270.827C200.547 270.933 200.547 271.04 200.333 271.147L200.013 271.36ZM319.907 196.373C319.48 196.587 319.16 196.587 318.84 196.693C319.16 196.8 319.373 196.907 319.693 196.907C319.587 196.693 319.8 196.48 319.907 196.373Z" fill="#BDBBBB"/>
<path d="M317.24 196.48C317.24 196.48 316.6 195.947 316.067 195.84C315.853 195.84 315.747 195.733 315.64 195.733C315.427 195.733 315.32 195.84 315.32 195.84L315.107 195.947V195.733C315.107 195.52 315.32 195.2 315.853 195.2C316.067 195.2 316.173 195.2 316.387 195.307C317.133 195.52 317.347 196.267 317.347 196.267L317.453 196.693L317.24 196.48ZM311.907 195.52C311.907 195.307 312.227 194.987 312.653 194.987C312.76 194.987 312.973 194.987 313.187 195.093C313.293 195.2 313.507 195.2 313.507 195.2L313.72 195.307L313.187 195.733H313.08C313.08 195.733 312.867 195.627 312.76 195.627H312.013L311.8 195.733L311.907 195.52Z" fill="black"/>
<path d="M313.187 195.2C313.293 195.2 313.507 195.307 313.507 195.307L313.187 195.52C313.187 195.52 312.973 195.413 312.867 195.413C312.333 195.307 312.013 195.413 312.013 195.413C312.013 195.413 312.12 194.88 313.187 195.2Z" fill="black"/>
<path d="M323.427 267.307C316.813 267.307 315.96 256.533 315.747 254.613C314.147 254.507 312.44 253.44 311.267 252.48C311.267 252.48 311.053 252.373 310.947 252.267C310.947 253.013 311.053 253.867 311.053 254.72C311.16 255.893 311.373 259.2 311.48 260.053V260.16C311.587 261.44 311.907 264.213 309.133 265.813C308.28 266.24 307.427 266.453 306.36 266.453C305.507 266.453 304.76 266.24 304.227 266.133H303.907L303.373 266.027C302.627 265.92 301.667 265.813 300.92 265.813H300.707C299.32 265.813 295.373 266.027 294.733 266.133H294.307C292.067 266.133 290.253 264.32 290.253 264.32C289.08 263.253 289.08 261.44 290.04 260.053L290.253 259.627L290.573 259.413C290.787 259.2 291.533 258.773 292.493 258.667C293.347 258.133 294.627 257.387 296.547 256.32C294.84 253.013 287.267 241.387 293.88 237.76C296.333 236.48 300.067 235.093 303.587 234.347C303.587 234.133 303.693 233.92 303.693 233.707C303.8 233.387 303.907 232.533 303.8 231.787C302.733 232.32 301.667 232.64 300.813 232.64C300.493 232.64 300.28 232.64 299.96 232.533C297.72 232.107 294.84 228.8 294.52 228.267C293.987 227.627 292.067 224.107 290.36 220.8C285.56 220.587 285.133 220.48 284.813 220.373C284.387 220.16 283.747 220.053 280.653 217.493C279.587 216.64 279.16 215.467 279.267 214.293C279.373 213.333 280.013 212.48 280.867 212.053C280.867 212.053 280.973 211.947 281.08 211.947C281.507 211.413 282.147 210.88 283.32 210.667L283.64 210.56H284.067C284.813 210.56 285.453 210.88 286.093 211.2C286.093 210.88 286.2 210.453 286.413 210.133C286.947 208.96 288.12 208.32 289.613 208.32C290.36 208.32 291.213 208.533 292.173 208.96L292.28 209.067L292.387 209.173C292.707 209.387 292.707 209.387 292.813 209.387C293.347 209.493 294.733 209.92 295.16 210.133C296.013 210.453 296.547 210.88 298.04 213.547L300.493 215.893C301.56 213.333 302.84 212.267 303.373 211.733C304.12 211.093 304.867 210.88 305.72 210.667C305.933 210.56 306.147 210.56 306.36 210.453C306.68 210.133 307.107 209.813 307.533 209.6C307.533 209.493 307.64 209.387 307.64 209.28C307.32 208.747 306.893 208.107 306.467 207.573C305.507 205.973 305.613 204.48 305.72 203.52V203.2C305.827 200.64 309.027 198.507 309.027 198.507C309.347 198.293 309.773 198.08 310.093 197.973C310.733 197.227 311.8 195.947 312.653 195.307C313.293 194.667 314.147 194.24 315 194.027C315.64 192.64 317.133 191.893 319.267 191.893C320.013 191.893 322.253 192 323 192.213C324.6 192.427 325.773 193.493 326.307 194.773C327.693 195.2 328.653 196.48 328.76 198.293L329.293 198.827C329.613 199.147 330.467 200.107 330.68 201.493C331.533 203.2 331.427 205.12 331.32 206.08C331.32 208.747 330.573 210.347 329.827 211.307C329.72 211.627 329.613 211.947 329.507 212.16C332.067 213.76 332.92 217.387 333.133 218.773C333.347 219.627 334.413 223.147 334.947 225.493C335.693 228.8 334.52 231.787 334.413 232.107L334.307 232.427L334.093 232.747C333.88 233.067 332.813 234.56 332.28 235.093C331.427 236.16 330.467 236.587 329.613 236.8C329.933 237.867 330.147 239.04 330.36 240.213C332.387 242.773 333.56 246.4 333.56 247.68C333.56 248.533 333.347 249.387 333.027 250.027C333.24 250.667 333.347 251.413 333.24 253.227C334.093 254.187 334.84 255.573 335.693 257.173C335.8 257.387 335.907 257.493 335.907 257.493C339.853 266.133 329.933 266.773 329.4 266.56C328.227 267.2 324.067 267.307 323.427 267.307Z" fill="black"/>
<path d="M322.787 194.667C322.147 194.56 320.12 194.453 319.48 194.453C316.6 194.453 318.093 195.947 318.093 195.947C318.093 195.947 315.747 196.267 314.787 197.12C313.827 197.973 312.013 200.107 312.013 200.107C312.013 200.107 311.267 200.427 310.733 200.64C310.307 200.96 308.92 202.027 308.707 203.093C308.6 203.84 308.493 204.8 309.027 205.76C309.667 206.72 310.627 208.107 310.627 208.107C310.627 208.107 310.947 208.64 310.627 209.173C310.413 209.707 309.987 211.2 309.987 211.2C309.987 211.2 308.6 211.947 308.173 212.373C307.747 212.8 305.72 213.12 305.293 213.547C304.76 213.973 303.48 215.04 302.627 218.133C301.667 219.093 301.027 220.16 301.027 220.16L295.8 214.827C295.8 214.827 295.16 212.693 294.093 212.373C293.773 212.267 291.427 211.52 290.893 211.2C288.973 210.453 288.653 211.093 288.973 211.52C289.4 212.053 290.573 212.587 290.893 212.8C291.213 213.013 291.32 215.04 286.413 214.293C286.2 214.293 284.92 213.44 284.067 213.12C281.933 212.373 282.36 214.4 282.787 214.827C283.213 215.253 285.347 217.387 285.88 217.6C286.307 217.707 292.387 218.027 292.387 218.027C292.387 218.027 296.547 225.813 297.08 226.56C297.72 227.307 299.96 229.547 300.92 229.653C301.88 229.867 304.547 228.8 305.933 226.347L306.467 236.48C306.467 236.48 297.08 238.613 295.373 240C291.853 242.773 298.04 253.44 300.173 256.32C300.813 257.28 300.387 257.493 300.387 257.493C300.387 257.493 293.773 261.12 293.773 261.44C293.133 261.227 292.6 261.653 292.6 261.653C292.6 261.653 292.28 262.08 292.493 262.293C292.707 262.507 293.773 263.36 294.627 263.253C295.48 263.147 300.173 262.933 301.24 262.933C302.307 262.933 303.693 263.147 304.44 263.253C305.187 263.36 306.68 263.893 307.853 263.253C309.027 262.613 308.92 261.44 308.707 260.373C308.6 259.2 308.28 254.827 308.28 254.827C308.28 254.827 308.173 249.707 308.067 249.067C309.347 249.28 311.373 249.707 311.8 249.493C312.44 249.173 313.08 250.24 313.08 250.24C313.08 250.24 315.213 251.947 316.173 251.733C317.133 251.52 317.347 251.413 317.773 250.027C318.093 249.493 318.413 249.6 318.413 250.987C318.413 252.373 317.773 264.747 323.64 264.427C327.267 264.32 329.827 262.507 329.827 262.507C329.827 262.507 330.787 263.893 332.28 263.467C336.013 262.08 333.987 258.773 333.667 258.24C333.347 257.707 331.64 253.973 330.573 253.867C330.68 252.267 330.36 249.92 330.147 249.28C330.36 248.96 331 247.573 331 246.933C331 246.293 329.933 242.773 327.907 240.747C327.48 237.44 325.88 232.533 325.88 232.533C325.88 232.533 328.013 233.387 328.653 233.387C329.293 233.493 329.827 233.173 330.253 232.64L331.96 230.507C331.96 230.507 332.92 227.947 332.387 225.387C331.853 222.827 330.68 218.667 330.68 218.667C330.68 218.667 330.147 214.613 328.12 213.76C326.093 212.8 325.773 212.907 325.773 212.907C325.773 212.907 325.133 212.053 325.56 211.84C326.093 211.627 326.733 211.093 327.053 210.88C327.267 210.667 327.587 209.173 327.587 209.173C327.587 209.173 328.76 208.64 328.76 205.227C328.76 205.227 329.08 202.88 328.227 201.813C328.227 200.853 327.48 200.213 327.48 200.213L326.2 198.827C326.2 198.827 326.413 197.12 325.56 196.907C324.813 196.693 324.173 196.48 324.173 196.48C324.173 196.48 324.067 194.88 322.787 194.667Z" fill="#BDBBBB"/>
<path d="M323.747 204.48C323.64 204.267 323.533 204.16 323.427 204.16H323.32L323.213 204.267C322.893 204.587 322.68 204.8 322.253 204.8C321.827 204.8 321.507 204.48 321.507 204.48C321.507 204.48 321.4 205.44 322.467 205.44C323.213 205.44 323.747 204.693 323.747 204.693V204.48ZM298.147 258.56C295.587 255.04 289.933 254.827 288.013 256.64C287.907 256.533 287.8 256.427 287.693 256.427C286.947 255.787 284.6 254.4 283.533 253.76C281.827 251.947 281.08 251.52 280.653 251.307C279.267 250.453 276.493 249.493 274.147 248.96C273.72 244.053 273.293 242.88 273.08 242.347C273.08 242.24 273.613 237.867 273.507 235.093C275 235.307 276.92 235.627 278.52 235.627C279.373 235.627 280.12 235.52 280.653 235.307C282.147 234.88 284.707 234.027 285.667 232.427L285.88 232.107L285.987 231.68C286.093 231.36 286.733 228.16 284.813 225.067C283.427 222.933 279.8 219.093 277.773 217.173C277.88 216 277.88 214.827 277.88 214.827C277.987 213.867 277.667 212.907 276.6 211.733C276.28 211.413 273.72 208.533 273.08 208.213C272.44 207.787 271.267 207.467 270.413 207.467C270.093 207.467 269.773 207.467 269.453 207.573C267 208.107 267.213 211.84 267.32 212.16C267 211.947 266.68 211.84 266.36 211.733C265.507 210.773 264.333 210.24 263.053 210.027C262.413 209.6 261.56 209.067 260.387 209.067H260.173C258.573 209.173 258.573 209.28 257.827 209.92C256.653 210.133 255.587 210.88 254.84 211.84C254.2 212.267 253.347 212.907 252.707 214.08C252.067 214.613 251.213 215.573 250.573 217.28L250.36 217.92C249.827 219.413 249.187 221.013 249.613 222.72V222.933C248.227 223.253 246.307 224.107 245.347 226.133C244.92 226.987 244.387 228.267 243.96 229.333C243.427 229.44 236.6 230.187 236.707 233.387C236.813 234.347 237.24 235.413 238.2 236.053C237.56 237.12 237.56 238.293 238.093 239.253C238.627 240.107 239.267 240.747 240.013 240.96C240.227 241.813 240.653 242.667 241.187 243.413C241.827 244.267 242.573 244.907 243.213 245.333C241.933 245.76 240.547 246.4 239.267 247.36C237.347 248.64 234.573 251.413 237.027 255.787C237.453 256.533 238.627 257.813 244.6 263.68C244.387 263.893 239.693 272.533 247.373 272.96C249.08 275.947 255.053 271.68 255.267 271.573C255.693 271.68 263.693 271.68 261.667 265.493C262.2 265.387 264.973 264.64 265.08 264.64C265.933 265.067 267.96 265.813 269.133 265.92C269.667 266.027 270.52 266.027 271.16 266.027C272.013 266.027 273.933 266.027 274.893 265.813C275.107 265.813 275.427 265.707 275.747 265.6C276.6 266.987 277.88 268.587 279.587 269.547C281.613 270.72 286.2 272.747 287.8 273.493C288.12 273.813 291.32 276.48 293.453 276.48C300.28 276.48 298.147 270.293 298.253 269.973C299 268.053 299.96 261.12 298.147 258.56Z" fill="black"/>
<path d="M274.253 225.813C273.933 225.493 271.373 224.747 270.2 224.64C269.773 224.32 268.6 223.893 268.6 223.893C268.6 223.893 270.2 222.613 270.2 221.76C269.027 215.893 267.107 215.467 267.107 215.467C267.107 215.467 266.467 214.08 264.76 213.867C264.44 212.587 261.987 212.373 261.987 212.373C261.987 212.373 261.347 211.52 260.387 211.627C259.64 211.627 259.427 211.947 259.107 212.373C259.107 212.373 257.613 212.16 256.653 213.867C256.653 213.867 255.48 214.08 254.733 215.893C254.733 215.893 253.88 216.107 253.133 218.133C252.6 219.52 251.96 220.907 252.28 221.973C252.6 223.04 253.347 224.107 253.347 224.107C253.347 224.107 252.6 224.747 251.64 225.067C250.787 225.387 248.547 225.493 247.693 227.2C246.733 229.013 245.667 232.32 245.667 232.32C245.667 232.32 245.133 232 244.493 231.893C243.96 231.787 241.293 231.893 240.76 232.32C240.44 232.533 239.373 232.64 239.373 233.173C239.48 234.453 241.4 233.92 241.4 233.92L240.973 236.587C240.973 236.587 240.12 237.44 240.333 237.76C240.547 238.187 240.973 238.293 241.187 238.187C241.507 238.187 242.147 237.44 242.147 237.44C242.147 237.44 242.147 240 243.32 241.493C244.493 242.987 245.773 243.52 245.773 243.52C245.773 243.52 246.627 243.84 247.48 243.52C248.227 243.2 249.72 242.027 249.827 241.6C249.933 241.173 250.36 239.68 250.36 239.68C250.36 239.68 251 237.333 251.213 237.333C251.427 237.227 251.747 237.653 251.747 237.653V242.347C251.747 242.347 249.827 245.867 249.827 246.827C248.867 246.933 244.493 246.507 240.867 249.173C237.773 251.2 238.84 253.12 239.373 254.187C239.907 255.147 249.187 264.107 249.507 264.427C249.4 264.747 249.613 265.173 249.187 265.173H248.227C248.227 265.173 246.84 264.64 246.52 265.173C245.987 266.56 247.48 266.347 247.48 266.667C247.48 266.88 246.307 266.453 246.093 267.2C245.88 268.053 246.093 268.907 246.733 269.653C247.16 270.187 248.12 269.867 248.333 269.973C248.653 270.08 248.76 270.507 249.4 270.72C251 271.36 254.627 268.48 255.053 268.48C256.867 269.333 258.787 267.84 259 266.773C259.107 265.813 259 265.28 258.68 264.533C258.36 263.787 257.187 262.613 257.187 262.613C257.187 262.613 258.573 262.187 258.893 262.08C258.893 262.08 259.107 261.867 259.533 262.187C259.96 262.4 262.093 262.827 262.627 262.72C263.267 262.72 265.507 261.653 265.933 261.76C266.253 261.973 268.6 262.933 269.453 262.933C270.307 263.04 273.507 263.04 274.467 262.827C275.32 262.613 277.133 262.08 277.133 262.08C277.133 262.08 278.627 265.6 280.973 266.88C283.213 268.16 289.4 270.827 289.4 270.827C289.4 270.827 291.853 273.387 293.453 273.387C295.053 273.387 295.48 272 295.48 271.68C295.48 271.36 295.373 269.547 295.693 268.693C296.013 267.733 296.333 264.96 296.44 263.68C296.547 262.4 296.973 258.773 293.453 258.24C292.92 258.133 291.747 257.92 291.427 257.92C290.893 257.92 291.213 259.2 291 258.667C290.787 258.133 290.253 258.027 290.04 258.027C289.4 258.347 289.08 258.88 289.08 259.093C289.08 259.627 289.293 261.12 289.293 261.12C289.293 261.12 286.413 258.88 285.667 258.24C284.92 257.6 281.507 255.68 281.507 255.68C281.507 255.68 279.693 253.76 279.16 253.44C278.84 253.12 274.04 250.88 271.48 250.88C271.48 248.96 271.373 244.267 270.2 242.027C270.2 241.387 270.947 234.88 270.52 233.173C270.307 232.427 271.48 231.787 272.013 231.787C272.547 231.787 278.093 233.067 279.587 232.427C279.587 232.427 282.467 231.68 283.213 230.613C283.213 230.613 283.747 228.16 282.36 226.027C280.973 223.787 275.96 218.773 274.68 217.707C274.893 216.427 275 214.187 275 214.187C275 214.187 275 213.653 274.68 213.333C274.36 213.013 272.12 210.453 271.8 210.133C271.48 209.92 270.52 209.6 270.093 209.707C269.667 209.813 269.773 210.773 270.093 210.987C270.307 211.2 271.053 211.84 271.053 211.84L271.373 212.8C271.373 212.8 270.947 213.013 270.84 213.227C270.733 213.44 270.733 214.613 270.947 214.827C271.16 215.04 271.693 215.147 271.693 215.147C271.693 215.147 271.16 216.213 270.733 216.32C270.307 215.68 269.667 213.867 269.027 214.507C268.707 214.827 268.6 215.36 268.707 215.787C268.813 216.213 269.667 218.56 270.093 218.987C270.52 219.413 270.84 219.627 270.84 219.627C270.84 219.627 274.147 224.96 274.253 225.813Z" fill="#BDBBBB"/>
<path d="M311.373 196.373C310.413 196.373 309.133 195.733 308.813 194.027C308.707 193.707 307.853 191.68 307.107 189.867C302.84 179.947 303.16 183.573 303.587 181.973C304.333 179.093 308.28 178.773 311.16 178.773H312.547C313.933 178.773 315.213 179.307 316.173 180.267C317.773 181.867 318.2 184.107 318.2 185.173C318.2 185.28 316.067 191.68 315 193.707L314.893 193.813C313.187 196.373 311.8 196.373 311.373 196.373Z" fill="black"/>
<path d="M143.48 146.987C141.347 144.533 139.747 140.267 141.24 139.52C142.627 138.773 144.013 139.84 144.867 140.267C146.147 141.013 146.787 140.48 146.68 138.773C146.68 137.493 146.467 136.213 146.36 135.04C145.933 131.413 144.013 127.467 142.627 125.973C140.173 123.307 133.24 120.32 128.867 123.307C127.587 124.16 126.627 125.547 125.88 127.253C125.56 127.893 126.413 128.64 126.2 129.28C124.6 133.227 122.147 137.707 119.267 140.587C119.16 140.693 128.973 141.547 142.84 151.68C144.013 152.533 141.773 157.547 140.92 157.227C140.493 157.227 142.307 153.067 140.92 152.32C134.52 148.693 130.787 148.267 125.987 146.56C124.813 146.133 121.507 148.267 120.653 147.52C119.48 145.92 115.853 144.213 115.427 144C115.533 144.107 115.96 144.427 116.173 145.92C116.6 149.867 109.347 145.92 115.533 152.213C117.24 153.92 118.947 155.307 120.227 154.773C122.253 154.773 121.293 154.987 121.507 155.52L122.573 157.973C122.787 158.507 123 158.4 123.107 157.867L123.64 155.2C123.747 154.667 124.173 154.347 124.707 154.347C124.707 154.347 134.093 154.56 136.013 154.773C137.933 154.987 138.04 155.627 138.04 155.627C138.147 156.16 138.893 157.227 137.293 158.507C136.12 159.467 133.347 157.547 131.107 159.253C128.867 161.067 124.387 161.92 124.387 161.92C123.853 162.027 123.32 161.707 123.107 161.28L121.933 158.72C121.72 158.187 121.507 158.293 121.507 158.827L121.187 162.133C121.187 162.667 120.973 163.093 120.867 163.093C120.76 163.093 120.44 162.773 120.227 162.24L120.12 162.027C119.907 161.6 119.48 161.493 119.16 161.92L118.52 162.56C118.2 162.987 117.667 162.88 117.453 162.453L117.24 162.133C117.027 161.707 116.493 161.707 116.28 162.133L115.96 162.773C115.747 163.2 115.32 163.2 115.213 162.667L115.107 162.24C114.893 161.813 114.68 161.707 114.467 162.24C114.36 162.56 114.147 162.667 113.933 162.453L113.293 163.093C112.973 163.413 112.333 163.947 112.333 164.48C112.333 165.013 112.973 165.333 116.28 165.973C119.48 166.613 134.52 160.533 139.32 161.493C144.867 162.667 146.893 158.08 147.32 152.32C147.32 152.213 147.32 151.893 147.213 151.36C145.933 149.867 144.547 148.267 143.48 146.987ZM380.707 264.853C380.173 265.813 378.467 265.92 377.827 266.24C376.547 266.773 375.373 267.52 375.48 268.373C375.48 268.693 375.267 272.853 375.48 273.28C375.693 273.707 377.4 274.347 377.827 273.707C378.04 273.387 377.827 270.4 378.147 268.373C378.253 268.053 378.467 266.88 379 266.56C379.213 266.453 381.133 265.6 380.707 264.853ZM235.96 192.32C237.453 192.213 239.587 191.787 240.333 192.32C241.08 192.853 242.147 194.773 242.04 195.947C241.933 197.12 238.2 203.2 237.987 203.52C237.773 203.84 237.347 204.693 236.707 203.733C236.067 202.773 234.787 193.387 234.787 193.387C234.787 193.387 234.68 192.427 235.96 192.32Z" fill="#BDBBBB"/>
<path d="M400.013 228.48C397.987 225.493 392.76 220.16 390.733 217.6C387.96 214.187 375.267 199.36 375.267 199.36C375.267 199.36 371.64 176.96 370.04 171.84C369.08 168.533 366.307 144.96 347.96 132.053C348.92 130.347 360.867 139.733 365.133 146.987C372.92 160.107 376.227 194.453 376.227 194.453C376.227 194.453 381.133 142.08 353.4 130.987C333.56 122.667 323.533 123.947 323.533 123.947C323.533 123.947 309.773 132.267 318.093 147.947C319.693 151.04 337.827 178.773 339 181.013C349.347 200.32 382.093 222.827 388.067 229.013C388.387 229.333 394.04 233.067 394.467 237.12C394.573 237.867 386.787 232.747 386.893 233.6C387.96 243.307 386.787 261.867 386.68 264C386.467 266.453 386.36 266.773 384.867 267.307C383.373 267.84 381.88 266.453 380.92 269.013C379.96 271.787 380.28 273.92 382.84 273.92C385.4 273.92 389.347 275.307 391.907 265.707C394.36 256.107 399.907 238.933 401.507 232.64C401.933 231.147 400.76 229.44 400.013 228.48ZM122.893 109.973C122.893 109.973 125.027 116.373 125.027 118.187C125.027 120 124.387 120.107 124.387 120.107L117.88 122.88C117.88 122.88 119.267 121.28 120.013 119.253C120.867 117.227 122.893 111.893 122.893 109.973ZM349.347 261.12C349.347 261.12 348.6 260.907 348.067 261.44C347.427 262.293 347.213 265.387 347.213 265.387C347.213 265.387 347.96 266.347 349.347 265.813C350.733 265.28 353.507 263.147 352.653 262.507C351.8 261.76 349.347 261.12 349.347 261.12ZM346.893 259.627C346.893 259.627 345.613 259.627 345.08 260.267C344.44 260.907 343.373 262.827 343.48 263.573C343.587 264.32 344.653 265.493 345.187 264.747C345.72 263.893 348.28 259.52 346.893 259.627ZM109.667 142.933C108.173 145.173 112.44 147.2 113.507 146.027C114.253 142.933 111.053 141.76 109.667 142.933ZM184.12 268.48C184.12 268.48 181.667 273.28 181.667 273.813C181.56 274.24 181.773 274.667 181.987 274.667C182.307 274.667 183.16 274.88 183.8 274.453C184.333 274.027 186.68 269.227 187 268.587C187 268.373 185.187 267.307 184.12 268.48Z" fill="#BDBBBB"/>
<path d="M371.213 232.853C372.387 228.587 368.44 228.16 367.053 233.707C366.627 235.627 361.08 255.68 360.44 261.013C360.44 261.333 360.653 261.547 360.867 261.227C360.867 263.04 370.68 234.773 371.213 232.853ZM191.907 123.413C182.2 125.333 168.547 126.08 161.187 125.12C155.32 124.267 155 120.64 156.067 117.547C150.627 122.88 147.747 120.853 147.64 120.213C147.427 119.36 149.667 120.213 151.053 118.827C152.547 117.44 153.4 112.32 152.227 109.867C151.053 107.413 152.333 107.84 152.333 107.84C152.333 107.84 155.32 108.16 156.6 111.787C157.453 108.16 152.44 103.68 150.84 104.747C149.24 105.813 145.933 108.48 146.36 112.427C146.893 117.227 146.573 119.68 144.973 119.573C134.307 119.147 122.467 117.653 115.853 124.587C115.853 124.587 123.853 119.36 130.04 119.893C136.227 120.427 148.813 121.707 149.56 136.533C149.56 136.533 149.453 139.84 149.667 143.68C149.773 145.707 147.853 144.427 147.853 145.387C147.96 149.44 150.84 148.8 150.627 152.427C149.667 166.933 142.947 166.613 142.947 166.613C142.947 166.613 151.053 167.787 155.107 154.133C155.107 161.92 154.253 163.84 151.16 166.933C157.347 167.36 162.253 161.493 162.36 160.64C163.32 162.133 165.027 166.827 169.613 168.853C167.373 165.12 167.907 160.533 168.333 156.48C169.72 165.547 172.067 168.96 176.653 170.88C174.733 168.96 171 164.8 172.067 157.44C172.92 163.733 180.28 169.387 180.28 169.387C180.28 169.387 177.933 165.653 177.293 158.933C180.493 165.76 183.8 166.293 183.8 166.293C183.8 166.293 178.573 160.747 177.72 153.6C177.613 153.493 181.453 158.507 184.44 158.507C182.093 155.627 178.36 151.68 177.933 146.56C180.28 149.653 181.987 151.573 184.76 151.893C182.413 149.333 180.6 145.067 179.853 139.947C182.52 143.253 181.987 144.32 187 145.707C185.08 143.893 183.8 138.773 184.653 136.32C185.507 138.027 188.813 139.84 192.653 140.267C191.373 139.413 189.347 134.613 189.667 132.693C191.48 133.547 195.213 134.827 198.307 134.4C196.813 133.547 195.853 129.28 196.28 128.32C197.133 128.853 202.893 128.747 204.067 128.32C202.253 127.147 200.547 125.44 200.973 125.547C202.36 126.08 204.6 124.907 207.587 124.373C210.68 123.84 211.213 123.84 213.24 123.84C211.64 122.667 199.48 121.6 191.907 123.413ZM289.933 184.107C289.933 184.107 283.747 183.68 283.213 185.6C282.787 187.52 286.093 197.653 286.52 198.827C287.267 200.747 289.4 196.267 289.4 196.267C290.04 195.093 292.6 189.12 292.6 188.267C292.6 187.413 292.707 184.107 289.933 184.107ZM265.507 185.067C265.507 185.067 259.32 184.64 258.787 186.56C258.36 188.48 260.92 197.333 261.453 198.613C262.093 200.427 263.373 197.653 263.373 197.653C264.013 196.48 269.027 190.187 269.027 189.333C269.027 188.373 268.387 185.067 265.507 185.067Z" fill="#BDBBBB"/>
<path d="M309.133 123.627C307.213 123.733 290.893 125.547 280.12 125.653C271.48 125.653 262.307 125.227 257.507 125.44C257.08 125.333 256.547 125.44 256.013 125.547C248.76 125.227 225.507 124.907 225.507 124.907C223.8 124.587 200.227 130.667 196.813 156.8C194.68 172.907 195.747 178.133 199.373 185.707C201.507 190.293 205.88 198.72 205.773 205.227C205.667 208 200.867 193.707 200.867 195.307C201.613 211.84 198.627 249.173 197.027 257.173C195.107 266.56 193.187 261.867 190.947 265.813C190.627 266.453 185.72 275.2 185.827 275.307C185.933 275.413 188.28 274.987 190.733 274.773C193.613 274.667 195.96 266.88 197.88 266.88C198.2 266.88 195.747 273.173 196.067 273.067C198.093 272.533 201.4 271.68 201.187 273.28C201.933 273.493 202.573 273.173 203 272.64C203.64 271.893 206.307 259.84 207.907 253.547C208.333 252.48 211 253.12 211.747 253.333C213.24 250.347 210.893 240.533 215.053 226.773C219.213 213.333 223.587 201.6 221.667 198.08C221.453 197.653 214.307 207.147 214.2 206.827C213.773 205.76 237.453 165.867 232.867 145.28C232.76 144.533 232.44 143.68 232.44 143.147C232.44 143.04 235.213 144.107 238.627 145.067C243.107 146.453 246.947 147.2 248.333 152.32C249.933 162.24 254.52 176.32 263.907 177.173C259.64 173.333 254.2 153.493 254.84 145.387C257.507 158.613 265.507 177.813 272.227 176.96C270.84 174.827 265.293 162.773 265.293 155.093C267.64 161.387 273.4 175.253 277.773 175.36C289.08 175.573 291.96 170.453 300.387 168.533C319.16 164.267 324.067 171.413 326.947 173.013C324.707 170.773 316.813 157.12 311.587 146.453C307.427 138.027 314.467 129.6 326.307 124.267C328.653 123.413 312.867 123.52 309.133 123.627Z" fill="#BDBBBB"/>
<path d="M312.333 180.907C312.333 180.907 306.04 180.48 305.613 182.4C305.08 184.32 309.56 191.573 310.84 193.6C311.8 195.093 312.76 192.64 312.76 192.64C313.4 191.467 315.64 185.92 315.64 185.173C315.747 184.213 315.107 180.907 312.333 180.907ZM252.387 175.68C249.4 174.613 245.88 168.533 244.813 165.973C243.747 163.307 241.72 155.627 242.893 152.853C243.533 155.627 245.24 161.6 246.52 164.267C248.44 168.32 250.893 173.547 252.387 175.68Z" fill="#BDBBBB"/>
<path d="M315.853 254.4C315.32 253.227 312.547 252.16 311.267 251.947C310.093 251.84 309.88 251.733 309.773 252.907C309.667 253.867 309.667 254.827 309.773 255.893C310.093 257.6 310.2 257.067 311.8 257.173C312.973 257.28 314.04 257.387 315.107 257.387C316.173 257.28 316.387 257.28 316.387 256.32C316.387 255.467 316.707 254.507 315.853 254.4ZM128.653 129.28C128.653 129.28 130.573 125.973 132.92 125.333C134.627 124.907 136.44 125.867 139.107 127.573C141.773 129.387 143.16 132.16 145.827 131.413C146.68 131.2 143.8 134.4 141.24 133.547C140.6 133.333 136.76 126.933 133.027 127.04C132.92 127.04 130.573 127.573 128.653 129.28Z" fill="black"/>
<path d="M135.48 126.293C132.387 125.44 130.573 127.573 130.573 127.573C131.427 125.44 135.16 126.72 136.76 127.467C137.613 127.893 138.893 129.92 139.747 131.627C138.787 130.667 137.4 129.6 136.227 129.493C133.88 129.28 133.667 132.373 133.667 132.373L132.493 133.867C132.493 133.867 132.707 134.293 134.52 134.293C136.333 134.293 142.733 134.187 143.48 133.44C144.227 132.587 138.893 127.253 135.48 126.293ZM136.12 133.013C135.587 133.013 135.053 132.373 135.053 131.733C135.053 130.987 135.48 130.453 136.12 130.453C136.653 130.453 137.4 131.093 137.4 131.733C137.4 132.48 136.76 133.013 136.12 133.013ZM168.227 145.173C168.227 145.173 169.293 148.8 170.467 149.44C171.64 150.08 174.52 145.707 174.52 145.707C174.52 145.707 172.493 151.04 170.68 152.427C169.187 151.36 168.653 149.973 168.227 145.173Z" fill="black"/>
<path d="M172.6 149.227C172.6 149.227 174.307 152.747 175.48 153.493C176.653 154.133 179.213 149.973 179.213 149.973C179.213 149.973 176.867 155.413 175.693 156.48C174.52 155.413 172.387 154.133 172.6 149.227ZM162.68 155.2C162.68 155.2 164.813 159.04 165.987 159.467C168.12 160.32 168.227 154.773 168.227 154.773C168.227 154.773 169.08 160.96 166.733 162.987C164.92 161.92 163.853 161.173 162.68 155.2Z" fill="black"/>
<path d="M168.013 152.96C168.013 152.96 169.08 156.373 170.147 157.12C171.213 157.973 173.453 151.893 173.453 151.893C173.453 151.893 172.707 157.867 171 160.853C169.933 159.68 168.12 157.76 168.013 152.96Z" fill="black"/>
<path d="M172.28 155.733C172.28 155.947 174.307 158.933 175.587 159.467C176.867 160 177.72 154.88 177.72 154.88C177.72 154.88 178.04 160.747 176.547 162.453C175.587 161.813 172.707 160.32 172.28 155.733ZM173.453 141.44C173.453 141.44 175.48 145.92 176.76 146.667C178.04 147.307 180.067 142.507 180.067 142.507C180.067 142.507 179.107 147.733 176.653 149.44C175.053 148.053 174.52 147.093 173.453 141.44Z" fill="black"/>
<path d="M170.04 137.6C170.04 137.6 171.32 141.013 172.387 141.547C173.56 142.187 175.48 137.6 175.48 137.6C175.48 137.6 174.307 143.467 172.493 145.28C171.32 144.213 170.787 142.613 170.04 137.6ZM176.973 136.427C176.973 136.427 178.04 139.307 179 139.947C179.96 140.587 181.453 138.027 181.453 138.027C181.453 138.027 180.813 142.08 179.107 142.613C178.253 141.973 177.507 140.587 176.973 136.427ZM182.2 133.013C182.2 133.013 182.733 135.787 183.587 136.32C184.333 136.853 185.827 134.4 185.827 134.4C185.827 134.4 185.613 137.493 183.48 138.88C182.733 137.813 181.88 136.747 182.2 133.013ZM187.213 128.96C187.213 128.96 187.747 131.733 188.6 132.267C189.347 132.8 190.84 130.347 190.84 130.347C190.84 130.347 190.52 134.08 188.6 134.507C188.813 134.933 186.787 132.267 187.213 128.96ZM163.747 148.587C163.747 148.587 165.56 151.787 166.413 151.893C167.267 152 168.867 148.587 168.867 148.587C168.867 148.587 168.12 153.173 166.413 154.133C165.667 153.173 164.173 151.787 163.747 148.587Z" fill="black"/>
<path d="M174.52 133.44C174.52 133.44 175.267 136.107 176.12 136.64C176.973 137.173 178.253 134.613 178.253 134.613C178.253 134.613 177.827 138.453 176.333 139.52C175.48 138.667 174.413 137.28 174.52 133.44ZM218.253 127.04C218.253 127.04 228.92 122.987 231.373 140.053C232.547 133.867 231.053 126.4 226.787 124.16C222.52 121.92 218.253 127.04 218.253 127.04ZM135.373 119.04C135.373 119.04 152.76 120.107 155.747 139.733C156.707 136.107 152.76 124.267 147.747 121.387C147.213 121.067 145.08 120 146.573 116.48C140.92 115.627 135.373 119.04 135.373 119.04ZM330.68 253.227C330.68 253.227 330.573 261.227 328.867 263.253H329.827C330.147 262.933 330.893 260.373 331.107 259.413C331.427 258.347 331.32 253.867 331.32 253.867L330.68 253.227ZM320.44 197.653C320.547 197.76 320.547 198.293 320.44 198.72C320.44 198.72 320.227 199.573 321.293 200.107C322.04 200.427 322.467 201.067 322.68 201.493C322.787 201.6 322.787 201.707 322.893 201.813C323.107 202.027 323.107 202.24 323 202.773C322.893 202.987 322.787 203.2 322.68 203.307C322.573 203.413 322.467 203.52 322.573 203.733C322.68 203.947 322.787 204.48 323.32 204.8C323.427 204.907 323.64 205.227 323.427 206.08L323.32 206.293C323 207.253 323.213 209.493 323.853 209.387C324.387 209.28 324.28 207.253 324.493 207.04C324.813 206.613 325.027 205.44 324.92 204.8C324.92 204.587 324.813 204.373 324.707 204.267C324.173 203.947 324.067 203.733 324.067 203.627C324.067 203.627 324.173 203.52 324.173 203.413C324.28 203.307 324.387 203.093 324.493 202.88C324.707 202.453 324.6 201.813 324.387 201.387C324.28 201.067 323.213 199.787 322.68 199.573C322.147 199.467 321.933 199.147 321.933 198.827V198.293C322.04 197.867 322.04 197.44 321.827 197.12C320.12 194.773 317.667 195.093 317.667 195.093L316.6 196.267C316.387 196.267 318.307 195.307 320.44 197.653ZM312.12 200.853C312.76 200.853 313.187 201.92 313.293 202.133C313.293 202.347 313.187 202.347 312.867 202.24C312.547 202.24 312.227 201.493 311.587 201.6C310.947 201.6 310.947 202.133 310.733 202.133C310.413 202.027 311.48 200.853 312.12 200.853ZM317.133 199.04C317.88 199.253 317.987 200 317.987 200C317.987 200 317.347 199.467 316.813 199.36C316.28 199.253 315.96 199.36 315.96 199.36C315.96 199.36 316.173 198.72 317.133 199.04Z" fill="black"/>
<path d="M326.84 236.373L326.307 233.6L325.987 232.533L320.973 223.147L320.76 222.827C320.547 222.613 320.44 222.4 320.013 222.08C319.907 221.973 320.013 221.76 320.12 221.867C321.933 222.08 324.92 221.227 325.667 221.013C325.88 221.227 330.787 226.987 331.107 226.773C331.533 226.56 326.093 219.52 326.093 219.52C326.093 219.52 326.627 216.64 326.52 216.32C326.307 215.68 324.813 214.613 324.28 214.613H324.173C324.067 214.4 323.96 214.293 323.96 214.187L323.853 214.08C323.427 213.44 323.213 212.907 323 212.587C323.96 212.907 324.92 213.227 325.027 213.227H325.56L326.093 212.48L322.04 211.093C321.613 210.987 321.293 210.133 321.187 209.493C321.187 209.067 324.067 206.187 323.533 206.08C322.467 205.76 319.8 208.533 319.693 209.387C319.693 209.92 319.907 211.093 320.44 211.627C320.227 211.84 320.12 212.16 320.12 212.373C315 212.693 313.187 214.613 312.973 215.467C312.973 215.467 317.027 213.867 318.52 213.653C317.56 214.507 319.053 216.32 319.053 216.32C318.84 216.213 318.413 215.893 317.88 216.32C316.92 217.067 317.88 218.667 318.093 218.987C317.667 218.987 317.453 219.093 317.24 219.2C316.707 219.733 317.667 221.013 318.413 221.76C318.733 222.08 317.24 221.973 312.973 218.773C313.08 221.867 318.307 223.787 319.907 223.787C320.013 223.68 326.627 235.947 326.84 236.373ZM318.307 219.627C318.627 219.307 319.48 220.053 319.693 219.84C319.907 219.627 317.987 217.387 318.627 216.96C319.373 216.427 320.227 218.133 320.653 217.92C321.08 217.6 320.867 217.387 320.76 217.173C320.76 217.067 319.907 215.573 319.907 215.573C319.8 215.467 318.947 214.08 319.587 213.76C320.227 213.547 320.867 214.613 320.973 214.72C321.08 214.72 322.147 216.853 322.68 216.533C323.107 216.32 321.827 213.227 321.827 213.227C321.72 212.907 321.187 212.16 321.507 211.947C321.827 211.733 322.147 211.733 322.893 212.8C323 212.907 325.027 216.747 325.347 216.64C325.347 216.64 325.347 215.893 325.027 215.253C325.453 215.573 326.307 215.787 326.2 216.427C326.2 216.64 326.093 218.24 325.773 218.667C324.813 219.84 320.547 221.227 319.16 221.013C318.84 220.907 317.987 220.053 318.307 219.627ZM306.253 235.84L305.613 236.267L304.547 236.907C304.76 237.333 308.92 247.68 313.293 250.88L313.4 250.453C307.533 242.773 306.253 235.84 306.253 235.84ZM322.147 241.173C319.587 241.6 317.773 250.133 317.773 250.133C318.413 249.28 318.413 250.667 318.413 250.667C318.413 250.667 320.44 243.413 322.36 242.667C324.173 241.92 326.947 242.24 326.947 242.24C326.947 242.24 324.813 240.747 322.147 241.173ZM302.2 227.627C302.52 227.413 301.453 219.307 301.453 219.307L301.027 219.733L300.387 219.307C300.173 220.053 301.88 227.84 302.2 227.627ZM304.12 221.12L304.76 227.733L305.933 227.093L305.613 222.187C305.613 222.187 306.147 222.4 306.36 222.293C306.573 222.08 305.507 221.12 305.4 219.947C305.4 219.093 306.36 217.92 306.147 217.813C305.933 217.707 305.613 218.027 305.613 218.027C305.72 217.173 305.72 216.32 305.827 215.787C305.933 215.04 307 213.44 307 213.44C304.653 214.293 304.227 216.96 304.227 216.96L304.013 219.093C304.013 219.093 303.8 219.733 303.8 220.16C303.8 220.587 304.12 221.12 304.12 221.12ZM301.347 242.133C301.027 243.84 308.067 250.347 308.067 250.347L309.987 249.387C309.88 249.387 303.267 244.587 301.347 242.133ZM307 212.8C307.32 213.013 308.92 213.227 311.907 215.147C312.333 214.4 309.24 212.693 307.747 212.16C306.893 212.16 306.787 212.373 306.787 212.48C306.893 212.587 306.893 212.693 307 212.8ZM243.96 234.667C244.707 234.56 246.093 233.067 245.773 232.96C245.56 232.853 244.92 233.92 243.747 233.92C243.32 233.92 242.893 233.813 242.36 233.707H242.253C242.04 233.92 241.08 234.133 241.08 234.133L241.187 234.773L242.253 234.56C242.467 234.453 243.213 234.773 243.96 234.667ZM267.32 216.533C268.173 215.68 266.573 214.613 266.467 214.507C266.467 214.507 267.64 216 266.68 215.573C265.933 214.293 262.84 213.44 262.733 213.333C262.52 213.12 263.16 212.587 264.76 213.867C264.867 213.653 263.8 212.587 262.413 212.693C262.413 212.48 262.2 212.267 262.093 212.16H261.88C261.987 212.267 262.2 212.693 261.987 212.693C261.667 212.693 261.56 212.267 261.453 212.16C261.24 211.84 260.6 212.267 261.027 212.587C261.133 212.693 261.347 212.693 261.453 212.8C261.667 212.907 261.56 213.013 261.347 212.907C261.133 212.8 260.813 212.8 260.493 212.8C260.173 212.8 259.853 212.8 259.533 213.013C259.427 213.12 259.32 213.013 259.427 212.907C259.533 212.8 259.747 212.693 259.853 212.693C260.387 212.267 259.427 211.627 259.32 212.587C259.213 212.8 259.107 212.907 259 212.907C258.573 212.907 259 212.267 259 212.267L258.893 212.373C258.787 212.48 258.573 212.693 258.573 212.8C258.467 212.8 256.76 212.907 256.44 213.867C257.72 212.907 258.36 213.013 258.253 213.333C258.253 213.44 256.76 214.293 256.12 214.933C255.587 215.253 254.84 216.213 254.733 216.213C254.52 216.213 254.413 215.787 254.84 215.147C253.987 215.893 254.2 216.533 254.413 216.853C253.987 217.813 254.093 218.987 254.627 219.947C255.053 220.8 257.827 223.147 258.04 222.933C258.253 222.72 255.16 220.053 254.947 218.88C254.413 216.107 258.253 213.547 259.533 213.44C259.64 213.44 259.747 213.76 260.493 213.76C261.347 213.76 261.453 213.44 261.453 213.44C262.413 213.333 267 215.04 266.573 218.453C266.36 219.52 265.933 220.8 266.147 220.907C266.36 221.013 266.573 220.48 267 219.52C267.747 218.667 267.747 217.493 267.32 216.533ZM244.6 249.173C249.08 248.747 257.187 262.507 257.4 262.72C257.72 263.04 258.147 262.4 258.147 262.4C257.827 261.867 250.68 247.253 244.6 249.173ZM250.68 226.347C249.72 226.453 250.787 239.147 250.787 239.147L251.747 237.867C251.64 237.12 251.533 233.493 251.533 232.96C251.853 233.173 256.12 232.213 257.08 230.72C257.08 230.72 254.093 231.253 253.347 231.147C251.96 230.933 251.64 230.4 251.533 229.973C251.64 229.547 251.107 226.24 250.68 226.347Z" fill="black"/>
<path d="M250.04 246.187L249.187 246.827C255.373 250.133 259 262.08 259.107 262.187V262.293L261.133 262.933C261.133 262.933 256.44 249.067 250.04 246.187ZM264.547 262.293C264.76 262.72 266.253 261.973 266.253 261.973V261.867C266.253 261.76 266.147 256.107 270.733 251.627C270.733 251.627 265.613 252.587 264.547 262.293ZM289.613 261.227L288.44 260.48C288.44 260.48 288.973 263.04 288.973 264.213C288.973 264.427 288.867 264.427 288.76 264.533C288.76 264.64 288.653 264.64 288.653 264.64C288.227 265.173 288.547 266.88 288.547 266.88C288.547 266.88 289.08 265.813 289.507 265.28L289.613 265.173C289.827 264.96 289.933 264.747 289.827 263.787C289.933 263.253 289.613 261.227 289.613 261.227ZM271.373 226.24C271.16 226.24 270.733 229.333 270.733 229.653C270.733 229.76 270.627 231.68 268.387 231.36C266.147 231.04 265.293 230.613 265.293 230.613C266.04 232.107 269.773 232.96 270.627 234.133C270.84 234.453 270.947 235.84 270.947 235.947H271.693V233.387L272.44 233.173C272.12 228.053 271.587 226.133 271.373 226.24ZM256.333 223.893C255.053 223.893 253.027 224.107 253.027 224.107L250.787 224.533L251.427 224.96C251.427 224.96 254.307 224.32 256.333 224.32C256.653 224.32 256.867 224.32 257.08 224.427C258.787 224.853 260.707 225.493 260.707 225.28C260.707 224.96 258.36 224.107 257.187 223.893H256.333ZM270.733 224.747L270.947 224.64L271.053 224.533L271.16 224.427L271.053 224.32L270.2 223.787H265.827C264.76 223.787 261.453 225.173 261.667 225.387C261.88 225.6 264.227 224.64 265.933 224.427C267.533 224.107 270.627 224.747 270.733 224.747ZM279.48 231.893C278.84 231.253 273.933 225.28 273.933 225.28C273.933 225.173 273.72 224.96 273.613 224.96C273.507 224.96 272.867 224.96 272.867 225.173C273.933 226.88 276.28 229.653 277.987 231.04C278.627 231.68 279.16 232.107 279.48 231.893ZM248.867 264.213L249.507 265.173C249.507 265.173 250.147 263.68 251.107 263.04C252.173 262.507 253.987 261.653 254.733 261.653C251.853 260.907 248.973 263.147 248.867 264.213ZM247.373 240C247.907 240 248.12 239.467 248.12 238.933L248.227 238.827C248.227 238.827 248.76 238.4 249.08 237.227C249.4 238.72 250.04 241.493 249.507 242.24L248.653 243.093L249.507 242.56C249.827 242.453 250.36 241.813 250.253 240.853C250.147 240.32 249.293 235.733 249.293 235.733V235.52C249.293 234.88 249.08 234.347 248.76 233.92C248.227 233.173 247.267 232.747 246.733 232.747C246.733 232.747 249.08 234.347 248.76 235.947C248.44 237.547 248.227 237.653 248.227 237.653L247.907 237.333V238.293C247.8 238.72 247.693 238.933 247.373 238.933C246.52 238.933 245.773 240.107 244.813 239.893C243.853 239.573 243.427 238.827 242.893 238.4C242.36 237.973 243.213 237.227 243.213 237.227C243.213 237.227 243.213 236.907 242.893 236.8C242.68 236.587 242.253 237.653 242.253 237.653C242.253 237.653 241.72 239.04 242.467 239.573C243.853 240.427 243.427 240.427 244.813 240.853C246.307 241.28 246.093 240 247.373 240Z" fill="black"/>
</g>
<defs>
<clipPath id="clip0_2_1035">
<rect width="393.067" height="512" fill="white" transform="translate(59)"/>
</clipPath>
</defs>
</svg>
