<svg width="512" height="512" viewBox="0 0 512 512" fill="none" xmlns="http://www.w3.org/2000/svg">
<path d="M324.331 3.15326C352.35 57.4986 403.012 94.0623 461.354 106.924V207.156C431.079 234.549 406.62 279.647 387.98 342.44C364.418 414.754 332.635 454.79 255.449 508.931C195.519 473.516 146.092 429.158 123.522 348.985C106.53 283.648 83.7564 238.274 50.0359 205.814V106.857C119.318 85.8766 164.877 51.5325 186.706 3.82458L324.331 3.15326Z" fill="#E6C777"/>
<path d="M324.331 3.15324L323.456 3.60407C351.615 58.2242 402.536 94.9656 461.143 107.885L461.355 106.924H460.371V207.156H461.355L460.697 206.427C430.22 234.01 405.712 279.268 387.037 342.158L387.981 342.44L387.043 342.134C375.285 378.222 361.507 406.175 341.056 431.886C320.599 457.597 293.441 481.08 254.888 508.123L255.452 508.929L255.954 508.08C196.123 472.708 146.977 428.597 124.475 348.717L123.527 348.983L124.48 348.736C107.465 283.306 84.6234 237.734 50.7252 205.103L50.0408 205.813H51.0247V106.857H50.0408L50.3254 107.8C119.766 86.7782 165.629 52.2712 187.606 4.2359L186.711 3.8262L186.716 4.81178L324.339 4.13882L324.331 3.15324L324.325 2.16765L186.074 2.84391L185.815 3.41485C164.132 50.7937 118.877 84.9732 49.7545 105.914L49.0552 106.125V206.228L49.3563 206.519C82.8991 238.808 105.604 283.986 122.571 349.228L122.577 349.251V349.248C145.215 429.711 194.92 474.319 254.95 509.775L255.496 510.098L256.016 509.732C294.648 482.634 321.97 459.033 342.595 433.112C363.22 407.19 377.113 378.97 388.916 342.742L388.924 342.716C407.533 280.02 431.944 235.085 462.017 207.885L462.339 207.591V106.13L461.568 105.958C403.486 93.1524 353.086 56.7697 325.205 2.69911L324.928 2.16107L324.325 2.16272L324.331 3.15324Z" fill="#866B10"/>
<path d="M132.649 313.178C121.187 275.048 102.51 236.125 84.9951 217.055L428.627 217.056C406.353 243.873 390.877 278.939 379.93 313.178H132.649Z" fill="#C5112E"/>
<path d="M132.649 313.178L133.592 312.895C122.084 274.652 103.42 235.681 85.721 216.388L84.9953 217.055V218.04L428.627 218.042V217.057L427.869 216.428C405.473 243.399 389.964 278.571 378.992 312.879L379.93 313.178V312.194H132.649V313.178V314.165H380.648L380.87 313.479C391.79 279.31 407.234 244.348 429.386 217.685L430.725 216.073L82.7527 216.071L84.2697 217.721C101.602 236.569 120.289 275.445 131.706 313.463L131.915 314.165H132.649V313.178Z" fill="#C5112E"/>
<path d="M71.1774 196.361C71.3732 196.433 70.9109 118.281 70.9109 118.281C89.3408 114.31 107.157 107.283 123.91 97.5488V196.361H71.1774Z" fill="white"/>
<path d="M384.266 97.0833C401.746 107.874 420.599 115.614 441.15 120.296L441.079 196.361H384.266V97.0833Z" fill="white"/>
<path d="M137.532 88.8728C159.934 73.3157 182.29 53.6057 196.685 24.8131H313.825C328.614 49.7193 349.959 72.5621 370.639 87.856V196.361H137.532V88.8728Z" fill="white"/>
<path d="M174.891 413.39C147.227 380.894 138.309 329.133 138.309 329.133H374.195C371.49 336.977 365.193 372.226 333.748 413.39H174.891Z" fill="#1B458F"/>
<path d="M255.06 485.576C233.188 473.621 208.56 453.876 194.352 438.1H312.267C298.523 452.359 276.103 471.658 255.06 485.576Z" fill="#1B458F"/>
<path d="M177.617 418.063H330.557L317.131 432.847H190.66C185.67 427.889 181.507 423.119 177.617 418.063Z" fill="#05642C"/>
<path d="M184.525 364.195H179.319V386.424H184.525V364.195Z" fill="#E6C777"/>
<path d="M343.307 335.977H338.098V358.209H343.307V335.977Z" fill="#E6C777"/>
<path fill-rule="evenodd" clip-rule="evenodd" d="M326.86 363.724L317.907 385.952H323.143L325.002 381.002H333.856L335.646 385.952H341.051L332.199 363.724H326.86ZM326.361 377.366L329.443 369.205H329.51L332.494 377.366H326.361Z" fill="#E6C777"/>
<path d="M178.453 343.399H183.496C183.34 342.115 182.966 340.975 182.369 339.976C181.772 338.978 181.008 338.152 180.079 337.484C179.169 336.801 178.132 336.284 176.959 335.93C175.812 335.577 174.585 335.397 173.28 335.397C171.467 335.397 169.831 335.7 168.37 336.299C166.937 336.905 165.719 337.731 164.725 338.793C163.732 339.856 162.971 341.102 162.437 342.532C161.907 343.942 161.64 345.475 161.64 347.137C161.64 348.758 161.907 350.27 162.437 351.683C162.97 353.07 163.732 354.286 164.725 355.323C165.719 356.364 166.937 357.186 168.37 357.784C169.833 358.367 171.468 358.655 173.28 358.655C174.739 358.655 176.077 358.448 177.291 358.035C178.509 357.62 179.57 357.014 180.48 356.225C181.385 355.44 182.111 354.485 182.668 353.363C183.218 352.241 183.562 350.989 183.692 349.594H178.652C178.455 351.093 177.907 352.292 176.998 353.21C176.11 354.123 174.873 354.579 173.281 354.579C172.11 354.579 171.116 354.367 170.298 353.952C169.476 353.515 168.818 352.947 168.309 352.241C167.797 351.539 167.419 350.747 167.177 349.875C166.958 348.983 166.845 348.068 166.845 347.136C166.845 346.16 166.958 345.217 167.177 344.299C167.417 343.391 167.797 342.574 168.309 341.872C168.818 341.145 169.476 340.574 170.298 340.159C171.114 339.723 172.11 339.508 173.281 339.508C173.925 339.508 174.53 339.611 175.103 339.82C175.703 340.004 176.232 340.269 176.699 340.625C177.16 340.978 177.553 341.393 177.861 341.87C178.168 342.331 178.367 342.839 178.453 343.399Z" fill="#E6C777"/>
<path d="M107.608 144.525H116.807C116.519 141.293 115.836 138.432 114.747 135.927C113.654 133.43 112.264 131.342 110.573 129.675C108.917 127.957 107.025 126.654 104.889 125.767C102.792 124.885 100.554 124.443 98.1747 124.443C94.8674 124.443 91.8811 125.196 89.2238 126.705C86.6043 128.214 84.388 130.3 82.5731 132.958C80.7566 135.613 79.3663 138.738 78.4004 142.338C77.4313 145.875 76.9426 149.734 76.9426 153.902C76.9426 157.964 77.4313 161.77 78.4004 165.309C79.3646 168.802 80.755 171.849 82.5731 174.456C84.3863 177.06 86.6043 179.117 89.2238 180.631C91.8811 182.087 94.8691 182.814 98.1747 182.814C100.839 182.814 103.275 182.299 105.49 181.251C107.713 180.208 109.645 178.703 111.295 176.723C112.953 174.742 114.281 172.341 115.29 169.531C116.295 166.716 116.922 163.567 117.164 160.078H107.973C107.608 163.828 106.604 166.849 104.945 169.141C103.331 171.433 101.079 172.578 98.1747 172.578C96.0389 172.578 94.2241 172.06 92.7301 171.017C91.2361 169.926 90.0317 168.49 89.0987 166.714C88.1724 164.945 87.4879 162.966 87.0469 160.776C86.6405 158.54 86.4414 156.248 86.4414 153.902C86.4414 151.452 86.6405 149.081 87.0469 146.789C87.4879 144.495 88.1724 142.466 89.0987 140.689C90.0317 138.869 91.2361 137.438 92.7301 136.396C94.2241 135.299 96.0389 134.751 98.1747 134.751C99.3445 134.751 100.455 135.013 101.5 135.536C102.591 136.008 103.56 136.684 104.402 137.566C105.255 138.455 105.957 139.49 106.52 140.689C107.088 141.841 107.45 143.118 107.608 144.525Z" fill="#E6C777"/>
<path d="M107.608 144.525V145.51H117.881L117.786 144.438C117.49 141.12 116.787 138.154 115.645 135.536C114.513 132.941 113.055 130.741 111.262 128.976L110.571 129.677L111.282 128.994C109.539 127.184 107.527 125.797 105.266 124.859C103.048 123.926 100.674 123.459 98.173 123.459C94.716 123.459 91.5454 124.254 88.7351 125.85C85.9774 127.437 83.6459 129.636 81.757 132.402C79.8698 135.162 78.4366 138.392 77.4477 142.083C76.4539 145.711 75.957 149.657 75.957 153.902C75.957 158.043 76.4556 161.938 77.4494 165.569C78.4399 169.154 79.8747 172.309 81.7636 175.017C83.6508 177.73 85.9824 179.897 88.7285 181.482L88.7367 181.488L88.7482 181.493C91.5586 183.037 94.721 183.8 98.173 183.798C100.962 183.8 103.555 183.254 105.91 182.14C108.259 181.037 110.316 179.432 112.049 177.352C113.793 175.27 115.175 172.763 116.213 169.862C117.255 166.948 117.896 163.708 118.145 160.146L118.217 159.093H107.076L106.989 159.983C106.637 163.614 105.673 166.458 104.146 168.564L104.139 168.57C102.667 170.621 100.815 171.57 98.1714 171.591C96.1936 171.588 94.6009 171.119 93.2911 170.208L92.7284 171.015L93.3092 170.221C91.9452 169.224 90.8428 167.915 89.9708 166.255C89.0921 164.577 88.4373 162.69 88.0128 160.58L87.0486 160.775L88.0177 160.598C87.6228 158.423 87.4286 156.19 87.4286 153.902C87.4286 151.504 87.6244 149.194 88.0177 146.96L87.0486 146.789L88.0144 146.975C88.4389 144.762 89.0971 142.825 89.9724 141.147L89.9856 141.119L89.9757 141.14C90.8461 139.437 91.9436 138.147 93.2928 137.206L93.2994 137.201L93.3109 137.193C94.6206 136.234 96.2035 135.742 98.173 135.738C99.1948 135.738 100.146 135.964 101.059 136.42L101.085 136.433L101.108 136.443C102.079 136.862 102.933 137.459 103.69 138.251C104.463 139.059 105.105 140 105.628 141.112L105.638 141.129C106.15 142.169 106.485 143.33 106.63 144.633L106.729 145.51H107.608V144.525L108.588 144.416C108.419 142.909 108.026 141.517 107.405 140.258L106.522 140.694L107.412 140.276C106.81 138.988 106.043 137.856 105.115 136.888C104.189 135.916 103.104 135.159 101.892 134.636L101.503 135.539L101.944 134.657C100.766 134.068 99.4959 133.767 98.1779 133.769C95.8777 133.766 93.8259 134.373 92.1493 135.607L92.7334 136.4L92.1706 135.592C90.5318 136.734 89.2188 138.304 88.2267 140.243L88.2415 140.215L88.2299 140.237C87.2526 142.108 86.5385 144.233 86.0827 146.606L86.0794 146.621C85.6648 148.974 85.4624 151.401 85.4624 153.905C85.4624 156.306 85.6648 158.657 86.0827 160.954L86.0844 160.967L86.086 160.972C86.5418 163.243 87.2559 165.314 88.2299 167.173C89.2238 169.066 90.5285 170.629 92.1525 171.813L92.1608 171.82L92.169 171.827C93.8456 172.998 95.8843 173.567 98.1763 173.564C101.339 173.587 103.993 172.243 105.752 169.709L104.947 169.141L105.747 169.719C107.534 167.244 108.578 164.042 108.954 160.172L107.973 160.079V161.062H117.164V160.079L116.182 160.009C115.945 163.422 115.333 166.482 114.364 169.197C113.388 171.917 112.114 174.211 110.541 176.088C108.973 177.969 107.16 179.376 105.074 180.358C102.994 181.34 100.713 181.829 98.1763 181.829C95.0122 181.829 92.2035 181.138 89.6976 179.766L89.2238 180.629L89.7157 179.775C87.223 178.336 85.1218 176.386 83.3826 173.89C81.6353 171.387 80.2926 168.447 79.3515 165.046C78.407 161.602 77.9282 157.885 77.9282 153.902C77.9282 149.81 78.407 146.042 79.3515 142.598C80.2943 139.082 81.6418 136.064 83.3859 133.514C85.1268 130.965 87.2296 128.991 89.7157 127.559C92.2151 126.144 95.0188 125.43 98.1763 125.428C100.435 125.428 102.533 125.845 104.511 126.676C106.523 127.513 108.297 128.732 109.865 130.358L109.872 130.365L109.885 130.378C111.476 131.944 112.799 133.92 113.847 136.322C114.885 138.71 115.55 141.464 115.83 144.612L116.81 144.525V143.539H107.611V144.525L108.588 144.416L107.608 144.525Z" fill="#866B10"/>
<path d="M406.21 138.991H428.27V128.087H396.175V187.068H406.21V162.696H425.328V152.622H406.21V138.991Z" fill="#E6C777"/>
<path d="M396.175 128.087H395.189V188.053H407.194V163.68H426.312V151.638H407.194V139.975H429.254V127.1H395.189V128.087H396.175V129.071H427.286V138.006H405.225V153.607H424.342V161.711H405.225V186.084H397.159V128.087H396.175V129.071V128.087Z" fill="#866B10"/>
<path d="M165.336 189.99V152.913H160.796V135.891L176.306 137.214L175.925 125.864L194.275 111.115L193.704 106.381L206.946 97.493L210.159 95.41L198.433 92.1949L201.271 91.257L188.029 89.174L190.678 87.471L182.354 85.768L186.708 84.0667L177.247 81.6101L179.705 78.2058L171.011 77.0722L174.032 74.9891L167.982 72.2446C177.747 69.3734 187.109 69.4672 196.07 72.5276L221.415 87.8527L236.451 78.1088L232.76 76.595L229.17 64.3945L232.193 43.0226L232.059 40.4212C234.483 38.0289 237.397 36.163 241.412 34.748C243.574 33.9862 250.335 33.1733 251.838 33.4448C254.828 33.9812 265.86 38.7709 265.86 38.7709L266.239 41.1304L269.549 44.7272L275.887 67.5191L274.946 73.1973L268.983 77.7369L280.427 82.7471L286.008 83.5994L289.954 84.6755L291.777 88.1374L319.612 105.692L320.997 111.586L323.459 111.78L329.983 118.305L330.266 125.678L331.213 127.859L340.105 133.624L341.801 134.758L351.639 134.193V150.456H346.532V190.179V196.67H165.523L165.336 189.99Z" fill="#866B10"/>
<path d="M162.402 137.594V151.115L257.731 153.201L349.558 148.939H349.942V135.704L263.217 144.878L257.353 148.939L251.205 145.441L162.402 137.594Z" fill="#E6C777"/>
<path d="M344.985 195.356H166.971L167.065 151.442V152.817L257.639 154.427L344.985 150.55V195.356Z" fill="#E6C777"/>
<path d="M178.766 137.405L216.781 140.714C216.781 140.714 216.685 138.068 219.05 136.739C221.417 135.416 224.252 132.768 224.252 132.768L223.971 126.245L218.484 116.216C218.484 116.216 225.103 122.274 225.483 122.648C225.858 123.028 226.145 131.352 226.145 131.352C226.145 131.352 231.726 133.336 232.099 134.09C232.481 134.85 240.423 133.808 240.423 133.808L244.209 132.485C244.209 132.485 238.913 129.366 235.604 126.151C232.295 122.936 231.254 119.905 229.266 117.447C227.278 114.99 223.683 111.114 223.683 111.114L221.603 106.286L208.08 100.331L196.572 107.04L196.909 111.954L178.669 126.427L178.766 137.405Z" fill="#E6C777"/>
<path d="M197.299 133.056C197.299 133.056 206.946 126.057 209.498 126.246C210.232 126.302 211.455 126.333 212.822 126.35L214.204 127.77C211.206 128.456 208.035 129.185 206.948 129.461C204.676 130.029 197.299 133.056 197.299 133.056Z" fill="#866B10"/>
<path fill-rule="evenodd" clip-rule="evenodd" d="M211.956 95.7949L221.228 101.559L219.617 101.657L224.158 104.873L222.36 104.683L228.604 111.777L234.653 121.137L239.76 127.477L246.381 132.862L252.148 141.092L253.568 143.17C253.568 143.17 248.464 133.524 247.513 131.353C246.572 129.178 240.234 117.448 238.057 113.197C235.88 108.935 227.846 98.1544 227.846 98.1544L220.183 88.3167L208.266 81.2234L196.07 73.755C190.201 70.9282 176.784 70.6222 172.337 72.6164L176.679 74.9858L173.278 76.5916L181.786 77.3452L178.765 80.9453L190.207 83.6832L185.289 85.4849L193.989 86.617L190.772 88.4121L204.585 90.3981L201.84 92.0089L212.339 94.3733L211.956 95.7949Z" fill="#E6C777"/>
<path d="M224.818 141.375L228.981 135.61C228.981 135.61 231.344 135.985 235.125 135.893C238.911 135.799 241.558 135.232 241.558 135.232L244.392 134.754L251.393 142.606L248.176 143.268L245.435 142.606L230.113 141.848L224.818 141.375Z" fill="#E6C777"/>
<path fill-rule="evenodd" clip-rule="evenodd" d="M223.857 89.2463L240.806 113.141L254.8 144.12L256.686 146.293L260.661 143.17L265.861 127.477L266.902 124.831L266.433 130.308L273.24 126.626L279.95 116.701L276.733 125.348L283.17 124.666L267.85 131.353L265.012 136.836C265.012 136.836 275.507 132.201 277.686 131.923C277.982 131.881 291.816 136.964 294.517 139.488C295.937 140.811 337.833 135.134 337.833 135.134L326.292 126.718C326.292 126.718 322.417 122.651 315.702 122.651C308.986 122.651 303.824 128.227 304.012 128.227L295.556 126.154L302.839 125.107L313.809 120.667L326.723 118.399L321.81 112.973L306.717 112.532L297.355 120.665L303.313 110.737L316.556 105.72L291.303 90.4359L282.459 94.8932L284.304 88.8415L290.166 87.9431L287.747 85.5162L282.221 84.4401L278.084 85.6857V83.1468L272.669 80.7561L266.563 78.7405L267.753 83.3048L265.291 96.9269C265.291 96.9269 255.651 114.992 255.743 114.794C255.649 114.893 255.929 121.512 256.12 121.611C256.472 121.782 250.827 110.256 250.827 110.256L236.451 88.9764L238.911 90.115L239.097 78.8623L239.288 76.6838L237.075 79.2473L229.619 85.1772L223.857 89.2463Z" fill="#E6C777"/>
<path d="M232.703 90.8095L237.433 104.15L232.797 98.472L231.476 93.271L228.922 90.0559L227.311 88.6359L233.838 84.4764L236.677 81.824L232.703 90.8095Z" fill="#866B10"/>
<path d="M265.393 112.15L275.226 91.257L262.932 111.398L261.133 121.423L256.687 133.43L247.99 117.828L243.829 112.249L252.056 128.708L254.042 134.753L256.5 139.108L263.975 121.613L265.393 112.15Z" fill="#866B10"/>
<path d="M275.889 105.35L270.685 116.598L273.24 103.165L281.181 95.8871L275.889 105.35Z" fill="#866B10"/>
<path d="M287.993 109.884C288.564 109.126 298.773 102.032 298.773 102.032L303.17 102.232L305.544 103.653L287.993 109.884Z" fill="#866B10"/>
<path d="M263.592 142.509C263.592 142.509 268.984 137.405 274.659 135.133C274.659 135.133 279.389 136.271 282.604 137.785C285.819 139.292 287.331 140.903 287.331 140.903L263.592 142.509Z" fill="#E6C777"/>
<path d="M198.826 112.135C201.163 112.135 214.525 115.253 214.525 115.253C214.525 115.253 199.016 107.596 199.016 107.309C199.016 107.309 198.632 112.135 198.826 112.135Z" fill="#866B10"/>
<path d="M270.12 93.4256L264.824 104.488L268.888 91.257L277.24 85.8569L270.12 93.4256Z" fill="#866B10"/>
<path d="M243.829 127.947L224.728 100.996L216.022 94.4655L218.2 94.1842L216.084 91.6667L206.281 88.9798L211.899 89.1625L207.923 87.0054L199.38 85.5788L203.305 84.4912L194.444 79.6752L187.275 78.5777L190.3 77.444L188.6 76.5012L217.634 90.3076L226.238 100.333L237.206 117.828L243.829 127.947Z" fill="#866B10"/>
<path d="M264.35 65.0066C261.892 74.6074 255.482 74.6288 255.482 74.6288L261.041 75.0796L261.703 94.3734L255.085 107.898L240.612 89.6462L244.681 74.0381C244.681 74.0381 240.423 68.4635 239.291 60.1395C237.99 50.5848 241.608 45.3376 241.608 45.3376L252.15 46.1422L246.195 47.5589C246.195 47.5589 250.335 48.3125 255.837 48.3125C256.311 48.3125 264.163 45.9991 264.163 45.9991C264.163 45.9991 266.713 55.7858 264.35 65.0066Z" fill="#E6C777"/>
<path d="M233.424 41.8263C234.676 39.0111 238.061 36.8276 243.581 35.2793C244.923 34.9026 250.82 34.2822 253.578 35.1346C257.989 36.2748 261.269 37.6026 263.416 39.1147C257.72 41.0382 250.554 42.2344 244.018 42.389L248.176 40.0246L237.583 43.7169L234.37 48.7221L233.424 41.8263Z" fill="#E6C777"/>
<path d="M236.833 70.7309L238.533 73.5675L233.047 71.4845L230.399 63.4484L233.914 53.9595L234.725 55.544L234.324 62.3345L232.858 61.9346L236.833 70.7309Z" fill="#E6C777"/>
<path d="M270.782 60.4224L270.213 56.072L267.755 68.6494L271.069 64.8683L270.971 71.3001L273.426 67.2327L271.73 58.9103L270.782 60.4224Z" fill="#E6C777"/>
<path d="M247.233 66.7095C247.233 66.7095 249.594 65.9559 251.49 65.6697C253.377 65.3866 257.163 66.6174 257.163 66.6174C255.653 69.171 249.787 69.5462 247.233 66.7095Z" fill="#866B10"/>
<path d="M249.692 62.596V61.6993L250.779 62.1254L251.584 63.0222L249.692 62.596Z" fill="#866B10"/>
<path d="M263.385 52.574L261.015 53.4675C260.837 53.4987 260.629 53.5596 260.41 53.637L261.509 53.7554C260.656 54.5139 259.003 55.2363 257.443 55.3597L255.612 54.1799L256.061 53.9907L256.01 53.9446L254.896 53.8509L255.655 52.523L260.752 51.9126L263.385 52.574Z" fill="#866B10"/>
<path d="M250.07 53.9939L250.162 56.5443L248.512 54.4563L247.423 55.4057C247.423 55.4057 244.928 55.7084 243.308 55.3579C242.316 55.149 242.255 54.3789 242.284 54.0054L241.179 53.7076L243.434 53.5085C242.725 53.2617 240.423 52.7122 240.423 52.7122L243.212 52.0507L249.361 52.62L250.115 53.9906L250.07 53.9939Z" fill="#866B10"/>
<path d="M192.373 118.213L196.972 115.423L206.727 115.265L217.513 124.318L192.373 118.213Z" fill="#866B10"/>
<path d="M164.796 141.955L164.712 140.77L250.205 146.848L251.33 148.113L164.796 141.955Z" fill="#866B10"/>
<path d="M252.291 149.196L253.44 150.489L164.629 145.94L164.545 144.831L252.291 149.196Z" fill="#866B10"/>
<path d="M254.129 151.262L255.302 152.576L164.88 149.581L164.545 148.052L254.129 151.262Z" fill="#866B10"/>
<path d="M264.362 147.755L265.242 146.483L347.918 138.672L347.487 140.257L264.362 147.755Z" fill="#866B10"/>
<path d="M263.098 149.581L264.005 148.268L348.151 142.739L347.996 144.072L263.098 149.581Z" fill="#866B10"/>
<path d="M261.472 151.936L262.394 150.601L348.212 145.955L347.913 147.483L261.472 151.936Z" fill="#866B10"/>
<path d="M195.784 183.283H180.957V176.952H194.283V172.542H180.957V167.009H195.476V162.234H174.909V188.052H195.784V183.283Z" fill="#05642C"/>
<path d="M228.683 183.283H215.28V162.234H209.233V188.052H228.683V183.283Z" fill="#05642C"/>
<path d="M259.771 170.912H265.627C265.443 169.421 265.01 168.095 264.317 166.936C263.623 165.778 262.736 164.814 261.66 164.044C260.605 163.249 259.396 162.644 258.037 162.234C256.701 161.823 255.279 161.619 253.764 161.619C251.656 161.619 249.753 161.971 248.061 162.668C246.391 163.368 244.978 164.33 243.826 165.561C242.669 166.787 241.781 168.235 241.169 169.9C240.553 171.54 240.242 173.327 240.242 175.249C240.242 177.131 240.553 178.892 241.169 180.532C241.781 182.143 242.669 183.558 243.826 184.758C244.978 185.964 246.393 186.918 248.061 187.619C249.753 188.29 251.656 188.629 253.764 188.629C255.457 188.629 257.01 188.389 258.424 187.907C259.832 187.423 261.068 186.727 262.119 185.809C263.172 184.897 264.021 183.788 264.658 182.482C265.305 181.184 265.7 179.728 265.858 178.112H260.002C259.771 179.846 259.131 181.241 258.073 182.303C257.051 183.366 255.612 183.897 253.764 183.897C252.4 183.897 251.248 183.654 250.297 183.176C249.349 182.666 248.574 182.006 247.985 181.185C247.395 180.366 246.959 179.446 246.672 178.438C246.424 177.399 246.291 176.34 246.291 175.251C246.291 174.119 246.424 173.021 246.672 171.963C246.959 170.902 247.393 169.962 247.985 169.143C248.574 168.296 249.349 167.634 250.297 167.154C251.248 166.648 252.4 166.393 253.764 166.393C254.509 166.393 255.21 166.512 255.885 166.757C256.573 166.974 257.19 167.285 257.729 167.697C258.269 168.106 258.72 168.588 259.075 169.143C259.437 169.671 259.666 170.267 259.771 170.912Z" fill="#05642C"/>
<path d="M285.388 176.912H296.521V188.052H302.564V162.234H296.521V172.142H285.388V162.234H279.343V188.052H285.388V176.912Z" fill="#05642C"/>
<path d="M338.122 183.283H323.293V176.952H336.617V172.542H323.293V167.009H337.808V162.234H317.244V188.052H338.122V183.283Z" fill="#05642C"/>
<path d="M233.44 229.629V221.418H240.04V224.597H243.153V221.418H249.805V224.597H252.867V221.418H259.473V224.597H262.537V221.418H269.14V224.597H272.207V221.418H278.808V229.629H274.723V238.553H282.63V244.974H288.824V238.553H302.173V250.815H210.477V238.553H223.823V244.974H230.111V238.553H238.531V229.629H233.44ZM226.074 251.032L287.172 250.836C290.115 272.198 303.02 284.328 325.896 288.78V308.433H186.574V289.365C212.422 282.395 225.59 269.618 226.074 251.032ZM271.223 285.886C271.223 285.886 270.351 276.088 258.101 276.088C245.851 276.088 244.663 286.934 244.663 286.934L244.658 301.116H271.029L271.223 285.886Z" fill="#E6C777"/>
<path d="M275.836 239.699V228.51H237.412V229.629H238.529V230.748H273.6V237.459H268.164V243.883H264.204V237.459H248.622V243.883H244.666V237.459H239.648V229.629H238.529V230.748V229.629H237.412V239.699H242.429L242.432 246.12H250.86V239.699H261.968V246.12H270.4V239.699H275.836Z" fill="#866B10"/>
<path d="M233.44 229.629H234.539V222.517H238.939V224.597V225.698H244.25V222.519H248.704V224.597V225.698H253.964V222.519H258.372V224.597V225.698H263.634V222.517H268.041V224.597V225.698H273.304V222.517H277.704V228.53H233.44V229.629H234.539H233.44V230.728H279.906V220.319H271.106V223.498H270.239V221.418V220.319H261.436V223.498H260.571V221.418V220.319H251.766V223.498H250.902V221.418V220.319H242.052V223.498H241.137V221.418V220.319H232.341V230.728H233.44V229.629Z" fill="#866B10"/>
<path d="M270.121 300.662V300.107H245.405V287.109H244.851L245.402 287.181C245.838 283.874 247.474 281.435 249.726 279.785C251.977 278.138 254.861 277.301 257.737 277.301C260.612 277.301 263.468 278.138 265.667 279.782C267.866 281.429 269.425 283.861 269.765 287.165L270.318 287.109L269.764 287.099L269.563 300.653L270.121 300.662L270.675 300.67L270.876 287.082L270.874 287.049C270.509 283.448 268.758 280.697 266.331 278.89C263.908 277.078 260.826 276.19 257.737 276.188C254.647 276.188 251.541 277.078 249.068 278.885C246.595 280.69 244.77 283.433 244.298 287.033L244.295 287.071V301.215H270.665L270.673 300.668L270.121 300.662Z" fill="#C4014B"/>
<path d="M222.702 246.093H231.229V239.672H242.429L242.432 246.093H250.86V239.672H261.968V246.093H270.4V239.672H281.508L281.51 246.093H289.939V239.672H301.051V249.698H210.476V250.815H211.593H210.476V251.935H303.288V237.436H287.702V243.855H283.746V237.436H268.164V243.855H264.204V237.436H248.622V243.855H244.667V237.436H228.993V243.855H224.94V237.436H209.357V251.935H210.476V250.815H211.593V239.672H222.702V246.093Z" fill="#866B10"/>
<path d="M288.352 291.662H313.159V286.217L311.644 285.59H288.352V291.662ZM315.4 291.662H324.777V289.62C321.447 288.933 318.319 288.081 315.4 287.054V291.662ZM324.777 293.983H301.048V300.27H324.777V293.983ZM301.586 283.268H306.933C305.028 282.199 303.244 281.022 301.586 279.737V283.268ZM291.394 274.739H296.243C294.598 272.875 293.14 270.852 291.87 268.669H291.394V274.739ZM270.904 274.739H289.155V268.669H266.241L271.424 270.777L269.555 273.337L270.904 274.739ZM260.749 268.669H258.639V270.094L260.37 270.099L260.749 268.669ZM256.398 270.086V268.669H253.654L254.152 270.079L256.398 270.086ZM249.155 268.669H226.054V274.739H244.251L245.192 273.691L243.324 271.701L249.155 268.669ZM242.159 277.062H240.947L240.894 278.428H238.655L238.653 277.99V277.062H214.655C212.717 278.716 210.561 280.261 208.185 281.699V283.268H236.716L238.653 277.99L238.655 278.428H240.894V277.062L241.861 277.396L242.159 277.062ZM239.54 285.59H223.083V291.66H235.783V289.865H239.589L239.54 285.59ZM235.783 293.983H213.079V300.27H239.541L239.55 297.703L235.783 297.707V293.983ZM241.422 300.27H243.495V297.837L241.422 297.85V300.27ZM245.371 300.27H270.098V287.293C270.098 285.95 268.711 277.208 257.53 277.208C246.35 277.208 245.369 287.316 245.369 287.316L245.371 300.27ZM271.829 300.27H273.968V297.508H271.829V300.27ZM275.83 300.27H298.808V293.983H279.613V297.307H275.83V300.27ZM286.109 285.59L275.781 285.588V284.345L278.901 283.303L299.346 283.268V277.868L298.477 277.062L276.158 277.029L278.886 283.268L275.781 284.345V285.588L275.783 289.481H279.615V291.66H286.111L286.109 285.59ZM315.784 302.592V307.233H324.779V302.592H315.784ZM313.543 307.235V302.593H280.571V307.235H313.543ZM217.446 307.235H235.196V309.397H245.371V307.235H270.098V302.593H245.371V307.235V309.397H235.196V307.235V302.593H217.446V307.235ZM237.131 307.235H243.495V302.926H237.142L237.131 307.235ZM271.75 307.235H278.692V303.043L271.75 303V307.235ZM187.694 300.27H210.838V293.983H187.694V300.27ZM215.205 302.592H187.694V307.233H215.205V302.592ZM187.694 291.662H188.156V290.01L187.694 290.138V291.662ZM190.397 291.662H220.843V285.592H200.638C197.492 286.979 194.084 288.231 190.395 289.353L190.397 291.662ZM205.429 283.268H205.944V282.99L205.429 283.268ZM217.159 274.739H223.815V268.669H222.016C220.662 270.819 219.042 272.843 217.159 274.739ZM223.354 266.347H241.603V260.276H225.793C225.177 262.39 224.364 264.414 223.354 266.347ZM243.842 266.347H274.248V260.276H243.842V266.347ZM276.489 266.347H290.622C289.673 264.434 288.852 262.41 288.163 260.276H276.489V266.347ZM226.377 257.954H256.14V251.876H227.162C227.061 253.969 226.801 255.998 226.377 257.954ZM258.379 257.954H287.475C286.952 256.013 286.529 253.987 286.206 251.876H258.381L258.379 257.954ZM223.239 249.638H288.144L288.279 250.604C289.731 261.1 293.586 269.199 299.835 275.267C303.16 278.494 307.188 281.152 311.922 283.268C316.096 285.133 320.817 286.572 326.107 287.602L327.013 287.778V309.473H185.456V288.428L186.282 288.205C199.09 284.753 208.667 279.874 215.055 273.673C221.329 267.568 224.595 260.217 224.939 251.389L223.239 249.638ZM277.734 295.443V291.364H271.937L271.86 295.443H277.734ZM273.894 289.483L273.981 285.129L271.756 285.806C271.756 285.806 271.975 286.79 271.967 287.194L271.936 289.485H273.894V289.483ZM274.751 278.508L271.715 279.914L269.734 280.962C270.378 281.885 270.853 282.823 271.243 283.864L276.354 282.181L274.751 278.508ZM268.469 274.828L266.409 277.649C267.286 278.265 267.678 278.612 268.408 279.369L271.406 277.957L268.469 274.828ZM264.599 276.656L266.871 273.826L268.487 271.613L262.532 269.21L262.401 270.109L261.19 275.7C262.427 275.909 263.398 276.228 264.599 276.656ZM258.891 275.362L259.842 271.97L254.978 271.943L256.153 275.43C257.3 275.325 257.889 275.328 258.891 275.362ZM254.161 275.754L251.905 269.367L246.393 272.225L250.816 276.937C252.178 276.32 252.477 276.164 254.161 275.754ZM246.337 275.01L243.76 278.089L247.275 279.374C247.857 278.803 248.359 278.439 249.04 277.96L246.337 275.01ZM240.341 278.844L238.987 282.531L244.191 284.249C244.56 283.13 245.009 282.154 245.799 281.085L242.1 279.484L240.341 278.844ZM243.65 286.164L241.419 285.47L241.503 289.87H243.497V287.143L243.65 286.164ZM243.492 291.745H237.669L237.662 295.826H243.492V291.745Z" fill="#866B10"/>
<path fill-rule="evenodd" clip-rule="evenodd" d="M253.986 334.831L320.418 360.129L321.447 361.569H305.61V382.753H313.631V396.328H305.198L304.993 401.881H313.425V408.257H194.341V402.292H202.156V396.122H194.752V382.547H202.773V361.774H184.057V360.952L253.986 334.831ZM225.397 395.916V401.881H282.78V395.916H225.397Z" fill="#E6C777"/>
<path d="M210.449 383.438V394.506H215.224V383.438H210.449ZM208.22 394.506V383.438H203.445V394.506H208.22ZM217.452 383.438V394.506H222.227V383.438H217.452ZM224.458 383.438V394.506H229.233V383.438H224.458ZM231.461 383.438V394.506H236.236V383.438H231.461ZM238.465 383.438V394.506H243.24V383.438H238.465ZM245.468 383.438V394.506H250.243V383.438H245.468ZM252.474 383.438V394.506H257.249V383.438H252.474ZM259.477 383.438V394.506H264.252V383.438H259.477ZM266.483 383.438V394.506H271.258V383.438H266.483ZM273.485 383.438V394.506H278.26V383.438H273.485ZM280.49 383.438V394.506H285.265V383.438H280.49ZM287.493 383.438V394.506H292.268V383.438H287.493ZM294.499 383.438V394.506H299.274V383.438H294.499ZM301.501 383.438V394.506H306.276V383.438H301.501ZM308.507 383.438V394.506H312.395V383.438H308.507ZM313.862 358.683V359.738H316.57L313.862 358.683ZM311.63 359.738V357.816L306.859 355.958V359.738H311.63ZM306.808 353.536L322.937 359.813L322.531 361.975H307.168V381.332H314.498V396.609H306.191V400.597H314.694V408.67H193.572V400.597H201.172L201.176 396.609H193.768V381.332H200.695V361.975H183.012L182.619 359.808L254.042 332.999L306.808 353.536ZM304.628 359.738V355.091L299.856 353.232V359.736L304.628 359.738ZM297.625 359.736V352.366L292.852 350.507V359.736H297.625ZM290.624 359.736V349.638L285.851 347.781V359.734L290.624 359.736ZM283.621 359.734V346.914L278.846 345.054V359.734H283.621ZM276.618 359.734V344.187L271.843 342.329V359.733L276.618 359.734ZM269.615 359.733V341.462L264.841 339.605V359.733H269.615ZM262.613 359.733V338.736L257.838 336.878V359.731L262.613 359.733ZM255.608 359.731V336.011L254.025 335.394L250.835 336.594V359.733H255.608V359.731ZM248.606 359.731V337.43L243.832 339.221V359.729L248.606 359.731ZM241.604 359.729V340.057L236.831 341.851V359.729H241.604ZM234.6 359.729V342.687L229.828 344.48V359.729H234.6ZM227.597 359.728V345.314L222.824 347.108V359.728H227.597ZM220.595 359.728V347.944L215.821 349.737V359.726L220.595 359.728ZM213.592 359.726V350.573L208.819 352.366V359.728L213.592 359.726ZM206.589 359.724V353.201L201.814 354.994V359.724H206.589ZM199.586 359.724V355.83L194.811 357.623V359.724H199.586ZM192.585 359.723V358.458L189.215 359.723H192.585ZM195.809 402.819V406.434H312.455V402.834L195.809 402.819ZM281.689 396.611H226.645V400.602H281.689V396.611ZM283.884 396.672V400.589H304.02V396.672H283.884ZM203.433 396.672V400.589H224.409V396.672H203.433ZM196.455 383.438L196.437 394.506H201.215V383.438H196.455ZM204.633 362.847V380.484H303.241V362.826L204.633 362.847Z" fill="#866B10"/>
</svg>
