<svg width="512" height="512" viewBox="0 0 512 512" fill="none" xmlns="http://www.w3.org/2000/svg">
<path d="M245.038 17.7013H254.825V4.78418H263.631V17.7013H273.417V26.5079H263.631V32.9118C266.765 34.0064 269.365 36.235 270.941 39.1067C272.831 37.4957 275.281 36.5214 277.959 36.5214C283.937 36.5214 288.786 41.3699 288.786 47.3487C288.786 47.5968 288.777 47.8422 288.76 48.0857C290.426 47.0403 292.395 46.4364 294.505 46.4364C297.935 46.4364 300.991 48.031 302.975 50.5196C303.748 45.298 308.249 41.2906 313.685 41.2906C319.664 41.2906 324.512 46.139 324.512 52.1178C324.512 53.3712 324.3 54.5735 323.907 55.6928C325.885 53.5509 328.716 52.2099 331.861 52.2099C337.555 52.2099 342.225 56.6078 342.656 62.1915C343.525 61.9662 344.436 61.8476 345.376 61.8476C351.355 61.8476 356.203 66.6961 356.203 72.6748C356.203 73.7768 356.037 74.8386 355.731 75.8402C360.156 77.2022 363.372 81.3218 363.372 86.1912C363.372 87.898 362.976 89.5127 362.272 90.9485C365.068 92.9061 366.898 96.1528 366.898 99.8236C366.898 102.33 366.044 104.638 364.613 106.474C366.809 108.455 368.191 111.324 368.191 114.514C368.191 118.708 365.804 122.346 362.316 124.144C362.831 125.379 362.969 126.929 362.72 128.69C362.247 132.049 360.115 135.099 355.928 136.112C351.267 137.245 346.46 137.886 341.657 137.821C342.174 144.226 337.272 151.197 330.918 151.327L336.743 161.243L326.556 163.543C330.034 166.423 330.701 172.027 329.182 176.115C328.435 178.125 327.158 179.773 325.595 181.128C370.062 204.88 400.332 251.743 400.332 305.667C400.332 314.46 399.525 323.064 397.985 331.411C399.006 332.047 400.014 332.689 401.001 333.338C412.529 340.905 422.876 350.111 432.136 360.307V360.315C435.828 364.403 439.634 368.556 443.636 372.822C447.542 376.984 451.505 381.109 455.548 385.178C462.599 392.273 469.733 399.224 477.185 405.905C453.297 412.13 432.394 422.363 412.172 434.549L467.213 490.371L446.726 503.838L391.467 447.724C387.747 450.192 384.023 452.703 380.279 455.244C366.815 464.385 353.267 473.584 338.864 481.886C315.834 495.162 293.253 504.334 272.188 507.899C253.69 511.029 234.834 509.975 217.65 501.901C201.576 484.497 185.25 468.024 164.803 455.662C148.381 452.55 134.204 435.88 126.162 422.645L126.088 422.504C123.38 417.098 119.767 411.523 115.27 405.8C104.634 392.26 91.9402 379.766 77.4303 370.416C67.9778 364.324 63.0427 359.663 59.2287 348.869C56.4555 341.02 52.8312 333.506 49.9714 325.673C47.8778 319.939 46.0415 314.31 44.727 309.386C40.3127 292.849 42.3507 275.964 45.8454 259.403C47.2365 252.813 48.6532 246.1 49.3994 238.889C50.173 231.412 49.6421 223.813 47.377 216.623C35.6047 178.485 44.9815 135.223 54.3793 96.8789C40.4149 99.5353 33.326 81.5143 42.784 71.3977L49.9832 63.6967C63.2552 49.5042 82.9429 65.9325 73.3335 80.8429L176.347 191.474C181.59 187.662 187.104 184.198 192.857 181.126C191.294 179.771 190.017 178.123 189.27 176.113C187.75 172.025 188.418 166.422 191.896 163.541L181.709 161.241L187.534 151.325C181.18 151.195 176.278 144.224 176.795 137.82C171.993 137.885 167.185 137.243 162.523 136.11C158.337 135.098 156.204 132.047 155.73 128.688C155.482 126.928 155.619 125.377 156.134 124.142C152.646 122.344 150.26 118.707 150.26 114.512C150.26 111.322 151.641 108.453 153.837 106.472C152.406 104.636 151.552 102.329 151.552 99.8217C151.552 96.15 153.382 92.9043 156.178 90.9467C155.474 89.5099 155.078 87.8962 155.078 86.1894C155.078 81.32 158.295 77.2003 162.718 75.8384C162.412 74.8368 162.246 73.7749 162.246 72.673C162.246 66.6942 167.095 61.8458 173.074 61.8458C174.013 61.8458 174.924 61.9653 175.794 62.1897C176.225 56.6059 180.894 52.2081 186.588 52.2081C189.733 52.2081 192.564 53.55 194.542 55.691C194.15 54.5717 193.937 53.3694 193.937 52.116C193.937 46.1372 198.786 41.2887 204.764 41.2887C210.199 41.2887 214.701 45.2961 215.474 50.5177C217.458 48.0292 220.515 46.4346 223.944 46.4346C226.055 46.4346 228.023 47.0385 229.688 48.0839C229.672 47.8403 229.664 47.595 229.664 47.3468C229.664 41.3681 234.512 36.5196 240.491 36.5196C243.17 36.5196 245.621 37.4939 247.511 39.1058C249.087 36.235 251.687 34.0055 254.818 32.9109V26.5061H245.032V17.7013H245.038ZM136.374 236.224C142.407 225.579 149.787 215.796 158.277 207.103L59.3071 100.978C64.2714 120.25 71.198 138.027 80.6578 156.066C95.7916 184.926 115.356 211.382 136.374 236.224Z" fill="black"/>
<path d="M88.9189 347.266C72.0582 328.236 76.8428 297.708 80.7335 272.9C81.3073 269.24 81.8619 265.707 82.3262 262.333C83.2585 251.164 83.3972 239.308 82.3518 227.738C81.4295 217.539 79.5868 207.559 76.5573 198.465L76.5427 198.407C75.7035 192.463 75.3842 186.118 75.4699 179.755C75.5648 172.758 76.1496 165.742 77.0709 159.21L77.1639 158.556L76.8894 158.036C68.9238 142.846 60.5459 125.963 56.1846 109.259C48.5948 143.312 41.3655 181.172 51.451 215.358C53.8921 223.108 54.4732 231.265 53.6395 239.324C52.8686 246.768 51.43 253.582 50.0179 260.272C47.3925 272.712 45.5754 283.306 47.346 294.024C49.7807 308.765 59.2031 322.043 69.7831 332.181C75.74 338.006 82.1338 343.07 88.9189 347.266Z" fill="#143C8B"/>
<path d="M327.029 150.554C326.937 150.516 326.847 150.476 326.755 150.434C316.508 145.795 305.668 142.299 294.405 139.96C271.572 135.219 246.882 135.219 224.049 139.96C212.786 142.298 201.946 145.795 191.699 150.434C191.607 150.475 191.517 150.516 191.426 150.554L202.191 151.885L203.006 151.986L202.49 152.623L195.065 161.806C204.784 157.463 215.001 154.076 225.599 151.771C247.666 146.968 270.793 146.984 292.86 151.786C303.312 154.061 313.552 157.411 323.393 161.807L315.967 152.623L315.451 151.986L316.266 151.885L327.029 150.554Z" fill="#FFE24A"/>
<path d="M113.627 358.113C110.27 352.526 107.564 346.26 105.344 339.819C102.981 332.965 101.164 325.901 99.695 319.243C96.4958 305.248 97.7155 291.14 98.9424 276.94C99.6731 268.49 100.406 260.006 100.211 251.523C99.8364 247.913 99.3721 244.262 98.9023 240.58C96.9656 225.363 94.9606 209.596 99.0209 195.12C91.3144 183.603 84.1507 171.738 77.6885 159.554C76.8647 165.739 76.2243 173.247 76.1359 179.762C76.0501 186.08 76.3676 192.381 77.2004 198.288C80.2409 207.425 82.09 217.443 83.0159 227.678C84.0658 239.297 83.9281 251.191 82.994 262.388L82.9912 262.405C82.5297 265.759 81.9714 269.319 81.3939 273.003C77.4066 298.428 72.4751 329.899 91.0362 348.539C96.7339 351.873 102.698 354.602 108.9 356.666C110.462 357.192 112.037 357.674 113.627 358.113Z" fill="white"/>
<path d="M129.368 360.946C122.128 343.969 118.121 325.285 118.121 305.666C118.121 282.353 123.783 260.36 133.8 240.983C121.637 226.635 110.071 211.567 99.5117 195.851C95.6913 210.049 97.6626 225.538 99.5664 240.495C100.038 244.199 100.505 247.871 100.878 251.462L100.879 251.489C101.077 260.034 100.343 268.532 99.6111 276.996C98.3887 291.147 97.1736 305.204 100.348 319.093V319.095C101.81 325.722 103.62 332.759 105.979 339.601C108.267 346.238 111.068 352.68 114.563 358.366C119.373 359.638 124.311 360.507 129.368 360.946Z" fill="#143C8B"/>
<path d="M237.217 484.073C235.853 490.238 233.874 496.379 231.3 502.45C243.697 505.862 257.214 506.111 271.488 503.695C292.043 500.217 314.15 491.226 336.747 478.2C351.01 469.977 364.494 460.823 377.895 451.726C406.174 432.528 433.879 413.651 468.317 403.877C464.346 400.209 460.522 396.312 456.717 392.431C412.582 393.342 377.694 417.87 343.026 442.248C339.492 444.733 335.96 447.216 332.379 449.702L332.363 449.713C317.794 458.491 302.882 467.077 287.152 473.471C271.471 479.844 254.981 484.039 237.217 484.073Z" fill="#143C8B"/>
<path d="M239.461 463.435C239.494 470.079 238.786 476.753 237.364 483.402C254.977 483.344 271.337 479.177 286.9 472.85C302.587 466.474 317.471 457.903 332.015 449.141C335.533 446.699 339.086 444.2 342.641 441.7C377.228 417.38 412.033 392.912 456.077 391.78C454.895 390.575 453.715 389.371 452.53 388.18C448.743 384.368 445.058 380.545 441.45 376.714C428.935 377.644 417.351 380.451 406.253 384.462C394.955 388.546 384.157 393.878 373.391 399.745C352.341 413.073 330.959 426.444 308.703 437.775C286.662 448.998 263.758 458.224 239.461 463.435Z" fill="white"/>
<path d="M233.937 433.161C236.981 441.362 238.748 449.767 239.286 458.255C239.381 459.752 239.436 461.252 239.454 462.753C263.634 457.55 286.442 448.358 308.4 437.178C330.642 425.853 352.006 412.493 373.039 399.175L373.057 399.165C383.855 393.279 394.686 387.931 406.024 383.832C417.017 379.859 428.487 377.061 440.86 376.087L440.535 375.74C436.733 371.688 432.876 367.475 428.988 363.17L428.983 363.174C427.028 361.021 425.022 358.914 422.965 356.857C374.232 358.651 333.376 383.629 293.596 407.952L292.693 408.504L292.672 408.515L291.937 408.894C273.188 418.536 254.579 428.104 233.937 433.161Z" fill="#143C8B"/>
<path d="M227.005 418.543C229.673 423.121 231.901 427.791 233.701 432.531C254.295 427.498 272.893 417.935 291.631 408.299L292.356 407.926L293.248 407.381C332.933 383.117 373.687 358.204 422.321 356.217C418.615 352.548 414.744 349.046 410.706 345.751C397.934 343.525 385.164 343.943 372.885 346.197C358.695 348.801 345.152 353.859 333.002 360.122L332.985 360.129C317.505 367.02 303.022 376.584 288.523 386.159C268.906 399.115 249.255 412.092 227.005 418.543Z" fill="white"/>
<path d="M204.098 391.968C211.975 398.174 219.03 405.885 224.922 415.126C225.518 416.062 226.096 417.003 226.654 417.947C248.874 411.54 268.53 398.56 288.154 385.601C302.669 376.016 317.168 366.441 332.695 359.527L332.697 359.526C344.899 353.236 358.504 348.157 372.763 345.539C384.743 343.34 397.184 342.878 409.643 344.893C406.112 342.064 402.455 339.393 398.666 336.907C395.446 334.793 392.237 332.881 389.069 330.994C385.637 328.95 382.252 326.933 379.047 324.792C377.233 323.581 375.46 322.355 373.72 321.105C325.16 316.659 286.724 342.375 249.372 367.373C244.199 370.835 239.046 374.284 233.892 377.636L233.873 377.648C224.284 383.034 214.525 388.361 204.098 391.968Z" fill="#143C8B"/>
<path d="M186.086 380.96C187.439 381.581 188.78 382.236 190.106 382.927C194.758 385.349 199.23 388.197 203.469 391.476C214.013 387.884 223.865 382.502 233.546 377.064C238.694 373.716 243.838 370.273 249.002 366.818C286.165 341.947 324.397 316.363 372.663 320.341C370.094 318.471 367.59 316.546 365.117 314.545C362.739 312.621 360.369 310.611 357.978 308.491C347.707 308.238 337.093 308.994 326.708 310.545C315.32 312.246 304.21 314.906 294.132 318.237L294.111 318.242C275.069 323.226 258.641 334.775 242.192 346.338C233.257 352.62 224.314 358.906 214.937 364.155C205.633 370.283 195.318 374.725 186.086 380.96Z" fill="white"/>
<path d="M66.8284 335.249C60.7247 329.4 55.2286 322.609 50.942 315.382C51.8561 318.246 52.8805 321.223 53.9752 324.221C56.8395 332.066 60.4711 339.59 63.2488 347.45C66.739 357.33 71.0612 361.241 79.7328 366.829C87.4311 371.79 94.3266 377.48 100.955 383.817C107.704 380.459 114.559 377.9 121.602 375.958C128.759 373.984 135.999 372.811 143.201 372.566C157.773 372.07 172.197 374.731 185.371 380.636C194.692 374.267 205.166 369.796 214.59 363.584L214.609 363.57C223.961 358.335 232.888 352.06 241.806 345.79C258.297 334.197 274.769 322.618 293.922 317.6C304.033 314.258 315.181 311.591 326.609 309.883C336.76 308.367 347.135 307.608 357.206 307.805C355.355 306.149 353.49 304.426 351.596 302.63C348.35 299.548 345.199 296.367 342.169 293.066C339.338 289.98 336.612 286.794 334.012 283.494C312.402 283.273 291.257 289.008 271.917 298.437C256.526 305.94 242.115 315.318 228.761 326.018C214.625 337.342 201.415 347.517 184.561 354.869C174.651 359.192 164.159 362.421 152.95 364.239C136.834 366.853 121.644 365.453 107.549 360.702C92.296 355.87 78.5524 347.177 66.8284 335.249Z" fill="#143C8B"/>
<path d="M220.227 498.408C222.505 499.461 224.831 500.388 227.2 501.193C233.23 487.127 235.929 472.696 235.031 458.524C234.135 444.377 229.657 430.465 221.334 417.412C212.563 403.655 201.085 393.455 188.136 386.713C174.372 379.548 158.944 376.289 143.333 376.821C136.486 377.054 129.58 378.176 122.735 380.064C116.456 381.795 110.321 384.029 104.22 386.97C109.773 392.428 114.513 397.934 118.624 403.166C123.243 409.046 126.99 414.831 129.839 420.5C137.452 432.562 150.953 448.216 166.312 451.581C187.1 463.948 204.388 480.595 220.227 498.408Z" fill="white"/>
<path d="M406.552 437.767L457.205 489.318L447.606 495.627L396.967 444.204L406.552 437.767Z" fill="#FFE24A"/>
<path d="M64.8206 81.0793L171.237 195.366C168.345 197.676 165.547 200.101 162.846 202.629L56.9143 89.0412C53.8046 91.1201 50.0581 91.5626 47.128 88.6325C43.3933 84.8979 43.8577 79.6124 47.4646 75.7537L54.6639 68.0527C58.2708 64.194 63.7095 63.165 67.4451 66.8996C71.1797 70.6343 69.9218 75.6223 66.3139 79.4811L64.8206 81.0793Z" fill="#FFE24A"/>
<path d="M319.105 177.874C320.84 176.957 322.534 175.684 323.202 173.886C323.722 172.486 323.897 169.051 322.176 168.261C312.36 163.756 302.068 160.338 291.509 158.04C270.291 153.422 248.169 153.408 226.95 158.026C216.238 160.357 205.97 163.813 196.278 168.261C194.557 169.051 194.733 172.486 195.253 173.886C195.92 175.684 197.614 176.956 199.349 177.874C217.528 169.339 237.819 164.561 259.227 164.561C280.635 164.561 300.927 169.338 319.105 177.874Z" fill="#FFE24A"/>
<path d="M237.923 142.092C238.842 143.775 237.966 145.657 236.565 146.717C235.65 147.41 234.563 147.744 233.421 147.997L219.799 151.007C218.403 151.315 216.934 151.447 215.506 150.795C213.188 149.735 212.628 147.26 214.285 145.318C215.275 144.158 216.636 143.606 218.074 143.33L231.861 140.279C233.958 139.817 236.752 139.946 237.923 142.092Z" fill="black"/>
<path d="M231.898 140.74L218.144 143.769C216.842 144.056 215.571 144.493 214.622 145.605C213.159 147.32 213.644 149.455 215.69 150.391C216.976 150.979 218.401 150.894 219.699 150.607L233.344 147.586C234.351 147.374 235.348 147.049 236.182 146.45C237.445 145.544 238.353 143.901 237.568 142.369C236.514 140.314 233.819 140.316 231.898 140.74Z" fill="#EC1D24"/>
<path d="M162.368 384.766C162.484 384.652 162.596 384.548 162.713 384.439C165.77 387.356 168.886 390.293 172.044 393.294C175.271 396.35 178.552 399.465 181.896 402.63C181.737 402.819 181.581 403.011 181.421 403.2C176.181 398.735 171.461 395.639 167.748 393.984C164.035 392.342 161.255 392.083 159.945 393.378C157.904 395.363 160.307 400.273 164.293 404.331C165.634 405.7 166.808 406.697 168.083 407.615C169.739 408.706 171.558 409.57 173.574 410.25C175.13 410.85 177.836 411.276 181.878 411.906C184.78 412.352 187.447 412.962 189.845 413.691C192.246 414.431 194.426 415.339 196.355 416.4C200.175 418.668 204.426 421.852 209.025 426.266C214.856 431.847 219.81 438.082 223.038 443.777C226.396 449.685 227.931 455.027 226.609 458.341C225.752 460.499 224.335 461.511 220.245 461.406C219.106 461.615 218.477 461.882 218.268 462.363C217.847 463.321 218.834 465.985 221.917 470.127C221.778 470.474 221.641 470.811 221.506 471.158C216.349 465.8 211.299 460.533 206.397 455.433C201.617 450.448 196.945 445.571 192.389 440.849C192.551 440.562 192.719 440.298 192.891 440.006C201.071 447.368 207.997 452.244 213.154 454.67C218.325 457.101 221.591 456.996 222.611 454.591C224.099 451.063 219.594 443.439 213.935 437.913C210.354 434.416 207.062 432.337 203.432 430.909C201.425 430.085 199.118 429.763 195.879 429.311C191.21 428.663 187.645 427.844 184.495 426.663C181.344 425.467 178.644 423.945 175.677 421.941C172.963 419.986 169.803 417.327 166.959 414.361C162.102 409.311 158.482 404.063 156.613 399.698C154.805 395.461 154.613 392.029 156.49 390.273C157.132 389.668 158.025 389.32 159.066 389.3C160.793 389.107 164.786 390.109 165.3 389.599C165.812 389.101 165.567 388.357 162.368 384.766Z" fill="#143C8B"/>
<path d="M259.228 51.804C262.691 51.804 265.516 48.9797 265.516 45.516C265.516 42.0523 262.692 39.228 259.228 39.228C255.764 39.228 252.94 42.0523 252.94 45.516C252.94 48.9797 255.765 51.804 259.228 51.804Z" fill="#FFE24A"/>
<path d="M170.771 119.363C171.827 118.718 173.072 118.358 174.291 118.331C175.892 118.294 177.529 118.816 178.794 119.987C179.046 120.22 179.256 120.439 179.417 120.641C179.497 120.741 179.571 120.846 179.64 120.952C179.906 121.317 180.115 121.663 180.278 121.993C183.012 121.588 185.583 120.725 187.96 119.474C190.441 118.168 192.71 116.444 194.729 114.376C193.298 113.201 192.21 111.581 191.703 109.657C191.169 107.625 191.364 105.568 192.128 103.768C192.87 102.02 194.16 100.514 195.846 99.5062C196 97.1836 196.973 95.2534 198.406 93.8193C199.587 92.638 201.065 91.8125 202.636 91.3992C202.708 91.3801 202.779 91.3627 202.851 91.3454C201.916 89.8557 201.375 88.0924 201.375 86.2041C201.375 81.9704 204.093 78.3717 207.881 77.0572C207.064 75.5356 206.602 73.7951 206.602 71.9478C206.602 67.1486 209.725 63.0792 214.05 61.6597C213.659 60.7822 213.383 59.8426 213.237 58.8601C211.253 61.3487 208.197 62.9451 204.768 62.9451C201.623 62.9451 198.791 61.6023 196.812 59.4604C197.204 60.5806 197.418 61.7838 197.418 63.0363C197.418 69.015 192.57 73.8635 186.591 73.8635C185.651 73.8635 184.739 73.7431 183.87 73.5187C183.522 78.015 180.427 81.7406 176.262 83.0222C176.567 84.0239 176.733 85.0875 176.733 86.1895C176.733 89.8612 174.904 93.106 172.107 95.0636C172.81 96.5004 173.208 98.115 173.208 99.8227C173.208 103.013 171.826 105.881 169.63 107.862C171.06 109.698 171.915 112.006 171.915 114.513C171.917 116.257 171.504 117.904 170.771 119.363Z" fill="#EC1D24"/>
<path d="M246.582 92.8342C243.872 91.3399 242.036 88.4564 242.036 85.1441C242.036 81.5919 244.148 78.5332 247.184 77.153C244.148 75.7719 242.036 72.7123 242.036 69.161C242.036 64.4119 245.811 60.5432 250.523 60.3908C250.696 59.0307 251.179 57.7682 251.9 56.6753C250.805 55.9547 249.822 55.0762 248.984 54.0728C246.999 56.5723 243.934 58.1759 240.496 58.1759C238.386 58.1759 236.416 57.5702 234.751 56.5257C234.767 56.7693 234.777 57.0156 234.777 57.2637C234.777 62.0629 231.652 66.1333 227.327 67.5527C227.925 68.8964 228.258 70.3834 228.258 71.9478C228.258 77.0444 224.734 81.3191 219.99 82.4704C220.471 83.6189 220.737 84.8805 220.737 86.2041C220.737 90.4095 218.054 93.989 214.306 95.3254C215.608 95.6146 216.825 96.1838 217.868 96.9848C219.422 98.1762 220.606 99.8711 221.142 101.904C221.722 104.108 221.443 106.339 220.51 108.237C225.735 110.237 231.438 111.001 236.872 110.302C240.918 109.782 244.812 108.435 248.231 106.163C245.924 104.502 244.42 101.794 244.42 98.7344C244.42 96.4867 245.234 94.4269 246.582 92.8342Z" fill="#EC1D24"/>
<path d="M267.934 60.3909C272.646 60.5432 276.419 64.412 276.419 69.1601C276.419 72.7123 274.307 75.7719 271.271 77.1521C274.307 78.5333 276.419 81.5919 276.419 85.1442C276.419 88.4555 274.583 91.34 271.874 92.8342C273.221 94.427 274.034 96.4859 274.034 98.7345C274.034 101.794 272.531 104.503 270.223 106.163C273.642 108.435 277.536 109.782 281.581 110.302C287.016 111.002 292.718 110.237 297.943 108.237C297.01 106.339 296.73 104.108 297.312 101.904C297.846 99.8711 299.031 98.1762 300.585 96.9849C301.628 96.1839 302.845 95.6147 304.147 95.3255C300.399 93.99 297.716 90.4095 297.716 86.2042C297.716 84.8805 297.982 83.6189 298.463 82.4704C293.719 81.3192 290.195 77.0445 290.195 71.9479C290.195 70.3834 290.528 68.8965 291.126 67.5528C286.801 66.1334 283.676 62.0621 283.676 57.2638C283.676 57.0157 283.686 56.7694 283.702 56.5258C282.036 57.5703 280.067 58.176 277.957 58.176C274.519 58.176 271.456 56.5732 269.472 54.0737C268.634 55.0763 267.651 55.9547 266.557 56.6754C267.278 57.7682 267.763 59.0308 267.934 60.3909Z" fill="#EC1D24"/>
<path d="M347.683 119.363C346.627 118.718 345.382 118.358 344.163 118.331C342.562 118.294 340.925 118.816 339.66 119.987C339.408 120.22 339.198 120.439 339.037 120.641C338.956 120.741 338.883 120.846 338.814 120.952C338.548 121.317 338.339 121.663 338.176 121.993C335.442 121.588 332.871 120.725 330.494 119.474C328.012 118.168 325.744 116.444 323.725 114.376C325.156 113.201 326.244 111.581 326.751 109.657C327.285 107.625 327.09 105.568 326.326 103.768C325.584 102.02 324.294 100.514 322.608 99.5062C322.454 97.1836 321.481 95.2534 320.048 93.8193C318.868 92.638 317.389 91.8125 315.818 91.3992C315.746 91.3801 315.675 91.3627 315.603 91.3454C316.538 89.8557 317.079 88.0924 317.079 86.2041C317.079 81.9704 314.361 78.3717 310.573 77.0572C311.39 75.5356 311.852 73.7951 311.852 71.9478C311.852 67.1486 308.729 63.0792 304.404 61.6597C304.794 60.7822 305.071 59.8426 305.217 58.8601C307.201 61.3487 310.257 62.9451 313.686 62.9451C316.83 62.9451 319.663 61.6023 321.641 59.4604C321.25 60.5806 321.036 61.7838 321.036 63.0363C321.036 69.015 325.884 73.8635 331.863 73.8635C332.803 73.8635 333.715 73.7431 334.584 73.5187C334.932 78.015 338.027 81.7406 342.191 83.0222C341.886 84.0239 341.72 85.0875 341.72 86.1895C341.72 89.8612 343.55 93.106 346.346 95.0636C345.643 96.5004 345.245 98.115 345.245 99.8227C345.245 103.013 346.627 105.881 348.823 107.862C347.392 109.698 346.538 112.006 346.538 114.513C346.537 116.257 346.95 117.904 347.683 119.363Z" fill="#EC1D24"/>
<path d="M259.228 64.474C260.866 64.474 262.203 63.1375 262.203 61.4992C262.203 59.8608 260.867 58.5244 259.228 58.5244C257.59 58.5244 256.254 59.8608 256.254 61.4992C256.254 63.1375 257.59 64.474 259.228 64.474Z" fill="#FFE24A"/>
<path d="M259.228 78.2823C260.866 78.2823 262.203 76.9459 262.203 75.3075C262.203 73.6692 260.867 72.3328 259.228 72.3328C257.59 72.3328 256.254 73.6692 256.254 75.3075C256.254 76.9459 257.59 78.2823 259.228 78.2823Z" fill="#FFE24A"/>
<path d="M250.811 81.0244C253.085 81.0244 254.929 82.8689 254.929 85.1431C254.929 85.186 254.929 85.228 254.927 85.2708C253.256 86.163 251.894 87.5587 251.046 89.2545C250.968 89.2591 250.89 89.2618 250.811 89.2618C248.536 89.2618 246.692 87.4173 246.692 85.1431C246.692 82.8689 248.537 81.0244 250.811 81.0244Z" fill="#FFE24A"/>
<path d="M250.811 65.0413C250.944 65.0413 251.075 65.0476 251.206 65.0604C251.791 66.3777 252.693 67.5252 253.813 68.4046C252.278 69.6106 251.155 71.3165 250.689 73.2778C248.471 73.213 246.692 71.3949 246.692 69.1609C246.692 66.8858 248.537 65.0413 250.811 65.0413Z" fill="#FFE24A"/>
<path d="M240.497 53.6358C243.96 53.6358 246.785 50.8115 246.785 47.3478C246.785 43.8841 243.961 41.0598 240.497 41.0598C237.033 41.0598 234.209 43.8841 234.209 47.3478C234.209 50.8115 237.033 53.6358 240.497 53.6358Z" fill="#FFE24A"/>
<path d="M161.091 120.801C164.553 120.801 167.379 117.977 167.379 114.513C167.379 111.05 164.554 108.225 161.091 108.225C157.627 108.225 154.803 111.05 154.803 114.513C154.803 117.977 157.627 120.801 161.091 120.801Z" fill="#FFE24A"/>
<path d="M162.383 106.11C165.846 106.11 168.67 103.285 168.67 99.8226C168.67 96.3598 165.846 93.5347 162.383 93.5347C158.92 93.5347 156.095 96.3598 156.095 99.8226C156.095 103.285 158.919 106.11 162.383 106.11Z" fill="#FFE24A"/>
<path d="M165.908 92.4773C169.371 92.4773 172.196 89.6531 172.196 86.1893C172.196 82.7256 169.372 79.9014 165.908 79.9014C162.444 79.9014 159.62 82.7256 159.62 86.1893C159.621 89.6531 162.445 92.4773 165.908 92.4773Z" fill="#FFE24A"/>
<path d="M173.078 78.9619C176.541 78.9619 179.366 76.1377 179.366 72.674C179.366 69.2102 176.542 66.386 173.078 66.386C169.614 66.386 166.79 69.2102 166.79 72.674C166.79 76.1377 169.614 78.9619 173.078 78.9619Z" fill="#FFE24A"/>
<path d="M186.594 69.3242C190.057 69.3242 192.882 66.5 192.882 63.0363C192.882 59.5725 190.057 56.7483 186.594 56.7483C183.13 56.7483 180.306 59.5725 180.306 63.0363C180.306 66.5 183.13 69.3242 186.594 69.3242Z" fill="#FFE24A"/>
<path d="M204.771 58.4048C208.234 58.4048 211.059 55.5806 211.059 52.1168C211.059 48.6531 208.234 45.8289 204.771 45.8289C201.307 45.8289 198.483 48.6531 198.483 52.1168C198.483 55.5806 201.307 58.4048 204.771 58.4048Z" fill="#FFE24A"/>
<path d="M223.949 63.5515C227.413 63.5515 230.237 60.7273 230.237 57.2636C230.237 53.7998 227.413 50.9756 223.949 50.9756C220.487 50.9756 217.661 53.8007 217.661 57.2636C217.661 60.7264 220.487 63.5515 223.949 63.5515Z" fill="#FFE24A"/>
<path d="M217.431 78.2349C220.893 78.2349 223.719 75.4107 223.719 71.9479C223.719 68.4842 220.894 65.6599 217.431 65.6599C213.967 65.6599 211.143 68.4842 211.143 71.9479C211.144 75.4116 213.968 78.2349 217.431 78.2349Z" fill="#FFE24A"/>
<path d="M211.058 91.3453C213.889 91.3453 216.199 89.0365 216.199 86.204C216.199 83.3725 213.889 81.0627 211.058 81.0627C208.226 81.0627 205.916 83.3725 205.916 86.204C205.916 89.0365 208.226 91.3453 211.058 91.3453Z" fill="#FFE24A"/>
<path d="M357.364 120.801C360.827 120.801 363.652 117.977 363.652 114.513C363.652 111.05 360.827 108.225 357.364 108.225C353.901 108.225 351.076 111.05 351.076 114.513C351.077 117.977 353.901 120.801 357.364 120.801Z" fill="#FFE24A"/>
<path d="M356.072 106.11C359.534 106.11 362.36 103.285 362.36 99.8226C362.36 96.3598 359.535 93.5347 356.072 93.5347C352.608 93.5347 349.784 96.3598 349.784 99.8226C349.784 103.285 352.609 106.11 356.072 106.11Z" fill="#FFE24A"/>
<path d="M352.546 92.4773C356.009 92.4773 358.834 89.6531 358.834 86.1893C358.834 82.7256 356.01 79.9014 352.546 79.9014C349.082 79.9014 346.258 82.7256 346.258 86.1893C346.259 89.6531 349.083 92.4773 352.546 92.4773Z" fill="#FFE24A"/>
<path d="M345.377 78.9619C348.84 78.9619 351.665 76.1377 351.665 72.674C351.665 69.2102 348.84 66.386 345.377 66.386C341.914 66.386 339.09 69.2102 339.09 72.674C339.09 76.1377 341.914 78.9619 345.377 78.9619Z" fill="#FFE24A"/>
<path d="M331.861 69.3242C335.324 69.3242 338.149 66.5 338.149 63.0363C338.149 59.5725 335.325 56.7483 331.861 56.7483C328.397 56.7483 325.573 59.5725 325.573 63.0363C325.573 66.5 328.398 69.3242 331.861 69.3242Z" fill="#FFE24A"/>
<path d="M313.685 58.4048C317.148 58.4048 319.973 55.5806 319.973 52.1168C319.973 48.6531 317.148 45.8289 313.685 45.8289C310.222 45.8289 307.397 48.6531 307.397 52.1168C307.397 55.5806 310.221 58.4048 313.685 58.4048Z" fill="#FFE24A"/>
<path d="M277.958 53.6358C281.421 53.6358 284.246 50.8115 284.246 47.3478C284.246 43.8841 281.421 41.0598 277.958 41.0598C274.494 41.0598 271.67 43.8841 271.67 47.3478C271.67 50.8115 274.495 53.6358 277.958 53.6358Z" fill="#FFE24A"/>
<path d="M294.505 63.5515C297.968 63.5515 300.793 60.7273 300.793 57.2636C300.793 53.7998 297.969 50.9756 294.505 50.9756C291.042 50.9756 288.218 53.8007 288.218 57.2636C288.218 60.7264 291.042 63.5515 294.505 63.5515Z" fill="#FFE24A"/>
<path d="M301.024 78.2349C304.487 78.2349 307.312 75.4107 307.312 71.9479C307.312 68.4842 304.488 65.6599 301.024 65.6599C297.561 65.6599 294.736 68.4842 294.736 71.9479C294.736 75.4116 297.561 78.2349 301.024 78.2349Z" fill="#FFE24A"/>
<path d="M307.397 91.3453C310.229 91.3453 312.538 89.0365 312.538 86.204C312.538 83.3725 310.229 81.0627 307.397 81.0627C304.566 81.0627 302.256 83.3725 302.256 86.204C302.256 89.0365 304.566 91.3453 307.397 91.3453Z" fill="#FFE24A"/>
<path d="M267.643 81.0244C265.369 81.0244 263.524 82.8689 263.524 85.1431C263.524 85.186 263.525 85.228 263.526 85.2708C265.197 86.163 266.559 87.5587 267.408 89.2545C267.485 89.2591 267.564 89.2618 267.642 89.2618C269.916 89.2618 271.761 87.4173 271.761 85.1431C271.761 82.8689 269.918 81.0244 267.643 81.0244Z" fill="#FFE24A"/>
<path d="M267.643 65.0413C267.51 65.0413 267.379 65.0476 267.248 65.0604C266.663 66.3777 265.761 67.5252 264.641 68.4046C266.175 69.6106 267.299 71.3165 267.764 73.2778C269.983 73.213 271.762 71.3949 271.762 69.1609C271.763 66.8858 269.918 65.0413 267.643 65.0413Z" fill="#FFE24A"/>
<path d="M221.134 123.582C209.177 126.039 197.633 129.684 186.66 134.476C180.226 137.284 184.068 146.868 189.071 144.603C199.727 139.779 211.011 136.141 222.747 133.704C246.433 128.785 272.021 128.785 295.706 133.704C307.442 136.14 318.726 139.779 329.382 144.603C334.385 146.868 338.228 137.284 331.793 134.476C320.821 129.684 309.277 126.039 297.32 123.582C272.539 118.489 245.916 118.489 221.134 123.582Z" fill="#FFE24A"/>
<path d="M259.227 137.677L270.932 142.355L259.227 147.033L247.523 142.355L259.227 137.677Z" fill="black"/>
<path d="M269.737 142.355L259.227 138.155L248.717 142.355L259.227 146.555L269.737 142.355Z" fill="#143C8B"/>
<path d="M280.531 142.092C279.612 143.775 280.489 145.657 281.889 146.717C282.804 147.41 283.892 147.744 285.034 147.997L298.656 151.007C300.052 151.315 301.521 151.447 302.949 150.795C305.267 149.735 305.827 147.26 304.17 145.318C303.18 144.158 301.819 143.606 300.38 143.33L286.593 140.279C284.497 139.817 281.702 139.946 280.531 142.092Z" fill="black"/>
<path d="M286.557 140.74L300.31 143.769C301.613 144.056 302.883 144.493 303.833 145.605C305.296 147.32 304.811 149.455 302.765 150.391C301.479 150.979 300.054 150.894 298.756 150.607L285.11 147.586C284.105 147.374 283.107 147.049 282.273 146.45C281.01 145.544 280.102 143.901 280.887 142.369C281.94 140.314 284.636 140.316 286.557 140.74Z" fill="#EC1D24"/>
<path d="M191.304 465.468C188.41 462.79 185.41 459.981 182.309 457.1C179.104 454.119 175.778 451.028 172.344 447.824C172.659 447.74 172.979 447.665 173.293 447.577C180.055 453.232 185.256 456.972 189.239 459.254C193.181 461.517 196.097 462.429 198.071 462.231C202.094 461.833 199.5 457.294 195.492 453.187C193.034 450.682 190.606 448.697 188.115 447.363C186.409 446.475 183.656 445.196 180.422 444.065C178.527 443.35 176.657 442.645 174.791 441.941C172.08 440.879 169.61 439.818 167.33 438.707C165.053 437.602 162.931 436.425 160.889 435.126C157.064 432.77 152.756 429.297 148.038 424.893C142.622 419.838 137.303 414.024 133.657 408.751C129.736 403.08 127.692 397.992 129.649 395.372C130.663 393.998 133.022 393.676 135.165 393.636C137.365 393.587 139.345 393.874 139.498 393.685C140.23 392.822 138.689 390.729 135.755 387.157C136.096 386.69 136.445 386.234 136.79 385.763C142.185 391.482 147.351 396.954 152.279 402.157C156.972 407.133 161.494 411.91 165.804 416.468C165.41 416.722 165.023 416.969 164.626 417.213C158.126 411.383 151.364 406.176 145.766 402.802C140.098 399.379 135.85 397.98 134.394 399.697C132.494 401.939 136.731 408.477 142.954 414.464C146.813 418.165 149.819 420.58 152.091 421.8C154.357 423.016 158.456 424.696 163.937 426.671C166.329 427.524 168.756 428.388 171.199 429.271C174.166 430.198 177.219 431.602 180.155 433.458C185.835 436.812 190.959 441.047 195.781 446.191C199.992 450.69 203.278 455.368 204.322 458.9C205.299 462.18 204.34 464.456 200.381 464.769C198.709 464.893 196.333 464.427 193.58 463.568C193.193 463.454 192.813 463.34 192.436 463.226C191.864 463.063 191.303 462.895 191.075 462.924C190.269 462.999 190.888 463.817 192.325 465.385C191.987 465.414 191.642 465.444 191.304 465.468Z" fill="#143C8B"/>
<path d="M213.391 332.616C217.623 329.449 221.811 326.128 226.092 322.698C239.683 311.807 254.383 302.236 270.05 294.599C270.965 294.153 271.883 293.716 272.805 293.288C256.25 277.549 240.334 259.51 232.356 237.945C230.045 231.697 229.016 226.42 229.83 220.253C215.317 222.799 195.688 227.567 182.646 237.528C167.987 248.724 168.166 265.207 174.325 281.892C182.191 303.198 197.054 318.09 213.391 332.616Z" fill="#E6A514"/>
<path d="M127.627 276.859C125.604 286.142 124.528 295.778 124.528 305.667C124.528 325.496 128.816 344.324 136.513 361.279C141.657 361.312 146.915 360.907 152.283 360.035C163.11 358.279 173.26 355.154 182.861 350.966C192.164 346.907 200.314 341.968 208.134 336.446C191.713 321.628 178.125 307.052 169.427 285.395C164.589 273.346 162.084 260.504 165.675 249.797C150.853 256.28 138.549 265.404 127.627 276.859Z" fill="#E6A514"/>
<path d="M265.354 171.111C263.322 171.02 261.28 170.966 259.227 170.966C199.099 170.966 148.167 210.387 130.854 264.785C142.729 253.993 156.34 245.228 171.621 239.823C185.638 223.27 210.596 217.072 231.248 213.648C232.778 209.019 235.567 203.409 239.162 198.342C243.699 191.948 248.645 185.949 254.309 180.45C257.716 177.144 261.376 174.024 265.354 171.111Z" fill="#E6A514"/>
<path d="M326.634 189.032C321.348 185.97 315.831 183.259 310.12 180.928C301.787 184.041 294.563 188.686 288.065 194.283C282.113 199.409 276.731 205.368 271.646 211.699C280.585 217.274 289.243 223.282 297.686 229.621L302.183 223.314C298.997 220.422 295.947 218.306 292.728 216.247C291.281 215.104 290.846 212.533 291.989 211.086C293.131 209.639 295.703 209.298 297.149 210.441C300.032 213.618 303.07 215.779 306.159 217.739L312.127 209.371C309.96 207.508 307.604 205.977 305.161 204.611C303.751 203.638 303.397 201.704 304.37 200.293C305.345 198.883 307.278 198.528 308.688 199.502C310.758 201.488 313.005 203.234 315.424 204.749L320.077 198.224C318.766 197.102 317.366 196.245 315.852 195.699C314.435 194.74 314.065 192.812 315.024 191.396C315.984 189.979 317.911 189.608 319.328 190.568C320.5 191.885 321.828 192.919 323.215 193.823L326.634 189.032Z" fill="#E6A514"/>
<path d="M347.377 203.822C342.57 199.659 337.464 195.831 332.097 192.373L328.184 197.86C329.543 199.137 331.067 200.194 332.636 201.207C333.877 202.389 333.927 204.355 332.745 205.596C331.564 206.839 329.599 206.888 328.356 205.706C327.406 204.319 326.306 203.167 325.084 202.206L320.492 208.645C322.32 210.261 324.221 211.812 326.315 213.195C327.605 214.331 327.73 216.297 326.595 217.586C325.46 218.876 323.493 219.001 322.203 217.867C320.637 215.898 318.956 214.448 317.238 213.207L311.119 221.785C313.874 224.379 316.82 226.669 320.056 229.03C321.437 230.253 321.472 233.215 320.249 234.596C319.027 235.978 316.444 235.634 315.062 234.412C312.61 231.609 310.13 229.325 307.239 227.224L302.768 233.493C310.5 239.472 318.109 245.751 325.637 252.234C331.313 246.014 336.045 239.689 339.655 232.442C343.643 224.442 346.292 215.274 347.377 203.822Z" fill="#E6A514"/>
<path d="M369.584 228.434C364.725 221.504 359.229 215.055 353.183 209.168C351.784 219.332 349.132 227.779 345.387 235.294C340.501 245.098 333.572 253.204 326.089 261.077C316.023 252.332 305.81 243.783 295.174 235.734C284.55 227.695 273.567 220.303 262.187 213.387C268.826 204.855 275.659 196.537 283.886 189.452C289.208 184.869 294.993 180.869 301.423 177.72C293.127 174.984 284.476 173.033 275.556 171.955C269.226 175.848 263.705 180.234 258.764 185.03C253.4 190.238 248.695 195.947 244.368 202.046C239.87 208.383 237.319 214.063 236.431 219.525C235.56 224.887 236.295 230.153 238.363 235.743C246.297 257.192 262.642 275.02 279.156 290.493C295.854 283.565 313.453 279.553 331.612 279.268C339.089 272.946 346.176 265.854 352.596 257.541C359.02 249.222 364.776 239.672 369.584 228.434Z" fill="#E6A514"/>
<path d="M393.927 305.666C393.927 279.649 386.541 255.355 373.759 234.76C369.084 244.898 363.645 253.681 357.651 261.444C351.673 269.185 345.141 275.91 338.262 281.956C352.994 300.181 371.145 315.361 391.256 327.34L392.11 327.848C393.305 320.632 393.927 313.222 393.927 305.666Z" fill="#E6A514"/>
<path d="M325.216 163.337L316.321 152.338L329.943 150.654L336.052 160.936L325.216 163.337ZM193.241 163.337L202.135 152.338L188.514 150.654L182.405 160.936L193.241 163.337Z" fill="#143C8B"/>
<path d="M254.087 91.8105C253.683 93.3841 253.339 93.4078 251.803 93.8028C249.514 94.3921 247.823 96.471 247.823 98.9423C247.823 102.634 252.671 105.37 256.068 104.302C245.504 116.035 227.211 116.375 213.856 109.306C216.579 108.487 218.182 105.647 217.452 102.876C216.823 100.485 214.657 98.9058 212.295 98.9194C210.707 98.9295 210.369 98.9943 209.577 97.5757C206.944 92.8604 199.607 94.7934 199.638 100.196C199.649 101.819 199.322 101.929 197.936 102.703C195.872 103.856 194.767 106.297 195.396 108.688C196.074 111.258 198.523 112.89 201.087 112.614C200.244 113.851 199.329 115.003 198.368 116.068C193.622 121.959 187.333 125.739 179.654 125.919C175.803 126.321 178.028 125.018 176.43 123.019C175.424 121.762 173.252 121.929 172.202 123.064C170.304 125.117 168.763 125.582 165.279 124.735C161.904 123.919 160.653 129.09 164.027 129.907C178.155 133.34 192.773 131.962 202.31 119.633C204.381 117.34 206.266 114.706 207.781 111.757C222.899 121.16 245.555 121.69 259.228 108.766C272.901 121.69 295.557 121.159 310.675 111.757C312.19 114.706 314.075 117.341 316.146 119.633C325.683 131.963 340.301 133.34 354.429 129.907C357.804 129.09 356.551 123.919 353.177 124.735C349.692 125.582 348.152 125.117 346.254 123.064C345.203 121.929 343.031 121.761 342.026 123.019C340.428 125.017 342.653 126.321 338.801 125.919C331.122 125.738 324.832 121.958 320.088 116.068C319.126 115.003 318.211 113.851 317.369 112.614C319.933 112.89 322.382 111.258 323.06 108.688C323.689 106.297 322.584 103.856 320.519 102.703C319.134 101.93 318.808 101.819 318.819 100.196C318.849 94.7944 311.512 92.8604 308.879 97.5757C308.088 98.9943 307.75 98.9295 306.162 98.9194C303.8 98.9058 301.634 100.485 301.004 102.876C300.274 105.647 301.878 108.486 304.6 109.306C291.245 116.376 272.951 116.035 262.389 104.302C265.786 105.37 270.633 102.634 270.633 98.9423C270.633 96.471 268.942 94.3911 266.653 93.8028C265.116 93.4078 264.772 93.3841 264.369 91.8105C263.026 86.598 255.428 86.598 254.087 91.8105Z" fill="#FFE24A"/>
<path d="M259.076 100.917C260.645 100.917 261.926 99.6365 261.926 98.0666C261.926 96.4976 260.645 95.2168 259.076 95.2168C257.507 95.2168 256.226 96.4976 256.226 98.0666C256.227 99.6375 257.507 100.917 259.076 100.917Z" fill="black"/>
<path d="M206.202 107.786C207.776 107.786 209.052 106.51 209.052 104.936C209.052 103.362 207.776 102.086 206.202 102.086C204.628 102.086 203.352 103.362 203.352 104.936C203.352 106.51 204.628 107.786 206.202 107.786Z" fill="black"/>
<path d="M312.252 107.786C313.826 107.786 315.102 106.51 315.102 104.936C315.102 103.362 313.826 102.086 312.252 102.086C310.678 102.086 309.402 103.362 309.402 104.936C309.402 106.51 310.678 107.786 312.252 107.786Z" fill="black"/>
</svg>
