<svg width="512" height="512" viewBox="0 0 512 512" fill="none" xmlns="http://www.w3.org/2000/svg">
<path d="M419.687 113.877C392.588 67.1788 362.009 42.0785 341.13 29.2379C332.874 24.153 326.665 21.2292 323.682 19.8218L322.546 19.2779C320.101 18.0515 317.672 17.4356 315.341 17.4356C310.914 17.4356 307.7 19.6219 306.016 21.8388C299.511 29.237 293.23 33.145 287.836 33.145C284.732 33.145 282.244 31.8582 280.564 30.6021C281.561 27.8485 282.757 24.1035 283.5 20.2747C284.363 15.2736 282.721 12.0544 281.186 10.231C277.605 5.979 272.079 5.979 269.717 5.979C266.262 5.979 262.959 8.02665 260.292 10.4057L257.365 9.90501C256.604 9.77174 255.83 9.77174 255.069 9.90501L252.143 10.4066C249.477 8.02665 246.176 5.9799 242.721 5.9799C240.308 5.9799 234.661 5.9799 231.089 10.3345C229.57 12.1886 227.97 15.4437 228.961 20.4089C229.688 24.1593 230.827 27.8557 231.766 30.5733C230.101 31.842 227.632 33.1459 224.539 33.1459C219.174 33.1459 212.895 29.2199 206.378 21.7911C204.672 19.6165 201.416 17.4365 197.013 17.4365C194.661 17.4365 192.236 18.065 189.874 19.2842L188.645 19.8578C185.861 21.15 180.069 23.8378 172.619 28.4824C151.309 41.395 120.153 66.6952 92.7633 113.858C70.5948 151.774 65.736 188.7 65.564 213.052L65.5667 218.258C65.754 230.748 66.9048 240.447 67.8439 246.439C77.812 306.744 103.447 365.298 144.015 420.427C144.633 421.284 210.58 506.02 256.215 506.02C305.579 506.02 365.873 423.936 368.391 420.469C408.837 365.509 434.415 306.955 444.387 246.584C445.806 239.016 446.712 228.694 446.869 218.155V212.955C446.522 188.556 441.527 151.557 419.687 113.877Z" fill="white"/>
<path d="M257.232 495.872C291.909 497.232 357.966 424.224 393.223 357.165C421.27 303.823 430.596 267.817 431.982 207.573L79.7615 206.887C82.371 275.294 94.8946 316.532 130.759 374.84C166.524 432.993 207.589 491.109 257.232 495.872Z" fill="#FFDF1C"/>
<path d="M256.221 499.251C218.248 499.251 158.617 429.044 149.495 416.465C92.0347 338.379 78.7187 270.702 74.5198 245.339C73.6104 239.5 72.51 230.014 72.3308 218.157V213.049C72.51 187.872 77.8038 152.849 98.6026 117.275C126.149 69.8397 157.158 45.7632 176.126 34.2662C184.889 28.7932 191.093 26.2386 192.911 25.3291C198.575 22.4098 201.124 26.0585 201.124 26.0585C224.656 53.0543 239.617 32.2554 239.617 32.2554C239.617 32.2554 236.876 25.6938 235.609 19.1258C234.329 12.7371 240.161 12.7371 242.721 12.7371C245.455 12.7371 249.839 17.6725 249.839 17.6725L256.222 16.5712L262.604 17.6725C262.604 17.6725 266.983 12.7371 269.723 12.7371C272.277 12.7371 277.936 12.7371 276.834 19.1258C275.56 25.6938 272.636 32.2554 272.636 32.2554C272.636 32.2554 287.781 53.0543 311.32 26.0585C311.32 26.0585 313.688 22.4098 319.521 25.3291C321.345 26.2386 328.099 29.157 337.586 34.9955C356.56 46.6781 386.839 70.7546 413.835 117.274C434.454 152.848 439.742 187.691 440.107 213.048V218.156C439.928 230.012 438.833 239.499 437.739 245.338C433.546 270.7 420.409 338.378 362.943 416.464C354.185 428.5 299.328 499.251 256.221 499.251ZM337.585 52.6977C332.841 45.9442 326.823 38.8315 319.341 31.7134L318.61 33.173C318.61 33.173 328.098 42.6603 337.585 56.8902C347.251 71.3066 356.739 90.454 356.374 109.613C356.374 109.613 359.472 84.0715 337.585 52.6977ZM176.126 56.8911C185.62 42.6603 195.106 33.1739 195.106 33.1739L194.19 31.7143C186.713 38.8324 180.875 45.9451 176.125 52.6986C154.058 84.0724 157.157 109.615 157.157 109.615C156.793 90.454 166.46 71.3066 176.126 56.8911ZM429.166 210.131H393.042V350.817C422.517 288.155 433.192 228.35 429.166 210.131ZM97.5014 171.453H414.934C411.83 165.615 408.36 159.783 404.539 153.759C377.172 112.348 353.64 118.371 353.64 118.371C348.346 114.537 343.052 112.168 337.585 110.887C313.688 105.6 290.149 123.479 287.781 147.376C287.781 147.376 291.059 151.755 288.14 154.308C285.227 156.677 284.132 154.673 284.132 154.673L276.29 146.825C262.604 146.825 256.036 163.795 256.036 163.795C256.036 163.795 249.839 146.825 235.967 146.825L228.31 154.673C228.31 154.673 227.03 156.677 224.297 154.308C221.371 151.754 224.655 147.376 224.655 147.376C222.293 123.838 199.484 106.144 176.125 110.708C170.286 111.797 164.455 114.35 158.802 118.371C158.802 118.371 135.085 112.347 107.903 153.759C103.89 159.783 100.606 165.8 97.5014 171.453ZM121.59 354.125V210.131H83.6361C78.0262 246.446 95.8382 302.286 121.59 354.125ZM199.12 457.846V210.131H160.263V415.834C172.378 431.352 185.681 445.823 199.12 457.846ZM276.655 484.947V347.273C295.32 339.449 308.505 320.939 308.505 299.343C308.505 277.598 295.32 259.057 276.655 251.227V210.131H237.791V250.812C218.502 258.394 204.852 277.208 204.852 299.343C204.852 321.328 218.495 340.111 237.791 347.688V484.65C244.081 487.557 250.123 489.511 255.837 490.347C262.189 490.346 269.216 488.422 276.655 484.947ZM315.506 210.131V456.993C328.865 444.562 342.162 429.632 354.185 413.943V210.131H315.506Z" fill="black"/>
<path d="M393.046 210.13V350.823C393.046 350.823 389.852 357.763 387.725 361.734C376.661 380.912 365.356 399.194 354.206 413.906C354.2 413.914 354.195 413.919 354.189 413.926V210.13H393.046ZM276.659 210.13V251.226C295.324 259.056 308.496 277.591 308.496 299.336C308.496 320.946 295.324 339.449 276.659 347.273V484.754C287.83 479.449 300.99 470.395 315.353 457.137C315.404 457.09 315.458 457.033 315.51 456.985V210.13H276.659ZM199.118 210.13V457.71C200.692 459.142 202.269 460.667 203.84 462.022C216.007 472.51 227.265 479.834 237.796 484.57V347.681C218.494 340.111 204.857 321.329 204.857 299.336C204.857 277.202 218.506 258.395 237.796 250.819V210.13H199.118ZM121.583 210.13V353.892C121.67 354.063 121.746 354.229 121.834 354.399C126.033 362.556 130.554 370.986 135.891 379.674C143.326 391.77 151.375 404.119 160.26 415.75V210.13H121.583Z" fill="#EE3524"/>
<path d="M256.763 243.443C225.976 243.443 201.047 268.38 201.047 299.339C201.047 330.126 225.976 355.061 256.763 355.061C287.37 355.061 312.3 330.12 312.3 299.339C312.3 268.379 287.382 243.443 256.763 243.443Z" fill="#B23428"/>
<path d="M267.781 347.893C263.767 346.043 260.496 342.994 258.708 338.338C260.545 337.763 262.326 336.959 263.984 335.975C274.981 329.481 276.087 316.649 270.645 306.154C270.459 305.789 270.231 305.399 270.008 305.035C276.322 285.337 265.426 276.617 262.08 274.477C264.152 267.605 269.607 263.95 277.764 265.082C289.768 273.159 293.046 292.27 292.91 305.171C292.73 336.65 273.032 345.636 267.781 347.893ZM214.787 329.903C220.168 337.287 227.453 343.193 235.914 346.904C233.861 343.911 232.024 340.379 231.387 337.225C226.94 332.339 221.523 328.764 214.787 329.903ZM204.873 300.911C205.163 310.756 208.23 319.897 213.265 327.628C220.748 325.896 227.724 329.329 232.789 334.925C235.541 332.717 243.618 328.185 257.323 336.107C271.27 332.223 274.375 318.852 268.4 307.318L268.048 306.7C262.685 308.332 236.234 315.11 204.873 300.911ZM213.086 271.123C208.082 278.928 205.089 288.168 204.866 298.119C221.985 306.11 237.669 307.631 249.141 307.124C257.917 306.74 264.75 304.99 267.626 304.124C270.762 294.161 270.087 282.411 260.582 276.529C253.723 279.646 245.671 280.74 239.276 276.201C229.678 280.777 220.153 279.559 213.449 271.575L213.086 271.123ZM254.88 247.274C238.275 247.867 223.661 256.241 214.588 268.907C214.799 269.211 215.071 269.563 215.393 269.946C221.571 277.306 229.574 277.752 238.072 273.942C237.829 270.552 238.51 259.501 254.88 247.274ZM286.955 257.019C279.07 251.311 269.533 247.78 259.217 247.297C251.22 252.752 241.096 261.936 240.583 272.344C240.546 273.08 240.577 273.643 240.614 274.002C240.911 274.224 241.226 274.453 241.523 274.627C247.089 277.942 253.874 276.934 259.52 274.2C261.814 266.185 268.382 261.138 277.263 262.233L277.962 261.571C280.491 259.239 283.602 257.539 286.955 257.019ZM271.314 349.166C292.768 342.858 308.496 322.944 308.496 299.337C308.496 283.282 301.315 268.971 290.034 259.434C286.194 259.088 282.539 260.814 279.756 263.387C283.9 266.411 295.742 277.506 295.434 305.188C295.266 334.521 278.76 345.381 271.159 349.123L271.314 349.166ZM256.763 351.253C260.22 351.253 263.597 350.912 266.868 350.257C262.193 348.148 258.396 344.592 256.472 339.619C256.268 339.076 256.126 338.624 256.033 338.302C248.834 334.227 240.331 331.846 234.047 337.306C234.233 337.981 234.524 338.896 234.975 339.99C235.921 342.297 237.584 345.383 240.424 348.63C245.57 350.338 251.055 351.253 256.763 351.253Z" fill="#D18816"/>
<path d="M97.5051 171.452H414.933C414.933 171.452 427.073 195.078 429.157 210.131H83.6885C83.6885 210.131 88.0737 186.06 97.5051 171.452Z" fill="#0097D7"/>
<path d="M403.145 199.258H409.169V204.367H403.145V199.258ZM387.456 193.603H400.406V189.217H387.456V183.385H402.416V178.821H381.438V204.363H387.456V193.603ZM368.122 204.367H374.146V199.258H368.122V204.367ZM348.418 205.092C351.702 205.092 354.436 204.182 356.625 202.537C358.814 200.713 360.095 198.524 360.638 195.79H354.621C354.256 197.064 353.711 197.979 352.982 198.709C352.072 199.99 350.422 200.533 348.238 200.533C346.228 200.533 344.583 199.804 343.303 198.344C341.85 196.885 341.299 194.881 341.299 191.956C341.299 189.036 341.849 186.847 343.13 185.209C344.404 183.743 346.228 182.834 348.238 182.834C350.421 182.834 352.072 183.384 353.155 184.479C353.711 185.209 354.255 186.118 354.621 187.398H360.638C360.638 185.76 359.908 184.114 358.635 182.655C356.446 179.736 352.982 178.276 348.054 178.276C344.405 178.276 341.486 179.371 339.117 181.56C336.376 183.928 334.911 187.398 334.911 191.776C334.911 195.975 336.198 199.254 338.566 201.628C340.936 203.997 344.22 205.092 348.418 205.092ZM280.011 204.367H286.029V178.824H280.011V204.367ZM260.301 205.092C263.585 205.092 266.319 204.182 268.514 202.537C270.71 200.713 271.984 198.524 272.528 195.79H266.511C266.146 197.064 265.595 197.979 265.045 198.709C263.95 199.99 262.305 200.533 260.122 200.533C258.118 200.533 256.48 199.804 255.199 198.344C253.739 196.885 253.189 194.881 253.189 191.956C253.189 189.036 253.739 186.847 255.014 185.209C256.288 183.743 258.118 182.834 260.122 182.834C262.305 182.834 263.951 183.384 265.045 184.479C265.595 185.209 266.145 186.118 266.511 187.398H272.528C272.528 185.76 271.798 184.114 270.519 182.655C268.33 179.736 264.86 178.276 259.937 178.276C256.289 178.276 253.376 179.371 251 181.56C248.266 183.928 246.808 187.398 246.808 191.776C246.808 195.975 248.088 199.254 250.456 201.628C252.824 203.997 256.108 205.092 260.301 205.092ZM221.624 186.116L233.671 204.367H239.874V178.824H234.216V196.704L222.36 178.824H215.978V204.367H221.625L221.624 186.116ZM209.039 199.804H193.169V193.057H207.035V188.672H193.169V183.384H208.309V178.82H187.151V204.362H209.039V199.804ZM181.131 199.804H166.535V178.82H160.332V204.362H181.131V199.804ZM113.629 204.365H119.287L129.318 178.822H122.936L116.547 198.162L110.158 178.822H103.597L113.629 204.365ZM145.743 178.825L155.953 204.368H149.385L147.561 199.074H142.094H136.615L134.611 204.368H128.408L138.804 178.825H142.094H145.743ZM145.922 194.695L142.094 184.657L138.254 194.695H142.094H145.922ZM308.644 178.825L319.046 204.368H312.293L310.475 199.074H305.002H299.714L297.698 204.368H291.316L301.718 178.825H305.002H308.644ZM308.83 194.695L305.187 184.657L301.353 194.695H305.002H308.83Z" fill="white"/>
</svg>
