<svg width="512" height="512" viewBox="0 0 512 512" fill="none" xmlns="http://www.w3.org/2000/svg">
<path fill-rule="evenodd" clip-rule="evenodd" d="M255.101 4.7251C261.936 4.7251 267.599 10.3881 267.599 17.3777C267.599 19.4412 267.102 21.3884 266.226 23.1105L267.001 23.0873C273.983 23.0873 279.646 28.7503 279.646 35.7321C279.646 42.7217 273.983 48.3847 267.001 48.3847C264.41 48.3847 262.13 47.5547 260.043 46.2281C260.128 60.6339 271.64 72.2315 285.945 72.2315C298.156 72.2315 308.396 63.7835 311.126 52.4109C309.218 53.0005 306.573 53.241 304.385 52.7367C297.582 51.1619 293.338 44.3741 294.913 37.5707C296.48 30.7595 303.268 26.5161 310.079 28.0909L310.506 28.1918C310.04 26.3222 309.994 24.3207 310.459 22.3115C312.034 15.5081 318.822 11.2647 325.633 12.8395C332.436 14.4066 336.68 21.2022 335.105 28.0056C334.647 30.0148 333.724 31.8068 332.483 33.2885L333.236 33.4359C340.047 35.0107 344.29 41.7985 342.715 48.6019C341.148 55.4131 334.353 59.6565 327.549 58.0817C325.362 57.5775 323.445 56.5379 321.894 55.1338L321.77 55.545C318.55 69.4776 327.2 83.5498 341.179 86.6063C353.32 89.2594 361.077 85.7918 365.15 81.7113C363.118 81.3467 360.977 80.4545 359.192 78.9573C353.84 74.4657 353.141 66.4832 357.633 61.1382C362.125 55.7855 370.107 55.0873 375.452 59.5789L378.703 62.5811C383.132 54.8235 383.776 53.5358 386.034 50.1069C389.866 44.2655 395.723 45.9256 401.944 49.8897L411.634 56.5767L393.427 75.513C393.954 76.6844 394.078 77.9411 394.078 79.2521C394.078 85.4116 389.09 90.3998 382.931 90.3998C381.146 90.3998 379.486 90.3144 377.989 89.5619C367.477 98.3901 352.901 102.331 338.41 98.9874C326.378 96.2102 316.564 88.9258 310.327 79.3375L310.746 78.8022C301.065 84.4109 289.258 86.4977 277.49 83.7825C268.568 81.7268 260.865 77.1808 255.101 71.0601C249.33 77.1808 241.626 81.7268 232.705 83.7825C220.937 86.4977 209.3 85.0238 199.619 79.415L199.464 79.7253C193.235 89.3214 183.817 96.2102 171.785 98.9874C157.294 102.331 142.717 98.3901 132.206 89.5619C130.708 90.3144 129.056 90.3998 127.264 90.3998C121.112 90.3998 116.124 85.4116 116.124 79.2521C116.124 77.9411 116.241 76.6844 116.768 75.513L98.5688 56.5767L108.258 49.8897C114.472 45.9256 120.329 44.2655 124.169 50.1069C126.419 53.5358 127.062 54.8235 131.492 62.5811L134.742 59.5789C140.095 55.0873 148.07 55.7855 152.562 61.1382C157.053 66.4832 156.355 74.4657 151.002 78.9573C149.218 80.4545 147.085 81.3467 145.044 81.7113C149.125 85.7918 156.883 89.2594 169.023 86.6063C182.995 83.5498 191.644 69.4776 188.425 55.545L188.301 55.1338C186.757 56.5379 184.833 57.5775 182.645 58.0817C175.842 59.6565 169.054 55.4131 167.479 48.6019C165.912 41.7985 170.156 35.0107 176.959 33.4359L177.712 33.2885C176.47 31.8068 175.555 30.0148 175.09 28.0056C173.515 21.2022 177.758 14.4066 184.569 12.8395C191.373 11.2647 198.168 15.5081 199.735 22.3115C200.201 24.3207 200.154 26.3222 199.697 28.1918L200.116 28.0909C206.927 26.5161 213.715 30.7595 215.289 37.5707C216.864 44.3741 212.613 51.1619 205.81 52.7367C203.622 53.241 200.977 53.0005 199.068 52.4109C201.807 63.7835 212.039 72.2315 224.257 72.2315C238.554 72.2315 250.067 60.6339 250.152 46.2281C248.065 47.5547 245.784 48.3847 243.201 48.3847C236.212 48.3847 230.548 42.7217 230.548 35.7321C230.548 28.7503 236.212 23.0873 243.201 23.0873L243.969 23.1105C243.092 21.3884 242.596 19.4412 242.596 17.3777C242.596 10.3881 248.259 4.7251 255.101 4.7251Z" fill="#FFE667"/>
<path d="M255.101 4.7251C261.936 4.7251 267.599 10.3881 267.599 17.3777C267.599 19.4412 267.102 21.3884 266.226 23.1106L267.001 23.0873C273.983 23.0873 279.646 28.7503 279.646 35.7321C279.646 42.7217 273.983 48.3847 267.001 48.3847C264.41 48.3847 262.13 47.5547 260.043 46.2281C260.128 60.6339 271.64 72.2315 285.945 72.2315C298.156 72.2315 308.396 63.7835 311.126 52.4109C309.218 53.0005 306.573 53.241 304.385 52.7367C297.582 51.1619 293.338 44.3741 294.913 37.5707C296.48 30.7595 303.268 26.5161 310.079 28.0909L310.506 28.1918C310.04 26.3222 309.994 24.3207 310.459 22.3115C312.034 15.5081 318.822 11.2647 325.633 12.8395C332.436 14.4066 336.68 21.2022 335.105 28.0056C334.647 30.0148 333.724 31.8068 332.483 33.2885L333.236 33.4359C340.047 35.0107 344.29 41.7985 342.715 48.6019C341.148 55.4131 334.353 59.6565 327.549 58.0817C325.362 57.5775 323.445 56.5379 321.894 55.1338L321.77 55.545C318.55 69.4776 327.2 83.5498 341.179 86.6063C353.32 89.2594 361.077 85.7918 365.15 81.7113C363.118 81.3467 360.977 80.4545 359.192 78.9573C353.84 74.4657 353.141 66.4832 357.633 61.1382C362.125 55.7855 370.107 55.0873 375.452 59.5789L378.703 62.5811C383.132 54.8235 383.776 53.5358 386.034 50.1069C389.866 44.2655 395.723 45.9256 401.944 49.8897L411.634 56.5767L393.427 75.513C393.954 76.6844 394.078 77.9411 394.078 79.2521C394.078 85.4116 389.09 90.3998 382.931 90.3998C381.146 90.3998 379.486 90.3144 377.989 89.5619C367.477 98.3901 352.901 102.331 338.41 98.9874C326.378 96.2102 316.564 88.9258 310.327 79.3375L310.746 78.8022C301.065 84.4109 289.258 86.4977 277.49 83.7825C268.568 81.7268 260.865 77.1808 255.101 71.0601C249.33 77.1808 241.626 81.7268 232.705 83.7825C220.937 86.4977 209.3 85.0238 199.619 79.415L199.464 79.7253C193.235 89.3215 183.817 96.2102 171.785 98.9874C157.294 102.331 142.717 98.3901 132.206 89.5619C130.708 90.3144 129.056 90.3998 127.264 90.3998C121.112 90.3998 116.124 85.4116 116.124 79.2521C116.124 77.9411 116.241 76.6844 116.768 75.513L98.5688 56.5767L108.258 49.8897C114.472 45.9256 120.329 44.2655 124.169 50.1069C126.419 53.5358 127.062 54.8235 131.492 62.5811L134.742 59.5789C140.095 55.0873 148.07 55.7855 152.562 61.1382C157.053 66.4832 156.355 74.4657 151.002 78.9573C149.218 80.4545 147.085 81.3467 145.044 81.7113C149.125 85.7918 156.883 89.2594 169.023 86.6063C182.995 83.5498 191.644 69.4776 188.425 55.545L188.301 55.1338C186.757 56.5379 184.833 57.5775 182.645 58.0817C175.842 59.6565 169.054 55.4131 167.479 48.6019C165.912 41.7985 170.156 35.0107 176.959 33.4359L177.712 33.2885C176.47 31.8068 175.555 30.0148 175.09 28.0056C173.515 21.2022 177.758 14.4066 184.569 12.8395C191.373 11.2647 198.168 15.5081 199.735 22.3115C200.201 24.3207 200.154 26.3222 199.697 28.1918L200.116 28.0909C206.927 26.5161 213.715 30.7595 215.289 37.5707C216.864 44.3741 212.613 51.1619 205.81 52.7367C203.622 53.241 200.977 53.0005 199.068 52.4109C201.807 63.7835 212.039 72.2315 224.257 72.2315C238.554 72.2315 250.067 60.6339 250.152 46.2281C248.065 47.5547 245.784 48.3847 243.201 48.3847C236.212 48.3847 230.548 42.7217 230.548 35.7321C230.548 28.7503 236.212 23.0873 243.201 23.0873L243.969 23.1106C243.092 21.3884 242.596 19.4412 242.596 17.3777C242.596 10.3881 248.259 4.7251 255.101 4.7251Z" stroke="#005187" stroke-width="1.18691" stroke-miterlimit="3.864"/>
<path d="M255.404 492.599C367.201 492.599 457.83 401.97 457.83 290.173C457.83 178.376 367.201 87.7466 255.404 87.7466C143.607 87.7466 52.9778 178.376 52.9778 290.173C52.9778 401.97 143.607 492.599 255.404 492.599Z" fill="white"/>
<path d="M255.404 492.599C367.201 492.599 457.83 401.97 457.83 290.173C457.83 178.376 367.201 87.7466 255.404 87.7466C143.607 87.7466 52.9778 178.376 52.9778 290.173C52.9778 401.97 143.607 492.599 255.404 492.599Z" stroke="#005187" stroke-width="1.18691" stroke-miterlimit="3.864"/>
<path d="M60.4561 291.236C60.4561 183.871 147.488 96.8308 254.861 96.8308C362.233 96.8308 449.273 183.871 449.273 291.236C449.273 398.608 362.233 485.648 254.861 485.648C147.488 485.648 60.4561 398.608 60.4561 291.236Z" fill="#005187"/>
<path d="M286.496 110.135L329.915 166.859L376.453 167.045V199.914H355.267L422.851 290.359L276.838 488.022L233.341 488.139L87.2119 289.979L155.929 199.564H132.446V166.603L180.512 166.509L223.474 109.902C223.474 109.902 240.269 107.707 254.527 107.707C266.389 107.707 286.496 110.135 286.496 110.135Z" fill="white"/>
<path d="M197.129 149.675C177.471 149.342 160.242 138.52 151.188 122.578C150.374 121.112 150.087 119.351 150.087 117.559C150.087 113.579 152.298 110.143 155.765 108.467C185.927 94.6586 219.471 86.9631 254.806 86.9631C289.452 86.9631 322.22 94.3639 352.055 107.66L351.861 107.676C355.244 109.289 357.788 112.819 357.788 116.931C357.788 118.831 356.974 121.213 356.066 122.733C346.594 138.854 329.14 149.683 309.164 149.683C306.697 149.683 302.469 149.761 302.469 149.761L197.129 149.675Z" fill="#FFE667"/>
<mask id="mask0_1_2379" style="mask-type:luminance" maskUnits="userSpaceOnUse" x="150" y="86" width="208" height="64">
<path d="M197.129 149.675C177.471 149.342 160.242 138.52 151.188 122.578C150.374 121.112 150.087 119.351 150.087 117.559C150.087 113.579 152.298 110.143 155.765 108.467C185.927 94.6587 219.471 86.9631 254.806 86.9631C289.452 86.9631 322.22 94.3639 352.055 107.66L351.861 107.676C355.244 109.289 357.788 112.819 357.788 116.931C357.788 118.831 356.974 121.213 356.066 122.733C346.594 138.854 329.14 149.683 309.164 149.683C306.697 149.683 302.469 149.761 302.469 149.761L197.129 149.675Z" fill="white"/>
</mask>
<g mask="url(#mask0_1_2379)">
<path d="M253.674 509.511C363.496 509.511 452.524 420.482 452.524 310.661C452.524 200.839 363.496 111.811 253.674 111.811C143.852 111.811 54.824 200.839 54.824 310.661C54.824 420.482 143.852 509.511 253.674 509.511Z" fill="black"/>
</g>
<mask id="mask1_1_2379" style="mask-type:luminance" maskUnits="userSpaceOnUse" x="150" y="86" width="208" height="64">
<path d="M197.129 149.675C177.471 149.342 160.242 138.52 151.188 122.578C150.374 121.112 150.087 119.351 150.087 117.559C150.087 113.579 152.298 110.143 155.765 108.467C185.927 94.6587 219.471 86.9631 254.806 86.9631C289.452 86.9631 322.22 94.3639 352.055 107.66L351.861 107.676C355.244 109.289 357.788 112.819 357.788 116.931C357.788 118.831 356.974 121.213 356.066 122.733C346.594 138.854 329.14 149.683 309.164 149.683C306.697 149.683 302.469 149.761 302.469 149.761L197.129 149.675Z" fill="white"/>
</mask>
<g mask="url(#mask1_1_2379)">
<path d="M253.674 509.511C363.496 509.511 452.524 420.482 452.524 310.661C452.524 200.839 363.496 111.811 253.674 111.811C143.852 111.811 54.824 200.839 54.824 310.661C54.824 420.482 143.852 509.511 253.674 509.511Z" stroke="black" stroke-width="2.29624" stroke-miterlimit="3.864"/>
</g>
<mask id="mask2_1_2379" style="mask-type:luminance" maskUnits="userSpaceOnUse" x="150" y="86" width="208" height="64">
<path d="M197.129 149.675C177.471 149.342 160.242 138.52 151.188 122.578C150.374 121.112 150.087 119.351 150.087 117.559C150.087 113.579 152.298 110.143 155.765 108.467C185.927 94.6587 219.471 86.9631 254.806 86.9631C289.452 86.9631 322.22 94.3639 352.055 107.66L351.861 107.676C355.244 109.289 357.788 112.819 357.788 116.931C357.788 118.831 356.974 121.213 356.066 122.733C346.594 138.854 329.14 149.683 309.164 149.683C306.697 149.683 302.469 149.761 302.469 149.761L197.129 149.675Z" fill="white"/>
</mask>
<g mask="url(#mask2_1_2379)">
<path d="M147.124 109.778C148.598 111.12 137.985 122.408 149.466 131.298C166.168 144.23 166.401 112.548 255.893 112.548C317.232 112.548 341.35 132.865 341.35 132.865L331.079 135.456L321.816 136.2L324.043 129.529L321.079 125.456L317.007 130.274L314.408 130.646L312.189 123.703L309.226 129.901L302.174 133.276L313.252 148.791C335.462 147.589 360.721 126.884 360.721 117.171C360.721 100.252 304.626 84.791 254.729 84.791C207.431 84.791 145.65 108.428 147.124 109.778Z" fill="#FFE667"/>
</g>
<mask id="mask3_1_2379" style="mask-type:luminance" maskUnits="userSpaceOnUse" x="150" y="86" width="208" height="64">
<path d="M197.129 149.675C177.471 149.342 160.242 138.52 151.188 122.578C150.374 121.112 150.087 119.351 150.087 117.559C150.087 113.579 152.298 110.143 155.765 108.467C185.927 94.6587 219.471 86.9631 254.806 86.9631C289.452 86.9631 322.22 94.3639 352.055 107.66L351.861 107.676C355.244 109.289 357.788 112.819 357.788 116.931C357.788 118.831 356.974 121.213 356.066 122.733C346.594 138.854 329.14 149.683 309.164 149.683C306.697 149.683 302.469 149.761 302.469 149.761L197.129 149.675Z" fill="white"/>
</mask>
<g mask="url(#mask3_1_2379)">
<path d="M147.124 109.778C148.598 111.12 137.985 122.408 149.466 131.298C166.168 144.23 166.401 112.548 255.893 112.548C317.232 112.548 341.35 132.865 341.35 132.865L331.079 135.456L321.816 136.2L324.043 129.529L321.079 125.456L317.007 130.274L314.408 130.646L312.189 123.703L309.226 129.901L302.174 133.276L313.252 148.791C335.462 147.589 360.721 126.884 360.721 117.171C360.721 100.252 304.626 84.791 254.729 84.791C207.431 84.791 145.65 108.428 147.124 109.778Z" stroke="black" stroke-width="0.643879" stroke-miterlimit="3.864"/>
</g>
<path d="M197.129 149.675C177.471 149.342 160.242 138.52 151.188 122.578C150.374 121.112 150.087 119.351 150.087 117.559C150.087 113.579 152.298 110.143 155.765 108.467C185.927 94.6586 219.471 86.9631 254.806 86.9631C289.452 86.9631 322.22 94.3639 352.055 107.66L351.861 107.676C355.244 109.289 357.788 112.819 357.788 116.931C357.788 118.831 356.974 121.213 356.066 122.733C346.594 138.854 329.14 149.683 309.164 149.683C306.697 149.683 302.469 149.761 302.469 149.761L197.129 149.675Z" stroke="black" stroke-width="1.18691" stroke-miterlimit="3.864"/>
<path d="M285.759 115.922L417.638 290.235L255.326 509.976L93.0144 289.862L224.8 115.697C224.8 115.697 241.052 113.572 254.837 113.572C266.311 113.572 285.759 115.922 285.759 115.922Z" fill="#FFE667"/>
<mask id="mask4_1_2379" style="mask-type:luminance" maskUnits="userSpaceOnUse" x="93" y="113" width="325" height="397">
<path d="M285.759 115.922L417.638 290.235L255.326 509.976L93.0144 289.862L224.8 115.697C224.8 115.697 241.052 113.572 254.837 113.572C266.311 113.572 285.759 115.922 285.759 115.922Z" fill="white"/>
</mask>
<g mask="url(#mask4_1_2379)">
<path d="M163.539 211.581V369.626L127.031 324.12V257.94L163.539 211.581Z" fill="#E70005"/>
</g>
<mask id="mask5_1_2379" style="mask-type:luminance" maskUnits="userSpaceOnUse" x="93" y="113" width="325" height="397">
<path d="M285.759 115.922L417.638 290.235L255.326 509.976L93.0144 289.862L224.8 115.697C224.8 115.697 241.052 113.572 254.837 113.572C266.311 113.572 285.759 115.922 285.759 115.922Z" fill="white"/>
</mask>
<g mask="url(#mask5_1_2379)">
<path d="M163.539 211.581V369.626L127.031 324.12V257.94L163.539 211.581Z" stroke="#E70005" stroke-width="2.29624" stroke-miterlimit="3.864"/>
</g>
<mask id="mask6_1_2379" style="mask-type:luminance" maskUnits="userSpaceOnUse" x="93" y="113" width="325" height="397">
<path d="M285.759 115.922L417.638 290.235L255.326 509.976L93.0144 289.862L224.8 115.697C224.8 115.697 241.052 113.572 254.837 113.572C266.311 113.572 285.759 115.922 285.759 115.922Z" fill="white"/>
</mask>
<g mask="url(#mask6_1_2379)">
<path d="M198.657 165.664V422.517L235.195 469.202L235.18 117.295L198.657 165.664Z" fill="#E70005"/>
</g>
<mask id="mask7_1_2379" style="mask-type:luminance" maskUnits="userSpaceOnUse" x="93" y="113" width="325" height="397">
<path d="M285.759 115.922L417.638 290.235L255.326 509.976L93.0144 289.862L224.8 115.697C224.8 115.697 241.052 113.572 254.837 113.572C266.311 113.572 285.759 115.922 285.759 115.922Z" fill="white"/>
</mask>
<g mask="url(#mask7_1_2379)">
<path d="M198.657 165.664V422.517L235.195 469.202L235.18 117.295L198.657 165.664Z" stroke="#E70005" stroke-width="2.29624" stroke-miterlimit="3.864"/>
</g>
<mask id="mask8_1_2379" style="mask-type:luminance" maskUnits="userSpaceOnUse" x="93" y="113" width="325" height="397">
<path d="M285.759 115.922L417.638 290.235L255.326 509.976L93.0144 289.862L224.8 115.697C224.8 115.697 241.052 113.572 254.837 113.572C266.311 113.572 285.759 115.922 285.759 115.922Z" fill="white"/>
</mask>
<g mask="url(#mask8_1_2379)">
<path d="M346.928 212.093V368.392L382.814 323.654V258.227L346.928 212.093Z" fill="#E70005"/>
</g>
<mask id="mask9_1_2379" style="mask-type:luminance" maskUnits="userSpaceOnUse" x="93" y="113" width="325" height="397">
<path d="M285.759 115.922L417.638 290.235L255.326 509.976L93.0144 289.862L224.8 115.697C224.8 115.697 241.052 113.572 254.837 113.572C266.311 113.572 285.759 115.922 285.759 115.922Z" fill="white"/>
</mask>
<g mask="url(#mask9_1_2379)">
<path d="M346.928 212.093V368.392L382.814 323.654V258.227L346.928 212.093Z" stroke="#E70005" stroke-width="2.29624" stroke-miterlimit="3.864"/>
</g>
<mask id="mask10_1_2379" style="mask-type:luminance" maskUnits="userSpaceOnUse" x="93" y="113" width="325" height="397">
<path d="M285.759 115.922L417.638 290.235L255.326 509.976L93.0144 289.862L224.8 115.697C224.8 115.697 241.052 113.572 254.837 113.572C266.311 113.572 285.759 115.922 285.759 115.922Z" fill="white"/>
</mask>
<g mask="url(#mask10_1_2379)">
<path d="M311.987 165.881V421.702L275.729 469.582L275.077 116.256L311.987 165.881Z" fill="#E70005"/>
</g>
<mask id="mask11_1_2379" style="mask-type:luminance" maskUnits="userSpaceOnUse" x="93" y="113" width="325" height="397">
<path d="M285.759 115.922L417.638 290.235L255.326 509.976L93.0144 289.862L224.8 115.697C224.8 115.697 241.052 113.572 254.837 113.572C266.311 113.572 285.759 115.922 285.759 115.922Z" fill="white"/>
</mask>
<g mask="url(#mask11_1_2379)">
<path d="M311.987 165.881V421.702L275.729 469.582L275.077 116.256L311.987 165.881Z" stroke="#E70005" stroke-width="2.29624" stroke-miterlimit="3.864"/>
</g>
<path d="M285.759 115.922L417.638 290.235L255.326 509.976L93.0144 289.862L224.8 115.697C224.8 115.697 241.052 113.572 254.837 113.572C266.311 113.572 285.759 115.922 285.759 115.922Z" stroke="#005187" stroke-width="1.18691" stroke-miterlimit="3.864"/>
<path d="M247.53 33.622C247.53 29.2933 251.036 25.7869 255.365 25.7869C259.686 25.7869 263.193 29.2933 263.193 33.622C263.193 37.943 259.686 41.4572 255.365 41.4572C251.036 41.4572 247.53 37.943 247.53 33.622Z" fill="#E70005"/>
<path d="M183.545 41.7288C183.545 37.4078 187.052 33.9014 191.381 33.9014C195.702 33.9014 199.216 37.4078 199.216 41.7288C199.216 46.0575 195.702 49.5639 191.381 49.5639C187.052 49.5639 183.545 46.0575 183.545 41.7288Z" fill="#E70005"/>
<path d="M312.088 41.7288C312.088 37.4078 315.595 33.9014 319.916 33.9014C324.245 33.9014 327.751 37.4078 327.751 41.7288C327.751 46.0575 324.245 49.5639 319.916 49.5639C315.595 49.5639 312.088 46.0575 312.088 41.7288Z" fill="#E70005"/>
<path d="M377.407 82.0991C377.407 77.7782 380.914 74.2717 385.235 74.2717C389.563 74.2717 393.07 77.7782 393.07 82.0991C393.07 86.4278 389.563 89.9343 385.235 89.9343C380.914 89.9343 377.407 86.4278 377.407 82.0991Z" fill="#E70005"/>
<path d="M116.9 82.0991C116.9 77.7782 120.407 74.2717 124.728 74.2717C129.056 74.2717 132.563 77.7782 132.563 82.0991C132.563 86.4278 129.056 89.9343 124.728 89.9343C120.407 89.9343 116.9 86.4278 116.9 82.0991Z" fill="#E70005"/>
<path d="M254.799 91.7107L236.32 98.8476L254.83 107.272L273.409 99.0417L254.799 91.7107Z" fill="#E70005"/>
<path d="M172.328 107.676L157.627 120.965L177.921 122.198L192.327 107.854L172.328 107.676Z" fill="#005187"/>
<path d="M336.874 107.676L351.574 120.965L331.273 122.198L316.875 107.854L336.874 107.676Z" fill="#005187"/>
<path d="M195.36 245C189.177 241.153 184.034 239.656 177.169 239.656C151.933 239.656 133.571 261.664 133.571 291.802C133.571 320.218 152.275 342.661 175.966 342.661C183.002 342.661 188.324 341.163 195.36 337.316V308.256C190.9 312.53 186.431 314.663 181.459 314.663C169.954 314.663 162.235 305.052 162.235 290.941C162.235 277.691 170.303 267.862 181.109 267.862C186.09 267.862 190.038 269.576 195.36 274.06V245Z" fill="black"/>
<path d="M377.081 262.61V240.943H319.125V342.412H345.376V300.63H374.196V278.963H345.376V262.61H377.081Z" fill="black"/>
<path d="M135.255 169.411L135.247 196.903L189.783 196.834L254.442 421.035L316.898 196.834H373.466V169.411H296.542L255.117 320.753L213.389 169.411H135.255Z" fill="black"/>
<path d="M185.958 127.372L191.52 136.107L191.125 143.655L197.082 143.26L213.373 119.529L185.958 127.372Z" fill="#FFE667"/>
<path d="M185.958 127.372L191.52 136.107L191.125 143.655L197.082 143.26L213.373 119.529L185.958 127.372Z" stroke="black" stroke-width="1.09382" stroke-miterlimit="3.864"/>
</svg>
