<svg width="512" height="512" viewBox="0 0 512 512" fill="none" xmlns="http://www.w3.org/2000/svg">
<g clip-path="url(#clip0_2_752)">
<path fill-rule="evenodd" clip-rule="evenodd" d="M372.36 75.501C342.946 29.1098 302.133 0.316608 256.412 0C164.97 0.467675 93 115.408 93 256.072C93 326.319 111.027 390.272 140.456 436.642C169.88 483.013 210.69 511.829 256.411 512C302.132 511.829 342.946 483.013 372.36 436.642C401.792 390.272 419.824 326.319 419.824 256.072C419.824 185.804 401.792 121.87 372.36 75.501Z" fill="#101820"/>
<path fill-rule="evenodd" clip-rule="evenodd" d="M402.033 158.167C393.96 127.963 382.253 100.842 367.854 78.2103C353.305 55.5439 336.219 37.2168 317.396 24.576C298.571 12.1134 278.088 5.17789 256.412 5.17789C234.737 5.17789 214.254 12.1134 195.428 24.576C176.605 37.2168 159.519 55.5439 144.971 78.2103C130.571 100.842 118.865 127.963 110.792 158.167C102.726 188.206 98.2928 221.334 98.2928 256.155C98.2928 325.488 116.183 388.5 144.971 433.801C159.519 456.456 176.605 474.774 195.428 487.416C214.254 499.902 234.737 506.822 256.412 506.822C278.088 506.822 298.571 499.902 317.396 487.416C336.219 474.774 353.305 456.456 367.854 433.801C396.641 388.5 414.531 325.488 414.531 256.155C414.531 221.334 410.098 188.206 402.033 158.167Z" fill="#E4002B"/>
<path fill-rule="evenodd" clip-rule="evenodd" d="M256.412 492.504C175.577 492.026 112.379 385.732 112.379 256.155C112.379 126.427 175.577 20.1127 256.412 19.6568C337.248 20.1127 400.446 126.427 400.446 256.155C400.446 385.732 337.248 492.026 256.412 492.504Z" fill="#101820"/>
<path fill-rule="evenodd" clip-rule="evenodd" d="M256.412 117.029C310.674 117.029 357.723 146.458 381.934 189.745C375.445 154.483 364.217 122.879 349.179 97.3035C325.304 56.7804 292.484 32.1556 256.412 31.9901C220.341 32.1556 187.52 56.7804 163.645 97.3035C148.607 122.879 137.379 154.483 130.891 189.745C155.101 146.458 202.15 117.029 256.412 117.029Z" fill="white"/>
<path fill-rule="evenodd" clip-rule="evenodd" d="M256.412 395.125C202.15 395.125 155.256 365.709 131.053 322.411C137.379 357.684 148.607 389.266 163.645 414.707C175.663 434.877 189.74 451.371 205.559 462.612C221.218 474.01 238.382 480.177 256.412 480.177C274.443 480.177 291.606 474.01 307.266 462.612C323.084 451.371 337.162 434.877 349.179 414.707C364.217 389.266 375.445 357.684 381.772 322.411C357.568 365.709 310.674 395.125 256.412 395.125Z" fill="white"/>
<path fill-rule="evenodd" clip-rule="evenodd" d="M303.803 396.315C294.969 399.273 290.021 405.999 293.498 415.836C295.841 422.522 302.874 426.625 311.532 423.753C314.552 422.709 317.846 420.891 318.901 417.478L319.077 417.568C321.978 426.009 319.077 429.464 315.583 431.213C312.13 432.838 308.949 432.006 306.887 429.583L306.863 429.543L301.045 433.463C304.418 438.382 310.739 439.888 317.71 437.545C325.87 434.816 332.346 427.042 326.903 411.596C324.936 405.947 319.436 391.089 303.803 396.315ZM311.212 416.833C307.838 417.944 303.307 417.962 301.204 411.977C299.198 406.268 303.729 403.565 305.992 402.87C310.596 401.348 313.777 403.387 315.407 407.897C317.071 412.672 314.312 415.78 311.212 416.833Z" fill="#101820"/>
<path fill-rule="evenodd" clip-rule="evenodd" d="M258.937 106.688C268.175 106.688 276.514 102.834 282.276 96.6703L275.442 90.5806C271.351 94.9154 265.474 97.659 258.937 97.659C246.547 97.659 236.492 87.893 236.492 75.8194C236.492 63.6735 246.547 53.8903 258.937 53.8903C265.474 53.8903 271.351 56.6466 275.442 60.9778L282.259 54.8537C276.457 48.7187 268.175 44.8597 258.937 44.8597C241.437 44.8597 227.243 58.7127 227.243 75.8194C227.243 92.8493 241.437 106.688 258.937 106.688Z" fill="#101820"/>
<path fill-rule="evenodd" clip-rule="evenodd" d="M302.555 81.6812L309.325 116.165C310.938 116.835 312.506 117.465 314.113 118.191L323.706 95.2257L333.753 128.46C337.686 130.933 341.544 133.654 345.215 136.512L327.781 79.0995L322.337 74.9103L314.473 93.8462L307.935 63.5423L300.372 58.6267L284.578 109.084C287.536 109.657 290.461 110.295 293.378 111.05L302.555 81.6812Z" fill="#101820"/>
<path fill-rule="evenodd" clip-rule="evenodd" d="M188.578 110.38L216.114 99.7115L219.613 111.042C222.469 110.286 225.398 109.657 228.328 109.084L212.748 58.6267L201.352 65.7685L165.443 138.271C169.957 134.632 174.759 131.247 179.709 128.131L188.578 110.38ZM207.565 72.1739L213.493 91.2789L194.397 98.674L207.565 72.1739Z" fill="#101820"/>
<path fill-rule="evenodd" clip-rule="evenodd" d="M268.232 403.126C258.937 403.912 252.463 409.225 253.34 419.592C253.967 426.563 259.752 432.285 268.87 431.509C272.085 431.27 275.682 430.278 277.591 427.287L277.728 427.377C278.406 436.257 274.69 438.935 270.895 439.693C267.144 440.525 264.283 438.987 262.903 436.136V436.069L256.281 438.52C258.276 443.979 264.072 446.944 271.39 446.368C279.951 445.672 288.192 439.693 286.807 423.434C286.345 417.465 284.721 401.815 268.232 403.126ZM270.318 424.716C266.745 425.034 262.334 424.02 261.781 417.688C261.302 411.606 266.345 410.136 268.768 409.978C273.556 409.584 276.178 412.275 276.594 417.089C277.032 422.133 273.556 424.499 270.318 424.716Z" fill="#101820"/>
<path fill-rule="evenodd" clip-rule="evenodd" d="M232.68 401.6C224.466 400.156 217.277 403.387 216.015 410.575C215.299 414.439 216.798 417.427 220.215 419.751C212.543 421.421 211.561 427.001 211.172 429.105C210.127 434.855 213.045 442.612 225.157 444.755C237.584 446.863 242.882 439.237 243.864 433.943C244.822 428.511 242.788 425.439 238.641 422.619C242.739 421.57 244.933 418.72 245.591 415.106C246.606 409.304 242.38 403.285 232.68 401.6ZM234.683 432.741C234.161 435.642 231.229 438.987 226.408 438.116C222.187 437.396 219.36 434.188 220.101 430.091C220.905 425.587 225.185 424.3 228.573 424.944C233.725 425.748 235.245 429.771 234.683 432.741ZM236.909 414.52C236.362 417.495 233.538 419.314 229.884 418.691C225.895 417.962 223.985 414.843 224.409 412.411C224.971 409.282 227.912 407.595 232.081 408.29C235.042 408.826 237.478 411.31 236.909 414.52Z" fill="#101820"/>
<path fill-rule="evenodd" clip-rule="evenodd" d="M188.001 397.496L186.739 397.068L184.947 402.078L185.007 402.095L184.123 404.516L185.85 405.144C190.41 406.734 193.522 406.734 195.602 405.891L186.209 432.741L195.166 435.698L208.99 396.259L200.851 393.494C200.221 395.324 194.784 399.713 188.001 397.496Z" fill="#101820"/>
<path fill-rule="evenodd" clip-rule="evenodd" d="M345.551 275.88V353.067C368.018 333.497 383.686 306.384 388.433 275.88H345.551Z" fill="white"/>
<path fill-rule="evenodd" clip-rule="evenodd" d="M263.776 385.892C274.85 385.269 285.593 383.269 295.721 380.34V275.88H263.776V385.892Z" fill="white"/>
<path fill-rule="evenodd" clip-rule="evenodd" d="M387.795 231.967C382.269 203.216 367.154 177.856 345.551 159.228V231.967H387.795Z" fill="white"/>
<path fill-rule="evenodd" clip-rule="evenodd" d="M263.776 231.967H295.721V131.822C285.433 128.901 274.85 126.9 263.776 126.279V231.967Z" fill="white"/>
<path fill-rule="evenodd" clip-rule="evenodd" d="M345.551 159.094H345.397C345.449 159.138 345.499 159.184 345.551 159.228V159.094Z" fill="white"/>
<path fill-rule="evenodd" clip-rule="evenodd" d="M139.112 318.546V193.592C128.83 212.252 122.823 233.508 122.823 256.155C122.823 278.651 128.83 299.909 139.112 318.546Z" fill="#E4002B"/>
<path fill-rule="evenodd" clip-rule="evenodd" d="M302.691 134.13V238.897H263.765V268.944L302.691 269.105V378.025C315.641 373.416 327.678 366.769 338.444 358.619V269.105H389.528C390.002 264.778 390.16 260.476 390.16 256.155C390.16 250.307 389.681 244.448 388.89 238.897H338.444V153.539C327.678 145.375 315.641 138.752 302.691 134.13Z" fill="#E4002B"/>
<path fill-rule="evenodd" clip-rule="evenodd" d="M213.934 379.411C222.008 382.033 230.234 383.884 238.929 385.115V127.04C230.234 128.118 222.008 130.132 213.934 132.754V379.411Z" fill="#E4002B"/>
<path fill-rule="evenodd" clip-rule="evenodd" d="M164.107 349.979C171.704 357.069 179.931 363.071 188.939 368.331V143.837C179.931 148.921 171.704 155.073 164.107 162.175V349.979Z" fill="#E4002B"/>
</g>
<defs>
<clipPath id="clip0_2_752">
<rect width="326.558" height="512" fill="white" transform="translate(93)"/>
</clipPath>
</defs>
</svg>
