<svg width="512" height="512" viewBox="0 0 512 512" fill="none" xmlns="http://www.w3.org/2000/svg">
<g clip-path="url(#clip0_2_871)">
<path d="M47.2199 0.146837C47.3007 87.1809 46.3589 174.252 47.8492 261.265C49.8941 321.538 80.2874 376.946 121.485 419.599C158.507 460.066 204.507 493.043 256.148 512C332.558 483.382 397.172 425.75 438.079 355.556C463.128 311.967 466.524 260.61 464.92 211.487C465.006 140.991 464.96 70.4956 464.971 0C325.721 0.0395817 186.47 -0.0783335 47.2199 0.146837Z" fill="#24338A"/>
<path d="M63.2671 16.9912V82.4386H449.029V16.9912H63.2671Z" fill="#FFCF01"/>
<path d="M137.441 97.2272C137.227 137.956 137.346 178.687 137.315 219.417C112.528 219.417 87.7403 219.417 62.9528 219.417C63.182 234.03 62.9872 248.659 63.6869 263.258C88.2297 263.258 112.772 263.258 137.315 263.258C137.315 314.127 137.315 364.995 137.315 415.864C150.936 429.677 165.174 443.03 181.115 454.146C181.608 390.522 181.269 326.887 181.366 263.258C206.049 263.258 230.732 263.258 255.414 263.258C255.414 248.644 255.414 234.03 255.414 219.417C230.732 219.417 206.049 219.417 181.366 219.417C181.338 178.687 181.424 137.956 181.261 97.2272C166.71 96.727 151.993 96.7277 137.441 97.2272Z" fill="#1C1E1C"/>
<path d="M63.2671 97.1223V219.417H137.315L137.42 97.1223H63.2671ZM181.324 158.269L181.366 219.417H255.414V97.1223H181.261L181.324 158.269Z" fill="white"/>
<path d="M286.04 289.437C286.04 395.202 286.103 481.794 286.187 481.877C286.271 481.961 287.152 481.605 288.138 481.059C289.124 480.535 291.242 479.381 292.857 478.521C294.473 477.661 297.682 475.857 299.989 474.536C302.297 473.214 305.884 471.074 307.961 469.816C310.037 468.536 312.806 466.795 314.107 465.956L316.456 464.425V97.1223H286.04L286.04 289.437ZM347.502 269.131C347.502 363.736 347.565 441.141 347.669 441.141C347.753 441.141 349.096 440.05 350.648 438.707C352.2 437.365 355.221 434.722 357.361 432.813C359.5 430.883 364.954 425.618 369.485 421.066L377.708 412.822V97.1223H347.502L347.502 269.131ZM408.124 236.576C408.124 317.902 408.187 375.924 408.313 375.798C408.397 375.693 409.719 373.805 411.229 371.603C412.718 369.4 414.942 366.065 416.138 364.156C417.354 362.247 419.137 359.331 420.123 357.653C421.109 355.975 422.745 353.101 423.773 351.255C424.78 349.409 426.71 345.634 428.073 342.865C429.416 340.096 431.157 336.362 431.933 334.579C432.709 332.796 433.926 329.817 434.66 327.971C435.373 326.125 436.506 323.084 437.156 321.217L438.331 317.797V97.1223H408.124L408.124 236.576Z" fill="#FFCF01"/>
<path d="M63.8965 264.16C63.8965 264.642 64.0434 266.698 64.2112 268.712C64.3789 270.726 64.6727 273.704 64.8615 275.32C65.0294 276.935 65.4488 280.249 65.8054 282.661C66.141 285.095 66.7494 288.912 67.1689 291.157C67.5675 293.401 68.3226 297.135 68.847 299.443C69.3715 301.75 70.0637 304.729 70.4203 306.05C70.7769 307.372 71.4482 309.784 71.9096 311.4C72.3711 313.015 73.2312 315.805 73.7975 317.588C74.3849 319.371 75.4547 322.454 76.1679 324.405C76.9021 326.377 77.9509 329.062 78.4754 330.383C79.0208 331.705 80.1745 334.411 81.0345 336.362C81.8946 338.334 83.7405 342.151 85.104 344.857C86.4675 347.563 88.5442 351.486 89.7189 353.563C90.8726 355.639 92.8864 359.038 94.1659 361.114C95.4455 363.191 97.5222 366.442 98.7808 368.351C100.06 370.26 101.99 373.092 103.081 374.644C104.193 376.197 106.353 379.175 107.906 381.252C109.479 383.329 112.374 387.063 114.346 389.538C116.338 392.013 119.506 395.852 121.373 398.033C123.261 400.236 126.03 403.382 127.519 405.061C129.029 406.739 131.819 409.78 133.728 411.836C135.637 413.892 137.231 415.549 137.273 415.549C137.295 415.549 137.315 381.294 137.315 339.403V263.258H63.8965L63.8965 264.16ZM181.366 358.87L181.345 454.461C187.785 459.055 191.204 461.404 193.113 462.684C195.022 463.942 198.126 465.977 200.035 467.194C201.944 468.389 204.964 470.277 206.747 471.347C208.531 472.417 211.698 474.263 213.775 475.438C215.851 476.612 218.83 478.269 220.382 479.108C221.935 479.948 225.815 481.919 228.983 483.493C232.15 485.066 236.367 487.08 238.317 487.961C240.289 488.842 242.786 489.932 243.876 490.394C244.967 490.855 247.107 491.736 248.596 492.324C250.106 492.932 252.225 493.729 253.316 494.128C254.407 494.526 255.33 494.841 255.372 494.841C255.393 494.841 255.413 442.735 255.413 379.049V263.258H181.366L181.366 358.87Z" fill="white"/>
<path fill-rule="evenodd" clip-rule="evenodd" d="M79.8936 34.9227H81.0646C82.7903 34.9227 84.2695 34.9227 85.3173 35.2925C87.1663 36.1554 87.3512 38.8673 87.3512 40.6547C87.3512 42.2571 87.1047 44.1061 85.9953 45.3388C84.2695 46.6948 81.9275 46.4482 79.8936 46.5099V34.9227ZM79.8936 72.8275V54.8304C83.9614 54.6455 88.3374 55.2002 92.097 53.3512C97.0277 51.0708 98.1988 45.4621 98.1988 40.4698C98.1988 36.7101 97.7057 33.2586 95.1787 30.4235C92.1587 26.972 86.1186 26.6022 81.9275 26.6022H69.046V72.8275H79.8936Z" fill="#24338A"/>
<path fill-rule="evenodd" clip-rule="evenodd" d="M109.264 72.8275L110.558 63.8289H119.064L120.605 72.8275H131.575L121.529 26.6022H108.463L98.3549 72.8275H109.264ZM118.016 55.6933H111.729L114.873 34.9844H114.996L118.016 55.6933Z" fill="#24338A"/>
<path fill-rule="evenodd" clip-rule="evenodd" d="M145.544 34.9227C150.844 34.7995 153.125 35.046 153.125 40.5314C153.125 43.3665 152.385 46.2633 149.242 46.2633H145.544V34.9227ZM145.544 54.5839H149.119C151.646 54.7688 152.509 56.6178 152.817 59.4529C153.125 62.2881 152.878 66.1094 153.063 70.1772C153.125 71.1017 153.371 71.9646 153.68 72.8274H165.513V72.2111C165.02 71.7797 164.712 71.225 164.465 70.6086C163.849 67.6502 163.788 59.6995 163.479 56.0014C163.294 52.7965 161.137 50.7009 158.117 50.023V49.8997C162.678 47.8042 163.849 44.291 163.849 39.3604C163.849 30.1769 159.412 26.6022 150.536 26.6022H134.696V72.8275H145.544V54.5839Z" fill="#24338A"/>
<path fill-rule="evenodd" clip-rule="evenodd" d="M179.728 72.8275L178.742 36.5868H178.866L186.323 72.8275H194.397L202.04 36.5868H202.163L201.054 72.8275H211.408V26.6022H196.246L190.453 53.9059H190.329L184.721 26.6022H169.436V72.8275H179.728Z" fill="#24338A"/>
<path fill-rule="evenodd" clip-rule="evenodd" d="M225.79 72.8275L227.084 63.8289H235.59L237.131 72.8275H248.101L238.055 26.6022H224.989L214.881 72.8275H225.79ZM234.542 55.6933H228.255L231.399 34.9844H231.522L234.542 55.6933Z" fill="#24338A"/>
<path fill-rule="evenodd" clip-rule="evenodd" d="M295.784 42.7502V38.8673C295.784 29.4374 290.237 25.4928 280.992 25.4928C271.069 25.4928 266.446 30.177 266.446 40.2233V59.2064C266.446 68.6364 270.329 73.9369 280.314 73.9369C291.408 73.9369 295.969 68.3899 295.969 60.4391V54.7688H285.121V58.9599C285.121 61.7951 284.813 65.6163 281.115 65.6163C278.28 65.6163 277.232 64.0755 277.232 61.4869L277.294 38.6208C277.294 35.6007 278.095 33.7517 281.485 33.8134C283.519 33.8134 284.936 35.8473 284.936 39.7918V42.7502H295.784Z" fill="#24338A"/>
<path fill-rule="evenodd" clip-rule="evenodd" d="M309.814 72.8275L311.109 63.8289H319.614L321.155 72.8275H332.126L322.079 26.6022H309.013L298.905 72.8275H309.814ZM318.566 55.6933H312.28L315.423 34.9844H315.546L318.566 55.6933Z" fill="#24338A"/>
<path fill-rule="evenodd" clip-rule="evenodd" d="M359.038 72.8275V63.5824H345.786V26.6022H334.939V72.8275H359.038Z" fill="#24338A"/>
<path fill-rule="evenodd" clip-rule="evenodd" d="M391.725 42.7502V38.8673C391.725 29.4374 386.178 25.4928 376.933 25.4928C367.01 25.4928 362.388 30.177 362.388 40.2233V59.2064C362.388 68.6364 366.271 73.9369 376.255 73.9369C387.349 73.9369 391.91 68.3899 391.91 60.4391V54.7688H381.063V58.9599C381.063 61.7951 380.755 65.6163 377.057 65.6163C374.221 65.6163 373.174 64.0755 373.174 61.4869L373.235 38.6208C373.235 35.6007 374.037 33.7517 377.427 33.8134C379.46 33.8134 380.878 35.8473 380.878 39.7918V42.7502H391.725Z" fill="#24338A"/>
<path fill-rule="evenodd" clip-rule="evenodd" d="M408.283 72.8275V26.6022H397.435V72.8275H408.283Z" fill="#24338A"/>
<path fill-rule="evenodd" clip-rule="evenodd" d="M432.403 59.0215C432.403 61.6718 432.156 65.6163 428.643 65.6163C425.13 65.6163 424.699 61.6718 424.699 59.0215V40.0384C424.699 37.2032 425.13 33.8134 428.582 33.8134C432.156 33.8134 432.403 37.2032 432.403 40.0384V59.0215ZM443.25 39.2988C443.25 30.4235 438.135 25.4928 428.643 25.4928C419.152 25.4928 413.851 30.4235 413.851 39.2988V58.097C413.851 68.5131 417.672 73.9369 428.643 73.9369C439.614 73.9369 443.25 68.5131 443.25 58.097V39.2988Z" fill="#24338A"/>
</g>
<defs>
<clipPath id="clip0_2_871">
<rect width="418.256" height="512" fill="white" transform="translate(47)"/>
</clipPath>
</defs>
</svg>
