<svg width="512" height="512" viewBox="0 0 512 512" fill="none" xmlns="http://www.w3.org/2000/svg">
<g clip-path="url(#clip0_2_1236)">
<path d="M320.931 53.9065L324.326 49.95C329.928 58.0164 336.563 71.1537 345.008 76.1019C352.696 80.6105 367.817 85.1293 400.021 85.2111L405.051 85.2213L424.854 111.649C412.749 132.516 401.422 159.649 401.422 184.41C401.422 190.954 402.567 199.961 405.951 211.36L426.602 217.105L421.93 226.572L437.173 233.453L429.444 243.748L443.931 254.718L429.281 265.78C434.822 280.4 441.938 303.311 441.938 322.061C441.938 387.563 388.775 411.026 287.541 428.171L294.708 453.015L267.738 441.37L248.865 461.94L240.635 440.879L208.625 450.51L217.234 426.914C120.754 409.891 69.9834 386.05 69.9834 322.061C69.9834 303.311 77.0888 280.41 82.6402 265.78L68 254.718L82.4766 243.748L74.7578 233.463L89.9909 226.583L85.3392 217.116L105.991 211.37C109.375 199.971 110.52 190.974 110.52 184.421C110.52 159.649 99.1717 132.526 87.0874 111.659L106.89 85.2213L111.91 85.2111C129.28 85.1702 163.059 84.6999 174.56 69.3441C179.212 63.1384 183.169 56.3397 187.616 49.95C206.918 72.4009 223.041 87.45 254.601 87.9101L257.269 87.8283C285.691 87.5216 302.703 75.0897 320.931 53.9065Z" fill="#B2B2B2"/>
<path d="M257.382 98.9618C284.454 98.6551 306.465 87.2252 323.467 67.463C330.869 78.1466 334.355 96.1912 399.99 96.3446L412.841 113.469C412.841 113.469 391.351 150.489 391.351 185.545C391.351 194.297 393.11 206.033 397.986 220.674L412.259 224.64L408.363 232.574L421.654 238.565L415.459 246.856L427.328 255.843L417.125 263.541C422.656 276.709 431.878 303.137 431.878 323.196C431.878 381.562 385.166 403.635 274.751 421.26L279.158 436.544L265.141 430.502L252.331 444.447L246.596 429.766L224.881 436.309L230.749 420.217C124.935 402.755 80.0331 380.427 80.0331 323.196C80.0331 303.137 89.2548 276.709 94.7858 263.541L84.5826 255.843L96.4522 246.856L90.2465 238.565L103.537 232.574L99.6522 224.64L113.924 220.674C118.811 206.033 120.549 194.297 120.549 185.545C120.549 150.489 99.0694 113.469 99.0694 113.469L111.92 96.3344C177.556 96.181 181.042 78.1364 188.444 67.4528C205.436 87.2149 227.457 98.6449 254.529 99.0334L257.382 98.9618Z" fill="#1E1E1C"/>
<path d="M267.891 377.851L280.017 372.31L279.628 341.445L268.127 334.942L241.893 351.249L242.752 362.607" fill="white"/>
<path d="M218.542 339.052L219.524 308.351L213.032 304.722C205.047 314.27 200.232 326.549 200.232 339.952L200.344 343.418L213.43 344.951" fill="white"/>
<path d="M241.147 302.022L227.611 307.318L226.66 336.844L237.497 344.573L263.015 328.696L262.023 313.452" fill="white"/>
<path d="M218.91 381.194L222.09 368.936L211.703 352.803L201.479 351.617C204.004 363.282 210.251 373.577 218.91 381.194Z" fill="white"/>
<path d="M311.014 339.962C311.014 337.907 310.902 335.914 310.687 333.951L298.705 332.509L287.654 340.872L288.042 372.248L297.11 376.46C305.77 366.728 311.014 353.958 311.014 339.962Z" fill="white"/>
<path d="M284.75 293.067C276.295 287.863 266.307 284.847 255.613 284.847C254.141 284.847 252.658 284.898 251.207 285.021L247.649 296.451L268.096 307.646H282.256" fill="white"/>
<path d="M309.164 325.772C306.281 314.976 300.198 305.509 291.988 298.393L289.852 310.907L298.92 324.504" fill="white"/>
<path d="M263.69 394.474L264.19 384.977L238.274 369.263L229.87 370.878L225.903 386.459C234.501 391.898 244.684 395.047 255.603 395.047C258.363 395.047 261.062 394.853 263.69 394.474Z" fill="white"/>
<path d="M171.33 146.696C173.19 146.696 174.703 145.203 174.703 143.353C174.703 141.502 173.19 139.989 171.33 139.989C169.469 139.989 167.966 141.502 167.966 143.353C167.966 145.203 169.469 146.696 171.33 146.696Z" fill="white"/>
<path d="M163.969 125.247C162.118 125.247 160.595 126.739 160.595 128.61C160.595 130.348 161.975 131.79 163.682 131.943C164.235 130.093 165.533 128.579 167.22 127.751C166.842 126.3 165.533 125.247 163.969 125.247Z" fill="white"/>
<path d="M228.674 147.994C228.674 149.845 230.166 151.337 232.037 151.337C233.908 151.337 235.411 149.845 235.411 147.994C235.411 146.144 233.918 144.651 232.037 144.651C230.166 144.651 228.674 146.144 228.674 147.994Z" fill="white"/>
<path d="M156.976 196.484H178.098C177.955 189.083 176.268 171.621 167.189 171.621C158.366 171.621 157.129 186.823 156.976 196.484Z" fill="white"/>
<path d="M230.35 132.557C228.49 132.557 226.977 134.049 226.977 135.92C226.977 137.771 228.49 139.263 230.35 139.263C232.211 139.263 233.714 137.771 233.714 135.92C233.704 134.059 232.211 132.557 230.35 132.557Z" fill="white"/>
<path d="M157.681 134.151C157.681 132.301 156.168 130.788 154.318 130.788C152.457 130.788 150.944 132.301 150.944 134.151C150.944 136.002 152.457 137.495 154.318 137.495C156.168 137.495 157.681 136.002 157.681 134.151Z" fill="white"/>
<path d="M178.098 198.478H156.945C156.935 199.879 156.945 201.106 156.945 202.067C156.945 206.677 157.119 209.53 157.293 211.227H178.098" fill="white"/>
<path d="M149.257 146.236C149.257 148.086 150.75 149.579 152.621 149.579C154.491 149.579 155.994 148.086 155.994 146.236C155.994 144.385 154.502 142.872 152.621 142.872C150.76 142.882 149.257 144.385 149.257 146.236Z" fill="white"/>
<path d="M162.578 153.198C164.439 153.198 165.952 151.705 165.952 149.834C165.952 148.004 164.439 146.491 162.578 146.491C160.718 146.491 159.205 148.004 159.205 149.834C159.205 151.705 160.718 153.198 162.578 153.198Z" fill="white"/>
<path d="M159.133 143.915C160.135 143.332 161.3 142.995 162.568 142.995L164.419 143.24C164.459 141.707 164.981 140.275 165.881 139.14C164.756 138.2 163.928 136.912 163.601 135.44L161.167 134.857C160.881 137.546 159.061 139.764 156.608 140.613C157.743 141.431 158.652 142.586 159.133 143.915Z" fill="white"/>
<path d="M170.307 137.208C172.168 137.208 173.681 135.716 173.681 133.865C173.681 132.015 172.168 130.522 170.307 130.522C168.447 130.522 166.934 132.015 166.934 133.865C166.934 135.716 168.447 137.208 170.307 137.208Z" fill="white"/>
<path d="M223.49 136.615L221.078 137.178C220.74 138.66 219.922 139.938 218.798 140.889C219.687 142.024 220.229 143.434 220.26 144.988L222.09 144.743C223.358 144.743 224.533 145.08 225.545 145.663C226.046 144.324 226.936 143.179 228.081 142.371C225.596 141.533 223.766 139.304 223.49 136.615Z" fill="white"/>
<path d="M207 211.227H229.788L229.87 202.23C229.87 201.249 229.88 199.961 229.87 198.478H207.306" fill="white"/>
<path d="M192.349 157.706C183.772 157.706 181.512 173.665 181.257 180.474L181.124 185.627C181.809 189.604 182.064 193.52 182.126 196.484H203.319C203.35 194.654 203.493 192.589 203.769 190.432C203.289 180.587 201.009 157.706 192.349 157.706Z" fill="white"/>
<path d="M182.136 198.478V211.227H202.951L203.268 198.478" fill="white"/>
<path d="M190.979 94.0033C175.521 110.923 144.503 113.04 122.001 113.847C122.001 113.847 138.655 152.523 138.655 183.368C138.655 193.121 137.265 202.343 135.016 211.227H153.285C153.111 209.315 152.958 206.381 152.958 202.056C152.958 192.047 152.437 167.634 167.189 167.634L168.794 167.746L167.619 165.221L157.354 163.452L157.62 159.659L167.261 158.954L166.474 155.498C165.349 156.265 164.02 156.694 162.558 156.694C159.573 156.694 157.027 154.803 156.066 152.165C155.054 152.748 153.878 153.085 152.61 153.085C148.807 153.085 145.72 150.018 145.72 146.236C145.72 143.23 147.652 140.694 150.351 139.744C148.572 138.507 147.427 136.452 147.427 134.131C147.427 130.338 150.515 127.281 154.318 127.281L157.098 127.864C157.467 124.408 160.39 121.73 163.948 121.73C167.23 121.73 169.96 123.979 170.675 127.015C174.305 127.22 177.188 130.195 177.188 133.865C177.188 135.46 176.646 136.912 175.726 138.077C177.239 139.345 178.21 141.236 178.21 143.353C178.21 146.563 175.981 149.262 172.976 149.998L177.617 155.866L180.449 149.078L184.171 149.62L183.087 160.17C185.213 157.246 188.168 153.699 192.309 153.699C196.347 153.699 199.291 157.676 201.479 161.54L200.436 151.378L204.158 150.857L207 157.645L211.631 151.767C208.636 151.02 206.407 148.331 206.407 145.121C206.407 143.005 207.368 141.114 208.891 139.856C207.971 138.701 207.419 137.229 207.419 135.634C207.419 131.974 210.302 128.988 213.952 128.794C214.657 125.758 217.387 123.488 220.669 123.488C224.227 123.488 227.161 126.187 227.519 129.643L230.31 129.05C234.113 129.05 237.2 132.127 237.2 135.92C237.2 138.241 236.045 140.285 234.276 141.533C236.965 142.463 238.887 145.009 238.887 148.004C238.887 151.797 235.81 154.874 231.996 154.874C230.739 154.874 229.553 154.537 228.541 153.954C227.58 156.582 225.034 158.483 222.039 158.483C220.597 158.483 219.248 158.034 218.143 157.287L217.356 160.743L226.997 161.448L227.263 165.241L216.998 167L215.915 169.331C217.142 168.922 218.481 168.707 219.922 168.707C234.205 168.707 233.816 192.528 233.816 202.251L233.775 211.247H244.97V115.861C224.779 114.082 206.662 107.897 190.979 94.0033Z" fill="white"/>
<path d="M229.819 196.484C229.635 187.109 228.326 172.694 219.984 172.694C209.924 172.694 207.491 188.643 207.327 196.484" fill="white"/>
<path d="M218.736 151.623C218.736 153.474 220.25 154.967 222.1 154.967C223.971 154.967 225.474 153.474 225.474 151.623C225.474 149.773 223.981 148.28 222.1 148.28C220.239 148.27 218.736 149.773 218.736 151.623Z" fill="white"/>
<path d="M220.689 126.985C219.135 126.985 217.816 128.038 217.438 129.479C219.135 130.318 220.434 131.831 220.986 133.671C222.713 133.517 224.063 132.096 224.063 130.328C224.063 128.487 222.56 126.985 220.689 126.985Z" fill="white"/>
<path d="M209.975 145.101C209.975 146.951 211.488 148.444 213.349 148.444C215.209 148.444 216.712 146.951 216.712 145.101C216.712 143.25 215.22 141.758 213.349 141.758C211.488 141.758 209.975 143.261 209.975 145.101Z" fill="white"/>
<path d="M214.361 132.28C212.5 132.28 210.987 133.773 210.987 135.624L212.347 138.323L213.328 138.251L215.741 138.68C216.896 138.139 217.724 136.983 217.724 135.613C217.735 133.773 216.221 132.28 214.361 132.28Z" fill="white"/>
<path d="M380.024 211.932C377.662 202.854 376.21 193.387 376.21 183.378C376.21 152.523 392.875 113.858 392.875 113.858C382.866 113.489 371.201 112.876 359.965 110.811V211.943" fill="#0FA653"/>
<path d="M416.982 322.5C416.982 306.889 412.76 292.433 407.024 278.212H371.088V381.214C397.813 370.112 416.982 353.263 416.982 322.5Z" fill="#0FA653"/>
<path d="M383.684 223.925H131.161C126.06 238.575 119.159 252.397 112.933 266.24H401.902C395.686 252.397 388.765 238.575 383.684 223.925Z" fill="#0FA653"/>
<path d="M107.79 278.263C102.075 292.463 97.8631 306.92 97.8631 322.511C97.8631 351.188 114.538 367.77 138.44 378.883V278.263" fill="#0FA653"/>
<path d="M334.069 211.932V102.049C330.225 99.841 326.779 97.1829 323.886 94.0135C320.758 96.7739 317.537 99.2174 314.214 101.405V211.943" fill="#0FA653"/>
<path d="M289.279 211.932V112.518C282.91 114.246 276.285 115.309 269.435 115.892V211.932" fill="#0FA653"/>
<path d="M188.924 278.222V394.791C202.389 397.95 216.16 400.793 229.338 403.993L231.71 393.892C210.895 384.742 196.357 364.039 196.357 339.952C196.357 307.4 222.887 281.003 255.613 281.003C288.349 281.003 314.889 307.4 314.889 339.952C314.889 365.726 298.266 387.614 275.109 395.64L278.187 405.853C291.743 402.347 306.138 399.32 320.338 396.1V278.222" fill="#0FA653"/>
<path d="M355.272 250.25C352.911 250.25 350.927 245.108 350.927 240.824C350.927 237.655 352.205 236.643 355.272 236.643C358.339 236.643 359.617 237.655 359.617 240.824C359.617 245.118 357.634 250.25 355.272 250.25ZM355.272 255.853C362.623 255.853 366.12 246.825 366.12 240.528C366.12 235.406 363.635 231.102 355.272 231.102C346.899 231.102 344.425 235.406 344.425 240.528C344.425 246.825 347.922 255.853 355.272 255.853ZM336.144 231.623H329.908V255.321H342.881L344.343 249.974H336.144V231.623ZM316.198 250.25C313.846 250.25 311.853 245.108 311.853 240.824C311.853 237.655 313.151 236.643 316.198 236.643C319.275 236.643 320.553 237.655 320.553 240.824C320.553 245.118 318.57 250.25 316.198 250.25ZM316.198 255.853C323.549 255.853 327.055 246.825 327.055 240.528C327.055 235.406 324.571 231.102 316.198 231.102C307.835 231.102 305.351 235.406 305.351 240.528C305.351 246.825 308.857 255.853 316.198 255.853ZM302.703 231.623H296.466V249.985H294.115C292.888 249.985 289.514 249.985 289.514 245.496C289.514 240.507 292.632 234.68 294.002 231.633H287.255C285.047 236.019 283.114 240.63 283.114 245.599C283.114 251.078 285.599 255.342 292.571 255.342H302.692V231.623H302.703ZM279.935 231.623H273.228C267.994 231.623 266.797 234.997 266.797 237.113C266.797 239.464 268.27 241.131 269.721 242.787L273.944 247.551L274.966 249.197L272.676 249.985H267.012L268.474 255.331H275.743C280.947 255.331 282.153 251.968 282.153 249.852C282.153 247.5 280.691 245.813 279.209 244.188L274.864 239.403L273.842 237.757L276.132 236.97H281.397L279.935 231.623ZM263.597 231.623H256.891C251.667 231.623 250.47 234.997 250.47 237.113C250.47 239.464 251.932 241.131 253.394 242.787L257.617 247.551L258.639 249.197L256.329 249.985H250.675L252.116 255.331H259.385C264.61 255.331 265.806 251.968 265.806 249.852C265.806 247.5 264.334 245.813 262.851 244.188L258.506 239.403L257.494 237.757L259.784 236.97H265.049L263.597 231.623ZM247.73 238.667H241.494V242.47H235.278C236.076 240.446 237.21 236.97 243.886 236.97H248.784L247.322 231.623H244.254C239.766 231.623 235.892 232.175 232.559 235.508C229.594 238.463 228.265 242.767 228.265 246.877C228.265 251.058 229.686 255.199 231.976 258.664L237.047 255.321C235.687 253.052 234.685 250.475 234.655 247.807H241.484V255.321H247.72V238.667H247.73ZM225.116 231.623H218.409C213.185 231.623 211.999 234.997 211.999 237.113C211.999 239.464 213.441 241.131 214.913 242.787L219.135 247.551L220.158 249.197L217.847 249.985H212.193L213.635 255.331H220.904C226.128 255.331 227.324 251.968 227.324 249.852C227.324 247.5 225.862 245.813 224.37 244.188L220.025 239.403L219.012 237.757L221.303 236.97H226.547L225.116 231.623ZM194.036 249.985H199.281V255.321H194.036V249.985ZM189.834 231.623H183.128C177.903 231.623 176.718 234.997 176.718 237.113C176.718 239.464 178.159 241.131 179.631 242.787L183.854 247.551L184.866 249.197L182.576 249.985H176.912L178.384 255.331H185.643C190.867 255.331 192.053 251.968 192.053 249.852C192.053 247.5 190.591 245.813 189.108 244.188L184.763 239.403L183.741 237.757L186.052 236.97H191.296L189.834 231.623ZM168.968 249.985H174.213V255.321H168.968V249.985ZM165.38 231.623H159.133V249.985H156.802C155.585 249.985 152.201 249.985 152.201 245.496C152.201 240.507 155.32 234.68 156.69 231.633H149.962C147.734 236.019 145.822 240.63 145.822 245.599C145.822 251.078 148.286 255.342 155.268 255.342H165.39V231.623H165.38Z" fill="white"/>
</g>
<defs>
<clipPath id="clip0_2_1236">
<rect width="375.941" height="412" fill="white" transform="translate(68 49.95)"/>
</clipPath>
</defs>
</svg>
