<svg width="651" height="792" viewBox="0 0 651 792" fill="none" xmlns="http://www.w3.org/2000/svg">
<path d="M40 72C40 54.3269 54.3269 40 72 40H579C596.673 40 611 54.3269 611 72V720C611 737.673 596.673 752 579 752H72C54.3269 752 40 737.673 40 720V72Z" fill="#333333"/>
<path d="M72 40V41H579V40V39H72V40ZM611 72H610V720H611H612V72H611ZM579 752V751H72V752V753H579V752ZM40 720H41V72H40H39V720H40ZM72 752V751C54.8792 751 41 737.121 41 720H40H39C39 738.225 53.7746 753 72 753V752ZM611 720H610C610 737.121 596.121 751 579 751V752V753C597.225 753 612 738.225 612 720H611ZM579 40V41C596.121 41 610 54.8792 610 72H611H612C612 53.7746 597.225 39 579 39V40ZM72 40V39C53.7746 39 39 53.7746 39 72H40H41C41 54.8792 54.8792 41 72 41V40Z" fill="white" fill-opacity="0.1"/>
<rect width="369.149" height="512" transform="translate(140.925 140)" fill="white"/>
<path d="M193.202 572.616C192.94 572.354 192.679 571.699 193.071 571.306L199.097 564.364C199.359 563.971 199.883 563.971 200.276 564.233C203.813 567.115 208.66 569.735 214.423 569.735C220.056 569.735 223.2 567.115 223.2 563.316C223.2 560.172 221.235 558.207 214.816 557.29L211.934 556.897C200.931 555.325 194.905 550.217 194.905 540.785C194.905 530.83 202.372 524.28 214.03 524.28C221.104 524.28 227.785 526.376 232.369 529.913C232.893 530.175 232.893 530.568 232.5 531.092L227.654 538.296C227.392 538.689 226.999 538.82 226.606 538.558C222.545 535.807 218.484 534.498 214.03 534.498C209.315 534.498 206.826 536.986 206.826 540.392C206.826 543.536 209.053 545.501 215.209 546.287L218.091 546.68C229.226 548.252 235.12 553.229 235.12 563.054C235.12 572.747 227.916 580.083 213.899 580.083C205.516 579.952 197.394 576.677 193.202 572.616Z" fill="#1A1659"/>
<path d="M241.408 525.983C241.408 525.459 241.67 525.197 242.194 525.197H276.776C277.3 525.197 277.562 525.459 277.562 525.983V534.498C277.562 535.022 277.3 535.284 276.776 535.284H253.46C253.198 535.284 252.936 535.415 252.936 535.808V546.549C252.936 546.811 253.067 547.073 253.46 547.073H272.847C273.37 547.073 273.632 547.335 273.632 547.859V556.242C273.632 556.766 273.37 557.028 272.847 557.028H253.46C253.198 557.028 252.936 557.159 252.936 557.552V568.687C252.936 568.949 253.067 569.211 253.46 569.211H276.645C277.169 569.211 277.431 569.473 277.431 569.997V578.511C277.431 579.035 277.169 579.297 276.645 579.297H242.194C241.67 579.297 241.408 579.035 241.408 578.511V525.983Z" fill="#1A1659"/>
<path d="M314.371 579.035C313.716 579.035 313.454 578.773 313.192 578.249L303.892 558.469H296.687C296.425 558.469 296.163 558.6 296.163 558.993V578.249C296.163 578.773 295.901 579.035 295.377 579.035H285.291C284.767 579.035 284.505 578.773 284.505 578.249V525.852C284.505 525.328 284.767 525.066 285.291 525.066H306.774C317.777 525.066 325.113 532.009 325.113 541.833C325.113 548.776 321.445 554.146 315.55 556.766L326.161 577.987C326.423 578.511 326.161 578.904 325.637 578.904H314.371V579.035ZM313.585 541.964C313.585 537.903 310.703 535.283 306.25 535.283H296.687C296.425 535.283 296.163 535.415 296.163 535.807V548.252C296.163 548.514 296.294 548.776 296.687 548.776H306.25C310.703 548.645 313.585 546.025 313.585 541.964Z" fill="#1A1659"/>
<path d="M332.448 525.983C332.448 525.459 332.71 525.197 333.234 525.197H343.321C343.845 525.197 344.107 525.459 344.107 525.983V578.38C344.107 578.904 343.845 579.166 343.321 579.166H333.365C332.841 579.166 332.579 578.904 332.579 578.38V525.983H332.448Z" fill="#1A1659"/>
<path d="M352.883 525.983C352.883 525.459 353.145 525.197 353.669 525.197H388.251C388.775 525.197 389.037 525.459 389.037 525.983V534.498C389.037 535.022 388.775 535.284 388.251 535.284H365.065C364.803 535.284 364.541 535.415 364.541 535.808V546.549C364.541 546.811 364.672 547.073 365.065 547.073H384.452C384.976 547.073 385.238 547.335 385.238 547.859V556.242C385.238 556.766 384.976 557.028 384.452 557.028H365.065C364.803 557.028 364.541 557.159 364.541 557.552V568.687C364.541 568.949 364.672 569.211 365.065 569.211H388.251C388.775 569.211 389.037 569.473 389.037 569.997V578.511C389.037 579.035 388.775 579.297 388.251 579.297H353.669C353.145 579.297 352.883 579.035 352.883 578.511V525.983Z" fill="#1A1659"/>
<path d="M427.811 525.983C427.942 525.459 428.335 525.197 428.859 525.197H438.814C439.338 525.197 439.731 525.459 439.862 525.983L458.07 578.38C458.201 578.904 458.07 579.166 457.546 579.166H447.198C446.674 579.166 446.281 578.904 446.15 578.38L443.006 568.949H424.143L421.13 578.38C420.999 578.904 420.606 579.166 420.082 579.166H409.734C409.21 579.166 409.079 578.904 409.21 578.38L427.811 525.983ZM439.862 558.993L433.706 540.13H433.444L427.287 558.993H439.862Z" fill="#1A1659"/>
<path d="M194.043 415.606H274.473L325.429 498.918L194.043 415.606Z" fill="#1A1659"/>
<path d="M456.946 415.606H376.385L325.429 498.918L456.946 415.606Z" fill="#1A1659"/>
<path d="M274.473 415.606H325.429H376.385L325.429 281.076L274.473 415.606Z" fill="#1A1659"/>
<path d="M325.429 498.918L376.385 415.606H274.473L325.429 498.918Z" fill="url(#paint0_linear_2_57)"/>
<path d="M325.429 281.077L347.436 339.106H319.665L300.802 389.146H366.43L376.385 415.606H456.946L361.714 193.966C337.48 193.966 313.378 193.966 289.144 193.966L194.043 415.606H274.604L325.429 281.077Z" fill="url(#paint1_linear_2_57)"/>
<path d="M281.885 605.445H194.666V625.247H281.885V605.445Z" fill="#00A346"/>
<path d="M369.104 605.445H281.885V625.247H369.104V605.445Z" fill="#E2E2E2"/>
<path d="M456.323 605.445H369.104V625.247H456.323V605.445Z" fill="#DB052B"/>
<rect x="40" y="4" width="48.8594" height="30" rx="3" fill="#333333"/>
<rect x="40.5" y="4.5" width="47.8594" height="29" rx="2.5" stroke="white" stroke-opacity="0.0980392"/>
<path d="M51.3438 16C51.2969 15.6042 51.1068 15.2969 50.7734 15.0781C50.4401 14.8594 50.0313 14.75 49.5469 14.75C49.1927 14.75 48.8828 14.8073 48.6172 14.9219C48.3542 15.0365 48.1484 15.194 48 15.3945C47.8542 15.5951 47.7813 15.8229 47.7813 16.0781C47.7813 16.2917 47.832 16.4753 47.9336 16.6289C48.0378 16.7799 48.1706 16.9062 48.332 17.0078C48.4935 17.1068 48.6628 17.1888 48.8398 17.2539C49.0169 17.3164 49.1797 17.3672 49.3281 17.4062L50.1406 17.625C50.349 17.6797 50.5807 17.7552 50.8359 17.8516C51.0938 17.9479 51.3398 18.0794 51.5742 18.2461C51.8112 18.4102 52.0065 18.6211 52.1602 18.8789C52.3138 19.1367 52.3906 19.4531 52.3906 19.8281C52.3906 20.2604 52.2773 20.651 52.0508 21C51.8268 21.349 51.4987 21.6263 51.0664 21.832C50.6367 22.0378 50.1146 22.1406 49.5 22.1406C48.9271 22.1406 48.431 22.0482 48.0117 21.8633C47.5951 21.6784 47.2669 21.4206 47.0273 21.0898C46.7904 20.7591 46.6563 20.375 46.625 19.9375H47.625C47.651 20.2396 47.7526 20.4896 47.9297 20.6875C48.1094 20.8828 48.3359 21.0286 48.6094 21.125C48.8854 21.2187 49.1823 21.2656 49.5 21.2656C49.8698 21.2656 50.2018 21.2057 50.4961 21.0859C50.7904 20.9635 51.0234 20.7943 51.1953 20.5781C51.3672 20.3594 51.4531 20.1042 51.4531 19.8125C51.4531 19.5469 51.3789 19.3307 51.2305 19.1641C51.082 18.9974 50.8867 18.862 50.6445 18.7578C50.4023 18.6536 50.1406 18.5625 49.8594 18.4844L48.875 18.2031C48.25 18.0234 47.7552 17.7669 47.3906 17.4336C47.026 17.1003 46.8438 16.6641 46.8438 16.125C46.8438 15.6771 46.9648 15.2865 47.207 14.9531C47.4518 14.6172 47.7799 14.3568 48.1914 14.1719C48.6055 13.9844 49.0677 13.8906 49.5781 13.8906C50.0938 13.8906 50.5521 13.9831 50.9531 14.168C51.3542 14.3503 51.6719 14.6003 51.9062 14.918C52.1432 15.2357 52.2682 15.5964 52.2813 16H51.3438ZM56.374 22.125C55.7959 22.125 55.2972 21.9974 54.8779 21.7422C54.4613 21.4844 54.1396 21.125 53.9131 20.6641C53.6891 20.2005 53.5771 19.6615 53.5771 19.0469C53.5771 18.4323 53.6891 17.8906 53.9131 17.4219C54.1396 16.9505 54.4548 16.5833 54.8584 16.3203C55.2646 16.0547 55.7386 15.9219 56.2803 15.9219C56.5928 15.9219 56.9014 15.974 57.2061 16.0781C57.5107 16.1823 57.7881 16.3516 58.0381 16.5859C58.2881 16.8177 58.4873 17.125 58.6357 17.5078C58.7842 17.8906 58.8584 18.362 58.8584 18.9219V19.3125H54.2334V18.5156H57.9209C57.9209 18.1771 57.8532 17.875 57.7178 17.6094C57.585 17.3437 57.3949 17.1341 57.1475 16.9805C56.9027 16.8268 56.6136 16.75 56.2803 16.75C55.9131 16.75 55.5954 16.8411 55.3271 17.0234C55.0615 17.2031 54.8571 17.4375 54.7139 17.7266C54.5706 18.0156 54.499 18.3255 54.499 18.6562V19.1875C54.499 19.6406 54.5771 20.0247 54.7334 20.3398C54.8923 20.6523 55.1123 20.8906 55.3936 21.0547C55.6748 21.2161 56.0016 21.2969 56.374 21.2969C56.6162 21.2969 56.835 21.263 57.0303 21.1953C57.2282 21.125 57.3988 21.0208 57.542 20.8828C57.6852 20.7422 57.7959 20.5677 57.874 20.3594L58.7646 20.6094C58.6709 20.9115 58.5133 21.1771 58.292 21.4062C58.0706 21.6328 57.7972 21.8099 57.4717 21.9375C57.1462 22.0625 56.7803 22.125 56.374 22.125ZM60.2607 22V16H61.1514V16.9062H61.2139C61.3232 16.6094 61.5212 16.3685 61.8076 16.1836C62.0941 15.9987 62.417 15.9062 62.7764 15.9062C62.8441 15.9062 62.9287 15.9076 63.0303 15.9102C63.1318 15.9128 63.2087 15.9167 63.2607 15.9219V16.8594C63.2295 16.8516 63.1579 16.8398 63.0459 16.8242C62.9365 16.806 62.8206 16.7969 62.6982 16.7969C62.4066 16.7969 62.1462 16.8581 61.917 16.9805C61.6904 17.1003 61.5107 17.2669 61.3779 17.4805C61.2477 17.6914 61.1826 17.9323 61.1826 18.2031V22H60.2607ZM64.3535 22V16H65.2754V22H64.3535ZM64.8223 15C64.6426 15 64.4876 14.9388 64.3574 14.8164C64.2298 14.694 64.166 14.5469 64.166 14.375C64.166 14.2031 64.2298 14.056 64.3574 13.9336C64.4876 13.8112 64.6426 13.75 64.8223 13.75C65.002 13.75 65.1556 13.8112 65.2832 13.9336C65.4134 14.056 65.4785 14.2031 65.4785 14.375C65.4785 14.5469 65.4134 14.694 65.2832 14.8164C65.1556 14.9388 65.002 15 64.8223 15ZM68.7295 22.1406C68.3493 22.1406 68.0042 22.069 67.6943 21.9258C67.3844 21.7799 67.1383 21.5703 66.9561 21.2969C66.7738 21.0208 66.6826 20.6875 66.6826 20.2969C66.6826 19.9531 66.7503 19.6745 66.8857 19.4609C67.0212 19.2448 67.2021 19.0755 67.4287 18.9531C67.6553 18.8307 67.9053 18.7396 68.1787 18.6797C68.4548 18.6172 68.7321 18.5677 69.0107 18.5313C69.3753 18.4844 69.6709 18.4492 69.8975 18.4258C70.1266 18.3997 70.2933 18.3568 70.3975 18.2969C70.5042 18.237 70.5576 18.1328 70.5576 17.9844V17.9531C70.5576 17.5677 70.4521 17.2682 70.2412 17.0547C70.0329 16.8411 69.7165 16.7344 69.292 16.7344C68.8519 16.7344 68.5068 16.8307 68.2568 17.0234C68.0068 17.2161 67.8311 17.4219 67.7295 17.6406L66.8545 17.3281C67.0107 16.9635 67.2191 16.6797 67.4795 16.4766C67.7425 16.2708 68.029 16.1276 68.3389 16.0469C68.6514 15.9635 68.9587 15.9219 69.2607 15.9219C69.4535 15.9219 69.6748 15.9453 69.9248 15.9922C70.1774 16.0365 70.4209 16.1289 70.6553 16.2695C70.8923 16.4102 71.0889 16.6224 71.2451 16.9062C71.4014 17.1901 71.4795 17.5703 71.4795 18.0469V22H70.5576V21.1875H70.5107C70.4482 21.3177 70.3441 21.457 70.1982 21.6055C70.0524 21.7539 69.8584 21.8802 69.6162 21.9844C69.374 22.0885 69.0785 22.1406 68.7295 22.1406ZM68.8701 21.3125C69.2347 21.3125 69.542 21.2409 69.792 21.0977C70.0446 20.9544 70.2347 20.7695 70.3623 20.543C70.4925 20.3164 70.5576 20.0781 70.5576 19.8281V18.9844C70.5186 19.0312 70.4326 19.0742 70.2998 19.1133C70.1696 19.1497 70.0186 19.1823 69.8467 19.2109C69.6774 19.237 69.512 19.2604 69.3506 19.2812C69.1917 19.2995 69.0628 19.3151 68.9639 19.3281C68.7243 19.3594 68.5003 19.4102 68.292 19.4805C68.0863 19.5482 67.9196 19.651 67.792 19.7891C67.667 19.9245 67.6045 20.1094 67.6045 20.3437C67.6045 20.6641 67.723 20.9062 67.96 21.0703C68.1995 21.2318 68.5029 21.3125 68.8701 21.3125ZM76.709 22H75.6934L78.6309 14H79.6309L82.5684 22H81.5527L79.1621 15.2656H79.0996L76.709 22ZM77.084 18.875H81.1777V19.7344H77.084V18.875Z" fill="white"/>
<defs>
<linearGradient id="paint0_linear_2_57" x1="274.525" y1="457.209" x2="376.388" y2="457.209" gradientUnits="userSpaceOnUse">
<stop stop-color="#31ECFF"/>
<stop offset="0.049371" stop-color="#2DE2FF"/>
<stop offset="0.2964" stop-color="#1BB2FF"/>
<stop offset="0.5147" stop-color="#0E90FF"/>
<stop offset="0.694" stop-color="#067BFF"/>
<stop offset="0.8118" stop-color="#0373FF"/>
</linearGradient>
<linearGradient id="paint1_linear_2_57" x1="400.947" y1="208.275" x2="310.121" y2="457.817" gradientUnits="userSpaceOnUse">
<stop stop-color="#31ECFF"/>
<stop offset="0.0488274" stop-color="#2DE2FF"/>
<stop offset="0.2932" stop-color="#1BB2FF"/>
<stop offset="0.5091" stop-color="#0E90FF"/>
<stop offset="0.6863" stop-color="#067BFF"/>
<stop offset="0.8028" stop-color="#0373FF"/>
</linearGradient>
</defs>
</svg>
