<svg width="512" height="512" viewBox="0 0 512 512" fill="none" xmlns="http://www.w3.org/2000/svg">
<path d="M251.667 2.14529C239.036 2.58674 224.039 4.07462 200.131 6.37888C147.178 11.4825 132.422 12.5373 103.799 8.96034C85.5487 6.67967 60.8501 2.20193 57.5512 2.24855C57.6537 5.5699 52.2964 35.1231 52.2628 35.2912C50.6452 43.3834 49.2226 55.0782 47.2855 76.2848C40.9046 146.139 48.8423 219.384 69.3724 280.633C89.7352 341.383 121.389 395.747 161.764 439.548C179.852 459.171 206.433 479.723 226.366 494.791C227.961 495.887 250.478 509.404 256.333 509.867C262.188 509.404 284.706 495.887 286.301 494.791C306.234 479.723 332.814 459.171 350.902 439.548C391.278 395.747 422.931 341.383 443.294 280.633C463.824 219.384 471.762 146.139 465.381 76.2848C463.444 55.0782 462.021 43.3834 460.404 35.2912C460.37 35.123 455.013 5.5699 455.115 2.24855C451.816 2.20196 427.118 6.67967 408.868 8.96034C380.244 12.5373 365.489 11.4825 312.536 6.37888C287.856 4.00027 272.641 2.53377 259.755 2.14529C258.596 2.11027 257.46 2.16512 256.333 2.14529C255.206 2.16512 254.07 2.11027 252.911 2.14529C252.509 2.15851 252.074 2.13207 251.667 2.14529Z" fill="#ECAC00"/>
<path d="M247.598 12.8128C187.099 17.8644 124.382 27.8529 64.8098 14.596C57.0686 66.4139 50.9398 119.324 57.2112 172.044C67.8646 291.289 124.593 410.689 223.881 481.4C230.031 485.78 251.712 499.227 255.997 499.231C260.542 499.235 281.924 486.226 287.289 482.481C409.601 397.11 465.301 241.915 457.297 96.2048C455.592 68.8688 453.634 39.9771 446.533 14.3863C392.37 26.8554 336.04 19.7316 281.181 13.9336C270.02 13.0005 258.797 12.5793 247.598 12.8128Z" fill="#8B2A1F"/>
<path d="M318.757 161.457V221.382H335.89V198.524H352.403V184.863H335.597V175.41H366.083V161.457H333.397H318.757Z" fill="#F8FBFD" stroke="#ECAC00" stroke-width="3.58128"/>
<path d="M399.353 162.013C385.779 163.346 375.089 176.099 375.089 191.542C375.089 207.872 386.978 221.18 401.659 221.18C411.223 221.18 419.674 215.518 424.386 207.067L410.991 203.701C410.56 204.142 410.06 204.511 409.564 204.896C389.048 215.516 384.573 178.627 400.598 176.459C400.746 176.44 400.904 176.378 401.037 176.351C401.091 176.341 401.199 176.353 401.257 176.351C405.375 176.171 408.49 176.917 410.882 179.491L424.276 175.8C419.543 167.496 411.144 162.012 401.659 162.012C400.971 162.012 400.358 161.955 399.683 162.012C399.576 162.022 399.461 162.003 399.353 162.013Z" fill="#F8FBFD" stroke="#ECAC00" stroke-width="3.49364"/>
<path d="M250.572 25.2436C248.917 25.255 247.263 25.272 245.607 25.3093C244.752 25.3285 243.872 25.3813 243.017 25.4078C187.448 29.9363 130.039 37.4549 75.1367 29.1363C69.4535 62.91 67.0106 97.6137 67.9781 132.27H444.778C445.541 97.1539 442.527 62.1299 435.788 28.2986C400.017 37.3035 361.452 31.9759 324.83 29.744C300.11 27.6788 275.396 25.0715 250.572 25.2436Z" fill="#FFFBFF"/>
<path opacity="0.96" d="M444.77 132.27H67.8953V138.816H444.77V132.27Z" fill="#5B8CC1"/>
<path d="M91.0089 47.4105V65.6792H107.6V117.725H123.659V65.6792H140.782V47.4105H91.0089Z" fill="#8B2A1F" stroke="#ECAC00" stroke-width="3.50426"/>
<path d="M289.584 47.0934H273.407V117.83H289.584V47.0934Z" fill="#8B2A1F" stroke="#ECAC00" stroke-width="3.29277"/>
<path d="M300.057 46.8635V47.3741V117.626H316.026V85.8695L339.875 117.319L340.29 117.83H356.052V46.8635H339.461V82.1936L313.33 46.9656V46.8635H313.226H300.057Z" fill="#8B2A1F" stroke="#ECAC00" stroke-width="3.29277"/>
<path d="M210.465 46.6073V117.83H226.524V91.3956H237.011L246.965 117.83H265.834L254.016 87.3492C261.792 84.999 263.556 76.8229 263.556 67.2335C263.556 56.3763 256.203 47.4716 246.862 46.6073H243.958H223.738H210.465ZM226.494 62.0601H226.597H228.404H242.61H243.647C247.3 62.1727 250.18 64.4566 250.18 68.9292C250.18 73.4018 247.3 76.0043 243.647 76.1171H242.714H226.493L226.494 62.0601Z" fill="#8B2A1F" stroke="#ECAC00" stroke-width="3.29277"/>
<path d="M172.473 46.344C157.037 47.5168 144.683 63.0348 144.683 81.9804C144.683 101.689 158.033 117.719 174.339 117.719C190.646 117.719 203.789 101.689 203.789 81.9804C203.789 62.2721 190.646 46.3441 174.339 46.344C174.085 46.3441 173.867 46.3375 173.614 46.344C173.24 46.354 172.843 46.3143 172.473 46.344ZM173.199 64.8549C173.259 64.845 173.242 64.8648 173.302 64.8549C189.992 64.1303 191.635 97.3468 175.791 101.044C158.129 102.729 155.695 67.6052 173.199 64.8549Z" fill="#8B2A1F" stroke="#ECAC00" stroke-width="3.51541"/>
<path d="M390.335 46.344C374.899 47.5168 362.545 63.0348 362.545 81.9804C362.545 101.689 375.895 117.719 392.202 117.719C408.508 117.719 421.651 101.689 421.651 81.9804C421.651 62.2721 408.508 46.3441 392.202 46.344C391.947 46.3441 391.729 46.3375 391.476 46.344C391.102 46.354 390.706 46.3143 390.335 46.344ZM391.061 64.8549C391.121 64.845 391.104 64.8648 391.164 64.8549C407.855 64.1303 409.497 97.3468 393.653 101.044C375.991 102.729 373.557 67.6052 391.061 64.8549Z" fill="#8B2A1F" stroke="#ECAC00" stroke-width="3.51541"/>
<path d="M111.973 160.199C109.533 160.412 108.577 160.631 107.363 161.217C106.233 161.762 104.888 162.382 103.834 163.619C101.863 165.929 101.411 166.796 101.377 170.19C101.358 172.113 102.333 173.773 103.281 174.741C104.85 176.343 106.494 177.101 109.815 177.429C112.191 177.663 114.62 177.216 115.484 176.751C115.915 176.519 116.311 176.326 116.529 176.222C116.923 176.035 117.051 175.901 117.077 175.916C117.175 175.97 116.943 176.76 116.874 176.959C116.658 177.58 115.905 178.636 114.646 179.98C113.139 181.59 111.139 182.823 109.051 183.485C107.932 183.839 106.077 184.444 105.68 184.563C105.639 184.575 105.637 184.539 105.642 184.587L106.067 188.107C106.067 188.114 107.133 188.032 108.357 187.808C114.549 186.676 119.809 182.152 121.265 176.705C122.473 170.64 122.96 163.641 116.195 161.016C114.997 160.551 113.607 160.24 111.973 160.199ZM112.015 164.695C113.465 164.685 114.934 165.057 116.132 165.902C118.042 167.25 118.218 170.503 116.465 172.061C112.853 175.27 105.715 173.438 105.715 169.301C105.715 166.581 108.825 164.717 112.015 164.695Z" fill="white"/>
<path d="M136.692 160.534C133.132 160.533 129.596 162.238 127.845 165.648C126.306 168.646 125.728 176.611 126.811 179.917C127.928 183.325 130.152 186.051 132.792 187.254C137.326 189.32 142.717 187.297 145.539 182.472C147.461 179.185 147.543 169.114 145.676 165.652C143.835 162.24 140.252 160.535 136.692 160.534ZM136.727 165.016C138.425 165.016 140.123 165.659 141.075 166.943C143.856 170.694 143.58 179.26 140.581 182.281C138.34 184.539 135.313 184.478 132.981 182.13C129.86 178.985 129.537 170.782 132.382 166.943C133.334 165.659 135.029 165.016 136.727 165.016Z" fill="white"/>
<path d="M96.5564 160.42H92.2958V187.501H96.5564V160.42Z" fill="white"/>
<path d="M161.342 188.424C163.782 188.212 164.739 187.992 165.952 187.407C167.082 186.861 168.427 186.241 169.482 185.004C171.452 182.694 171.904 181.828 171.938 178.433C171.957 176.51 170.982 174.85 170.034 173.882C168.465 172.28 166.821 171.522 163.501 171.195C161.124 170.96 158.695 171.407 157.832 171.872C157.4 172.105 157.004 172.297 156.786 172.401C156.392 172.588 156.264 172.722 156.238 172.708C156.14 172.654 156.372 171.863 156.441 171.664C156.658 171.043 157.411 169.987 158.669 168.643C160.176 167.034 162.176 165.8 164.264 165.138C165.383 164.784 167.238 164.179 167.635 164.061C167.676 164.048 167.678 164.085 167.673 164.036L167.249 160.516C167.248 160.509 166.182 160.592 164.958 160.815C158.766 161.947 153.506 166.471 152.05 171.918C150.843 177.983 150.355 184.982 157.12 187.607C158.318 188.072 159.709 188.383 161.342 188.424ZM161.3 183.928C159.85 183.938 158.381 183.566 157.183 182.721C155.273 181.373 155.097 178.12 156.85 176.562C160.462 173.353 167.6 175.185 167.6 179.322C167.6 182.042 164.491 183.907 161.3 183.928Z" fill="white"/>
<path d="M276.57 444.257L274.701 442.587L281.061 432.725C284.559 427.301 288.042 421.501 288.8 419.836C289.559 418.172 291.839 415.16 293.867 413.144C298.059 408.977 302.283 400.95 302.833 396.107C303.29 392.085 301.966 389.831 291.805 377.328C279.256 361.885 274.824 354.583 273.153 346.594C271.615 339.247 274.563 328.964 280.435 321.189L283.982 316.492L280.043 320.307C272.185 327.918 269.184 337.275 271.439 347.136C273.439 355.882 273.433 355.909 269.287 356.132C263.268 356.457 259.119 352.843 258.22 346.492C257.827 343.715 257.75 344.035 257.668 348.775C257.499 358.636 254.512 359.816 229.704 359.816H215.086L212.901 361.639C211.48 362.826 210.713 364.118 210.706 365.338C210.688 368.42 209.915 368.944 205.556 368.831C200.681 368.703 198.961 369.933 198.122 374.146C197.101 379.265 190.045 383.062 181.551 383.062C178.16 383.062 173.945 381.439 173.351 379.905C172.8 378.479 179.455 369.715 186.566 362.503C189.501 359.526 193.98 354.965 196.518 352.368C203.383 345.342 204.292 345.056 219.812 345.038L232.812 345.022L232.257 341.676C231.298 335.889 231.784 318.832 233.048 313.935C235.059 306.148 237.253 305.055 247.747 306.61C251.383 307.149 254.427 307.521 254.512 307.437C255.08 306.874 249.82 298.353 244.973 291.985C238.969 284.098 235.926 278.745 235.109 274.636C234.688 272.52 234.784 272.287 235.897 272.711C238.973 273.882 249.79 275.283 255.763 275.283C263.802 275.283 268.631 273.957 271.446 270.979L273.547 268.755L270.401 270.786C267.353 272.754 266.988 272.815 258.687 272.743C248.274 272.654 245.561 271.889 222.974 262.669C205.408 255.499 191.518 250.653 188.484 250.638C186.039 250.625 183.769 251.72 182.212 253.664C181.461 254.601 180.186 255.141 178.662 255.167L176.285 255.206L176.232 259.785C176.158 266.141 175.665 267.168 171.82 268.983C164.314 272.526 156.565 273.578 154.327 271.358C152.755 269.798 152.668 270.017 158.389 261.133C161.237 256.711 164.299 251.591 165.193 249.755C167.347 245.332 172.206 241.158 176.468 240.068C178.319 239.595 183.203 239.041 187.321 238.837C196.37 238.388 201.767 239.354 218.021 244.328C224.284 246.245 229.561 247.662 229.747 247.477C230.293 246.935 223.635 244.314 217.106 242.5C213.787 241.578 209.634 240.414 207.877 239.914L204.682 239.004L210.226 238.797C215.147 238.614 230.067 240.102 234.851 241.252C236.55 241.661 236.576 241.62 235.443 240.342C233.404 238.044 233.251 235.672 234.864 231.393C235.696 229.186 236.662 227.381 237.011 227.381C238.828 227.381 242.725 222.767 243.722 219.438C245.395 213.847 244.994 213.375 242.604 218.12C239.638 224.011 237.132 225.764 229.871 227.031C223.094 228.213 220.656 229.507 220.656 231.921C220.656 235.281 213.77 235.986 210.129 233C207.946 231.21 208.384 229.251 211.072 228.789C213.512 228.37 214.147 226.658 212.478 225.002C210.216 222.757 206.665 226.475 207.433 230.284C207.757 231.893 207.589 232.309 206.617 232.301C201.616 232.257 201.033 223.666 204.828 205.936C206.214 199.458 206.445 197.232 205.833 196.259C204.528 194.186 204.919 190.08 206.968 184.342L208.898 178.934L206.343 176.128C204.938 174.585 203.358 172.093 202.831 170.589C201.53 166.877 201.732 158.939 203.264 153.571C204.658 148.684 205.747 147.305 205.747 150.427C205.747 154.716 207.928 159.869 211.223 163.363C213.004 165.253 214.705 166.799 215.004 166.799C215.303 166.799 215.769 164.976 216.041 162.748C216.313 160.52 217.08 156.954 217.746 154.823L218.957 150.949L219.874 155.51C221.02 161.216 222.623 164.329 226.098 167.602C230.577 171.82 232.631 172.47 246.144 173.939C268.9 176.414 278.494 179.774 287.053 188.267C295.904 197.049 297.945 202.985 300.143 226.324C301.934 245.338 304.881 269.014 306.279 275.625C310.388 295.047 335.085 320.108 343.85 313.749C347.07 311.412 344.728 304.698 336.625 293.04C331.653 285.886 324.308 273.222 324.308 271.804C324.308 269.354 342.057 292.88 349.559 305.273C356.632 316.959 358.204 322.667 356.007 328.684C354.008 334.158 346.446 338.629 340.723 337.721L338.105 337.306L337.277 344.179C335.786 356.55 333.67 360.006 320.226 372.029C315.739 376.042 316.274 378.348 323.172 384.722L326.644 387.929L326.21 391.562C325.729 395.587 323.329 399.336 320.189 400.963C315.668 403.307 311.556 410.074 310.092 417.58C308.952 423.424 308.307 424.464 304.806 426.097C303.037 426.922 301.553 427.8 301.507 428.048C301.462 428.296 301.339 430.854 301.233 433.732C301.011 439.806 301.077 439.73 293.143 443.018C285.681 446.11 279.188 446.596 276.57 444.257ZM317.677 383.742C314.319 380.037 312.557 376.174 313.167 373.858C313.674 371.934 312.825 372.164 310.488 374.584L308.472 376.672L310.178 379.222C311.496 381.191 319.298 387.192 320.647 387.274C320.781 387.282 319.444 385.693 317.677 383.742ZM328.217 359.62C331.26 356.093 333.419 349.599 333.998 342.238L334.415 336.921L332.12 339.129C329.945 341.221 329.819 341.627 329.704 346.878C329.558 353.563 328.003 357.397 323.09 363.183L319.694 367.182L322.698 364.859C324.35 363.581 326.834 361.224 328.217 359.62ZM322.255 312.971C317.958 308.345 313.577 301.316 308.359 290.671C303.348 280.448 301.765 274.435 300.045 259.089C299.567 254.822 298.877 251.332 298.512 251.332C297.439 251.332 298.467 275.722 299.727 280.149C302.943 291.453 313.076 307.2 321.114 313.386C325.676 316.897 325.845 316.836 322.255 312.971ZM214.508 200.392C218.257 199.819 219.236 198.805 219.236 195.49V192.655L217.639 195.048C216.76 196.365 214.692 198.064 213.042 198.825C211.393 199.585 209.882 200.623 209.686 201.13C209.426 201.803 209.662 201.884 210.555 201.431C211.23 201.088 213.008 200.621 214.508 200.392ZM239.444 188.639C249.024 187.653 252.026 185.822 249.796 182.324C249.256 181.476 248.872 181.631 247.63 183.198C246.162 185.05 242.246 186.537 236.221 187.531C234.824 187.761 233.067 188.445 232.316 189.05C231.565 189.655 231.318 189.969 231.767 189.747C232.216 189.526 235.67 189.027 239.444 188.639ZM227.046 180.535C227.046 179.785 226.273 179.476 224.383 179.47C221.122 179.46 215.442 178.006 212.236 176.36C210.924 175.687 210.067 175.483 210.332 175.908C210.883 176.794 215.484 179.213 219.197 180.57C222.806 181.889 227.046 181.871 227.046 180.535ZM191.95 290.604C190.888 286.633 189.047 280.541 187.859 277.067C184.624 267.607 185.746 259.888 191.072 254.956L192.863 253.297L196.643 254.523C198.722 255.197 201.313 256.196 202.401 256.742L204.38 257.735L202.89 259.615C201.792 261 201.45 262.309 201.59 264.581C201.734 266.894 201.478 267.835 200.57 268.34C198.642 269.41 199.056 272.27 201.31 273.455C202.384 274.019 204.154 275.611 205.243 276.992C207.088 279.332 207.169 279.705 206.429 282.43C204.113 290.967 199.364 297.825 195.77 297.825C193.972 297.825 193.786 297.473 191.95 290.604ZM351.444 286.593C350.402 284.387 348.156 281.714 345.13 279.078C337.465 272.4 335.718 266.288 340.235 261.944C343.146 259.144 344.502 256.197 343.927 253.921C342.974 250.154 336.531 245.723 329.352 243.899C323.969 242.53 320.906 242.958 317.858 245.503L315.626 247.367L317.086 244.526C320.711 237.476 329.22 236.38 343.09 241.178C358.927 246.656 362.836 255.784 356.105 271.569C354.032 276.431 353.771 277.773 353.771 283.56C353.771 287.144 353.611 290.063 353.416 290.047C353.221 290.031 352.333 288.477 351.444 286.593ZM351.034 274.708C351.495 273.28 352.691 270.211 353.692 267.886C357.848 258.237 355.386 250.886 346.522 246.478C342.377 244.417 342.163 244.615 345.657 247.281C351.629 251.839 352.918 258.429 349.411 266.477C346.894 272.251 346.549 275.001 348.124 276.727C349.613 278.359 349.927 278.141 351.034 274.708Z" fill="white"/>
</svg>
