<svg width="512" height="512" viewBox="0 0 512 512" fill="none" xmlns="http://www.w3.org/2000/svg">
<g clip-path="url(#clip0_1_23324)">
<mask id="mask0_1_23324" style="mask-type:luminance" maskUnits="userSpaceOnUse" x="2" y="58" width="508" height="397">
<path d="M2.75195 58.1788H509.248V454.443H2.75195" fill="white"/>
</mask>
<g mask="url(#mask0_1_23324)">
<mask id="mask1_1_23324" style="mask-type:luminance" maskUnits="userSpaceOnUse" x="-537" y="-14" width="2977" height="29926">
<path d="M-536.975 -13.4632H2439.65V29911.8H-536.975V-13.4632Z" fill="white"/>
</mask>
<g mask="url(#mask1_1_23324)">
<mask id="mask2_1_23324" style="mask-type:luminance" maskUnits="userSpaceOnUse" x="2" y="58" width="509" height="397">
<path d="M2.75195 58.0001H510.677V454.8H2.75195V58.0001Z" fill="white"/>
</mask>
<g mask="url(#mask2_1_23324)">
<mask id="mask3_1_23324" style="mask-type:luminance" maskUnits="userSpaceOnUse" x="2" y="57" width="508" height="398">
<path d="M147.822 79.7965C150.502 76.938 156.398 71.2209 167.475 71.5782C174.443 68.3624 182.303 69.613 185.162 71.3996C185.162 71.3996 190.164 71.2209 193.38 72.8288C213.033 66.2185 234.114 62.6453 255.911 62.6453C277.707 62.6453 298.789 66.2185 318.441 72.8288C321.657 71.2209 326.659 71.3996 326.659 71.3996C329.518 69.613 337.557 68.3624 344.346 71.5782C355.423 71.2209 361.319 76.938 363.999 79.7965C365.607 75.5087 368.108 71.9355 374.361 69.7916C376.505 58.3575 391.691 53.1764 412.773 63.7173C422.241 55.1417 436.177 64.2532 440.643 76.5807C447.611 74.7941 458.688 81.2258 457.973 101.95C465.119 102.307 467.799 109.632 465.834 121.781C470.122 120.888 490.668 117.136 505.496 135.717C512.643 144.649 508.533 156.084 501.03 161.622C500.494 163.051 497.457 175.379 487.988 180.56C487.452 186.813 498.35 200.391 502.638 209.145C514.25 234.157 508.533 276.499 465.477 283.824C467.442 285.611 471.73 291.507 473.159 296.509C474.946 302.941 473.695 309.194 470.301 314.375C466.727 320.27 453.507 328.489 450.112 332.598C456.187 336.171 463.333 343.675 460.117 357.61L447.79 412.279C445.824 421.212 439.75 428.716 430.102 430.681C425.1 431.753 419.919 430.681 416.882 429.788C395.443 424.071 379.899 428.537 356.138 436.22C343.811 440.15 330.232 444.617 314.332 448.011C297.895 451.584 278.958 454.086 256.089 454.086C233.042 454.086 214.105 451.584 197.847 448.011C181.767 444.617 168.368 440.15 156.041 436.22C132.279 428.537 116.736 424.25 95.2969 429.788C92.2597 430.681 87.0786 431.575 82.0762 430.681C72.25 428.716 66.3543 421.212 64.389 412.279L52.0616 357.61C48.8458 343.675 55.9921 336.171 62.0665 332.598C58.8506 328.489 45.4512 320.27 41.8781 314.375C38.6622 309.015 37.233 302.941 39.0196 296.509C40.4488 291.507 44.9153 285.611 46.7019 283.824C3.64522 276.678 -2.07185 234.336 9.54094 209.324C13.6501 200.391 24.7269 186.991 24.1909 180.738C14.722 175.736 11.5062 163.23 11.1489 161.801C3.46656 156.084 -0.64258 144.828 6.32509 135.895C21.1537 117.136 41.6994 121.067 45.9872 121.96C44.022 109.99 46.7019 102.665 53.8482 102.129C53.1336 81.4044 64.2104 74.9727 71.178 76.7593C75.6445 64.4319 89.5798 55.3203 99.0487 63.8959C120.309 53.3551 135.316 58.5362 137.46 69.9703C143.713 72.1142 146.393 75.6874 147.822 79.7965Z" fill="white"/>
</mask>
<g mask="url(#mask3_1_23324)">
<mask id="mask4_1_23324" style="mask-type:luminance" maskUnits="userSpaceOnUse" x="2" y="58" width="509" height="397">
<path d="M2.75195 58.0001H510.677V454.8H2.75195V58.0001Z" fill="white"/>
</mask>
<g mask="url(#mask4_1_23324)">
<path d="M-36.9102 18.338H548.91V493.926H-36.9102V18.338Z" fill="white"/>
</g>
</g>
</g>
</g>
</g>
<mask id="mask5_1_23324" style="mask-type:luminance" maskUnits="userSpaceOnUse" x="72" y="81" width="368" height="351">
<path d="M201.956 425.5C186.77 422.284 173.907 417.996 162.115 414.245C139.068 406.741 118.88 400.667 92.2597 406.741C86.9 407.992 84.9348 407.992 83.6842 402.632L72.6073 353.322C71.5354 348.677 72.9647 347.784 77.4311 346.712C110.304 339.744 137.282 344.568 164.438 351.357C178.73 354.93 192.844 359.039 207.673 362.255C222.68 365.471 238.581 367.972 255.732 367.972C273.062 367.972 288.784 365.65 303.791 362.255C318.62 359.039 332.734 354.93 347.026 351.357C374.182 344.389 401.339 339.566 434.033 346.712C438.499 347.784 439.75 348.677 438.857 353.322L427.78 402.632C426.529 408.17 424.743 408.17 419.204 406.741C392.584 400.488 372.396 406.741 349.349 414.245C337.558 417.996 324.694 422.284 309.508 425.5C294.322 428.716 276.814 431.039 255.553 431.039C234.65 431.039 217.142 428.716 201.956 425.5ZM201.42 143.041L199.991 142.148L200.348 140.54C201.241 136.252 200.705 132.322 194.095 132.143H192.487L187.485 116.243L188.914 115.171C193.559 111.955 192.487 107.846 186.234 105.702L184.626 105.166V103.558C184.626 100.878 186.234 99.4488 187.306 98.3769C187.663 98.1982 187.842 97.8409 188.199 97.6623C188.557 97.4836 188.735 97.1263 189.093 96.769C189.629 96.233 190.164 95.5184 190.7 94.4464L191.058 93.7318L191.772 93.3745C211.603 85.5135 233.4 81.4044 256.089 81.4044C278.779 81.4044 300.397 85.6922 320.406 93.3745L321.121 93.7318L321.478 94.4464C322.014 95.3397 322.55 96.0543 323.086 96.769C323.444 97.1263 323.622 97.3049 323.98 97.6623C324.337 98.0196 324.515 98.1982 324.873 98.3769C325.945 99.4488 327.553 100.878 327.553 103.558V105.166L325.945 105.702C319.692 107.846 318.62 111.955 323.265 115.171L324.694 116.243L319.692 132.143H318.084C311.473 132.322 310.759 136.252 311.831 140.54L312.188 142.148L310.759 143.041C308.794 144.292 307.007 149.116 308.079 152.51L309.865 157.691L304.863 155.369C290.213 148.401 273.598 144.292 256.089 144.292C238.581 144.292 222.144 148.223 207.316 155.369L202.313 157.691L204.1 152.51C205.172 148.937 203.385 144.113 201.42 143.041Z" fill="white"/>
</mask>
<g mask="url(#mask5_1_23324)">
<mask id="mask6_1_23324" style="mask-type:luminance" maskUnits="userSpaceOnUse" x="-537" y="-16" width="2977" height="29926">
<path d="M-536.975 -15.7857H2439.65V29909.5H-536.975V-15.7857Z" fill="white"/>
</mask>
<g mask="url(#mask6_1_23324)">
<path d="M32.7665 41.7423H479.233V470.879H32.7665V41.7423Z" fill="#F3E305"/>
</g>
</g>
<mask id="mask7_1_23324" style="mask-type:luminance" maskUnits="userSpaceOnUse" x="21" y="78" width="469" height="269">
<path d="M438.499 189.135C438.321 189.314 438.142 189.493 437.963 189.671C436.177 191.636 432.604 193.423 429.388 193.423H426.708L426.887 196.103C427.959 207.358 434.748 222.544 441.537 230.405C448.504 238.445 452.077 247.021 451.72 254.881L451.541 257.025L453.685 257.204C466.906 258.455 476.018 252.202 479.412 243.269C484.415 229.691 474.588 215.041 467.978 205.036C459.224 191.994 460.653 176.986 462.618 167.696L462.976 166.088L461.725 165.195C459.045 163.408 457.616 160.371 457.616 156.977C457.616 153.225 458.509 149.116 462.44 145.185C466.37 141.255 470.837 140.719 476.911 140.719C479.948 140.719 487.63 144.113 489.774 147.329V147.687C489.774 147.865 489.596 148.044 489.06 148.401C486.559 149.83 485.129 151.974 484.057 154.297C483.164 156.262 482.628 158.585 481.735 160.729C480.305 164.48 478.519 167.16 472.444 167.16H470.658L470.122 168.947C469.229 171.984 468.871 175.2 468.693 178.416C468.335 188.063 470.837 194.674 474.41 200.569C475.66 202.535 477.626 205.393 479.591 208.609C481.556 211.646 483.521 215.219 485.129 218.614C493.705 237.016 487.988 259.527 467.085 265.958C463.69 267.03 456.187 268.102 448.326 266.673L447.075 266.494L446.182 267.566C445.646 268.102 445.288 268.638 444.752 269.174C444.038 269.889 442.966 270.782 441.894 271.675L441.358 272.033L441.179 272.747C439.393 278.643 439.929 285.432 445.824 292.221C448.147 294.901 450.291 297.045 451.72 299.01C453.328 300.975 454.043 302.226 454.4 303.298C454.757 304.727 454.579 306.514 448.862 310.623C434.39 320.985 428.495 329.918 425.279 336.171C423.849 339.03 422.956 341.352 422.063 342.96C421.348 344.032 420.991 344.211 420.276 344.211C417.418 344.032 413.309 343.675 410.093 342.245L408.128 341.531L407.056 343.317C405.269 346.355 397.765 347.069 394.728 345.104L393.656 344.389L392.584 344.747C386.51 347.069 382.222 346.712 379.721 345.997C378.47 345.64 377.577 345.104 377.041 344.747C376.862 344.568 376.505 344.389 376.505 344.389C365.607 343.496 364.714 332.419 369.537 326.345C370.609 325.094 373.825 320.985 380.793 320.985C385.438 320.985 407.592 307.228 407.592 299.903C407.592 298.295 406.52 297.045 405.626 296.33C404.733 295.437 403.482 294.722 402.232 294.008C399.731 292.578 396.336 290.792 393.12 288.648C386.51 284.36 380.793 278.822 380.793 270.961C380.793 264.529 382.579 253.452 400.803 253.452H403.125V251.13C403.125 238.088 389.904 225.046 383.473 220.222C380.614 218.078 377.398 214.505 375.254 209.86L374.897 208.966L374.004 208.609C367.215 206.286 361.319 198.604 355.602 189.85C352.743 185.383 350.242 180.917 347.741 176.986C345.24 173.056 342.917 169.304 340.416 166.803L339.701 166.088H338.629C335.592 166.088 331.84 165.016 328.625 163.766L327.374 163.23L326.302 163.944C320.585 167.875 314.153 165.374 313.975 161.979L313.796 159.835H311.652C308.436 159.835 307.007 157.87 306.828 154.833C306.65 151.438 308.258 148.223 309.865 147.329L311.295 146.436L310.937 144.828C310.044 140.719 308.436 128.57 343.096 143.756C343.989 144.113 345.061 144.649 346.133 145.185L350.6 147.329L349.528 142.505C348.098 136.431 345.418 130.714 339.701 125.89L338.451 124.818L337.022 125.533C334.699 126.605 333.091 126.426 331.126 125.533C330.054 124.997 328.803 124.282 327.553 123.21C326.123 122.138 324.515 121.066 322.729 119.816C317.905 116.421 318.977 112.312 325.23 110.168L326.838 109.632V108.024C326.838 106.774 326.481 105.702 325.766 104.809C325.409 104.451 325.23 104.094 324.873 103.737C324.515 103.379 324.337 103.201 323.979 102.843C323.622 102.665 323.444 102.307 323.086 101.95C322.729 101.593 322.55 101.414 322.193 101.057C321.657 100.342 321.121 99.6275 320.585 98.5555C318.798 94.9824 322.908 90.8732 327.91 93.0171L331.126 91.2305C331.126 91.2305 331.304 91.0519 331.662 91.0519C332.376 90.6946 333.627 90.5159 334.878 90.6946C337.915 90.6946 340.059 91.7665 340.416 92.3025H344.347C344.168 92.3025 344.168 92.4811 343.989 92.6598C343.989 92.6598 344.168 92.6598 344.525 92.4811C345.061 92.4811 345.776 92.4811 346.848 92.8385C348.813 93.7318 351.85 96.0543 354.173 101.95L354.887 103.915L356.853 103.379C358.639 102.843 360.426 102.486 362.034 102.307C363.106 102.129 367.215 101.95 368.108 101.771C369.18 101.593 370.252 101.057 370.967 100.521C371.681 99.9848 372.217 99.2702 372.753 98.9128C372.932 98.7342 373.289 98.3769 373.468 98.1982C373.646 98.0196 373.825 97.8409 374.182 97.4836C374.54 97.1263 375.076 96.7689 375.433 96.5903C375.612 96.5903 376.862 96.233 379.006 96.0543L381.686 95.697L380.971 93.1958C380.793 92.4811 380.614 91.5879 380.435 90.6946C380.435 90.3372 380.257 89.9799 380.257 89.6226C380.257 89.444 380.257 89.444 380.257 89.2653C380.435 88.908 380.793 88.372 382.579 87.836C384.366 87.3001 386.331 86.9427 387.582 86.5854C388.296 86.4068 389.19 86.0494 389.904 85.8708C390.619 85.5135 391.512 85.1562 392.227 84.6202C393.835 83.3696 394.728 81.4043 393.656 79.0818C394.192 79.0818 394.728 79.2604 395.621 79.4391C397.229 79.7964 399.016 80.1537 400.445 80.8684C401.16 81.047 401.696 81.4043 402.053 81.583C402.232 81.583 402.232 81.7616 402.232 81.7616C402.232 81.9403 402.232 82.119 402.053 82.4763C401.874 83.0123 399.373 87.4787 399.373 87.4787C399.373 87.4787 404.197 86.9427 404.733 86.9427C405.448 86.9427 406.162 86.9427 407.056 87.1214C408.306 87.3001 409.378 87.6574 410.45 87.6574C411.522 87.836 412.773 88.0147 413.845 87.6574C415.274 87.3001 416.524 86.4068 416.882 84.6202C417.06 83.7269 417.06 82.8336 416.882 81.7616C417.775 81.9403 419.026 82.2976 420.276 82.8336C424.207 84.6202 425.636 86.9427 425.1 88.5507C424.564 89.8013 422.777 91.0519 422.777 91.0519L420.098 92.8385L422.956 94.9824C423.135 95.161 423.313 95.161 423.492 95.5183C424.028 96.0543 424.564 96.7689 425.1 97.6622C426.708 100.699 430.281 99.6275 431.71 98.9128C433.14 98.0195 434.748 96.4116 435.284 94.2677C437.07 96.233 438.857 99.4488 439.035 101.771C439.214 103.737 438.678 106.059 437.785 106.774C437.427 106.952 435.641 107.31 435.284 107.31L431.889 107.667C431.889 107.667 433.676 111.062 433.854 111.776C434.033 112.491 434.212 113.741 434.212 115.171C434.033 119.101 437.785 119.816 439.75 119.459C441.358 119.28 442.966 118.387 444.395 116.957C444.574 117.315 444.752 117.493 444.931 118.029C446.003 120.53 446.539 123.925 445.824 126.426C445.467 127.855 443.323 129.821 442.787 129.999C442.609 129.999 442.43 129.999 441.894 129.999C441.537 129.999 441.001 129.999 440.643 129.821C440.107 129.821 439.571 129.642 439.214 129.642C437.07 129.821 436.534 131.071 436.713 132.501C436.713 133.037 436.892 133.573 436.892 134.109C436.892 134.644 436.891 135.18 436.713 136.252C436.177 143.399 442.251 143.399 446.36 141.255C446.539 142.327 446.718 143.577 446.539 145.007C446.539 146.972 446.182 148.937 445.467 150.366C444.752 151.796 444.038 152.332 443.323 152.51C441.715 152.868 441.001 152.51 440.822 152.332C437.785 150.724 436.892 151.796 436.534 153.582C436.534 153.94 436.356 154.118 436.356 154.654C436.177 155.012 435.998 155.548 435.82 156.262C434.033 159.835 435.641 162.694 438.857 163.408C440.286 163.766 442.073 163.587 443.681 163.051C443.681 163.944 443.502 165.195 443.145 166.446C442.073 170.197 440.107 172.52 437.427 172.163C437.427 172.163 437.249 172.163 437.07 171.984C436.713 171.805 436.534 171.627 436.177 171.448C435.82 171.091 435.284 170.912 434.926 170.555C434.39 170.197 433.676 170.019 432.782 170.019C432.068 170.019 430.638 170.555 430.102 172.341C429.924 173.056 429.745 173.771 429.745 174.485C429.566 176.093 429.567 178.058 429.924 180.024C430.281 181.989 430.638 184.133 431.71 185.919C432.604 187.706 434.39 189.493 437.07 189.493C438.142 188.957 438.321 189.135 438.499 189.135ZM117.272 78.3671C116.379 80.511 117.093 82.4763 118.88 83.7269C119.594 84.2629 120.488 84.6202 121.202 84.9775C121.917 85.3348 122.632 85.5135 123.525 85.6921C124.776 86.0494 126.741 86.4068 128.527 86.9427C130.314 87.4787 130.671 88.0147 130.85 88.372V88.7293C130.85 89.0866 130.85 89.444 130.671 89.8013C130.493 90.6946 130.314 91.5879 130.135 92.3025L129.421 94.8037L132.101 95.161C134.244 95.5183 135.495 95.697 135.674 95.697C136.21 95.8757 136.567 96.233 136.924 96.5903C137.103 96.7689 137.46 96.9476 137.639 97.3049C137.818 97.4836 138.175 97.8409 138.354 98.0195C138.89 98.5555 139.425 99.0915 140.14 99.6275C140.855 100.163 141.748 100.699 142.999 100.878C143.892 101.057 148.001 101.235 149.073 101.414C150.681 101.593 152.468 101.95 154.254 102.486L156.219 103.022L156.934 101.057C159.435 95.161 162.294 92.6598 164.259 91.9452C165.331 91.5879 166.046 91.4092 166.582 91.5879C166.76 91.5879 166.939 91.5879 167.118 91.7665C167.118 91.5879 166.939 91.5879 166.76 91.4092H170.691C171.048 90.8732 173.192 89.8013 176.229 89.8013C177.658 89.8013 178.73 89.9799 179.445 90.1586C179.802 90.3372 179.981 90.5159 179.981 90.5159C188.378 89.9799 192.308 94.0891 190.522 97.6622C189.986 98.7342 189.45 99.4488 188.914 100.163C188.557 100.521 188.378 100.878 188.021 101.057C187.663 101.414 187.485 101.593 187.127 101.95C186.77 102.307 186.413 102.486 186.234 102.843C185.877 103.201 185.519 103.558 185.341 103.915C184.805 104.809 184.269 105.881 184.269 107.131V108.739L185.877 109.275C192.13 111.598 193.202 115.707 188.378 118.923C186.591 120.173 184.983 121.245 183.554 122.317C182.125 123.389 181.053 124.104 179.981 124.64C178.016 125.712 176.408 125.89 174.085 124.64L172.656 123.925L171.405 124.997C165.688 129.999 163.008 135.538 161.579 141.612L160.507 146.436L164.974 144.292C166.046 143.756 166.939 143.399 168.011 142.863C202.849 127.677 201.063 140.004 200.169 143.935L199.812 145.543L201.241 146.436C202.849 147.329 204.278 150.545 204.278 153.94C204.1 156.977 202.849 158.942 199.455 158.942H197.489L197.311 161.086C196.953 164.48 190.7 166.982 184.983 163.051L183.911 162.337L182.661 162.872C179.445 164.123 175.693 165.195 172.656 165.195H171.584L170.869 165.91C168.368 168.411 166.046 172.163 163.544 176.093C161.043 180.024 158.542 184.669 155.683 188.957C149.966 197.89 144.071 205.393 137.282 207.716L136.388 208.073L136.031 208.966C133.887 213.611 130.671 217.185 127.813 219.329C121.381 224.331 108.16 237.373 108.16 250.236V252.559H110.483C128.527 252.559 130.493 263.636 130.493 270.067C130.493 278.107 124.776 283.467 118.165 287.755C114.771 289.899 111.555 291.685 109.054 293.114C107.803 293.829 106.552 294.722 105.659 295.437C104.766 296.152 103.694 297.402 103.694 299.01C103.694 306.335 125.847 320.092 130.493 320.092C137.282 320.092 140.676 324.022 141.748 325.452C146.572 331.526 145.679 342.603 136.567 342.603H135.674L134.78 343.496C134.602 343.675 134.423 343.675 134.244 343.853C133.708 344.211 132.815 344.747 131.565 345.104C129.063 345.819 124.954 346.176 118.701 343.853L117.629 343.496L116.557 344.211C113.52 346.176 106.016 345.64 104.23 342.424L103.158 340.637L101.193 341.352C98.1554 342.603 93.8676 343.139 91.0091 343.317C90.2945 343.317 89.7585 343.139 89.2225 342.067C88.3292 340.459 87.4359 338.136 86.0067 335.278C82.7908 329.025 76.8951 320.092 62.4238 309.73C56.7067 305.62 56.5281 303.834 56.8854 302.405C57.2427 301.333 57.9573 300.082 59.5653 298.117C61.1732 296.152 63.1384 294.008 65.461 291.328C71.3567 284.539 72.0713 277.571 70.1061 271.854L69.9274 271.139L69.3915 270.782C68.3195 269.889 67.4262 268.995 66.5329 268.281C65.997 267.745 65.461 267.209 65.1037 266.673L64.2104 265.601L62.9598 265.78C55.0988 267.209 47.5952 266.137 44.2006 265.065C23.2976 259.348 17.5806 236.658 26.1562 218.435C27.7641 215.041 29.7293 211.646 31.6946 208.43C33.6598 205.214 35.6251 202.356 36.8757 200.391C40.4488 194.495 42.95 187.885 42.5927 178.237C42.4141 175.021 42.0567 171.805 41.1635 168.768L40.6275 166.982H38.8409C32.9452 166.982 30.9799 164.302 29.5507 160.55C28.6574 158.406 28.1214 156.083 27.2281 154.118C26.3348 151.974 24.9056 149.652 22.2257 148.223C21.6897 147.865 21.511 147.687 21.511 147.508C21.511 147.329 21.511 147.329 21.511 147.151C23.6549 143.756 31.3373 140.54 34.3744 140.54C40.6275 140.54 44.9153 141.076 48.8458 145.007C52.5976 148.758 53.6695 152.868 53.6695 156.798C53.6695 160.193 52.2403 163.23 49.5604 165.016L48.3098 165.91L48.6671 167.518C50.6323 176.986 52.0616 191.815 43.3074 204.857C36.697 214.862 26.8708 229.512 31.8732 243.09C35.0891 252.023 44.3793 258.276 57.6 257.025L59.7439 256.847L59.9226 254.524C59.5653 246.663 63.1384 238.088 70.1061 230.048C76.8951 222.187 83.6841 207.001 84.7561 195.746L84.9347 193.066H82.2549C79.039 193.244 75.4658 191.279 73.6793 189.314C73.5006 189.135 73.3219 188.957 73.1433 188.778H73.8579C76.5378 188.778 78.1457 186.991 79.2177 185.205C80.111 183.418 80.6469 181.274 81.0042 179.309C81.3616 177.701 81.3616 175.557 81.1829 174.128C81.1829 173.413 81.0042 172.52 80.8256 171.984C80.2896 170.197 78.8604 169.662 78.1457 169.662C77.2524 169.662 76.5378 170.019 76.0018 170.197C75.6445 170.376 75.1085 170.733 74.7512 171.091C74.3939 171.269 74.2152 171.448 73.8579 171.627C73.6793 171.805 73.5006 171.805 73.5006 171.805C70.8207 171.984 68.8555 169.84 67.7835 166.088C67.4262 164.838 67.2476 163.587 67.2476 162.694C68.8555 163.23 70.6421 163.408 72.0713 163.051C75.2872 162.337 76.8951 159.657 75.1085 155.905C74.7512 155.19 74.5726 154.833 74.5726 154.297C74.3939 153.94 74.3939 153.582 74.3939 153.225C74.0366 151.438 73.1433 150.366 70.1061 151.974C69.9274 152.153 69.2128 152.332 67.6049 152.153C66.8902 151.974 66.1756 151.438 65.461 150.009C64.7463 148.58 64.389 146.615 64.389 144.649C64.389 143.22 64.389 141.969 64.5677 140.898C68.4982 143.041 74.7512 143.041 74.2152 135.895C74.2152 135.002 74.0366 134.287 74.0366 133.751C74.0366 133.215 74.0366 132.858 74.2152 132.143C74.3939 130.714 73.8579 129.463 71.714 129.285C71.3567 129.285 70.8207 129.285 70.2848 129.463C69.7488 129.463 69.3915 129.463 68.8555 129.463C68.4982 129.463 68.1409 129.463 67.9622 129.463C67.2476 129.285 65.2823 127.32 64.925 125.89C64.2104 123.389 64.7463 119.995 65.8183 117.493C65.997 117.136 66.1756 116.779 66.3543 116.421C67.6049 117.851 69.3915 118.565 70.9994 118.923C72.9646 119.28 76.7164 118.565 76.5378 114.635C76.5378 113.027 76.7164 111.955 76.8951 111.24C77.0738 110.704 78.8603 107.131 78.8603 107.131L75.4658 106.774C75.1085 106.774 73.3219 106.416 72.9646 106.238C72.0713 105.523 71.5354 103.201 71.714 101.235C71.8927 98.9128 73.6793 95.697 75.4658 93.9104C76.0018 96.0543 77.6097 97.6622 79.039 98.3769C80.4683 99.2702 84.0414 100.342 85.6494 97.1263C86.1853 96.0543 86.7213 95.3397 87.2573 94.9824C87.4359 94.8037 87.6146 94.625 87.7933 94.4464C87.7933 90.5159 86.0067 89.2653 85.6494 87.836C85.1134 86.2281 86.5426 83.9055 90.4731 82.119C91.7237 81.583 92.9743 81.2257 93.8676 81.047C93.689 82.119 93.689 83.0123 93.8676 83.9055C94.225 85.6921 95.4756 86.5854 96.9048 86.9427C97.9768 87.1214 99.406 87.1214 100.299 86.9427C101.371 86.7641 102.443 86.5854 103.694 86.4068C104.587 86.2281 105.48 86.2281 106.016 86.2281C106.552 86.2281 111.376 86.7641 111.376 86.7641C111.376 86.7641 109.054 82.4763 108.696 81.7616C108.518 81.4043 108.518 81.2257 108.518 81.047H108.696C109.232 80.6897 109.768 80.511 110.304 80.3324C111.733 79.7964 113.52 79.2604 115.128 78.9031C116.2 78.5458 116.915 78.3671 117.272 78.3671Z" fill="white"/>
</mask>
<g mask="url(#mask7_1_23324)">
<mask id="mask8_1_23324" style="mask-type:luminance" maskUnits="userSpaceOnUse" x="-537" y="-12" width="2977" height="29926">
<path d="M-536.975 -11.8553H2439.65V29913.4H-536.975V-11.8553Z" fill="white"/>
</mask>
<g mask="url(#mask8_1_23324)">
<path d="M-18.1511 38.705H530.151V386.195H-18.1511V38.705Z" fill="#E22726"/>
</g>
</g>
<mask id="mask9_1_23324" style="mask-type:luminance" maskUnits="userSpaceOnUse" x="19" y="74" width="475" height="365">
<path d="M31.5159 158.227C33.1239 162.515 34.1958 163.766 42.2354 163.587C43.6647 168.054 44.558 173.413 44.558 176.629C44.9153 186.813 42.4141 193.78 38.6623 200.033C37.4117 201.999 35.4464 204.857 33.4812 208.073C31.5159 211.11 29.5507 214.505 28.1214 217.721C19.9032 235.229 25.6202 256.132 44.9153 262.206C47.7738 263.1 54.0269 263.993 60.8159 263.1C59.7439 261.313 59.0293 259.348 58.672 257.383C44.558 258.812 34.0172 252.38 30.2653 242.197C27.4068 234.693 28.8361 227.011 31.6946 220.222C34.3745 213.433 38.4836 207.18 41.8781 201.999C50.0964 189.671 49.0245 175.021 46.1659 162.694C48.8458 161.265 51.7043 160.193 51.7043 155.19C51.7043 151.617 50.9897 148.044 47.5952 145.007C40.2702 138.039 28.6574 142.505 24.5483 145.543C26.8708 147.151 28.1214 149.473 29.0147 151.438C30.0867 153.582 30.6227 155.905 31.5159 158.227ZM127.277 202.535C128.706 203.964 130.671 204.857 133.351 204.857C139.426 204.857 145.5 199.14 151.932 189.135C155.147 184.49 158.006 179.309 160.686 174.843C163.366 170.376 166.224 165.91 169.083 162.872L170.512 161.265C175.872 161.979 184.09 158.227 184.09 158.227L186.234 159.657C188.021 160.907 190.522 161.265 192.487 161.086C194.095 160.907 194.631 160.014 194.81 158.763C195.167 156.262 193.023 154.476 191.594 153.761C188.735 152.332 190.879 148.222 193.559 149.473C193.559 149.473 196.775 150.724 198.919 155.19C201.241 155.369 201.42 154.118 201.599 152.689C201.956 149.83 200.169 145.007 192.666 145.007C189.629 145.185 189.271 140.54 192.308 140.362C192.308 140.362 195.524 140.183 197.668 141.076C198.025 138.932 197.132 137.86 196.239 137.503C193.559 136.431 186.234 136.431 168.725 144.113C164.795 145.9 156.577 150.902 148.537 153.761C150.324 155.905 153.004 156.977 155.683 154.833C159.971 151.438 159.078 169.125 152.468 170.197C149.966 170.555 148.18 169.125 148.18 169.125C148.18 169.125 147.822 171.269 147.286 172.52C145.857 175.379 146.393 178.773 151.038 178.416C151.038 183.954 146.215 191.636 138.175 188.778C132.458 186.813 134.78 178.237 128.527 179.309C128.349 179.309 127.634 182.346 127.991 186.277C128.885 197.889 133.53 195.21 133.887 196.46C134.78 199.14 131.386 201.82 127.277 202.535ZM132.279 209.502C126.026 209.145 122.632 205.929 120.845 201.82C117.451 200.569 114.771 197.532 114.235 191.994C113.699 186.813 116.736 180.024 111.376 180.024C110.483 180.024 109.59 184.133 109.054 186.098C106.374 198.604 112.448 195.21 110.126 197.889C106.195 202.356 92.9744 201.463 94.4036 188.421C94.761 184.669 98.5128 177.701 94.5823 177.701C91.9024 177.701 92.2598 187.706 87.436 191.994C87.0787 205.214 78.6817 222.544 72.0714 230.048C60.8159 242.911 59.208 256.311 68.3195 265.422C69.5701 266.673 71.5354 268.281 73.322 269.889C75.2872 271.675 77.6098 273.641 79.3964 275.963C83.1482 280.787 86.0067 287.933 79.575 294.901C77.9671 296.509 76.7165 298.117 75.4659 299.546C72.6073 302.762 74.5726 303.834 77.0738 305.62C87.7933 313.124 94.0463 319.734 98.3341 325.63C100.478 328.489 101.907 331.169 103.158 333.67C104.23 335.992 105.302 338.136 106.195 340.101C106.91 341.352 112.448 343.317 116.557 340.101C116.736 337.422 115.664 334.563 114.056 332.24C112.269 329.561 116.2 326.702 118.165 329.382C120.309 332.419 122.096 337.243 121.56 341.173C126.026 342.781 129.778 342.603 132.815 340.816C133.351 336.171 132.101 332.955 130.493 330.811C128.527 328.131 132.458 325.273 134.423 327.774C136.567 330.633 137.996 334.92 137.996 338.851C140.676 338.493 141.569 336.886 141.927 334.742C142.463 331.526 141.212 327.595 139.783 325.809C138.89 324.737 136.21 321.521 130.671 321.521C125.49 321.521 101.371 307.228 101.371 297.938C101.371 295.08 103.337 293.293 104.23 292.4C105.302 291.328 106.731 290.434 107.982 289.72C110.483 288.291 113.699 286.504 117.093 284.36C123.704 280.072 128.349 275.427 128.349 268.817C128.349 263.1 126.562 255.239 114.771 254.167C112.269 253.988 103.694 253.095 98.1555 255.953C95.2969 257.383 92.6171 253.809 95.2969 252.023C95.2969 252.023 98.3341 249.879 106.016 248.986C106.016 234.693 120.13 220.936 126.741 216.113C128.349 214.683 130.493 212.361 132.279 209.502ZM73.322 276.32C73.5006 281.323 71.714 286.683 67.0689 292.042C64.7464 294.722 62.6025 296.866 61.1732 298.831C58.3147 302.405 58.136 302.941 63.6744 307.05C78.5031 317.769 84.5774 326.702 87.972 333.491C90.1159 337.958 90.8305 340.459 91.7238 340.459C93.5104 340.28 95.2969 340.101 97.4408 339.565C98.5128 339.387 99.4061 339.03 100.121 338.672C96.7262 331.347 91.7238 322.057 74.5726 310.087C65.1037 303.477 69.7488 299.189 76.3592 292.042C81.5403 286.147 77.9671 280.787 73.322 276.32ZM151.932 131.607H136.746V119.816C136.746 119.816 148.894 119.816 152.468 119.458C153.361 119.28 154.79 119.28 156.577 119.637C156.755 119.637 157.47 119.637 157.47 119.28C157.827 117.136 157.649 112.491 157.649 112.491C157.649 112.491 160.329 109.811 160.329 105.166C156.219 103.558 151.932 102.307 148.716 101.95C147.465 101.771 143.535 101.593 142.641 101.414C141.033 101.235 139.962 100.521 139.068 99.9847C138.354 99.4488 136.21 96.5902 134.959 96.2329C126.026 94.089 116.2 95.161 113.877 95.5183C110.84 96.2329 110.126 98.9128 110.126 98.9128C108.518 98.9128 104.766 98.9128 103.337 99.2701C101.55 99.6274 100.835 99.8061 100.835 100.878C100.835 103.022 106.016 106.238 106.016 106.238C106.016 106.238 104.944 112.491 102.979 117.851C102.622 119.101 102.622 119.994 103.515 122.317C104.944 125.533 108.339 127.319 112.984 128.034C116.379 128.57 120.666 133.93 122.81 134.823C124.061 135.359 132.279 135.18 135.316 135.18C141.569 135.002 148.001 134.466 150.145 133.93C151.038 133.93 151.574 132.501 151.932 131.607ZM138.89 139.468C131.386 139.826 122.989 140.004 120.845 138.932C116.557 136.61 114.235 133.037 112.091 132.501C107.267 131.607 101.729 129.642 99.4061 124.282C96.7262 118.029 99.4061 116.6 101.193 108.382C95.1183 103.737 95.4756 99.4488 98.5128 96.7689C99.7634 95.697 103.873 94.9823 107.624 94.9823C108.696 90.6945 119.594 90.5159 127.634 91.0518C127.813 90.3372 127.991 89.6226 128.17 89.0866C128.527 88.0146 128.527 87.6573 126.741 87.3C122.989 86.5854 120.845 85.8707 118.165 84.4415C115.843 83.1909 114.592 80.8683 114.949 79.6177C115.485 78.3671 111.555 79.6177 111.019 80.3323C110.304 81.5829 113.699 86.5854 113.699 86.5854C113.699 86.5854 109.054 86.2281 106.195 86.4067C102.086 86.5854 99.5847 87.6573 96.7262 87.3C93.3317 86.9427 91.3665 84.2628 91.5451 82.2976C91.7238 81.047 87.0787 84.4415 87.2573 85.6921C87.436 86.764 88.8652 88.5506 92.7957 91.0518C86.1854 94.9823 87.7933 99.6274 82.0762 99.8061C80.4683 99.8061 75.8232 98.5555 75.4659 96.2329C75.1086 94.8037 72.0714 100.163 73.8579 103.022C74.7512 104.451 75.8232 104.273 80.647 104.63C78.6817 108.382 78.5031 110.168 78.5031 113.384C78.5031 116.421 77.6098 117.493 75.1086 118.923C73.5006 119.994 69.5701 120.53 67.2476 118.208C66.533 117.493 65.997 122.496 66.533 123.925C67.0689 125.354 67.9622 126.069 70.2848 126.069C73.8579 125.89 75.8232 125.176 75.8232 125.89C75.6445 127.855 75.6445 130.893 76.0018 135.895C76.3592 141.433 70.2848 143.935 66.1756 141.791C65.1037 141.255 66.1756 148.401 68.1409 148.58C71.8927 148.937 75.2872 145.543 75.4659 146.615C76.3592 152.332 77.6098 152.868 77.9671 155.726C78.8604 162.158 72.4287 163.944 70.2848 162.872C68.6769 162.158 70.8208 169.125 74.0366 167.875C75.1086 167.339 76.7165 166.088 78.1457 166.088C80.4683 166.088 81.8976 166.982 82.9695 170.019C83.5055 171.627 83.6842 175.021 83.1482 178.416C82.7909 180.56 82.4335 182.704 81.1829 184.847C80.4683 186.098 79.2177 187.349 77.9671 187.706C75.8232 188.242 81.5403 190.922 84.3988 189.135C86.7213 187.885 88.3293 179.13 88.8652 178.058C90.2945 174.664 92.6171 173.592 94.5823 173.592C97.4408 173.592 99.7634 175.379 100.478 178.058C101.014 179.845 100.657 181.81 100.299 182.882C100.121 184.133 98.8701 188.421 98.6914 189.135C97.0835 196.818 105.48 196.996 104.587 196.103C103.337 194.674 103.515 190.207 104.587 185.383C104.766 184.311 105.838 180.381 106.731 178.773C108.16 176.45 110.126 175.736 111.376 175.736C117.987 175.736 119.058 180.917 119.058 183.954C119.058 185.205 118.701 190.564 118.701 191.636C118.701 200.569 130.135 198.247 128.17 197.353C125.847 196.282 124.597 192.887 123.882 186.277C123.346 180.917 124.776 175.379 125.312 175.2C129.957 173.771 134.602 173.592 137.46 179.309C138.175 180.738 138.89 183.239 139.783 183.954C141.748 185.562 145.5 183.954 146.393 181.453C142.105 180.202 141.927 174.128 143.892 170.197C144.785 168.411 145.5 165.91 146.036 163.051C146.751 163.766 150.681 166.624 152.646 166.088C154.076 165.552 155.683 159.299 154.076 160.193C150.681 161.979 146.751 157.87 145.321 155.905C144.607 154.833 142.82 152.689 142.641 148.401C142.463 145.543 142.105 141.969 138.89 139.468ZM158.899 143.756C159.971 136.074 162.651 128.57 170.155 122.138L172.477 119.994L175.336 121.424C176.944 122.138 177.658 122.138 179.088 121.424C179.981 120.888 181.053 120.352 182.482 119.28C183.911 118.208 185.519 116.957 187.485 115.885C191.058 113.563 189.628 111.776 185.698 110.347L182.304 109.096V106.416C182.304 102.129 184.269 100.342 185.877 98.9128C186.234 98.5555 189.45 96.0543 188.914 94.2677C188.378 92.1238 183.911 92.8384 183.911 92.8384C181.946 93.3744 180.338 96.4116 179.624 97.8408C178.373 100.878 173.728 98.9128 175.157 95.8756C175.157 95.8756 176.408 93.0171 178.194 91.0518C178.016 89.9799 174.085 90.3372 172.835 91.2305C171.763 92.6598 170.869 94.8037 170.512 96.0543C169.976 99.2701 165.152 98.3768 165.688 95.161C165.688 95.161 166.046 93.7317 166.76 92.3024C164.438 92.1238 161.758 94.9823 159.435 100.163C161.222 100.699 162.83 101.414 164.438 101.95C165.331 106.238 164.438 110.526 161.936 113.563C161.936 118.029 162.294 124.461 157.113 123.746C156.041 123.568 154.076 123.389 153.004 123.389C149.252 123.925 143.713 123.746 141.033 123.746V127.141H156.398C158.006 128.749 155.326 137.146 151.038 138.039C149.788 138.218 147.465 138.575 144.607 138.754C146.751 142.148 146.929 146.436 147.286 148.937C151.396 147.508 155.326 145.543 158.899 143.756ZM353.101 143.756C356.674 145.543 360.426 147.686 364.714 149.294C364.892 146.793 365.25 142.505 367.393 139.111C364.535 138.932 362.212 138.575 360.962 138.396C356.674 137.682 353.994 129.285 355.602 127.498H370.967V124.104C368.287 124.104 362.748 124.104 358.997 123.746C357.925 123.568 355.959 123.925 354.887 124.104C349.885 124.818 350.064 118.387 350.064 113.92C347.562 110.883 346.848 106.416 347.562 102.307C349.17 101.593 350.778 101.057 352.565 100.521C350.242 95.3396 347.562 92.4811 345.24 92.6598C345.954 94.089 346.312 95.5183 346.312 95.5183C346.848 98.7341 342.024 99.6274 341.488 96.4116C341.309 95.161 340.416 93.0171 339.165 91.5878C337.915 90.6945 333.806 90.3372 333.806 91.4092C335.592 93.3744 336.843 96.2329 336.843 96.2329C338.094 99.2701 333.627 101.057 332.376 98.1982C331.84 96.7689 330.233 93.7317 328.089 93.1957C328.089 93.1957 323.622 92.4811 323.086 94.625C322.55 96.4116 325.945 99.0915 326.123 99.2701C327.91 100.699 329.697 102.665 329.697 106.774V109.454L326.302 110.704C322.372 111.955 320.942 113.741 324.516 116.243C326.302 117.493 327.91 118.744 329.518 119.637C330.947 120.709 332.019 121.424 332.912 121.781C334.342 122.496 335.056 122.496 336.664 121.781L339.523 120.352L341.845 122.496C349.349 128.57 352.029 136.074 353.101 143.756ZM372.932 139.468C369.716 141.969 369.537 145.721 369.359 148.58C369.18 152.689 367.393 155.011 366.679 156.083C365.25 158.049 361.14 162.158 357.925 160.371C356.317 159.478 357.925 165.731 359.354 166.267C361.319 166.982 365.25 163.944 365.964 163.23C366.5 166.088 367.215 168.59 368.108 170.376C370.073 174.307 369.895 180.381 365.786 181.989C366.679 184.49 370.431 186.098 372.396 184.49C373.289 183.775 374.004 181.274 374.718 179.845C377.577 174.128 382.222 174.307 386.867 175.736C387.225 175.915 388.832 181.274 388.297 186.813C387.582 193.423 386.153 196.996 384.009 197.889C382.043 198.783 393.478 201.105 393.478 192.172C393.478 191.1 393.12 185.741 393.12 184.49C393.12 181.453 394.014 176.272 400.803 176.272C402.053 176.272 404.018 176.986 405.448 179.309C406.341 180.738 407.234 184.669 407.592 185.919C408.664 190.743 408.842 195.21 407.592 196.639C406.698 197.532 415.095 197.353 413.487 189.671C413.309 188.957 412.058 184.49 411.879 183.418C411.701 182.346 411.343 180.381 411.701 178.594C412.415 175.914 414.738 174.128 417.596 174.128C419.562 174.128 421.884 175.2 423.314 178.594C423.849 179.845 425.457 188.421 427.78 189.671C430.638 191.279 436.356 188.778 434.212 188.242C432.961 187.885 431.71 186.634 430.996 185.383C429.924 183.239 429.388 181.096 429.031 178.952C428.495 175.557 428.852 172.163 429.209 170.555C430.103 167.518 431.71 166.624 434.033 166.624C435.462 166.624 437.07 168.054 438.142 168.411C441.358 169.661 443.502 162.694 441.894 163.408C439.571 164.302 433.318 162.694 434.212 156.262C434.569 153.582 435.82 152.868 436.713 147.151C436.892 146.257 440.286 149.473 444.038 149.116C446.003 148.937 447.075 141.791 446.003 142.327C441.894 144.471 435.82 141.969 436.177 136.431C436.534 131.25 436.356 128.213 436.356 126.426C436.356 125.712 438.321 126.426 441.894 126.605C444.217 126.605 445.11 125.89 445.646 124.461C446.182 123.032 445.646 118.029 444.931 118.744C442.43 121.066 438.678 120.53 437.07 119.458C434.748 118.029 433.676 116.957 433.676 113.92C433.676 110.704 433.318 108.918 431.532 105.166C436.356 104.809 437.249 104.987 438.321 103.558C440.107 100.878 437.07 95.3396 436.713 96.7689C436.177 99.2701 431.71 100.521 430.103 100.342C424.385 100.163 425.993 95.5183 419.383 91.5878C423.135 89.0866 424.743 87.3 424.921 86.2281C425.1 84.7988 420.455 81.5829 420.634 82.8336C420.812 84.7988 419.026 87.4787 415.453 87.836C412.594 88.1933 410.093 87.1214 405.984 86.9427C403.125 86.764 398.48 87.1214 398.48 87.1214C398.48 87.1214 401.875 82.1189 401.16 80.8683C400.803 80.1537 396.872 78.7244 397.229 80.1537C397.587 81.4043 396.336 83.7268 394.014 84.9775C391.334 86.4067 389.19 87.1214 385.438 87.836C383.651 88.1933 383.651 88.5506 384.009 89.6226C384.187 90.1585 384.366 90.8732 384.545 91.5878C392.584 91.0518 403.482 91.2305 404.554 95.5183C408.306 95.5183 412.415 96.2329 413.666 97.3049C416.703 99.8061 416.882 104.273 410.986 108.918C412.594 117.315 415.453 118.565 412.773 124.818C410.45 130.178 405.09 132.143 400.088 133.037C397.944 133.394 395.621 137.146 391.334 139.468C389.011 139.826 380.436 139.826 372.932 139.468ZM359.89 131.607C360.247 132.501 360.962 133.93 361.676 134.108C363.82 134.644 370.252 135.002 376.505 135.359C379.721 135.538 387.761 135.538 389.011 135.002C391.155 134.108 395.443 128.749 398.837 128.213C403.482 127.498 406.877 125.712 408.306 122.496C409.378 120.173 409.378 119.101 408.842 118.029C406.877 112.669 405.805 106.416 405.805 106.416C405.805 106.416 411.165 103.022 410.986 101.057C410.986 99.8061 410.271 99.8061 408.485 99.4488C406.877 99.0915 403.304 99.0915 401.696 99.0915C401.696 99.0915 400.981 96.2329 397.944 95.697C395.621 95.161 385.795 94.2677 376.862 96.2329C375.79 96.4116 373.468 99.4488 372.753 99.9847C371.86 100.699 370.609 101.235 369.18 101.414C368.287 101.593 364.178 101.95 363.106 101.95C359.89 102.307 355.602 103.558 351.493 105.166C351.493 109.811 354.173 112.491 354.173 112.491C354.173 112.491 353.994 117.136 354.351 119.28C354.351 119.637 354.887 119.816 355.245 119.637C357.031 119.28 358.461 119.458 359.354 119.458C362.927 119.816 375.076 119.816 375.076 119.816V131.607H359.89ZM438.678 276.32C434.033 280.966 430.46 286.325 435.641 291.864C442.251 299.01 446.896 303.298 437.428 309.908C420.098 321.878 415.274 331.347 411.879 338.494C412.594 338.851 413.487 339.029 414.559 339.387C416.703 339.923 418.668 340.101 420.276 340.28C421.17 340.28 421.706 337.779 424.028 333.312C427.423 326.702 433.497 317.591 448.326 306.871C453.864 302.941 453.507 302.226 450.827 298.653C449.219 296.687 447.254 294.544 444.931 291.864C440.286 286.683 438.499 281.323 438.678 276.32ZM379.721 209.502C381.507 212.361 383.651 214.505 385.617 215.934C392.048 220.936 406.162 234.514 406.341 248.807C414.023 249.522 417.06 251.844 417.06 251.844C419.74 253.809 417.06 257.383 414.202 255.775C408.664 252.916 400.088 253.809 397.587 253.988C385.795 255.06 384.009 262.921 384.009 268.638C384.009 275.248 388.654 280.072 395.264 284.181C398.659 286.325 401.875 288.112 404.376 289.541C405.626 290.256 407.056 291.149 408.128 292.221C409.021 293.114 410.986 294.901 410.986 297.759C410.986 307.228 386.867 321.342 381.686 321.342C375.969 321.342 373.468 324.558 372.575 325.63C371.145 327.417 369.895 331.347 370.431 334.563C370.788 336.528 371.681 338.315 374.361 338.672C374.361 334.742 375.612 330.454 377.934 327.595C379.9 324.915 383.83 327.953 381.865 330.633C380.257 332.598 379.006 335.992 379.542 340.637C382.579 342.424 386.331 342.603 390.798 340.995C390.262 337.243 392.048 332.24 394.192 329.203C395.979 326.523 400.088 329.382 398.301 332.062C396.693 334.206 395.621 337.243 395.8 339.923C399.731 343.139 405.448 341.173 406.162 339.923C407.234 337.958 408.128 335.814 409.2 333.491C410.45 330.99 412.058 328.31 414.023 325.451C418.311 319.556 424.564 312.945 435.284 305.442C437.785 303.655 439.75 302.583 436.892 299.367C435.641 297.938 434.212 296.509 432.782 294.722C426.351 287.755 429.209 280.43 432.961 275.784C434.748 273.462 437.07 271.318 439.035 269.71C440.822 268.102 442.787 266.673 444.038 265.244C453.149 256.311 451.542 242.911 440.286 229.869C433.676 222.366 425.279 205.036 424.921 191.815C420.098 187.706 420.455 177.522 417.775 177.522C414.023 177.522 417.596 184.49 417.954 188.242C419.383 201.284 406.162 202.177 402.232 197.711C399.909 195.031 405.984 198.247 403.304 185.919C402.946 183.954 401.875 179.845 400.981 179.845C395.621 179.845 398.659 186.634 398.123 191.815C397.587 197.353 394.728 200.391 391.512 201.641C389.368 206.108 385.974 209.324 379.721 209.502ZM384.723 202.535C380.614 201.82 377.22 199.319 377.756 196.46C377.934 195.21 382.579 197.889 383.651 186.277C384.009 182.346 383.294 179.309 383.115 179.309C376.862 178.237 379.185 186.813 373.468 188.778C365.428 191.636 360.604 183.954 360.604 178.416C365.25 178.594 365.786 175.2 364.356 172.52C363.82 171.269 363.463 169.125 363.463 169.125C363.463 169.125 361.498 170.555 359.175 170.197C352.565 169.304 351.672 151.438 355.959 154.833C358.639 156.977 361.319 155.726 363.106 153.761C355.245 150.724 346.848 145.721 342.917 144.113C325.409 136.431 318.084 136.431 315.404 137.503C314.511 137.86 313.617 138.932 313.975 141.076C316.119 140.183 319.334 140.362 319.334 140.362C322.372 140.54 322.193 145.185 318.977 145.007C311.473 145.007 309.866 150.009 310.044 152.689C310.223 154.118 310.401 155.369 312.724 155.19C314.868 150.902 318.084 149.473 318.084 149.473C320.942 148.044 322.908 152.332 320.049 153.761C318.62 154.476 316.476 156.262 316.833 158.763C317.012 159.835 317.548 160.729 319.156 161.086C321.121 161.443 323.622 160.907 325.409 159.657L327.553 158.227C327.553 158.227 335.771 161.979 341.131 161.265L342.56 162.872C345.419 165.91 348.277 170.376 350.957 174.843C353.637 179.309 356.495 184.311 359.711 189.135C366.322 198.961 372.396 204.857 378.292 204.857C381.329 204.678 383.294 203.785 384.723 202.535ZM480.484 158.227C481.377 156.083 481.913 153.761 482.807 151.617C483.7 149.652 484.951 147.329 487.273 145.721C483.164 142.684 471.551 138.218 464.226 145.185C461.01 148.222 460.117 151.796 460.117 155.369C460.117 160.371 462.976 161.443 465.656 162.872C462.797 175.2 461.725 189.671 469.943 202.177C473.338 207.358 477.447 213.611 480.127 220.4C482.807 227.189 484.236 234.872 481.556 242.375C477.804 252.559 467.442 259.169 453.149 257.561C452.613 259.527 451.899 261.492 451.006 263.278C457.795 264.172 464.048 263.278 466.906 262.385C486.201 256.311 491.74 235.408 483.7 217.899C482.092 214.683 480.127 211.289 478.34 208.252C476.375 205.036 474.41 202.177 473.159 200.212C469.407 193.959 466.727 186.991 467.263 176.808C467.442 173.413 468.157 168.232 469.586 163.766C477.626 163.766 478.698 162.515 480.484 158.227ZM255.911 431.038C276.992 431.038 294.322 428.716 309.33 425.5C324.516 422.284 337.2 417.996 348.992 414.245C372.039 406.741 392.942 400.309 420.098 406.741C424.921 407.992 424.921 407.992 425.815 404.418L436.892 355.109C437.606 352.25 437.606 352.25 433.854 351.357C401.517 344.389 374.897 349.213 347.92 356.002C333.627 359.575 319.513 363.684 304.684 367.079C289.498 370.473 273.419 372.796 256.089 372.796C238.581 372.796 222.68 370.473 207.494 367.079C192.666 363.863 178.552 359.754 164.259 356.002C137.103 349.213 110.483 344.389 78.3244 351.357C74.7512 352.25 74.7512 352.25 75.2872 355.109L86.364 404.418C87.0787 407.992 87.2573 407.992 92.0811 406.741C119.416 400.309 140.14 406.741 163.187 414.245C174.979 417.996 187.663 422.284 202.849 425.5C217.499 428.716 234.829 431.038 255.911 431.038ZM199.633 358.146C164.795 338.494 141.212 301.333 141.212 258.633C141.212 220.4 159.971 186.634 188.914 165.91C187.127 165.552 185.162 164.838 183.554 163.766C180.338 165.016 176.229 166.267 172.835 166.267C164.08 175.379 153.718 203.071 138.89 208.609C136.567 213.611 133.172 217.542 129.957 220.043C123.525 225.046 111.198 237.373 111.198 249.164C131.207 249.164 133.53 261.849 133.53 268.995C133.53 287.576 106.552 293.293 106.552 298.117C106.552 303.476 126.919 316.876 131.029 316.876C139.068 316.876 142.82 321.521 144.071 323.129C148.18 328.31 149.788 341.352 140.319 343.675C160.329 347.069 179.445 353.143 199.633 358.146ZM370.788 258.633C370.788 301.333 347.205 338.494 312.367 358.146C332.555 353.322 351.672 347.248 371.86 343.675C362.391 341.352 363.999 328.31 368.108 323.129C369.359 321.521 373.289 316.876 381.15 316.876C385.259 316.876 405.626 303.476 405.626 298.117C405.626 293.293 378.649 287.576 378.649 268.995C378.649 262.028 380.971 249.164 400.981 249.164C400.981 237.373 388.654 225.046 382.222 220.043C379.006 217.542 375.612 213.611 373.289 208.609C358.282 203.071 348.098 175.379 339.344 166.267C335.95 166.267 331.84 165.016 328.625 163.766C327.017 164.838 325.23 165.552 323.265 165.91C352.029 186.634 370.788 220.4 370.788 258.633ZM151.753 258.633C151.753 315.804 198.383 362.255 255.911 362.255C313.439 362.255 360.068 315.804 360.068 258.633C360.068 201.463 313.439 155.011 255.911 155.011C198.383 155.011 151.753 201.284 151.753 258.633ZM327.91 123.746L325.051 132.858C330.054 133.93 336.486 135.895 344.883 139.647C345.954 140.004 346.848 140.54 347.92 141.076C346.669 135.359 344.168 130.178 338.987 125.712C334.52 127.677 331.662 126.426 327.91 123.746ZM186.949 132.858L184.09 123.746C180.338 126.426 177.301 127.677 173.192 125.533C168.011 129.999 165.51 135.18 164.259 140.897C165.331 140.362 166.403 139.826 167.296 139.468C175.514 135.895 181.946 133.751 186.949 132.858ZM319.334 98.0195C299.682 90.3372 278.243 86.0494 255.911 86.0494C233.578 86.0494 212.139 90.3372 192.487 98.0195C189.986 102.486 186.77 102.843 186.77 105.88C193.38 108.203 197.311 114.456 189.986 119.458L194.095 132.143C203.028 132.501 203.743 138.575 202.671 143.399C205.886 145.364 207.673 151.26 206.244 155.547C221.251 148.401 238.224 144.292 255.911 144.292C273.777 144.292 290.57 148.401 305.578 155.547C304.148 151.26 306.114 145.185 309.151 143.399C308.079 138.575 308.794 132.501 317.727 132.143L321.836 119.458C314.689 114.456 318.441 108.203 325.051 105.88C325.23 102.843 321.836 102.486 319.334 98.0195ZM192.308 90.5159C212.139 83.0122 233.578 79.0817 256.089 79.0817C278.6 79.0817 300.039 83.1909 319.87 90.5159C322.193 88.0146 326.659 87.3 329.697 88.7293C330.233 84.7988 341.131 85.5134 343.275 88.5506C344.347 86.9427 352.029 86.0494 357.389 98.7341C359.354 98.1982 361.14 97.8409 362.927 97.6622C363.999 97.4835 367.929 97.3049 369.001 97.1262C371.681 96.7689 372.753 93.3744 375.79 92.1238C376.326 91.9451 377.756 91.5878 379.9 91.4092C379.542 89.8012 378.828 87.3 379.185 86.2281C380.078 83.0122 385.438 82.8336 387.939 81.9403C390.798 81.047 394.192 79.975 392.406 77.1165C389.011 71.7567 404.018 75.6872 405.626 78.0098C406.52 79.439 404.912 82.1189 404.912 82.1189C404.912 82.1189 406.877 81.9403 408.842 82.2976C413.845 83.0122 417.596 84.6201 415.631 78.3671C414.381 74.258 431.353 79.7964 428.673 87.1214C427.959 89.2653 425.457 90.8732 425.457 90.8732C425.457 90.8732 427.065 91.9451 428.495 94.4463C429.745 96.7689 434.39 94.089 434.39 91.0518C434.39 84.7988 442.251 93.3744 442.787 99.4488C442.966 101.593 442.609 104.987 440.643 106.595C439.75 107.31 437.07 107.667 437.07 107.667C437.07 107.667 438.321 109.632 438.142 113.205C437.964 116.421 443.681 115.528 445.288 111.955C446.718 109.096 451.542 118.565 449.755 124.997C449.219 126.962 446.539 129.642 444.931 130.178C443.145 130.535 440.643 129.642 440.643 130.357C440.822 131.786 440.822 132.501 440.643 134.466C440.286 138.932 444.753 139.647 448.147 136.252C450.827 133.751 452.435 151.617 445.288 152.689C441.001 153.404 440.465 151.26 440.286 151.974C440.107 152.689 440.107 153.404 439.214 155.011C436.892 159.835 442.966 159.478 446.003 157.87C448.683 156.441 447.611 173.056 438.678 172.341C436.892 172.163 435.82 170.376 434.212 170.376C432.782 170.376 432.604 185.026 438.321 185.026C446.718 185.026 437.428 194.495 429.567 193.959C430.46 204.857 437.07 219.507 443.681 227.011C450.827 235.229 454.936 244.519 454.579 253.095C467.085 254.345 475.303 248.628 478.162 240.767C482.628 228.44 473.874 214.862 467.085 204.678C457.795 190.743 459.402 175.021 461.546 165.552C458.152 163.23 456.544 159.478 456.544 155.547C456.544 151.26 457.437 146.436 461.904 142.148C473.159 131.607 490.31 140.54 492.99 144.649C493.884 145.9 493.526 147.865 491.561 148.937C483.879 153.046 488.524 168.054 473.874 168.054C472.981 170.912 472.623 173.949 472.445 176.986C472.087 186.277 474.41 192.351 477.804 197.889C480.305 201.82 485.487 209.324 488.524 216.113C497.457 235.229 491.561 259.527 469.05 266.673C465.298 267.924 457.259 268.995 448.862 267.388C448.326 267.923 447.79 268.638 447.254 269.174C446.539 269.889 445.646 270.603 444.753 271.497C442.966 276.678 443.323 282.752 448.862 289.184C458.331 300.082 462.797 302.941 451.542 310.98C429.745 326.523 428.137 338.315 425.1 342.96C429.745 343.675 434.39 344.568 439.214 345.64C441.537 346.176 446.36 347.426 444.753 354.394L432.425 409.242C430.638 417.282 424.564 415.317 421.706 414.602C368.644 400.667 343.096 438.363 256.447 438.363C169.797 438.363 144.249 400.667 91.1878 414.602C88.3293 415.317 82.2549 417.282 80.4683 409.242L68.1409 354.394C66.533 347.426 71.3567 346.176 73.6793 345.64C78.5031 344.568 83.1482 343.675 87.7933 342.96C84.7561 338.315 83.1482 326.523 61.3519 310.98C50.0964 302.941 54.5629 300.082 64.0317 289.184C69.5701 282.752 69.9275 276.678 68.1409 271.497C67.2476 270.782 66.3543 269.889 65.6397 269.174C65.1037 268.638 64.5677 267.923 64.0317 267.388C55.6348 268.817 47.5952 267.745 43.8434 266.673C21.3324 259.527 15.4367 235.229 24.3696 216.113C27.5855 209.324 32.7666 201.999 35.2678 197.889C38.6623 192.351 40.9848 186.277 40.6275 176.986C40.4489 173.949 40.0915 170.912 39.1982 168.054C24.5483 168.054 29.1934 153.046 21.5111 148.937C19.5458 147.865 19.1885 146.079 20.0818 144.649C22.7617 140.54 39.9129 131.607 51.1683 142.148C55.6348 146.257 56.5281 151.26 56.5281 155.547C56.5281 159.657 54.9202 163.408 51.5257 165.552C53.4909 175.2 55.0988 190.743 45.9873 204.678C39.1982 215.041 30.2653 228.619 34.9104 240.767C37.769 248.628 45.9873 254.345 58.4933 253.095C58.136 244.519 62.0665 235.408 69.3915 227.011C76.0018 219.507 82.4335 204.857 83.5055 193.959C75.6445 194.495 66.3543 185.026 74.7512 185.026C80.4683 185.026 80.2896 170.376 78.8604 170.376C77.4311 170.376 76.1805 172.163 74.3939 172.341C65.2823 173.056 64.2104 156.441 67.0689 157.87C70.1061 159.478 76.1805 159.835 73.8579 155.011C72.4287 153.404 72.4287 152.689 72.25 151.974C72.0714 151.081 71.5354 153.404 67.2476 152.689C60.1013 151.438 61.7092 133.751 64.3891 136.252C67.7836 139.468 72.25 138.932 71.8927 134.466C71.7141 132.501 71.7141 131.965 71.8927 130.357C71.8927 129.642 69.3915 130.535 67.6049 130.178C65.8183 129.821 63.3171 127.141 62.7811 124.997C60.9945 118.744 65.8183 109.096 67.2476 111.955C68.8555 115.349 74.3939 116.243 74.3939 113.205C74.2153 109.632 75.4659 107.667 75.4659 107.667C75.4659 107.667 72.786 107.31 71.8927 106.595C69.9275 104.987 69.5701 101.593 69.7488 99.4488C70.2848 93.3744 78.1457 84.7988 78.1457 91.0518C78.1457 94.089 82.7909 96.7689 84.0415 94.4463C85.2921 91.9451 87.0787 90.8732 87.0787 90.8732C87.0787 90.8732 84.5774 89.2653 83.8628 87.1214C81.1829 79.7964 98.1555 74.258 96.9049 78.3671C94.9396 84.6201 98.6914 83.0122 103.694 82.2976C105.659 81.9403 107.624 82.1189 107.624 82.1189C107.624 82.1189 106.195 79.439 106.91 78.0098C108.339 75.5086 123.346 71.5781 120.13 77.1165C118.344 79.975 121.738 81.047 124.597 81.9403C127.098 82.8336 132.458 83.0122 133.351 86.2281C133.708 87.3 132.994 89.9799 132.637 91.4092C134.78 91.5878 136.21 91.9451 136.746 92.1238C139.783 93.3744 140.855 96.7689 143.535 97.1262C144.428 97.3049 148.358 97.4835 149.609 97.6622C151.396 97.8409 153.182 98.1982 155.147 98.7341C160.507 86.0494 168.189 86.9427 169.261 88.5506C171.405 85.3348 182.304 84.6201 182.839 88.7293C185.519 87.4787 189.986 88.1933 192.308 90.5159ZM286.64 121.602L294.68 123.746L296.823 116.064C297.359 114.277 297.895 112.312 298.61 110.526H298.431C296.823 112.312 295.573 113.741 293.965 115.349L286.64 121.602ZM297.717 138.039L291.106 136.252L293.072 128.57L278.422 124.64L279.672 120.173L297.359 104.63L305.935 106.952L300.933 125.176L304.863 126.248L303.434 131.25L299.503 130.178L297.717 138.039ZM262.7 127.141C266.273 127.319 268.238 123.389 268.774 116.064C269.131 108.739 267.524 104.63 263.95 104.451C260.734 104.273 258.412 108.024 258.055 115.349C257.519 123.032 259.484 126.962 262.7 127.141ZM262.342 132.322C254.124 131.965 250.372 124.64 250.908 115.171C251.444 105.523 256.089 98.7341 264.308 99.0915C272.883 99.4488 276.278 106.952 275.742 116.064C275.206 126.069 270.918 132.679 262.342 132.322ZM232.506 106.059C229.469 106.416 227.683 109.275 228.219 112.669C228.576 115.528 230.72 117.672 234.114 117.315C236.616 116.957 238.045 115.707 238.76 114.277C238.938 113.92 238.938 113.384 238.938 112.669C238.402 108.918 236.437 105.344 232.506 106.059ZM227.325 134.823L226.611 129.463C227.504 129.463 228.397 129.285 230.005 128.927C232.506 128.391 234.829 127.319 236.616 125.712C238.581 123.925 239.831 121.424 240.01 118.744H239.831C238.402 120.709 236.258 121.96 233.221 122.317C227.504 123.032 222.323 119.816 221.43 113.741C220.536 107.488 225.003 101.593 232.149 100.521C240.367 99.4488 245.37 104.987 246.442 112.491C247.335 119.101 245.906 124.282 242.869 127.855C240.189 131.071 236.08 133.215 231.077 133.93C229.648 134.644 228.219 134.823 227.325 134.823ZM215.891 138.039L208.209 113.384H208.03L203.028 118.029L200.348 113.384L207.316 107.131L212.854 105.523L222.323 136.252L215.891 138.039ZM129.063 101.95C128.885 101.95 127.455 103.201 126.741 104.63C127.634 104.451 129.778 103.737 131.743 103.022C131.029 102.665 130.135 101.95 129.063 101.95ZM136.388 104.451C136.388 104.451 126.383 108.382 124.597 106.774C122.453 104.809 126.919 99.6274 128.706 99.6274C133.351 99.4488 136.388 104.451 136.388 104.451ZM375.612 104.451C375.612 104.451 378.649 99.6274 383.115 99.6274C384.902 99.6274 389.368 104.809 387.225 106.774C385.438 108.203 375.612 104.451 375.612 104.451ZM382.758 101.95C381.686 101.95 380.793 102.486 379.9 103.201C381.865 103.915 384.009 104.451 384.902 104.809C384.545 103.201 383.115 101.95 382.758 101.95ZM380.257 395.485V376.726C380.257 373.332 380.078 370.652 380.078 368.151H387.046L387.403 372.26H387.582C388.654 370.473 391.691 367.615 396.515 367.615C401.875 367.615 406.877 371.009 406.877 379.764V395.664H398.837V380.836C398.837 376.905 397.408 374.225 393.656 374.225C390.798 374.225 389.19 376.19 388.475 377.977C388.296 378.513 388.118 379.406 388.118 380.121V395.843H380.257V395.485ZM105.302 396.021L104.051 358.325L112.091 357.967L113.163 388.875L129.599 388.339L129.778 394.95L105.302 396.021ZM159.971 390.126L141.569 385.838C140.855 389.768 144.249 392.448 148.537 393.52C151.753 394.235 154.076 394.414 156.755 394.056L156.577 399.595C153.54 400.131 150.145 399.952 146.036 399.059C136.746 396.915 132.637 390.304 134.602 382.086C136.21 375.476 142.284 368.865 151.753 371.009C161.043 373.153 162.472 381.193 161.043 387.089C160.686 388.518 160.329 389.59 159.971 390.126ZM142.82 380.478L154.254 383.158C154.79 381.371 154.611 377.262 150.145 376.19C146.036 375.118 143.535 378.156 142.82 380.478ZM168.547 376.19L176.765 379.228L176.229 393.163C176.229 395.664 175.872 397.808 175.693 399.952H175.872C177.122 398.165 178.373 396.379 179.802 394.414L188.378 383.337L196.418 386.195L176.765 408.17L169.083 405.49L168.547 376.19ZM221.43 407.813L202.849 404.24C202.313 408.17 205.708 410.85 209.996 411.743C213.211 412.279 215.713 412.458 218.214 412.101V417.639C215.177 418.175 211.782 418.175 207.673 417.46C198.383 415.674 193.916 409.242 195.524 400.845C196.775 394.235 202.671 387.267 212.318 389.232C221.608 391.019 223.395 399.059 222.144 404.954C222.144 406.026 221.787 407.277 221.43 407.813ZM203.743 398.701L215.355 401.024C215.713 399.059 215.534 394.95 211.067 394.235C206.958 393.342 204.636 396.379 203.743 398.701ZM229.291 420.498L230.899 402.275C231.256 398.165 231.435 395.664 231.435 393.163L238.402 393.699L238.224 399.059H238.402C240.189 395.128 243.762 393.52 246.799 393.699C247.514 393.699 247.871 393.878 248.586 394.056L247.871 401.56C247.156 401.381 246.442 401.203 245.549 401.024C241.975 400.667 239.653 402.453 238.938 405.312C238.76 405.848 238.76 406.562 238.581 407.098L237.33 421.034L229.291 420.498ZM262.878 381.371L263.772 405.669H263.95C264.665 404.597 265.38 403.346 266.094 402.453L272.347 393.699L282.173 393.342L271.99 404.776L284.853 420.676L274.849 421.034L266.63 409.778L264.308 412.637L264.665 421.391L256.625 421.748L255.196 381.907L262.878 381.371ZM313.26 387.267L316.833 405.669C317.548 409.064 318.084 411.922 318.62 414.066L311.831 415.317L310.58 411.207H310.401C309.687 413.173 307.543 416.746 302.362 417.639C297.181 418.711 291.821 416.389 290.213 407.634L287.176 392.091L295.037 390.483L297.895 404.776C298.789 409.064 300.754 411.386 304.148 410.671C306.828 410.135 308.079 407.992 308.436 406.205C308.615 405.669 308.615 404.954 308.436 404.24L305.399 388.339L313.26 387.267ZM325.766 409.421L325.587 403.525C327.374 404.061 330.947 404.24 333.448 403.525C336.307 402.632 337.2 401.381 336.664 399.952C336.128 398.344 335.056 397.987 331.483 397.808C325.409 397.808 322.372 395.486 321.478 392.27C320.049 387.446 323.265 382.622 329.875 380.657C333.091 379.764 336.128 379.764 337.915 380.121L338.094 385.838C336.664 385.481 333.984 385.302 331.662 386.017C329.518 386.731 328.446 387.982 328.803 389.411C329.161 390.84 330.769 391.198 334.52 391.376C340.059 391.555 343.096 393.342 344.347 397.272C345.776 402.096 342.917 406.741 335.235 409.064C331.483 409.778 328.089 409.957 325.766 409.421ZM373.825 385.659L355.245 389.232C356.317 393.163 360.426 394.235 364.714 393.342C367.929 392.806 370.252 391.912 372.396 390.662L374.54 395.664C372.039 397.272 368.823 398.701 364.714 399.416C355.423 401.203 348.813 396.915 347.205 388.518C345.954 381.907 348.813 373.332 358.461 371.367C367.751 369.58 372.396 376.369 373.468 382.265C373.825 383.694 373.825 384.945 373.825 385.659ZM354.173 383.694L365.786 381.371C365.428 379.406 363.642 375.654 359.175 376.548C354.887 377.62 353.994 381.371 354.173 383.694ZM249.122 178.416H262.521C263.95 178.416 265.201 177.165 265.201 175.736C265.201 174.307 263.95 173.056 262.521 173.056H249.122V178.416ZM249.122 191.279H262.878C264.486 191.279 265.916 189.85 265.916 188.242C265.916 186.634 264.486 185.205 262.878 185.205H249.122V191.279ZM270.561 181.453C272.347 183.239 273.419 185.741 273.419 188.421C273.419 193.78 269.131 198.068 263.772 198.068H241.439V166.267H263.414C268.595 166.267 272.705 170.376 272.705 175.557C272.705 177.88 271.811 179.845 270.561 181.453ZM275.742 236.122H267.524L265.022 230.763H247.156L244.655 236.122H236.437L252.516 204.321H260.02L275.742 236.122ZM255.911 212.361L250.194 223.974H261.449L255.911 212.361ZM266.809 242.911H275.92L259.663 263.636V274.713H251.98V263.636L235.722 242.911H244.834L255.732 257.383L266.809 242.911ZM309.508 242.911V249.7H288.069V255.06H308.615V261.849H288.069V267.923H309.508V274.713H280.566V242.911H309.508ZM333.627 262.742H327.91V274.891H320.228V243.09H339.701C345.24 243.09 349.528 247.556 349.528 252.916C349.528 257.383 346.49 261.134 342.381 262.385L351.85 274.891H342.739L333.627 262.742ZM338.987 249.7H327.91V255.775H338.987C340.595 255.775 342.024 254.345 342.024 252.738C342.024 251.13 340.595 249.879 338.987 249.7ZM239.474 274.891H231.256L228.755 269.531H210.889L208.388 274.891H200.169L216.249 243.09H223.752L239.474 274.891ZM219.643 251.13L213.926 262.742H225.181L219.643 251.13ZM171.227 255.06H184.626C186.055 255.06 187.306 253.809 187.306 252.38C187.306 250.951 186.055 249.7 184.626 249.7H171.227V255.06ZM171.227 268.102H184.983C186.591 268.102 188.021 266.673 188.021 265.065C188.021 263.457 186.591 262.028 184.983 262.028H171.227V268.102ZM192.666 258.276C194.452 260.063 195.524 262.564 195.524 265.244C195.524 270.603 191.236 274.891 185.877 274.891H163.544V242.911H185.519C190.7 242.911 194.81 247.02 194.81 252.202C194.81 254.524 194.095 256.668 192.666 258.276ZM270.382 281.68V288.469H248.943V293.829H269.489V300.618H248.943V306.692H270.382V313.481H241.439V281.68H270.382ZM265.022 330.99C265.022 329.382 263.593 327.953 261.985 327.953H248.943V334.027H261.985C263.772 334.027 265.022 332.776 265.022 330.99ZM241.439 352.965V321.164H262.878C268.417 321.164 272.705 325.63 272.705 330.99C272.705 335.099 270.203 338.672 266.452 340.101L276.099 352.965H266.988L257.876 340.816H249.122V352.965H241.439Z" fill="white"/>
</mask>
<g mask="url(#mask9_1_23324)">
<mask id="mask10_1_23324" style="mask-type:luminance" maskUnits="userSpaceOnUse" x="-537" y="-14" width="2977" height="29926">
<path d="M-536.975 -13.4632H2439.65V29911.8H-536.975V-13.4632Z" fill="white"/>
</mask>
<g mask="url(#mask10_1_23324)">
<path d="M-20.4737 34.7746H532.474V477.847H-20.4737V34.7746Z" fill="#1B181C"/>
</g>
</g>
</g>
<defs>
<clipPath id="clip0_1_23324">
<rect width="512" height="396.8" fill="white" transform="translate(0 58)"/>
</clipPath>
</defs>
</svg>
