<svg width="512" height="512" viewBox="0 0 512 512" fill="none" xmlns="http://www.w3.org/2000/svg">
<path d="M4.54724 254.585C4.54724 115.836 116.92 3.46313 255.669 3.46313C394.419 3.46313 507.153 115.836 507.153 254.947C507.153 393.696 394.78 506.43 255.669 506.43C116.559 506.43 4.54724 393.335 4.54724 254.585Z" fill="#624839"/>
<path d="M15.7484 254.586C15.7484 121.979 123.062 14.6647 255.669 14.6647C388.276 14.6647 495.59 121.979 495.59 254.586C495.59 387.193 388.276 494.507 255.669 494.507C123.062 494.868 15.7484 387.193 15.7484 254.586Z" fill="white"/>
<path d="M107.525 254.585C107.525 172.564 174.01 106.441 255.669 106.441C337.691 106.441 403.813 172.925 403.813 254.585C403.813 336.606 337.329 402.729 255.669 402.729C174.01 403.091 107.525 336.606 107.525 254.585Z" fill="#E30613"/>
<path d="M100.66 336.968H89.8204L84.4005 327.573L78.9805 336.968H68.5021L73.922 346.001L68.5021 355.395H79.3419L84.7618 364.428L90.1817 355.395H100.66L95.2403 346.001L100.66 336.968Z" fill="#624839"/>
<path d="M443.921 336.968H433.081L427.661 327.573L422.241 336.968H411.762L417.182 346.001L411.762 355.395H422.241L427.661 364.428L433.081 355.395H443.921L438.501 346.001L443.921 336.968Z" fill="#624839"/>
<path d="M283.853 31.6461L267.954 30.2008L262.896 88.7357L280.24 90.181L282.046 71.0307C297.222 72.8374 307.7 68.8628 309.146 53.687C310.23 38.5113 299.029 32.7301 283.853 31.6461ZM291.441 51.8804C291.079 56.2163 287.827 58.3843 283.13 57.6616L284.214 44.2926H285.659C289.634 44.6539 291.802 48.2671 291.441 51.8804Z" fill="#624839"/>
<path d="M351.782 117.28L365.874 58.3841L346.724 48.9896L306.255 94.8781L322.515 102.827L327.212 96.6848L337.69 102.105L335.522 109.331L351.782 117.28ZM334.8 86.5676L343.11 75.3665C345.278 72.4759 347.446 69.2239 349.614 66.3333C348.53 69.9466 347.085 73.1985 346.001 76.8118L341.665 89.8195L334.8 86.5676Z" fill="#624839"/>
<path d="M93.0723 222.065L71.0314 218.452L73.1993 205.806L59.4689 203.638L57.3009 215.923L48.9904 214.477L51.1584 201.108L37.428 198.94L32.0081 229.292L90.1817 239.409L93.0723 222.065Z" fill="#624839"/>
<path d="M60.9142 142.935C58.7463 145.103 56.9396 147.632 55.4943 150.161C51.5197 157.749 46.4612 177.622 69.9474 189.546C88.0137 198.579 102.105 192.436 108.609 179.429C110.416 175.815 111.139 172.925 111.5 168.95L97.4082 160.64C98.1309 164.253 98.4922 167.143 96.6856 170.757C92.711 178.706 84.0391 176.538 77.8966 173.286C72.1154 170.395 64.8888 164.253 69.2247 155.942C71.0314 152.69 72.838 151.606 76.09 150.161L60.9142 142.935Z" fill="#624839"/>
<path d="M413.569 203.276L426.215 197.495L420.796 185.571L461.987 167.144L454.76 151.245L401.284 175.093L413.569 203.276Z" fill="#624839"/>
<path d="M422.964 104.634L395.864 129.927C394.78 131.011 393.335 132.456 391.889 133.179C390.444 133.901 388.637 133.901 387.192 132.095C385.386 130.288 385.747 128.843 386.47 127.036C387.192 125.591 388.637 124.146 390.083 123.062L417.182 97.7688L405.259 85.1223L377.075 111.499C372.016 116.196 362.622 127.398 376.352 142.212C390.083 157.026 401.645 148.716 407.065 143.657L435.249 117.28L422.964 104.634Z" fill="#624839"/>
<path d="M219.175 94.156C224.234 92.3494 227.125 87.2908 225.679 82.5936C223.873 77.535 218.453 75.367 213.033 77.535C208.336 79.3416 205.445 84.4002 206.89 89.0974C208.697 93.4334 214.117 95.9627 219.175 94.156Z" fill="#624839"/>
<path d="M195.328 100.298L176.539 59.8293L185.933 55.4934L179.791 42.4856L146.187 58.384L151.969 71.3917L161.002 67.4171L179.791 107.524L195.328 100.298Z" fill="#624839"/>
<path d="M137.154 135.347C141.49 133.901 145.465 131.734 148.717 128.843C158.111 120.894 158.834 108.97 151.969 100.659C149.078 97.4075 146.187 95.6009 142.935 94.8782C139.683 94.1556 136.07 94.1556 131.734 94.8782C130.65 94.8782 129.205 95.2395 127.76 95.2395C126.314 95.2395 125.23 94.8782 124.508 93.7942C123.062 91.9876 124.146 89.4583 125.592 88.013C128.844 85.4837 131.734 84.3997 135.709 83.6771L125.953 72.476C121.978 73.5599 117.642 75.3666 114.391 78.2572C102.828 88.013 107.164 100.659 111.861 105.718C114.752 108.97 117.642 110.777 121.256 111.499C124.869 112.222 128.482 111.861 132.818 111.499C134.264 111.499 135.347 111.138 136.431 111.499C137.515 111.499 138.599 112.222 139.683 113.306C141.49 115.113 140.045 118.003 138.238 119.448C134.986 122.339 132.457 123.062 127.398 123.423L137.154 135.347Z" fill="#624839"/>
<path d="M420.434 239.409L478.969 231.46L476.44 214.116L418.266 222.065L420.434 239.409Z" fill="#624839"/>
<path d="M315.288 409.955C298.306 415.736 299.39 433.803 303.364 446.088C307.7 458.373 317.818 473.187 334.8 467.406C351.782 461.625 350.698 443.558 346.724 431.273C342.749 418.988 332.271 404.174 315.288 409.955ZM319.985 422.602C325.044 420.795 328.657 430.551 330.825 436.693C332.993 442.836 335.884 452.592 330.825 454.398C325.767 456.205 322.153 446.449 319.985 440.307C317.818 434.164 314.927 424.408 319.985 422.602Z" fill="#624839"/>
<path d="M176.177 466.684L199.302 412.485L180.152 404.174L171.48 415.375L177.623 418.266L159.918 459.818L176.177 466.684Z" fill="#624839"/>
<path d="M288.55 478.246L282.407 419.711L261.812 421.879L259.644 435.61L266.509 435.248L271.206 480.053L288.55 478.246Z" fill="#624839"/>
<path d="M227.486 430.551C233.267 431.635 232.544 436.694 231.822 439.223C231.099 441.752 229.654 446.088 224.234 445.004C219.175 443.92 218.814 439.584 219.537 437.055C220.259 434.164 222.066 429.467 227.486 430.551ZM205.084 474.633L222.066 477.885L230.738 469.213C236.88 462.348 245.552 452.231 247.72 443.198C250.249 431.635 244.83 420.795 231.46 417.905C217.73 415.014 207.252 421.879 204.722 434.164C202.916 442.114 206.168 453.676 216.285 455.844C218.814 456.205 220.621 456.205 222.427 455.483L205.084 474.633Z" fill="#624839"/>
<path d="M335.161 158.473H324.321L318.902 149.078L313.482 158.473H303.003L308.062 167.867L303.003 176.9H313.482L318.902 186.295L324.321 176.9H334.8L329.741 167.867L335.161 158.473Z" fill="white"/>
<path d="M259.283 165.338C270.845 166.06 279.156 174.732 280.24 186.295H232.183C232.906 174.732 241.578 166.06 253.14 165.338V142.935H238.687V136.431H253.14V117.281H259.644V136.431H274.097V142.935H259.644V165.338H259.283Z" fill="white"/>
<path d="M166.06 192.798H220.621V202.192H166.06V192.798Z" fill="white"/>
<path d="M228.931 192.798H283.491V202.192H228.931V192.798Z" fill="white"/>
<path d="M291.441 192.798H346.362V202.192H291.441V192.798Z" fill="white"/>
<path d="M166.06 253.863H346.362V263.619H166.06V253.863Z" fill="white"/>
<path d="M166.06 306.978H214.478V316.733H166.06V306.978Z" fill="white"/>
<path d="M297.945 306.978H346.362V316.733H297.945V306.978Z" fill="white"/>
<path d="M172.564 209.781C177.261 208.335 184.849 206.168 190.631 209.419C193.521 211.226 191.714 213.755 190.631 216.285C187.379 218.453 185.211 219.537 181.236 219.537C177.623 219.537 175.455 218.814 172.564 216.646C171.48 214.117 169.674 210.865 172.564 209.781Z" fill="white"/>
<path d="M198.218 217.73C198.218 217.73 196.412 212.31 198.218 210.142C200.386 207.612 203.638 209.78 206.529 209.78C208.697 209.78 209.781 210.142 211.949 209.78C211.949 209.78 213.394 215.2 211.949 218.091C209.419 222.427 198.218 217.73 198.218 217.73Z" fill="white"/>
<path d="M175.455 223.511C173.648 225.679 172.926 226.04 172.564 229.653C172.564 233.267 173.648 235.435 176.177 235.435C176.9 235.435 177.623 235.435 178.345 235.435C178.345 232.905 178.345 231.099 178.345 228.569C178.345 226.04 177.623 223.872 175.455 223.511Z" fill="white"/>
<path d="M235.796 223.511C235.435 225.679 235.435 227.485 235.435 229.653C235.435 231.821 235.435 234.712 237.603 234.712C241.578 235.073 241.216 228.931 241.216 226.04C241.216 223.872 238.326 223.872 235.796 223.511Z" fill="white"/>
<path d="M233.267 211.587C233.267 213.033 235.435 215.201 236.519 216.285C238.687 218.091 240.494 217.73 243.023 217.73C244.468 217.73 246.275 217.369 248.081 217.369C251.333 217.369 253.501 214.839 253.501 211.587C253.501 208.697 249.165 207.613 246.275 207.613C243.746 207.613 241.939 207.613 239.41 207.613C236.519 207.974 233.267 207.974 233.267 211.587Z" fill="white"/>
<path d="M258.921 217.368C260.005 218.452 261.089 218.091 262.535 218.091C264.341 218.091 265.425 218.091 267.232 218.091C269.761 218.091 271.568 218.452 273.736 216.646C275.542 215.2 274.458 213.755 274.458 211.226C274.458 209.058 269.761 207.974 266.509 207.974C263.619 207.974 261.451 207.612 259.644 210.142C257.837 212.31 258.921 217.368 258.921 217.368Z" fill="white"/>
<path d="M183.043 226.402C183.043 228.208 182.32 230.376 182.32 232.183C182.32 234.351 187.017 235.074 189.185 235.074C192.799 235.435 194.967 235.435 198.58 235.435C201.47 235.435 204 233.267 204 230.376C204 228.208 204.361 226.402 203.277 224.956C201.47 222.788 199.302 222.788 196.412 222.788C191.715 222.066 184.488 221.705 183.043 226.402Z" fill="white"/>
<path d="M245.914 226.402C245.191 228.57 245.552 230.376 246.998 232.544C249.166 235.435 251.333 235.435 256.031 235.435C260.728 235.435 267.593 233.267 266.871 226.763C266.509 224.956 262.535 224.234 260.367 223.511C260.005 223.511 247.359 220.982 245.914 226.402Z" fill="white"/>
<path d="M270.484 229.653C270.484 232.183 269.761 235.435 273.013 235.435C275.904 235.435 276.265 233.989 276.265 231.46C276.265 229.292 278.794 223.511 275.181 223.15C273.736 222.788 272.652 223.511 271.568 224.595C270.122 226.04 270.484 227.847 270.484 229.653Z" fill="white"/>
<path d="M296.138 213.394C296.138 218.091 300.113 220.259 307.7 219.898C312.036 219.536 316.734 220.259 316.011 211.949C316.011 211.226 316.734 210.142 316.011 209.781C310.591 205.806 310.23 209.781 306.255 209.781C302.281 209.419 296.138 209.419 296.138 213.394Z" fill="white"/>
<path d="M323.599 211.948C323.599 213.394 323.599 214.116 323.599 215.2C323.599 218.091 325.405 221.704 328.296 221.704C329.38 221.704 331.187 221.343 332.632 221.343C336.968 221.343 339.497 217.73 339.497 213.394C339.497 211.226 336.607 209.78 334.439 209.058L327.935 209.78L324.321 210.142C323.599 210.503 323.599 211.226 323.599 211.948Z" fill="white"/>
<path d="M300.835 223.15C297.945 225.679 297.583 226.402 297.583 230.377C297.583 231.099 297.945 234.351 297.945 234.712C298.667 234.712 299.751 235.074 300.474 235.074C303.003 235.074 303.726 231.822 303.726 229.293C303.726 226.763 303.003 224.595 300.835 223.15Z" fill="white"/>
<path d="M307.7 229.293C307.7 230.015 308.784 231.822 310.23 233.267C312.759 235.435 315.649 235.074 318.54 235.074C321.792 235.074 326.489 233.629 326.489 228.931C326.851 225.318 319.624 223.512 316.372 223.512C313.12 223.15 306.978 224.596 307.7 229.293Z" fill="white"/>
<path d="M323.237 242.662C323.237 246.636 327.573 248.443 331.909 248.443C333.716 248.443 334.439 246.998 336.245 246.275C337.69 245.552 339.136 244.468 339.136 243.023C339.136 240.133 336.245 238.687 333.355 238.687C329.019 238.326 323.237 238.326 323.237 242.662Z" fill="white"/>
<path d="M313.12 248.443C315.65 246.636 318.179 242.662 316.011 240.855C314.566 239.771 312.036 240.855 310.952 240.855C309.146 240.855 308.062 239.771 305.894 239.771C303.003 239.771 299.751 238.687 298.306 241.217C297.583 242.3 297.583 243.384 297.583 243.746C297.583 245.914 297.583 246.998 298.667 248.804C300.835 251.334 304.087 248.804 307.339 248.804C309.507 249.166 311.314 249.888 313.12 248.443Z" fill="white"/>
<path d="M273.013 248.442C270.845 248.804 269.4 249.165 267.593 249.165C264.341 249.165 262.535 248.442 260.005 246.997C259.283 246.636 259.283 245.913 259.283 244.468C259.283 240.854 265.786 239.771 269.038 239.771C272.29 239.771 274.82 240.854 274.82 244.106C274.82 245.913 274.097 246.997 273.013 248.442Z" fill="white"/>
<path d="M246.275 240.494C244.468 240.494 243.023 240.494 240.855 240.494C238.326 240.494 233.628 240.494 233.628 243.385C233.628 246.998 236.88 246.998 240.494 246.998C241.939 246.998 245.914 246.998 247.359 246.998C250.611 246.998 253.501 246.275 253.501 243.023C253.501 241.578 251.695 240.494 250.249 240.494C248.082 240.855 247.72 240.494 246.275 240.494Z" fill="white"/>
<path d="M206.168 249.165C203.277 249.165 201.47 249.165 198.58 249.165C198.58 248.081 196.412 247.358 196.412 246.274C196.412 245.19 197.496 244.107 198.218 243.023C201.832 239.048 206.89 243.384 211.949 243.384C211.949 244.107 211.949 245.552 211.949 246.274C211.949 247.358 210.503 248.081 209.781 248.442C207.974 249.165 208.336 249.165 206.168 249.165Z" fill="white"/>
<path d="M187.379 248.442C181.236 248.442 180.513 249.165 174.732 248.442C174.732 248.081 172.926 245.552 172.926 244.468C172.926 240.855 175.093 240.855 178.707 240.855C183.043 240.855 190.631 238.325 190.631 243.023C190.269 245.191 189.185 248.442 187.379 248.442Z" fill="white"/>
<path d="M172.203 274.097C172.564 278.433 178.345 276.626 182.681 276.626C185.933 276.626 188.101 277.71 191.353 276.626C193.882 275.904 194.244 273.374 194.244 270.845C194.244 269.761 192.076 269.039 190.992 268.677C187.379 268.316 186.656 269.039 183.404 267.232C180.152 265.064 171.841 268.677 172.203 274.097Z" fill="white"/>
<path d="M202.193 268.677C199.302 270.845 202.193 276.265 206.168 276.265C207.974 276.265 211.949 276.265 213.756 276.265C214.839 276.265 215.923 276.265 217.007 276.265C219.175 276.265 220.982 276.265 223.15 276.265C226.402 276.265 230.015 274.819 229.654 270.483C229.293 267.954 225.679 268.315 223.15 268.315C218.814 268.315 216.285 268.677 211.949 268.677C210.504 268.677 209.058 268.677 207.613 268.677C205.084 268.677 203.638 267.231 202.193 268.677Z" fill="white"/>
<path d="M172.203 282.769C169.674 284.214 172.564 287.466 172.564 289.996C172.564 292.886 174.732 292.525 176.177 292.525C178.345 292.525 180.513 291.441 180.513 289.273C180.513 285.66 179.068 282.046 175.093 282.046C174.371 282.046 173.287 282.046 172.203 282.769Z" fill="white"/>
<path d="M211.949 286.744C211.949 288.912 213.755 290.357 215.923 290.357C219.175 290.357 221.343 286.744 221.705 282.769C219.898 280.962 217.007 282.408 214.117 282.408C212.31 282.769 211.949 284.937 211.949 286.744Z" fill="white"/>
<path d="M198.218 299.028C198.218 301.196 200.025 302.28 202.193 302.28C205.084 302.28 208.697 303.364 211.226 301.196C212.671 300.112 212.671 298.306 212.671 296.138C212.671 295.415 212.671 295.054 211.587 294.692C211.226 294.692 208.697 294.331 208.336 294.331C203.277 293.97 198.218 293.608 198.218 299.028Z" fill="white"/>
<path d="M195.328 280.962C193.16 280.962 192.437 282.408 190.269 282.408C187.74 282.408 183.765 281.685 184.127 286.021C184.488 290.357 187.017 292.525 194.244 292.525C200.386 292.525 205.084 290.357 205.084 285.298C205.084 281.324 199.302 280.601 195.328 280.962Z" fill="white"/>
<path d="M280.601 268.677C285.659 263.619 299.39 268.677 311.675 268.677C313.843 268.677 316.734 271.206 316.734 273.374C316.734 276.265 312.036 276.626 309.146 276.626C301.196 276.626 295.054 276.626 287.105 276.626C282.769 276.626 279.517 275.542 280.601 269.761C280.962 269.4 280.24 269.039 280.601 268.677Z" fill="white"/>
<path d="M323.599 268.677C323.599 270.483 323.599 271.567 323.599 273.374C323.599 275.181 322.515 276.626 326.851 276.265C329.38 276.265 330.825 276.265 332.993 276.265C334.439 276.265 335.161 276.265 336.606 276.265C339.136 276.265 339.497 272.651 339.497 270.122C339.497 269.038 338.052 268.677 336.968 268.677C334.8 268.315 333.716 267.954 331.187 267.954C328.296 267.954 326.489 268.677 323.599 268.677Z" fill="white"/>
<path d="M292.163 284.575C292.886 288.911 296.138 292.163 300.474 292.163C304.087 292.163 305.171 287.827 306.255 284.575C306.255 284.575 302.28 281.685 299.39 281.685C296.499 281.685 292.163 284.575 292.163 284.575Z" fill="white"/>
<path d="M311.675 282.407C310.23 283.491 309.868 284.575 309.868 286.382C309.868 288.189 309.868 290.357 311.314 292.163C314.204 295.776 318.179 292.163 322.876 292.163C326.128 292.163 327.573 289.273 327.212 284.575C326.851 282.046 323.237 282.407 320.708 282.407C319.263 282.407 318.179 282.407 316.733 282.407C317.095 282.407 313.482 281.323 311.675 282.407Z" fill="white"/>
<path d="M333.716 284.937C333.716 286.743 333.716 287.466 333.716 289.272C333.716 291.079 336.245 292.163 338.413 292.163C339.136 292.163 339.497 292.163 340.22 292.163C340.22 292.163 342.749 288.188 341.665 285.659C340.942 283.853 338.775 282.407 338.052 282.407C335.884 282.407 334.8 283.853 333.716 284.937Z" fill="white"/>
<path d="M339.136 296.137C336.245 296.137 333.716 296.137 330.825 296.137C327.212 296.137 322.154 295.776 322.154 299.028C322.154 300.473 323.599 301.919 325.044 302.641C326.489 303.364 326.49 303.725 328.296 303.725C330.464 303.725 332.993 304.087 334.8 303.364C336.245 303.003 338.052 302.641 339.136 301.557C340.22 300.473 339.497 297.944 339.136 296.137Z" fill="white"/>
<path d="M323.599 321.792C321.792 323.599 323.599 326.851 325.044 328.657C326.489 330.464 328.657 329.38 330.825 329.38C332.271 329.38 333.355 329.741 334.8 329.741C339.497 329.741 339.136 325.405 339.136 322.153C339.136 321.431 327.573 318.179 323.599 321.792Z" fill="white"/>
<path d="M306.255 329.38C303.726 329.38 302.281 329.019 300.835 327.212C300.113 326.128 299.029 323.96 299.029 322.876C299.029 322.515 299.029 322.154 299.029 321.431C299.39 321.431 299.751 321.07 300.113 321.07C303.364 321.07 304.81 320.708 308.062 320.708C310.23 320.708 312.398 321.792 314.566 321.792C315.65 321.792 317.456 323.599 317.456 324.683C317.456 330.103 312.398 329.741 306.255 329.38Z" fill="white"/>
<path d="M300.835 333.355C299.39 335.523 298.306 337.329 298.306 339.859C298.306 341.665 297.583 343.472 303.364 342.749C304.81 342.388 306.978 343.472 306.978 340.22C306.978 337.329 304.448 332.993 300.835 333.355Z" fill="white"/>
<path d="M310.23 338.413C310.23 340.943 310.952 343.472 315.288 343.111C317.095 343.111 321.431 343.111 321.431 343.111C321.431 343.111 324.683 343.111 326.489 342.388C327.935 341.665 329.741 340.581 329.741 338.775C329.741 336.968 327.935 336.245 326.851 334.8C325.767 332.994 320.708 332.632 317.456 332.632C313.843 332.994 310.23 335.161 310.23 338.413Z" fill="white"/>
<path d="M334.439 333.716C334.439 333.716 331.548 338.051 332.632 340.581C333.355 342.026 335.884 343.11 336.606 343.11C338.413 343.11 340.22 342.026 340.22 340.581C340.581 334.438 338.052 332.993 334.439 333.716Z" fill="white"/>
<path d="M298.667 351.059C298.667 351.42 298.667 351.782 298.667 352.143C298.667 353.95 298.306 355.034 299.029 356.479C300.835 359.731 304.81 358.647 308.423 358.647C311.675 358.647 316.372 359.731 316.372 356.479C316.372 354.311 316.734 352.504 315.65 350.698C314.204 348.53 311.314 349.614 308.784 349.252C302.642 348.53 302.28 349.614 298.667 351.059Z" fill="white"/>
<path d="M323.599 349.253C323.237 351.782 321.792 352.866 321.792 355.396C321.792 357.925 324.321 359.37 327.935 358.648C330.464 358.286 332.271 359.37 334.439 357.925C336.968 355.757 337.329 353.228 338.052 349.976C336.968 349.615 335.523 348.892 334.439 348.892C333.355 348.892 332.632 349.253 331.548 349.253C328.296 349.253 326.851 348.892 323.599 349.253Z" fill="white"/>
<path d="M316.011 363.344C312.759 364.79 310.23 365.512 310.23 368.764C310.23 371.293 313.482 370.932 316.011 370.932C319.985 370.932 325.044 368.764 323.96 364.428C323.599 362.983 322.153 362.622 320.708 362.622C318.54 362.622 317.817 362.983 316.011 363.344Z" fill="white"/>
<path d="M298.306 368.042C298.306 371.294 298.306 375.269 302.28 375.269C304.81 375.63 306.255 372.017 306.255 369.126C306.255 367.681 305.532 366.958 305.532 365.513C304.448 364.067 303.003 361.899 301.197 362.983C299.39 364.067 298.306 365.874 298.306 368.042Z" fill="white"/>
<path d="M190.63 362.983C187.74 362.983 184.127 363.345 184.127 366.235C184.127 370.21 188.463 371.655 194.605 370.932C196.773 370.932 200.025 372.016 200.025 369.126C200.386 364.79 194.605 362.983 190.63 362.983Z" fill="white"/>
<path d="M205.806 347.085C204.361 348.169 200.386 348.892 198.58 349.253C196.773 349.614 196.05 351.06 196.05 353.228C196.05 355.034 196.05 356.841 196.05 358.286C197.496 359.732 199.302 359.009 201.109 359.009C202.916 359.009 204.361 359.37 206.529 359.37C208.697 359.37 210.503 358.286 210.865 356.118C212.31 351.782 210.865 348.892 205.806 347.085Z" fill="white"/>
<path d="M178.345 358.647C176.539 358.647 174.371 359.37 173.648 357.563C172.564 355.395 172.925 353.589 172.925 351.059C172.925 350.337 172.925 349.975 172.925 349.253C178.707 349.253 181.959 349.253 188.101 349.253C189.908 349.253 192.076 350.698 192.076 352.505C192.076 355.757 189.908 359.009 186.295 359.009C183.404 359.009 181.236 358.647 178.345 358.647Z" fill="white"/>
<path d="M189.908 333.715C187.74 333.715 186.295 336.606 186.295 338.774C186.295 340.581 185.211 342.387 186.656 343.471C192.799 348.169 210.142 343.833 210.142 343.833C210.865 342.026 211.588 340.219 211.588 338.051C211.588 334.077 206.529 333.715 202.554 333.715C201.109 333.715 192.437 333.715 189.908 333.715Z" fill="white"/>
<path d="M172.203 343.472C172.203 341.304 170.396 339.136 170.396 336.968C170.396 335.161 172.926 334.077 174.732 333.716C180.152 332.993 181.959 340.942 178.707 343.472C176.539 344.917 172.203 343.472 172.203 343.472Z" fill="white"/>
<path d="M180.152 329.741C175.094 329.741 172.564 327.573 172.564 323.599C172.564 321.431 174.01 319.624 177.623 319.985C181.236 320.347 183.404 319.985 187.017 319.985C189.547 319.985 190.631 323.237 190.631 325.766C190.269 329.38 187.017 329.741 180.152 329.741Z" fill="white"/>
<path d="M207.252 319.624C205.806 319.624 205.084 319.624 203.638 319.624C198.941 319.624 196.412 319.624 196.412 322.515C196.412 323.96 196.412 325.767 197.496 327.212C200.386 327.212 201.47 329.741 204.361 329.741C206.89 329.741 210.503 328.296 210.142 323.96C210.142 321.792 209.058 319.624 207.252 319.624Z" fill="white"/>
<path d="M207.613 362.622C205.445 362.983 205.806 366.596 205.445 368.764C205.445 373.461 205.084 374.907 207.613 374.907C208.697 374.907 210.865 374.184 210.865 372.016C210.865 369.848 211.949 369.125 211.949 366.957C212.31 365.151 210.504 362.983 207.613 362.622Z" fill="white"/>
<path d="M337.329 233.267C335.884 233.267 334.8 233.267 333.355 233.267C331.548 233.267 331.187 230.738 331.187 228.931C331.187 227.486 330.464 226.402 331.187 225.318C332.632 222.427 339.859 225.318 339.859 225.318C339.859 226.763 339.859 227.486 339.859 228.931C339.497 230.376 338.052 232.183 337.329 233.267Z" fill="white"/>
<path d="M209.42 158.473H198.58L193.16 149.078L188.101 158.473H177.261L182.681 167.867L177.261 176.9H188.101L193.521 186.295L198.941 176.9H209.42L204 167.867L209.42 158.473Z" fill="white"/>
<path d="M236.88 305.894V384.663C241.578 387.192 246.275 387.915 253.14 387.915C253.14 355.396 253.14 288.189 253.14 288.189C244.107 288.189 236.88 296.138 236.88 305.894Z" fill="white"/>
<path d="M275.542 305.893C275.542 295.776 268.677 287.827 259.644 287.827C259.644 287.827 259.644 355.395 259.644 387.553C265.425 387.553 270.845 387.192 275.542 384.301V305.893Z" fill="white"/>
<path d="M230.376 381.773V305.894C230.376 292.164 241.578 281.324 256.031 281.324C270.484 281.324 281.685 292.164 281.685 305.894V381.773C284.575 381.05 287.105 379.966 289.634 378.159V305.171C289.634 287.105 275.181 273.013 256.031 273.013C237.242 273.013 222.427 287.105 222.427 305.171V378.159C225.318 379.966 227.847 381.05 230.376 381.773Z" fill="white"/>
<path d="M207.252 231.099C207.252 231.822 208.336 233.628 208.336 234.351C208.336 234.712 209.781 234.351 210.142 234.351C211.226 234.351 212.31 233.267 212.31 232.183C212.31 229.654 214.478 227.124 213.033 223.511C212.31 221.705 209.42 222.427 207.613 223.511C206.89 226.04 207.252 228.57 207.252 231.099Z" fill="white"/>
<path d="M170.396 301.196C170.396 303.364 176.177 303.003 178.707 303.003C183.043 303.364 182.32 301.919 187.017 301.919C188.101 301.919 192.437 302.28 192.437 300.835C192.437 297.583 190.269 296.137 185.211 295.776C174.732 295.776 172.564 297.221 170.396 301.196Z" fill="white"/>
<path d="M317.818 298.667C316.011 295.415 312.759 296.137 309.507 296.137C307.7 296.137 305.532 296.499 303.726 296.499C301.919 296.499 300.113 297.583 300.113 299.028C300.113 300.473 301.197 301.196 302.642 301.919C304.087 303.003 317.456 302.28 317.818 298.667Z" fill="white"/>
</svg>
