<svg width="512" height="512" viewBox="0 0 512 512" fill="none" xmlns="http://www.w3.org/2000/svg">
<g clip-path="url(#clip0_1_23409)">
<path d="M256.495 512C370.914 512 463.997 418.914 463.997 304.494V17.5346C463.98 10.515 458.478 4.80068 451.561 4.40447C387.98 1.48806 322.397 0 256.495 0C190.593 0 125.007 1.48806 61.4327 4.40447C54.5089 4.80068 49.0126 10.515 48.9999 17.5346V304.495C48.9999 418.914 142.079 512 256.495 512Z" fill="#B1B3B4"/>
<path d="M256.495 501.248C364.983 501.248 453.245 412.989 453.245 304.494V17.5283L453.223 17.5781C453.223 16.232 452.147 15.142 450.789 15.142C387.479 12.2391 322.146 10.7502 256.496 10.7502C190.845 10.7502 125.509 12.2391 62.1933 15.142C60.8473 15.142 59.7717 16.232 59.7717 17.5781L59.7428 17.5283V304.494C59.7419 412.989 148.008 501.248 256.495 501.248Z" fill="#003B79"/>
<path d="M256.494 477.361C351.427 477.361 428.386 400.403 428.386 305.47C428.386 210.536 351.427 133.578 256.494 133.578C161.561 133.578 84.6021 210.536 84.6021 305.47C84.6021 400.403 161.561 477.361 256.494 477.361Z" fill="white"/>
<path d="M306.407 465.503C301.22 466.491 295.71 464.129 292.915 459.295C291.733 457.248 291.196 455.008 291.217 452.812L291.236 451.352L291.217 451.342C291.225 451.247 291.217 451.153 291.157 451.05C290.996 450.798 290.668 450.704 290.407 450.852C290.329 450.895 290.278 450.953 290.239 451.011L290.226 451.005L289.694 451.737C286.857 455.234 279.741 458.965 267.988 461.19C267.714 461.239 267.438 461.29 267.157 461.338C267.118 461.348 267.077 461.355 267.041 461.364C265.811 461.569 264.539 461.772 263.225 461.963C262.961 462.005 262.704 462.041 262.43 462.08C257.535 462.759 252.215 463.261 246.822 463.336C195.385 464.029 159.722 443.11 137.919 423.997C127.602 413.67 118.617 402.002 111.24 389.288C96.605 363.822 88.8481 334.844 88.8029 305.465C88.8192 293.055 90.2195 280.718 92.9306 268.67C94.6855 263.683 99.4771 260.095 105.054 260.095C107.428 260.095 109.639 260.75 111.533 261.871L112.792 262.615L112.798 262.602C112.885 262.654 112.975 262.699 113.081 262.699C113.384 262.699 113.629 262.447 113.629 262.142C113.629 262.061 113.6 261.98 113.583 261.918L113.592 261.908L113.219 261.089C111.605 256.883 111.937 248.855 115.876 237.563C115.982 237.298 116.069 237.036 116.169 236.767C116.185 236.729 116.191 236.688 116.217 236.65C116.648 235.479 117.105 234.277 117.585 233.059C117.695 232.803 117.792 232.559 117.891 232.302C119.749 227.722 121.974 222.864 124.601 218.155C149.727 173.275 185.677 152.834 213.121 143.524C227.232 139.746 241.831 137.796 256.537 137.772C285.895 137.832 314.86 145.593 340.313 160.231C351.055 166.458 361.051 173.849 370.129 182.229C373.583 186.231 374.293 192.177 371.494 197.011C370.306 199.065 368.644 200.65 366.722 201.726L365.454 202.45L365.467 202.46C365.373 202.503 365.302 202.562 365.249 202.659C365.087 202.918 365.181 203.255 365.441 203.415C365.519 203.453 365.59 203.472 365.656 203.481L365.664 203.494L366.549 203.576C371.003 204.289 377.803 208.585 385.6 217.647C385.786 217.86 385.957 218.081 386.15 218.304C386.179 218.329 386.202 218.363 386.228 218.394C387.023 219.348 387.831 220.356 388.649 221.385C388.814 221.604 388.977 221.809 389.152 222.024C392.195 225.92 395.286 230.276 398.039 234.907C424.35 279.108 424.07 320.459 418.435 348.883C414.642 362.995 409.03 376.606 401.707 389.345C386.969 414.748 365.761 435.966 340.355 450.694C329.585 456.879 318.202 461.833 306.407 465.503Z" fill="#E2001A"/>
<path d="M104.669 62.8909L103.745 38.8758L98.6928 41.1083L97.6399 35.7359L105.213 32.9136L109.37 32.7499L110.519 62.6657L104.669 62.8909Z" fill="white"/>
<path d="M124.054 59.0817C124.128 61.079 122.572 62.7724 120.596 62.8412C118.599 62.9072 116.902 61.3314 116.838 59.3332C116.755 57.3376 118.345 55.6424 120.339 55.5737C122.337 55.504 123.989 57.0961 124.054 59.0817Z" fill="white"/>
<path d="M144.521 36.4913L144.756 44.2084L154.412 43.9442L154.548 48.6825L144.871 48.9467L145.226 61.5386L139.458 61.7023L138.628 31.7802L154.635 31.3279L154.78 36.2109L144.521 36.4913Z" fill="white"/>
<path d="M171.742 61.2871C164.735 61.4373 161.345 58.2251 161.236 52.9911L160.923 38.0508L166.639 37.9287L166.932 51.5799C167.006 55.135 168.716 56.6022 171.959 56.5362C175.452 56.4611 176.798 54.4791 176.728 51.1557L176.447 37.7215L182.067 37.5994L182.363 51.7418C182.479 56.8926 179.339 61.1234 171.742 61.2871Z" fill="white"/>
<path d="M194.174 60.9605C192.712 60.985 190.934 60.7869 189.646 60.4938L189.784 55.4353C191.127 55.9473 192.859 56.2304 194.672 56.2096C196.582 56.177 198.173 55.2679 198.14 53.532C198.085 50.0385 188.847 52.1245 188.737 44.5865C188.673 40.0626 192.038 36.9997 198.372 36.9002C199.625 36.8812 201.314 37.0349 202.596 37.1896L202.499 41.984C201.244 41.652 199.553 41.4494 198.22 41.4738C195.779 41.5091 194.784 42.4526 194.793 43.871C194.842 47.1555 204.271 45.6421 204.383 52.7342C204.456 57.5647 200.604 60.8656 194.174 60.9605Z" fill="white"/>
<path d="M214.892 60.6919C213.433 60.7046 211.659 60.5001 210.365 60.2043L210.535 55.1458C211.865 55.6624 213.601 55.9572 215.411 55.9364C217.327 55.9265 218.911 55.0138 218.898 53.2932C218.865 49.7816 209.618 51.8296 209.534 44.2916C209.495 39.7677 212.882 36.7147 219.22 36.6523C220.473 36.6415 222.16 36.8007 223.435 36.9716L223.316 41.7633C222.063 41.4168 220.376 41.2124 219.043 41.2223C216.598 41.2495 215.603 42.1911 215.607 43.6105C215.64 46.895 225.074 45.426 225.145 52.5171C225.193 57.3476 221.316 60.6286 214.892 60.6919Z" fill="white"/>
<path d="M239.436 49.948C238.946 49.9544 238.061 49.9544 237.481 50.0077L237.51 55.9003C238.177 55.9889 239.056 56.026 239.944 56.026C242.742 56.0115 244.02 54.7207 244.008 52.821C244.008 50.7821 242.311 49.9417 239.436 49.948ZM239.841 40.8144C239.125 40.818 238.202 40.8641 237.446 40.8641L237.475 46.3704C238.135 46.4102 238.798 46.4075 239.12 46.4075C241.818 46.3966 243.631 45.4142 243.615 43.416C243.612 41.8619 242.727 40.8008 239.841 40.8144ZM240.095 60.1075C238.417 60.1139 235.39 60.0352 231.852 60.0505L231.758 36.987C234.105 36.987 237.873 36.8369 240.935 36.8179C247.143 36.7953 249.684 38.912 249.694 42.5421C249.7 44.7656 248.47 46.7232 246.168 47.6169V47.6667C248.74 48.365 250.035 50.3117 250.048 52.7921C250.055 56.2558 247.688 60.0786 240.095 60.1075Z" fill="white"/>
<path d="M266.507 46.3794C266.108 45.3156 265.669 43.9796 265.405 42.9565H265.363C265.089 43.9787 264.732 45.1736 264.336 46.2374L262.287 51.8278L268.499 51.8378L266.507 46.3794ZM271.262 60.0053L269.856 55.9627L260.952 55.9464L259.476 59.9782L253.712 59.9619L262.313 36.9156L269.097 36.9364L277.559 60.0144L271.262 60.0053Z" fill="white"/>
<path d="M282.858 60.0623L283.035 36.9997L288.757 37.0422L288.612 55.0481L296.122 55.1078L296.071 60.1636L282.858 60.0623Z" fill="white"/>
<path d="M301.57 60.2197L301.853 37.1643L307.576 37.2367L307.354 55.2399L314.844 55.3331L314.776 60.387L301.57 60.2197Z" fill="white"/>
<path d="M332.321 61.0791C321.866 60.8955 318.62 53.8677 318.749 46.4265C318.922 36.9274 324.013 30.3709 334.035 30.55C336.159 30.5916 338.407 30.9028 340.368 31.469L339.643 36.6922C337.699 36.0816 335.669 35.7297 333.631 35.6935C328.041 35.594 325.217 39.7551 325.107 45.5617C324.991 52.0775 327.632 55.7709 333.666 55.8723C335.477 55.9066 337.926 55.4218 339.497 54.7361L340.058 59.8932C337.835 60.6548 335.124 61.1334 332.321 61.0791Z" fill="white"/>
<path d="M346.48 60.975L347.025 37.9187L352.74 38.058L352.325 56.0513L359.805 56.2304L359.689 61.2871L346.48 60.975Z" fill="white"/>
<path d="M374.882 62.1121C367.888 61.9077 364.648 58.5281 364.822 53.2986L365.259 38.362L370.975 38.523L370.563 52.1842C370.464 55.7275 372.108 57.2816 375.338 57.3802C378.838 57.4833 380.275 55.5737 380.371 52.2511L380.77 38.817L386.399 38.9826L385.983 53.1268C385.827 58.2667 382.475 62.341 374.882 62.1121Z" fill="white"/>
<path d="M402.503 43.416C401.781 43.3906 400.863 43.4033 400.104 43.3726L399.898 48.8662C400.558 48.9367 401.225 48.962 401.537 48.9756C404.252 49.0751 406.097 48.1642 406.158 46.1696C406.226 44.6173 405.389 43.5254 402.503 43.416ZM401.717 52.537C401.225 52.5108 400.337 52.4836 399.77 52.5026L399.541 58.3988C400.204 58.5082 401.097 58.5869 401.975 58.6168C404.774 58.7298 406.109 57.4833 406.171 55.5801C406.255 53.5411 404.602 52.6356 401.717 52.537ZM401.965 62.7028C400.284 62.6368 397.27 62.4387 393.722 62.3093L394.572 39.2621C396.926 39.3534 400.693 39.3562 403.749 39.4665C409.954 39.6936 412.405 41.9189 412.277 45.5499C412.182 47.7689 410.879 49.6712 408.548 50.4727L408.538 50.5234C411.084 51.323 412.296 53.3213 412.206 55.8053C412.077 59.2608 409.546 62.9796 401.965 62.7028Z" fill="white"/>
<path d="M100.853 110.663L100.309 97.6744L87.6441 98.2026L88.1887 111.184L82.412 111.417L81.188 81.5174L86.9331 81.2759L87.4379 93.2319L100.109 92.7118L99.6228 80.7494L105.377 80.5142L106.607 110.417L100.853 110.663Z" fill="white"/>
<path d="M114.297 110.152L113.502 87.1033L127.686 86.6185L127.841 91.089L119.382 91.383L119.537 95.9919L127.599 95.7151L127.76 100.059L119.688 100.338L119.855 105.386L128.314 105.093L128.478 109.664L114.297 110.152Z" fill="white"/>
<path d="M135.901 109.436L135.205 86.3878L140.94 86.2159L141.613 109.265L135.901 109.436Z" fill="white"/>
<path d="M157.884 90.2893C157.04 90.3119 155.974 90.3815 155.179 90.4829L155.501 104.094C156.046 104.171 157.066 104.19 158.087 104.165C162.202 104.068 165.123 101.646 165.013 96.9887C164.897 92.4639 162.495 90.1762 157.884 90.2893ZM157.629 108.964C154.515 109.042 152.036 109.017 149.907 108.982L149.35 85.9698C151.427 85.8767 155.5 85.6849 158.337 85.6171C165.831 85.4316 170.876 88.509 171.069 96.5699C171.273 104.955 165.38 108.777 157.629 108.964Z" fill="white"/>
<path d="M177.462 108.387L177.046 85.3285L191.228 85.0698L191.315 89.5538L182.84 89.7049L182.926 94.3174L190.993 94.1718L191.079 98.5147L182.997 98.6631L183.103 103.718L191.566 103.563L191.65 108.127L177.462 108.387Z" fill="white"/>
<path d="M213.578 107.837L206.52 96.6513C205.718 95.3795 204.903 93.7494 204.308 92.4703H204.266C204.359 93.5775 204.421 94.7318 204.431 96.5419L204.579 107.942L199.077 108.004L198.802 84.9495L206.479 84.859L213.309 95.773C214.2 97.1452 215.018 98.5926 215.756 100.143H215.798C215.682 98.7681 215.621 96.8558 215.595 94.4649L215.438 84.755L220.989 84.6854L221.247 107.754L213.578 107.837Z" fill="white"/>
<path d="M245.038 107.623L245 98.3067L235.195 98.351L235.23 107.658L229.521 107.686L229.425 84.6202L235.134 84.6039L235.182 93.4237L244.98 93.383L244.938 84.5542L250.661 84.5352L250.758 107.595L245.038 107.623Z" fill="white"/>
<path d="M259.049 107.603L259.104 84.5352L273.291 84.5668V89.0527L264.812 89.0283V93.6417L272.876 93.6571L272.869 98.0046L264.797 97.9883L264.784 103.039L273.256 103.061L273.243 107.632L259.049 107.603Z" fill="white"/>
<path d="M280.63 107.679L280.788 84.6139L286.51 84.6492L286.364 107.705L280.63 107.679Z" fill="white"/>
<path d="M318.678 108.067L317.271 96.9634C317.025 95.0067 316.83 93.2292 316.723 91.8976H316.672C316.341 93.3613 315.925 94.947 315.461 96.4541L311.584 107.979L305.643 107.9L302.458 97.1669C301.94 95.5214 301.438 93.4734 301.096 91.7819L301.06 91.7782C300.948 93.5096 300.752 95.1949 300.459 97.0511L298.942 107.809L293.223 107.738L297.11 84.7215L304.297 84.8174L307.92 96.569C308.306 97.8589 308.676 99.3759 308.969 100.934H309.014C309.343 99.2918 309.716 98.0597 310.18 96.6884L314.237 84.9495L321.549 85.0381L324.761 108.142L318.678 108.067Z" fill="white"/>
<path d="M345.807 108.582L346.352 84.5542L341.155 86.4828L340.44 81.0489L348.164 78.6987L352.331 78.7937L351.658 108.718L345.807 108.582Z" fill="white"/>
<path d="M368.976 83.1665C366.326 83.0978 364.771 84.4294 364.716 86.3742C364.664 88.33 366.274 89.6199 368.934 91.1143C371.546 89.5828 372.863 88.2513 372.927 86.5597C372.976 84.8346 371.777 83.248 368.976 83.1665ZM368.122 96.3248C365.865 97.6771 364.02 99.0024 363.95 101.129C363.892 103.394 365.579 104.901 368.416 104.98C370.983 105.05 372.976 103.78 373.036 101.559C373.104 99.2131 370.786 97.7694 368.122 96.3248ZM367.755 109.664C361.45 109.492 357.863 106.237 357.992 101.491C358.095 98.0417 360.687 95.6725 363.618 93.9384C360.601 92.1175 358.851 89.8054 358.945 86.7931C359.087 81.6052 363.525 78.4464 369.553 78.6182C375.31 78.7766 378.859 82.0268 378.746 86.2367C378.65 89.6054 376.283 91.7113 373.44 93.4979C376.618 95.4075 379.045 97.7802 378.94 101.329C378.781 107.05 373.606 109.825 367.755 109.664Z" fill="white"/>
<path d="M396.462 85.5429H396.414L388.488 97.6047C390.45 97.5821 394.607 97.7241 396.026 97.7694L396.462 85.5429ZM401.347 103.061L401.102 110.194L395.515 109.999L395.76 102.869L383.623 102.448L382.977 97.9014L394.958 80.0357L402.136 80.2836L401.537 97.8743L406.009 98.0326L405.819 103.214L401.347 103.061Z" fill="white"/>
<path d="M421.289 96.5228C418.359 96.4007 416.411 98.4514 416.289 101.153C416.17 104.17 417.712 106.497 420.637 106.619C423.883 106.754 425.692 104.608 425.815 101.637C425.942 98.674 424.387 96.6522 421.289 96.5228ZM420.037 111.431C413.835 111.172 409.841 106.793 410.2 98.2814C410.709 86.0513 417.738 80.4889 426.364 80.8444C427.836 80.9068 429.021 81.0018 429.822 81.171L429.607 86.215C428.424 85.9029 427.407 85.7672 426.083 85.7111C421.514 85.5257 418.217 87.8767 416.771 92.6937C416.636 93.0899 416.52 93.6146 416.326 94.1908L416.365 94.2306C417.882 92.6575 420.059 91.7638 422.941 91.8895C428.648 92.1265 432.006 95.9909 431.79 101.087C431.515 107.692 426.734 111.704 420.037 111.431Z" fill="white"/>
<path d="M257.787 375.481C214.048 375.481 209.238 344.624 209.238 311.602C209.238 271.035 218.47 240.058 262.9 240.058C272.339 240.058 274.492 241.229 283.135 243.596L280.385 266.792C271.752 264.239 270.565 262.853 261.519 262.853C239.262 262.853 237.343 284.393 237.343 307.281C237.343 332.104 239.577 352.291 263.29 352.291C271.35 352.291 274.296 349.935 281.181 346.785L284.124 369.589C274.296 373.13 270.178 375.481 257.787 375.481Z" fill="white"/>
<path d="M350.245 373.71H350.48H350.938C371.392 373.62 375.752 359.349 375.794 340.625V241.043H350.246V294.117H320.559V241.043H295V373.71H320.559V316.123H350.244V373.71H350.245Z" fill="white"/>
<path d="M167.461 272.754C167.474 267.026 168.813 262.656 175.102 262.656H204.199V241.042H166.965C146.33 241.042 141.955 255.35 141.906 274.132V373.709H167.461V317.886H198.508V296.866H167.461V272.754Z" fill="white"/>
</g>
<defs>
<clipPath id="clip0_1_23409">
<rect width="414.997" height="512" fill="white" transform="translate(48.9999)"/>
</clipPath>
</defs>
</svg>
