<svg width="512" height="476" viewBox="0 0 512 476" fill="none" xmlns="http://www.w3.org/2000/svg">
<g clip-path="url(#clip0_1_23511)">
<path d="M256 476C397.412 476 511.85 369.297 511.85 238C511.85 106.703 397.412 0 256 0C114.588 0 0.149902 106.703 0.149902 238C0.149902 369.297 114.589 476 256 476Z" fill="white"/>
<path d="M213.359 239.984C208.4 187.822 180.039 147.363 150.091 149.742C120.143 152.121 99.9126 196.35 104.871 248.71C105.863 259.023 107.648 268.742 110.226 277.865C120.935 315.151 143.942 340.935 167.941 338.952C190.353 337.167 207.211 312.177 212.368 277.865C214.352 266.163 214.748 253.272 213.36 239.983L213.359 239.984ZM163.379 286.79C157.23 287.384 151.082 284.013 146.124 277.865C139.183 269.734 134.224 256.842 132.836 241.967C130.456 215.985 140.175 194.169 154.653 192.979C169.131 191.788 182.816 211.821 185.394 237.802C186.981 254.264 183.61 268.94 177.263 277.865C173.297 283.021 168.735 286.394 163.38 286.79H163.379Z" fill="#AE0F0A"/>
<path d="M256.396 449.027H255.404C236.96 449.027 217.126 446.25 200.268 442.284C229.621 391.708 234.382 341.927 234.382 341.927V178.5L137.793 93.8114C99.7124 124.553 75.7138 169.773 75.7138 219.952C75.7138 288.576 120.141 347.481 184.004 373.462L163.774 430.384C83.8451 397.262 28.114 323.284 28.114 237.406C28.3122 135.66 106.257 50.7738 210.184 30.7417C211.176 30.5436 212.168 30.5436 213.158 30.5436C221.687 30.5436 228.628 36.494 228.628 44.0307C228.628 49.5837 224.662 54.5422 218.91 56.526C200.266 60.2944 182.615 66.6411 166.549 75.1698L255.402 153.115L345.247 75.1698C329.182 66.6411 311.729 60.2944 292.887 56.526C287.136 54.5422 283.168 49.783 283.168 44.0307C283.168 36.6921 290.109 30.5436 298.638 30.5436C299.63 30.5436 300.622 30.5436 301.613 30.7417C405.341 50.972 483.682 135.858 483.682 237.406C483.682 323.482 427.95 397.262 348.022 430.384L327.594 373.264C391.458 347.282 435.884 288.178 435.884 219.754C435.884 169.377 411.886 124.157 373.806 93.6133L277.416 178.5V341.927C277.416 341.927 282.176 391.708 311.53 442.284C294.672 446.052 274.838 448.829 256.393 449.027H256.396Z" fill="#AE0F0A"/>
<path d="M397.412 223.324C403.957 257.834 381.148 305.236 337.119 337.564C329.978 342.72 328.392 345.695 323.235 348.273L313.12 319.118C319.269 316.143 321.451 314.953 329.384 309.003C350.01 293.929 361.316 273.501 357.944 256.445C355.762 244.743 346.638 233.24 331.565 244.347C320.061 252.677 313.318 259.222 303.6 269.734L303.798 185.838L373.412 126.139L372.818 163.426L335.928 192.581L336.324 217.174C339.1 214.596 341.282 212.612 346.637 208.844C371.032 191.192 392.651 197.737 397.411 223.322L397.412 223.324Z" fill="#AE0F0A"/>
<path d="M256 464.399C121.869 464.399 12.7441 362.927 12.7441 238.199C12.7441 113.472 121.869 11.6025 256 11.6025C390.131 11.6025 499.256 113.164 499.256 238C499.256 362.836 390.131 464.399 256 464.399ZM256 14.5772C123.508 14.5772 15.7188 114.893 15.7188 238.198C15.7188 361.503 123.508 461.423 256 461.423C388.491 461.423 496.281 361.196 496.281 238C496.281 114.804 388.491 14.5772 256 14.5772Z" fill="#AE0F0A"/>
</g>
<defs>
<clipPath id="clip0_1_23511">
<rect width="512" height="476" fill="white"/>
</clipPath>
</defs>
</svg>
