<svg width="512" height="512" viewBox="0 0 512 512" fill="none" xmlns="http://www.w3.org/2000/svg">
<g clip-path="url(#clip0_1_23656)">
<path d="M477.018 219.295C477.018 219.295 476.794 218.488 475.959 218.488H269.283C260.903 210.2 251.409 205.889 251.391 205.884C251.391 205.884 251.391 205.88 252.226 205.88H380.996C380.996 205.88 381.831 205.88 381.611 205.077L370.621 165.514C370.621 165.514 370.397 164.711 369.566 164.711H3.89757C3.89757 164.711 3.06282 164.711 3.28756 165.514L14.2724 205.077C14.2724 205.077 14.4972 205.88 15.3319 205.88H35.2469C35.2469 205.88 36.0816 205.88 36.3018 206.682L70.545 330.004C70.545 330.004 70.7697 330.807 71.6045 330.807H162.005C162.005 330.807 162.84 330.807 163.157 331.082C163.469 331.353 183.214 348.177 213.824 348.177C244.751 348.177 263.685 331.354 263.983 331.082C263.983 331.082 264.286 330.807 265.121 330.807H507.15C507.15 330.807 507.985 330.807 507.76 330.004L477.018 219.295Z" fill="white"/>
<path d="M179.568 327.729C203.235 341.549 231.52 337.902 248.83 327.724L258.489 327.729C231.364 347.589 194.911 345.346 170.037 327.734L179.568 327.729Z" fill="#FDDC02"/>
<path d="M170.034 327.729C148.045 312.162 135.107 284.583 145.651 249.633H125.282L145.587 324.426H76.4816L41.5409 198.556H20.0667L12.3842 171.059H366.241L373.786 199.552H111.748L118.321 223.884H162.568C198.229 190.177 247.943 203.213 267.201 224.934H472.174L500.029 324.059H263.107C261.598 325.362 260.061 326.586 258.488 327.738L248.829 327.733C251.177 326.348 253.324 324.848 255.232 323.252C253.732 317.853 252.301 312.391 250.806 306.864C241.243 315.744 222.241 325.797 195.368 313.881C171.812 301.837 155.804 266.585 186.905 238.033C198.62 228.227 215.54 224.626 228.68 228.598C227.12 222.576 225.753 216.559 224.194 210.536C193.152 206.564 163.872 221.15 151.249 251.747C143.246 271.547 146.3 303.763 174.737 324.618C176.324 325.741 177.934 326.778 179.567 327.732L170.034 327.729ZM196.237 302.92L195.691 305.745C195.883 304.791 196.058 303.856 196.237 302.92ZM174.281 270.058C177.858 276.075 184.367 280.299 194.388 282.41C194.778 281.043 195.168 279.74 195.558 278.374C186.903 276.635 180.854 273.223 177.991 267.948C176.753 268.632 175.519 269.374 174.281 270.058ZM232.062 237.1C236.878 227.417 243.84 222.019 251.845 218.79C251.326 217.487 250.739 216.18 250.152 214.942C241.108 218.478 233.43 224.624 228.16 235.425L232.062 237.1ZM267.658 231.513C249.307 239.769 239.221 249.699 233.819 270.431C235.186 270.802 236.553 271.238 237.855 271.609C238.309 270.183 238.832 268.692 239.286 267.266C251.973 276.884 257.573 290.419 260.238 302.89C261.738 302.642 262.907 302.335 264.403 302.147C260.564 284.337 252.757 271.238 240.589 263.106C243.318 255.781 247.29 250.2 252.432 245.727C269.026 258.326 277.159 275.645 278.199 296.931C279.63 296.931 281.061 296.996 282.492 296.996C280.997 272.852 271.626 255.226 255.683 242.998C260.109 239.769 264.467 237.224 269.155 235.362C268.765 235.178 268.439 235.178 268.049 235.05C268.893 233.871 269.742 232.757 270.521 231.578C270.067 231.454 269.609 231.326 269.219 231.326C268.765 231.326 268.242 231.39 267.659 231.514M105.437 318.965H114.354C113.767 316.919 113.18 314.745 112.597 312.576C109.992 314.062 107.327 315.181 104.396 315.429L105.437 318.965ZM272.086 230.393C292.973 256.651 292.455 294.014 268.834 318.593H492.547L467.757 230.393H272.086ZM59.5043 176.519H19.8118L24.4304 193.09H45.9046L80.9134 318.96H99.5215C99.1316 317.658 98.7418 316.231 98.3519 314.869C85.1426 310.769 82.7344 296.431 90.8667 288.239L59.5043 176.519ZM103.035 288.739C96.857 288.739 91.8439 293.518 91.8439 299.352C91.8439 305.25 96.857 310.03 103.035 310.03C109.153 310.03 114.162 305.25 114.162 299.352C114.162 293.518 109.154 288.739 103.035 288.739ZM80.3268 176.519L110.846 285.202C119.175 289.793 122.688 298.544 117.221 307.978C118.198 311.703 119.239 315.367 120.28 318.963H138.172L117.937 244.111H148.001C150.73 238.464 153.853 233.561 157.5 229.402H113.835L104.336 194.021H366.444L361.757 176.519L80.3268 176.519ZM216.717 246.038C215.158 245.974 213.791 245.914 212.681 245.974C211.512 245.974 210.342 245.974 209.104 245.726C208.585 245.414 208.26 244.671 208.26 243.552C208.26 243.368 207.998 243.121 207.737 243.304C206.696 244.111 206.696 245.29 207.085 245.974C207.544 246.721 208.324 247.217 209.237 247.464C209.493 247.524 209.755 247.588 210.016 247.588C210.47 247.588 210.989 247.588 211.966 247.652C212.814 247.652 213.658 247.652 214.442 247.588C215.396 247.528 216.227 247.524 216.933 247.469L216.8 246.538C216.768 246.373 216.74 246.203 216.717 246.038ZM104.214 283.341L74.4102 176.519H65.3656L95.8162 284.891C98.2242 283.895 100.958 283.277 104.214 283.341Z" fill="#FDDC02"/>
<path d="M224.715 239.338C225.238 239.15 225.756 238.902 226.274 238.655C226.343 238.595 226.669 238.531 227.71 238.531V238.219C227.71 237.912 227.581 237.852 227.384 237.788C227.187 237.788 226.925 237.723 226.669 237.723C226.082 237.723 225.559 237.788 225.366 238.035C225.04 238.407 224.715 238.719 224.453 239.026C224.522 239.15 224.651 239.278 224.715 239.338ZM218.596 241.388C218.142 240.517 217.688 239.709 217.101 239.026C216.84 238.719 216.129 238.719 215.932 239.026C215.606 239.402 215.473 240.145 215.344 240.888C215.28 241.012 215.28 241.14 215.344 241.264C215.473 241.324 215.542 241.448 215.67 241.512C215.799 241.636 215.932 241.572 216.06 241.512C216.321 241.264 216.386 240.888 216.321 240.457L216.711 240.269C216.84 240.393 216.904 240.705 216.973 241.012V241.324C216.904 241.512 217.101 241.636 217.363 241.636C217.752 241.572 218.142 241.448 218.596 241.388ZM217.101 248.713L216.927 247.474C216.927 247.181 216.858 246.864 216.794 246.539L216.711 245.979C216.45 245.667 216.06 245.36 215.867 245.048C213.914 244.677 212.157 244.241 210.272 243.805C209.946 243.746 209.749 243.622 209.552 243.434C208.772 242.691 208.254 241.883 207.864 241.076C207.538 240.209 207.992 239.709 209.033 239.526C210.4 239.338 211.831 239.15 213.262 239.026C213.652 238.966 213.914 238.843 214.111 238.655C216.129 236.733 218.927 236.361 221.853 236.609C222.761 236.669 224.454 237.04 225.431 236.733C228.49 236.545 229.334 237.852 228.88 239.897C228.751 240.333 228.815 240.829 228.88 241.324C229.792 243.746 230.375 246.167 229.659 248.713C228.751 250.823 227.838 252.992 228.618 254.423C229.595 256.593 230.182 258.767 229.531 260.753C228.88 263.67 227.251 267.082 228.036 269.692C228.751 271.43 230.049 276.764 230.962 279.374C231.48 281.172 232.457 282.479 233.498 283.782C234.347 285.02 234.934 286.199 235.324 287.382C234.801 287.382 234.347 287.442 233.824 287.442C234.801 292.964 235.452 300.848 236.948 302.151C236.819 302.522 236.755 302.958 236.622 303.329C236.622 303.705 235.907 303.889 235.65 304.325C233.76 308.544 231.026 310.966 225.692 312.392V312.209C225.11 310.732 224.147 308.705 223.243 306.976C225.055 305.866 226.738 304.692 227.839 303.517C220.028 296.688 219.771 294.514 218.404 287.253C218.404 286.946 218.271 286.822 218.079 286.822C217.817 286.822 217.56 286.881 217.299 286.881C217.95 289.243 218.533 291.601 219.184 293.894C214.304 297.435 211.442 300.288 210.401 307.984C210.011 309.415 209.034 309.722 207.928 309.475C206.172 308.856 204.544 308.544 203.177 308.608C200.64 308.296 198.168 307.241 195.696 305.75C196.086 303.824 196.412 301.966 196.801 300.04C197.517 300.288 198.297 300.6 198.82 300.535C199.535 300.659 199.796 300.783 200.118 301.095C200.379 301.283 200.576 301.531 201.356 301.467C201.746 301.467 203.31 302.338 203.828 301.902C202.397 291.353 205.388 287.381 213.001 282.226C213.263 282.102 213.396 282.161 213.717 282.35C214.042 282.661 214.304 282.973 214.63 283.281C215.281 283.533 215.345 283.093 214.955 282.721C212.286 281.235 211.18 278.501 210.662 275.337C210.593 275.213 210.726 274.965 210.139 275.213C198.884 279.001 196.802 277.511 189.385 271.301L191.284 268.209C191.765 267.452 192.251 266.696 192.747 265.93C195.256 267.347 196.545 268.828 197.384 270.31C197.645 270.681 197.843 270.622 198.104 270.434C201.553 268.448 205.062 266.65 208.58 264.911C208.511 264.664 208.447 264.416 208.447 264.228C207.667 264.664 206.887 265.095 206.108 265.466C197.265 260.325 192.256 260.935 189.39 249.184C189.459 249.203 189.55 249.189 189.642 249.143C191.201 248.313 192.646 247.588 194.252 246.767L194.458 246.662C195.563 248.029 196.279 250.074 196.802 252.372C196.669 252.56 196.93 252.867 197.063 252.932C201.095 253.987 205.062 255.042 209.034 255.973C207.928 257.775 207.149 259.321 206.818 260.316C206.562 261.619 206.3 262.738 206.3 263.169H207.016C208.19 256.78 209.749 254.482 216.193 251.629C216.193 251.193 216.129 250.698 216.129 250.262C215.216 250.446 214.304 250.446 213.396 250.262C212.937 250.138 212.483 250.015 211.767 250.015C210.203 249.515 210.726 248.088 211.506 248.212C212.809 248.029 213.717 248.212 214.437 248.46C214.762 248.648 215.799 248.713 217.101 248.713Z" fill="#211E1E"/>
<path d="M174.285 270.054C175.523 269.371 176.757 268.628 177.995 267.944C180.857 273.219 186.907 276.631 195.562 278.369C195.172 279.736 194.782 281.039 194.392 282.406C184.37 280.296 177.862 276.072 174.285 270.054Z" fill="#211E1E"/>
<path d="M232.065 237.095L228.162 235.417C233.432 224.62 241.109 218.474 250.154 214.938C250.741 216.176 251.323 217.484 251.846 218.786C243.843 222.011 236.88 227.414 232.064 237.096" fill="#211E1E"/>
<path d="M267.666 231.518C268.248 231.394 268.771 231.335 269.225 231.335C269.615 231.335 270.073 231.454 270.528 231.582C269.748 232.761 268.899 233.876 268.055 235.054C268.445 235.178 268.771 235.178 269.161 235.366C264.473 237.228 260.116 239.774 255.69 243.003C271.632 255.226 281.003 272.852 282.498 297C281.067 297 279.636 296.936 278.205 296.936C277.164 275.649 269.032 258.331 252.438 245.732C247.297 250.199 243.325 255.786 240.596 263.111C252.763 271.243 260.57 284.337 264.409 302.151C262.914 302.34 261.744 302.647 260.244 302.894C257.579 290.419 251.979 276.889 239.292 267.27C238.838 268.697 238.315 270.188 237.861 271.614C236.559 271.242 235.192 270.807 233.825 270.435C239.228 249.704 249.313 239.774 267.664 231.518" fill="#211E1E"/>
<path d="M285.56 235.733L303.259 300.968C304.823 307.115 307.878 311.894 316.143 311.829H331.953C336.379 311.829 339.113 310.155 337.356 303.821C331.238 281.168 325.055 258.451 318.941 235.734H309.57L327.857 302.147C328.375 303.702 327.857 304.381 326.683 304.445H321.546C320.5 304.381 319.853 303.885 319.592 302.83C313.473 280.485 307.295 258.143 301.176 235.733L285.56 235.733ZM340.736 235.733H324.861L345.813 311.829H355.381L343.148 267.326L366.833 311.829H382.514L361.692 235.733H352.973L364.554 277.508L340.736 235.733ZM443.287 235.733H427.344L448.364 311.829H457.863L445.631 267.326L469.384 311.829H484.997L464.242 235.733H455.523L467.104 277.508L443.287 235.733ZM367.549 235.733L388.629 311.829H400.669L379.584 235.733H367.549ZM388.954 244.113C392.729 262.982 399.109 283.466 404.832 302.21C406.979 309.099 411.143 312.205 415.308 311.828C415.762 311.828 416.285 311.828 416.739 311.893C422.073 311.893 427.284 311.893 432.485 311.828C437.236 311.952 440.167 310.09 440.557 305.623V303.449C440.493 302.518 440.295 301.527 440.098 300.472L423.898 241.443C422.788 237.783 420.188 236.293 416.739 235.921C415.831 235.797 414.854 235.733 413.877 235.733C408.671 235.673 403.075 235.673 396.828 235.733C391.819 235.857 389.15 238.091 388.953 242.315L388.954 244.113ZM272.089 230.394H467.751L492.541 318.593H268.828C292.449 294.014 292.968 256.652 272.08 230.394M416.736 257.707C420.837 272.664 424.873 287.437 429.033 302.458C429.231 303.573 428.708 304.132 427.41 304.261H423.309C420.901 304.132 419.47 301.156 418.558 298.11C417.975 295.877 417.388 293.583 416.737 291.35C412.38 275.645 407.564 259.565 404.44 244.484C404.307 243.37 404.568 242.81 405.807 242.81C407.761 242.81 409.774 242.75 411.659 242.75C412.182 242.75 412.7 242.81 412.769 243.37C414.136 248.208 415.434 252.928 416.736 257.707Z" fill="white"/>
<path d="M59.4986 176.52L90.8616 288.244C82.7296 296.436 85.1375 310.774 98.3468 314.874C98.7367 316.236 99.1265 317.663 99.5164 318.965H80.9083L45.8995 193.095H24.4253L19.8066 176.524L59.4986 176.52Z" fill="#EB1923"/>
<path d="M103.036 288.735C109.155 288.735 114.164 293.514 114.164 299.348C114.164 305.246 109.155 310.026 103.036 310.026C96.8538 310.026 91.8453 305.247 91.8453 299.348C91.8453 293.514 96.8538 288.735 103.036 288.735Z" fill="#EB1923"/>
<path d="M80.3281 176.52H361.751L366.434 194.022H104.338L113.836 229.403H157.501C153.855 233.563 150.731 238.467 147.998 244.112H117.937L138.172 318.965H120.28C119.239 315.369 118.198 311.704 117.221 307.98C122.688 298.545 119.175 289.795 110.846 285.204L80.3281 176.52Z" fill="#EB1923"/>
<path d="M228.683 228.594C215.543 224.622 198.623 228.223 186.909 238.029C155.808 266.58 171.815 301.838 195.371 313.877C222.244 325.793 241.246 315.74 250.809 306.86C252.304 312.387 253.736 317.849 255.235 323.248C238.316 337.402 202.398 344.226 174.741 324.615C146.308 303.759 143.25 271.548 151.253 251.747C163.875 221.146 193.156 206.561 224.198 210.532C225.757 216.554 227.124 222.572 228.683 228.594Z" fill="#EB1923"/>
<path d="M216.977 247.463L216.798 246.537C216.862 246.858 216.931 247.174 216.977 247.463Z" fill="#EB1923"/>
<path d="M216.719 246.042C216.742 246.208 216.769 246.377 216.801 246.542L216.934 247.473C216.228 247.528 215.398 247.533 214.444 247.593C213.659 247.652 212.816 247.652 211.972 247.652C210.995 247.593 210.472 247.593 210.018 247.593C209.756 247.593 209.495 247.528 209.238 247.469C208.325 247.221 207.545 246.726 207.087 245.978C206.697 245.295 206.697 244.116 207.738 243.309C208 243.125 208.261 243.373 208.261 243.557C208.261 244.676 208.587 245.419 209.105 245.731C210.343 245.978 211.513 245.978 212.683 245.978C213.792 245.919 215.159 245.978 216.719 246.042Z" fill="#EB1923"/>
<path d="M189.396 249.177C191.011 248.361 192.634 247.586 194.258 246.756C192.652 247.581 191.208 248.306 189.644 249.136C189.557 249.182 189.465 249.196 189.396 249.177Z" fill="#EB1923"/>
<path d="M194.398 246.219C194.462 246.407 194.462 246.53 194.462 246.654C192.77 247.521 191.077 248.328 189.389 249.136C188.802 248.828 188.151 248.452 187.697 248.145C187.371 247.833 187.697 247.462 188.087 247.65C188.541 247.773 188.995 247.897 189.518 248.021H189.779C189.454 247.462 188.669 246.842 188.023 246.283L188.215 245.911C188.734 246.159 189.321 246.407 189.908 246.654L188.931 245.164C188.995 245.104 189.128 245.04 189.256 244.916C189.972 245.659 190.687 246.407 191.467 246.902C191.274 245.911 190.949 244.98 190.559 244.049L190.949 243.861C191.467 244.792 192.054 245.659 192.77 246.471C192.444 245.787 191.99 244.98 191.403 244.233C191.141 243.678 191.862 243.613 192.054 243.737C192.967 244.356 193.618 245.228 194.398 246.219Z" fill="#EB1923"/>
<path d="M192.707 265.897C192.258 266.691 191.771 267.448 191.29 268.204L192.707 265.897Z" fill="#EB1923"/>
<path d="M191.286 268.199C190.644 269.217 190.016 270.235 189.383 271.299L191.286 268.199ZM192.75 265.924C192.24 266.708 191.763 267.451 191.286 268.199L192.75 265.924ZM192.768 265.896L191.286 268.199L189.383 271.299C189.126 271.111 188.929 270.923 188.667 270.735C188.539 270.616 187.695 270.18 187.236 269.868C187.108 269.685 187.172 269.497 187.434 269.433C187.888 269.373 188.342 269.373 188.8 269.313C188.278 269.061 187.759 268.754 187.236 268.501C187.236 268.382 187.236 268.194 187.305 268.07C187.888 268.07 188.475 268.011 189.062 268.011C188.603 267.635 187.952 267.323 187.626 266.951C187.369 266.516 187.824 266.332 188.016 266.456C188.667 266.516 189.319 266.644 189.906 266.58L188.667 265.401C188.736 265.277 188.865 265.153 188.929 265.089C189.516 265.277 190.167 265.525 190.75 265.772C190.493 265.401 190.231 264.965 189.97 264.594C190.034 264.47 190.098 264.47 190.232 264.346C191.47 265.029 192.314 265.525 192.768 265.896Z" fill="#EB1923"/>
<path d="M225.689 312.206C225.18 311.234 224.703 310.216 224.222 309.17L223.396 307.322C224.267 308.959 225.144 310.821 225.689 312.206Z" fill="#EB1923"/>
<path d="M224.221 309.165C223.891 308.445 223.561 307.716 223.217 306.987L223.396 307.317L224.221 309.165Z" fill="#EB1923"/>
<path d="M223.224 306.923C224.063 308.771 224.838 310.56 225.677 312.349C225.044 312.697 224.457 312.945 223.939 313.192C224.265 312.633 224.59 312.078 224.847 311.514C224.2 311.949 223.549 312.449 222.898 312.945C223.352 312.261 223.742 311.578 224.132 310.895C223.352 311.018 222.508 311.206 221.728 311.39C222.375 310.771 223.026 310.211 223.678 309.592C222.962 309.84 222.311 310.152 221.659 310.399C222.049 309.78 222.508 309.221 222.898 308.661C222.246 308.661 221.531 308.721 220.944 308.785C221.659 308.166 222.439 307.542 223.224 306.923Z" fill="#EB1923"/>
<path d="M195.701 305.748L194.009 305.872L195.504 304.694L193.096 304.074L195.568 303.143L193.619 302.024L195.83 301.712L193.94 300.162L196.481 300.35L194.917 299.543L196.807 300.038L195.701 305.748Z" fill="#EB1923"/>
<path d="M285.56 235.733H301.177C307.296 258.143 313.474 280.484 319.593 302.831C319.854 303.886 320.501 304.381 321.547 304.445H326.684C327.858 304.381 328.376 303.702 327.858 302.147L309.572 235.734H318.942C325.056 258.452 331.244 281.169 337.357 303.822C339.114 310.156 336.381 311.83 331.954 311.83H316.144C307.879 311.894 304.825 307.115 303.26 300.969L285.56 235.733Z" fill="#EB1923"/>
<path d="M340.734 235.733L364.551 277.508L352.97 235.733H361.689L382.512 311.829H366.831L343.146 267.326L355.378 311.829H345.811L324.859 235.733H340.734Z" fill="#EB1923"/>
<path d="M443.285 235.733L467.098 277.508L455.517 235.733H464.236L484.99 311.829H469.377L445.624 267.326L457.857 311.829H448.358L427.343 235.733H443.285Z" fill="#EB1923"/>
<path d="M367.551 235.733H379.587L400.671 311.829H388.636L367.551 235.733Z" fill="#EB1923"/>
<path d="M416.737 257.702C415.434 252.923 414.136 248.203 412.769 243.364C412.705 242.805 412.182 242.74 411.66 242.74C409.774 242.74 407.761 242.805 405.807 242.805C404.569 242.805 404.307 243.364 404.44 244.479C407.564 259.564 412.38 275.64 416.737 291.344C417.389 293.578 417.976 295.871 418.558 298.105C419.471 301.15 420.902 304.127 423.31 304.255H427.41C428.713 304.127 429.231 303.572 429.034 302.453C424.869 287.432 420.838 272.658 416.737 257.702ZM388.952 244.108V242.31C389.149 238.085 391.818 235.852 396.827 235.728C403.074 235.668 408.669 235.668 413.875 235.728C414.852 235.728 415.825 235.792 416.737 235.916C420.187 236.288 422.792 237.778 423.897 241.438L440.102 300.467C440.294 301.522 440.491 302.512 440.556 303.444V305.618C440.166 310.085 437.235 311.947 432.483 311.823C427.282 311.888 422.072 311.887 416.738 311.887C416.284 311.823 415.761 311.823 415.307 311.823C411.142 312.199 406.977 309.094 404.831 302.205C399.107 283.46 392.727 262.977 388.953 244.108" fill="#EB1923"/>
<path d="M224.715 239.338C224.651 239.278 224.522 239.15 224.453 239.026C224.715 238.719 225.04 238.407 225.366 238.035C225.559 237.788 226.082 237.724 226.669 237.724C226.926 237.724 227.187 237.788 227.384 237.788C227.581 237.852 227.71 237.912 227.71 238.219V238.531C226.669 238.531 226.343 238.595 226.274 238.655C225.756 238.902 225.238 239.15 224.715 239.338Z" fill="white"/>
<path d="M218.597 241.381C218.139 241.441 217.749 241.565 217.359 241.629C217.098 241.629 216.905 241.505 216.969 241.317V241.01C216.905 240.698 216.841 240.386 216.708 240.262L216.318 240.45C216.382 240.881 216.318 241.257 216.056 241.505C215.928 241.565 215.795 241.629 215.667 241.505C215.538 241.441 215.469 241.317 215.341 241.257C215.277 241.129 215.277 241.01 215.341 240.881C215.469 240.138 215.602 239.395 215.928 239.019C216.121 238.712 216.841 238.712 217.098 239.019C217.685 239.702 218.139 240.51 218.597 241.381Z" fill="white"/>
</g>
<defs>
<clipPath id="clip0_1_23656">
<rect width="512" height="186.626" fill="white" transform="translate(0 163)"/>
</clipPath>
</defs>
</svg>
