<svg width="471" height="512" viewBox="0 0 471 512" fill="none" xmlns="http://www.w3.org/2000/svg">
<mask id="mask0_1_23700" style="mask-type:luminance" maskUnits="userSpaceOnUse" x="10" y="9" width="449" height="499">
<path d="M10.9578 9.33313H458.491V507.952H10.9578V9.33313Z" fill="white"/>
</mask>
<g mask="url(#mask0_1_23700)">
<path d="M11.0901 9.33323L11.0637 18.2609C11.0637 23.1375 11.0373 28.1946 11.0109 33.3288C10.9078 52.8864 10.8298 75.0246 11.3979 98.4529C12.3784 138.523 14.9327 184.995 26.234 225.756C40.2959 276.354 60.9632 320.965 89.4485 362.142C123.713 411.682 170.753 459.365 229.322 503.845L234.74 507.947L240.133 503.845C298.677 459.362 345.738 411.708 379.98 362.142C408.491 320.962 429.158 276.353 443.194 225.756C455.14 182.77 457.411 135.112 458.056 98.4C458.314 82.558 458.288 67.6446 458.236 53.2213C458.183 40.9395 458.159 29.3545 458.339 18.4406L458.468 9.35832H449.386L20.0167 9.33252L11.0901 9.33323Z" fill="white"/>
</g>
<path d="M234.678 496.743C172.599 449.577 128.32 402.697 96.7669 357.074C64.8502 310.915 46.6341 265.842 34.8166 223.371C23.9543 184.178 21.3222 139.801 20.3162 98.2337C19.5938 68.8713 19.929 41.9858 19.9806 18.2966H449.35C448.963 42.0082 449.582 68.868 449.066 98.2337C448.343 139.801 445.428 184.181 434.539 223.371C422.748 265.84 404.532 310.917 372.589 357.074C341.06 402.692 296.781 449.575 234.678 496.743Z" fill="#D40723"/>
<path d="M28.9242 27.2401C30.7561 140.844 4.67032 311.188 234.692 485.943C464.74 311.214 438.656 140.871 440.485 27.2665L28.9242 27.2401Z" fill="white"/>
<path d="M321.802 259.019L327.685 258.297C327.891 259.793 328.381 260.954 329.207 261.754C330.033 262.554 331.039 262.941 332.2 262.941C333.439 262.941 334.522 262.451 335.374 261.522C336.225 260.567 336.664 259.277 336.664 257.651C336.664 256.129 336.251 254.916 335.425 254.013C334.6 253.136 333.593 252.672 332.406 252.672C331.632 252.672 330.704 252.826 329.62 253.136L330.291 248.182C331.942 248.209 333.181 247.872 334.058 247.098C334.935 246.35 335.348 245.344 335.348 244.08C335.348 243.022 335.038 242.17 334.419 241.525C333.774 240.906 332.923 240.571 331.865 240.571C330.833 240.571 329.955 240.932 329.207 241.654C328.485 242.377 328.02 243.435 327.865 244.828L322.266 243.873C322.653 241.938 323.247 240.416 324.021 239.255C324.821 238.119 325.904 237.216 327.324 236.545C328.717 235.9 330.291 235.565 332.045 235.565C335.038 235.565 337.438 236.52 339.218 238.429C340.715 240.003 341.463 241.757 341.463 243.718C341.463 246.505 339.94 248.724 336.896 250.375C338.702 250.762 340.173 251.64 341.256 253.007C342.34 254.349 342.882 256 342.882 257.909C342.882 260.696 341.876 263.07 339.837 265.031C337.799 266.991 335.27 267.972 332.252 267.972C329.362 267.972 326.988 267.146 325.105 265.495C323.195 263.844 322.111 261.677 321.802 259.019ZM311.275 246.814C311.275 244.853 310.81 243.331 309.933 242.247C309.004 241.164 307.972 240.622 306.785 240.622C305.676 240.622 304.721 241.06 303.998 241.938C303.25 242.841 302.863 244.286 302.863 246.298C302.863 248.362 303.276 249.859 304.076 250.814C304.901 251.794 305.908 252.258 307.12 252.258C308.282 252.258 309.262 251.794 310.062 250.891C310.862 249.962 311.275 248.594 311.275 246.814ZM297.497 260.102L303.405 259.457C303.534 260.644 303.921 261.547 304.515 262.114C305.134 262.682 305.934 262.966 306.914 262.966C308.179 262.966 309.236 262.398 310.114 261.237C311.017 260.076 311.559 257.702 311.817 254.064C310.269 255.819 308.359 256.722 306.089 256.722C303.586 256.722 301.418 255.767 299.612 253.832C297.806 251.897 296.903 249.394 296.903 246.298C296.903 243.099 297.858 240.493 299.767 238.532C301.676 236.545 304.128 235.564 307.069 235.564C310.295 235.564 312.926 236.829 314.99 239.306C317.055 241.809 318.087 245.885 318.087 251.588C318.087 257.393 317.003 261.573 314.861 264.153C312.72 266.707 309.933 267.997 306.45 267.997C303.999 267.997 301.986 267.326 300.464 266.01C298.916 264.695 297.935 262.734 297.497 260.102ZM155.457 257.78C155.457 259.457 155.87 260.773 156.747 261.702C157.599 262.63 158.657 263.121 159.947 263.121C161.211 263.121 162.243 262.656 163.069 261.753C163.894 260.85 164.307 259.56 164.307 257.857C164.307 256.361 163.869 255.174 163.043 254.271C162.217 253.368 161.159 252.929 159.869 252.929C158.373 252.929 157.263 253.419 156.541 254.451C155.818 255.483 155.457 256.593 155.457 257.78ZM155.999 244.182C155.999 245.395 156.36 246.349 157.031 247.02C157.728 247.691 158.631 248.052 159.792 248.052C160.927 248.052 161.856 247.691 162.553 247.02C163.249 246.324 163.585 245.369 163.585 244.182C163.585 243.021 163.249 242.118 162.553 241.421C161.882 240.75 160.953 240.389 159.843 240.389C158.682 240.389 157.753 240.751 157.057 241.447C156.36 242.144 155.999 243.047 155.999 244.182ZM154.76 250.323C153.186 249.652 152.051 248.749 151.329 247.588C150.606 246.401 150.245 245.137 150.245 243.769C150.245 241.396 151.071 239.435 152.722 237.887C154.373 236.338 156.721 235.564 159.792 235.564C162.785 235.564 165.133 236.338 166.81 237.887C168.461 239.435 169.313 241.396 169.313 243.769C169.313 245.214 168.926 246.556 168.152 247.691C167.403 248.826 166.32 249.704 164.926 250.323C166.681 251.02 168.022 252.052 168.951 253.419C169.854 254.761 170.319 256.335 170.319 258.115C170.319 261.031 169.39 263.43 167.506 265.262C165.649 267.068 163.172 267.997 160.05 267.997C157.186 267.997 154.786 267.249 152.851 265.726C150.581 263.946 149.445 261.495 149.445 258.373C149.445 256.644 149.884 255.07 150.735 253.625C151.587 252.206 152.928 251.097 154.76 250.323ZM140.44 267.429H134.377V244.517C132.158 246.581 129.526 248.129 126.507 249.135V243.614C128.107 243.072 129.81 242.091 131.694 240.646C133.551 239.201 134.816 237.499 135.512 235.563H140.44V267.429Z" fill="#D40723"/>
<path d="M346.704 46.0715C330.01 39.1049 312.388 39.4921 299.487 46.923C288.108 53.5025 280.419 65.5776 280.316 82.9422C280.135 86.5029 279.258 90.1671 277.736 93.7016L277.633 93.5726C272.008 102.887 262.59 112.176 252.063 111.402C250.18 102.009 243.988 89.2118 238.027 81.0325C244.452 81.3679 254.953 88.1021 257.25 92.953C262.513 87.2508 269.996 73.0084 268.293 61.5264C257.818 61.5264 247.626 59.0753 237.151 54.5856C237.151 61.6552 224.894 78.6328 216.38 82.4777C220.638 88.7733 224.224 102.5 224.044 114.807C217.748 119.968 209.44 120.922 202.731 120.793C197.597 112.821 190.682 106.937 190.605 96.9264C190.502 86.5542 200.745 71.615 211.788 61.9389L206.292 55.1012C199.402 57.4749 193.494 61.4484 188.282 66.6861L187.998 66.2733C181.702 57.1653 170.891 40.8067 155.177 37.0397C150.688 38.5878 144.521 48.0315 139.929 57.6812C123.003 61.1386 109.585 73.3945 104.012 83.741C98.1812 78.8644 94.0015 73.7815 93.6917 67.3308C92.866 49.7594 115.752 52.6493 126.976 57.6812L127.079 44.935C110.385 37.9684 92.7373 38.3555 79.8623 45.8122C68.4834 52.3659 60.7948 64.4411 60.6917 81.8057C60.6653 93.6489 53.3639 103.196 38.0119 108.201C44.6944 111.117 53.9054 108.898 66.1615 105.234C60.1755 113.645 52.9768 117.954 37.9861 121.205C47.3524 124.431 61.8787 123.14 75.0377 118.857C71.6319 126.262 60.3563 132.661 39.1732 135.112C57.6732 141.279 66.6008 139.292 85.6425 133.642C112.296 125.72 129.583 147.394 98.4918 154.928C90.9578 156.76 81.7202 153.38 72.4062 149.484L63.5821 160.321C75.7345 166.616 96.6085 171.544 106.516 171.364C136.963 170.771 149.528 146.697 141.943 122.496C137.092 107.066 123.442 98.0357 111.909 89.7275C122.075 75.8717 158.662 59.9266 171.666 92.2304C165.835 106.008 163.204 120.716 163.771 131.552C164.777 150.929 184.722 169.042 172.028 178.795C168.931 180.988 160.933 184.214 154.843 186.175C128.371 184.626 112.348 171.054 92.1448 170.074C76.9989 169.352 64.9495 170.693 57.1831 182.072C46.1912 198.224 56.125 225.239 80.3529 225.729C80.6112 216.131 82.9847 210.996 84.7392 207.487C77.3083 207.487 60.8983 208.751 60.8983 198.018C60.9247 192.548 65.5683 190.793 70.8576 190.664C97.3818 190.071 120.655 224.877 151.977 226.967C152.209 211.46 175.147 193.27 192.924 205.655C201.516 193.064 200.071 182.098 194.653 173.196C203.89 162.978 207.992 151.342 208.173 139.008C208.226 135.912 207.864 133.177 207.219 130.7C212.947 129.849 220.197 127.991 224.068 125.23V237.209C229.28 236.487 230.776 235.61 235.549 231.765V213.395C240.813 212.724 246.619 212.492 252.166 207.847V121.668C261.996 121.23 276.729 116.147 285.992 105.722C286.069 105.697 286.121 105.697 286.172 105.671C283.36 115.811 275.439 124.997 260.474 128.222C271.594 131.783 285.038 127.396 295.384 119.991C292.701 127.396 281.761 139.678 261.635 142.129C280.135 148.296 287.643 141.794 306.685 136.143C333.339 128.222 349.232 148.528 318.141 156.062C310.607 157.894 301.344 154.514 292.056 150.618L283.206 161.429C295.358 167.75 316.232 172.678 326.166 172.472C355.606 171.93 368.326 149.38 362.237 125.977C388.477 127.861 409.532 171.853 387.599 183.386C378.723 188.056 371.035 186.663 362.262 184.857C342.885 180.935 328.41 172.033 311.794 171.259C296.648 170.537 284.599 171.827 276.832 183.206C265.815 199.357 275.775 226.372 299.977 226.862C300.261 217.239 302.634 212.129 304.389 208.595C296.932 208.595 280.522 209.859 280.548 199.151C280.548 193.681 285.192 191.901 290.481 191.798C317.031 191.204 340.305 226.011 371.627 228.101C371.833 212.594 394.771 194.403 412.575 206.788C421.373 193.888 419.644 182.664 413.865 173.659C423.489 161.068 429.423 148.141 427.746 137.304C426.508 119.011 410.382 113.36 410.227 98.0596C410.123 87.6873 420.393 72.7482 431.41 63.0721L425.94 56.2343C419.257 58.5307 412.909 62.3236 407.491 67.2004C401.17 58.0409 390.41 41.9148 374.826 38.1735C370.311 39.7216 364.144 49.1654 359.551 58.815C342.651 62.2725 329.26 74.2185 323.687 84.565C316.901 78.8886 307.999 67.0974 316.591 58.815C323.222 52.4677 338.187 55.048 346.625 58.815L346.704 46.0715ZM357.231 110.886C350.858 100.823 339.377 93.8825 330.526 88.4384C336.409 80.4143 352.148 70.661 366.055 70.9965C386 71.4609 401.997 94.9406 382.956 109.08C378.569 112.331 371.319 112.485 357.231 110.886Z" fill="#D40723"/>
<path d="M234.678 475.144C154.127 413.968 106.549 353.336 77.9814 294.608C152.139 292.312 200.747 271.103 234.678 245.275C275.187 273.27 328.935 296.182 391.375 294.582C362.838 353.307 315.236 413.939 234.678 475.144Z" fill="black"/>
<path d="M234.678 464.311C161.71 408.889 120.632 356.097 93.6228 303.44C148.478 298.924 197.709 283.753 234.678 256.583C271.704 283.727 320.91 298.924 375.761 303.44C348.746 356.101 307.667 408.893 234.678 464.311Z" fill="#FFDC00"/>
<path d="M207.002 401.098C209.453 400.763 211.982 400.453 214.536 400.169C207.002 385.617 217.09 373.31 230.559 373.026C220.316 382.805 220.6 393.435 228.031 398.854C232.907 398.467 234.017 398.312 238.997 398.08C230.25 384.972 239.9 373.568 253.187 372.071C246.763 378.47 243.46 390.313 251.355 397.615C255.845 397.512 258.141 397.461 262.605 397.486C257.47 383.966 267.688 375.529 278.834 375.142C272.719 380.586 268.075 391.501 275.248 398.673C278.731 399.37 282.343 399.319 288.2 401.047C292.019 402.982 295.141 406.001 296.044 408.427C248.826 402.699 241.834 404.144 206.872 409.923C192.759 417.328 186.128 419.289 179.058 412.71C177.846 410.955 178.878 406.388 183.729 405.382C183.676 402.157 186.025 400.376 188.605 399.602C195.288 397.564 198.745 403.214 207.002 401.098ZM185.406 360.357C188.038 359.97 190.721 359.609 193.457 359.3C184.555 344.696 194.489 330.556 208.912 330.247C198.798 341.471 199.958 351.56 207.905 357.803C213.117 357.339 218.406 356.978 223.747 356.694C213.143 344.18 225.553 329.809 239.77 328.08C232.907 335.434 228.547 347.767 236.958 356.178C241.783 356.049 246.608 355.998 251.381 355.998C244.183 342.168 256.8 330.789 268.72 330.325C262.192 336.595 257.419 348.077 265.082 356.308C270.191 356.488 275.196 356.798 280.021 357.185C275.532 347.406 281.853 339.304 294.083 336.956C288.846 342.762 285.801 350.967 291.116 358.295C297.824 359.094 305.797 362.139 311.499 363.403C317.124 366.654 318.801 367.661 323.317 370.911C270.784 362.835 213.656 364.667 185.253 370.524C170.159 379.014 163.064 381.284 155.53 373.698C154.24 371.686 155.323 366.448 160.535 365.261C160.432 358.733 166.031 358.398 171.527 358.398C175.991 362.552 180.401 361.725 185.406 360.357ZM167.502 321.837C170.754 321.424 176.223 319.772 179.629 319.411C169.618 300.963 183.009 282.179 201.302 283.959C187.705 296.344 186.827 309.606 196.684 316.47C203.134 315.98 207.598 315.154 214.229 314.819C204.45 299.131 216.861 278.774 233.477 280.812C224.111 289.327 220.576 305.427 231.052 314.664C237.012 314.535 242.998 314.484 248.932 314.509C242.095 297.351 254.815 279.703 272.979 285.121C263.613 287.779 256.415 305.737 265.936 314.819C272.257 315.052 278.449 315.361 284.461 315.8C280.462 302.666 288.022 288.656 304.87 294.1C297.078 299.26 291.634 308.936 298.213 317.012C306.547 317.915 316.43 319.799 323.499 321.218C330.492 324.443 336.684 329.655 339.419 331.178C274.269 322.276 211.7 323.231 168.613 332.029C149.856 341.395 139.793 343.485 130.427 335.099C128.827 332.906 130.195 327.101 136.645 325.811C136.516 318.586 143.483 318.226 150.269 318.226C155.816 322.792 161.284 323.385 167.502 321.837Z" fill="black"/>
</svg>
