<svg width="512" height="512" viewBox="0 0 512 512" fill="none" xmlns="http://www.w3.org/2000/svg">
<g clip-path="url(#clip0_1_23398)">
<path d="M256.009 512.018C397.398 512.018 512.018 397.398 512.018 256.009C512.018 114.619 397.398 0 256.009 0C114.619 0 0 114.619 0 256.009C0 397.398 114.619 512.018 256.009 512.018Z" fill="#E1020C"/>
<path d="M256.009 503.66C392.783 503.66 503.66 392.783 503.66 256.009C503.66 119.235 392.783 8.35785 256.009 8.35785C119.235 8.35785 8.35787 119.235 8.35787 256.009C8.35787 392.783 119.235 503.66 256.009 503.66Z" fill="white"/>
<path d="M256.009 490.553C385.544 490.553 490.554 385.544 490.554 256.009C490.554 126.473 385.544 21.464 256.009 21.464C126.473 21.464 21.464 126.473 21.464 256.009C21.464 385.544 126.473 490.553 256.009 490.553Z" fill="#E1020C"/>
<path d="M256.009 453.04C364.826 453.04 453.04 364.826 453.04 256.009C453.04 147.192 364.826 58.9778 256.009 58.9778C147.191 58.9778 58.9777 147.192 58.9777 256.009C58.9777 364.826 147.191 453.04 256.009 453.04Z" fill="white"/>
<path d="M220.598 252.171V246.838C220.598 246.838 200.117 246.838 182.197 215.692C182.197 215.692 193.504 215.478 197.984 206.945C197.984 206.945 190.304 205.238 180.49 212.065C180.49 212.065 179.851 196.491 169.184 192.865C169.184 192.865 165.13 203.105 177.93 213.772C177.93 213.772 163.21 218.038 162.357 224.012C162.357 224.012 168.757 225.505 179.637 217.612C179.637 217.612 194.358 249.4 220.598 252.171Z" stroke="#E1020C" stroke-width="0.175216" stroke-miterlimit="10"/>
<path d="M439.268 263.894L371.853 244.693C363.32 241.707 372.28 241.28 372.28 241.28L403.001 238.72C427.321 237.44 429.881 218.239 429.881 218.239H373.987C366.307 218.239 373.133 213.119 373.133 213.119L399.16 190.506C410.68 178.559 401.72 164.051 401.72 164.051C398.733 169.171 360.76 193.919 360.76 193.919C351.373 201.599 356.919 189.652 356.919 189.652C376.12 156.799 364.173 139.305 364.173 139.305C353.079 129.065 354.359 139.305 354.359 139.305C345.399 164.479 336.866 164.479 336.866 164.479C321.932 173.012 324.065 182.826 324.065 182.826C323.639 193.066 318.092 189.226 318.092 189.226C313.399 189.226 307.212 196.479 307.212 196.479C274.571 230.399 276.446 192.222 276.446 192.222C276.446 192.222 276.491 176.852 277.131 174.932C277.771 173.012 292.278 180.266 292.492 161.705C292.492 161.705 282.038 167.892 279.265 161.279C279.265 161.279 274.571 146.985 287.158 139.732C287.158 139.732 292.492 140.372 290.998 126.719C290.998 126.719 287.158 134.399 280.331 132.905C280.331 132.905 264.758 133.332 261.985 130.772C261.985 130.772 255.158 126.079 248.544 126.719C248.544 126.719 218.251 126.719 201.611 139.732L203.318 145.919L215.478 140.159C215.478 140.159 222.731 137.386 224.011 142.079C224.011 142.079 225.931 146.773 225.931 149.759C225.931 149.759 221.664 152.959 200.758 151.039C200.758 151.039 196.278 151.466 194.358 143.786C194.358 143.786 185.824 147.839 192.651 155.519C192.651 155.519 203.531 163.413 226.785 154.666C226.785 154.666 229.985 158.933 225.932 160.853C225.932 160.853 219.286 163.649 209.292 160.853L208.865 166.186C208.865 166.186 218.038 172.8 234.038 169.599C234.038 169.599 238.731 173.439 237.025 180.266L225.291 180.053L231.478 186.88C231.478 186.88 232.545 187.306 233.398 186.88L237.878 183.679C237.878 183.679 239 189.144 238.731 192C238.731 192 237.451 230.4 204.811 196.48C204.811 196.48 198.624 189.226 193.931 189.226C193.931 189.226 188.384 193.066 187.958 182.826C187.958 182.826 190.091 173.013 175.157 164.479C175.157 164.479 166.624 164.479 157.664 139.306C157.664 139.306 158.944 129.066 147.851 139.306C147.851 139.306 135.904 156.799 155.104 189.653C155.104 189.653 160.651 201.599 151.264 193.919C151.264 193.919 113.289 169.172 110.303 164.052C110.303 164.052 101.343 178.559 112.863 190.506L138.892 213.12C138.892 213.12 145.719 218.24 138.039 218.24H82.1445C82.1445 218.24 84.7046 237.44 109.024 238.721L139.745 241.28C139.745 241.28 148.705 241.707 140.172 244.694L72.7575 263.894C72.7575 263.894 62.944 268.587 76.1709 276.268C76.1709 276.268 83.4243 283.521 112.011 279.254C112.011 279.254 127.798 278.401 157.238 266.881C157.238 266.881 167.052 262.614 159.372 269.867L96.2237 313.388C96.2237 313.388 86.7303 316.481 97.2904 323.521C97.2904 323.521 104.01 330.241 122.891 323.521C122.891 323.521 160.652 304.321 178.253 289.92C178.253 289.92 189.133 283.52 183.053 293.12C183.053 293.12 178.893 302.08 167.052 314.88L172.172 320C172.172 320 154.892 341.761 149.773 344.002L140.493 336.642C140.493 336.642 138.253 334.722 134.733 335.682C134.733 335.682 132.813 337.602 128.332 335.682C128.332 335.682 119.052 334.722 117.452 344.002C117.452 344.002 121.292 339.522 127.053 342.402L130.572 344.002C130.572 344.002 133.346 347.308 137.613 349.228C137.613 349.228 142.733 350.508 139.746 352.002L129.506 357.122C129.506 357.122 127.159 357.549 127.586 361.175C127.586 361.175 116.706 365.015 123.746 375.682C123.746 375.682 125.879 365.869 130.999 368.002C130.999 368.002 135.906 369.922 145.506 360.749C145.506 360.749 145.506 362.669 144.652 365.016C143.799 367.362 140.599 374.189 141.666 378.456H143.799C143.799 378.456 147.55 387.843 153.995 391.896C153.995 391.896 152.119 381.016 152.759 378.882L154.893 378.242C154.893 378.242 160.226 374.402 155.959 366.295C155.959 366.295 154.893 363.522 157.026 360.322L165.133 370.989C165.133 370.989 167.906 371.842 169.4 370.989L176.226 379.736C176.226 379.736 178.36 373.122 177.933 370.775L174.093 366.295C174.093 366.295 177.293 362.669 173.88 360.322L164.28 352.855C164.28 352.855 161.506 349.869 164.066 344.748L180.28 325.976L185.4 330.242C185.4 330.242 202.04 303.788 213.986 302.509C213.986 302.509 226.146 304.002 219.96 314.456C219.96 314.456 217.826 324.269 195.426 346.883C195.426 346.883 178.786 359.897 187.106 381.443L189.879 372.269C189.879 372.269 190.733 369.496 192.013 372.91C192.013 372.91 197.346 387.416 202.253 391.896V370.989C202.253 370.989 201.826 367.363 204.173 371.203L212.28 383.149C212.28 383.149 213.346 350.083 228.493 344.963C228.493 344.963 233.4 341.336 236.6 349.229C236.6 349.229 240.44 353.923 234.253 370.136L227.853 382.296C227.853 382.296 218.573 401.283 234.413 415.524C234.413 415.524 236.013 401.124 240.173 395.844C240.173 395.844 241.453 393.604 243.373 396.164C243.373 396.164 250.413 409.284 256.014 414.565C261.614 409.285 268.654 396.164 268.654 396.164C270.574 393.604 271.854 395.844 271.854 395.844C276.014 401.124 277.614 415.524 277.614 415.524C293.454 401.284 284.174 382.296 284.174 382.296L277.774 370.136C271.587 353.923 275.427 349.229 275.427 349.229C278.627 341.336 283.534 344.963 283.534 344.963C298.681 350.083 299.748 383.149 299.748 383.149L307.854 371.203C310.201 367.363 309.774 370.989 309.774 370.989V391.896C314.681 387.416 320.014 372.91 320.014 372.91C321.294 369.496 322.148 372.269 322.148 372.269L324.921 381.443C333.241 359.897 316.601 346.883 316.601 346.883C294.201 324.27 292.067 314.456 292.067 314.456C285.88 304.003 298.041 302.509 298.041 302.509C309.988 303.789 326.627 330.242 326.627 330.242L331.747 325.976L347.961 344.748C350.521 349.869 347.748 352.855 347.748 352.855L338.147 360.322C334.734 362.669 337.934 366.295 337.934 366.295L334.094 370.775C333.667 373.122 335.801 379.736 335.801 379.736L342.627 370.989C344.121 371.842 346.894 370.989 346.894 370.989L355.001 360.322C357.134 363.522 356.068 366.295 356.068 366.295C351.801 374.402 357.134 378.242 357.134 378.242L359.268 378.882C359.908 381.016 358.032 391.896 358.032 391.896C364.477 387.843 368.228 378.456 368.228 378.456H370.361C371.428 374.189 368.228 367.362 367.375 365.016C366.521 362.669 366.521 360.749 366.521 360.749C376.121 369.922 381.028 368.002 381.028 368.002C386.148 365.869 388.281 375.682 388.281 375.682C395.322 365.015 384.441 361.175 384.441 361.175C384.868 357.549 382.521 357.122 382.521 357.122L372.281 352.002C369.295 350.508 374.415 349.228 374.415 349.228C378.682 347.308 381.455 344.002 381.455 344.002L384.975 342.402C390.735 339.522 394.575 344.002 394.575 344.002C392.975 334.722 383.695 335.682 383.695 335.682C379.215 337.602 377.295 335.682 377.295 335.682C373.775 334.722 371.535 336.642 371.535 336.642L362.255 344.002C357.134 341.762 339.855 320 339.855 320L344.975 314.88C333.135 302.08 328.975 293.12 328.975 293.12C322.895 283.52 333.775 289.92 333.775 289.92C351.376 304.32 389.137 323.521 389.137 323.521C408.016 330.241 414.737 323.521 414.737 323.521C425.298 316.481 415.804 313.388 415.804 313.388L352.656 269.867C344.976 262.614 354.79 266.881 354.79 266.881C384.229 278.401 400.016 279.254 400.016 279.254C428.603 283.521 435.857 276.268 435.857 276.268C449.083 268.587 439.269 263.894 439.269 263.894L439.268 263.894ZM220.598 252.16C194.357 249.387 179.637 217.6 179.637 217.6C168.757 225.494 162.357 224 162.357 224C163.21 218.027 177.931 213.76 177.931 213.76C165.13 203.093 169.184 192.853 169.184 192.853C179.851 196.48 180.491 212.053 180.491 212.053C190.304 205.227 197.984 206.933 197.984 206.933C193.504 215.467 182.197 215.68 182.197 215.68C200.119 246.827 220.598 246.827 220.598 246.827L220.598 252.16ZM238.731 137.812C247.478 135.465 252.171 137.812 252.171 137.812L240.651 145.919C237.877 142.079 238.731 137.812 238.731 137.812ZM255.691 307.201C255.691 307.201 232.545 281.388 232.331 228.907H279.051C279.051 228.907 280.118 277.761 255.691 307.201ZM331.635 217.6C331.635 217.6 316.915 249.388 290.675 252.16V246.827C290.675 246.827 311.156 246.827 329.075 215.68C329.075 215.68 317.768 215.467 313.288 206.933C313.288 206.933 320.968 205.227 330.782 212.053C330.782 212.053 331.422 196.48 342.089 192.853C342.089 192.853 346.142 203.093 333.342 213.76C333.342 213.76 348.062 218.027 348.915 224C348.915 224 342.515 225.494 331.635 217.6Z" fill="#E1020C"/>
<path d="M253.608 273.601H268.642V279.523H244.637V239.206H267.52V245.443H253.608V255.045H267.52V261.598H253.573L253.608 273.601Z" fill="#E1020C"/>
<path d="M230.235 114.882H276.795V108.482C276.795 108.482 282.875 93.4421 287.675 89.1226L267.194 98.0827L253.754 86.4026L240.314 98.0827L219.673 89.1226C219.673 89.1226 229.913 104.803 230.233 107.683L230.235 114.882Z" fill="#E1020C"/>
</g>
<defs>
<clipPath id="clip0_1_23398">
<rect width="512" height="512" fill="white"/>
</clipPath>
</defs>
</svg>
