<svg width="512" height="512" viewBox="0 0 512 512" fill="none" xmlns="http://www.w3.org/2000/svg">
<path d="M477.958 256.651C478.055 256.477 478.035 256.389 478.137 256.195C478.644 255.135 478.977 253.854 478.977 252.538C478.977 251.514 478.767 250.464 478.27 249.455C478.009 248.927 477.553 248.543 477.169 248.113C477.589 246.909 478.219 245.071 478.219 245.071C478.363 244.482 478.439 243.898 478.439 243.324C478.439 241.178 477.42 239.176 475.602 237.926C473.21 236.282 469.983 236.328 467.576 238.044C465.707 239.242 464.406 241.424 463.172 243.596C462.383 242.756 461.569 242.202 459.884 242.622C457.773 243.145 458.045 243.544 456.324 246.033C450.219 254.925 442.116 268.922 432.785 269.404C430.767 269.163 430.147 268.574 427.725 264.769C407.555 232.635 382.767 213.603 349.947 190.233C348.036 188.599 343.873 182.12 339.837 175.856C332.881 165.024 324.989 152.747 316.999 147.129C310.904 142.719 304.39 140.373 298.1 138.11C290.489 135.364 283.278 132.773 276.815 126.596C274.233 124.066 271.903 120.67 269.209 116.737C263.729 108.737 256.727 98.9596 243.401 90.3296C243.734 88.3936 244.154 85.7661 244.154 82.56C244.154 78.6265 243.063 72.4549 241.291 69.1719C239.944 66.6726 237.828 65.218 235.841 64.7417C232.2 63.8608 226.356 65.1975 222.428 66.9594C230.197 44.0143 248.394 28.8541 257.88 21.018C263.14 16.6646 266.141 14.1805 266.141 10.8156C266.141 10.2727 266.064 9.71445 265.911 9.11009C264.533 2.91799 257.665 2.59533 254.72 2.46216L254.156 2.43143C250.146 2.329 237.332 2.76946 228.046 9.84249C225.306 10.5749 222.894 11.7017 220.707 13.0845C220.594 12.6953 220.614 12.2855 220.435 11.9014C219.314 9.48397 216.374 7.11264 211.472 7.73236C202.289 9.1357 197.116 11.5224 193.618 13.443C193.388 13.5762 192.696 14.0013 192.696 14.0013C189.485 15.9219 184.302 19.2459 180.44 26.9745C176.763 29.6941 172.655 33.858 171.093 40.1218C167.129 42.8363 163.877 47.4253 163.646 53.3511C161.198 56.2448 159.708 59.2973 159.016 62.5035C155.098 59.0669 150.437 56.7314 144.921 55.8146L144.527 55.748L144.127 55.7378C142.396 55.7071 138.801 55.6354 136.071 58.3857L135.374 59.0874L134.965 59.9837C134.545 60.9158 134.386 61.8018 134.386 62.6264C134.386 64.8288 135.564 66.5394 136.035 67.2308L136.342 67.6918C136.409 67.8608 137.305 72.1732 137.305 72.1732L137.874 76.9108C139.323 84.7111 142.668 88.7828 146.934 92.409C146.017 95.1593 145.5 97.6996 145.5 99.9173C145.5 103.687 146.499 106.775 147.38 109.485C147.38 109.485 147.61 110.217 147.769 110.724C147.82 111.159 147.861 111.62 147.861 112.173C147.861 117.531 145.787 127.969 144.179 134.14C144.173 134.161 143.549 136.189 143.549 136.189C142.335 139.953 140.168 146.729 140.168 154.192C140.168 156.881 140.445 159.662 141.157 162.422C142.565 167.134 146.191 172.768 151.241 175.185C151.431 175.267 154.079 176.328 154.079 176.328C156.619 177.285 157.387 177.577 158.473 179.319C159.4 180.773 159.795 185.434 159.795 190.299C159.795 193.9 159.585 197.613 159.216 200.215L159.17 200.574C159.17 200.574 159.165 200.963 159.165 200.973C159.165 203.59 160.824 206.003 163.298 206.976C165.434 207.826 168.665 207.708 171.308 204.845C173.034 203.088 174.514 201.142 175.825 199.063C176.169 199.575 176.245 200.271 176.732 200.696L176.957 200.896L177.208 201.065C178.12 201.7 179.201 201.936 180.286 202.023C177.024 204.241 173.049 206.745 167.697 209.946C136.916 214.802 116.506 226.008 112.675 239.744C63.7632 263.544 32.2086 313.501 32.2086 367.986C32.2086 446.675 96.2244 510.701 174.898 510.701C253.624 510.701 317.675 446.675 317.675 367.986C317.675 349.343 313.875 331.279 307.078 314.474C307.591 314.239 308.246 313.926 308.912 313.609C309.383 314.126 309.87 314.638 309.87 314.638C311.662 316.784 315.212 319.376 318.08 319.453C320.948 319.529 322.756 319.161 322.756 319.161C322.756 319.161 322.935 319.109 323.084 319.069C323.324 319.483 324.677 321.829 324.677 321.829C327.493 326.157 332.057 326.039 334.505 325.973C336.026 325.937 337.117 325.911 338.459 326.495C339.847 327.135 340.369 329.076 341.04 333.45L341.583 336.651C342.387 340.108 344.41 341.742 345.501 342.618L345.542 342.659C345.762 343.745 346.444 347.253 346.444 347.253C346.951 351.043 347.529 355.34 351.524 357.041C351.427 357 351.632 357 351.903 357.005C352.544 360.18 352.677 364.037 356.385 366.265C357.235 366.777 358.316 366.874 359.407 366.972C359.448 367.141 359.504 367.33 359.504 367.33C360.467 372.206 364.339 373.435 365.798 373.906C365.798 373.906 365.85 373.922 365.865 373.927C366.085 374.29 368.288 377.891 368.288 377.891C369.845 380.687 371.289 383.335 373.235 384.923L374.116 385.655L375.217 385.973C375.786 386.132 376.344 386.198 376.897 386.208C381.599 392.206 394.49 411.443 394.49 429.297C394.49 430.147 394.464 430.998 394.403 431.837C393.563 443.991 388.59 450.199 385.297 454.306C381.527 459.008 381.368 464.509 381.368 466.67V466.972C381.829 472.217 384.58 473.953 386.577 475.218C388.708 476.355 394.71 478.875 403.135 475.361C410.08 472.463 411.566 467.254 412.539 463.802C412.99 462.235 413.287 461.246 413.789 460.754C417 457.635 420.744 453.123 421.225 445.768C421.282 445.169 421.302 444.555 421.302 443.92C421.302 437.717 419.305 429.917 417.399 422.972C416.611 420.022 415.55 413.067 415.33 406.731C418.05 410.49 420.329 414.265 421.681 416.58L422.362 417.732C424.16 420.785 429.297 429.517 429.297 438.03C429.297 438.967 429.241 439.894 429.097 440.816C428.16 446.542 426.362 449.845 424.273 453.661C422.101 457.625 419.643 462.117 418.29 469.369C418.121 470.358 418.04 471.331 418.04 472.268C418.04 476.227 419.53 479.679 422.311 482.04C426.214 485.349 432.058 485.989 438.357 483.802C446.147 480.99 451.494 472.15 453.19 460.145C454.193 459.428 455.223 458.685 455.223 458.685C457.251 456.406 457.794 453.83 457.794 451.674C457.794 449.845 457.405 448.319 457.205 447.53C453.041 430.782 452.309 422.603 452.309 416.022C452.309 414.25 452.36 412.59 452.421 410.915L452.145 396.616C451.653 392.242 449.584 388.887 447.75 387.048C446.91 386.086 444.662 383.525 444.662 383.525C442.408 381.215 439.607 378.347 438.997 375.817C438.209 372.523 437.896 368.431 437.896 363.847C437.896 355.857 438.828 346.382 439.73 337.107C440.713 327.145 441.661 317.501 441.661 308.969C441.661 305.281 441.405 301.89 440.985 298.684C464.191 299.406 474.721 275.504 478.306 267.345L478.916 265.972C479.576 264.215 479.843 262.725 479.843 261.46C479.838 259.15 478.931 257.66 477.958 256.651ZM196.297 174.781C196.619 172.307 196.906 170.617 197.198 168.742C197.726 168.998 198.458 169.086 199.129 169.219C199.831 173.142 202.228 175.206 203.897 176.317C203.897 176.328 205.05 180.86 205.05 180.86C205.111 180.999 205.26 181.173 205.331 181.311C203.8 182.545 202.11 183.969 199.959 185.879L196.768 188.722C193.838 191.329 191.467 193.424 189.116 195.38C192.665 189.521 195.477 181.06 196.297 174.781Z" fill="white"/>
<path d="M447.576 386.839C447.643 386.89 447.684 386.997 447.735 387.054C447.894 387.238 448.334 387.74 448.334 387.74L447.576 386.839Z" fill="white"/>
<path d="M37.6837 367.986C37.6837 292.18 99.1591 230.725 174.898 230.725C250.725 230.725 312.205 292.185 312.205 367.986C312.205 443.796 250.73 505.226 174.898 505.226C99.1591 505.226 37.6837 443.796 37.6837 367.986Z" fill="#E20613"/>
<path d="M54.3036 367.986C54.3036 301.327 108.388 247.288 175.057 247.288C241.69 247.288 295.77 301.327 295.77 367.986C295.77 434.634 241.685 488.642 175.057 488.642C108.388 488.642 54.3036 434.634 54.3036 367.986Z" fill="white"/>
<path d="M63.2612 367.975C63.2612 306.239 113.331 256.185 175.057 256.185C236.753 256.185 286.817 306.239 286.817 367.975C286.817 429.717 236.753 479.746 175.057 479.746C113.331 479.746 63.2612 429.717 63.2612 367.975Z" fill="#E20613"/>
<path d="M292.492 295.837C290.182 293.455 288.113 290.223 288.113 290.223C263.365 254.366 221.941 230.75 175.001 230.75L174.755 231.058C172.937 231.427 171.057 232.564 168.46 234.033C164.286 236.22 159.887 236.369 155.579 236.589C152.122 236.369 154.524 232.077 152.414 232.789C149.976 233.46 144.604 235.314 142.278 236.779C142.058 242.09 125.986 247.631 117.321 243.447C118.345 230.725 139.462 219.693 169.69 215.134C188.537 203.903 191.201 200.968 203.605 189.977C209.173 185.029 211.733 183.001 213.536 182.632C214.335 182.289 213.777 181.798 213.127 181.772C211.426 181.05 210.637 179.877 210.007 178.53C209.014 176.44 209.675 173.961 208.266 172.65C206.612 171.513 204.573 170.689 204.363 167.938C204.261 166.54 204.164 164.322 202.151 164.164C199.344 164.256 198.33 164.855 198.012 159.083C197.869 156.563 197.961 152.491 196.65 152.384C194.76 152.199 192.901 158.525 190.868 174.074C189.388 185.383 182.663 198.177 180.332 196.553C178.094 194.602 179.984 182.929 176.553 177.731C176.02 176.794 177.659 190.535 167.293 201.122C165.869 202.663 164.64 201.757 164.65 200.968C165.044 198.105 166.427 181.49 163.119 176.41C160.517 172.23 157.705 172.01 153.613 170.238C150.232 168.614 147.446 164.322 146.463 161.05C143.728 150.422 148.553 139.134 149.485 135.513C150.391 132.02 154.11 116.23 153.177 109.649C151.672 104.634 149.367 100.081 152.686 92.3322C153.177 91.5178 153.577 90.9237 152.926 90.2425C147.974 86.4371 144.66 83.4307 143.262 75.9018C142.442 71.4613 143.118 69.4946 141.423 65.6534C140.834 64.1169 139.497 63.2462 139.958 62.2372C141.008 61.1821 142.591 61.1821 144.025 61.2078C152.23 62.5701 157.157 67.1694 160.256 72.1733C161.321 70.0631 162.181 68.7827 163.677 67.3128C163.349 62.2372 165.7 58.3908 169.07 55.0822C168.501 48.7826 172.788 44.9362 175.825 43.5534C176.302 38.1705 179.523 34.2114 184.64 30.6314C188.117 22.6621 193.249 20.0859 196.261 18.2369C199.462 16.4751 204.025 14.4059 212.153 13.1562C215.657 12.7158 216.41 14.8976 214.776 16.3931C209.495 20.6595 197.193 33.8017 192.179 48.3728C193.772 45.5457 197.603 40.7313 202.371 38.4727C205.065 31.456 211.605 27.8401 215.559 25.8938C217.869 21.6685 222.96 16.3573 230.351 14.7798C238.653 7.66069 252.21 7.85019 253.869 7.88604C256.604 8.03457 260.062 8.00384 260.615 10.5135C261.578 14.1242 220.353 35.3433 214.033 78.1246C213.803 80.0299 224.143 68.3679 234.96 70.1348C235.57 70.4012 236.041 70.8467 236.317 71.4613C241.352 82.3398 236.568 92.3322 237.787 93.0697C259.175 105.643 263.826 121.546 273.03 130.55C285.982 142.909 301.158 142.437 313.86 151.59C325.926 160.107 339.75 188.768 346.782 194.684C377.169 216.333 402.787 235.314 423.105 267.703C425.789 271.918 427.479 274.449 432.698 274.92C444.022 274.628 453.348 261.224 460.918 249.019C461.338 248.379 461.866 248.195 462.321 248.559C463.228 249.25 462.721 251.063 463.668 251.165C466.142 251.514 468.237 244.123 470.762 242.5C471.761 241.783 473.261 242.397 472.928 243.672C472.181 246.489 470.419 249.777 470.301 251.923C470.301 252.451 470.762 252.333 471.028 251.995C471.5 251.442 472.14 251.242 472.662 251.345C473.722 251.57 473.62 252.943 473.313 253.603C472.38 255.345 471.581 257.122 471.459 259.155C471.412 260.886 472.79 259.642 473.62 260.123C474.788 260.656 474.557 262.049 473.927 263.714C470.767 270.705 461.067 296.323 438.034 293.004C435.084 292.482 433.574 290.341 434.465 293.645C440.349 313.491 428.754 356.585 433.671 377.102C435.084 382.972 441.748 387.719 443.801 390.782C445.005 391.94 446.393 394.378 446.695 397.102C448.247 414.608 443.802 416.262 451.889 448.882C452.575 451.551 452.488 453.512 451.105 455.085C449.666 456.739 448.585 456.022 448.145 457.564C447.085 468.084 442.752 476.396 436.57 478.629C428.027 481.6 422.439 477.569 423.678 470.368C426.096 457.343 432.355 454.854 434.521 441.61C436.165 430.388 429.374 418.854 427.069 414.931C424.928 411.341 419.499 401.548 412.764 395.325C411.878 394.234 411.151 394.495 410.833 395.433C408.272 403.535 410.966 420.145 412.114 424.432C414.009 431.32 416.175 439.797 415.765 445.41C415.407 450.916 412.595 454.286 409.983 456.826C405.983 460.698 408.534 467.177 401.02 470.311C395.52 472.606 391.458 471.617 389.604 470.644C387.868 469.553 387.043 469.067 386.854 466.947C386.843 464.427 387.115 460.811 389.578 457.728C393.589 452.713 398.931 445.605 399.868 432.232C401.619 408.011 380.073 380.416 378.71 380.103C377.322 379.791 377.804 381.01 376.713 380.698C374.572 378.936 372.021 372.416 369.747 369.978C368.518 368.272 365.419 369.015 364.938 366.587C364.677 364.708 363.903 362.818 362.387 362.019C361.394 361.435 360.677 362.434 359.775 361.947C357.127 359.888 357.035 352.462 356.165 351.996C355.217 351.591 354.352 352.349 353.67 351.996C351.75 351.176 352.221 344.964 350.679 340.564C349.962 338.254 347.611 338.331 346.961 335.545C345.931 330.515 346.07 323.96 340.656 321.471C335.115 319.058 331.57 322.372 328.933 318.377C327.54 316.656 327.775 313.824 324.175 313.45C322.269 312.503 321.506 310.167 319.79 310.695C318.858 310.966 319.637 312.769 317.726 313.983C315.145 314.157 312.564 307.197 308.984 307.504C307.801 307.949 307.34 309.302 306.003 309.383C304.461 309.45 304.333 301.593 299.294 299.698C298.392 299.365 297.726 301.02 296.953 299.919C296.938 299.929 294.884 298.357 292.492 295.837Z" fill="#1D1D1B"/>
<path d="M292.492 295.837C290.182 293.455 288.113 290.223 288.113 290.223C263.365 254.366 221.941 230.75 175.001 230.75L174.755 231.058C172.937 231.427 171.057 232.564 168.46 234.033C164.286 236.22 159.887 236.369 155.579 236.589C152.122 236.369 154.524 232.077 152.414 232.789C149.976 233.46 144.604 235.314 142.278 236.779C142.058 242.09 125.986 247.631 117.321 243.447C118.345 230.725 139.462 219.693 169.69 215.134C188.537 203.903 191.201 200.968 203.605 189.977C209.173 185.029 211.733 183.001 213.536 182.632C214.335 182.289 213.777 181.798 213.127 181.772C211.426 181.05 210.637 179.877 210.007 178.53C209.014 176.44 209.675 173.961 208.266 172.65C206.612 171.513 204.573 170.689 204.363 167.938C204.261 166.54 204.164 164.322 202.151 164.164C199.344 164.256 198.33 164.855 198.012 159.083C197.869 156.563 197.961 152.491 196.65 152.384C194.76 152.199 192.901 158.525 190.868 174.074C189.388 185.383 182.663 198.177 180.332 196.553C178.094 194.602 179.984 182.929 176.553 177.731C176.02 176.794 177.659 190.535 167.293 201.122C165.869 202.663 164.64 201.757 164.65 200.968C165.044 198.105 166.427 181.49 163.119 176.41C160.517 172.23 157.705 172.01 153.613 170.238C150.232 168.614 147.446 164.322 146.463 161.05C143.728 150.422 148.553 139.134 149.485 135.513C150.391 132.02 154.11 116.23 153.177 109.649C151.672 104.634 149.367 100.081 152.686 92.3322C153.177 91.5178 153.577 90.9237 152.926 90.2425C147.974 86.4371 144.66 83.4307 143.262 75.9018C142.442 71.4613 143.118 69.4946 141.423 65.6534C140.834 64.1169 139.497 63.2462 139.958 62.2372C141.008 61.1821 142.591 61.1821 144.025 61.2078C152.23 62.5701 157.157 67.1694 160.256 72.1733C161.321 70.0631 162.181 68.7827 163.677 67.3128C163.349 62.2372 165.7 58.3908 169.07 55.0822C168.501 48.7826 172.788 44.9362 175.825 43.5534C176.302 38.1705 179.523 34.2114 184.64 30.6314C188.117 22.6621 193.249 20.0859 196.261 18.2369C199.462 16.4751 204.025 14.4059 212.153 13.1562C215.657 12.7158 216.41 14.8976 214.776 16.3931C209.495 20.6595 197.193 33.8017 192.179 48.3728C193.772 45.5457 197.603 40.7313 202.371 38.4727C205.065 31.456 211.605 27.8401 215.559 25.8938C217.869 21.6685 222.96 16.3573 230.351 14.7798C238.653 7.66069 252.21 7.85019 253.869 7.88604C256.604 8.03457 260.062 8.00384 260.615 10.5135C261.578 14.1242 220.353 35.3433 214.033 78.1246C213.803 80.0299 224.143 68.3678 234.96 70.1348C235.57 70.4012 236.041 70.8467 236.317 71.4613C241.352 82.3398 236.568 92.3322 237.787 93.0697C259.175 105.643 263.826 121.546 273.03 130.55C285.982 142.909 301.158 142.437 313.86 151.59C325.926 160.107 339.75 188.768 346.782 194.684C377.169 216.333 402.787 235.314 423.105 267.703C425.789 271.918 427.479 274.449 432.698 274.92C444.022 274.628 453.348 261.224 460.918 249.019C461.338 248.379 461.866 248.195 462.321 248.558C463.228 249.25 462.721 251.063 463.668 251.165C466.142 251.514 468.237 244.123 470.762 242.5C471.761 241.783 473.261 242.397 472.928 243.672C472.181 246.489 470.419 249.777 470.301 251.923C470.301 252.451 470.762 252.333 471.028 251.995C471.5 251.442 472.14 251.242 472.662 251.345C473.722 251.57 473.62 252.943 473.313 253.603C472.38 255.345 471.581 257.122 471.459 259.155C471.412 260.886 472.79 259.642 473.62 260.123C474.788 260.656 474.557 262.049 473.927 263.714C470.767 270.705 461.067 296.323 438.034 293.004C435.084 292.482 433.574 290.341 434.465 293.645C440.349 313.491 428.754 356.585 433.671 377.102C435.084 382.972 441.748 387.719 443.801 390.782C445.005 391.94 446.393 394.378 446.695 397.102C448.247 414.608 443.802 416.262 451.889 448.882C452.575 451.551 452.488 453.512 451.105 455.085C449.666 456.739 448.585 456.022 448.145 457.564C447.084 468.084 442.752 476.396 436.57 478.629C428.027 481.6 422.439 477.569 423.678 470.368C426.096 457.343 432.355 454.854 434.521 441.61C436.165 430.388 429.374 418.854 427.069 414.931C424.928 411.341 419.499 401.548 412.764 395.325C411.878 394.234 411.151 394.495 410.833 395.433C408.272 403.535 410.966 420.145 412.114 424.432C414.009 431.32 416.175 439.797 415.765 445.41C415.407 450.916 412.595 454.286 409.983 456.826C405.983 460.698 408.534 467.177 401.02 470.311C395.52 472.606 391.458 471.617 389.604 470.644C387.868 469.553 387.043 469.067 386.854 466.947C386.843 464.427 387.115 460.811 389.578 457.728C393.589 452.713 398.931 445.605 399.868 432.232C401.619 408.011 380.073 380.416 378.71 380.103C377.322 379.791 377.804 381.01 376.713 380.698C374.572 378.936 372.021 372.416 369.747 369.978C368.518 368.272 365.419 369.015 364.938 366.587C364.677 364.708 363.903 362.818 362.387 362.019C361.394 361.435 360.677 362.434 359.775 361.947C357.127 359.888 357.035 352.462 356.165 351.996C355.217 351.591 354.351 352.349 353.67 351.996C351.75 351.176 352.221 344.964 350.679 340.564C349.962 338.254 347.611 338.331 346.961 335.545C345.931 330.515 346.07 323.96 340.656 321.471C335.114 319.058 331.57 322.372 328.933 318.377C327.54 316.656 327.775 313.824 324.175 313.45C322.269 312.503 321.506 310.167 319.79 310.695C318.858 310.966 319.637 312.769 317.726 313.983C315.145 314.157 312.564 307.197 308.984 307.504C307.801 307.949 307.34 309.302 306.003 309.383C304.461 309.45 304.333 301.593 299.294 299.698C298.392 299.365 297.726 301.02 296.953 299.919C296.938 299.929 294.884 298.357 292.492 295.837Z" stroke="#1D1D1B" stroke-width="0.650452"/>
<path d="M171.247 57.4381C173.408 54.7339 177.767 53.4893 177.577 52.6289C177.198 51.835 175.58 52.5469 174.366 52.6289C173.859 52.7057 173.167 52.5828 173.249 51.9836C175.288 44.8337 182.268 43.5533 184.389 41.2895C184.635 40.8491 184.389 40.8491 183.841 40.5417C182.735 40.4957 180.968 41.7044 180.968 40.6544C181.797 33.5302 190.473 30.1038 192.107 29.5404C192.527 29.1665 192.148 28.6748 191.605 28.5878C190.868 28.6748 190.263 29.1307 190.166 28.219C191.006 24.6851 195.718 21.8579 198.76 20.347C201.859 19.0768 207.989 17.1921 207.989 18.1293C207.989 18.5032 203.18 20.8387 201.587 23.2151C200.271 25.1716 199.068 26.452 198.97 29.5404C194.038 31.9578 191.605 37.4124 191.277 42.6109C187.785 44.4086 185.106 50.739 186.253 53.3459C182.233 57.2589 180.251 62.8978 180.471 68.5624C171.759 79.9581 174.34 84.3013 183.943 87.8353C185.362 88.286 186.714 88.373 186.986 87.6867C187.324 87.0055 186.156 86.5907 185.726 85.6073C180.501 73.9709 187.083 68.1424 196.276 64.2244C196.998 63.8812 196.455 63.0617 195.375 63.0873C192.896 63.0617 190.668 63.702 190.356 62.8978C189.014 59.0976 198.888 51.2256 203.749 49.73C205.813 49.1206 204.942 48.0757 204.092 48.2243C202.791 48.1065 200.778 48.8593 200.128 47.1641C201.367 42.8721 213.203 37.1871 214.945 36.1678C216.015 35.4918 216.466 34.2728 211.232 35.3433C210.74 35.4098 210.202 35.4098 210.433 34.6979C211.421 31.6044 222.494 27.2766 228.128 25.3201C229.019 24.9053 229.27 23.5224 226.617 24.0397C225.659 24.1883 223.897 24.8285 223.554 24.1165C223.897 19.9321 236.133 16.7055 240.502 15.7477C241.49 15.42 241.675 14.8566 240.814 14.4366C239.421 14.0166 237.219 15.1127 238.059 13.653C241.352 11.5736 250.064 11.5428 253.091 12.0345C253.926 12.1831 254.126 12.3726 254.213 12.5518C253.265 14.7439 238.627 19.0307 236.814 27.84C232.425 29.6531 228.133 33.8324 227.631 37.4124C225.321 38.657 220.701 42.4573 220.43 47.6967C217.91 49.5764 211.298 55.4458 213.5 62.5701C209.966 65.8787 207.237 69.2692 207.375 78.565C207.426 81.7661 203.267 86.9697 198.975 88.1733C197.762 88.6599 198.243 89.6381 199.114 89.8686C206.304 91.9889 212.988 88.0862 215.6 85.6073C223.903 77.7046 229.434 74.8467 233.163 74.3858C233.844 74.2014 233.844 74.6931 233.956 75.0721C234.484 77.1463 235.775 82.1861 233.977 89.2591C231.616 98.1093 224.84 102.217 222.919 104.634C222.581 104.972 223.872 108.737 223.18 110.663C222.402 113.1 223.283 114.616 224.184 114.985C226.632 115.892 228.374 106.739 229.844 106.97C231.022 107.036 230.822 109.034 232.235 109.756C232.983 110.017 234.074 109.792 234.207 108.957C234.387 106.401 235.334 100.148 235.954 99.4768C236.405 98.9134 237.798 101.741 237.874 103.461C237.977 110.586 233.977 116.64 236.328 121.546C236.845 122.601 238.028 122.514 238.848 121.736C240.999 119.431 242.469 111.072 247.247 110.017C253.69 108.588 260.062 126.248 255.524 130.96C253.321 132.834 250.551 131.18 247.821 132.696C244.881 134.417 245.127 140.973 243.119 143.687C241.926 144.886 240.507 145.085 237.746 145.306C231.903 145.756 233.685 162.443 234.586 165.418C235.165 167.185 236.405 166.842 237.224 166.243C238.064 165.531 238.704 162.099 238.878 158.893C239.119 157.879 240.886 157.475 242.156 156.23C243.529 155.165 242.807 154.002 243.636 152.957C244.83 151.631 245.997 152.799 246.971 151.318C249.49 149.229 247.698 145.941 249.731 144.558C252.722 142.591 255.38 143.569 258.023 140.676C259.636 138.873 259.846 135.062 262.126 134.417C274.218 134.125 286.254 148.056 288.313 152.199C294.295 164.578 284.722 183.267 291.258 186.847C299.493 191.631 297.716 200.927 296.81 203.262C295.032 208.005 281.854 214.038 280.154 225.024C279.304 235.575 284.804 233.388 285.199 232.077C285.619 230.75 285.987 229.024 286.638 227.708C287.155 226.54 288.769 227.053 288.958 228.19C289.27 229.173 291.529 231.995 294.874 225.782C296.984 221.834 302.669 216.743 306.93 213.808C311.114 210.837 312.118 201.536 312.851 199.416C313.393 197.582 314.935 197.582 315.166 195.616C315.324 193.582 311.504 186.847 313.778 182.018C314.838 180.409 317.388 179.267 319.299 181.49C321.296 183.8 318.059 191.37 321.68 191.544C324.769 191.631 325.112 188.005 327.78 188.241C330.505 188.768 325.593 198.75 328.292 200.292C329.942 200.963 332.011 200.174 332.851 201.823C333.614 204.579 328.687 209.593 332.938 209.593C377.983 208.799 394.439 244.241 391.54 250.71C390.193 253.168 384.764 249.506 383.98 251.99C379.868 265.859 389.158 276.359 391.852 278.172C392.641 278.623 394.06 277.982 393.952 276.246C393.502 272.292 391.304 270.177 391.745 266.264C392.508 259.375 407.893 263.626 408.677 268.871C408.979 270.838 409.087 272.441 410.818 274.1C413.01 276.169 418.26 273.834 418.772 278.418C419.438 287.324 408.339 287.837 400.657 293.347C396.995 296.164 397.824 298.131 400.923 299.14C404.621 300.123 410.526 299.068 413.507 303.442C417.748 309.511 412.18 322.193 411.863 327.54C411.545 332.969 421.266 348.815 421.466 356.913C422.168 360.948 419.387 363.13 415.955 359.806C412.641 356.344 409.184 351.002 406.613 346.997C405.86 345.737 403.899 345.645 403.94 348.247C403.899 355.253 437.097 398.449 437.937 405.527C438.69 409.261 436.626 412.416 437.507 416.037C437.799 417.097 439.151 416.488 439.269 417.338C439.448 419.74 437.005 423.376 440.478 425.113C442.198 429.86 440.478 431.837 441.379 435.771C441.83 439.689 443.679 445.113 444.099 449.072C443.161 460.217 438.89 464.555 435.489 466.214C432.565 467.679 431.351 465.046 431.617 462.772C432.39 456.032 439.863 444.073 436.882 430.593C429.22 395.934 392.124 371.34 385.937 358.162C383.945 353.189 376.831 352.636 376.421 346.797C375.709 344.912 373.839 345.476 372.257 343.745C370.915 342.229 370.966 337.681 369.522 334.352C369.102 333.307 367.801 333.829 366.848 332.825C361.578 325.885 362.7 291.995 357.998 287.365C354.531 285.429 351.837 290.817 347.519 291.268C344.216 291.606 338.756 283.401 336.753 285.47C335.135 287.094 335.826 291.268 335.965 291.919C336.134 292.487 336.953 295.386 335.832 295.386C334.828 295.427 333.378 293.353 329.189 291.652C326.403 290.643 323.76 291.652 322.469 290.822C319.611 287.739 322.566 281.265 317.778 279.417C316.431 278.894 316.19 275.468 315.509 274.105C314.848 273.132 313.475 273.204 312.856 272.446C311.55 270.489 310.638 268.082 310.064 265.327C309.568 263.437 305.204 265.788 304.856 262.807C304.436 260.809 302.095 260.18 300.287 259.867C298.069 259.606 299.007 254.751 297.086 253.957C296.267 253.583 295.959 254.525 295.099 254.085C294.218 252.984 294.382 251.934 293.265 251.14C292.308 250.494 291.386 251.58 290.694 250.802C287.903 247.411 290.121 241.716 288.666 240.031C287.708 238.981 286.059 240.149 284.605 238.894C283.191 237.813 282.961 236.031 282.11 235.775C279.631 235.734 278.761 235.283 277.742 234.038C273.224 227.718 273.731 220.44 272.185 217.849C271.17 216.148 269.649 215.093 268.512 218.294C266.238 223.795 266.479 244.318 259.893 247.109C254.827 249.598 250.3 240.861 247.805 239.309C246.684 238.715 246.484 240.558 245.685 240.635C243.375 239.729 243.892 236.983 242.023 235.893C240.21 235.099 240.983 237.66 239.944 237.434C238.141 235.775 238.141 231.334 236.543 230.546C235.252 230.049 234.489 231.56 233.752 230.919C231.15 228.661 232.968 223.611 229.828 222.023C228.466 221.583 228.666 223.877 227.267 223.227C225.926 222.74 226.156 215.585 221.977 216.271C221.357 216.338 221.557 215.36 221.127 214.991C219.887 214.832 219.027 216.558 217.736 215.442C215.974 213.111 214.622 211.974 213.485 211.099C211.723 209.603 209.111 211.488 206.94 209.869C199.298 206.51 181.787 219.882 173.895 227.718C171.016 225.035 167.134 227.862 163.866 228.2C162.688 228.471 159.006 228.312 161.894 224.333C169.055 216.753 174.289 217.127 187.774 207.488C197.639 200.261 206.479 193.219 209.659 191.144C212.281 189.792 216.456 188.655 219.954 193.265C224.886 199.698 235.903 210.504 240.594 212.62C250.233 216.794 250.714 209.408 251.898 206.848C252.927 204.256 253.567 206.402 253.506 208.855C253.48 210.463 254.079 212.717 255.391 212.942C258.038 213.255 258.064 211.257 258.448 209.977C261.46 198.115 273.127 183.851 277.742 186.781C281.117 188.932 283.114 188.932 283.918 184.86C284.794 179.621 280.753 174.811 279.662 169.301C278.535 162.904 279.232 154.504 276.794 153.341C275.375 152.732 273.414 154.12 272.313 155.672C270.843 157.633 270.843 159.703 270.336 162.079C270.095 163.39 264.773 164.829 264.179 171.723C264.123 172.963 262.11 170.473 260.661 171.723C257.7 173.972 258.233 185.162 257.28 185.803C256.174 185.91 254.843 184.671 254.397 186.284C254.638 188.097 253.634 192.461 252.768 192.804C252.036 193.024 251.268 192.133 250.233 192.732C247.682 194.873 248.712 197.844 246.254 200.676C244.753 202.525 243.723 201.229 243.554 199.611C243.191 196.85 240.983 192.691 239.042 190.73C233.357 184.86 236.871 175.068 228.84 170.996C226.427 169.797 226.289 168.624 226.018 166.453C225.926 164.071 224.558 162.422 223.319 162.11C221.106 161.47 220.727 160.266 220.635 158.714C220.835 154.54 217.726 154.361 216.061 154.012C212.143 153.633 212.01 152.886 213.244 143.088C213.603 140.727 213.623 138.002 212.86 135.784C210.812 132.763 206.32 134.693 206.94 129.761C207.411 126.519 213.214 122.304 215.692 119.636C217.193 117.946 218.156 113.572 212.973 114.627C201.208 117.756 191.825 138.606 189.613 142.601C181.106 158.197 173.705 164.414 166.786 166.817C163.549 167.948 152.343 168.993 150.048 158.012C148.87 152.24 150.289 146.816 152.911 137.787C164.276 98.2835 151.579 105.807 157.792 92.6548C161.792 88.1835 167.477 88.793 173.239 88.0965C174.514 87.9275 174.058 86.268 173.746 85.7764C173.516 85.3205 172.179 84.7571 170.407 84.4294C168.645 84.1272 164.865 80.7725 164.532 77.1566C164.204 73.1924 166.755 70.7442 168.445 69.0234C170.857 66.6418 172.594 66.3806 172.635 65.8633C172.486 63.748 168.046 66.7135 167.656 65.8633C166.724 62.5701 169.444 59.5585 171.247 57.4381Z" fill="white"/>
<path d="M158.97 78.0068C158.822 79.4358 158.822 81.6586 160.732 86.2578C158.822 86.5242 157.659 88.2092 155.984 87.2822C150.755 84.4192 147.82 79.0977 146.125 73.7097C145.029 70.6214 145.136 66.944 143.41 64.1527C152.455 64.7571 159.078 76.9466 158.97 78.0068Z" fill="white"/>
<path d="M231.959 79.4358C232.44 79.2924 232.609 79.6201 232.609 79.8148C232.23 86.2578 225.398 99.1388 216.502 101.433C215.984 101.541 215.652 101.474 215.472 100.983C214.663 96.5012 217.485 88.8904 224.717 86.1093C228.297 84.7162 229.987 82.3346 231.959 79.4358Z" fill="#1D1D1B"/>
<path d="M202.018 104.742C202.438 106.396 202.125 106.514 200.717 105.572C196.066 100.706 192.102 101.956 189.285 103.431C187.913 103.994 187.493 103.953 187.892 102.709C192.174 96.1632 199.979 99.4001 202.018 104.742Z" fill="#1D1D1B"/>
<path d="M177.864 105.643C180.21 109.003 179.19 114.238 177.157 118.156C175.549 121.162 172.906 125.992 171.877 128.102C171.447 129.362 170.525 129.449 169.756 129.106C168.988 128.957 172.604 122.929 173.633 115.866C174.048 112.967 173.275 108.737 175.39 105.572C176.117 104.522 177.198 104.865 177.864 105.643Z" fill="#1D1D1B"/>
<path d="M197.536 108.809C199.237 112.737 195.078 114.657 192.645 115.134C190.945 115.441 189.664 114.955 188.225 114.017C187.421 113.444 187.851 113.029 187.221 112.737C185.92 112.655 186.233 113.485 184.829 113.812C183.861 113.935 183.779 113.485 184.43 112.506C186.012 109.874 186.873 108.02 189.475 106.97C191.902 105.986 195.447 104.972 197.536 108.809Z" fill="#1D1D1B"/>
<path d="M183.902 125.305C185.926 133.183 184.435 136.23 182.622 138.11C181.951 138.719 177.715 139.477 177.162 134.048C179.278 131.492 180.579 127.61 181.849 124.855C182.735 123.088 183.293 122.97 183.902 125.305Z" fill="#1D1D1B"/>
<path d="M168.204 147.078C167.288 152.02 165.265 154.53 161.751 155.318C157.659 155.815 155.917 151.288 156.44 151.318C160.425 152.046 164.635 149.777 167.144 146.545C167.743 145.69 168.358 146.284 168.204 147.078Z" fill="#1D1D1B"/>
<path d="M369.02 223.606C371.279 224.328 372.221 226.648 371.438 227.969C370.5 230.115 368.58 231.585 368.544 233.649C368.503 235.386 368.201 236.441 366.813 236.891C364.272 237.158 362.792 231.877 360.518 235.544C359.279 237.424 356.718 236.138 356.38 235.088C355.929 233.465 354.956 231.811 353.322 231.739C348.016 231.585 346.71 223.288 347.56 221.045C351.637 211.431 361.691 221.07 369.02 223.606Z" fill="#1D1D1B"/>
<path d="M160.511 222.013C157.72 224.092 155.84 226.725 154.299 229.593C150.96 230.115 145.551 232.374 141.689 234.11C140.265 234.858 134.831 235.273 129.93 235.841C129.182 235.77 129.003 235.314 129.003 234.715C128.609 230.986 151.666 221.572 160.511 220.661C161.316 220.661 161.802 221.045 160.511 222.013Z" fill="white"/>
<path d="M464.79 269.701C465.517 271.58 463.525 273.952 461.456 276.246C459.412 278.623 450.608 284.835 443.269 284.492C441.235 284.19 439.038 281.957 439.724 279.263C440.436 276.963 447.52 276.364 452.959 274.479C456.933 273.122 458.813 272.287 461.952 269.88C463.929 268.384 464.385 269.276 464.79 269.701Z" fill="white"/>
<path d="M402.162 407.187C403.499 407.233 403.31 406.777 404.462 407.187C405.491 407.233 405.466 411.673 405.322 413.963C405.071 415.392 404.739 417.809 406.249 418.905C407.602 420.068 404.462 424.329 406.731 426.393C407.981 428.124 405.328 432.667 407.361 435.172C408.344 435.172 409.102 435.458 409.614 436.283C408.754 441.538 411.105 449.825 410.28 452.222C407.981 455.837 406.249 455.474 404.283 461.425C401.328 467.177 392.969 463.592 394.608 458.941C400.513 448.954 402.685 437.835 402.992 432.985C403.975 420.38 397.338 400.334 396.6 397.543C396.447 395.023 396.979 393.512 398.977 395.771C401.901 400.37 400.841 406.92 402.162 407.187Z" fill="white"/>
<path d="M186.842 300.006L186.571 301.214C186.571 301.214 180.179 291.693 178.837 289.691C178.612 292.482 175.579 329.947 175.579 329.947H174.54C174.54 329.947 171.59 292.492 171.369 289.691C170.028 291.693 163.615 301.214 163.615 301.214C163.615 301.214 150.366 240.205 149.413 235.8C148.45 240.205 135.2 301.214 135.2 301.214C135.2 301.214 128.793 291.683 127.446 289.691C127.21 292.635 113.822 460.8 113.822 460.8C113.822 460.8 113.822 460.913 113.817 461.005C131.999 473 153.147 479.346 175.001 479.346H175.16C197.039 479.346 218.197 473 236.353 460.995V460.765C236.353 460.765 224.107 306.479 222.781 289.691C221.429 291.693 215.027 301.214 215.027 301.214C215.027 301.214 201.741 240.19 200.783 235.795C199.831 240.195 186.842 300.006 186.842 300.006Z" fill="white"/>
<path d="M236.881 460.77L223.175 288.144L215.283 299.893L200.778 233.316L186.325 299.893L178.437 288.144L175.057 329.906L171.774 288.144L163.877 299.893L149.408 233.316L134.939 299.893L127.041 288.144L113.29 460.77V461.302C130.954 473.021 152.225 479.869 175.001 479.869H175.16C198.007 479.869 219.237 473.021 236.881 461.302V460.77Z" fill="#1D1D1B"/>
<path d="M70.0835 424.134L291.693 361.86L274.075 300.917L56.6289 362.075L70.0835 424.134Z" fill="white"/>
<path d="M95.9425 375.33L97.5353 358.459L126.048 349.599L121.023 403.284L101.1 408.841L104.501 372.36L95.9425 375.33Z" fill="#E20613"/>
<path d="M150.698 387.161C150.186 392.728 144.286 397.466 138.964 399.089C133.541 400.493 128.316 398.946 128.839 393.328C129.372 387.494 135.277 382.587 140.634 381.194C145.95 379.668 151.21 381.404 150.698 387.161Z" fill="#E20613"/>
<path d="M200.778 328.528L199.411 344.021L182.571 348.631L182.089 354.28L196.86 350.178L195.508 364.001L180.778 368.18L178.985 386.961L158.745 392.662L163.83 338.992L200.778 328.528Z" fill="#E20613"/>
<path d="M248.374 336.462C245.424 334.48 241.592 333.179 237.039 334.434C231.016 336.134 225.654 342.085 225.085 347.95C224.548 353.804 229.336 356.918 235.329 355.222C239.959 353.947 243.8 351.012 247.313 347.007L244.824 367.248C241.49 369.65 233.951 372.37 230.366 373.379C214.581 377.794 203.369 369.384 204.809 354.132C206.258 338.464 220.163 322.382 236.399 317.783C240.911 316.508 245.5 315.944 249.654 316.282L248.374 336.462Z" fill="#E20613"/>
<path d="M161.315 407.904C161.111 410.04 159.6 412.104 157.95 412.723C156.373 413.102 155.241 411.673 155.4 409.517C155.502 407.33 157.003 405.271 158.632 404.938C160.291 404.288 161.495 405.768 161.315 407.904ZM169.894 405.425C169.746 407.602 168.255 409.671 166.606 410.229C164.957 410.762 163.871 409.261 164.025 407.187C164.24 405.036 165.623 402.972 167.287 402.46C168.906 401.906 170.114 403.31 169.894 405.425ZM175.549 428.022C174.606 439.387 167.385 448.16 159.169 450.398C150.959 452.713 144.849 447.633 145.817 436.283C146.734 425.19 154.022 416.129 162.217 413.825C170.34 411.525 176.44 416.944 175.549 428.022ZM155.615 433.732C155.262 437.835 157.152 439.986 160.055 439.243C162.995 438.414 165.326 435.023 165.679 431.069C165.986 427.182 164.312 424.585 161.239 425.497C158.186 426.352 155.963 430.055 155.615 433.732Z" fill="white"/>
<path d="M177.48 444.652L180.44 409.292L190.186 406.664L188.194 430.639L196.358 428.36L195.416 439.766L177.48 444.652Z" fill="white"/>
<path d="M200.906 403.571L210.289 401.082L217.413 418.265H217.633C217.541 415.305 217.352 412.411 217.592 409.343L218.53 398.762L227.846 396.185L224.896 431.51L215.549 434.081L208.558 417.927L208.179 417.999C208.297 420.38 208.399 422.547 208.179 424.959L207.226 436.493L197.987 439.003L200.906 403.571Z" fill="white"/>
<path d="M122.022 425.574L131.487 422.931L129.935 438.368L130.16 438.301C130.544 436.79 131.226 435.351 131.876 433.891L137.515 421.23L148.163 418.296L138.319 437.825L146.13 453.466L134.836 456.626L131.026 447.131C130.575 445.968 129.853 444.887 129.827 443.53L129.561 443.597L128.506 458.393L119.041 460.964L122.022 425.574Z" fill="white"/>
</svg>
