<svg width="512" height="512" viewBox="0 0 512 512" fill="none" xmlns="http://www.w3.org/2000/svg">
<g clip-path="url(#clip0_1_23384)">
<path d="M256.067 0L96 256.269L256.337 512L416.674 256.269L256.067 0Z" fill="white"/>
<path d="M256.068 16.1684L106.24 256.269L256.337 495.832L406.434 256.269L256.068 16.1684Z" fill="black"/>
<path d="M256.068 54.9727L130.493 256.27L256.337 457.027L382.181 256.27L256.068 54.9727Z" fill="white"/>
<path d="M256.337 72.7579L141.541 256.269L256.337 439.242L371.132 256.269L256.337 72.7579Z" fill="black"/>
<path d="M256.337 87.0401L150.434 256.27L256.337 424.96L362.24 256.27L256.337 87.0401Z" fill="white"/>
<path d="M256.067 83.2674L224.27 130.964H288.943L256.067 83.2674ZM313.465 341.423H200.286L157.979 274.324H353.886L313.465 341.423ZM201.364 168.96H311.848L352.27 236.059H159.057L201.364 168.96ZM256.067 431.697L223.192 378.88H291.099L256.067 431.697Z" fill="black"/>
<path d="M203.251 340.615H282.745C305.651 340.615 325.592 318.787 325.592 288.876C325.592 271.899 318.047 261.659 314.004 256.27C318.585 251.419 325.322 245.221 325.322 221.238C325.322 203.992 310.771 170.577 276.817 170.577H203.251V340.615Z" fill="black"/>
<path d="M209.179 334.956H275.2C296.488 334.956 319.124 321.213 319.124 289.415C319.124 273.516 311.848 264.084 306.459 256.539C310.771 252.227 319.663 245.221 319.663 222.585C319.663 206.686 310.501 175.966 271.697 175.966H209.179V334.956Z" fill="white"/>
<path d="M214.838 329.297H270.619C295.141 329.297 313.465 316.362 313.465 286.99C313.465 272.438 303.226 259.503 298.106 256.539C302.687 253.844 314.004 246.03 314.004 225.011C314.004 208.303 305.112 181.625 269.002 181.625H214.838V329.297Z" fill="black"/>
<path d="M239.36 268.396H267.924C277.356 268.396 286.248 273.785 286.248 283.756C286.248 295.882 277.625 299.924 266.307 299.924H239.629L239.36 268.396ZM239.36 209.112H263.882C271.966 209.112 283.284 210.728 283.284 224.472C283.284 239.562 272.505 240.37 263.882 240.37H239.36V209.112Z" fill="white"/>
<path d="M245.288 214.77H263.074C268.733 214.77 276.817 215.04 276.817 224.741C276.817 234.173 269.271 234.711 263.074 234.711H245.288V214.77ZM245.827 274.055H265.229C271.427 274.055 279.511 277.558 279.511 284.295C279.511 292.918 271.697 294.265 264.151 294.265H245.827V274.055Z" fill="black"/>
</g>
<defs>
<clipPath id="clip0_1_23384">
<rect width="320.674" height="512" fill="white" transform="translate(96)"/>
</clipPath>
</defs>
</svg>
