<svg width="512" height="512" viewBox="0 0 512 512" fill="none" xmlns="http://www.w3.org/2000/svg">
<g clip-path="url(#clip0_1_23446)">
<path d="M467.355 308.8L467.255 308.073L463.096 303.663C426.013 263.409 408.547 223.745 411.189 185.771C414.547 137.373 450.427 107.693 450.78 107.405L455.678 103.483L428.579 36.4066L420.135 41.5933C419.897 41.7312 395.617 56.264 361.667 56.264C325.961 56.264 292.547 40.9166 262.341 10.6471L256.403 4.69604L250.477 10.6471C220.271 40.9156 186.858 56.264 151.151 56.264C117.061 56.264 92.9331 41.7434 92.6925 41.6058L84.236 36.369L59.4926 97.6693L57.1623 103.47L62.0232 107.391C62.374 107.692 98.2684 137.309 101.626 185.757C104.307 224.37 86.2415 264.685 47.9176 305.603L45.4998 308.221L45.7002 310.301C45.5873 311.241 58.6921 410.692 149.198 434.496C227.577 455.105 248.848 491.287 249.037 491.624L256.316 505.079L263.758 491.674C263.958 491.31 285.281 455.265 363.635 434.495C409.688 422.279 435.385 390.093 448.826 365.237C462.971 339.115 467.807 312.356 467.356 308.796" fill="white"/>
<path d="M201.377 347.544L214.231 358.318L205.486 368.717L192.62 357.955L189.438 361.738L219.205 386.657L222.387 382.873L208.781 371.485L217.539 361.074L231.132 372.462L234.314 368.679L204.559 343.76L201.377 347.544Z" fill="#1961B5"/>
<path d="M313.599 221.434L316.781 217.651L313.161 214.606L309.966 218.39L313.599 221.434Z" fill="#1961B5"/>
<path d="M261.674 298.28C263.753 295.812 265.908 294.747 271.972 299.821L265.156 307.927C259.418 303.054 259.869 300.423 261.674 298.28ZM280.403 301.062L277.284 304.77C279.288 306.649 280.14 309.393 278.198 311.698C275.993 314.329 273.525 314.93 267.712 310.057L277.534 298.381L275.755 296.902C268.877 291.139 264.38 289.886 259.393 295.812C253.342 303.004 257.777 307.915 263.878 313.026C273.074 320.719 277.334 318.326 281.03 313.928C284.7 309.568 284.989 304.97 280.403 301.062Z" fill="#1961B5"/>
<path d="M277.261 274.578C275.018 277.247 274.442 279.427 275.682 282.709L275.544 282.885L272.876 280.642L269.857 284.213C271.41 285.29 272.913 286.418 274.354 287.633L290.854 301.439L293.685 298.069L281.37 287.746C278.514 285.365 275.67 282.07 278.777 278.362C281.207 275.493 283.675 276.232 285.905 278.086L300.325 290.164L303.169 286.794L288.737 274.716C284.615 271.259 281.007 270.131 277.261 274.578Z" fill="#1961B5"/>
<path d="M319.084 225.668L339.906 243.095L342.737 239.725L321.928 222.285L319.084 225.668Z" fill="#1961B5"/>
<path d="M310.809 239.876C312.876 237.408 315.043 236.343 321.094 241.417L314.279 249.523C308.553 244.649 309.005 242.018 310.809 239.876ZM329.538 242.67L326.419 246.366C328.423 248.245 329.275 251.001 327.333 253.294C325.128 255.938 322.66 256.526 316.835 251.665L326.669 239.977L324.89 238.498C318.013 232.735 313.502 231.482 308.528 237.408C302.477 244.612 306.912 249.523 313.013 254.622C322.209 262.327 326.469 259.934 330.165 255.524C333.835 251.164 334.111 246.578 329.538 242.67Z" fill="#1961B5"/>
<path d="M293.907 254.79C291.626 257.496 290.975 259.613 292.265 263.008L292.127 263.171L280.501 253.436L277.67 256.807L307.424 281.725L310.268 278.355L298.016 268.107C294.52 265.175 292.528 262.031 295.36 258.661C297.778 255.779 300.284 256.481 302.839 258.611L316.946 270.412L319.777 267.042L305.019 254.689C300.321 250.755 296.888 251.244 293.907 254.79Z" fill="#1961B5"/>
<path d="M341.791 197.861C340.2 199.753 339.06 202.02 340.313 205.04C337.769 204.238 335.151 205.754 333.56 207.646C331.518 210.076 330.816 212.506 332.207 215.35L332.132 215.438L329.538 213.258L326.531 216.841C328.072 217.919 329.588 219.046 331.029 220.261L347.516 234.068L350.36 230.685L336.341 218.959C335.564 218.295 334.462 217.104 333.948 215.613C333.585 214.473 334.136 212.556 335 211.529C337.281 208.811 339.711 209.863 341.803 211.617L356.236 223.694L359.08 220.324L345.061 208.585C344.271 207.933 342.355 206.042 342.355 204.363C342.38 202.847 342.643 202.434 343.72 201.168C346 198.45 348.418 199.489 350.523 201.256L364.956 213.333L367.787 209.963L351.964 196.708C347.053 192.599 343.62 195.681 341.791 197.861Z" fill="#1961B5"/>
<path d="M244.322 319.737L241.766 317.594L238.246 321.791L234.701 318.822C233.009 317.406 231.994 315.515 235.252 312.145L232.821 310.103C232.32 310.528 231.944 310.904 231.355 311.606C228.825 314.6 227.158 318.258 231.368 321.779L235.402 325.162L232.709 328.369L235.265 330.511L237.958 327.304L256.224 342.589L259.056 339.218L240.802 323.921L244.322 319.737Z" fill="#1961B5"/>
<path d="M253.944 308.287L251.388 306.144L247.855 310.341L244.31 307.372C242.618 305.957 241.616 304.065 244.873 300.695L242.443 298.653C241.942 299.079 241.553 299.454 240.965 300.156C238.446 303.163 236.78 306.808 240.977 310.329L245.024 313.712L242.318 316.919L244.886 319.061L247.58 315.854L265.846 331.139L268.677 327.768L250.411 312.484L253.944 308.287Z" fill="#1961B5"/>
<path d="M242.238 354.471C239.293 357.967 236.137 356.802 229.371 351.139C223.683 346.378 223.934 343.571 226.114 340.978C228.294 338.385 231.025 337.658 236.713 342.419C243.466 348.082 245.182 350.976 242.238 354.471ZM241.123 340.088C235.022 334.977 229.409 331.469 223.358 338.673C217.294 345.864 221.741 350.775 227.843 355.887C237.039 363.579 241.298 361.186 244.994 356.789C248.702 352.379 250.319 347.781 241.123 340.088Z" fill="#1961B5"/>
<mask id="mask0_1_23446" style="mask-type:luminance" maskUnits="userSpaceOnUse" x="40" y="-1" width="434" height="516">
<path d="M40.3728 -0.0910645H473.353V514.77H40.3728V-0.0910645Z" fill="white"/>
</mask>
<g mask="url(#mask0_1_23446)">
<path d="M445.899 363.676C432.769 387.956 407.675 419.389 362.773 431.304C283.092 452.427 261.08 489.673 260.843 490.074L256.345 498.192L251.91 489.999C251.697 489.623 229.697 452.249 150.041 431.303C63.8205 408.626 49.6894 315.441 49.0383 310.38V310.367L48.9382 309.389L50.3288 307.886C89.3163 266.266 107.684 225.1 104.926 185.545C101.443 135.368 64.46 105.126 64.0976 104.825L61.1409 102.445L85.8343 41.2692L90.9585 44.4515C91.209 44.6019 116.166 59.5859 151.146 59.5859C187.754 59.5859 221.969 43.913 252.813 13.0069L256.408 9.41121L259.992 13.0069C290.837 43.9143 325.051 59.5859 361.646 59.5859C396.499 59.5859 421.605 44.5894 421.868 44.4264L426.967 41.2944L451.661 102.457L448.679 104.85C448.303 105.15 411.321 135.895 407.86 185.544C405.167 224.471 422.919 264.975 460.668 305.954L464.063 309.538C464.088 314.148 458.939 339.593 445.897 363.673M470.627 308.399L470.402 306.595L465.529 301.421C429.084 261.869 411.919 223.042 414.488 186.011C417.72 139.38 452.523 110.278 452.85 110.015L459.666 104.552L430.174 31.5359L418.41 38.7648C418.184 38.9027 394.418 52.9594 361.644 52.9594C326.865 52.9594 294.241 37.9379 264.689 8.3208L256.408 0.0146484L248.114 8.3208C218.56 37.9379 185.922 52.9594 151.146 52.9594C118.259 52.9594 94.6436 38.9277 94.4416 38.7898L82.6273 31.4862L56.4055 96.446L53.1606 104.527L59.926 109.989C60.2768 110.277 95.068 139.205 98.3137 186.011C100.92 223.645 83.1543 263.123 45.4581 303.377L42.0504 307.085L42.4011 310.631H42.4387C42.8521 315.241 46.8486 339.145 60.517 365.366C74.0978 391.412 100.345 425.088 148.354 437.719C224.578 457.764 245.951 492.944 246.111 493.22L256.272 512.013L266.621 493.358C266.834 493.007 288.22 457.928 364.481 437.719C411.675 425.203 437.985 392.265 451.753 366.832C465.748 340.948 471.272 313.274 470.633 308.399" fill="#1961B5"/>
</g>
<path d="M296.376 153.954C293.871 151.849 290.901 151.611 288.796 154.116C286.341 157.036 287.782 160.067 289.974 161.897C290.964 162.736 294.748 165.405 297.754 161.834C300.323 158.79 298.406 155.645 296.376 153.954Z" fill="#1961B5"/>
<path d="M268.858 210.465C266.265 208.285 263.07 208.912 261.241 211.092C259.236 213.472 259.587 216.717 262.017 218.759C264.949 221.202 268.144 220.162 269.798 218.195C271.263 216.466 272.078 213.159 268.858 210.465Z" fill="#1961B5"/>
<path d="M276.459 177.623C273.941 175.518 270.984 175.293 268.867 177.799C266.411 180.718 267.865 183.75 270.044 185.579C271.034 186.406 274.83 189.087 277.837 185.516C280.393 182.472 278.476 179.327 276.459 177.623Z" fill="#1961B5"/>
<path d="M249.069 200.748C247.34 202.802 247.328 205.671 249.508 207.488C251.525 209.179 254.431 209.167 256.336 206.899C258.09 204.794 258.177 201.863 255.872 199.921C253.529 197.954 250.698 198.818 249.069 200.748Z" fill="#1961B5"/>
<path d="M313.054 175.891C311.701 177.495 305.575 184.774 298.032 178.46L303.257 172.245C305.123 173.536 307.14 173.323 308.581 171.594C312.19 167.322 308.005 163.263 303.946 160.068C304.071 163.688 302.643 165.63 301.566 166.908C295.652 173.949 288.524 171.055 285.103 168.199C279.741 163.714 278.877 156.472 284.214 150.133C292.508 140.261 302.117 147.89 306.727 151.749C318.892 161.935 318.892 168.938 313.054 175.891ZM293.121 199.582C291.781 201.186 285.655 208.465 278.112 202.15L283.337 195.936C285.203 197.227 287.208 197.014 288.661 195.285C292.257 191 288.085 186.953 284.026 183.759C284.151 187.367 282.71 189.334 281.646 190.599C275.732 197.64 268.604 194.746 265.183 191.889C259.821 187.404 258.957 180.15 264.281 173.824C272.588 163.951 282.184 171.568 286.807 175.44C298.972 185.625 298.972 192.629 293.121 199.582ZM273.878 222.296C268.967 228.134 261.826 229.036 257.203 225.165C254.985 223.298 254.096 221.093 253.946 218.863C253.758 216.32 254.459 214.653 254.986 213.275C253.319 214.34 248.721 217.297 244.274 213.563C240.766 210.632 238.686 203.916 244.574 196.926C249.41 191.162 256.063 189.935 260.561 193.693C264.018 196.6 264.131 201.311 262.127 204.618C263.43 203.741 265.547 202.212 268.967 202.488C271.21 202.676 272.964 203.591 274.367 204.768C279.641 209.178 278.614 216.67 273.878 222.296ZM256.501 242.04L234.113 223.297C234.026 225.252 233.499 228.885 232.146 233.082L226.421 228.284C227.511 224.638 228.212 220.879 228.488 217.046L232.948 211.734L261.725 235.826L256.501 242.04ZM226.96 278.497C221.259 285.287 216.661 287.404 212.389 287.818C206.325 288.419 201.064 285.061 197.931 282.443C187.382 273.61 187.27 262.298 194.849 253.29C198.057 249.468 202.454 246.412 207.102 246.311C211.036 246.236 213.479 248.078 215.133 249.381L209.558 256.008C208.743 255.394 207.641 254.542 205.862 254.317C202.842 253.891 200.537 255.958 199.36 257.349C193.271 264.59 198.821 271.694 203.406 275.527C205.423 277.219 209.295 279.962 213.479 279.749C216.373 279.649 218.941 278.434 221.911 274.901C224.504 271.819 225.03 270.429 225.419 269.564L219.155 264.315L214.306 270.078L209.357 265.931L219.568 253.803L234.452 266.257C233.512 268.624 231.983 272.533 226.96 278.497ZM199.573 311.147C189.988 322.535 182.584 316.484 179.665 314.103L185.128 307.614C186.531 308.779 190.715 312.412 195.313 306.95C198.22 303.492 198.395 299.934 195.889 297.829C193.246 295.611 191.242 297.09 187.145 300.109C179.427 305.709 174.065 307.814 168.916 303.492C164.017 299.383 162.627 292.266 169.58 283.998C172.173 280.916 175.944 277.846 180.617 277.972C184.188 278.085 186.568 280.076 187.558 280.903L182.409 287.042C181.306 286.253 177.523 283.66 173.827 288.057C171.334 291.014 171.321 294.296 173.752 296.326C176.508 298.643 178.838 296.877 183.511 293.494C189.074 289.385 194.724 285.501 200.537 290.375C205.9 294.86 206.488 302.928 199.573 311.147ZM174.767 339.223L149.91 318.413L142.469 327.258L137.52 323.124L157.791 299.019L162.739 303.166L155.298 311.999L180.154 332.808L174.767 339.223ZM424.057 50.2809L421.013 51.8219C412.757 55.9814 390.456 65.6658 361.679 65.6658C324.558 65.6658 289.878 50.3562 258.594 20.1612L256.427 18.0564L254.234 20.1612C222.963 50.3546 188.286 65.6658 151.162 65.6658C122.297 65.6658 100.045 55.9814 91.8281 51.8219L88.7838 50.2809L68.5004 100.507L70.1041 101.985C78.9115 110.066 107.889 139.972 111.022 185.111C113.854 225.865 95.4869 267.973 56.4122 310.293L55.3599 311.446L55.6354 312.974C58.0408 326.367 71.8221 387.319 126.083 415.594L427.879 59.7484L424.057 50.2809Z" fill="#1961B5"/>
</g>
<defs>
<clipPath id="clip0_1_23446">
<rect width="428.626" height="512" fill="white" transform="translate(42.0001)"/>
</clipPath>
</defs>
</svg>
