<svg width="512" height="512" viewBox="0 0 512 512" fill="none" xmlns="http://www.w3.org/2000/svg">
<g clip-path="url(#clip0_1_23715)">
<g clip-path="url(#clip1_1_23715)">
<path d="M256 12.1903C200.506 12.1903 146.673 31.1216 103.394 65.8565C60.1151 100.591 29.9808 149.051 17.9697 203.23C5.95863 257.408 12.7895 314.063 37.3338 363.834C61.8781 413.605 102.667 453.514 152.962 476.966C203.256 500.419 260.047 506.012 313.95 492.822C367.854 479.632 415.645 448.448 449.427 404.422C483.21 360.395 500.962 306.162 499.751 250.681C498.541 195.201 478.44 141.793 442.769 99.2821C472.852 138.733 488.845 187.128 488.192 236.737C487.539 286.345 470.278 334.302 439.166 372.947C408.054 411.593 364.887 438.695 316.563 449.924C268.238 461.154 217.544 455.862 172.58 434.895C127.616 413.928 90.9765 378.495 68.5162 334.258C46.0559 290.021 39.0705 239.533 48.6762 190.859C58.2818 142.186 83.9242 98.1359 121.506 65.7481C159.088 33.3604 206.442 14.5035 256 12.1903Z" fill="#52A600"/>
<path d="M195.048 97.5237C170.667 97.5237 124.343 102.4 124.343 134.095V304.762C124.343 325.454 132.563 345.298 147.194 359.93C161.825 374.561 181.67 382.781 202.362 382.781C223.054 382.781 242.898 374.561 257.53 359.93C272.161 345.298 280.381 325.454 280.381 304.762H253.562C253.562 325.454 261.782 345.298 276.413 359.93C291.044 374.561 310.889 382.781 331.581 382.781C352.273 382.781 372.117 374.561 386.749 359.93C401.38 345.298 409.6 325.454 409.6 304.762V97.5237C385.219 97.5237 338.895 102.4 338.895 134.095V302.324C338.895 305.233 336.969 308.024 333.539 310.082C330.11 312.139 325.459 313.295 320.609 313.295C315.76 313.295 311.109 312.139 307.68 310.082C304.25 308.024 302.324 305.233 302.324 302.324V138.971C277.943 138.971 231.619 143.847 231.619 175.543V302.324C231.619 305.233 229.692 308.024 226.263 310.082C222.834 312.139 218.183 313.295 213.333 313.295C208.484 313.295 203.833 312.139 200.403 310.082C196.974 308.024 195.048 305.233 195.048 302.324" fill="#52A600"/>
</g>
</g>
<defs>
<clipPath id="clip0_1_23715">
<rect width="512" height="512" fill="white"/>
</clipPath>
<clipPath id="clip1_1_23715">
<rect width="512" height="512" fill="white"/>
</clipPath>
</defs>
</svg>
