<svg width="512" height="512" viewBox="0 0 512 512" fill="none" xmlns="http://www.w3.org/2000/svg">
<path d="M66.9249 8.53333V314.283C66.9249 418.692 151.575 503.467 256.016 503.467C360.425 503.467 445.075 418.692 445.075 314.283V8.53333H66.9249Z" fill="#FFD42E"/>
<path d="M440.899 12.5851C440.899 20.6885 440.899 314.283 440.899 314.283C440.899 416.199 357.963 499.103 256.016 499.103C154.068 499.103 71.1011 416.199 71.1011 314.283C71.1011 314.283 71.1011 20.6885 71.1011 12.5851C79.2045 12.5851 432.795 12.5851 440.899 12.5851Z" fill="#BA3733"/>
<path d="M76.8358 314.283C76.8358 413.082 157.216 493.493 256.016 493.493C354.784 493.493 435.164 413.082 435.164 314.283C435.164 314.283 435.164 232.936 435.164 155.33C337.237 155.33 211.852 155.33 76.8358 155.33C76.8358 232.936 76.8358 314.283 76.8358 314.283Z" fill="#FFD42E"/>
<path d="M435.164 18.1951C416.869 18.1951 95.131 18.1951 76.8358 18.1951C76.8358 26.6103 76.8358 86.1394 76.8358 149.409C212.07 149.409 337.362 149.409 435.164 149.409C435.164 86.1394 435.164 26.6103 435.164 18.1951Z" fill="#FFD42E"/>
<path d="M430.988 22.5585C422.915 22.5585 89.1157 22.5585 81.0123 22.5585C81.0123 25.9869 81.0123 82.711 81.0123 145.357H430.988C430.988 82.711 430.988 25.9869 430.988 22.5585Z" fill="white"/>
<path d="M256.016 159.382V489.441C352.478 489.441 430.988 410.9 430.988 314.283C430.988 314.283 430.988 235.118 430.988 159.382C379.219 159.382 320.033 159.382 256.016 159.382Z" fill="white"/>
<path d="M118.226 43.4405H191.687V59.959H139.42V72.7375H189.193V88.9444H139.42V112.943H118.226V43.4405Z" fill="#BA3733"/>
<path d="M263.122 86.1394H284.315C284.471 89.5677 284.533 91.7495 284.533 92.6845C284.533 97.9829 283.754 102.346 282.165 105.151C280.388 108.58 276.929 111.073 271.817 112.32C266.675 113.566 257.823 113.878 245.201 113.878C231.954 113.878 222.542 113.878 216.901 113.255C211.291 112.943 207.052 111.696 204.216 110.45C201.66 108.891 199.759 107.333 198.481 104.84C197.234 102.658 196.424 99.5412 196.05 95.8012C195.738 92.6845 195.583 86.7627 195.583 78.6593C195.583 70.5558 195.738 64.6341 196.05 61.2057C196.362 57.4657 196.954 54.9723 197.827 52.7906C199.759 48.4272 203.686 45.6222 209.608 44.3755C215.498 43.1288 227.435 42.1938 245.356 42.1938C254.301 42.1938 260.815 42.5055 264.898 42.8171C268.981 43.4405 272.222 44.0638 274.622 45.3105C277.801 46.8688 280.014 49.0505 281.292 51.8556C282.601 54.9723 283.224 59.024 283.224 64.9457C283.224 65.2574 283.224 66.1924 283.193 68.3741H262C261.906 65.8808 261.75 64.3224 261.563 63.6991C261.376 62.7641 261.002 62.1407 260.41 61.8291C259.6 60.894 257.543 60.5824 254.27 60.2707C250.967 59.959 245.98 59.6474 239.279 59.6474C232.671 59.6474 228.09 59.959 225.534 60.2707C222.978 60.5824 221.171 60.894 220.142 61.8291C218.864 62.7641 217.992 64.6341 217.493 66.8158C217.026 69.3091 216.776 73.3609 216.776 78.6593C216.776 83.646 216.994 87.3861 217.431 89.5678C217.867 91.7495 218.709 93.3078 219.986 94.2428C221.171 95.1778 223.072 95.8012 225.659 96.1128C228.246 96.4245 232.858 96.4245 239.435 96.4245C247.538 96.4245 252.961 96.4245 255.673 96.1128C258.353 95.8012 260.192 95.1778 261.127 94.2428C262.405 93.3078 263.059 90.5028 263.122 86.1394Z" fill="#BA3733"/>
<path d="M81.0123 159.382C81.0123 235.118 81.0123 314.283 81.0123 314.283C81.0123 410.9 159.522 489.441 256.016 489.441V159.382C200.725 159.382 141.851 159.382 81.0123 159.382Z" fill="#BA3733"/>
<path d="M322.246 85.8277L335.024 59.6473H337.954L350.826 85.8277H322.246ZM354.067 43.4405H319.627L281.23 118.241H226.563V134.76H298.527L314.828 101.1H358.306L374.7 134.76H402.625L354.067 43.4405Z" fill="#BA3733"/>
<path d="M172.394 134.76H226.563V118.241H172.394V134.76Z" fill="#46714D"/>
<path d="M118.226 134.76H172.394V118.241H118.226V134.76Z" fill="#BA3733"/>
<path d="M228.308 120.111C228.308 122.605 228.308 130.397 228.308 132.89C230.396 132.89 258.447 132.89 279.578 132.89V120.111C262.872 120.111 230.77 120.111 228.308 120.111Z" fill="white"/>
<path d="M236.91 451.729C233.7 451.729 231.238 449.548 231.238 443.314C231.238 438.951 232.89 435.834 236.38 435.834C240.962 435.834 242.894 441.133 242.894 445.496C242.894 447.366 242.676 448.924 242.302 450.483C240.775 451.418 238.905 451.729 236.91 451.729ZM237.035 432.094C230.926 432.094 225.69 436.769 225.69 443.938C225.69 450.794 229.804 455.469 236.131 455.469C237.907 455.469 239.434 455.158 240.962 454.534C238.344 460.144 233.419 463.573 228.214 465.443L229.679 468.871C234.479 467.313 238.344 465.443 242.115 461.703C245.2 458.586 248.442 452.664 248.442 446.119C248.442 436.769 242.801 432.094 237.035 432.094Z" fill="white"/>
<path d="M212.974 436.769L217.368 435.211V433.029H203.063V435.211L207.426 436.769V452.976L203.063 454.223V456.404H217.368V454.223L212.974 452.976V436.769Z" fill="white"/>
<path d="M276.586 452.976C273.033 452.976 268.919 450.171 268.919 444.561C268.919 438.951 273.033 436.146 276.586 436.146C280.17 436.146 284.284 438.951 284.284 444.561C284.284 450.171 280.17 452.976 276.586 452.976ZM276.586 432.094C269.449 432.094 263.558 437.392 263.558 444.561C263.558 451.729 269.449 457.028 276.586 457.028C283.754 457.028 289.645 451.729 289.645 444.561C289.645 437.392 283.754 432.094 276.586 432.094Z" fill="#BA3733"/>
<path d="M291.92 433.029V437.392H307.254C303.576 443.003 296.938 456.404 294.912 467.001H299.462C301.301 457.963 308.065 444.561 313.238 436.457V433.029H291.92Z" fill="#BA3733"/>
<path d="M323.087 342.333L302.299 323.633C292.855 325.191 283.193 326.438 273.407 327.061L273.189 312.412C290.58 310.854 298.901 306.179 306.506 299.011C315.638 290.284 319.908 279.064 319.908 262.857C319.908 235.43 303.764 209.561 289.957 195.847C276.991 182.757 263.371 179.017 256.39 177.459H256.016H255.61C248.66 179.017 235.009 182.757 222.043 195.847C208.236 209.561 192.123 235.43 192.123 262.857C192.123 279.064 196.362 290.284 205.494 299.011C213.098 306.179 221.42 310.854 238.843 312.412L238.593 327.061C228.807 326.438 219.176 325.191 209.701 323.633L188.913 342.333L197.39 351.683C196.549 353.553 196.144 355.735 196.144 357.916C196.144 364.461 201.38 369.76 207.862 369.76C209.795 369.76 213.41 369.136 215.748 366.332C216.433 365.396 216.932 364.461 217.275 363.215C222.636 374.435 225.846 392.2 227.248 418.381L227.342 420.25H284.658L284.783 418.381C286.154 392.2 289.395 374.435 294.756 363.215C295.068 364.461 295.567 365.396 296.252 366.332C298.59 369.136 302.205 369.76 304.169 369.76C310.62 369.76 315.887 364.461 315.887 357.916C315.887 355.735 315.451 353.553 314.641 351.683L323.087 342.333Z" fill="#221F1F"/>
<path d="M259.413 308.672L271.973 301.192L256.016 291.842L240.027 301.192L252.587 308.672C253.709 308.672 254.831 308.672 256.016 308.672C257.169 308.672 258.291 308.672 259.413 308.672Z" fill="#46714D"/>
<path d="M279.266 208.314L295.224 217.976L299.805 215.171C296.657 210.184 293.291 205.821 289.863 202.081L279.266 208.314Z" fill="#46714D"/>
<path d="M216.776 291.842L209.109 296.517C213.504 300.257 218.335 303.374 225.503 305.556L232.765 301.192L216.776 291.842Z" fill="#46714D"/>
<path d="M230.677 306.802C234.697 307.737 239.341 308.049 244.889 308.361L236.38 303.374L230.677 306.802Z" fill="#46714D"/>
<path d="M267.111 308.361C272.659 308.049 277.334 307.737 281.323 306.802L275.62 303.374L267.111 308.361Z" fill="#46714D"/>
<path d="M305.602 293.712C308.844 289.972 311.244 286.232 312.864 281.245L298.87 289.66L305.602 293.712Z" fill="#46714D"/>
<path d="M314.703 252.572C313.831 246.961 312.366 241.663 310.433 236.365L298.87 243.221L314.703 252.572Z" fill="#46714D"/>
<path d="M314.984 256.935H314.828L298.87 266.285L314.391 275.635C315.171 271.895 315.545 267.532 315.545 262.857C315.545 260.987 315.389 258.805 315.202 256.935H315.14H314.984Z" fill="#46714D"/>
<path d="M279.266 301.192L286.497 305.556C293.697 303.374 298.496 300.257 302.891 296.517L295.224 291.842L279.266 301.192Z" fill="#46714D"/>
<path d="M199.167 281.245C200.787 286.232 203.156 289.972 206.397 293.712L213.13 289.66L199.167 281.245Z" fill="#46714D"/>
<path d="M269.604 186.497C264.119 184.004 259.319 182.446 256.016 181.822C252.681 182.446 247.881 184.004 242.395 186.497L256.016 194.601L269.604 186.497Z" fill="#46714D"/>
<path d="M252.369 196.783L238.562 188.679C234.261 191.172 229.648 194.601 225.129 198.964C225.004 198.964 224.88 199.276 224.786 199.276L236.38 206.133L252.369 196.783Z" fill="#46714D"/>
<path d="M275.62 206.133L287.245 199.276C287.12 199.276 286.996 198.964 286.871 198.964C282.352 194.601 277.77 191.172 273.438 188.679L259.631 196.783L275.62 206.133Z" fill="#46714D"/>
<path d="M232.765 208.314L222.168 202.081C218.74 205.821 215.343 210.184 212.226 215.171L216.776 217.976L232.765 208.314Z" fill="#46714D"/>
<path d="M197.172 256.935H197.016H196.86H196.798C196.611 258.805 196.486 260.987 196.486 262.857C196.486 267.532 196.86 271.895 197.608 275.635L213.13 266.285L197.172 256.935Z" fill="#46714D"/>
<path d="M201.567 236.365C199.634 241.663 198.169 246.961 197.328 252.572L213.13 243.221L201.567 236.365Z" fill="#46714D"/>
<path d="M210.262 218.288C209.265 219.846 208.268 221.716 207.364 223.275L213.13 219.846L210.262 218.288Z" fill="#46714D"/>
<path d="M216.776 241.04L232.765 231.69L216.776 222.028L204.403 229.508C203.873 230.443 203.405 231.69 202.938 232.936L216.776 241.04Z" fill="#46714D"/>
<path d="M240.027 254.753L256.016 264.415L271.973 254.753L256.016 245.403L240.027 254.753Z" fill="#46714D"/>
<path d="M216.776 268.467L200.819 278.129L216.776 287.479L232.765 278.129L216.776 268.467Z" fill="#46714D"/>
<path d="M220.423 289.66L236.38 299.01L252.369 289.66L236.38 280.31L220.423 289.66Z" fill="#46714D"/>
<path d="M232.765 254.753L216.776 245.403L200.819 254.753L216.776 264.415L232.765 254.753Z" fill="#46714D"/>
<path d="M252.369 219.846L236.38 210.496L220.423 219.846L236.38 229.508L252.369 219.846Z" fill="#46714D"/>
<path d="M252.369 243.221L236.38 233.871L220.423 243.221L236.38 252.572L252.369 243.221Z" fill="#46714D"/>
<path d="M256.016 268.467L240.027 278.129L256.016 287.479L271.973 278.129L256.016 268.467Z" fill="#46714D"/>
<path d="M259.631 289.66L275.62 299.01L291.577 289.66L275.62 280.31L259.631 289.66Z" fill="#46714D"/>
<path d="M259.631 243.221L275.62 252.572L291.577 243.221L275.62 233.871L259.631 243.221Z" fill="#46714D"/>
<path d="M295.224 264.415L311.181 254.753L295.224 245.403L279.266 254.753L295.224 264.415Z" fill="#46714D"/>
<path d="M279.266 278.129L295.224 287.479L311.181 278.129L295.224 268.467L279.266 278.129Z" fill="#46714D"/>
<path d="M259.631 219.846L275.62 229.508L291.577 219.846L275.62 210.496L259.631 219.846Z" fill="#46714D"/>
<path d="M271.973 208.314L256.016 198.964L240.027 208.314L256.016 217.976L271.973 208.314Z" fill="#46714D"/>
<path d="M304.667 223.275C303.732 221.716 302.766 219.846 301.738 218.288L298.87 219.846L304.667 223.275Z" fill="#46714D"/>
<path d="M295.224 222.028L279.266 231.69L295.224 241.04L309.062 232.936C308.625 231.69 308.127 230.443 307.628 229.508L295.224 222.028Z" fill="#46714D"/>
<path d="M220.423 266.285L236.38 275.947L252.369 266.285L236.38 256.935L220.423 266.285Z" fill="#46714D"/>
<path d="M256.016 222.028L240.027 231.69L256.016 241.04L271.973 231.69L256.016 222.028Z" fill="#46714D"/>
<path d="M291.577 266.285L275.62 256.935L259.631 266.285L275.62 275.947L291.577 266.285Z" fill="#46714D"/>
<path d="M220.329 340.463H238.406L238.562 330.801C229.181 330.178 219.924 329.243 210.854 327.373C204.06 333.606 198.076 339.216 194.18 342.644L199.354 348.255C203.218 343.268 210.48 340.463 220.329 340.463Z" fill="#FFD42E"/>
<path d="M301.145 327.373C292.076 328.931 282.85 330.178 273.469 330.801L273.625 340.463H274.03H291.671C301.519 340.463 308.781 343.268 312.677 348.255L317.82 342.644C313.924 339.216 307.94 333.606 301.145 327.373Z" fill="#FFD42E"/>
<path d="M256.016 340.775H242.115L242.551 312.724C246.572 313.036 251.029 313.036 256.016 313.036C261.002 313.036 265.459 313.036 269.48 312.724L269.916 340.775H256.016Z" fill="#FFD42E"/>
<path d="M215.779 344.203C205.587 345.45 199.852 350.436 199.852 357.916C199.852 362.28 203.437 366.02 207.862 366.02C209.14 366.02 211.509 365.708 212.88 364.15C214.096 362.591 214.345 360.098 213.66 356.981L216.994 355.423C223.82 365.085 227.934 380.668 230.053 405.602L240.993 378.798C233.419 362.28 224.911 348.566 215.779 344.203Z" fill="#FFD42E"/>
<path d="M242.925 374.123L255.205 344.515L222.667 344.203C229.274 349.501 235.85 359.163 242.925 374.123Z" fill="#FFD42E"/>
<path d="M289.333 344.203L256.826 344.515L269.106 374.123C276.15 359.163 282.726 349.501 289.333 344.203Z" fill="#FFD42E"/>
<path d="M245.014 378.798C248.535 386.902 252.182 395.94 256.016 406.537C259.849 395.94 263.464 386.902 266.986 378.798C261.813 366.332 257.2 355.111 256.016 352.306C254.8 355.111 250.218 366.332 245.014 378.798Z" fill="#FFD42E"/>
<path d="M243.081 383.473C238.468 394.693 233.7 406.225 230.677 413.706C230.708 414.641 230.77 415.576 230.833 416.51C232.391 416.51 243.923 416.51 255.579 416.51L254.27 412.77C250.842 403.109 247.102 392.824 243.081 383.473Z" fill="#FFD42E"/>
<path d="M296.221 344.203C287.12 348.566 278.581 362.28 271.007 378.798L281.947 405.602C284.066 380.668 288.211 365.085 295.006 355.423L298.34 356.981C297.655 360.098 297.935 362.591 299.151 364.15C300.522 365.708 302.86 366.02 304.169 366.02C308.594 366.02 312.179 362.28 312.179 357.916C312.179 350.436 306.413 345.45 296.221 344.203Z" fill="#FFD42E"/>
<path d="M257.761 412.77L256.421 416.51C268.077 416.51 279.64 416.51 281.167 416.51C281.23 415.576 281.292 414.641 281.354 413.706C278.3 406.225 273.531 394.693 268.95 383.473C264.898 392.824 261.158 403.109 257.761 412.77Z" fill="#FFD42E"/>
</svg>
