<svg width="512" height="512" viewBox="0 0 512 512" fill="none" xmlns="http://www.w3.org/2000/svg">
<g clip-path="url(#clip0_1_23244)">
<g clip-path="url(#clip1_1_23244)">
<path d="M255.995 0C114.614 0 0 114.614 0 255.995C0 397.377 114.614 512 255.995 512C397.377 512 512 397.368 512 255.995C512 114.623 397.368 0 255.995 0Z" fill="#286CFD"/>
<path d="M255.995 12.7971C121.685 12.7971 12.797 121.685 12.797 255.995C12.797 390.306 121.685 499.203 255.995 499.203C390.306 499.203 499.203 390.315 499.203 255.995C499.203 121.676 390.315 12.7971 255.995 12.7971Z" fill="white"/>
<path d="M255.996 24.3208C128.043 24.3208 24.3208 128.052 24.3208 255.995C24.3208 383.939 128.052 487.679 255.996 487.679C383.939 487.679 487.679 383.957 487.679 255.995C487.679 128.034 383.957 24.3208 255.996 24.3208ZM255.996 400.638C227.388 400.638 199.423 392.154 175.637 376.261C151.85 360.367 133.311 337.777 122.364 311.348C111.416 284.918 108.552 255.835 114.133 227.777C119.714 199.719 133.49 173.947 153.718 153.718C173.947 133.49 199.719 119.714 227.777 114.133C255.835 108.552 284.918 111.416 311.348 122.364C337.778 133.311 360.368 151.85 376.261 175.637C392.154 199.423 400.638 227.388 400.638 255.995C400.639 274.99 396.898 293.8 389.63 311.349C382.361 328.898 371.707 344.844 358.276 358.276C344.844 371.707 328.898 382.361 311.349 389.63C293.8 396.898 274.991 400.639 255.996 400.638Z" fill="#ED0038"/>
<mask id="mask0_1_23244" style="mask-type:luminance" maskUnits="userSpaceOnUse" x="122" y="122" width="268" height="268">
<path d="M122.85 122.85H389.15V389.15H122.85V122.85Z" fill="white"/>
</mask>
<g mask="url(#mask0_1_23244)">
<path d="M128.829 295.317C134.673 314.288 144.703 331.704 158.18 346.279V286.286L124.259 236.732C121.382 256.356 122.944 276.376 128.829 295.317ZM197.303 342.866V274.166L158.469 217.442V165.414C151.301 173.144 145.075 181.695 139.919 190.89L158.162 217.541V286.286L196.995 343.001V375.296C206.441 379.967 216.405 383.505 226.681 385.836L197.303 342.866ZM236.434 262.019L275.268 318.735V387.47L236.434 330.746V262.055L197.601 205.331V136.595L236.434 193.311V262.019ZM275.566 249.909L236.732 193.184V124.485L275.566 181.209V249.945L314.4 306.669V375.405L275.566 318.68V249.909ZM216.647 128.829C197.493 134.734 179.926 144.905 165.269 158.577L197.339 205.421V274.157L236.172 330.872V387.642C255.997 390.617 276.238 389.086 295.39 383.162C314.542 377.238 332.112 367.073 346.794 353.423L314.725 306.579V237.834L275.891 181.11V124.34C256.062 121.347 235.812 122.891 216.665 128.856M353.848 294.486V225.723L315.014 168.999V136.713C305.567 132.037 295.599 128.496 285.32 126.164L314.707 169.098V237.834L353.54 294.558V346.586C360.704 338.859 366.928 330.31 372.081 321.119L353.848 294.486ZM383.19 216.665C377.346 197.696 367.319 180.28 353.848 165.703V225.75L387.759 275.295C390.644 255.656 389.083 235.62 383.19 216.665Z" fill="#286CFD"/>
</g>
<path d="M101.148 303.851L107.723 317.849L97.0302 338.061C95.4226 341.068 94.0318 343.525 94.0318 343.525L94.1763 343.787C94.1763 343.787 97.0031 343.958 100.399 344.247L123.175 346.297L131.303 359.438L82.0837 388.193L74.2176 375.549L94.8266 363.556C99.6311 360.774 103.253 358.815 103.253 358.815L103.108 358.553C103.108 358.553 100.625 358.372 95.4317 357.604L74.4705 354.489L74.326 354.227L83.0862 334.945C85.2717 330.177 86.4728 327.991 86.4728 327.991L86.3283 327.729C86.3283 327.729 82.7159 329.698 77.7578 332.245L56.4805 342.911L50.1588 329.436L101.148 303.851ZM138.826 365.976L150.169 376.055L127.393 403.148C123.654 407.664 123.843 412.378 129.497 416.83C135.15 421.283 139.792 420.361 143.296 415.674L164.303 387.181L176.757 395.842L155.19 425.049C145.301 438.451 132.495 435.805 121.423 427.09C110.351 418.375 104.761 406.544 115.49 393.756L138.826 365.976ZM161.521 384.418L147.523 394.198L147.288 394.009L153.529 378.114L161.521 384.418ZM185.526 400.782L200.337 406.201L208.709 434.793C210.515 440.979 211.255 444.249 211.255 444.249L211.689 444.375C211.689 444.375 212.655 440.121 214.073 434.92L220.151 412.17L234.601 415.593L219.88 470.683L204.527 466.998L195.018 437.105C193.211 431.298 192.399 427.622 192.399 427.622L191.965 427.496C191.965 427.496 190.692 432.012 189.084 436.807L181.317 459.99L167.364 454.842L185.526 400.782ZM296.419 450.101C296.735 463.647 288.291 472.895 272.116 473.988C257.007 475.036 242.864 468.154 242.033 446.136C241.194 423.802 253.557 415.43 268.061 414.464C283.766 413.398 292.851 422.177 294.414 434.098L279.151 435.127C277.751 429.961 274.988 426.918 268.26 427.379C261.938 427.803 257.558 433.592 258.037 445.052C258.551 457.037 263.518 461.661 270.554 461.191C277.589 460.721 280.659 457.353 280.994 451.167L296.419 450.101ZM299.832 410.716L313.984 405.298L321.986 424.462L339.651 416.406L330.394 397.72L343.805 390.622L369.092 441.72L355.663 448.846L345.656 428.526L327.17 436.952L335.957 457.877L321.805 463.295L299.832 410.779V410.716ZM352.764 383.966L380.047 357.821L388.825 366.437L371.72 382.828L378.249 390.053L394.813 374.185L403.383 382.584L386.269 398.994L393.368 406.941L412.64 388.473L421.418 397.088L390.893 426.34L352.764 383.966ZM386.856 349.738L394.659 336.056L424.263 332.642C430.666 331.902 434.017 331.739 434.017 331.739L434.215 331.333C434.215 331.333 430.214 329.635 425.365 327.377L403.97 317.542L409.786 303.86L461.489 327.675L455.267 342.125L424.191 346.478C418.158 347.327 414.401 347.462 414.401 347.462L414.202 347.869C414.202 347.869 418.393 349.874 422.89 352.285L444.42 363.863L436.988 376.741L386.856 349.738ZM60.9058 161.07L72.3392 165.585L63.2177 190.899L73.8925 194.43L82.4359 170.742L93.5893 175.167L85.2988 198.151L105.267 204.636L100.977 219.185L46.3567 201.393L60.9058 161.07ZM130.734 123.446C140.587 132.378 142.285 144.615 132.441 157.078C123.41 168.484 109.556 173.957 91.6115 160.636C73.9015 147.505 76.2586 131.971 85.6329 120.086C95.5671 107.497 108.256 106.44 118.145 113.449L108.662 125.451C104.038 122.85 99.6943 123.139 95.3684 128.612C91.0426 134.085 91.9999 140.858 101.6 148.056C110.785 154.928 117.955 154.676 121.956 149.618C126.228 144.2 125.397 139.819 121.215 135.566L130.734 123.446ZM168.195 58.9279C178.265 54.2769 188.127 53.2654 192.471 63.5608C196.038 71.9869 193.771 75.6715 189.373 79.3653L189.527 79.7085C194.223 78.6157 200.518 78.8053 204.527 88.2157C209.341 99.5317 201.962 106.079 191.884 110.739L170.588 120.583L145.058 69.6207L168.195 58.9279ZM176.748 79.582C180.694 77.7758 181.823 75.9154 180.234 72.1133C178.698 68.4467 176.097 68.1667 172.286 69.9278L163.779 73.8563L168.584 83.366L176.748 79.582ZM186.375 100.408C190.728 98.3938 191.92 96.6869 190.078 92.3339C188.362 88.2609 185.345 88.1616 180.983 90.1755L173.632 93.5712L178.816 103.858L186.375 100.408ZM271.881 96.3799H255.707L251.065 86.1296L231.494 87.8093L228.667 98.6467L212.728 101.446L228.523 41.8411L246.152 40.3238L271.881 96.3799ZM246.657 75.1477L241.79 64.0576C240.11 60.2916 238.845 56.941 238.845 56.941H238.547C238.547 56.941 237.87 60.4632 236.859 64.464L233.96 76.2044L246.657 75.1477ZM286.286 79.6543L273.046 39.1949L290.133 42.4461L295.317 59.6052C296.292 62.8835 297.123 66.3695 297.123 66.3695L297.412 66.4327C297.412 66.4327 299.634 63.615 301.883 61.0141L313.704 47.5487L330.601 51.6759L301.81 83.0229L297.403 101.934L282.457 98.6918L286.286 79.6543ZM341.981 56.6069L377.852 76.3037L371.603 86.8972L349.504 74.7413L345.078 83.4293L365.516 94.6459L359.411 104.977L339.633 94.1401L334.774 103.614L356.322 115.445L350.072 126.038L316.17 107.425L341.981 56.6069ZM397.693 91.7288L415.096 110.351C424.001 119.879 426.132 129.072 415.53 138.347C408.757 144.272 403.789 145.906 397.856 143.585L388.753 166.561L378.006 153.42L386.332 134.663L381.365 129.352L367.972 142.691L356.972 132.242L397.693 91.7288ZM389.863 120.899L395.752 127.221C399.03 130.725 401.785 130.833 405.442 127.6C409.1 124.367 408.991 121.414 405.713 117.901L399.518 111.272L389.863 120.899ZM412.062 219.076L406.86 204.193L423.685 179.61C427.297 174.39 429.393 171.645 429.393 171.645L429.221 171.23C429.221 171.23 425.32 173.171 420.389 175.375L398.94 185.083L392.419 171.717L444.348 148.236L451.212 162.433L434.125 188.75C430.847 193.762 428.453 196.788 428.453 196.788L428.625 197.203C428.625 197.203 432.888 195.397 437.656 193.536L460.514 184.867L465.372 198.919L412.062 219.076Z" fill="white"/>
</g>
</g>
<defs>
<clipPath id="clip0_1_23244">
<rect width="512" height="512" fill="white"/>
</clipPath>
<clipPath id="clip1_1_23244">
<rect width="512" height="512" fill="white"/>
</clipPath>
</defs>
</svg>
