<svg width="435" height="512" viewBox="0 0 435 512" fill="none" xmlns="http://www.w3.org/2000/svg">
<g clip-path="url(#clip0_1_2198)">
<path d="M217.492 2.00098C285.249 2.00098 350.455 16.0014 412.051 43.5021C424.798 95.4996 432.864 149.503 433.079 185.001C433.079 186.001 433.079 186.501 433.079 187C433.079 222 427.977 256.5 417.995 289.003C408.224 320.999 393.785 350.999 374.881 379.001C356.189 406.002 333.249 431 306.7 453.002C278.451 476.499 245.104 498 217.49 510.004C190.094 498 156.745 476.499 128.498 453.002C101.948 431 79.0092 406.002 60.3154 379.001C41.4114 350.999 26.9717 320.999 17.2012 289.003C7.21874 256.5 2.11726 222 2.11726 187C2.11726 186.501 2.11726 186.001 2.11726 185.001C2.33605 149.503 10.4032 95.5014 23.15 43.5021C84.7462 16.0014 149.949 2.00098 217.492 2.00098Z" fill="white"/>
<path d="M217.492 202.004C232.576 202.004 246.594 206.001 258.912 213.002H384.436C384.651 204.001 384.436 194.002 384.226 185.001C383.587 146.5 372.332 81.5027 361.287 36.501C316.894 22.0005 269.106 13.501 217.707 13.501" fill="#DA140A"/>
<path d="M217.707 14.001C167.156 14.001 120.854 21.4986 73.913 36.5009C62.4442 82.9994 52.8854 145 51.3974 174.503C49.2755 218.003 52.4583 249.502 61.168 283.506C66.0541 303.002 72.4266 321.001 80.7109 339.502C89.6324 335.003 98.9758 329.002 108.318 322.005C118.09 314.503 126.588 305.5 133.596 296.502C133.384 293.004 133.174 289.998 133.174 286.499C133.174 281.504 133.596 276.496 134.445 272.004C117.031 272.5 107.258 272.5 99.4012 272.5C90.0526 272.5 81.5599 266.003 77.5229 256C75.3958 256 73.0639 256 73.0639 256C69.8793 256 64.1424 253.499 64.1424 242.499C64.1424 232.001 69.8776 229.501 73.0639 229.501C73.0639 229.501 75.3975 229.501 77.5229 229.501C81.5582 219.501 90.0526 213.002 99.4012 213.002H176.498C188.606 206.001 202.624 202.004 217.706 202.004" fill="#EE120B"/>
<path d="M141.241 436.501C117.456 412.999 97.9149 387.004 82.4073 359.001C66.6914 331.002 55.4327 299.502 48.8484 268.003C42.0522 235.501 39.9269 202.501 42.264 168C44.3911 135.5 52.8854 85.9993 63.5051 40.001C53.5227 43.5015 43.325 47.5004 33.3425 52.0011C22.0891 97.001 14.2285 154.003 14.0167 185.002C14.0167 220.002 18.9011 253.501 28.4564 285.004C38.6541 318.504 52.2447 345.504 70.2978 372.005C88.1426 398.505 110.443 422.5 136.141 444.002C160.147 464.001 187.755 481.502 217.49 496.505C189.033 479.004 163.329 459.004 141.241 436.501Z" fill="#163A76"/>
<path d="M293.955 436.501C317.744 412.999 337.286 387.004 352.792 359.001C368.51 331.002 379.767 299.502 386.351 268.003C393.147 235.501 395.273 202.501 392.936 168C390.809 135.5 382.104 85.4992 371.484 40.001C381.679 43.5015 391.876 47.5004 401.859 52.0011C413.112 97.001 420.973 154.003 420.973 185.002C421.185 220.002 416.299 253.501 406.528 285.004C397.184 316.005 383.167 345.008 364.902 372.005C346.847 398.505 324.757 422.5 299.051 444.002C275.053 464.001 247.443 481.502 217.492 496.505C245.955 479.004 271.87 459.004 293.955 436.501Z" fill="#163A76"/>
<path d="M217.492 206.5C173.102 206.5 137.209 242.499 137.209 286.498C137.209 331.002 173.102 366.998 217.492 366.998C261.883 366.998 297.78 331.002 297.78 286.498C297.78 242.5 261.883 206.5 217.492 206.5Z" fill="#8D6E26"/>
<path d="M217.492 371.001C190.306 371.001 166.094 358.002 150.59 337.999C131.686 349.001 111.933 357.499 92.8186 363.501C107.899 389.503 126.374 414.005 148.891 436.502C169.066 457.005 192.006 475.501 217.494 492.002" fill="#EE120B"/>
<path d="M99.4012 268.502C90.6915 268.502 83.2564 261.501 80.282 252.001C76.6738 252.001 73.0639 252.001 73.0639 252.001C71.1486 252.001 68.3913 249.502 68.3913 243.001C68.3913 236.002 71.1486 233.5 73.0639 233.5C73.0639 233.5 76.6738 233.5 80.282 233.5C83.2564 224 90.6915 216.999 99.4012 216.999H169.492C152.498 228.999 139.968 246.5 135.294 267.5C119.576 268.003 107.685 268.502 99.4012 268.502Z" fill="#8D6E26"/>
<path d="M413.751 41.5011C354.068 15.0006 288.438 0 217.493 0C146.764 0 81.1322 15.0006 21.4512 41.5011C7.64526 97.501 0.211838 151.501 0 185C0 220.999 4.88443 256.001 15.0787 289.501C25.0611 321.502 39.7179 352 58.6218 379.504C77.3139 407.003 100.465 432.5 127.228 454.498C152.291 475.5 186.489 498.503 217.493 511.998C248.715 498.503 282.703 475.498 307.974 454.498C334.739 432.5 357.89 407.001 376.582 379.504C395.486 352 410.141 321.502 420.123 289.501C430.106 256.001 435.204 221.001 434.992 185C434.992 151.501 427.557 97.501 413.751 41.5011ZM364.901 372.005C347.058 398.002 324.756 422.5 299.051 444.002C275.052 464.001 247.442 481.502 217.492 496.003C187.756 481.501 160.149 464 136.142 444.002C110.442 422.5 88.1419 398.002 70.2989 372.005C68.8126 370.008 67.3297 367.502 66.0535 365.502C92.179 361 121.275 350.001 148.04 334.501C141.456 325.003 136.571 314.005 134.444 302.003C127.65 310.506 119.787 318.503 110.656 325.505C95.7872 336.501 77.9494 347.504 58.6201 353.5C45.8733 332.004 35.8926 309.004 28.4575 285.004C18.9022 253.5 14.0178 220.002 14.0178 185.002C14.2296 154.003 22.0902 97.0009 33.3436 52.001C91.5435 26.5006 153.563 14.0004 217.493 14.0004C281.637 14.0004 343.66 26.5006 401.86 51.9993C413.113 96.9992 420.974 154.001 421.186 185C421.186 196 420.762 206.5 419.698 217H265.287C284.403 230.5 297.995 251.002 301.18 275L330.705 268.003C337.289 266.501 339.837 262.002 340.686 258.001L414.601 252.999C412.474 264.002 409.717 274.502 406.744 285.002C397.184 316.003 383.166 345.006 364.901 372.005Z" fill="#8D6E26"/>
<path d="M222.804 309.002V352C242.979 350.505 260.61 339.502 271.655 324.001L234.064 302.505C231.088 305.5 227.263 308.002 222.804 309.002Z" fill="white"/>
<path d="M212.184 221.001C192.004 223.001 174.378 233.501 163.545 249.502L200.924 271C203.9 267.501 207.72 265.501 212.182 264.502" fill="white"/>
<path d="M217.492 275.001C211.125 275.001 205.812 280.002 205.812 286.499C205.812 293.004 211.125 298.503 217.492 298.503C224.076 298.503 229.176 293.004 229.176 286.499C229.176 280.002 224.076 275.001 217.492 275.001Z" fill="white"/>
<path d="M222.804 221.001V264.502C227.261 265.501 231.3 267.503 234.273 271L271.653 249.502C260.612 233.501 242.98 223.001 222.804 221.001Z" fill="white"/>
<path d="M212.184 309.002C208.571 308.002 205.388 306.504 202.624 304C202.202 303.498 201.564 303 200.924 302.505L163.545 324.001C164.394 325.503 165.245 326.498 166.306 327.503C177.135 341.504 193.702 350.505 212.184 352" fill="white"/>
<path d="M239.37 293.005L276.965 314.999C284.183 299.504 286.31 278.001 276.965 258.503L239.581 280.003C240.647 284.003 240.859 288.501 239.37 293.005Z" fill="white"/>
<path d="M169.704 248.003L200.286 265.5C202.624 264.004 205.171 262.503 207.935 261.001V226.003C192.853 228.5 179.262 236.003 169.704 248.003Z" fill="#8D6E26"/>
<path d="M227.053 226.003V261.5C229.812 262.503 232.361 264.002 234.698 265.5L265.284 248.003C255.725 236.003 242.13 228.5 227.053 226.003Z" fill="#8D6E26"/>
<path d="M278.665 280.498C278.238 275.001 276.965 269.502 274.839 264.501L244.257 282.002C244.469 283.504 244.679 285.002 244.679 286.499C244.679 287.003 244.679 288.003 244.679 288.499C253.178 286.003 262.31 284.002 271.655 282.002C273.78 281.505 276.329 281.004 278.665 280.498Z" fill="#8D6E26"/>
<path d="M217.492 492C242.98 475.499 266.132 457.004 286.312 436.5C310.1 412.999 329.641 386.501 344.932 358.506C360.439 330.002 371.484 298.502 378.07 266.997C378.491 264.5 378.918 262.002 379.34 259.503L343.871 262.002C341.959 266.997 337.714 270.999 331.761 272.005C331.551 272.005 318.593 275.504 301.604 279.502C301.816 281.503 302.026 284.003 302.026 286.498C302.026 333.504 264.22 370.999 217.49 370.999" fill="#DA140A"/>
<path d="M224.926 286.501C224.926 282.5 221.738 279.003 217.492 279.003C213.457 279.003 210.059 282.502 210.059 286.501C210.059 291.006 213.457 294 217.492 294C221.738 294 224.926 291.005 224.926 286.501Z" fill="#8D6E26"/>
<path d="M227.053 347.503C242.131 345.006 255.727 337.003 265.286 325.503L234.7 307.5C232.361 309.499 229.813 311.002 227.054 312.002V347.503" fill="#D40026"/>
<path d="M169.704 325.503L200.286 307.5C202.624 309.499 205.171 311.002 207.935 312.002V347.503C192.853 345.006 179.262 337.003 169.704 325.503Z" fill="#FE000C"/>
<path d="M279.087 286.5C279.087 286.004 279.087 285.004 278.876 284.5C276.749 284.5 274.412 285.004 272.292 285.507C262.949 287.506 254.025 289.999 245.955 291.999L274.839 309.004C277.6 302.001 279.087 294.502 279.087 286.5Z" fill="#D40026"/>
<path d="M158.023 258.503C149.527 277.002 149.951 297.504 158.233 314.999L195.617 293.005C194.343 289.004 194.343 284.5 195.617 280.003" fill="white"/>
<path d="M160.36 309.002L190.733 291.004C190.306 288.002 190.306 285.002 190.733 282.001L160.148 264.502C154.625 279.001 154.625 294.501 160.36 309.002Z" fill="#8D6E26"/>
<path d="M248.075 149.002C248.075 151.002 247.655 156.499 247.443 158.001H271.87C270.382 151.502 269.743 142.501 269.531 135.501C269.531 136.002 269.106 121.501 269.106 121.501C269.106 120.501 269.531 119.002 270.165 118.501C271.014 117.502 271.868 117.502 272.929 117.502C273.99 117.004 275.9 117.004 276.117 121.003L276.749 136.003C276.965 143.001 276.965 152.504 276.117 158.003H299.689C299.479 156.005 298.84 151.006 298.629 149.504C301.604 156.003 307.973 159.502 316.471 159.502C321.569 159.502 325.394 157.503 328.363 155.501C328.363 156.003 329.639 158.001 329.639 158.001H373.393C371.481 151.502 370.206 142.501 369.567 135.501L363.41 86.5009L340.893 82.5003C342.808 89.0013 344.079 98.501 344.928 105.002L348.326 136.502C348.965 142.002 349.391 148.002 349.391 154.503V155.001L348.542 153.004C346.842 149.002 345.993 143.999 345.355 136.502L344.506 126.5C343.23 110.499 334.524 103.502 315.405 103.502C312.217 103.502 304.151 104.002 299.265 105.502L300.536 123.5L305.634 120.497C309.885 118.001 313.073 117 316.891 117C319.867 117 321.777 118 322.628 119.999C319.018 120.497 314.983 121.498 310.518 123.5C303.722 126.5 299.477 130.999 297.565 136C297.565 136 297.565 136 297.565 135.5L296.928 118.999C296.501 108.499 289.705 101.5 279.297 101.5C274.628 101.5 270.379 103 266.555 105.502C266.343 105.002 266.128 104.502 265.916 104.002L265.067 102.002L245.526 101.001C246.375 104.504 247.653 114.502 247.863 118.004C246.804 113.003 244.043 107.501 238.942 103.502C234.904 101.001 229.808 99.5012 224.502 99.5012C217.28 99.5012 209.847 102.502 204.961 107.499C199.863 112.5 197.315 119.497 197.098 127.5C195.19 125.502 192.643 123.5 189.67 122.499L180.749 118.002H180.323C178.2 117.002 177.984 116.502 177.984 116.002C178.2 115.002 180.323 114.002 183.086 114.002C186.904 114.002 192.214 116.002 196.465 118.501L196.887 102.502C193.7 101.001 189.243 100.001 182.871 100.001C179.472 100.001 173.098 100.503 167.578 103.503C166.092 104.504 164.814 105.504 163.543 106.506L163.755 102.003C158.657 101.003 153.135 101.003 146.339 107.502C146.122 107.002 145.702 104.504 145.28 103.503L124.25 104.504C125.737 110.501 125.95 119.002 125.521 126.502L125.1 134.503V135.501C124.888 139.504 124.672 144.001 124.25 148.002C122.551 142.501 120.642 135.001 119.152 129.004L108.743 82.002L79.0092 86.5009C79.221 87.0027 79.6464 88.5029 79.8583 90.0014C80.0701 92.0017 80.0701 96.0006 77.3093 104.504C72.4231 118.004 65.6287 138.504 59.0443 153.006C58.1952 155.003 56.4919 158.003 56.4919 158.003H79.6464C80.0701 154.504 81.5582 148.503 83.0445 144.003C86.2308 144.003 94.5133 144.003 98.335 143.504C99.1841 147.005 100.035 151.504 100.25 154.506L100.672 158.005H146.98C145.913 150.507 146.341 140.507 146.763 135.005C147.19 128.506 148.462 124.005 151.225 121.505C153.347 119.006 155.684 118.504 157.384 118.504C157.172 127.505 162.907 131.504 168.004 134.005L177.135 138.507C180.323 140.507 180.323 141.006 180.323 142.008C180.111 143.506 177.562 144.004 175.225 144.004C170.341 144.004 163.756 141.006 156.533 133.005L156.109 154.008C161.845 157.006 169.063 158.507 175.435 158.507C186.055 158.507 197.315 153.508 200.286 144.004C205.6 154.008 216.007 158.507 226.202 158.507C235.335 158.501 242.13 155.499 248.075 149.002ZM88.5662 128.5C89.8424 125 90.9034 122.001 92.8168 116.502C94.0896 122.001 94.7286 125.502 95.3658 128.002C92.8168 128.5 91.5423 128.5 88.5662 128.5ZM218.557 123C218.557 116.002 221.105 113.001 223.655 113.001C224.504 113.001 226.414 112.5 227.263 116.002C227.69 117.5 227.902 118.499 227.902 119.001C227.902 121.001 226.841 121.499 225.563 121.499V122.001C225.563 122.001 221.955 123 218.557 124.5C218.557 124.001 218.557 123.5 218.557 123ZM242.769 137.502C238.31 141.504 235.123 143.999 229.81 143.999C225.563 143.501 223.014 141.001 221.527 137.502C225.988 136.002 243.194 129.502 248.073 127.5C248.073 131.501 248.29 136.002 248.29 136.002C248.29 139.002 248.29 142.002 248.29 144.501L242.769 137.502ZM321.991 144.499C317.959 144.499 317.106 141.502 316.893 139.502C317.105 137.502 317.742 134.501 324.116 132.501C324.328 135 324.543 137.002 324.543 137.002V139C324.753 140.502 324.753 142.002 324.965 143.501C324.118 143.999 323.057 143.999 321.991 144.499Z" fill="#8D6E26"/>
<path d="M193.28 105.002C191.153 104.502 187.967 103.502 182.872 103.502C178.835 103.502 173.527 104.502 169.492 106.504C164.817 109.503 161.419 113.502 161.207 118.004C160.78 125.002 164.394 128.004 169.704 130.503C173.317 132.501 176.713 134.503 178.835 135.502C181.599 137.002 184.148 138.504 183.931 142.003C183.723 145.501 180.535 148.002 175.227 148.002C170.763 148.002 164.395 145 159.931 141.002L159.719 151.502C163.545 153.503 169.704 154.505 175.437 154.505C185.208 154.505 197.317 150.004 197.529 139.002C197.739 130.503 191.794 127.502 188.184 125.504C184.57 124.003 180.962 122.003 179.262 121.501C177.562 120.501 174.164 119.501 174.378 115.504C174.8 112.003 178.835 110.501 183.089 110.501C186.697 110.501 190.306 111.501 193.07 113.003" fill="white"/>
<path d="M105.986 86.499L83.4682 89.5012C83.8954 92.5017 83.0463 98.5008 80.7091 105.502C76.0348 118.999 68.3895 141.502 62.4425 154.502H76.4602C77.3093 150.002 78.372 146.001 80.4956 140.502L101.309 140C102.159 143.999 103.647 150.502 103.858 154.502H122.761C120.424 149.002 117.453 137.502 115.539 129.502L105.986 86.499ZM83.4682 131.999L93.666 102.501L99.8232 131.501" fill="white"/>
<path d="M159.931 105.002L159.509 115.002C156.111 114.502 151.864 115.502 148.462 119.001C145.492 122.003 143.578 126.5 143.154 134.503C142.727 141.002 142.517 148.503 142.943 154.504H127.01C128.07 148.503 128.498 141.506 128.709 135.003L129.137 127.005C129.559 120.503 129.559 114.005 128.499 108.004L142.517 107.504C143.154 109.504 143.576 113.007 143.366 116.507C149.527 107.001 155.474 105.002 159.931 105.002Z" fill="white"/>
<path d="M360.226 89.5014L345.781 87.001C347.269 93.502 347.696 97.9992 348.545 104.502L351.943 136.002C352.582 142.501 353.214 148.502 353.002 154.503H368.72C367.237 148.502 366.598 142.501 365.961 136.002" fill="white"/>
<path d="M295.443 154.503C294.594 148.502 294.17 142.501 293.955 136.001L293.321 119.499C292.896 110.499 287.798 105.502 279.3 105.502C274.631 105.502 269.108 106.999 264.432 113.001C264.22 111.499 263.582 107.499 262.732 105.502L249.99 105.002C251.049 111.001 251.476 117.002 251.69 123.5L251.9 136C252.112 142.499 251.9 148.5 251.478 154.501H267.408C266.559 148.5 266.131 142.499 265.92 136L265.498 121.999C265.286 117 269.108 113.498 272.931 113.498C277.388 113.498 279.515 116.5 279.727 120.997L280.365 135.998C280.576 142.497 280.576 148.498 280.153 154.499" fill="white"/>
<path d="M345.145 154.503C343.23 149.502 342.171 143.501 341.744 137.002L340.895 127.002C340.046 115.002 334.949 106.999 315.406 106.999C312.01 106.999 307.122 107.499 303.087 108.499L303.724 117.501C307.761 115.002 311.797 113.002 316.893 113.002C322.206 113.002 326.663 115.5 327.092 123C321.991 123.5 317.32 124.5 312.008 127.002C306.061 129.501 299.904 134.501 300.538 142.501C301.175 151.502 307.971 155.499 316.471 155.499C323.055 155.499 327.512 152.501 330.061 149.502C330.489 151.501 331.126 153.004 331.761 154.503H345.145ZM321.991 148.002C317.322 148.002 313.495 145.501 313.285 140.002C313.285 134.503 316.683 130.003 327.512 128.502L328.151 137.004C328.362 140.004 328.362 142.004 328.789 144.501C327.304 146.502 324.755 147.502 321.991 148.002Z" fill="white"/>
<path d="M236.823 106.502C233.21 104.002 228.963 103 224.504 103C214.094 103 200.288 110.498 200.715 129.501C200.925 149 215.794 155.001 226.204 155.001C235.337 155.001 240.859 151.5 245.319 147.002L242.131 142.501C239.794 144.499 235.974 147.502 229.812 147.502C223.227 147.002 218.982 142.501 216.643 135.501L245.529 125.002C244.679 115.502 241.28 110.001 236.823 106.502ZM226.841 125.002L215.372 129.502C215.157 127.502 214.945 125.502 214.945 123.001C214.945 111.501 221.319 109.503 223.439 109.503C226.843 109.003 229.813 111.003 230.878 115.004C232.149 119.499 231.725 123.5 226.841 125.002Z" fill="white"/>
</g>
<defs>
<clipPath id="clip0_1_2198">
<rect width="434.992" height="512" fill="white"/>
</clipPath>
</defs>
</svg>
