<svg width="506" height="512" viewBox="0 0 506 512" fill="none" xmlns="http://www.w3.org/2000/svg">
<path d="M252.928 500.565C387.903 500.565 497.322 391.146 497.322 256.171C497.322 121.195 387.903 11.776 252.928 11.776C117.952 11.776 8.53296 121.195 8.53296 256.171C8.53296 391.146 117.952 500.565 252.928 500.565Z" fill="white"/>
<path d="M295.424 211.115L383.488 175.445L368.298 199.851L295.594 216.747L295.424 211.115ZM295.424 220.672V224.597H401.578L367.274 205.824L295.424 220.672ZM411.818 183.979C411.306 183.296 410.282 182.784 406.698 181.76L388.437 176.981C388.437 176.811 372.565 202.923 372.565 202.923L402.432 218.795L410.794 189.44C412.16 185.685 412.501 184.832 411.818 183.979ZM94.2078 189.44L102.57 218.795L132.437 202.923C132.437 202.923 116.565 176.811 116.565 176.981L98.3037 181.76C94.7197 182.784 93.6957 183.296 93.1837 183.979C92.8424 184.832 93.1838 185.685 94.2078 189.44ZM138.069 205.653L103.765 224.256H209.92V220.501L138.069 205.653ZM295.424 228.523L295.253 232.277L339.456 239.445L367.104 228.352H295.424V228.523ZM295.424 235.861V239.787C295.424 239.957 328.704 257.877 328.704 257.877C328.704 257.877 333.653 260.608 335.36 261.12C337.92 261.632 341.845 261.461 341.845 261.461L354.986 260.779C354.986 260.779 336.896 244.224 337.237 244.395C337.578 244.395 295.424 235.861 295.424 235.861ZM379.904 233.643L374.101 230.741L344.064 243.371L360.106 258.731L379.904 239.104C381.269 237.568 382.293 236.715 382.122 235.861C381.952 235.179 381.44 234.496 379.904 233.643ZM123.562 235.691C123.562 236.544 124.416 237.397 125.781 238.933L145.578 258.56L161.621 243.2L131.584 230.571L125.781 233.472C124.245 234.496 123.562 235.179 123.562 235.691ZM210.261 211.115L122.197 175.445L137.386 199.851L210.09 216.747L210.261 211.115ZM138.581 228.523L166.229 239.616L210.432 232.448L210.261 228.693H138.581V228.523ZM168.618 244.224C169.13 244.053 150.869 260.608 150.869 260.608L164.01 261.291C164.01 261.291 167.936 261.632 170.496 260.949C172.032 260.608 177.152 257.707 177.152 257.707C177.152 257.707 210.432 239.787 210.432 239.616V235.691C210.261 235.861 168.106 244.395 168.618 244.224ZM294.4 204.971L322.56 174.592L340.65 152.576L341.674 146.603L339.797 144.896L337.578 151.723L290.304 194.56C290.474 194.901 294.4 204.971 294.4 204.971ZM330.581 306.176C330.069 305.493 314.709 264.875 314.709 264.875C312.149 258.389 309.93 257.195 305.322 254.635L294.741 247.979L294.229 248.661L306.346 265.045V288.939L345.6 338.773C350.89 345.429 351.232 347.648 358.912 347.648L363.69 345.429L354.645 343.893C354.816 344.064 331.264 306.859 330.581 306.176ZM175.274 306.176C174.762 306.859 151.21 344.064 151.21 344.064L142.165 345.6L146.944 347.819C154.794 347.819 154.965 345.6 160.256 338.944L199.509 289.109L199.68 265.216L211.797 248.832L211.285 248.149L200.704 254.805C196.096 257.365 193.877 258.56 191.317 265.045C191.146 264.875 175.957 305.493 175.274 306.176ZM183.296 174.421L211.456 204.8C211.456 204.8 215.381 194.731 215.552 194.389L168.448 151.723L166.229 144.896L164.352 146.603L165.376 152.576L183.296 174.421ZM300.373 267.264V316.928L283.989 344.747L261.632 361.813L253.098 372.736L244.394 361.813L221.866 344.747L205.482 316.928V267.264L220.16 246.613L215.21 243.371V210.773L222.208 190.293L228.01 186.88C228.01 186.88 228.352 177.323 230.4 174.763C231.936 172.715 239.445 170.325 239.445 170.325L243.2 165.205L229.888 146.091L216.746 138.923L212.48 133.973L218.965 136.021L232.789 143.872L246.101 162.816L252.928 161.109L259.584 162.816L273.066 143.872L286.89 136.021L293.376 133.973L289.109 138.923L275.968 146.091L262.826 165.376L266.41 170.325C266.41 170.325 273.92 172.885 275.456 174.763C277.333 177.323 277.845 186.88 277.845 186.88L283.648 190.293L290.645 210.773V243.371L286.037 246.443L300.373 267.264ZM271.018 225.109V240.981L280.064 220.672L252.757 208.725L226.816 217.771L226.986 218.624L252.757 215.723L271.018 225.109ZM264.362 181.248L273.237 184.832L266.24 172.032L264.362 181.248ZM232.448 185.003L241.493 181.589L239.445 172.203L232.448 185.003ZM219.989 210.091L238.592 200.192H267.264L285.866 210.091L283.818 204.288L270.506 193.195L282.453 197.291L281.088 193.195C281.088 193.195 268.288 186.88 268.117 186.368H237.909C237.738 186.88 224.938 193.195 224.938 193.195L223.573 197.291L235.52 193.195L222.208 204.288L219.989 210.091ZM290.474 324.096L268.288 331.947H237.397L215.552 324.096L223.232 337.579L241.493 344.235L228.693 343.893L246.101 357.205H259.584L276.992 343.893L264.192 344.235L282.453 337.579L290.474 324.096ZM235.861 313.856H269.824L285.696 301.739L285.525 301.227L268.117 307.541H237.738L220.33 301.227L220.16 301.739L235.861 313.856ZM294.912 268.629L268.8 271.701L288.597 260.779L280.746 249.856L269.482 257.365H236.373L225.45 250.027L217.6 260.779L237.056 271.701L210.944 268.459V282.453L227.84 288.768H278.016L294.912 282.453V268.629ZM498.517 256C498.517 120.491 388.266 10.0693 252.586 10.0693C116.906 10.0693 6.82642 120.491 6.82642 256C6.82642 391.509 117.077 501.931 252.757 501.931C388.437 501.931 498.517 391.509 498.517 256ZM492.714 256C492.714 388.267 385.024 495.957 252.757 495.957C120.49 495.957 12.6291 388.267 12.6291 256C12.6291 123.733 120.32 16.0427 252.757 16.0427C385.194 16.0427 492.714 123.733 492.714 256ZM131.072 173.739C157.525 134.827 202.069 109.397 252.416 109.397C303.104 109.397 347.989 135.339 374.272 174.592L379.904 172.203C352.597 131.072 305.322 103.424 252.416 103.424C199.509 103.424 152.917 130.389 125.44 171.52L131.072 173.739ZM102.4 228.523C100.693 237.397 100.01 246.784 100.01 256C100.01 340.139 168.448 408.576 252.586 408.576C336.725 408.576 405.162 340.139 405.162 256C405.162 246.613 404.309 237.227 402.602 228.352H396.629C398.336 237.227 399.189 246.613 399.189 256C399.189 336.896 333.312 402.603 252.586 402.603C171.861 402.603 105.642 336.896 105.642 256C105.642 246.613 106.496 237.397 108.202 228.523H102.4Z" fill="#0F0F0F"/>
<path d="M222.037 204.458L235.349 193.365L223.403 197.461L224.768 193.365C224.768 193.365 237.568 187.05 237.739 186.538H267.947C268.117 187.05 280.917 193.365 280.917 193.365L282.283 197.461L270.336 193.365L283.648 204.458L285.696 210.261L267.093 200.362H238.421L219.819 210.261L222.037 204.458ZM290.475 324.096L268.288 331.946H237.397L215.552 324.096L223.232 337.578L241.493 344.234L228.693 343.893L246.101 357.205H259.584L276.992 343.893L264.192 344.234L282.453 337.578L290.475 324.096ZM294.912 268.629L268.8 271.701L288.597 260.778L280.747 249.856L269.483 257.365H236.373L225.451 250.026L217.6 260.778L237.056 271.701L210.944 268.458V282.453L227.84 288.768H278.016L294.912 282.453V268.629Z" fill="#FFB400"/>
<path d="M317.099 165.376V127.488L319.829 129.024V162.816L317.099 165.376ZM317.099 308.907V382.976L319.829 381.44V313.344L317.099 308.907ZM319.829 196.779V183.125L317.099 186.368V197.973L319.829 196.779ZM319.829 266.581V257.195L317.099 255.488V261.12L319.829 266.581ZM276.651 137.557V115.541L273.92 115.029V139.093L276.651 137.557ZM273.92 358.741V396.971L276.651 396.459V356.352L273.92 358.741ZM273.92 155.307V169.131L276.651 170.496V151.211L273.92 155.307ZM363.349 179.2V164.864L360.619 162.475V180.395L363.349 179.2ZM360.448 263.509V340.309L363.179 340.821V263.339L360.448 263.509ZM189.611 165.376V127.488L186.88 129.024V162.816L189.611 165.376ZM186.88 313.344V381.44L189.611 382.976V308.907L186.88 313.344ZM189.611 197.973V186.368L186.88 183.125V196.779L189.611 197.973ZM189.611 261.12V255.488L186.88 257.195V266.581L189.611 261.12ZM232.789 139.093V115.029L230.059 115.541V137.557L232.789 139.093ZM230.229 356.523V396.629L232.96 397.141V358.912L230.229 356.523ZM230.229 151.211V170.496L232.96 169.131V155.307L230.229 151.211ZM146.091 180.224V162.304L143.36 164.693V179.029L146.091 180.224ZM143.701 263.339V340.821L146.432 340.309V263.509L143.701 263.339Z" fill="#E5E5E5"/>
<path d="M112.811 131.584C110.421 129.536 107.691 130.56 105.643 132.949L102.059 137.216L109.397 143.36L112.811 139.264C114.859 136.704 115.2 133.632 112.811 131.584Z" fill="#D20000"/>
<path d="M231.083 455.338L237.397 456.021L235.179 447.146L231.083 455.338Z" fill="#D20000"/>
<path d="M206.507 439.808L202.581 438.784L200.875 444.757L204.629 445.781C206.507 446.293 208.384 445.44 208.896 443.562C209.408 441.344 208.043 440.149 206.507 439.808Z" fill="#D20000"/>
<path d="M94.3784 123.904L90.9651 128L97.2798 133.29L100.522 129.365C102.229 127.317 102.229 124.757 100.181 123.05C98.1331 121.173 95.7438 122.368 94.3784 123.904Z" fill="#D20000"/>
<path d="M62.8051 252.416C64.6825 252.416 65.8771 251.051 65.8771 249.344C65.8771 247.637 64.6825 246.272 62.8051 246.272C61.0985 246.272 59.9038 247.637 59.9038 249.344C59.9038 251.051 61.0985 252.416 62.8051 252.416Z" fill="#D20000"/>
<path d="M147.797 413.013C143.872 410.453 138.581 411.477 135.68 416.256C132.608 421.035 133.973 425.984 137.899 428.544C141.824 431.104 147.115 430.08 150.016 425.472C153.088 420.693 151.893 415.573 147.797 413.013Z" fill="#D20000"/>
<path d="M203.776 450.219L199.68 449.024L197.802 455.851L201.728 456.875C204.117 457.557 206.336 456.704 207.018 454.485C207.53 452.437 205.994 450.901 203.776 450.219Z" fill="#D20000"/>
<path d="M62.805 256C59.9037 256 58.0264 258.048 58.0264 260.608C58.0264 263.168 59.9037 265.216 62.805 265.216C65.7064 265.216 67.5837 263.168 67.5837 260.608C67.5837 258.219 65.7064 256 62.805 256Z" fill="#D20000"/>
<path d="M133.291 93.5251C131.584 91.4771 128.853 91.1358 126.464 93.0131L122.368 96.4264L128.341 103.765L132.267 100.693C134.656 98.6451 134.997 95.7438 133.291 93.5251Z" fill="#D20000"/>
<path d="M407.893 137.387C412.501 132.949 413.866 126.293 408.576 121.173L404.65 117.248L387.584 133.973L391.338 137.728C396.629 143.019 403.285 141.824 407.893 137.387Z" fill="#D20000"/>
<path d="M437.077 252.245C438.954 252.245 440.149 250.88 440.149 249.173C440.149 247.467 438.954 246.101 437.077 246.101C435.37 246.101 434.176 247.467 434.176 249.173C434.176 251.051 435.37 252.245 437.077 252.245Z" fill="#D20000"/>
<path d="M437.077 256C434.176 256 432.299 258.048 432.299 260.608C432.299 263.168 434.176 265.216 437.077 265.216C439.979 265.216 441.856 263.168 441.856 260.608C441.856 258.048 439.979 256 437.077 256Z" fill="#D20000"/>
<path d="M460.8 246.272C457.898 246.272 456.192 248.491 456.192 251.051C456.192 253.611 458.069 255.829 460.8 255.829C463.701 255.829 465.408 253.611 465.408 251.051C465.408 248.32 463.53 246.272 460.8 246.272Z" fill="#D20000"/>
<path d="M376.32 97.7917C377.856 95.7437 377.685 93.0131 375.125 91.1357L370.859 87.8931L365.227 95.5731L369.323 98.6451C371.712 100.522 374.613 100.01 376.32 97.7917Z" fill="#D20000"/>
<path d="M324.267 89.4291C330.069 91.8185 336.555 89.4291 339.456 82.6025C342.357 75.7758 339.456 69.2905 333.653 66.9011C327.851 64.5118 321.365 66.9011 318.464 73.8985C315.563 80.5545 318.464 87.0398 324.267 89.4291Z" fill="#D20000"/>
<path d="M252.928 22.016C123.904 22.016 19.1145 126.976 19.1145 255.829C19.1145 384.853 124.075 489.643 252.928 489.643C381.952 489.643 486.741 384.683 486.741 255.829C486.741 126.976 381.781 22.016 252.928 22.016ZM413.013 116.736C421.376 125.269 419.669 136.021 413.184 142.336C406.869 148.651 395.605 150.869 386.389 141.653L377.856 133.12L403.797 107.52L413.013 116.736ZM379.562 86.6986C385.365 91.136 385.877 97.4506 382.464 102.059C380.245 105.131 375.979 107.179 371.2 105.813L368.981 124.245L361.984 118.955L364.373 102.741L361.643 100.693L352.939 112.128L347.136 107.691L368.981 78.6773L379.562 86.6986ZM311.808 70.9973C316.075 60.928 326.656 56.4906 336.384 60.5866C346.112 64.6826 350.549 75.264 346.283 85.3333C342.016 95.4026 331.435 99.6693 321.707 95.5733C311.979 91.6479 307.541 81.0666 311.808 70.9973ZM284.842 45.9093L306.517 50.0053L305.323 56.1493L290.816 53.4186L289.109 62.1226L300.715 64.3413L299.52 70.4853L287.915 68.2666L285.013 82.944L277.845 81.5786L284.842 45.9093ZM237.909 43.6906L267.947 43.8613V50.176H256.512L256.341 80.2133H249.003L249.173 50.176H237.739L237.909 43.6906ZM198.656 50.8586L220.501 69.4613L215.381 46.9333L222.549 45.2266L230.741 80.7253L224.085 82.2613L202.411 63.8293L207.531 86.1866L200.363 87.8933L192.171 52.3946L198.656 50.8586ZM171.52 59.5626L174.251 65.1946L160.939 71.5093L164.693 79.5306L175.275 74.4106L178.005 80.0426L167.424 85.1626L171.179 93.0133L184.832 86.528L187.563 92.16L167.253 101.888L151.552 69.12L171.52 59.5626ZM123.221 87.7226C128.853 83.1146 135.168 84.1386 138.752 88.7466C141.141 91.6479 142.165 96.256 139.605 100.693L156.843 107.349L150.016 112.981L134.827 106.667L132.267 108.715L141.312 119.979L135.68 124.587L112.64 96.0853L123.221 87.7226ZM90.1118 119.467C94.8905 113.835 100.352 113.323 104.107 116.395C106.837 118.784 107.861 122.539 106.496 125.952C109.739 123.392 114.005 123.051 117.589 125.952C121.685 129.365 123.563 136.363 118.272 142.507L109.568 152.917L81.5785 129.536L90.1118 119.467ZM45.3972 268.8H41.3012V245.077L45.3972 242.517V268.8ZM62.8052 269.141C57.8558 269.141 53.9305 265.557 53.9305 260.779C53.9305 257.707 55.4665 255.317 57.8558 253.952C56.6612 252.928 55.9785 251.221 55.9785 249.344C55.9785 245.589 58.8798 242.517 62.8052 242.517C66.7305 242.517 69.6318 245.589 69.6318 249.344C69.6318 251.221 68.9492 252.757 67.7545 253.952C70.1438 255.317 71.6798 257.877 71.6798 260.779C71.6798 265.557 67.9252 269.141 62.8052 269.141ZM100.181 378.88L96.4265 381.611L91.1358 374.443L82.0905 381.099L78.8478 376.661L100.864 360.448L110.763 373.76L107.008 376.491L100.352 367.616L95.0612 371.541L100.181 378.88ZM104.448 408.405C98.9865 402.773 98.9865 394.069 104.96 388.267C110.933 382.464 119.467 382.635 125.099 388.437C130.56 394.069 130.56 402.773 124.587 408.576C118.613 414.379 109.909 414.208 104.448 408.405ZM154.795 428.373C150.357 435.2 141.995 437.077 135.168 432.811C128.512 428.544 126.635 420.011 130.901 413.184C135.339 406.187 143.872 404.309 150.528 408.576C157.184 413.013 159.232 421.547 154.795 428.373ZM186.368 433.835L178.517 430.251L169.131 450.901L164.181 448.683L173.568 428.032L165.717 424.448L167.595 420.181L188.245 429.568L186.368 433.835ZM214.528 443.904C213.845 446.464 211.456 448.341 208.725 448.512C211.456 450.048 213.163 452.779 212.139 456.021C211.115 459.947 206.848 463.36 201.045 461.653L191.147 458.923L198.485 432.64L208.043 435.371C213.504 436.907 215.552 440.491 214.528 443.904ZM240.469 467.627L238.762 461.312L228.693 460.288L225.792 466.261L219.819 465.579L233.131 439.467L238.421 439.979L246.272 468.309L240.469 467.627ZM252.587 414.549C165.205 414.549 94.0372 343.381 94.0372 256C94.0372 246.443 95.0612 236.203 96.5972 228.011C97.1092 225.451 97.9625 222.549 97.9625 222.549L88.7465 191.147C86.8692 184.491 86.0158 182.613 87.0398 180.907C87.3812 180.224 88.2345 179.029 91.3065 178.347L118.443 171.52L118.954 170.496C147.115 126.635 196.437 97.4506 252.416 97.4506C308.053 97.4506 357.205 126.293 385.365 169.813L386.219 171.349L413.355 178.176C416.427 179.029 417.28 180.053 417.621 180.736C418.645 182.443 417.963 184.32 415.915 190.976L406.869 222.379C406.869 222.379 407.723 225.451 408.234 228.181C409.941 237.227 410.624 246.443 410.624 256C411.136 343.381 339.968 414.549 252.587 414.549ZM259.072 467.968L257.536 440.661L262.997 440.32L264.363 463.019L275.285 462.336L275.627 466.944L259.072 467.968ZM288.085 464.896L282.794 438.101L288.256 437.077L292.693 459.264L303.445 457.045L304.299 461.653L288.085 464.896ZM341.333 448.171C334.677 451.072 326.827 448.853 323.242 440.661C319.317 431.957 323.925 424.448 330.411 421.547C333.824 420.011 338.261 419.669 342.357 421.888L340.309 426.837C337.578 425.131 334.677 425.301 332.459 426.325C328.192 428.203 325.802 432.469 328.363 438.101C330.752 443.392 335.36 445.099 339.627 443.221C342.869 441.856 344.746 438.784 344.576 434.688L349.696 435.029C349.525 441.344 346.283 446.123 341.333 448.171ZM364.544 435.541L349.355 412.843L353.962 409.771L366.592 428.544L375.637 422.4L378.197 426.325L364.544 435.541ZM396.459 412.501C392.363 416.085 385.877 417.109 381.269 411.989L369.664 398.677L373.76 395.093L385.024 407.893C387.755 410.965 390.656 410.624 393.045 408.576C395.264 406.528 396.117 403.627 393.387 400.555L382.122 387.755L386.219 384.171L397.824 397.483C402.603 402.603 400.725 408.917 396.459 412.501ZM421.547 385.195L414.549 392.704L394.581 373.931L401.408 366.763C405.163 362.667 409.429 362.667 411.989 365.056C414.037 366.933 414.549 369.835 413.355 372.395C415.915 370.688 419.157 370.517 421.717 372.907C424.619 375.467 425.643 380.757 421.547 385.195ZM437.077 269.141C432.128 269.141 428.203 265.557 428.203 260.779C428.203 257.707 429.739 255.317 432.128 253.952C430.933 252.928 430.251 251.221 430.251 249.344C430.251 245.589 433.152 242.517 437.077 242.517C441.003 242.517 443.904 245.589 443.904 249.344C443.904 251.221 443.221 252.757 442.027 253.952C444.416 255.317 445.952 257.877 445.952 260.779C445.952 265.387 442.197 269.141 437.077 269.141ZM460.458 268.8H456.021L461.482 259.413C461.141 259.413 460.8 259.584 460.458 259.584C456.192 259.584 452.096 256.171 452.096 251.051C452.096 246.272 455.85 242.517 460.8 242.517C465.749 242.517 469.504 246.272 469.504 251.051C469.504 252.928 468.821 254.464 467.968 256L460.458 268.8Z" fill="#D20000"/>
<path d="M408.917 369.834C407.381 368.298 405.504 369.152 404.48 370.346L401.749 373.248L406.357 377.514L408.917 374.613C410.112 373.077 410.283 371.2 408.917 369.834Z" fill="#D20000"/>
<path d="M108.714 392.363C104.789 396.288 104.789 401.579 108.032 404.992C111.274 408.405 116.565 408.576 120.661 404.821C124.757 400.896 124.586 395.605 121.344 392.192C118.101 388.608 112.81 388.437 108.714 392.363Z" fill="#D20000"/>
<path d="M412.501 377.514L409.6 380.586L414.891 385.536L417.621 382.634C419.328 380.928 419.669 378.368 417.963 376.832C416.085 375.125 414.037 375.808 412.501 377.514Z" fill="#D20000"/>
</svg>
