<svg width="446" height="512" viewBox="0 0 446 512" fill="none" xmlns="http://www.w3.org/2000/svg">
<g clip-path="url(#clip0_14_83)">
<mask id="mask0_14_83" style="mask-type:luminance" maskUnits="userSpaceOnUse" x="-14" y="-14" width="475" height="541">
<path d="M460.283 -13.543H-13.8427V526.187H460.283V-13.543Z" fill="white"/>
</mask>
<g mask="url(#mask0_14_83)">
<path d="M219.342 509.487C161.494 498.752 107.219 468.933 66.6687 425.991C25.5181 382.157 2.25739 328.181 1.96054 274.511V1.9635H444.479V274.511C443.883 328.484 420.922 382.16 379.771 425.991C339.217 468.931 285.243 498.752 227.098 509.487L223.222 510.084L219.342 509.487Z" fill="#5F0041"/>
</g>
<mask id="mask1_14_83" style="mask-type:luminance" maskUnits="userSpaceOnUse" x="-14" y="-14" width="475" height="541">
<path d="M460.283 -13.543H-13.8427V526.187H460.283V-13.543Z" fill="white"/>
</mask>
<g mask="url(#mask1_14_83)">
<path d="M15.6805 15.6796V274.512C16.2769 324.907 38.0452 375.301 76.8102 416.753C115.277 457.605 166.864 485.935 222.03 496.368L223.222 496.666L224.415 496.368C279.581 485.931 331.168 457.901 369.635 416.753C408.4 375.303 430.171 324.907 430.764 274.215V15.6796H15.6805ZM417.05 274.215C416.156 370.53 330.872 461.777 223.223 482.654C115.277 462.079 30.2909 370.536 29.395 274.512V29.3995H417.342V274.215H417.05Z" fill="white"/>
</g>
<mask id="mask2_14_83" style="mask-type:luminance" maskUnits="userSpaceOnUse" x="-14" y="-14" width="475" height="541">
<path d="M460.283 -13.543H-13.8427V526.187H460.283V-13.543Z" fill="white"/>
</mask>
<g mask="url(#mask2_14_83)">
<path d="M101.854 359.793C103.345 359.495 104.239 359.197 104.836 357.706C105.432 356.215 105.432 353.531 101.556 352.04L93.2062 348.76L87.2422 363.968L95.8902 367.248C98.5738 368.441 101.854 367.845 103.047 364.863C103.941 362.178 103.047 360.688 101.854 359.793ZM98.5738 362.178C97.9774 363.371 97.083 363.371 96.1882 362.775L93.5046 361.582L94.6974 358.899L97.6789 360.091C98.5738 360.688 98.8717 361.284 98.5738 362.178ZM100.065 356.513C99.7666 357.408 98.8717 357.408 97.9774 357.109L95.5918 356.215L96.4867 353.829L98.8717 354.724C100.065 355.32 100.363 355.917 100.065 356.513Z" fill="white"/>
</g>
<mask id="mask3_14_83" style="mask-type:luminance" maskUnits="userSpaceOnUse" x="-14" y="-14" width="475" height="541">
<path d="M460.283 -13.543H-13.8427V526.187H460.283V-13.543Z" fill="white"/>
</mask>
<g mask="url(#mask3_14_83)">
<path d="M113.188 356.517L108.715 354.43L104.54 363.376C102.751 367.55 103.944 370.532 108.417 372.62C112.89 374.707 116.17 373.812 117.959 369.638L122.134 360.692L117.661 358.604L113.784 366.656C113.188 368.147 112.294 369.936 109.908 369.041C107.821 368.147 108.715 366.06 109.312 364.568L113.188 356.517Z" fill="white"/>
</g>
<mask id="mask4_14_83" style="mask-type:luminance" maskUnits="userSpaceOnUse" x="-14" y="-14" width="475" height="541">
<path d="M460.283 -13.543H-13.8427V526.187H460.283V-13.543Z" fill="white"/>
</mask>
<g mask="url(#mask4_14_83)">
<path d="M120.345 378.581L123.326 373.512L125.712 374.705C127.501 375.599 126.607 377.09 126.01 378.581C125.712 379.476 125.414 380.072 125.115 380.966L129.589 383.352C129.589 382.458 130.483 380.669 130.782 380.072C131.676 378.283 131.676 376.494 130.782 375.301C132.571 375.599 134.061 374.407 134.956 372.915C136.447 370.232 135.254 367.548 132.571 366.355L124.221 361.584L116.17 375.599L120.345 378.581ZM126.607 367.846L128.694 369.039C130.483 369.933 130.483 370.828 129.887 371.723C129.29 372.915 128.097 372.617 127.203 372.021L124.818 370.828L126.607 367.846Z" fill="white"/>
</g>
<mask id="mask5_14_83" style="mask-type:luminance" maskUnits="userSpaceOnUse" x="-14" y="-14" width="475" height="541">
<path d="M460.283 -13.543H-13.8427V526.187H460.283V-13.543Z" fill="white"/>
</mask>
<g mask="url(#mask5_14_83)">
<path d="M133.466 386.931L139.131 380.073L137.342 389.913L141.219 393.193L151.357 380.371L147.779 377.389L142.113 384.247L143.902 374.407L140.026 371.127L129.589 383.949L133.466 386.931Z" fill="white"/>
</g>
<mask id="mask6_14_83" style="mask-type:luminance" maskUnits="userSpaceOnUse" x="-14" y="-14" width="475" height="541">
<path d="M460.283 -13.543H-13.8427V526.187H460.283V-13.543Z" fill="white"/>
</mask>
<g mask="url(#mask6_14_83)">
<path d="M152.248 401.838L154.932 398.558L149.267 394.383L156.721 384.543L152.547 381.561L142.706 394.383L152.248 401.838Z" fill="white"/>
</g>
<mask id="mask7_14_83" style="mask-type:luminance" maskUnits="userSpaceOnUse" x="-14" y="-14" width="475" height="541">
<path d="M460.283 -13.543H-13.8427V526.187H460.283V-13.543Z" fill="white"/>
</mask>
<g mask="url(#mask7_14_83)">
<path d="M165.072 410.787L167.458 407.209L160.003 402.437L161.196 400.648L167.756 404.823L169.843 401.841L163.582 397.368L164.476 395.877L171.633 400.35L173.123 398.561V408.401L170.142 413.471L174.316 416.155L177.298 410.787L187.437 404.525L182.666 401.841L177.298 405.718L177.895 399.157L174.018 397.07L162.687 389.615L153.741 403.034L165.072 410.787Z" fill="white"/>
</g>
<mask id="mask8_14_83" style="mask-type:luminance" maskUnits="userSpaceOnUse" x="-14" y="-14" width="475" height="541">
<path d="M460.283 -13.543H-13.8427V526.187H460.283V-13.543Z" fill="white"/>
</mask>
<g mask="url(#mask8_14_83)">
<path d="M191.314 423.606L193.401 417.642L199.663 419.729L200.856 416.151L194.594 414.063L195.488 411.976L202.645 414.66L203.838 410.783L192.208 406.608L186.543 421.816L191.314 423.606Z" fill="white"/>
</g>
<mask id="mask9_14_83" style="mask-type:luminance" maskUnits="userSpaceOnUse" x="-14" y="-14" width="475" height="541">
<path d="M460.283 -13.543H-13.8427V526.187H460.283V-13.543Z" fill="white"/>
</mask>
<g mask="url(#mask9_14_83)">
<path d="M201.752 418.537C200.858 423.309 203.243 427.483 208.313 428.378C213.084 429.273 216.96 426.589 218.153 421.519C219.047 416.749 216.662 412.574 211.593 411.679C206.523 410.785 202.647 413.767 201.752 418.537ZM206.523 419.73C207.12 416.152 209.207 415.854 210.698 415.854C211.891 416.152 213.68 417.345 213.084 420.923C212.487 424.501 210.4 424.8 208.909 424.8C207.716 424.501 205.927 423.309 206.523 419.73Z" fill="white"/>
</g>
<mask id="mask10_14_83" style="mask-type:luminance" maskUnits="userSpaceOnUse" x="-14" y="-14" width="475" height="541">
<path d="M460.283 -13.543H-13.8427V526.187H460.283V-13.543Z" fill="white"/>
</mask>
<g mask="url(#mask10_14_83)">
<path d="M226.801 430.762C231.871 430.762 235.151 427.483 235.151 422.413C235.151 417.344 231.871 413.765 227.1 413.765C222.03 413.765 218.75 417.046 218.75 422.115C218.452 426.886 221.732 430.464 226.801 430.762ZM227.1 417.642C228.292 417.642 230.379 418.536 230.379 422.115C230.379 425.693 228.292 426.588 227.1 426.588C225.907 426.588 223.82 425.693 223.82 422.115C223.82 418.536 225.609 417.642 227.1 417.642Z" fill="white"/>
</g>
<mask id="mask11_14_83" style="mask-type:luminance" maskUnits="userSpaceOnUse" x="-14" y="-14" width="475" height="541">
<path d="M460.283 -13.543H-13.8427V526.187H460.283V-13.543Z" fill="white"/>
</mask>
<g mask="url(#mask11_14_83)">
<path d="M239.62 417.345L241.707 429.571L246.478 428.676L244.689 416.748L249.162 415.854L248.566 411.679L234.551 414.065L235.147 418.24L239.62 417.345Z" fill="white"/>
</g>
<mask id="mask12_14_83" style="mask-type:luminance" maskUnits="userSpaceOnUse" x="-14" y="-14" width="475" height="541">
<path d="M460.283 -13.543H-13.8427V526.187H460.283V-13.543Z" fill="white"/>
</mask>
<g mask="url(#mask12_14_83)">
<path d="M263.179 423.908C265.862 423.013 267.95 420.329 266.757 417.347C265.862 414.962 264.372 414.365 262.582 414.365C263.477 413.471 264.074 412.278 263.477 410.787C262.881 409.296 261.39 407.209 257.215 408.7L248.866 411.682L254.233 426.89L263.179 423.908ZM261.986 418.54C262.285 419.733 261.688 420.329 260.793 420.627L258.11 421.522L257.215 418.54L260.197 417.347C260.793 417.347 261.688 417.645 261.986 418.54ZM257.513 412.576C258.408 412.278 259.303 412.278 259.6 413.173C259.899 414.067 259.303 414.664 258.408 414.962L256.022 415.857L255.128 413.471L257.513 412.576Z" fill="white"/>
</g>
<mask id="mask13_14_83" style="mask-type:luminance" maskUnits="userSpaceOnUse" x="-14" y="-14" width="475" height="541">
<path d="M460.283 -13.543H-13.8427V526.187H460.283V-13.543Z" fill="white"/>
</mask>
<g mask="url(#mask13_14_83)">
<path d="M273.018 419.73L272.72 417.345L277.193 414.959L278.982 416.748L283.455 414.363L270.633 402.734L266.16 405.119L268.545 422.414L273.018 419.73ZM270.931 408.399L274.509 412.276L271.825 413.767L270.931 408.399Z" fill="white"/>
</g>
<mask id="mask14_14_83" style="mask-type:luminance" maskUnits="userSpaceOnUse" x="-14" y="-14" width="475" height="541">
<path d="M460.283 -13.543H-13.8427V526.187H460.283V-13.543Z" fill="white"/>
</mask>
<g mask="url(#mask14_14_83)">
<path d="M294.192 406.609L292.105 403.33L285.842 407.206L279.282 397.068L275.107 399.751L284.053 413.468L294.192 406.609Z" fill="white"/>
</g>
<mask id="mask15_14_83" style="mask-type:luminance" maskUnits="userSpaceOnUse" x="-14" y="-14" width="475" height="541">
<path d="M460.283 -13.543H-13.8427V526.187H460.283V-13.543Z" fill="white"/>
</mask>
<g mask="url(#mask15_14_83)">
<path d="M305.224 398.562L302.838 394.984L297.173 399.457L289.717 389.616L285.841 392.598L295.681 405.719L305.224 398.562Z" fill="white"/>
</g>
<mask id="mask16_14_83" style="mask-type:luminance" maskUnits="userSpaceOnUse" x="-14" y="-14" width="475" height="541">
<path d="M460.283 -13.543H-13.8427V526.187H460.283V-13.543Z" fill="white"/>
</mask>
<g mask="url(#mask16_14_83)">
<path d="M317.449 389.317C321.027 386.335 321.027 381.862 318.94 379.476L315.063 382.458C315.659 383.95 315.958 385.142 314.765 386.335C312.976 387.826 310.888 386.335 309.695 384.844C308.205 383.055 307.608 380.968 309.397 379.476C310.888 378.283 312.38 379.178 312.976 379.775L316.852 376.793C313.87 373.811 310.59 373.513 307.012 376.196C303.136 379.178 302.539 383.949 305.819 388.124C308.801 391.404 313.572 392.597 317.449 389.317Z" fill="white"/>
</g>
<mask id="mask17_14_83" style="mask-type:luminance" maskUnits="userSpaceOnUse" x="-14" y="-14" width="475" height="541">
<path d="M460.283 -13.543H-13.8427V526.187H460.283V-13.543Z" fill="white"/>
</mask>
<g mask="url(#mask17_14_83)">
<path d="M333.554 376.196L330.87 372.915L325.205 377.389L318.048 367.548L313.873 370.53L323.714 383.651L333.554 376.196Z" fill="white"/>
</g>
<mask id="mask18_14_83" style="mask-type:luminance" maskUnits="userSpaceOnUse" x="-14" y="-14" width="475" height="541">
<path d="M460.283 -13.543H-13.8427V526.187H460.283V-13.543Z" fill="white"/>
</mask>
<g mask="url(#mask18_14_83)">
<path d="M340.409 372.32C344.584 369.637 345.776 366.655 343.391 362.779L338.322 354.131L334.147 356.815L338.62 364.568C339.514 366.059 340.409 367.848 338.62 369.041C336.532 370.233 335.34 368.444 334.743 366.953L330.27 359.2L326.096 361.884L331.165 370.532C332.954 374.11 336.234 374.706 340.409 372.32Z" fill="white"/>
</g>
<mask id="mask19_14_83" style="mask-type:luminance" maskUnits="userSpaceOnUse" x="-14" y="-14" width="475" height="541">
<path d="M460.283 -13.543H-13.8427V526.187H460.283V-13.543Z" fill="white"/>
</mask>
<g mask="url(#mask19_14_83)">
<path d="M355.915 364.862C358.599 363.967 360.686 361.283 359.493 358.301C358.599 355.916 357.108 355.319 355.319 355.319C356.213 354.425 356.81 353.232 356.213 351.741C355.617 350.25 353.828 348.162 349.951 349.654L341.602 352.636L346.969 367.843L355.915 364.862ZM354.722 359.494C355.02 360.687 354.424 361.283 353.53 361.581L350.846 362.476L349.951 359.494L352.933 358.301C353.828 358.301 354.424 358.599 354.722 359.494ZM350.249 353.53C351.144 353.232 352.038 353.232 352.337 354.126C352.635 355.021 352.038 355.618 351.144 355.916L348.758 356.81L347.864 354.425L350.249 353.53Z" fill="white"/>
</g>
<mask id="mask20_14_83" style="mask-type:luminance" maskUnits="userSpaceOnUse" x="-14" y="-14" width="475" height="541">
<path d="M460.283 -13.543H-13.8427V526.187H460.283V-13.543Z" fill="white"/>
</mask>
<g mask="url(#mask20_14_83)">
<path d="M380.667 328.781L379.773 327.886H379.474C388.42 312.38 385.736 297.768 385.736 296.874C385.438 295.681 384.842 292.998 382.158 290.612C378.878 287.63 373.51 286.437 366.354 287.331C358.601 288.226 352.935 290.91 350.848 295.085L350.55 295.383C349.953 296.575 349.058 298.961 349.357 302.241C349.655 304.627 350.55 307.609 351.146 309.994C346.673 310.591 342.499 311.187 338.622 312.678C334.745 314.169 332.658 315.958 332.062 318.344C331.763 318.94 331.763 319.835 332.062 320.431C332.062 320.431 331.167 333.253 332.658 345.181C313.872 353.53 303.137 363.669 303.137 363.669C261.986 401.838 229.183 403.031 225.308 403.031H225.01C224.712 403.031 190.42 403.627 147.181 363.669C147.181 363.669 136.744 354.723 118.852 346.672C120.642 334.148 119.747 318.94 119.449 318.045C118.852 315.66 116.765 313.573 112.888 312.38C109.012 310.889 104.837 310.293 100.365 309.696C101.259 307.311 101.855 304.329 102.154 301.943C102.452 298.663 101.855 296.575 100.961 295.085C100.961 294.787 100.662 294.787 100.662 294.488C98.2774 290.313 92.9098 287.331 85.1566 286.735C77.9998 286.139 72.6327 287.034 69.3522 290.016C66.6687 292.401 66.0723 295.085 65.7744 296.277C65.7744 296.874 63.0903 310.591 73.2291 326.395C73.2291 326.395 72.9307 326.395 72.6327 326.693C72.6327 326.693 72.3343 326.991 72.0363 326.991C71.4399 327.29 71.1415 327.588 70.8435 328.184C69.9487 329.079 68.7558 330.868 67.8615 332.955C65.7744 337.727 64.5816 347.865 73.8255 369.037L74.1235 369.633L74.7199 369.931C75.0183 369.931 100.662 377.088 128.096 398.558C147.479 413.766 170.738 430.166 195.487 437.323L197.574 437.919C200.855 438.814 204.433 439.708 208.011 440.006L210.397 440.305C210.695 440.305 211.291 440.305 211.888 440.603H213.081C216.957 440.901 220.833 441.199 224.71 441.199C226.797 441.199 228.587 441.199 230.674 440.901C235.743 440.603 241.11 440.006 246.478 438.814C250.355 437.919 253.038 437.323 254.231 436.726C276.894 430.166 300.749 416.151 321.325 397.961C348.46 373.807 374.105 369.633 374.404 369.633H375.298L375.596 368.738C383.051 348.76 383.946 338.621 383.051 333.552C383.349 332.06 381.562 329.973 380.667 328.781ZM353.532 295.98C355.619 292.699 360.092 290.612 366.652 290.016C367.845 290.016 369.038 289.717 370.23 289.717C374.703 289.717 377.984 290.612 380.071 292.699C382.158 294.488 382.456 296.575 382.754 297.172V298.365V298.663C381.86 304.031 377.685 306.416 370.528 307.609L368.441 298.067L366.951 298.365C356.215 301.347 353.83 299.557 353.233 298.961C352.339 298.067 353.532 295.98 353.532 295.98ZM353.233 302.539C355.917 303.732 360.39 303.434 366.354 301.943L367.845 308.503C365.459 308.801 362.776 309.1 359.794 309.398H359.495C358.899 309.398 358.303 309.398 357.707 309.696C357.11 309.696 356.215 309.696 355.619 309.994H354.426C354.426 309.696 354.128 309.1 353.83 308.503C353.532 307.609 353.233 306.416 352.935 305.223C352.637 304.329 352.339 303.136 352.339 302.241C352.637 302.241 352.935 302.539 353.233 302.539ZM335.044 319.238C335.342 317.747 337.131 316.555 339.815 315.362C343.691 313.871 347.866 313.275 352.339 312.678C352.935 312.678 353.233 312.678 353.83 312.38C355.619 312.082 357.11 312.082 358.899 311.783H359.197H359.794H360.987C361.583 311.783 362.179 311.783 362.776 311.485C365.758 311.187 368.74 310.889 371.423 310.293C373.809 309.994 375.896 309.398 377.984 308.503C379.474 307.907 380.667 307.311 381.86 306.416C382.456 305.82 383.351 305.224 383.947 304.627V306.416C383.649 311.783 382.158 318.94 377.984 326.097C377.089 325.501 375.896 325.202 374.405 324.904C370.23 323.711 362.776 323.413 355.619 323.115C350.55 322.817 345.182 322.817 341.306 322.22C337.727 321.624 336.535 321.027 336.237 320.729C335.044 320.431 335.044 319.835 335.044 319.238ZM334.745 324.308V323.711C336.833 324.606 340.411 325.202 344.884 325.501C346.971 325.501 349.059 325.799 351.444 325.799H354.426C361.284 326.097 368.441 326.395 372.616 327.29C373.809 327.588 374.703 327.886 375.598 328.184C376.194 328.483 376.492 328.483 376.791 328.781C378.282 329.675 378.282 330.271 378.282 330.271C378.282 330.868 377.685 331.763 375.896 332.657C375.002 333.253 373.809 333.552 372.318 334.148C369.932 335.042 366.652 335.639 362.179 336.235C352.04 337.727 343.095 340.708 335.342 343.69C334.745 336.534 334.745 328.781 334.745 324.308ZM99.7687 301.943C99.7687 302.838 99.4702 303.732 99.1723 304.925C98.8744 306.118 98.5759 307.012 98.278 308.205C97.9795 308.801 97.9795 309.1 97.6816 309.696H96.4888C95.8924 309.696 94.9975 309.696 94.4011 309.398C93.8047 309.398 93.2083 309.398 92.6119 309.1H92.314C89.332 308.801 86.6484 308.503 84.2628 308.205L85.7535 301.645C92.0155 303.136 96.1903 303.434 98.8744 302.241C99.4702 302.241 99.7687 302.241 99.7687 301.943ZM71.7384 292.401C74.4225 290.016 79.1931 289.121 85.4556 289.717C92.0155 290.313 96.7867 292.401 98.5759 295.681C98.8738 295.979 99.4702 298.067 98.8744 298.961C98.278 299.557 95.8924 301.347 85.1572 298.365L83.6664 298.067L81.5787 307.609C74.4225 306.416 69.9492 304.031 69.3528 298.663V298.365V297.172C69.3528 296.575 69.6513 294.19 71.7384 292.401ZM69.3528 306.714C69.3528 306.118 69.0549 305.521 69.0549 304.925C69.6513 305.521 70.2477 306.118 70.8441 306.416C72.0369 307.311 73.2297 307.907 74.7204 308.503C76.5096 309.398 78.8952 309.994 80.9823 310.293C83.6664 310.889 86.6484 311.187 89.6299 311.485C90.2263 311.485 90.8227 311.485 91.4191 311.783H92.6119H93.2083H93.5068C95.296 311.783 96.7867 312.082 98.5759 312.38C99.1723 312.38 99.4702 312.38 100.067 312.678C104.54 313.275 108.715 313.871 112.591 315.362C115.275 316.555 117.064 317.747 117.362 319.238C117.66 319.835 117.362 320.431 117.064 321.027C116.766 321.326 115.275 321.922 111.995 322.519C108.118 323.115 102.751 323.115 97.6816 323.413C90.5248 323.711 83.07 324.009 78.8952 325.202C78.0003 325.501 77.4039 325.799 76.5096 326.097C72.0369 318.642 69.9492 311.783 69.3528 306.714ZM73.8261 330.868V330.271C74.124 329.973 74.7204 329.377 75.3168 329.078C75.6153 328.781 76.2117 328.781 76.5096 328.482C76.8081 328.184 77.4039 328.184 78.0003 327.886C78.2988 327.886 78.8952 327.588 79.4916 327.588C83.368 326.395 90.5248 326.097 97.6816 326.097C99.1723 326.097 100.663 326.097 102.154 325.799C104.54 325.799 106.627 325.501 108.416 325.501C112.293 325.202 115.573 324.606 117.362 323.711V324.308C117.362 329.078 117.66 337.727 116.467 345.778C108.416 342.199 99.1723 338.919 88.4371 336.832C85.4556 336.235 83.07 335.639 81.2808 335.042C80.6844 334.745 80.088 334.745 79.4916 334.446C73.8261 332.359 73.8261 331.166 73.8261 330.868ZM373.808 367.844C369.037 368.738 345.48 374.404 320.133 396.769C299.856 414.66 276.299 428.377 253.935 434.937C252.742 435.236 250.059 436.13 246.48 436.726C241.411 437.919 236.342 438.516 231.272 438.814C225.607 439.112 219.643 439.112 213.977 438.217H212.784C212.486 438.217 211.89 438.217 211.592 437.919L209.206 437.621C206.522 437.323 203.839 436.726 201.155 435.832L199.366 435.236C174.318 428.377 150.76 411.678 131.079 396.47C105.733 376.789 81.5787 369.037 77.4039 367.546C68.4585 346.076 70.2477 337.13 72.0369 333.85C72.0369 333.552 72.3348 333.552 72.3348 333.253C72.9312 333.85 73.5276 334.446 74.7204 335.042C75.3168 335.341 76.2117 335.937 77.106 336.235C79.4916 337.13 83.3679 338.323 88.4371 339.515C94.9975 341.007 100.962 342.796 106.329 344.585C108.416 345.479 110.503 346.076 112.591 346.97C114.38 347.567 116.169 348.461 117.959 349.356C135.85 357.407 145.988 366.055 145.988 366.055C189.823 406.609 224.114 406.311 225.604 406.311H225.902C229.779 406.311 263.475 405.118 305.518 366.353C305.518 366.353 315.657 356.512 333.548 348.461C333.847 348.163 334.443 348.163 335.04 347.865C336.53 347.268 338.021 346.672 339.81 346.076C346.669 343.392 354.422 341.304 363.368 339.814C369.331 338.919 373.506 337.727 376.19 336.534C377.085 336.235 377.979 335.639 378.576 335.341C379.769 334.745 380.364 334.148 380.961 333.552C380.961 333.85 381.259 334.148 381.259 334.446C381.557 338.024 381.263 347.567 373.808 367.844Z" fill="white"/>
</g>
<mask id="mask21_14_83" style="mask-type:luminance" maskUnits="userSpaceOnUse" x="-14" y="-14" width="475" height="541">
<path d="M460.283 -13.543H-13.8427V526.187H460.283V-13.543Z" fill="white"/>
</mask>
<g mask="url(#mask21_14_83)">
<path d="M222.92 333.552C224.71 330.271 221.728 327.289 221.728 327.886C222.026 328.78 220.236 329.078 220.236 329.078C218.447 329.377 214.571 328.184 214.571 328.184C201.451 325.798 205.625 342.199 206.52 345.778C207.116 347.865 205.625 352.636 198.17 352.039C192.505 351.443 192.207 354.425 192.207 354.425C194.89 352.337 196.679 353.829 196.679 353.829C193.697 354.127 192.803 357.407 192.803 357.407C195.784 354.723 198.469 356.512 198.469 356.512C196.083 357.109 196.083 360.389 196.083 360.389C197.872 358.004 199.661 359.196 199.661 359.196C199.661 359.196 203.24 360.687 204.134 356.811C204.433 355.618 206.52 357.407 206.52 357.407C206.221 355.916 206.818 354.425 207.116 353.829C207.414 353.232 209.8 355.618 209.8 355.618C210.992 354.425 210.396 352.934 210.396 352.636C210.396 352.04 209.502 349.952 210.098 348.76C211.887 346.374 214.273 350.548 214.273 350.548C214.869 347.268 211.589 341.006 211.291 340.708C209.8 338.919 209.203 334.744 215.764 339.814C218.149 341.901 221.131 340.708 221.131 340.708C220.236 337.428 222.92 333.552 222.92 333.552Z" fill="white"/>
</g>
<mask id="mask22_14_83" style="mask-type:luminance" maskUnits="userSpaceOnUse" x="-14" y="-14" width="475" height="541">
<path d="M460.283 -13.543H-13.8427V526.187H460.283V-13.543Z" fill="white"/>
</mask>
<g mask="url(#mask22_14_83)">
<path d="M214.571 297.174C214.571 297.174 215.764 298.665 214.571 300.752C214.571 300.752 218.149 301.647 219.938 299.857C219.938 299.857 219.044 302.243 220.535 304.927C220.535 304.927 223.218 303.436 223.815 301.647C223.815 301.647 225.008 301.945 225.902 304.032C226.797 306.119 227.692 306.418 227.692 306.418C227.692 306.418 227.692 303.436 229.779 302.839C229.779 302.839 232.164 305.821 235.444 304.629C235.444 304.629 230.077 301.647 235.444 300.454C235.444 300.454 231.568 299.261 231.866 297.472C231.866 297.472 229.779 300.752 225.306 299.857C225.306 299.857 226.499 298.367 225.902 296.578C225.902 296.578 222.324 298.665 219.342 297.174C219.342 297.174 219.342 293.893 221.429 292.701C221.429 292.701 216.659 292.104 215.167 293.596C215.167 293.596 214.273 291.508 215.764 289.719C215.764 289.719 211.291 291.21 210.098 298.367C209.8 298.665 213.08 298.963 214.571 297.174Z" fill="white"/>
</g>
<mask id="mask23_14_83" style="mask-type:luminance" maskUnits="userSpaceOnUse" x="-14" y="-14" width="475" height="541">
<path d="M460.283 -13.543H-13.8427V526.187H460.283V-13.543Z" fill="white"/>
</mask>
<g mask="url(#mask23_14_83)">
<path d="M185.053 315.066C185.053 315.066 180.878 318.346 184.158 321.924C184.158 321.924 184.457 317.451 187.14 318.644C187.14 318.644 182.667 321.924 187.14 324.608C187.14 324.608 186.842 320.135 190.421 321.029C192.508 321.626 193.998 318.942 193.998 318.942C193.998 318.942 196.384 317.451 197.875 319.539C199.366 321.924 201.454 322.222 201.752 322.521C201.752 322.521 200.261 320.433 201.752 319.539C201.752 319.539 204.137 321.924 205.926 321.924C205.926 321.924 203.839 319.539 205.926 319.24C205.926 319.24 207.119 319.24 207.417 320.433C207.716 321.924 211.294 322.521 211.592 322.521C211.592 322.521 209.505 320.732 210.698 318.942V318.644C211.89 316.855 213.083 317.451 213.083 317.451C217.556 316.259 217.258 311.488 217.258 310.295C217.556 310.295 217.854 310.593 217.854 310.891C218.45 312.382 218.749 315.96 213.679 318.942C213.679 318.942 213.978 323.117 220.836 326.099C220.836 326.099 219.942 320.732 224.116 328.484C224.116 328.484 225.607 331.466 223.818 334.448C222.327 337.43 220.538 342.499 226.204 345.78C231.869 349.358 235.448 353.235 232.764 363.373C232.764 363.373 230.975 366.951 227.396 366.057C223.818 365.162 222.327 363.671 219.345 367.548C219.345 367.548 222.924 365.758 225.011 368.144C225.011 368.144 220.836 366.951 219.345 372.319C219.345 372.319 223.52 369.933 225.309 371.722C225.309 371.722 222.924 372.319 222.924 375.301C222.924 375.301 225.309 373.512 227.098 374.406C230.08 375.599 230.676 373.81 231.571 372.319C232.466 370.828 234.553 372.915 237.535 372.319C237.535 372.319 233.36 369.039 235.745 367.548C237.237 366.653 239.92 368.443 241.113 366.951C241.113 366.951 235.745 364.864 238.43 361.286C239.622 359.794 241.709 361.584 242.902 360.689C242.902 360.689 239.324 359.497 239.92 356.217C240.219 354.129 241.113 354.427 241.709 354.725C242.306 355.024 243.797 355.322 244.691 354.725C244.691 354.725 243.201 354.427 242.902 352.638C242.604 350.849 242.902 348.463 240.815 346.973C239.622 346.078 238.727 346.078 238.727 343.096C238.727 339.517 240.219 339.219 241.113 338.921C242.008 338.921 244.095 338.623 245.288 337.729C245.288 337.729 253.041 332.957 248.866 323.117C244.691 313.277 242.604 312.68 243.201 304.927C243.797 297.174 245.586 293.596 247.375 290.912C248.568 288.825 251.252 287.334 253.041 287.036C253.041 287.036 257.514 286.141 256.917 291.508C256.917 291.508 256.917 293 254.234 295.087C251.55 297.472 250.655 299.858 250.655 299.858C250.655 299.858 253.637 297.77 254.234 298.367C254.83 298.963 254.532 299.858 253.339 301.349C252.146 302.542 250.655 305.524 250.953 307.909C250.953 307.909 251.848 306.418 253.041 306.418C253.041 306.418 252.445 311.189 255.427 312.978C255.427 312.978 254.532 307.611 256.619 304.629C258.11 302.542 261.689 295.683 259.601 290.912C259.601 290.912 259.601 284.65 255.725 284.054C255.725 284.054 256.321 285.246 256.023 284.948C255.725 284.65 243.797 283.756 241.412 302.542C241.412 303.436 240.815 306.12 240.815 306.12C240.815 306.12 240.517 310.891 237.535 307.313C237.535 307.313 237.237 311.189 241.113 313.575C244.989 316.258 237.535 315.96 236.044 313.277C236.044 313.277 236.044 316.258 239.92 318.047C243.797 319.539 243.201 321.626 236.938 320.135C236.938 320.135 238.727 322.819 243.797 322.819C248.866 322.819 249.164 330.572 247.375 332.361C244.691 334.747 243.201 334.448 242.008 334.15C240.517 333.852 239.92 334.15 239.92 334.15C239.92 334.15 236.938 331.168 236.342 328.484C236.044 326.397 231.869 322.819 231.869 322.819C231.869 322.819 229.483 319.837 230.378 313.873C231.273 307.909 231.571 306.12 231.273 305.226C231.273 305.226 229.782 304.927 229.186 304.033C229.186 304.033 228.291 306.418 228.291 307.909C228.291 307.909 225.309 307.313 224.116 304.927C223.222 302.542 222.327 303.138 222.327 303.138C222.327 303.138 220.538 305.524 218.45 306.12C218.45 306.12 217.556 305.822 217.556 303.436V301.945V301.051C217.556 301.051 214.276 301.945 212.188 301.051C212.188 301.051 212.785 299.56 212.188 298.665C212.188 298.665 210.698 299.56 207.716 298.963C207.716 298.963 207.119 296.28 209.803 292.105C209.803 292.105 210.101 290.912 208.61 288.228C207.119 285.843 204.734 280.475 206.821 276.897C208.312 274.511 207.716 271.231 205.628 270.039C203.839 268.846 202.646 268.846 199.962 269.741C199.962 269.741 203.541 269.442 203.541 272.424C203.541 272.424 199.665 268.548 196.384 272.424C196.384 272.424 200.857 271.828 199.962 275.406C199.962 275.406 196.683 270.933 193.402 276.3C193.402 276.3 197.875 275.704 197.875 279.581C197.577 282.264 201.155 283.159 201.155 283.159C201.155 283.159 202.05 290.912 197.577 290.614C197.577 290.614 200.261 292.403 201.453 292.105C201.453 292.105 201.752 295.087 199.068 295.385C199.068 295.385 200.559 296.876 202.646 296.876C202.646 296.876 202.944 297.77 201.752 298.367C200.261 299.262 200.261 301.647 200.261 301.945C200.261 301.945 201.752 300.752 204.137 301.945C206.523 303.138 209.505 302.244 210.101 301.945C210.101 301.945 210.698 301.647 211.294 301.647C210.996 301.945 210.698 302.542 210.101 303.436C209.206 304.629 208.014 306.12 206.821 307.611C203.541 310.891 197.875 314.171 189.526 310.295C187.439 309.4 183.86 309.102 182.369 310.593C180.878 312.084 180.282 313.873 181.772 315.96C182.369 317.75 182.369 314.47 185.053 315.066Z" fill="white"/>
</g>
<mask id="mask24_14_83" style="mask-type:luminance" maskUnits="userSpaceOnUse" x="-14" y="-14" width="475" height="541">
<path d="M460.283 -13.543H-13.8427V526.187H460.283V-13.543Z" fill="white"/>
</mask>
<g mask="url(#mask24_14_83)">
<path d="M224.113 292.106C221.43 293.299 221.728 295.982 221.728 295.982C225.902 295.684 226.797 293.895 226.797 293.895C229.183 294.491 227.692 297.771 227.394 298.07H227.99C228.884 298.07 230.674 297.175 232.463 294.789C232.463 295.386 233.059 299.263 239.023 298.964C239.023 298.964 235.146 297.175 236.041 294.789V294.491C238.427 296.877 241.707 293.895 241.707 293.895C238.427 293.895 238.128 292.106 238.128 291.211C242.005 293.597 244.092 289.72 243.496 289.124C243.496 289.124 236.638 291.808 242.303 279.582C242.9 278.091 244.987 275.705 242.9 273.618C240.812 271.53 239.918 267.952 242.303 266.163C242.303 266.163 239.62 264.97 236.041 267.356C234.252 268.549 232.761 267.952 232.761 267.952C232.761 267.952 229.779 266.461 227.095 267.654C225.008 268.549 224.412 269.742 224.113 270.337C222.622 269.742 219.939 271.53 219.64 271.53C219.343 271.53 219.64 272.723 219.343 273.319C219.044 273.916 218.746 276.004 221.43 276.004C224.113 275.705 225.902 275.109 225.902 275.109C225.902 275.109 226.499 275.705 226.797 277.196C227.095 278.986 227.99 281.669 224.412 281.967L225.306 282.862C226.201 283.458 229.183 283.458 229.481 281.669C230.077 280.178 230.972 279.88 230.972 279.88C230.972 279.88 232.463 284.055 226.499 284.651C220.535 285.247 216.957 287.335 215.764 291.808C222.92 290.019 224.113 292.106 224.113 292.106ZM229.779 271.53C228.586 272.425 227.394 272.127 225.902 270.636C227.394 268.847 229.481 268.25 232.463 270.337C232.463 270.337 230.972 270.636 229.779 271.53Z" fill="white"/>
</g>
<mask id="mask25_14_83" style="mask-type:luminance" maskUnits="userSpaceOnUse" x="-14" y="-14" width="475" height="541">
<path d="M460.283 -13.543H-13.8427V526.187H460.283V-13.543Z" fill="white"/>
</mask>
<g mask="url(#mask25_14_83)">
<path d="M165.968 230.679L156.426 214.577L146.586 230.977L156.426 249.465L165.968 230.679Z" fill="white"/>
</g>
<mask id="mask26_14_83" style="mask-type:luminance" maskUnits="userSpaceOnUse" x="-14" y="-14" width="475" height="541">
<path d="M460.283 -13.543H-13.8427V526.187H460.283V-13.543Z" fill="white"/>
</mask>
<g mask="url(#mask26_14_83)">
<path d="M304.328 230.679L294.487 214.577L284.647 230.977L294.786 249.465L304.328 230.679Z" fill="white"/>
</g>
<mask id="mask27_14_83" style="mask-type:luminance" maskUnits="userSpaceOnUse" x="-14" y="-14" width="475" height="541">
<path d="M460.283 -13.543H-13.8427V526.187H460.283V-13.543Z" fill="white"/>
</mask>
<g mask="url(#mask27_14_83)">
<path d="M223.52 391.405H224.712C280.774 380.372 325.205 329.979 325.798 276.599V144.501H278.386C281.368 143.308 283.753 140.326 283.753 136.747C283.753 132.275 280.175 128.398 275.404 128.398H263.774C259.003 127.802 258.109 123.031 258.109 123.031C252.443 128.995 246.777 119.751 246.777 119.751L236.937 123.031L234.551 118.558C235.744 116.172 237.235 113.787 238.726 112.594C241.41 110.208 242.304 109.91 242.304 109.91C241.111 107.226 240.515 104.841 240.515 103.946C240.814 103.648 242.901 102.754 244.988 101.859C245.883 101.561 246.777 101.262 247.672 100.964H249.163L247.97 99.7715C248.268 99.7715 248.865 100.368 249.163 100.368C249.759 100.666 250.355 100.964 250.952 100.964C251.548 100.964 252.443 100.964 252.145 100.368C252.443 100.368 253.039 100.666 253.337 100.666H254.53C254.828 100.368 255.127 100.368 255.425 100.07C255.723 99.7715 256.021 99.7716 256.319 99.4736C256.319 99.1752 256.617 99.1751 256.617 98.8772C256.617 98.5787 256.617 98.2808 256.319 98.2808C255.723 97.6844 255.127 97.6844 254.53 97.3859L252.443 96.7895C251.847 96.4916 251.548 96.4916 250.952 96.1931C249.461 95.5967 250.952 96.1931 251.548 96.1931H253.039C253.636 96.1931 253.934 95.8952 254.53 95.8952L256.021 95.2988C256.021 95.2988 254.53 95.8952 251.25 93.5096C250.057 92.6147 249.461 91.4219 248.566 90.5276C246.777 88.4405 244.988 86.3528 242.901 84.5636C240.814 82.7744 238.726 80.9852 236.34 79.7924C234.253 78.6001 231.868 77.7052 229.184 77.7052H228.885C228.885 77.4073 228.289 72.6361 230.973 66.6721C232.464 63.3922 232.762 60.1117 231.271 57.4281C230.078 55.341 228.289 54.1482 226.202 53.5518C225.903 53.5518 222.325 52.9554 218.151 55.9374C216.958 56.5338 215.765 57.1302 214.572 57.7261C218.151 53.5518 225.903 49.377 227.395 49.0785V48.7806C227.096 48.7806 222.027 49.0785 218.747 51.1662C219.344 49.9734 219.94 47.8857 219.344 44.6058V44.3079H219.045C219.045 44.3079 211.292 46.0971 211.292 56.8317C211.292 56.8317 211.292 58.3225 210.696 60.1117C209.801 60.7081 209.503 61.3045 209.503 61.3045C209.801 61.0066 210.1 61.0066 210.398 61.0066C210.1 61.603 209.801 62.4973 209.205 63.0937C207.416 65.4793 205.925 69.6541 205.925 73.2325V73.5304L206.223 73.2325C206.223 73.2325 209.205 71.1448 209.801 68.4613C210.1 67.2685 210.994 66.3742 211.292 65.7778C211.59 66.9706 211.888 69.6541 211.888 70.2505V70.5484H212.187C212.783 69.952 215.169 66.6721 212.783 62.1994C212.485 61.603 212.485 60.7081 212.485 59.8138C216.362 58.9189 219.045 60.4102 220.238 61.0066C220.834 61.603 221.431 62.1994 221.729 63.0937C222.325 64.8829 222.027 66.9706 220.834 69.0577C219.94 71.1448 218.747 72.6361 217.852 74.1268C215.467 78.0037 213.678 80.6873 214.274 86.6513C215.169 93.5096 219.642 96.7895 222.325 97.9823C223.816 99.4736 224.711 101.859 225.307 103.051C226.202 104.841 225.307 104.543 225.307 104.543C220.238 104.841 218.449 102.157 214.87 100.666C213.976 100.368 213.081 100.07 212.187 100.07C210.1 99.1751 207.118 99.1751 204.434 100.07C199.364 101.561 196.085 105.736 197.277 109.314C197.575 110.507 198.47 111.699 199.961 112.295C201.154 112.892 202.644 113.19 204.434 113.19C205.626 113.19 207.118 112.892 208.608 112.594C212.783 111.103 215.765 108.121 216.063 105.139C217.852 105.736 222.921 109.612 226.798 111.103C230.973 112.892 232.464 108.121 232.464 108.121C233.657 110.208 230.675 117.067 228.885 120.944L227.096 122.136L226.202 117.663L222.027 123.329C220.536 122.732 216.063 117.365 216.063 117.365C215.467 123.031 213.678 124.521 213.081 124.82L203.241 118.259C203.241 122.732 198.768 125.416 196.382 125.416L189.822 122.136C190.418 126.907 186.542 127.802 185.349 127.802H174.018C169.545 127.802 165.669 131.38 165.669 136.151C165.669 139.729 167.756 142.711 171.036 143.904H122.431V276.003C123.027 329.976 167.461 380.373 223.52 391.405ZM268.547 131.979H268.845C274.213 130.786 277.791 132.575 277.791 132.575C279.58 133.47 280.177 134.662 279.878 135.855C279.58 138.241 276.3 140.924 276.002 139.434C275.405 136.153 271.827 134.662 271.827 134.662C271.827 134.662 267.056 132.277 268.547 131.979ZM276.598 167.165C276.598 166.867 276.896 166.271 276.896 165.973C275.107 162.693 273.616 160.009 273.02 159.114C272.722 158.816 272.722 158.816 272.423 158.518C271.529 157.325 270.933 156.729 271.529 156.43C271.827 156.132 272.423 156.43 273.02 156.43C273.02 156.43 275.107 157.623 277.492 161.798C277.791 162.096 277.791 162.394 278.089 162.991C279.58 159.711 281.369 157.623 283.456 157.623C285.544 157.623 287.333 159.711 288.824 162.991C289.122 162.394 289.42 161.798 289.718 161.5C292.104 157.325 294.192 156.132 294.192 156.132C294.49 155.834 295.086 155.536 295.682 156.132C295.981 156.729 295.682 157.027 294.788 158.219L294.192 158.816C293.297 159.711 291.806 162.394 290.017 165.973C290.315 166.271 290.315 166.271 290.613 166.867C300.155 165.078 307.61 165.376 308.206 167.762C308.803 169.551 303.436 172.235 298.664 174.919C303.436 177.602 308.803 180.286 308.206 182.075C307.312 184.759 300.454 185.057 290.911 183.268L290.613 185.355V185.952L291.21 186.846C291.21 186.846 293.893 191.617 295.682 193.407C296.279 194.003 295.981 194.301 295.981 194.301C295.981 194.599 295.682 194.599 295.385 194.599C295.086 194.599 294.49 194.301 293.595 194.003C292.999 193.704 291.806 191.915 290.017 188.933C289.718 189.53 289.718 190.425 289.421 191.021C287.929 194.897 286.141 196.985 283.755 196.985C281.369 196.985 278.984 194.003 277.791 189.232C276.3 191.915 275.107 193.704 274.511 194.003C273.616 194.599 273.02 194.599 272.722 194.599C272.423 194.599 272.423 194.599 272.125 194.301C272.125 194.301 271.827 193.704 272.423 193.407C274.213 191.319 276.896 186.846 276.896 186.548C276.896 186.548 277.195 186.25 277.195 185.653C277.195 185.653 276.896 183.566 276.896 182.97C267.652 184.759 260.496 184.461 259.899 181.777C259.303 179.988 264.074 177.006 269.143 174.322C267.652 173.726 266.459 172.831 265.267 172.235C261.987 170.445 259.601 168.656 259.899 167.463C259.601 165.674 266.758 165.376 276.598 167.165ZM222.031 56.5371C222.031 56.5371 223.224 54.7478 226.504 56.5371C226.504 56.5371 225.311 58.9221 222.031 56.5371ZM223.821 80.6905C223.821 91.7236 233.959 95.6 234.257 95.8984C233.959 95.6 233.661 95.0036 233.661 94.7057C234.854 95.3021 236.047 95.8984 237.239 96.1964C237.836 96.4949 238.432 96.4949 239.029 96.7928H239.327C239.029 96.4949 238.73 95.8984 238.73 95.6C239.625 96.1964 240.519 96.4949 241.414 96.4949C241.712 96.4949 242.309 96.4949 242.607 96.1964L243.203 95.8984C243.501 95.8984 243.799 95.6 244.098 95.6C244.098 95.8984 243.799 96.1964 243.799 96.4949L243.203 97.0913C242.607 97.3892 242.011 97.6877 241.414 97.6877C241.116 97.6877 240.818 97.6877 240.519 97.3892C240.221 97.6877 239.625 97.6877 239.029 97.6877C238.432 97.6877 237.537 97.6877 236.941 97.3892C236.345 97.0913 236.047 97.0913 235.45 96.7928C232.468 97.0913 220.839 92.9164 223.821 80.6905ZM228.592 128.699C237.537 125.42 248.571 130.191 248.571 130.191C252.149 131.681 254.236 133.172 256.025 134.663C256.622 135.26 256.92 135.558 257.218 135.856C258.411 137.049 260.499 138.838 262.288 139.136C263.778 139.435 261.095 142.417 256.92 140.329C256.622 140.031 256.025 139.733 255.429 139.136C251.255 135.856 247.676 135.856 247.676 135.856C243.799 135.558 244.694 137.943 244.694 137.943C246.781 142.118 241.414 140.925 238.73 137.943C234.555 133.471 230.679 131.98 228.293 130.787C225.61 129.892 227.399 128.998 228.592 128.699ZM230.083 191.319C230.381 191.617 231.275 193.407 229.785 196.985C229.785 196.985 225.013 199.668 218.155 197.283C218.155 196.985 218.155 192.214 217.857 191.319C217.559 190.425 214.875 188.635 214.875 188.635C214.875 188.337 212.191 171.937 214.278 165.376C214.278 165.376 214.278 160.009 216.067 159.412C217.26 159.114 216.962 165.078 216.962 165.078V171.937C214.577 173.726 216.366 174.024 216.366 174.024C223.821 172.831 227.697 172.533 229.486 172.831H230.083C231.275 173.129 231.275 173.726 231.275 173.726C231.275 173.726 231.574 175.217 226.206 176.111C226.206 176.111 223.224 176.707 222.628 177.9C222.031 179.093 221.733 182.97 223.224 185.355C223.224 185.355 224.119 185.057 223.821 183.864C223.522 182.671 223.821 179.689 224.715 179.093C225.61 178.199 233.363 177.304 233.363 175.217C233.363 175.217 232.468 171.638 234.257 167.762C235.748 165.078 237.537 168.656 237.239 173.427C237.239 173.427 236.941 180.882 236.941 182.373C236.941 183.864 236.047 188.635 230.977 189.53C230.977 189.53 229.188 190.126 228.89 191.021C228.592 191.021 229.785 191.021 230.083 191.319ZM222.031 168.06C222.031 169.551 222.031 170.445 221.733 171.042C220.541 171.042 219.646 171.34 218.752 171.34C218.155 168.656 218.155 165.376 218.155 165.376L218.453 159.711C218.453 159.412 218.453 156.132 220.242 156.132C221.733 156.132 221.733 160.009 221.733 160.009C221.733 160.009 221.733 164.183 222.031 168.06ZM228.89 162.991C228.89 160.307 228.89 156.729 230.679 156.729C231.872 156.729 231.872 159.114 231.872 160.605V166.867C231.275 167.762 230.977 170.445 230.977 171.042C230.381 170.744 229.785 170.744 228.89 170.744C228.592 170.147 228.89 165.674 228.89 162.991ZM225.013 154.045H225.311C227.697 154.641 227.399 168.656 226.803 170.445C225.908 170.445 225.013 170.445 224.119 170.744C223.821 170.147 223.821 169.551 223.821 168.656C223.821 167.165 223.821 157.921 224.119 155.834C223.821 154.343 224.715 154.045 225.013 154.045ZM196.387 129.891C204.438 126.909 214.278 131.382 214.278 131.382C222.329 134.96 223.522 138.837 223.522 138.837C223.522 138.837 224.715 143.012 220.242 139.731C216.664 137.048 213.98 137.644 213.98 137.644C211.296 137.644 210.7 144.204 205.034 138.539C201.158 134.662 197.58 133.172 195.492 131.979C193.405 130.786 195.194 130.488 196.387 129.891ZM173.724 132.575C177.302 130.19 181.775 131.68 183.564 134.364C187.441 140.03 192.51 140.924 190.125 141.223C188.634 141.521 184.161 140.03 182.074 138.241C179.39 135.855 175.215 137.644 178.197 140.03C178.495 140.328 177.899 140.626 177.302 140.626C171.637 140.626 169.848 135.259 173.724 132.575ZM143.01 168.358C143.905 165.674 151.061 165.376 160.902 167.463C160.902 167.165 161.2 166.569 161.2 166.271C159.411 162.991 157.92 160.307 157.323 159.412L156.727 158.816C155.833 157.623 155.236 157.027 155.833 156.729C156.131 156.43 156.727 156.729 157.323 156.729C157.323 156.729 159.411 157.921 161.797 162.096C162.095 162.394 162.095 162.693 162.393 163.289C163.884 160.009 165.673 157.921 167.761 157.921C169.848 157.921 171.637 160.009 173.128 163.289C173.426 162.693 173.724 162.096 174.023 161.798C176.408 157.623 178.495 156.43 178.495 156.43C178.793 156.132 179.39 155.834 179.986 156.43C180.284 157.027 179.986 157.325 179.092 158.518C178.793 158.816 178.793 158.816 178.495 159.114C177.601 160.009 176.11 162.693 174.32 166.271C174.619 166.569 174.619 166.569 174.917 167.165C184.459 165.376 191.914 165.674 192.51 168.06C193.107 169.849 187.739 172.533 182.968 175.217C187.739 177.9 193.107 180.584 192.51 182.373C191.616 185.057 184.757 185.355 175.215 183.566L174.917 185.653V186.25L175.513 187.145C175.513 187.145 178.197 191.915 179.986 193.704C180.582 194.301 180.284 194.599 180.284 194.599C180.284 194.897 179.986 194.897 179.688 194.897C179.39 194.897 178.793 194.599 177.899 194.301C177.302 194.003 176.11 192.214 174.32 189.232C174.023 189.828 174.023 190.722 173.724 191.319C172.233 195.196 170.444 197.283 168.059 197.283C165.673 197.283 163.287 194.301 162.095 189.53C160.604 192.214 159.411 194.003 158.815 194.301C157.92 194.897 157.323 194.897 157.025 194.897C156.727 194.897 156.727 194.897 156.429 194.599C156.429 194.599 156.131 194.003 156.727 193.704C158.516 191.617 161.2 187.144 161.2 186.846C161.2 186.846 161.498 186.548 161.498 185.952C161.498 185.952 161.2 183.864 161.2 183.268C151.956 185.057 144.799 184.759 144.203 182.075C143.607 180.286 148.378 177.304 153.447 174.62C151.956 174.024 150.763 173.129 149.571 172.533C145.098 171.34 142.414 169.551 143.01 168.358ZM131.679 294.196C131.381 293.302 131.381 292.109 131.083 291.214C131.083 290.618 131.083 290.32 130.784 289.723C130.486 288.531 130.486 287.338 130.188 286.145V285.25C130.188 284.057 129.89 282.567 129.89 281.374V281.076C129.89 279.585 129.89 278.094 129.591 276.603V205.634H318.648V281.671C318.648 282.863 318.35 284.056 318.35 285.249C318.35 285.845 318.35 286.143 318.052 286.74C318.052 287.634 317.754 288.529 317.754 289.125C317.754 290.02 317.456 290.915 317.157 292.107C317.157 292.704 316.859 293.002 316.859 293.598C316.561 295.089 316.263 296.878 315.666 298.369H310.597V283.758H297.179V271.83H284.356V257.815H272.727V245.291H260.202V234.556H247.082L246.783 220.541H233.663L225.612 209.806L218.754 220.541H204.142V233.661H188.636V246.186H175.218V258.113H162.097V271.532H148.678V283.161H139.136V295.387H132.576C131.979 295.089 131.977 294.793 131.679 294.196ZM150.465 335.645C150.167 335.347 150.167 335.049 149.869 334.75C149.272 333.856 148.676 332.961 148.079 332.365C148.079 332.365 148.079 332.067 147.781 332.067C145.992 329.383 144.203 326.401 142.712 323.717C142.712 323.419 142.414 323.419 142.414 323.121C140.923 320.139 139.432 317.157 137.941 313.877H150.167V300.757H162.691V287.338H177.005V273.919H190.125V260.799H204.14V247.38H217.559V234.856H232.468V247.976H244.396V261.097H257.218V274.217H270.339V287.039H283.161V300.757H299.561V315.965H309.998C309.402 316.859 309.104 318.052 308.508 318.946V319.244C307.017 322.226 305.525 325.208 303.736 327.892C303.736 327.892 303.736 328.19 303.438 328.19C302.842 329.085 302.246 329.979 301.649 330.874C299.86 333.558 297.772 336.54 295.984 338.925C295.685 339.223 295.685 339.223 295.387 339.522L289.423 346.678C289.125 346.976 289.125 347.275 288.827 347.275C288.23 347.871 287.634 348.766 287.038 349.362C286.739 349.66 286.441 349.958 286.143 350.256C284.056 352.344 281.968 354.133 279.881 356.22C279.284 356.519 278.986 357.115 278.39 357.413C277.794 358.009 277.197 358.308 276.601 358.904C276.004 359.202 275.408 359.799 275.11 360.097C274.215 360.693 273.619 361.289 272.725 361.886C271.83 362.482 271.233 363.079 270.339 363.675C269.742 363.973 269.146 364.57 268.848 364.868C268.251 365.464 267.357 365.763 266.76 366.359C266.164 366.657 265.568 366.956 265.269 367.253C264.375 367.85 263.182 368.446 262.288 369.043C261.691 369.341 261.393 369.639 260.796 369.938C259.902 370.534 259.007 371.13 257.814 371.428C257.218 371.726 256.92 372.025 256.324 372.323C255.429 372.919 254.535 373.217 253.64 373.814C253.342 374.112 252.745 374.112 252.447 374.41C251.255 375.007 249.763 375.603 248.571 376.199C248.273 376.497 247.974 376.497 247.676 376.497C246.781 376.796 245.589 377.392 244.694 377.69C244.396 377.989 243.799 377.989 243.501 378.287C242.309 378.585 241.414 379.181 240.221 379.479C239.923 379.479 239.625 379.778 239.327 379.778C237.836 380.374 236.643 380.672 235.152 381.269C234.854 381.269 234.257 381.567 233.959 381.567C232.766 381.865 231.872 382.163 230.679 382.461C230.381 382.461 229.785 382.759 229.486 382.759C227.995 383.058 226.504 383.356 225.013 383.654C223.522 383.356 222.031 383.058 220.541 382.759C220.242 382.759 219.646 382.461 219.348 382.461C218.155 382.163 217.26 381.865 216.067 381.567C215.77 381.567 215.173 381.269 214.875 381.269C213.384 380.97 212.191 380.374 210.7 379.778C210.402 379.778 210.402 379.778 210.104 379.479C208.911 379.181 207.718 378.585 206.526 377.989C206.227 377.69 205.631 377.69 205.333 377.392C204.438 377.094 203.245 376.497 202.351 376.199C202.052 375.901 201.456 375.901 201.158 375.603C199.965 375.007 198.474 374.41 197.282 373.814C196.983 373.515 196.685 373.515 196.387 373.217C195.492 372.621 194.3 372.323 193.405 371.726C192.808 371.428 192.51 371.13 191.914 370.832C191.019 370.235 190.125 369.937 189.528 369.341C188.932 369.043 188.634 368.745 188.038 368.446C186.845 367.85 185.652 366.955 184.459 366.359C183.863 366.061 183.564 365.763 182.968 365.464C182.372 364.868 181.477 364.57 180.881 363.974C179.183 362.547 177.439 361.542 175.812 360.097C167.223 352.181 156.645 344.27 150.465 335.645Z" fill="white"/>
</g>
<mask id="mask28_14_83" style="mask-type:luminance" maskUnits="userSpaceOnUse" x="-14" y="-14" width="475" height="541">
<path d="M460.283 -13.543H-13.8427V526.187H460.283V-13.543Z" fill="white"/>
</mask>
<g mask="url(#mask28_14_83)">
<path d="M172.229 184.754C172.229 184.157 172.527 183.263 172.527 183.263C170.738 182.965 169.247 182.368 167.458 182.07C165.669 182.666 163.88 182.965 162.091 183.263C162.091 183.263 162.091 184.157 162.389 184.754C162.985 185.052 166.862 186.245 172.229 184.754Z" fill="white"/>
</g>
<mask id="mask29_14_83" style="mask-type:luminance" maskUnits="userSpaceOnUse" x="-14" y="-14" width="475" height="541">
<path d="M460.283 -13.543H-13.8427V526.187H460.283V-13.543Z" fill="white"/>
</mask>
<g mask="url(#mask29_14_83)">
<path d="M171.036 165.669C171.036 165.37 171.036 165.073 170.738 165.073C169.843 162.09 168.353 160.898 167.16 160.898C165.967 160.898 164.476 162.09 163.581 165.073C163.581 165.37 163.283 165.669 163.283 165.967C166.563 164.476 169.247 165.073 171.036 165.669Z" fill="white"/>
</g>
<mask id="mask30_14_83" style="mask-type:luminance" maskUnits="userSpaceOnUse" x="-14" y="-14" width="475" height="541">
<path d="M460.283 -13.543H-13.8427V526.187H460.283V-13.543Z" fill="white"/>
</mask>
<g mask="url(#mask30_14_83)">
<path d="M162.39 186.249C162.688 188.038 162.688 188.038 163.284 188.932C163.88 189.231 166.862 190.125 171.335 188.932C171.634 188.336 171.932 187.143 171.932 186.249C170.142 186.845 168.353 186.845 166.862 186.845C164.775 186.845 163.284 186.547 162.39 186.249Z" fill="white"/>
</g>
<mask id="mask31_14_83" style="mask-type:luminance" maskUnits="userSpaceOnUse" x="-14" y="-14" width="475" height="541">
<path d="M460.283 -13.543H-13.8427V526.187H460.283V-13.543Z" fill="white"/>
</mask>
<g mask="url(#mask31_14_83)">
<path d="M279.581 190.718C279.88 191.612 280.476 192.507 280.774 192.805C282.862 193.401 283.16 193.401 285.545 192.805C286.142 192.208 286.142 191.612 286.738 190.419C285.247 190.718 284.352 190.718 283.16 190.718C281.669 191.016 280.178 191.016 279.581 190.718Z" fill="white"/>
</g>
<mask id="mask32_14_83" style="mask-type:luminance" maskUnits="userSpaceOnUse" x="-14" y="-14" width="475" height="541">
<path d="M460.283 -13.543H-13.8427V526.187H460.283V-13.543Z" fill="white"/>
</mask>
<g mask="url(#mask32_14_83)">
<path d="M163.879 190.718C164.178 191.612 164.774 192.507 165.072 192.805C167.16 193.401 167.458 193.401 169.843 192.805C170.44 192.208 170.44 191.612 171.036 190.419C169.545 190.718 168.651 190.718 167.458 190.718C165.967 191.016 164.476 191.016 163.879 190.718Z" fill="white"/>
</g>
<mask id="mask33_14_83" style="mask-type:luminance" maskUnits="userSpaceOnUse" x="-14" y="-14" width="475" height="541">
<path d="M460.283 -13.543H-13.8427V526.187H460.283V-13.543Z" fill="white"/>
</mask>
<g mask="url(#mask33_14_83)">
<path d="M287.931 184.754C287.931 184.157 288.229 183.263 288.229 183.263C286.44 182.965 284.949 182.368 283.16 182.07C281.37 182.666 279.581 182.965 277.792 183.263C277.792 183.263 277.792 184.157 278.09 184.754C278.686 185.052 282.563 186.245 287.931 184.754Z" fill="white"/>
</g>
<mask id="mask34_14_83" style="mask-type:luminance" maskUnits="userSpaceOnUse" x="-14" y="-14" width="475" height="541">
<path d="M460.283 -13.543H-13.8427V526.187H460.283V-13.543Z" fill="white"/>
</mask>
<g mask="url(#mask34_14_83)">
<path d="M278.086 186.249C278.384 188.038 278.384 188.038 278.981 188.932C279.577 189.231 282.559 190.125 287.032 188.932C287.33 188.336 287.628 187.143 287.628 186.249C285.839 186.845 284.05 186.845 282.559 186.845C280.77 186.845 279.279 186.547 278.086 186.249Z" fill="white"/>
</g>
<mask id="mask35_14_83" style="mask-type:luminance" maskUnits="userSpaceOnUse" x="-14" y="-14" width="475" height="541">
<path d="M460.283 -13.543H-13.8427V526.187H460.283V-13.543Z" fill="white"/>
</mask>
<g mask="url(#mask35_14_83)">
<path d="M286.738 165.669C286.738 165.37 286.738 165.073 286.44 165.073C285.545 162.09 284.054 160.898 282.862 160.898C281.669 160.898 280.178 162.09 279.283 165.073C279.283 165.37 278.985 165.669 278.985 165.967C282.265 164.476 285.247 165.073 286.738 165.669Z" fill="white"/>
</g>
</g>
<defs>
<clipPath id="clip0_14_83">
<rect width="445.546" height="512" fill="white"/>
</clipPath>
</defs>
</svg>
