<svg width="512" height="512" viewBox="0 0 512 512" fill="none" xmlns="http://www.w3.org/2000/svg">
<path d="M254.682 5.0176C255.757 5.0688 257.447 5.0688 258.445 5.0176C259.444 4.992 258.573 4.9408 256.5 4.9408C254.426 4.9408 253.607 4.992 254.682 5.0176Z" fill="white"/>
<path d="M249.946 5.22235C249.485 5.27355 247.847 5.45275 246.311 5.58075C244.775 5.73435 242.036 6.06715 240.218 6.32315C238.426 6.60475 234.97 7.19355 232.564 7.65435C230.183 8.14075 226.394 8.95995 224.192 9.47195C221.991 10.0095 218.1 11.0335 215.565 11.7503C213.031 12.4671 208.832 13.7215 206.221 14.5407C203.61 15.3599 199.028 16.9215 196.032 17.9711C193.012 19.0463 188.25 20.8127 185.46 21.9135C182.644 23.0143 178.215 24.8319 175.629 25.9071C173.018 27.0079 168.692 28.9023 166.029 30.1055C163.341 31.3087 159.911 32.8703 158.375 33.6127C156.839 34.3551 154.279 35.5839 152.666 36.3519C151.053 37.0943 147.188 39.0655 144.039 40.7039C140.916 42.3423 136.41 44.7231 134.08 46.0031C131.751 47.2575 127.86 49.4591 125.453 50.8415C123.047 52.2495 118.848 54.7327 116.109 56.3967C113.37 58.0863 109.044 60.7999 106.509 62.4639C103.975 64.1279 100.109 66.7391 97.8819 68.3007C95.6803 69.8367 92.6851 71.9871 91.2259 73.0623C89.7411 74.1376 86.8995 76.3391 84.9027 77.9263C82.9059 79.5391 80.0643 81.8687 78.5795 83.1231C77.1203 84.3775 74.1763 87.0912 72.0515 89.1648C69.9523 91.2384 67.3667 93.9008 66.3171 95.104C65.0371 96.5888 63.9619 98.1759 62.9635 100.07C61.7603 102.349 61.3251 103.552 60.5315 106.624C59.9939 108.672 59.1747 112.179 58.6883 114.381C58.2275 116.557 57.4083 120.934 56.8451 124.058C56.3075 127.206 55.5651 132.326 55.1555 135.45C54.7715 138.573 54.2339 143.539 53.9523 146.483C53.6963 149.402 53.4147 152.832 53.3379 154.112C53.2611 155.366 53.0819 158.592 52.9539 161.254C52.8259 163.917 52.7235 170.854 52.7235 176.64C52.7235 182.451 52.8259 189.363 52.9539 192.026C53.0819 194.688 53.2611 197.914 53.3379 199.168C53.4147 200.448 53.6451 203.443 53.8243 205.85C54.0291 208.23 54.4643 212.71 54.7971 215.782C55.1299 218.854 55.7443 223.59 56.1283 226.33C56.5379 229.043 57.1779 233.242 57.5875 235.648C57.9971 238.054 58.9187 242.944 59.6355 246.554C60.3523 250.138 61.5043 255.437 62.1955 258.304C62.8611 261.171 64.0899 265.958 64.8835 268.954C65.7027 271.974 67.2131 277.248 68.2627 280.704C69.3123 284.186 70.9507 289.254 71.9235 291.994C72.8707 294.707 74.3043 298.701 75.0979 300.826C75.9171 302.95 77.5555 307.149 78.7587 310.144C79.9619 313.165 81.8563 317.619 82.9571 320.102C84.0579 322.56 85.7987 326.374 86.8483 328.576C87.8723 330.778 90.0483 335.13 91.6355 338.253C93.2483 341.402 95.9107 346.368 97.5235 349.286C99.1619 352.23 101.952 357.018 103.719 359.962C105.485 362.88 107.968 366.925 109.248 368.922C110.528 370.918 112.832 374.4 114.368 376.678C115.904 378.931 118.541 382.694 120.205 385.024C121.869 387.354 124.608 391.066 126.272 393.267C127.936 395.469 131.239 399.667 133.62 402.586C135.975 405.53 139.277 409.498 140.941 411.443C142.605 413.363 145.037 416.154 146.343 417.613C147.648 419.098 150.618 422.298 152.922 424.781C155.226 427.238 160.525 432.64 164.724 436.762C168.922 440.909 174.144 445.926 176.346 447.923C178.548 449.92 182.106 453.094 184.231 454.938C186.381 456.806 190.375 460.211 193.114 462.464C195.853 464.742 199.668 467.866 201.613 469.402C203.533 470.938 207.808 474.214 211.085 476.646C214.362 479.104 219.098 482.611 221.658 484.403C224.192 486.195 229.108 489.6 232.564 491.93C236.045 494.285 240.858 497.434 243.264 498.97C245.671 500.48 249.664 502.963 252.122 504.474C255.552 506.573 256.704 507.161 256.986 506.982C257.191 506.829 260.519 504.73 264.384 502.298C268.276 499.866 274.829 495.616 278.976 492.851C283.098 490.086 288.525 486.374 290.983 484.608C293.466 482.867 297.997 479.539 301.069 477.235C304.141 474.931 308.57 471.552 310.9 469.709C313.255 467.866 317.658 464.282 320.756 461.722C323.828 459.162 327.744 455.834 329.485 454.298C331.2 452.787 334.477 449.869 336.756 447.795C339.034 445.747 344.999 439.962 350.042 434.97C355.06 429.952 360.948 423.885 363.124 421.504C365.3 419.098 369.012 414.899 371.367 412.16C373.722 409.446 377.664 404.685 380.122 401.638C382.58 398.566 385.959 394.189 387.674 391.936C389.364 389.658 392.026 386.022 393.613 383.821C395.175 381.619 397.735 377.907 399.322 375.578C400.884 373.248 403.648 368.998 405.44 366.131C407.232 363.264 409.869 358.963 411.277 356.557C412.685 354.15 414.989 350.08 416.423 347.469C417.856 344.883 420.8 339.2 422.976 334.874C425.127 330.547 428.096 324.326 429.556 321.05C430.989 317.798 433.396 312.064 434.906 308.326C436.416 304.614 438.567 298.931 439.719 295.731C440.845 292.531 442.56 287.462 443.482 284.467C444.429 281.472 445.76 277.12 446.426 274.79C447.117 272.435 448.32 268.032 449.114 264.96C449.908 261.888 450.983 257.485 451.52 255.155C452.058 252.826 452.928 248.73 453.466 246.067C454.004 243.405 454.823 238.925 455.284 236.134C455.744 233.344 456.461 228.71 456.871 225.843C457.255 222.976 457.869 218.163 458.202 215.168C458.535 212.173 459.047 206.72 459.303 203.059C459.559 199.398 459.917 193.382 460.071 189.722C460.224 185.626 460.301 178.893 460.199 172.16C460.122 166.17 459.943 159.462 459.789 157.261C459.661 155.059 459.328 150.656 459.047 147.456C458.791 144.256 458.228 139.059 457.844 135.936C457.434 132.813 456.794 128.23 456.384 125.747C455.975 123.29 455.207 119.091 454.669 116.429C454.132 113.766 453.21 109.67 452.621 107.341C451.751 103.859 451.316 102.63 450.138 100.352C449.268 98.6112 448.167 96.896 447.168 95.7439C446.324 94.72 444.404 92.6463 442.919 91.1359C441.46 89.6255 438.72 87.0143 436.852 85.3503C434.983 83.6863 432.013 81.1519 430.298 79.7439C428.557 78.3103 425.972 76.2879 424.589 75.2127C423.181 74.1375 420.288 71.9871 418.138 70.4767C416.013 68.9407 412.557 66.5343 410.484 65.1519C408.41 63.7439 404.928 61.4399 402.727 60.0319C400.525 58.6495 396.532 56.1919 393.844 54.6047C391.181 52.9919 387.034 50.5599 384.628 49.2031C382.221 47.8207 377.946 45.4911 375.156 43.9807C372.34 42.4703 366.656 39.5775 362.509 37.5039C358.388 35.4303 352.192 32.4863 348.788 30.9503C345.383 29.4143 340.647 27.3151 338.24 26.2911C335.834 25.2671 331.738 23.5775 329.127 22.5535C326.516 21.5039 322.266 19.8911 319.655 18.9439C317.044 18.0223 312.564 16.4863 309.696 15.5391C306.829 14.5919 302.656 13.2863 300.455 12.6207C298.253 11.9807 294.311 10.8799 291.725 10.2143C289.114 9.54875 284.839 8.57595 282.253 8.03835C279.642 7.50075 276.084 6.83515 274.343 6.57915C272.628 6.29755 269.709 5.88795 267.917 5.68315C265.792 5.42715 262.183 5.24795 257.703 5.19675C253.914 5.17115 250.407 5.17115 249.946 5.22235Z" fill="#0060A9"/>
<path d="M252.481 19.2768C251.815 19.328 249.921 19.4816 248.231 19.6352C246.567 19.7888 243.777 20.096 242.036 20.352C240.321 20.608 237.146 21.1456 234.996 21.5808C232.871 21.9904 229.364 22.7584 227.239 23.2704C225.089 23.7824 221.428 24.7552 219.098 25.4208C216.769 26.0864 213.159 27.1616 211.085 27.8272C209.012 28.4928 205.172 29.7728 202.586 30.6688C199.975 31.5392 195.981 32.9984 193.703 33.8688C191.45 34.7392 187.405 36.352 184.717 37.4528C182.055 38.528 177.473 40.4992 174.529 41.8048C171.585 43.1104 167.105 45.1328 164.57 46.336C162.036 47.5136 156.89 50.048 153.153 51.968C149.415 53.8624 144.372 56.4992 141.991 57.7792C139.585 59.0848 135.412 61.4144 132.749 62.9504C130.087 64.4608 125.479 67.2 122.535 68.992C119.617 70.8096 115.188 73.6 112.705 75.2384C110.247 76.8768 106.253 79.5904 103.847 81.3312C101.441 83.0464 98.1126 85.504 96.423 86.784C94.759 88.0384 92.3014 90.0096 90.9702 91.1104C89.639 92.2112 87.1814 94.3616 85.5174 95.8464C83.8278 97.3312 81.4982 99.584 80.295 100.838C79.0918 102.093 77.479 103.808 76.711 104.678L75.3286 106.24C73.639 112.819 72.7686 116.582 72.3078 118.861C71.8214 121.114 71.1302 124.877 70.7206 127.206C70.311 129.536 69.7478 133.094 69.4918 135.091C69.2102 137.088 68.775 140.749 68.519 143.206C68.263 145.664 67.879 149.811 67.6742 152.422C67.4694 155.008 67.1878 159.923 67.0342 163.328C66.855 167.168 66.8038 173.773 66.8806 180.89C66.9574 187.136 67.1878 194.714 67.3926 197.734C67.5974 200.73 67.879 204.442 68.0326 205.952C68.1606 207.488 68.4934 210.765 68.7494 213.222C69.031 215.706 69.4662 219.418 69.7222 221.466C70.0038 223.539 70.6182 227.558 71.079 230.426C71.5398 233.293 72.359 237.926 72.8966 240.742C73.4342 243.533 74.3558 248.013 74.9702 250.675C75.559 253.338 76.6598 257.869 77.3766 260.736C78.0934 263.578 79.4246 268.442 80.295 271.514C81.1654 274.586 82.9062 280.141 84.1606 283.853C85.3894 287.59 87.4374 293.325 88.6662 296.576C89.895 299.853 91.8662 304.819 93.0438 307.61C94.1958 310.4 95.8342 314.214 96.679 316.083C97.5238 317.952 99.5974 322.33 101.287 325.786C102.977 329.242 105.485 334.208 106.868 336.819C108.25 339.405 110.477 343.45 111.809 345.779C113.14 348.109 115.495 352.077 117.031 354.611C118.567 357.146 121.716 362.061 124.02 365.517C126.298 368.998 129.754 374.016 131.649 376.678C133.569 379.341 136.333 383.104 137.793 385.024C139.277 386.97 142.145 390.605 144.167 393.139C146.215 395.674 149.645 399.821 151.821 402.355C153.997 404.89 156.762 408.038 157.965 409.37C159.169 410.726 162.266 414.029 164.826 416.768C167.386 419.507 171.943 424.141 174.938 427.059C177.933 430.003 182.337 434.202 184.743 436.403C187.124 438.605 190.836 441.933 192.986 443.802C195.111 445.67 198.849 448.819 201.255 450.842C203.636 452.838 206.989 455.552 208.653 456.909C210.317 458.24 213.773 460.902 216.308 462.848C218.842 464.794 222.554 467.558 224.551 469.043C226.573 470.502 230.234 473.114 232.692 474.854C235.175 476.57 239.706 479.667 242.778 481.715C245.85 483.763 250.177 486.579 252.378 487.962C256.065 490.291 256.423 490.445 256.986 490.189C257.319 490.035 260.212 488.218 263.412 486.144C266.637 484.07 272.193 480.358 275.802 477.901C279.412 475.418 284.455 471.885 286.989 470.042C289.524 468.198 293.901 464.947 296.692 462.797C299.508 460.672 303.937 457.19 306.522 455.066C309.133 452.966 313.613 449.229 316.481 446.771C319.373 444.314 323.623 440.576 325.978 438.451C328.308 436.326 332.455 432.41 335.194 429.722C337.933 427.059 342.311 422.707 344.922 420.045C347.533 417.382 351.297 413.389 353.293 411.187C355.29 409.011 358.26 405.683 359.873 403.814C361.485 401.946 364.097 398.848 365.709 396.902C367.322 394.982 370.266 391.296 372.263 388.762C374.26 386.202 377.409 382.003 379.303 379.418C381.172 376.832 383.809 373.146 385.165 371.226C386.497 369.28 389.057 365.414 390.874 362.624C392.666 359.808 395.405 355.456 396.941 352.922C398.452 350.387 400.756 346.47 402.036 344.192C403.316 341.939 405.671 337.562 407.284 334.515C408.897 331.443 411.38 326.528 412.762 323.61C414.145 320.666 415.911 316.851 416.679 315.136C417.447 313.395 419.034 309.683 420.212 306.893C421.364 304.077 423.233 299.392 424.333 296.474C425.434 293.53 427.149 288.742 428.148 285.798C429.146 282.88 430.58 278.349 431.373 275.738C432.167 273.152 433.242 269.44 433.78 267.52C434.292 265.574 435.085 262.682 435.495 261.094C435.93 259.482 436.852 255.616 437.569 252.493C438.285 249.344 439.361 244.275 439.975 241.229C440.564 238.157 441.434 233.19 441.921 230.195C442.407 227.2 443.047 222.618 443.38 220.006C443.713 217.421 444.199 213.069 444.481 210.33C444.762 207.59 445.146 203.059 445.351 200.269C445.53 197.478 445.812 192.563 445.94 189.363C446.093 186.163 446.196 180.454 446.196 176.64C446.196 172.851 446.093 167.296 445.94 164.275C445.812 161.28 445.607 157.133 445.453 155.085C445.325 153.011 444.993 149.094 444.737 146.355C444.455 143.616 443.969 139.264 443.636 136.653C443.303 134.067 442.74 130.253 442.407 128.179C442.074 126.106 441.409 122.522 440.948 120.192C440.487 117.862 439.617 114.022 439.002 111.642C438.413 109.286 437.799 107.008 437.645 106.624C437.466 106.24 436.058 104.499 434.522 102.81C432.961 101.094 430.119 98.2784 428.199 96.5376C426.279 94.7968 423.335 92.2368 421.671 90.88C419.981 89.4976 416.935 87.0912 414.861 85.5296C412.788 83.9936 409.613 81.6896 407.821 80.4096C406.004 79.1296 403.06 77.1072 401.268 75.9296C399.45 74.7264 396.071 72.5248 393.741 71.0656C391.386 69.6064 387.469 67.2 384.986 65.7408C382.503 64.2816 379.124 62.3104 377.46 61.3632C375.796 60.416 372.442 58.5984 370.061 57.2928C367.655 56.0128 362.279 53.2224 358.157 51.1232C354.01 49.024 348.225 46.2336 345.281 44.8768C342.337 43.5456 337.754 41.4976 335.066 40.3456C332.404 39.168 328.205 37.4272 325.722 36.4032C323.239 35.4048 318.938 33.7408 316.122 32.7168C313.332 31.6672 308.34 29.952 305.089 28.8768C301.812 27.8016 297.383 26.4192 295.233 25.8048C293.108 25.1904 289.447 24.192 287.092 23.6288C284.762 23.04 280.948 22.1696 278.593 21.7088C276.263 21.2224 273.217 20.6848 271.809 20.48C270.401 20.2496 267.841 19.9424 266.1 19.7632C264.359 19.5584 260.852 19.3792 258.317 19.3024C255.783 19.2512 253.172 19.2256 252.481 19.2768Z" fill="#FFE003"/>
<path d="M253.223 68.2241C252.429 68.2753 250.407 68.4289 248.717 68.5825C247.053 68.7361 243.93 69.0945 241.805 69.4273C239.655 69.7345 236.224 70.3233 234.151 70.7585C232.077 71.1681 228.263 72.0641 225.651 72.7041C223.04 73.3441 218.739 74.5217 216.051 75.3409C213.389 76.1345 209.242 77.4657 206.835 78.2849C204.429 79.1041 200.717 80.4353 198.567 81.2289C196.442 82.0225 192.499 83.5585 189.837 84.6081C187.149 85.6833 183.002 87.4497 180.595 88.4993C178.189 89.5745 173.274 91.8785 169.664 93.6449C166.055 95.3857 161.037 97.9713 158.503 99.3281C155.968 100.71 151.975 102.989 149.619 104.397C147.29 105.805 143.783 107.981 141.863 109.235C139.917 110.49 136.922 112.563 135.181 113.843C133.44 115.098 130.88 117.069 129.472 118.221C128.064 119.347 125.351 121.805 123.431 123.699C121.511 125.568 119.335 127.898 118.567 128.896C117.799 129.92 116.928 131.379 116.621 132.173C116.314 132.992 115.802 134.605 115.495 135.808C115.187 137.011 114.778 139.187 114.547 140.672C114.343 142.131 114.061 144.358 113.933 145.638C113.805 146.893 113.626 149.171 113.523 150.707C113.421 152.243 113.344 158.362 113.37 164.275C113.395 170.214 113.472 175.514 113.523 176.026C113.6 176.563 113.651 177.741 113.677 178.637V180.275H399.194C399.475 176.794 399.629 171.827 399.706 166.963C399.808 161.357 399.757 156.134 399.578 152.781C399.424 149.837 399.143 146.022 398.963 144.307C398.759 142.566 398.375 139.955 398.119 138.47C397.863 137.011 397.351 134.963 397.018 133.939C396.685 132.915 396.147 131.533 395.815 130.918C395.507 130.278 394.202 128.563 392.947 127.104C391.667 125.619 389.671 123.546 388.493 122.47C387.29 121.395 385.498 119.834 384.499 118.989C383.501 118.118 381.146 116.275 379.277 114.893C377.408 113.51 374.029 111.13 371.751 109.645C369.472 108.134 365.709 105.779 363.379 104.371C361.024 102.989 357.491 100.941 355.469 99.8401C353.472 98.7393 348.711 96.3073 344.922 94.4129C341.107 92.5185 335.859 90.0097 333.248 88.8577C330.637 87.7057 327.155 86.2209 325.491 85.5297C323.802 84.8385 320.09 83.3793 317.223 82.2785C314.355 81.1521 309.363 79.3601 306.163 78.2849C302.963 77.1841 298.714 75.8273 296.691 75.2385C294.695 74.6497 291.418 73.7281 289.421 73.2161C287.399 72.6785 284.019 71.8593 281.869 71.3985C279.744 70.9121 276.083 70.2209 273.754 69.8113C271.399 69.4273 267.789 68.9153 265.741 68.7105C263.667 68.5313 260.314 68.3009 258.317 68.2497C256.32 68.1985 254.016 68.1985 253.223 68.2241Z" fill="#0060A9"/>
<path d="M255.552 77.3631C255.117 78.5919 254.323 80.8704 253.76 82.432L252.736 85.2736C246.49 85.2224 244.467 85.3503 243.008 85.6063C241.805 85.8111 239.911 86.2976 238.759 86.6304C237.632 86.9888 235.763 87.7568 234.637 88.32C233.511 88.9088 231.821 89.9072 230.874 90.5728C229.952 91.2128 228.442 92.4672 227.571 93.312C226.701 94.1568 225.319 95.744 224.525 96.7936C223.757 97.8688 222.707 99.5072 222.221 100.429C221.735 101.376 220.992 102.989 220.583 104.013C220.173 105.037 219.61 106.829 219.328 107.955L218.842 110.003C210.189 110.003 207.629 110.08 207.578 110.182C207.527 110.285 209.498 111.846 211.955 113.638C214.413 115.43 216.435 116.992 216.435 117.094C216.435 117.197 216.077 118.118 215.667 119.168C215.258 120.192 214.618 122.061 214.285 123.341C213.722 125.44 213.671 126.054 213.645 130.611C213.645 135.27 213.696 135.731 214.311 137.984C214.669 139.315 215.565 141.619 216.282 143.078C216.999 144.538 218.253 146.611 219.047 147.686C219.84 148.762 221.402 150.477 222.528 151.526C223.655 152.576 225.651 154.163 226.983 155.034C228.314 155.904 229.44 156.621 229.466 156.646C229.491 156.646 228.698 159.104 227.699 162.099C226.701 165.094 225.882 167.578 225.907 167.629C225.907 167.654 226.01 167.68 226.138 167.68C226.266 167.68 228.416 166.195 230.874 164.403C233.357 162.611 235.456 161.152 235.559 161.152C235.661 161.152 236.275 161.613 236.941 162.202C237.607 162.765 239.04 163.84 240.115 164.531C241.165 165.248 242.931 166.246 243.981 166.733C245.056 167.245 246.618 167.859 247.463 168.141C248.282 168.422 249.767 168.806 250.739 169.037C251.687 169.242 253.683 169.472 255.168 169.549C256.653 169.626 258.752 169.549 259.904 169.421C261.031 169.267 262.848 168.909 263.898 168.653C264.973 168.371 266.714 167.757 267.789 167.296C268.864 166.835 270.554 165.99 271.527 165.427C272.525 164.864 274.24 163.661 275.367 162.765C276.467 161.869 277.44 161.126 277.517 161.126C277.568 161.126 279.616 162.56 282.074 164.326C284.506 166.067 286.631 167.578 286.81 167.654C286.989 167.731 286.682 166.451 286.016 164.403C285.427 162.534 284.608 160.026 284.199 158.822C283.507 156.826 283.482 156.646 283.866 156.416C284.071 156.288 285.197 155.546 286.349 154.803C287.501 154.035 289.293 152.627 290.368 151.654C291.418 150.656 292.979 148.941 293.824 147.814C294.669 146.688 295.795 144.922 296.307 143.923C296.845 142.925 297.664 140.979 298.125 139.571C298.586 138.163 299.098 136.09 299.277 134.963C299.456 133.683 299.507 131.558 299.431 129.28C299.328 126.797 299.123 125.005 298.791 123.648C298.509 122.547 297.895 120.653 297.434 119.45C296.947 118.246 296.563 117.171 296.563 117.043C296.563 116.89 298.535 115.354 300.941 113.587C303.347 111.821 305.267 110.285 305.191 110.182C305.139 110.08 302.605 110.003 299.61 110.003H294.157C293.927 108.979 293.543 107.597 293.133 106.24C292.723 104.909 292.032 103.014 291.546 102.016C291.085 101.018 290.035 99.1488 289.191 97.8944C288.346 96.6144 286.784 94.72 285.735 93.6704C284.685 92.6208 283.047 91.2128 282.125 90.5728C281.178 89.9072 279.539 88.9343 278.49 88.3967C277.415 87.8335 275.597 87.0911 274.471 86.7071C273.344 86.3231 271.424 85.8367 270.221 85.6063C268.813 85.3503 266.611 85.1967 264.051 85.1967L260.058 85.1712C257.498 77.3888 256.653 75.1104 256.525 75.1104C256.397 75.1104 255.962 76.1343 255.552 77.3631Z" fill="white"/>
<path d="M256.141 78.925C256.09 79.1554 255.757 80.973 255.399 82.9186C255.066 84.8898 254.81 86.8866 254.81 87.3474C254.81 87.8082 254.733 88.1922 254.682 88.1922C254.605 88.1922 254.093 87.9618 253.53 87.6546C252.813 87.2962 251.943 87.0914 250.791 87.0402C249.536 86.9634 248.743 87.0658 247.744 87.4242C246.951 87.7314 245.978 88.3458 245.261 89.037C244.621 89.6514 243.828 90.701 243.469 91.4178C243.111 92.109 242.266 93.261 241.575 93.9778C240.909 94.6946 239.322 96.077 238.042 97.0242C236.762 97.997 234.816 99.405 233.664 100.147C232.538 100.89 231.002 101.76 230.26 102.093C229.543 102.426 228.109 102.887 227.111 103.091C226.112 103.296 224.858 103.731 224.32 104.039C223.783 104.346 223.015 104.986 222.631 105.421C222.247 105.882 221.658 106.855 221.325 107.597C220.967 108.391 220.711 109.415 220.711 110.131C220.685 110.797 220.736 111.616 220.839 111.949L221.018 112.563C218.484 112.077 216.231 111.744 214.362 111.488C212.493 111.258 210.906 111.079 210.829 111.13C210.778 111.181 210.829 111.36 210.983 111.514C211.136 111.693 213.184 112.819 215.514 113.997L219.764 116.199C218.535 117.325 217.92 118.195 217.588 118.861C217.152 119.808 217.05 120.499 217.05 122.01C217.05 123.469 217.152 124.211 217.536 125.031C217.818 125.619 218.663 126.797 219.431 127.642C220.25 128.538 221.172 129.946 221.76 131.149C222.272 132.25 223.194 134.682 223.808 136.551C224.423 138.419 225.088 140.749 225.293 141.747C225.549 142.976 225.652 144.589 225.6 146.714C225.549 149.479 225.6 150.016 226.036 150.963C226.317 151.552 226.957 152.525 227.495 153.088C228.007 153.677 229.005 154.419 229.671 154.727C230.336 155.059 231.207 155.315 231.616 155.315C232 155.315 232.41 155.367 232.512 155.443C232.615 155.495 232.256 156.365 231.693 157.312C231.156 158.285 230.106 160.307 229.389 161.792C228.647 163.328 228.186 164.583 228.314 164.659C228.468 164.711 230.208 163.2 232.205 161.255L235.866 157.747C236.736 159.591 237.402 160.384 238.17 160.973C238.836 161.485 239.988 162.074 240.704 162.279C241.524 162.509 242.573 162.611 243.392 162.535C244.135 162.483 245.466 162.099 246.413 161.664C247.36 161.229 248.666 160.768 249.332 160.64C249.997 160.512 252.685 160.333 255.296 160.256C258.957 160.154 260.57 160.205 262.516 160.512C264.205 160.768 265.536 161.152 266.637 161.664C268.045 162.355 268.532 162.458 270.221 162.458C271.68 162.458 272.448 162.33 273.268 161.971C273.856 161.69 274.778 161.101 275.29 160.64C275.802 160.179 276.442 159.36 276.724 158.823C276.98 158.311 277.236 157.799 277.287 157.747C277.338 157.671 278.08 158.387 278.925 159.309C279.77 160.256 281.434 161.869 282.586 162.893C283.738 163.917 284.736 164.659 284.788 164.531C284.864 164.403 283.943 162.355 282.74 159.975C281.536 157.619 280.564 155.623 280.538 155.571C280.538 155.495 280.948 155.367 281.46 155.29C281.946 155.213 282.74 154.983 283.226 154.752C283.687 154.547 284.532 153.959 285.12 153.447C285.709 152.935 286.477 151.936 286.836 151.194C287.424 149.939 287.476 149.658 287.476 146.125C287.501 143.053 287.578 142.003 288.013 140.416C288.295 139.341 289.037 137.011 289.652 135.219C290.266 133.402 291.162 131.226 291.648 130.355C292.109 129.485 293.056 128.179 293.696 127.463C294.362 126.72 295.13 125.619 295.412 125.031C295.821 124.186 295.949 123.495 295.949 122.01C295.975 120.397 295.872 119.834 295.335 118.733C294.976 117.991 294.336 117.095 293.927 116.736L293.184 116.071C297.408 114.023 299.431 112.973 300.404 112.435C301.376 111.898 302.17 111.36 302.17 111.232C302.17 111.079 301.786 111.027 301.248 111.104C300.762 111.181 298.868 111.437 297.05 111.693C295.258 111.949 293.389 112.256 292.877 112.359L291.981 112.563C292.365 110.643 292.365 109.85 292.186 109.107C292.058 108.467 291.623 107.418 291.264 106.752C290.906 106.087 290.087 105.139 289.421 104.627C288.756 104.09 287.655 103.527 286.989 103.322C286.324 103.143 285.556 102.963 285.274 102.963C285.018 102.963 284.199 102.733 283.456 102.426C282.714 102.119 281.255 101.351 280.18 100.685C279.104 100.019 276.98 98.5346 275.444 97.3826C273.908 96.2306 272.013 94.5922 271.22 93.7474C270.426 92.9026 269.53 91.6738 269.223 91.0594C268.89 90.4194 268.224 89.4978 267.738 89.037C267.226 88.5506 266.381 87.9362 265.844 87.6546C265.152 87.2962 264.282 87.117 262.823 87.0402C261.031 86.9634 260.596 87.0146 259.597 87.5266C258.957 87.8338 258.394 88.013 258.317 87.9618C258.24 87.885 258.189 87.5266 258.189 87.1682C258.189 86.8098 257.984 85.2738 257.728 83.789C257.472 82.2786 257.165 80.4866 257.037 79.7698C256.909 79.0786 256.704 78.5154 256.551 78.5154C256.397 78.5154 256.218 78.6946 256.141 78.925Z" fill="#0060A9"/>
<path d="M248.359 88.2432C247.975 88.3968 247.181 88.832 246.593 89.216C245.876 89.7024 245.236 90.496 244.417 91.8784C243.623 93.2352 242.701 94.3616 241.447 95.5136C240.449 96.4352 238.247 98.1504 236.583 99.3536C234.919 100.531 232.615 101.99 231.489 102.579C230.337 103.168 228.596 103.808 227.597 104.038C226.573 104.269 225.268 104.755 224.628 105.165C223.962 105.574 223.143 106.394 222.733 107.034C222.349 107.674 221.914 108.672 221.786 109.286C221.633 109.952 221.633 110.746 221.786 111.334C221.914 111.872 222.17 112.563 222.375 112.845C222.58 113.152 222.81 113.408 222.913 113.382C223.015 113.382 223.578 113.818 224.141 114.355C224.961 115.149 225.626 115.482 227.546 116.045C228.826 116.454 230.669 116.915 231.617 117.069C232.948 117.299 233.665 117.299 234.996 117.069C236.429 116.813 236.839 116.813 237.556 117.094C238.017 117.274 238.657 117.76 238.964 118.144C239.322 118.605 239.501 119.168 239.501 119.757C239.501 120.371 239.297 120.909 238.887 121.395C238.529 121.83 237.965 122.189 237.505 122.266C237.069 122.342 236.378 122.317 235.969 122.214C235.585 122.138 234.535 121.395 233.665 120.576C232.666 119.654 231.463 118.835 230.388 118.349C229.466 117.914 227.777 117.299 226.676 116.941C224.884 116.378 224.474 116.326 222.81 116.506C221.479 116.634 220.685 116.864 220.122 117.248C219.687 117.555 219.021 118.374 218.663 119.066C218.151 120.064 218.023 120.627 218.023 122.01C218.023 123.29 218.151 123.955 218.561 124.723C218.842 125.286 219.661 126.387 220.353 127.155C221.172 128.051 222.017 129.382 222.759 130.97C223.399 132.301 224.346 134.81 224.909 136.55C225.447 138.266 226.087 140.57 226.292 141.619C226.599 143.078 226.65 144.23 226.548 146.125C226.42 147.994 226.471 148.966 226.727 149.862C226.932 150.554 227.495 151.552 228.007 152.141C228.519 152.755 229.466 153.472 230.157 153.779C230.823 154.086 231.796 154.342 232.333 154.368C232.922 154.368 233.537 154.189 233.921 153.907C234.253 153.651 234.996 153.216 235.559 152.934C236.276 152.55 236.967 151.859 237.94 150.528C238.682 149.504 239.706 147.789 240.244 146.714C240.858 145.485 241.293 144.205 241.447 143.206C241.626 141.85 241.78 141.517 242.522 140.851C243.188 140.237 243.597 140.058 244.365 140.058C244.877 140.058 245.543 140.16 245.825 140.288C246.081 140.442 246.465 140.877 246.669 141.261C246.874 141.67 247.028 142.285 247.028 142.669C247.028 143.027 246.797 143.718 246.49 144.179C246.132 144.717 245.389 145.28 244.468 145.741C243.597 146.176 242.394 147.072 241.447 148.045C240.577 148.915 239.297 150.477 238.58 151.501C237.889 152.55 237.3 153.651 237.3 153.984C237.3 154.317 237.172 154.957 236.967 155.392C236.737 155.955 236.685 156.467 236.865 157.261C236.967 157.85 237.377 158.72 237.761 159.206C238.145 159.667 239.041 160.384 239.757 160.768C240.884 161.382 241.319 161.485 242.778 161.485C244.135 161.459 244.775 161.306 246.055 160.717C246.925 160.307 248.282 159.821 249.101 159.642C250.125 159.411 252.327 159.309 256.628 159.334C261.543 159.334 263.002 159.411 264.333 159.744C265.229 159.974 266.535 160.461 267.252 160.794C267.943 161.152 269.018 161.485 269.607 161.562C270.247 161.638 271.245 161.536 272.039 161.306C272.935 161.05 273.78 160.589 274.548 159.872C275.213 159.283 275.879 158.413 276.084 157.875C276.365 157.184 276.417 156.544 276.289 155.674C276.186 155.008 275.93 154.035 275.7 153.498C275.444 152.96 274.778 151.885 274.189 151.091C273.601 150.272 272.449 148.941 271.655 148.096C270.657 147.021 269.761 146.33 268.711 145.843C267.866 145.459 266.97 144.845 266.689 144.486C266.433 144.102 266.125 143.488 266.049 143.078C265.946 142.592 266.074 142.029 266.381 141.389C266.74 140.646 267.098 140.339 267.815 140.083C268.66 139.802 268.865 139.827 269.709 140.211C270.221 140.467 270.836 140.979 271.066 141.389C271.297 141.798 271.553 142.72 271.655 143.437C271.732 144.179 272.167 145.536 272.628 146.483C273.063 147.405 274.061 149.043 274.829 150.118C275.572 151.168 276.493 152.294 276.852 152.627C277.21 152.934 278.055 153.446 278.721 153.754C279.386 154.086 280.333 154.342 280.794 154.342C281.255 154.342 282.074 154.138 282.612 153.907C283.149 153.651 283.943 153.139 284.404 152.755C284.865 152.371 285.505 151.501 285.863 150.835C286.452 149.683 286.503 149.478 286.426 146.483C286.375 144.256 286.477 142.746 286.759 141.389C286.989 140.314 287.655 137.984 288.218 136.166C288.807 134.374 289.831 131.814 290.497 130.483C291.213 128.998 292.109 127.616 292.801 126.899C293.415 126.285 294.132 125.312 294.388 124.8C294.669 124.262 294.951 123.366 295.028 122.778C295.105 122.214 295.053 121.216 294.9 120.55C294.746 119.885 294.311 118.886 293.901 118.298C293.466 117.709 292.749 117.094 292.135 116.787C291.469 116.48 290.573 116.326 289.601 116.326C288.602 116.301 287.425 116.531 286.196 116.941C285.146 117.274 283.405 117.99 282.305 118.502C280.948 119.142 279.924 119.834 279.156 120.678C278.362 121.472 277.671 121.958 277.031 122.138C276.34 122.317 275.828 122.317 275.265 122.138C274.829 122.01 274.241 121.574 273.985 121.216C273.652 120.781 273.498 120.192 273.498 119.526C273.498 118.707 273.652 118.349 274.241 117.76C274.625 117.35 275.316 116.966 275.751 116.89C276.186 116.813 277.133 116.864 277.876 117.043C278.618 117.197 279.745 117.274 280.436 117.197C281.101 117.12 282.714 116.762 283.994 116.429C285.3 116.096 287.015 115.507 287.783 115.123C288.551 114.739 289.524 114.048 289.959 113.562C290.394 113.075 290.855 112.41 290.983 112.077C291.111 111.744 291.239 110.95 291.213 110.31C291.213 109.67 291.085 108.774 290.906 108.314C290.753 107.827 290.317 107.034 289.959 106.547C289.601 106.061 288.705 105.318 288.013 104.934C287.322 104.525 286.093 104.115 285.274 103.962C284.429 103.834 282.893 103.27 281.639 102.63C280.436 102.016 278.081 100.557 276.417 99.3536C274.753 98.176 272.551 96.4352 271.553 95.5136C270.426 94.464 269.377 93.2352 268.762 92.1856C268.225 91.264 267.457 90.1888 267.073 89.7792C266.663 89.3696 265.895 88.832 265.357 88.576C264.641 88.192 263.898 88.0896 262.439 88.0896C260.749 88.0896 260.34 88.1664 259.597 88.6784C259.111 89.0112 258.42 89.728 258.087 90.2656C257.754 90.8032 257.345 91.8272 257.191 92.5696C257.037 93.3888 256.986 95.0016 257.063 96.7936C257.14 98.4064 257.396 100.301 257.601 101.043C257.831 101.786 258.292 102.861 258.625 103.475C259.137 104.346 259.213 104.755 259.111 105.651C259.009 106.445 258.778 106.906 258.215 107.392C257.677 107.904 257.217 108.058 256.5 108.058C255.706 108.058 255.373 107.904 254.682 107.213C253.991 106.547 253.837 106.189 253.837 105.395C253.837 104.806 254.145 103.782 254.682 102.682C255.399 101.171 255.553 100.506 255.783 98.0224C255.937 96.4352 255.988 94.464 255.885 93.6704C255.809 92.8512 255.501 91.6992 255.245 91.1104C254.989 90.496 254.529 89.7536 254.247 89.4464C253.94 89.1136 253.274 88.6528 252.737 88.4224C252.148 88.1408 251.252 87.9872 250.433 87.9872C249.69 87.9872 248.769 88.1152 248.359 88.2432Z" fill="white"/>
<path d="M236.941 91.8272L233.05 93.7216C228.16 98.5856 226.855 100.07 226.983 100.147C227.111 100.198 229.005 99.4304 231.181 98.4064L235.123 96.5632C239.834 91.5712 241.191 90.0864 241.191 90.0096C241.191 89.9584 241.114 89.9072 241.011 89.9072C240.909 89.9072 239.091 90.7776 236.941 91.8272ZM272.039 90.3168C272.039 90.4192 273.421 91.9552 275.136 93.696L278.234 96.9216C283.891 99.5072 285.607 100.224 285.709 100.173C285.811 100.122 284.608 98.7136 283.047 97.0496L280.179 94.0032C274.061 91.008 272.243 90.1376 272.167 90.1376C272.09 90.1376 272.039 90.2144 272.039 90.3168ZM252.122 109.491C251.251 109.722 250.048 110.131 249.459 110.413C248.845 110.669 247.795 111.258 247.13 111.718C246.439 112.179 245.517 112.87 245.056 113.28C244.595 113.69 243.699 114.662 243.034 115.456C242.368 116.25 241.472 117.683 241.037 118.605C240.602 119.552 240.064 121.011 239.834 121.882C239.578 122.88 239.424 124.416 239.424 126.003C239.424 127.898 239.552 129.05 239.962 130.483C240.269 131.558 240.883 133.12 241.344 133.99C241.805 134.861 242.829 136.346 243.648 137.267C244.467 138.189 245.645 139.315 246.259 139.776C246.874 140.211 248.154 140.954 249.101 141.389C250.023 141.85 251.559 142.387 252.48 142.618C253.453 142.848 255.194 143.027 256.499 143.027C257.805 143.027 259.546 142.848 260.519 142.618C261.44 142.387 263.13 141.773 264.282 141.21C265.946 140.39 266.739 139.802 268.531 138.01C270.323 136.243 270.938 135.424 271.757 133.76C272.32 132.634 272.96 130.995 273.191 130.125C273.447 129.126 273.575 127.616 273.575 126.003C273.575 124.39 273.421 122.88 273.165 121.882C272.935 121.011 272.295 119.373 271.731 118.246C270.912 116.582 270.323 115.789 268.531 113.997C266.739 112.205 265.971 111.616 264.282 110.797C263.13 110.259 261.491 109.645 260.621 109.414C259.648 109.184 258.035 109.056 256.371 109.056C254.605 109.056 253.171 109.21 252.122 109.491Z" fill="#0060A9"/>
<path d="M254.426 109.978C253.761 110.08 252.916 110.259 252.557 110.336C251.969 110.464 251.892 110.592 251.943 111.258C251.994 112.026 252.071 112.051 254.068 112.614C255.809 113.101 256.321 113.152 257.345 112.947C258.01 112.819 259.188 112.538 259.956 112.333C261.261 111.974 261.364 111.898 261.364 111.232C261.364 110.541 261.261 110.49 260.212 110.259C259.572 110.157 258.292 109.978 257.345 109.926C256.423 109.85 255.092 109.875 254.426 109.978Z" fill="#FFE003"/>
<path d="M249.69 111.36C248.974 111.718 247.873 112.333 247.258 112.742C246.67 113.178 245.774 113.894 245.262 114.355C244.75 114.842 244.34 115.302 244.34 115.405C244.34 115.507 244.647 115.686 245.031 115.789L245.697 115.994C245.313 120.755 245.338 121.318 245.62 121.446C245.799 121.549 246.977 122.061 248.231 122.624L250.561 123.622L256.27 119.936L256.142 113.766C254.631 113.306 253.556 112.998 252.788 112.794C251.431 112.435 251.406 112.41 251.406 111.59C251.406 111.13 251.329 110.746 251.226 110.746C251.124 110.746 250.433 111.027 249.69 111.36ZM261.799 111.539C261.722 112.256 261.62 112.333 260.391 112.717C259.649 112.922 258.548 113.254 257.959 113.434L256.858 113.766C256.782 118.272 256.833 119.706 256.935 119.859C257.038 120.013 258.369 120.986 259.905 122.035L262.695 123.955L267.79 122.47C267.892 119.475 267.969 118.374 268.046 118.067C268.122 117.734 268.481 117.376 269.018 117.146L269.863 116.787C268.25 114.842 267.15 113.792 266.33 113.203C265.537 112.614 264.436 111.923 263.898 111.642C263.386 111.386 262.695 111.078 262.388 110.95C261.902 110.771 261.85 110.848 261.799 111.539Z" fill="white"/>
<path d="M243.264 116.634C242.931 117.043 242.291 118.221 241.831 119.219C241.37 120.218 240.832 121.805 240.653 122.726C240.448 123.674 240.346 124.493 240.448 124.57C240.525 124.672 240.832 124.8 241.139 124.877C241.6 125.005 241.933 124.723 243.213 123.162L244.749 121.267C245.056 117.709 245.082 116.557 245.031 116.429C244.954 116.301 244.672 116.122 244.365 116.019C243.955 115.891 243.699 116.045 243.264 116.634ZM269.325 117.555C268.685 117.786 268.659 117.862 268.506 120.141L268.327 122.496C270.656 126.259 271.066 126.72 271.501 126.72C271.808 126.72 272.218 126.669 272.397 126.618C272.627 126.541 272.781 126.182 272.781 125.645C272.781 125.158 272.602 123.955 272.397 122.906C272.192 121.882 271.629 120.192 271.143 119.142C270.631 118.118 270.17 117.274 270.093 117.299C270.042 117.299 269.683 117.427 269.325 117.555ZM253.837 122.112C252.429 123.059 251.2 123.853 251.072 123.878C250.97 123.904 251.2 125.261 251.61 126.848C251.994 128.461 252.378 130.048 252.455 130.432L252.608 131.098H259.776C261.389 125.542 261.85 123.93 261.799 123.93C261.747 123.904 260.672 123.187 259.418 122.317C258.138 121.421 256.935 120.653 256.73 120.576C256.525 120.474 255.347 121.114 253.837 122.112Z" fill="#FFE003"/>
<path d="M243.341 123.725C241.856 125.517 241.78 125.568 240.96 125.389L240.116 125.235C240.397 127.974 240.653 129.434 240.858 130.253C241.088 131.046 241.626 132.454 242.087 133.402L242.932 135.091L244.237 133.734C247.335 135.245 248.384 135.68 248.538 135.68C248.717 135.68 249.127 135.27 249.46 134.784C249.818 134.272 250.535 133.222 251.098 132.429L252.122 130.97L250.407 124.186C246.567 122.419 245.312 121.882 245.184 121.882C245.031 121.882 244.212 122.701 243.341 123.725ZM264.871 123.853C263.54 124.237 262.388 124.621 262.311 124.723C262.208 124.826 261.696 126.413 261.133 128.23L260.135 131.584C262.874 134.758 263.77 135.68 263.898 135.68C264.052 135.68 265.152 135.27 266.381 134.784L268.634 133.888C269.479 134.707 269.812 134.963 269.914 134.963C270.016 134.963 270.477 134.221 270.938 133.325C271.373 132.429 271.911 131.098 272.116 130.355C272.32 129.638 272.551 128.563 272.628 128C272.756 127.053 272.73 126.976 272.295 127.104C272.013 127.155 271.578 127.258 271.322 127.334C270.912 127.437 270.58 127.053 269.428 125.286C268.634 124.058 267.866 123.11 267.661 123.11C267.482 123.136 266.228 123.469 264.871 123.853Z" fill="white"/>
<path d="M217.229 129.946C217.28 130.227 217.588 132.173 217.895 134.247L218.432 137.984C221.402 143.719 222.349 145.434 222.503 145.511C222.631 145.562 222.733 145.331 222.733 144.973C222.733 144.589 222.528 142.643 222.247 140.595L221.76 136.909C218.56 131.072 217.511 129.383 217.357 129.383C217.204 129.383 217.127 129.613 217.229 129.946ZM293.082 133.453L291.008 137.267C290.24 143.079 290.01 145.024 290.01 145.331C290.01 145.613 290.112 145.869 290.189 145.869C290.292 145.869 291.264 144.205 292.314 142.183L294.26 138.471C295.207 131.789 295.412 129.792 295.335 129.741C295.232 129.69 294.234 131.354 293.082 133.453Z" fill="#0060A9"/>
<path d="M250.765 133.734C249.895 134.938 249.152 136.013 249.178 136.115C249.178 136.218 249.92 137.114 250.765 138.112C252.224 139.802 252.327 139.981 251.994 140.416C251.815 140.698 251.661 141.03 251.661 141.21C251.636 141.363 252.199 141.645 252.916 141.798C253.607 141.952 255.22 142.08 256.5 142.08C257.78 142.08 259.392 141.952 260.084 141.798L261.364 141.517C260.8 140.57 260.621 140.211 260.621 140.109C260.621 140.006 261.236 139.11 261.952 138.112C262.695 137.114 263.284 136.192 263.232 136.064C263.181 135.936 262.336 134.861 261.338 133.709L259.546 131.61L252.404 131.584L250.765 133.734Z" fill="white"/>
<path d="M243.725 134.963C243.264 135.45 243.264 135.475 244.007 136.371C244.416 136.858 245.415 137.779 246.208 138.419C246.976 139.059 248.231 139.904 248.973 140.288C249.716 140.698 250.509 141.005 250.74 141.005C250.97 141.03 251.277 140.8 251.405 140.544C251.61 140.134 251.405 139.75 250.125 138.214C248.82 136.627 248.333 136.243 246.669 135.424C245.594 134.886 244.596 134.477 244.442 134.477C244.314 134.477 243.981 134.707 243.725 134.963ZM266.125 135.424C264.026 136.269 263.898 136.371 262.541 138.189C261.159 139.981 261.133 140.083 261.466 140.672C261.824 141.261 261.85 141.261 262.746 140.902C263.258 140.698 264.256 140.16 264.973 139.75C265.664 139.315 266.893 138.394 267.687 137.702C268.48 136.986 269.197 136.166 269.274 135.885C269.351 135.526 269.248 135.168 268.967 134.886C268.711 134.656 268.48 134.477 268.404 134.502C268.327 134.502 267.303 134.938 266.125 135.424Z" fill="#FFE003"/>
<path d="M251.764 162.97C249.485 163.43 247.591 163.84 247.514 163.917C247.437 163.994 247.565 164.096 247.745 164.147C247.949 164.198 249.921 164.557 252.122 164.915L256.141 165.555C262.925 164.454 264.717 164.07 264.666 163.917C264.641 163.789 262.746 163.328 260.493 162.893C258.266 162.458 256.295 162.125 256.167 162.125C256.013 162.15 254.042 162.534 251.764 162.97ZM111.86 203.11C111.937 204.621 112.116 207.846 112.244 210.33C112.372 212.787 112.653 216.55 112.858 218.675C113.063 220.826 113.242 222.592 113.268 222.618C113.293 222.643 117.825 217.728 123.303 211.712C128.807 205.67 133.261 200.678 133.21 200.576C133.159 200.474 128.295 200.397 122.433 200.397H111.732L111.86 203.11ZM153.281 209.894C148.519 215.117 143.348 220.8 141.735 222.566C140.122 224.307 134.183 230.835 128.5 237.082C122.817 243.328 118.029 248.678 117.825 248.96C117.543 249.37 117.543 249.677 117.799 250.778C117.953 251.52 118.695 254.515 119.412 257.459C120.129 260.378 121.306 264.858 122.023 267.392C122.765 269.926 123.969 273.869 124.711 276.173C125.453 278.477 126.17 280.397 126.324 280.474C126.452 280.55 133.364 273.101 141.684 263.936C150.029 254.771 162.241 241.331 168.845 234.061C175.45 226.816 184.973 216.346 190.017 210.816C195.034 205.286 199.105 200.678 199.053 200.576C198.977 200.474 190.605 200.397 180.417 200.397H161.882L153.281 209.894Z" fill="#0060A9"/>
<path d="M226.138 306.944L226.112 413.491C235.072 421.862 237.658 424.038 239.732 425.498C241.421 426.65 244.749 428.902 247.156 430.515C249.562 432.102 252.608 434.099 253.94 434.918C256.064 436.25 256.448 436.403 256.935 436.173C257.216 436.045 259.52 434.586 262.029 432.973C264.538 431.36 268.813 428.493 271.552 426.624C275.751 423.731 277.312 422.451 281.69 418.406L286.861 413.619V200.397H226.138V306.944Z" fill="white"/>
<path d="M313.972 200.576C313.921 200.678 317.428 204.672 321.805 209.485C326.157 214.298 335.732 224.819 343.053 232.883C350.401 240.922 363.149 254.95 371.418 264.064C379.687 273.152 386.522 280.602 386.625 280.602C386.727 280.602 387.546 278.349 388.442 275.584C389.338 272.794 390.695 268.365 391.437 265.702C392.205 263.014 393.409 258.381 394.125 255.386C394.842 252.39 395.431 249.754 395.431 249.523C395.431 249.293 389.953 243.072 383.245 235.699C376.538 228.352 366.58 217.395 361.076 211.354L351.092 200.397C322.42 200.397 314.049 200.474 313.972 200.576ZM379.789 200.576C379.738 200.678 380.993 202.163 382.605 203.904C384.193 205.645 388.647 210.509 392.461 214.733C396.301 218.957 399.527 222.336 399.629 222.234C399.732 222.157 399.911 221.21 400.039 220.134C400.141 219.085 400.321 217.446 400.397 216.499C400.474 215.578 400.628 212.966 400.756 210.688C400.884 208.435 401.063 205.184 401.114 203.469L401.268 200.397C384.705 200.397 379.866 200.474 379.789 200.576ZM271.066 207.437C270.477 207.565 269.223 208.026 268.276 208.461C267.354 208.922 265.997 209.766 265.306 210.355C264.615 210.944 263.489 212.122 262.772 212.992C261.978 213.99 260.775 216.09 259.495 218.752L257.473 222.925C256.244 222.694 255.348 222.413 254.682 222.131C254.017 221.875 253.146 221.466 252.737 221.21L251.994 220.774C251.738 222.157 251.636 222.694 251.636 222.874C251.636 223.027 252.225 223.437 252.916 223.77C253.607 224.102 254.759 224.512 255.476 224.666C256.474 224.922 256.73 225.075 256.602 225.357C256.5 225.536 255.578 228.045 254.503 230.912C253.453 233.779 252.097 237.44 251.482 239.027C250.868 240.64 249.997 242.714 249.537 243.635L248.743 245.35C246.183 244.71 244.57 244.506 243.495 244.506C242.445 244.506 240.884 244.659 240.039 244.864C239.22 245.043 237.786 245.581 236.916 246.016C236.02 246.426 234.765 247.27 234.125 247.885C233.485 248.474 232.743 249.472 232.461 250.061C232.205 250.675 231.975 251.52 231.975 251.93C231.975 252.365 232.103 253.082 232.282 253.517C232.461 253.952 232.922 254.618 233.332 254.976C233.716 255.36 234.74 255.872 235.61 256.128C236.481 256.41 238.17 256.691 239.373 256.768C241.191 256.896 241.857 256.845 243.265 256.41C244.186 256.128 245.671 255.437 246.541 254.874C247.412 254.336 248.692 253.261 249.409 252.518C250.1 251.776 250.689 251.085 250.689 250.982C250.663 250.88 250.817 250.778 250.97 250.778C251.149 250.778 251.866 251.187 252.609 251.674C253.351 252.186 254.989 253.082 256.269 253.722C257.524 254.362 259.239 255.104 260.084 255.386C260.929 255.642 262.285 255.974 263.13 256.102C263.949 256.205 265.357 256.256 266.228 256.205C267.073 256.128 268.711 255.872 269.863 255.616C270.989 255.334 272.73 254.694 273.754 254.182C274.753 253.67 276.314 252.544 277.236 251.699C278.157 250.88 279.412 249.421 280.026 248.499C280.973 247.04 281.153 246.605 281.153 245.581C281.153 244.634 281.076 244.378 280.717 244.326C280.487 244.275 279.565 244.864 278.669 245.632C277.773 246.374 276.314 247.475 275.444 248.038C274.573 248.576 273.293 249.267 272.602 249.549C271.553 249.958 270.785 250.061 268.455 250.061C266.893 250.061 264.615 249.907 263.412 249.702C262.209 249.523 260.519 249.139 259.649 248.883C258.778 248.602 257.114 248.013 255.962 247.526C254.785 247.066 253.837 246.579 253.837 246.477C253.837 246.4 254.324 245.478 254.887 244.48C255.476 243.482 256.807 240.973 257.831 238.925C258.881 236.851 260.186 234.01 260.749 232.627C261.338 231.219 262.081 229.146 262.439 228.019L263.079 225.946C264.845 225.638 266.305 225.203 267.431 224.819C268.557 224.41 270.145 223.744 270.964 223.36C271.757 222.95 273.063 222.182 273.857 221.645C274.676 221.082 275.879 220.109 276.57 219.418C277.261 218.726 278.209 217.395 278.746 216.371C279.642 214.656 279.693 214.451 279.693 212.326C279.693 210.125 279.693 210.099 278.849 209.254C278.388 208.768 277.441 208.154 276.775 207.872C276.058 207.565 274.881 207.334 273.857 207.283C272.935 207.232 271.681 207.309 271.066 207.437Z" fill="#0060A9"/>
<path d="M270.964 211.021C270.554 211.123 269.812 211.456 269.325 211.763C268.839 212.07 268.122 212.736 267.764 213.197C267.303 213.786 266.56 215.552 265.639 218.317C264.871 220.646 264.308 222.618 264.384 222.694C264.487 222.746 265.613 222.438 266.893 222.003C268.199 221.568 269.965 220.774 270.836 220.288C271.706 219.776 272.756 218.957 273.191 218.47C273.626 217.984 274.215 217.139 274.496 216.576C274.778 215.987 275.06 215.04 275.111 214.451C275.213 213.632 275.111 213.146 274.727 212.557C274.445 212.122 273.984 211.635 273.677 211.43C273.396 211.251 272.807 211.046 272.397 210.97C272.013 210.918 271.348 210.918 270.964 211.021Z" fill="white"/>
<path d="M197.671 233.523C193.217 238.413 180.442 252.467 169.281 264.73C158.145 276.992 145.908 290.432 142.093 294.605C138.305 298.778 135.156 302.336 135.105 302.49C135.053 302.643 136.897 306.483 139.175 311.014C141.428 315.546 144.449 321.254 145.857 323.738C147.265 326.195 148.519 328.294 148.596 328.397C148.698 328.499 152.333 324.659 156.66 319.898C161.012 315.136 171.994 303.078 181.082 293.069C190.17 283.085 199.54 272.768 201.895 270.182L206.196 265.446C206.273 231.757 206.196 224.845 206.017 224.768C205.889 224.691 202.125 228.634 197.671 233.523ZM306.778 245.043V265.446C317.556 277.274 327.053 287.693 334.81 296.218C342.567 304.742 352.372 315.52 356.57 320.154C362.407 326.579 364.276 328.499 364.481 328.269C364.634 328.09 365.965 325.837 367.425 323.251C368.909 320.64 371.265 316.288 372.673 313.549C374.055 310.81 375.847 307.2 376.641 305.485L378.074 302.387C376.717 301.005 372.621 296.499 368.09 291.507C363.559 286.515 354.932 277.018 348.916 270.413C342.9 263.808 331.073 250.803 322.625 241.51C314.177 232.218 307.162 224.614 307.009 224.614C306.855 224.614 306.778 231.578 306.778 245.043Z" fill="#0060A9"/>
<path d="M240.32 246.605C239.629 246.835 238.708 247.373 238.298 247.757C237.863 248.166 237.351 248.781 237.172 249.165C236.992 249.523 236.813 250.163 236.813 250.598C236.813 251.059 236.992 251.571 237.248 251.802C237.479 252.006 237.914 252.314 238.221 252.467C238.528 252.595 239.45 252.723 240.295 252.749C241.421 252.749 242.112 252.595 243.008 252.16C243.7 251.827 244.724 251.034 245.338 250.368C245.927 249.702 246.592 248.883 246.772 248.525C247.13 247.936 247.104 247.859 246.669 247.526C246.388 247.322 245.696 247.014 245.082 246.784C244.493 246.579 243.444 246.374 242.778 246.298C241.959 246.221 241.14 246.323 240.32 246.605Z" fill="white"/>
<path d="M248.231 267.187C247.514 267.392 246.26 267.878 245.492 268.314C244.698 268.749 243.418 269.773 242.625 270.592C241.831 271.437 241.191 272.256 241.191 272.41C241.191 272.589 241.473 272.998 241.831 273.331L242.445 273.92C243.623 272.435 244.365 271.616 244.826 271.181C245.313 270.72 246.209 270.106 246.849 269.773C247.668 269.363 248.41 269.21 249.46 269.21C250.689 269.21 250.996 269.312 251.533 269.824C252.02 270.31 252.122 270.643 252.122 271.744C252.122 272.538 251.917 273.664 251.61 274.483C251.303 275.251 250.305 277.222 249.383 278.886C248.436 280.576 246.516 283.878 245.133 286.285C243.725 288.691 241.549 292.352 240.269 294.4C238.631 297.037 237.709 298.854 237.146 300.467C236.685 301.773 236.276 303.539 236.199 304.589C236.071 305.946 236.122 306.765 236.455 307.866C236.762 308.966 237.121 309.555 237.991 310.4C238.836 311.219 239.501 311.603 240.602 311.91C241.498 312.166 242.932 312.346 244.365 312.346C245.645 312.346 247.284 312.166 248.052 311.987C248.82 311.782 250.074 311.296 250.842 310.912C251.61 310.528 252.916 309.683 253.709 309.018C254.503 308.352 255.501 307.354 255.885 306.79C256.295 306.253 256.705 305.792 256.807 305.792C256.909 305.792 257.063 306.202 257.165 306.714C257.242 307.2 257.729 308.224 258.215 308.941C258.676 309.683 259.521 310.63 260.033 311.04C260.57 311.475 261.645 312.115 262.439 312.474C263.796 313.088 264.103 313.114 266.228 313.011C267.994 312.934 268.762 312.781 269.607 312.346C270.221 312.038 271.015 311.501 271.399 311.168C271.783 310.81 272.372 309.965 272.73 309.299C273.268 308.275 273.37 307.814 273.37 306.15C273.345 304.896 273.217 303.898 272.935 303.309C272.602 302.592 272.397 302.413 271.86 302.413C271.501 302.387 270.938 302.566 270.657 302.771C270.145 303.104 270.119 303.206 270.375 304.026C270.529 304.538 270.58 305.331 270.503 305.792C270.426 306.278 270.042 306.944 269.607 307.379C268.89 308.045 268.737 308.096 266.945 308.096C265.076 308.096 264.999 308.07 264.154 307.251C263.642 306.765 263.181 305.997 263.028 305.434C262.874 304.896 262.849 303.974 262.951 303.36C263.028 302.771 263.386 301.517 263.719 300.595C264.052 299.648 265.357 296.704 266.586 294.042C267.841 291.379 270.196 286.413 271.86 283.008C273.549 279.629 275.802 275.149 276.877 273.075C277.953 271.027 278.849 269.133 278.849 268.902C278.849 268.646 278.618 268.442 278.311 268.365C278.004 268.314 276.775 268.16 275.572 268.006L273.37 267.75C272.449 268.851 271.143 271.206 269.889 273.715C268.634 276.25 265.153 283.469 262.157 289.792C259.162 296.141 256.372 301.85 255.937 302.49C255.501 303.155 254.503 304.307 253.709 305.05C252.916 305.792 251.482 306.79 250.561 307.251C249.127 307.942 248.487 308.096 246.746 308.224C244.673 308.326 244.647 308.326 243.956 307.61C243.495 307.149 243.188 306.509 243.06 305.792C242.932 305.05 243.009 304.128 243.29 302.899C243.546 301.773 244.237 300.032 245.082 298.394C245.85 296.934 247.591 293.786 248.973 291.379C250.356 288.973 252.506 285.158 253.786 282.906C255.041 280.627 256.628 277.683 257.268 276.352C258.164 274.534 258.445 273.664 258.445 272.845C258.445 272.205 258.189 271.232 257.831 270.49C257.447 269.67 256.909 269.005 256.321 268.595C255.809 268.262 254.785 267.776 254.017 267.52C253.249 267.238 251.943 266.982 251.098 266.931C250.253 266.906 248.973 267.008 248.231 267.187ZM202.305 300.877C200.385 302.976 191.86 312.346 183.386 321.664C174.913 330.982 167.924 338.688 167.847 338.739C167.796 338.816 166.081 340.659 164.084 342.835L160.449 346.778C161.729 348.544 163.418 350.797 165.031 352.922C166.644 355.046 169.306 358.502 170.97 360.55C172.634 362.624 174.887 365.338 175.962 366.566C177.037 367.821 177.985 368.794 178.061 368.742C178.138 368.717 179.29 367.488 180.621 366.029C181.927 364.57 188.25 357.658 194.625 350.643L206.221 337.894C206.221 306.022 206.119 297.062 206.017 297.062C205.889 297.062 204.225 298.778 202.305 300.877ZM306.778 317.491L306.804 337.894C315.533 347.494 320.628 353.101 323.777 356.557C326.925 359.987 330.689 364.16 332.148 365.773C333.633 367.411 334.938 368.742 335.066 368.691C335.22 368.666 336.781 366.899 338.573 364.774C340.34 362.65 343.079 359.296 344.666 357.274C346.228 355.277 348.532 352.23 349.786 350.49C351.066 348.774 352.167 347.213 352.269 347.059C352.372 346.854 348.865 342.81 342.541 335.872C337.089 329.882 326.951 318.72 320.013 311.066C313.076 303.386 307.239 297.114 307.085 297.088C306.829 297.088 306.778 301.312 306.778 317.491ZM280.513 321.92C280.205 322.278 279.617 322.918 279.207 323.302C278.797 323.686 278.106 324.096 277.62 324.224C277.159 324.352 275.853 324.582 274.727 324.736C273.319 324.915 270.938 324.941 267.431 324.838C264.564 324.736 260.186 324.608 257.703 324.557C255.245 324.531 252.404 324.582 251.405 324.71C250.407 324.838 248.692 325.197 247.642 325.478C246.567 325.76 245.21 326.349 244.596 326.733C244.007 327.142 243.188 328.013 242.778 328.678C242.164 329.702 242.036 330.112 242.036 331.494C242.036 332.928 242.138 333.261 242.778 334.182C243.316 334.925 244.007 335.488 245.185 336.077C246.593 336.794 247.105 336.922 248.461 336.922C249.588 336.922 250.279 336.794 250.74 336.512C251.303 336.154 251.354 336.026 251.098 335.667C250.919 335.462 250.125 334.976 249.332 334.618C248.538 334.259 247.693 333.798 247.463 333.568C247.207 333.363 247.028 332.902 247.028 332.57C247.028 332.237 247.181 331.674 247.361 331.29C247.54 330.931 247.975 330.445 248.333 330.214C248.692 329.984 249.588 329.626 250.356 329.421C251.124 329.216 252.813 329.011 254.068 328.96C255.348 328.909 256.756 328.934 257.191 329.011L258.01 329.165C257.754 331.238 257.396 333.158 257.063 334.746C256.73 336.358 256.295 338.253 256.09 338.995C255.911 339.712 255.476 341.171 255.143 342.195C254.657 343.731 254.452 344.09 254.017 344.192C253.709 344.243 252.711 344.346 251.764 344.422C250.817 344.499 249.357 344.755 248.487 345.037C247.617 345.293 246.362 345.856 245.697 346.317C245.031 346.752 244.237 347.546 243.93 348.083C243.546 348.8 243.393 349.44 243.393 350.566C243.393 351.821 243.495 352.205 243.981 352.794C244.314 353.203 244.775 353.536 244.954 353.536C245.236 353.536 245.364 353.152 245.492 352.128C245.62 351.002 245.773 350.592 246.388 350.003C246.823 349.594 247.668 349.133 248.359 348.954C249.025 348.774 250.407 348.646 251.405 348.646C252.404 348.672 253.249 348.698 253.3 348.749C253.351 348.774 252.967 350.054 252.481 351.59C251.969 353.126 251.073 355.584 250.433 357.043C249.818 358.502 248.82 360.525 248.231 361.523C247.668 362.522 246.669 363.853 246.081 364.467C245.21 365.338 244.596 365.696 243.265 366.106C241.933 366.515 241.293 366.592 240.346 366.464C239.655 366.362 238.861 366.054 238.477 365.722C238.042 365.363 237.658 364.672 237.428 363.827C237.197 362.982 236.916 362.445 236.634 362.368C236.404 362.291 236.045 362.419 235.866 362.624C235.636 362.854 235.508 363.418 235.508 364.134C235.533 364.774 235.738 365.645 235.943 366.08C236.173 366.49 236.685 367.258 237.121 367.744C237.556 368.23 238.477 368.896 239.143 369.254C240.218 369.818 240.628 369.869 243.009 369.869C245.466 369.894 245.825 369.818 247.156 369.203C247.949 368.819 249.204 368.026 249.946 367.462C250.689 366.874 251.841 365.722 252.532 364.877C253.197 364.032 254.273 362.573 254.861 361.651C255.476 360.704 256.525 358.81 257.217 357.402C257.908 356.019 258.855 353.664 259.341 352.205L260.212 349.542C263.258 349.67 264.922 349.594 265.844 349.414C266.791 349.261 267.994 348.877 268.532 348.57C269.069 348.262 269.965 347.494 270.529 346.88C271.143 346.214 271.655 345.37 271.834 344.755C271.962 344.192 272.039 343.27 271.988 342.758C271.937 342.221 271.706 341.478 271.476 341.12C271.271 340.736 270.913 340.454 270.708 340.454C270.477 340.454 270.298 340.762 270.221 341.35C270.145 341.862 269.889 342.579 269.658 342.989C269.402 343.398 268.711 343.962 268.02 344.294C267.201 344.704 266.228 344.909 264.999 344.986C264.001 345.062 262.797 345.037 262.337 344.96L261.466 344.806C262.132 342.272 262.9 338.816 263.617 335.488C264.871 329.446 264.897 329.421 265.485 329.498C265.818 329.523 267.841 329.446 269.991 329.318C272.116 329.165 274.471 328.883 275.213 328.653C275.93 328.448 277.057 328.013 277.697 327.706C278.337 327.373 279.284 326.707 279.847 326.221C280.385 325.709 281.05 324.89 281.306 324.403C281.562 323.891 281.793 323.123 281.818 322.662C281.844 322.15 281.741 321.741 281.485 321.536C281.153 321.306 280.999 321.357 280.513 321.92ZM199.873 375.987C196.621 379.546 193.575 382.874 193.114 383.411L192.244 384.384C197.338 389.222 200.41 392.09 202.33 393.882C204.276 395.674 205.94 397.056 206.042 396.954C206.145 396.851 206.221 390.656 206.221 383.155C206.221 374.784 206.145 369.51 205.991 369.51C205.863 369.51 203.098 372.429 199.873 375.987ZM306.778 383.155C306.778 390.656 306.855 396.851 306.957 396.954C307.06 397.056 308.007 396.339 309.057 395.392C310.132 394.419 313.153 391.578 315.815 389.094C318.452 386.586 320.602 384.435 320.551 384.307C320.525 384.179 317.53 380.8 313.869 376.806C310.234 372.787 307.162 369.51 307.009 369.51C306.855 369.51 306.778 374.221 306.778 383.155ZM263.309 371.226C262.311 371.482 260.391 372.25 259.06 372.915C257.703 373.581 255.578 374.861 254.324 375.757C253.044 376.653 250.765 378.598 249.255 380.058C247.719 381.517 245.773 383.667 244.929 384.794C244.084 385.92 242.778 387.994 242.061 389.402C241.345 390.784 240.372 393.088 239.885 394.47C239.425 395.878 238.861 398.054 238.657 399.334C238.452 400.589 238.298 402.611 238.298 403.814C238.298 405.018 238.452 406.758 238.657 407.68C238.861 408.627 239.425 410.266 239.937 411.315C240.525 412.544 241.396 413.824 242.343 414.822C243.137 415.693 244.34 416.768 244.98 417.178C245.645 417.613 247.028 418.176 248.129 418.458C249.46 418.816 250.817 418.944 252.481 418.944C254.375 418.944 255.271 418.816 256.5 418.406C257.37 418.099 258.778 417.357 259.649 416.742C260.724 415.974 261.799 414.925 262.977 413.363C263.949 412.109 265.05 410.445 265.46 409.677C265.869 408.909 266.228 408.038 266.228 407.757C266.228 407.45 266.074 407.066 265.869 406.886C265.665 406.733 265.306 406.656 265.05 406.733C264.82 406.784 264.154 407.578 263.54 408.474C262.951 409.37 261.569 410.982 260.519 412.032C259.06 413.466 258.241 414.106 257.345 414.413C256.679 414.669 255.425 414.925 254.554 415.002C253.684 415.078 252.429 415.027 251.764 414.874C250.996 414.694 250.177 414.259 249.485 413.67C248.897 413.184 248.18 412.288 247.873 411.674C247.565 411.085 247.156 410.061 246.951 409.37C246.746 408.704 246.516 407.398 246.413 406.477C246.311 405.453 246.362 403.891 246.541 402.586C246.695 401.408 247.105 399.488 247.437 398.362C247.77 397.235 248.41 395.264 248.897 393.984C249.357 392.73 250.33 390.502 251.047 389.018C251.764 387.558 252.967 385.382 253.761 384.179C254.554 382.976 255.937 381.21 256.884 380.211C257.805 379.238 259.341 377.856 260.263 377.139C261.21 376.448 262.772 375.424 263.796 374.886C264.794 374.349 266.381 373.734 267.303 373.504C268.429 373.248 269.351 373.197 269.991 373.299C270.503 373.402 271.271 373.76 271.629 374.118C272.013 374.451 272.5 375.27 272.705 375.936C272.961 376.755 273.037 377.6 272.935 378.496C272.858 379.213 272.73 380.186 272.653 380.595C272.551 381.235 272.628 381.44 273.012 381.645C273.293 381.773 273.626 381.824 273.805 381.773C273.985 381.696 274.317 381.235 274.573 380.723C274.829 380.211 275.085 379.085 275.137 378.112C275.213 376.806 275.137 376.141 274.753 375.091C274.471 374.374 273.882 373.325 273.421 372.787C272.986 372.25 272.141 371.61 271.553 371.354C270.759 371.021 269.735 370.893 267.789 370.816C265.69 370.739 264.743 370.842 263.309 371.226Z" fill="#0060A9"/>
<path d="M162.624 434.944C164.749 437.069 166.567 438.835 166.644 438.835C166.695 438.835 165.031 437.069 162.932 434.944C160.832 432.819 159.04 431.078 158.938 431.078C158.81 431.078 160.474 432.819 162.624 434.944Z" fill="white"/>
</svg>
