<svg width="512" height="512" viewBox="0 0 512 512" fill="none" xmlns="http://www.w3.org/2000/svg">
<g clip-path="url(#clip0_1_2237)">
<g clip-path="url(#clip1_1_2237)">
<path d="M317.795 419.66C326.141 419.247 330.872 420.557 339.049 422.255C341.159 422.716 342.688 423.032 344.41 423.517C344.726 424.028 346.205 440.373 346.206 441.179C345.721 441.519 345.284 441.835 344.726 442.029C343.804 441.301 343.173 440.354 342.081 439.36C336.477 434.168 332.303 431.596 324.807 430.092C316.824 428.491 311.292 428.782 304.062 432.542C300.811 434.216 299.113 435.502 296.565 438.122C295.401 439.311 294.819 440.015 293.849 441.349C292.563 443.096 291.956 444.164 290.985 446.08C287.54 452.849 286.982 457.581 287.079 465.199C287.103 467.018 287.152 468.037 287.37 469.857C287.71 472.501 288.074 473.982 288.851 476.553C289.603 479.076 290.112 480.484 291.276 482.837C292.271 484.851 292.926 485.943 294.212 487.786C295.91 490.213 296.93 491.595 299.162 493.512C302.486 496.375 304.888 497.54 309.06 498.826C311.754 499.675 313.379 499.893 316.218 500.112C319.056 500.306 320.706 500.257 323.545 499.917C329.246 499.214 332.643 498.341 337.568 495.357C339.904 493.934 341.254 492.846 343.067 491.133L343.949 490.431C344.531 489.873 344.847 489.291 345.405 488.927C345.915 489.097 346.279 489.534 346.643 489.873C346.351 490.237 344.993 505.498 344.92 505.765C342.469 506.663 339.97 507.633 336.743 508.604C335.166 509.089 334.292 509.355 332.691 509.744C330.314 510.326 328.955 510.544 326.554 510.86C315.781 512.218 308.915 511.975 298.87 507.851C294.261 505.959 291.689 504.6 287.759 501.543C283.586 498.316 281.377 496.109 278.466 491.717C276.792 489.17 275.991 487.593 274.803 484.779C272.959 480.436 272.013 477.815 271.601 473.132C271.552 472.453 271.551 472.065 271.503 471.362C271.212 465.976 270.848 462.845 271.794 457.556C272.206 455.324 272.522 454.087 273.201 451.904C274.996 446.105 276.379 442.732 280.018 437.856C281.474 435.915 282.421 434.896 284.095 433.149C284.725 432.494 285.066 432.129 285.721 431.523C287.2 430.14 288.074 429.413 289.724 428.248C290.621 427.618 291.155 427.277 292.102 426.719C292.951 426.21 293.436 425.943 294.31 425.506C302.68 421.163 308.357 420.121 317.795 419.66Z" fill="#E31F26"/>
<path d="M181.612 497.565C185.154 497.565 188.042 500.451 188.042 503.994C188.042 507.536 185.154 510.423 181.612 510.423C178.07 510.423 175.184 507.536 175.184 503.994C175.184 500.452 178.07 497.565 181.612 497.565Z" fill="#E31F26"/>
<path d="M246.295 497.565C249.861 497.565 252.724 500.451 252.725 503.994C252.725 507.536 249.861 510.423 246.295 510.423C242.728 510.423 239.865 507.536 239.865 503.994C239.865 500.451 242.753 497.565 246.295 497.565Z" fill="#E31F26"/>
<path d="M362.219 497.565C365.785 497.565 368.648 500.451 368.648 503.994C368.648 507.536 365.785 510.423 362.219 510.423C358.652 510.423 355.789 507.536 355.789 503.994C355.789 500.451 358.677 497.565 362.219 497.565Z" fill="#E31F26"/>
<path d="M248.939 420.848C249.109 422.134 248.988 423.372 249.206 424.658C249.643 428.442 250.056 432.591 250.517 436.328C250.347 436.691 250.807 437.079 250.371 437.346C249.91 437.516 249.424 437.855 249.06 438.098C248.866 437.953 248.455 438.243 248.576 437.807C247.12 436.182 245.446 435.284 243.117 434.241C242.001 433.731 241.345 433.537 240.181 433.173C238.604 432.664 237.706 432.445 236.081 432.106C233.218 431.499 231.568 431.378 228.656 431.111C226.085 430.868 223.27 430.942 222.009 430.747C221.79 430.747 221.645 431.014 221.427 430.965C221.306 434.451 221.378 458.397 221.378 458.502C222.567 458.43 223.586 458.551 225.018 458.502C227.856 458.405 229.482 458.43 232.224 457.824C234.722 457.266 236.202 456.901 238.458 455.664C240.666 454.451 242.365 453.383 243.529 451.685C243.82 451.806 244.815 452.583 244.936 452.874C244.888 456.053 244.936 468.426 244.936 473.982C244.936 474.199 243.086 474.897 243.068 474.904C243.05 474.704 242.868 474.558 242.676 474.385L242.437 474.248C240.982 472.671 239.792 472.114 237.852 471.216C237.269 470.949 236.954 470.804 236.348 470.585C235.741 470.391 235.377 470.294 234.77 470.149C229.797 468.863 226.157 468.474 221.669 468.62V498.389C221.669 499.675 222.64 502.126 223.901 504.188C225.066 506.032 226.206 507.148 227.613 508.361C227.371 508.943 227.225 509.671 226.886 510.278H200.197C199.882 509.768 199.809 509.089 199.542 508.628C199.785 508.07 200.512 507.803 200.779 507.245C201.41 506.614 201.895 505.886 202.477 505.231C205.146 501.058 206.263 496.181 206.408 490.916C206.336 490.615 206.457 441.425 206.408 437.614C206.19 433.586 205.341 429.849 203.473 426.477C202.478 424.876 201.192 423.371 199.615 422.425C199.834 421.843 200.222 421.358 200.561 420.848H248.939Z" fill="#E31F26"/>
<path d="M145.195 420.727C145.632 421.212 145.874 421.867 146.238 422.425C146.238 422.498 146.093 422.619 146.02 422.692C145.802 422.765 145.705 422.862 145.511 423.007C142.624 424.997 140.561 428.297 139.761 431.669C139.275 433.319 138.766 434.993 138.766 436.619V499.36C144.588 499.408 150.436 499.117 155.603 497.055C160.553 495.332 165.09 492.979 169.166 489.267C169.36 489.267 169.312 489.049 169.506 489L169.651 488.855L170.549 489.607C170.501 489.897 170.864 489.874 170.985 490.116C171.082 490.382 170.84 490.553 170.792 490.82C170.137 492.47 169.506 494.119 168.996 495.818C167.346 500.355 165.842 504.965 164.192 509.55C163.95 510.132 163.95 510.132 163.416 510.132H116.251C116.178 509.599 115.887 509.186 115.766 508.604C116.057 508.07 116.542 507.827 117.003 507.293C117.051 507.245 117.197 506.979 117.294 506.906C120.205 503.63 121.54 499.772 122.535 495.623C123.02 493.149 123.239 490.552 123.142 488.126V437.735C123.214 432.155 121.564 426.574 117.634 422.304C117.561 421.722 118.118 421.236 118.337 420.727H145.195Z" fill="#E31F26"/>
<path fill-rule="evenodd" clip-rule="evenodd" d="M378.911 -0.460571C379.906 -0.387634 380.536 0.389003 381.216 0.995483C386.432 7.08513 389.052 15.164 388.058 23.0004C385.437 36.9995 378.135 49.3734 371.438 61.6742C369.667 64.0761 368.211 66.6721 366.513 69.1469C353.751 87.8285 338.078 105.079 320.609 118.835C316.776 121.674 312.845 124.828 309.085 127.666C303.674 131.548 298.118 135.188 292.562 138.828C286.691 142.661 280.795 146.47 275.045 150.497C274.73 150.716 274.73 151.25 274.973 151.565C275.895 152.317 276.744 151.322 277.666 151.322C285.041 149.017 291.98 145.79 298.894 142.491C299.647 142.418 300.181 143.025 300.424 143.631C301.2 147.853 298.725 151.929 295.887 155.01C287.807 162.337 277.884 165.564 267.961 168.936C268.106 169.47 266.966 169.325 267.572 169.931C268.494 171.023 269.805 170.101 271.042 170.173C280.504 168.548 289.578 165.782 298.191 162.167C298.798 161.998 299.186 162.312 299.574 162.701C300.496 165.248 298.41 167.311 297.415 169.47C293.024 174.711 287.031 177.015 281.038 179.247C276.817 180.946 272.279 181.698 267.815 182.935C267.5 183.25 267.112 183.785 267.5 184.245C269.441 184.561 271.819 184.464 273.735 184.391C281.499 184.003 289.19 182.014 297.026 180.703C297.803 182.402 296.663 183.784 295.959 185.167C294.649 186.186 294.261 187.885 292.878 188.953C288.365 192.64 283.245 194.945 277.714 196.28C274.463 197.056 271.066 197.517 267.572 197.711C267.33 197.954 266.942 198.099 266.869 198.414C266.869 198.875 267.039 199.336 267.572 199.336C274.414 200.792 282.106 200.72 289.19 200.186C289.966 200.404 289.506 201.253 289.578 201.786C284.58 210.011 274.827 213.093 265.898 213.409C265.68 213.7 265.68 214.233 265.753 214.621C269.974 217.46 274.682 219.086 279.364 220.93C284.483 222.628 289.797 224.035 295.256 225.005C302.389 226.291 309.764 226.873 317.431 226.558C317.746 226.631 318.061 226.85 318.207 227.238L317.965 228.16C311.341 234.71 303.116 239.393 293.97 240.63C278.272 241.091 264.976 234.54 253.573 225.005C251.851 223.55 250.153 222.046 248.527 220.469L244.523 216.174C244.208 215.932 243.747 216.029 243.432 216.102C242.122 217.242 243.286 218.795 243.747 219.935C244.742 221.706 245.81 223.38 246.95 225.005C254.932 236.384 266.214 244.464 276.744 253.732C281.742 258.123 286.57 262.781 290.815 268.167C299.574 280.444 303.941 295.996 301.418 311.208C301.394 311.281 301.369 311.354 301.369 311.427V311.548C301.078 313.052 300.763 314.557 300.351 316.061C299.817 317.371 299.671 318.827 298.361 319.676C297.803 319.822 297.512 319.433 297.196 319.045C297.536 316.425 297.633 313.804 297.536 311.184C297.318 305.677 296.202 300.193 294.576 295.147C292.659 290.61 290.524 286.146 287.516 282.215C279.728 271.686 268.859 263.17 259.251 253.732C253.234 247.836 247.702 241.576 243.771 234.249C242.073 231.241 240.545 228.159 239.162 225.005C237.998 222.337 236.954 219.643 236.008 216.926C235.838 216.708 235.402 216.781 235.159 216.854C233.849 218.237 234.624 220.372 234.552 221.997C234.673 222.992 234.843 223.987 235.061 224.982C237.342 235.875 243.505 245.24 250.881 253.732C254.617 258.05 258.669 262.127 262.696 266.081C267.063 270.085 271.236 273.773 275.991 277.606C273.759 289.033 275.312 301.043 280.528 311.184C282.493 315.017 284.968 318.584 287.977 321.738C289.966 323.727 292.66 325.426 294.746 327.342C293.29 329.113 290.597 329.041 288.365 328.726C283.828 328.022 279.752 326.324 276.064 323.558C275.676 323.412 275.676 323.873 275.676 324.164C276.816 339.401 279.436 354.128 283.318 368.612C283.852 370.674 284.434 372.737 285.041 374.775C287.176 379.093 287.807 384.48 291.956 387.706C295.086 389.866 299.089 389.939 303.019 389.793H303.723C308.478 389.405 314.083 389.308 318.014 392.389C318.96 393.384 319.396 393.942 319.639 394.864C320.342 398.188 317.94 400.857 315.417 402.87C314.713 403.331 313.864 403.865 312.942 403.719C312.311 401.875 310.638 400.493 308.939 399.716C307.814 399.164 307.748 398.983 306.026 398.589L305.203 398.576C293.848 396.198 280.358 396.44 268.664 397.435C262.356 398.041 256.121 398.819 251.196 402.652C250.056 403.792 249.109 405.345 249.352 406.8C249.036 407.115 249.085 406.8 248.357 406.8C246.368 406.8 244.742 405.588 243.893 403.962C242.898 401.973 243.504 400.056 244.669 398.43C245.591 397.193 247.072 396.659 248.212 395.664C248.382 395.276 247.993 394.961 247.678 394.888C243.602 394.961 239.065 395.568 237.075 399.425C237.002 399.886 236.93 400.25 236.614 400.493C235.595 400.42 234.601 399.886 234.067 398.964C233.218 397.751 233.218 395.665 233.679 394.282C235.159 391.419 237.997 389.429 241.297 389.501C242.849 389.356 244.378 389.744 245.761 389.429C245.227 388.216 245.227 386.76 245.834 385.595C249.667 381.35 256.291 383.97 260.9 384.746C263.981 385.596 267.063 387.052 270.217 387.901C271.211 388.216 272.522 388.289 273.662 388.362C274.657 388.434 275.506 387.513 276.04 386.833C276.744 383.898 274.124 381.835 273.274 379.142C271.722 375.818 270.29 372.446 268.956 369.049C268.907 369.025 268.907 368.976 268.907 368.952C268.907 368.903 268.858 368.83 268.858 368.83C263.06 353.837 259.203 337.848 256.971 321.69C256.825 321.447 256.654 321.302 256.363 321.374C255.126 322.612 254.422 324.14 252.967 325.135C251.026 327.052 248.43 328.896 245.81 329.818C245.567 329.041 246.101 328.362 246.344 327.731C248.091 322.442 248.648 316.861 248.309 311.329C247.945 305.41 246.537 299.538 244.427 294.201L244.111 293.885C227.031 291.799 210.582 287.504 194.811 280.953C180.909 275.446 165.964 266.372 156.308 253.853C154.003 250.844 151.989 247.666 150.363 244.27C147.209 238.447 145.195 231.872 144.249 225.103C142.939 215.519 143.764 205.45 146.53 196.376C147.646 192.689 149.077 189.17 150.824 185.895C152.45 181.892 154.682 178.035 157.132 174.808C166.885 160.081 180.934 149.696 194.496 138.9C200.901 133.805 207.185 128.612 212.887 122.814C217.86 117.525 222.494 110.683 219.874 103.21C219.243 101.925 218.637 100.687 217.86 99.8383C213.93 94.5977 206.627 94.2826 200.561 95.5199C195.709 96.6845 190.881 97.679 186.028 98.14C183.966 101.731 181.879 105.2 179.113 108.427C182.34 107.821 185.737 108.427 188.261 110.344C189.716 111.654 190.783 112.503 192.02 113.958C194.956 113.425 197.553 111.969 199.566 109.882C199.857 114.735 195.708 119.03 191.56 120.873C188.114 122.474 183.869 121.479 181.103 119.102C178.726 116.87 177.269 114.25 176.178 111.484C174.237 112.867 172.563 114.25 170.792 115.705C172.175 118.447 170.864 121.528 169.02 123.615C166.4 126.089 161.864 128.856 163.174 133.078C163.344 133.368 163.561 133.684 163.561 134.072C160.407 134.533 157.496 132.98 155.798 130.286C154.803 127.982 154.876 125.216 155.725 122.911C159.121 116.992 165.503 115.22 170.646 111.459C171.471 110.61 172.781 109.98 173.097 108.912C171.471 107.918 169.797 109.009 168.172 109.228C164.387 110.538 161.402 113.449 157.326 113.837C155.482 113.91 153.396 113.983 151.94 113.206C150.873 113.449 150.023 112.454 149.028 112.066C147.791 111.144 146.797 109.616 147.258 108.161C148.325 108.379 149.708 109.228 150.945 108.767C156.259 107.311 160.723 102.774 166.643 103.308C169.699 103.138 172.708 104.909 174.94 106.995C177.245 104.594 179.089 101.512 180.545 98.601C179.089 97.3879 175.717 97.606 175.329 94.8402C175.183 94.4035 175.717 94.0155 175.571 93.6273C177.949 93.409 180.424 93.7724 182.874 93.0931C183.796 90.3273 184.572 87.2457 184.572 84.3344L184.257 84.0922C178.264 84.3834 172.878 86.154 167.734 88.3861C167.347 86.6152 168.754 85.0624 169.36 83.4613C172.514 78.609 178.435 76.7656 183.748 75.14C183.287 72.2286 181.831 69.6075 179.987 67.2299C182.389 67.5209 184.451 66.769 186.61 66.308C187.823 68.8555 188.673 71.549 189.595 74.3148C193.428 73.9509 197.286 74.0966 200.974 73.7084C200.197 72.1556 199.809 70.4566 200.731 68.9281C205.123 62.6934 214.099 64.2948 220.723 64.9984C226.958 66.1387 232.781 68.2248 238.871 70.0687C247.241 72.8346 255.563 75.6976 264.71 76.6195C268.495 76.6195 272.401 75.5274 274.948 72.8344C275.482 72.3733 275.167 70.8454 276.331 71.306C277.787 72.3008 277.108 74.2176 276.865 75.5277C275.943 79.2155 272.328 81.5936 269.102 83.2191C264.201 85.2086 258.111 86.0576 252.579 85.3783C250.274 85.2812 248.042 84.1411 245.592 84.7474C245.349 85.0628 245.349 85.4262 245.592 85.7416C248.358 87.0517 251.196 89.2116 252.506 92.1957C256.897 98.7464 255.514 108.136 251.584 114.662C246.222 123.397 238.773 130.918 231.907 138.828C230.913 139.943 229.942 141.108 228.972 142.273C217.593 155.811 208.761 172.334 212.91 190.87C213.347 192.956 214.512 195.236 216.55 196.28C216.695 196.352 216.841 196.401 216.986 196.474C217.666 196.62 218.249 196.522 218.807 196.28C220.141 195.697 221.16 194.242 221.984 193.029C222.736 190.942 224.046 189.098 224.435 186.793C226.982 177.331 228.971 167.626 232.053 158.333C234.503 151.71 237.609 145.111 241.952 139.264C242.025 139.167 242.074 139.094 242.146 139.021C242.195 138.948 242.292 138.803 242.292 138.803C243.359 137.42 244.718 135.794 245.883 134.557C247.557 131.937 250.25 129.875 252.409 127.57C268.956 112.115 287.637 98.965 301.782 81.351C312.724 68.4194 322.089 54.3473 326.554 38.3588C328.47 32.0508 327.475 24.1414 323.715 18.7552C323.472 18.1487 323.788 17.5903 324.394 17.4447C327.403 17.081 329.781 19.4582 332.158 20.9867C339.121 25.4752 340.382 34.9133 338.927 43.1381C338.078 50.1983 335.166 56.6523 331.769 62.8148C322.914 77.8085 310.541 91.1284 297.464 102.798C294.698 104.957 292.004 107.723 289.166 109.737C278.345 119.199 266.651 128.007 257.262 138.803C253.258 143.413 249.667 148.387 246.731 153.943C240.884 164.327 238.264 176.093 234.504 187.327C233.436 190.505 231.884 193.611 229.846 196.28C227.516 199.337 224.556 201.86 220.893 203.412C220.335 203.873 219.947 204.48 220.189 205.256C220.966 206.566 222.712 205.644 223.877 205.717C229.554 204.067 234.018 200.622 237.536 196.28C241.733 191.112 244.524 184.707 246.416 178.569C248.357 173.401 250.42 167.868 253.04 163.016C256.97 155.859 263.57 151.031 269.878 146.106C273.42 143.655 276.962 141.229 280.528 138.803C303.529 123.033 326.359 106.85 343.148 84.2865C356.978 66.6482 366.901 47.6752 373.209 26.9799C374.446 22.1517 376.266 17.3714 376.97 12.3734C377.358 8.68575 378.45 5.07077 378.135 0.752319C378.28 0.315611 378.353 -0.31502 378.911 -0.460571ZM200.852 157.436C196.485 160.372 193.234 164.375 189.935 168.135C186.392 172.818 183.311 178.205 180.934 183.663C179.211 187.667 178.071 191.912 177.488 196.231C176.178 205.887 177.609 215.98 181.297 224.957C182.971 229.058 185.106 232.891 187.678 236.361C192.821 243.445 199.445 249.268 206.82 253.707C211.392 256.46 216.242 258.679 221.208 260.345L222.275 260.647C223.658 260.938 225.187 262.321 226.57 261.399C226.716 260.55 225.479 260.113 224.872 259.555C222.13 257.735 219.364 255.794 216.695 253.683C211.867 249.874 207.306 245.58 203.594 240.558C202.502 239.733 201.895 238.35 200.974 237.258C198.353 233.328 196.146 229.227 194.326 224.957C191.269 217.752 189.401 210.084 188.964 201.811C188.818 199.967 188.794 198.075 188.867 196.231C189.183 187.351 191.705 178.423 195.32 170.295C197.164 166.122 199.227 162.362 201.774 158.601V157.825C201.629 157.436 201.241 157.436 200.852 157.436ZM190.444 83.7523C190.347 85.863 190.226 86.1302 189.935 87.6342C189.616 89.3115 189.149 90.9519 188.793 92.0345L188.624 92.4623C194.883 91.5646 201.968 89.7939 201.969 86.4701C201.969 84.0439 198.159 83.7523 190.444 83.7523ZM211.988 75.7943C211.139 75.7942 209.902 75.1884 209.441 76.0375C208.98 77.4932 209.053 79.4343 210.29 80.5746C211.097 81.1903 212.034 81.378 213.019 81.4154L213.444 81.3988C217.375 81.0834 220.844 79.6284 224.75 79.1674C224.823 78.949 224.993 78.6332 224.75 78.4877C220.674 77.2504 216.282 76.5707 211.988 75.7943Z" fill="#E31F26"/>
<path d="M200.197 286.898C207.354 290.367 214.972 293.522 222.882 295.366C224.968 295.899 227.274 295.996 229.336 296.603C229.457 301.528 230.039 306.453 231.131 311.184C232.611 317.565 235.062 323.63 238.628 329.04C237.706 329.331 236.469 329.041 235.475 328.798C231.471 327.173 227.783 324.649 224.702 321.568C224.484 329.259 221.621 337.314 217.254 343.865C211.674 352.211 205.608 360.387 199.591 368.612C195.903 373.634 192.24 378.681 188.722 383.776C188.236 384.625 187.8 385.79 188.091 386.785C188.795 388.458 190.808 388.143 192.337 388.385C197.796 388.312 203.424 387.682 208.495 389.235C208.98 389.38 209.126 389.428 209.587 389.622C211.649 390.399 214.123 392.17 214.196 394.766C214.196 397.459 213.42 400.007 211.115 401.851C210.752 402.19 210.654 402.239 210.509 402.384C209.713 402.816 208.853 403.398 207.929 403.209L207.719 403.137C208.18 402.312 208.034 401.074 207.33 400.37C204.346 397.896 200.416 397.217 196.485 396.756C189.789 396.295 183.019 395.834 176.323 396.222C168.268 396.44 159.874 396.44 152.498 398.988C150.242 400.225 147.33 401.778 147.645 404.69C147.646 405.005 147.937 405.296 147.719 405.612C145.123 405.927 142.381 404.907 141.265 402.239C140.658 400.152 141.727 398.163 142.964 396.537C144.201 395.155 145.899 394.233 147.428 393.456C147.743 393.214 148.058 392.777 147.67 392.535C146.117 391.928 144.419 392.243 142.817 392.461C139.033 393.408 135.273 395.009 133.429 398.551C131.9 397.993 131.051 396.853 130.59 395.542C129.983 393.48 130.687 391.394 132.143 390.011C135.515 387.464 140.198 387.464 144.517 387.852C144.056 386.687 143.959 385.377 144.662 384.31C145.875 383 147.088 382.32 150.727 381.689C158.418 381.01 164.047 387.391 171.956 385.232C174.795 383.922 176.493 381.082 177.876 378.704C179.962 375.308 181.953 372.082 183.918 368.855C189.741 359.271 195.442 349.469 200.804 336.732C204.346 328.337 206.967 322.417 208.81 314.799C204.031 318.73 198.45 323.339 191.657 323.339C193.404 319.433 194.908 315.381 196.121 311.281C198.474 303.371 199.906 294.953 200.197 286.898Z" fill="#E31F26"/>
<path d="M265.462 237.379C267.767 237.767 269.684 239.296 271.916 240.073C283.392 244.779 295.789 248.176 307.022 253.707C314.786 257.565 322.016 262.442 328.033 269.527C338.441 280.711 343.124 296.045 342.518 311.184C342.299 317.177 341.208 323.145 339.34 328.823C336.938 336.732 332.861 344.059 328.64 351.046C327.817 351.939 327.222 353.767 325.708 353.527L325.583 353.497C324.976 352.333 325.971 351.58 325.971 350.415C329.828 337.435 329.853 325.159 326.044 311.184C325.365 308.709 324.588 306.186 323.666 303.59C320.439 294.395 317.261 289.712 311.899 281.584C303.675 269.114 294.115 261.18 284.386 253.707C277.981 248.782 271.478 244.052 265.243 238.374C265.073 237.986 265.146 237.622 265.462 237.379Z" fill="#E31F26"/>
<path fill-rule="evenodd" clip-rule="evenodd" d="M311.681 322.466C314.034 322.466 315.175 323.242 315.175 324.771C315.175 325.96 314.471 326.784 313.258 327.027L315.126 330.861H313.354L311.632 327.27H310.079V330.861H308.503V322.466H311.681ZM310.056 323.485V326.275H311.39C312.845 326.275 313.524 325.984 313.524 324.941C313.524 323.898 312.845 323.485 311.365 323.485H310.056Z" fill="#E31F26"/>
<path fill-rule="evenodd" clip-rule="evenodd" d="M311.414 319.336C313.428 319.336 315.272 320.089 316.703 321.544C318.062 322.927 318.838 324.722 318.838 326.76C318.838 328.798 318.086 330.618 316.679 331.977C315.223 333.408 313.403 334.185 311.414 334.185C309.425 334.185 307.605 333.408 306.174 331.977C304.767 330.545 304.014 328.75 304.014 326.785C304.014 324.942 304.718 323.164 306.005 321.749L306.27 321.447C307.629 320.064 309.4 319.336 311.414 319.336ZM311.463 320.33C309.74 320.33 308.138 320.962 306.974 322.151C305.712 323.437 305.009 325.111 305.009 326.785C305.009 328.459 305.688 330.06 306.901 331.297C308.114 332.535 309.74 333.214 311.39 333.214C313.136 333.214 314.713 332.559 315.999 331.322C317.212 330.133 317.868 328.629 317.868 326.833C317.868 325.038 317.237 323.436 316.048 322.247C314.811 320.986 313.185 320.331 311.463 320.33Z" fill="#E31F26"/>
<path d="M327.961 206.446C328.203 206.518 328.591 206.518 328.664 206.833C328.979 208.386 327.427 209.454 326.966 210.764C324.515 214.233 321.895 217.679 318.887 220.76C312.603 221.828 306.125 221.609 299.599 221.221C296.978 221.076 294.527 220.541 292.053 220.08C291.834 219.838 291.98 219.547 292.053 219.304C305.106 217.679 316.8 212.754 327.961 206.446Z" fill="#E31F26"/>
<path d="M345.623 177.525C346.084 177.452 346.375 177.986 346.618 178.301C346.836 179.757 345.38 180.922 344.992 182.232C341.207 187.472 336.38 192.373 331.382 196.255C331.018 196.546 330.654 196.813 330.314 197.079C320.537 205.134 309.23 210.157 297.633 213.991C293.314 214.985 288.85 216.126 284.24 216.514L283.246 216.369V215.908C288.875 212.996 295.256 207.609 294.479 200.525L294.552 199.676C299.453 198.827 304.232 197.687 308.891 196.231C319.663 192.931 329.828 188.03 339.388 181.843C341.344 180.615 343.087 178.789 345.196 177.746L345.623 177.525Z" fill="#E31F26"/>
<path d="M357.948 146.469C358.652 146.396 359.137 146.688 359.185 147.537C358.482 151.419 356.565 154.525 354.406 157.679C346.254 169.373 334.56 177.744 322.647 184.901C313.792 189.438 304.79 193.368 295.183 195.139C295.037 194.993 295.037 194.75 295.037 194.605C295.038 194.217 295.789 194.362 295.717 193.902C300.254 190.141 302.267 184.585 301.879 178.908C313.282 175.147 324.03 169.834 334.487 163.841C339.267 160.857 343.877 157.776 348.414 154.234C352.102 151.929 354.333 148.847 357.948 146.469Z" fill="#E31F26"/>
<path d="M370.225 111.799C370.831 111.484 371.923 111.484 372.068 112.406C371.535 119.49 367.313 125.435 363.237 131.185C361.127 133.829 358.942 136.377 356.638 138.803C341.256 155.058 321.701 166.291 302.024 174.856C301.66 174.856 301.2 175.244 300.957 174.784C301.2 173.789 302.195 173.085 302.728 172.163C305.033 168.379 305.737 163.768 304.427 159.62C316.606 153.724 328.421 146.809 339.558 138.779C350.205 131.093 360.237 122.428 369.368 112.718L370.225 111.799Z" fill="#E31F26"/>
<path d="M388.082 68.1761C388.689 67.3273 390.168 67.4004 390.387 68.5648C390.459 70.9667 389.562 73.1018 388.858 75.2611C384.928 84.7233 379.395 93.1906 372.699 101.415C360.107 115.851 345.429 128.104 329.756 138.803C321.288 144.577 312.578 149.891 303.723 154.84C303.504 154.695 303.432 154.379 303.577 154.088C306.028 150.764 306.804 146.082 305.421 142.078C305.033 141.229 304.572 140.38 304.427 139.531C304.863 139.288 305.276 139.021 305.713 138.779C336.113 120.655 366.004 97.2176 388.082 68.1761Z" fill="#E31F26"/>
<path d="M345.138 34.5736C345.283 34.1127 345.987 33.797 346.594 34.0394C347.443 34.8885 348.146 35.9808 348.753 37.0482C354.454 46.3648 351.082 58.8117 345.842 67.3519C334.463 88.2656 316.921 104.715 298.167 118.714C292.781 122.426 287.492 126.114 282.179 129.948C275.361 134.654 269.125 139.41 262.89 144.723C262.186 144.869 261.798 145.014 261.191 144.869C260.803 144.626 260.658 144.335 260.415 144.092C260.585 141.933 262.575 140.793 263.812 139.167C284.71 118.365 310.591 102.759 328.127 78.5092L328.907 77.3236C337.059 66.2603 343.585 53.6438 345.356 39.7904C345.356 38.0435 345.138 36.3447 345.138 34.5736Z" fill="#E31F26"/>
<path d="M392.473 30.182C392.788 29.7938 393.565 29.7943 393.783 30.2552C394.852 32.0748 394.855 34.342 395.231 36.4574L395.287 36.8304C396.136 44.1574 394.753 51.5332 390.92 57.3802C378.838 75.2853 363.31 89.8421 347.079 103.671L343.318 106.68C342.93 106.68 342.25 106.826 341.862 106.365C341.62 106.074 341.789 105.54 341.862 105.225C349.553 96.3694 358.555 88.3135 365.47 78.6088C375.004 66.9388 382.089 53.619 388.543 40.3236C389.926 37.0241 391.09 33.5786 392.473 30.182Z" fill="#E31F26"/>
</g>
</g>
<defs>
<clipPath id="clip0_1_2237">
<rect width="512" height="512" fill="white"/>
</clipPath>
<clipPath id="clip1_1_2237">
<rect width="279.789" height="512" fill="white" transform="translate(115.766 -0.484985)"/>
</clipPath>
</defs>
</svg>
