<svg width="596" height="596" viewBox="0 0 596 596" fill="none" xmlns="http://www.w3.org/2000/svg">
<path d="M40 91.2C40 73.2783 40 64.3175 43.4878 57.4723C46.5557 51.4511 51.4511 46.5557 57.4723 43.4878C64.3175 40 73.2783 40 91.2 40H504.8C522.722 40 531.683 40 538.528 43.4878C544.549 46.5557 549.444 51.4511 552.512 57.4723C556 64.3175 556 73.2783 556 91.2V504.8C556 522.722 556 531.683 552.512 538.528C549.444 544.549 544.549 549.444 538.528 552.512C531.683 556 522.722 556 504.8 556H91.2C73.2783 556 64.3175 556 57.4723 552.512C51.4511 549.444 46.5557 544.549 43.4878 538.528C40 531.683 40 522.722 40 504.8V91.2Z" fill="#303030"/>
<path d="M57.4723 552.512L59.7423 548.057L57.4723 552.512ZM43.4878 538.528L39.0328 540.798L43.4878 538.528ZM552.512 538.528L556.967 540.798L552.512 538.528ZM538.528 552.512L540.798 556.967L538.528 552.512ZM538.528 43.4878L540.798 39.0328L538.528 43.4878ZM552.512 57.4723L548.057 59.7423L552.512 57.4723ZM57.4723 43.4878L55.2024 39.0328L57.4723 43.4878ZM43.4878 57.4723L39.0328 55.2024L43.4878 57.4723ZM91.2 40V45H504.8V40V35H91.2V40ZM556 91.2H551V504.8H556H561V91.2H556ZM504.8 556V551H91.2V556V561H504.8V556ZM40 504.8H45V91.2H40H35V504.8H40ZM91.2 556V551C82.1567 551 75.6749 550.996 70.5896 550.581C65.5628 550.17 62.3425 549.382 59.7423 548.057L57.4723 552.512L55.2024 556.967C59.4473 559.13 64.13 560.086 69.7753 560.547C75.3622 561.004 82.3217 561 91.2 561V556ZM40 504.8H35C35 513.678 34.9961 520.638 35.4526 526.225C35.9138 531.87 36.8699 536.553 39.0328 540.798L43.4878 538.528L47.9428 536.258C46.6179 533.658 45.8301 530.437 45.4194 525.41C45.0039 520.325 45 513.843 45 504.8H40ZM57.4723 552.512L59.7423 548.057C54.6619 545.469 50.5314 541.338 47.9428 536.258L43.4878 538.528L39.0328 540.798C42.5801 547.76 48.2404 553.42 55.2024 556.967L57.4723 552.512ZM556 504.8H551C551 513.843 550.996 520.325 550.581 525.41C550.17 530.437 549.382 533.658 548.057 536.258L552.512 538.528L556.967 540.798C559.13 536.553 560.086 531.87 560.547 526.225C561.004 520.638 561 513.678 561 504.8H556ZM504.8 556V561C513.678 561 520.638 561.004 526.225 560.547C531.87 560.086 536.553 559.13 540.798 556.967L538.528 552.512L536.258 548.057C533.658 549.382 530.437 550.17 525.41 550.581C520.325 550.996 513.843 551 504.8 551V556ZM552.512 538.528L548.057 536.258C545.469 541.338 541.338 545.469 536.258 548.057L538.528 552.512L540.798 556.967C547.76 553.42 553.42 547.76 556.967 540.798L552.512 538.528ZM504.8 40V45C513.843 45 520.325 45.0039 525.41 45.4194C530.437 45.8301 533.658 46.6179 536.258 47.9428L538.528 43.4878L540.798 39.0328C536.553 36.8699 531.87 35.9138 526.225 35.4526C520.638 34.9961 513.678 35 504.8 35V40ZM556 91.2H561C561 82.3217 561.004 75.3622 560.547 69.7753C560.086 64.13 559.13 59.4473 556.967 55.2024L552.512 57.4723L548.057 59.7423C549.382 62.3425 550.17 65.5628 550.581 70.5896C550.996 75.6749 551 82.1567 551 91.2H556ZM538.528 43.4878L536.258 47.9428C541.338 50.5314 545.469 54.6619 548.057 59.7423L552.512 57.4723L556.967 55.2024C553.42 48.2404 547.76 42.5801 540.798 39.0328L538.528 43.4878ZM91.2 40V35C82.3217 35 75.3622 34.9961 69.7753 35.4526C64.13 35.9138 59.4473 36.8699 55.2024 39.0328L57.4723 43.4878L59.7423 47.9428C62.3425 46.6179 65.5628 45.8301 70.5896 45.4194C75.6749 45.0039 82.1567 45 91.2 45V40ZM40 91.2H45C45 82.1567 45.0039 75.6749 45.4194 70.5896C45.8301 65.5628 46.6179 62.3425 47.9428 59.7423L43.4878 57.4723L39.0328 55.2024C36.8699 59.4473 35.9138 64.13 35.4526 69.7753C34.9961 75.3622 35 82.3217 35 91.2H40ZM57.4723 43.4878L55.2024 39.0328C48.2404 42.5801 42.5801 48.2404 39.0328 55.2024L43.4878 57.4723L47.9428 59.7423C50.5314 54.6619 54.6619 50.5314 59.7423 47.9428L57.4723 43.4878Z" fill="#B3B3B3" fill-opacity="0.1"/>
<path d="M142.356 391.465H453.904V142.26H142.356V391.465Z" fill="#D10214"/>
<path d="M419.261 230.773C409.692 230.773 401.923 238.543 401.923 248.075C401.923 257.644 409.693 265.414 419.261 265.414C428.794 265.414 436.563 257.644 436.563 248.075C436.563 238.543 428.793 230.773 419.261 230.773ZM399.153 273.471C399.333 274.083 398.757 274.478 397.642 275.342L396.959 275.702L397.21 276.17C397.354 276.422 397.103 276.889 396.635 277.105L395.592 277.644C395.124 277.86 394.62 277.824 394.477 277.537L394.261 277.105L392.966 277.752L393.182 278.184C393.325 278.471 393.038 278.903 392.57 279.119L391.527 279.623C391.023 279.838 390.52 279.767 390.376 279.48L390.196 279.083C386.203 280.954 381.743 282.932 377.138 285.09L377.39 285.702C377.534 285.953 377.246 286.385 376.778 286.637L375.735 287.105C375.268 287.32 374.764 287.249 374.62 286.962L374.369 286.386L372.858 287.105L373.145 287.68C373.289 288.005 373.002 288.436 372.534 288.652L371.491 289.12C371.023 289.335 370.519 289.299 370.375 288.976L370.124 288.4C368.002 289.263 365.736 289.587 364.081 286.494C363.362 285.055 363.326 281.746 362.786 279.983C362.499 279.048 361.419 278.904 361.419 278.904C341.131 275.019 334.261 279.336 321.239 276.134C317.174 275.127 314.944 271.35 309.908 271.314C298.936 270.99 295.663 271.134 283.757 270.667C283.253 272.429 283.181 272.789 283.181 272.789L241.31 272.574L247.677 275.739L249.764 294.192C249.764 294.192 248.073 294.696 247.569 294.768C247.965 298.473 248.361 303.437 248.577 307.897C248.756 311.926 248.973 316.135 248.937 318.833C248.9 319.66 248.9 321.638 247.75 323.797C246.994 325.236 245.663 326.423 244.584 327.214C244.224 327.501 242.606 328.581 240.735 329.696C238.793 330.811 236.634 331.962 235.483 332.538C235.591 333.042 235.951 333.545 236.059 333.941C210.591 346.243 179.044 350.452 168.828 370.02C167.641 372.286 163.469 371.099 163.361 368.653C163.324 367.538 163.324 365.703 163.398 364.732L163.002 364.696C162.677 364.696 162.426 364.228 162.462 363.724L162.499 362.573C162.536 362.034 162.823 361.638 163.146 361.638L163.578 361.675C163.722 360.523 163.938 359.409 164.225 358.33L163.829 358.186C163.542 358.078 163.433 357.574 163.614 357.071L163.974 355.992C164.189 355.488 164.55 355.2 164.874 355.308L165.27 355.416C167.068 351.171 170.593 349.301 172.212 345.308L171.961 345.2C171.637 345.093 171.529 344.588 171.709 344.085L172.069 343.005C172.285 342.538 172.681 342.215 172.969 342.323L173.256 342.396C173.508 341.821 173.796 341.173 174.119 340.562L173.759 340.31C173.472 340.13 173.472 339.627 173.759 339.195L174.371 338.224C174.658 337.792 175.126 337.576 175.378 337.756L175.521 337.83L175.701 337.867C175.775 337.867 175.809 337.83 175.88 337.793C176.06 337.613 176.241 337.432 176.42 337.289C178.075 335.994 180.125 336.21 181.816 337.215C183.399 338.186 189.658 341.748 195.665 336.316C205.593 327.431 217.211 315.309 225.953 314.913C223.579 309.769 219.478 299.085 219.01 295.129L216.061 294.518C214.55 291.244 210.809 276.064 209.766 264.661C209.766 264.661 208.543 252.359 209.729 248.042C209.046 247.969 207.823 248.978 207.463 248.978C205.88 245.057 211.06 211.928 216.204 202.287L224.082 199.158C223.255 199.05 217.571 198.798 202.607 197.575C194.262 204.949 184.586 212.935 179.693 217.287C178.866 217.898 177.463 222.611 177.463 222.611C177.463 222.611 174.981 224.805 172.715 226.388C169.657 228.546 162.247 230.165 160.664 227.647C160.268 227.035 160.34 226.747 160.701 226.388C161.852 225.201 166.169 223.114 167.644 220.38C165.305 221.567 162.644 222.826 160.557 222.611C159.658 222.574 159.226 220.344 160.378 219.949C163.507 218.618 166.025 218.042 167.86 215.416C169.658 212.934 171.817 211.244 174.694 211.172C174.694 211.172 188.615 193.006 196.816 184.373C199.082 181.999 203.291 182.79 203.291 182.79L204.01 180.02C204.01 180.02 232.14 176.675 245.234 181.028C244.91 173.042 248.507 162.502 260.917 162.502C267.32 162.502 276.745 168.15 278.004 175.02C278.4 177.143 277.177 178.546 276.529 181.208C275.414 185.272 276.961 189.733 276.492 191.136C276.132 192.323 274.801 192.215 273.686 193.798C272.463 195.488 271.096 198.654 271.096 198.654L269.406 202.467L260.629 201.819C257.427 208.726 250.845 222.863 248.542 236.819C255.449 237.431 286.636 241.927 286.636 241.927L287.391 244.482C287.391 244.482 300.557 246.064 311.311 251.172C313.721 251.747 319.765 250.848 323.722 252.683C324.009 252.503 324.657 251.856 324.909 251.676C338.937 255.992 350.52 263.33 364.082 266.604C364.082 266.604 370.377 268.151 372.535 268.582C377.535 269.554 380.736 269.769 383.362 269.985C387.715 270.309 390.125 270.237 393.29 270.417C395.52 270.561 398.254 270.198 399.153 273.471Z" fill="white"/>
<path d="M437.678 425.536L432.822 440.68H442.463L437.678 425.536ZM444.153 446.724H431.023L428.685 453.738H420.34L432.318 420.249H443.002L454.909 453.738H446.492L444.153 446.724ZM416.851 434.386V452.588C413.722 453.667 409.585 454.35 405.268 454.35C393.614 454.35 388.146 449.171 388.146 436.976C388.146 424.854 393.614 419.638 405.268 419.638C409.405 419.638 413.326 420.286 416.312 421.509V427.984C413.038 426.869 409.405 426.221 405.916 426.221C398.901 426.221 396.707 429.063 396.707 436.977C396.707 445.25 399.009 447.984 405.628 447.984C407.139 447.984 408.614 447.876 410.017 447.696V440.214H403.794V434.387L416.851 434.386ZM373.829 420.249H382.211V453.738H373.829V420.249ZM345.879 420.249H354.224V447.371H368.613V453.738H345.879L345.879 420.249ZM315.304 452.443V445.932C319.332 447.263 322.93 447.731 326.49 447.731C330.339 447.731 332.03 446.724 332.03 444.134C332.03 441.867 331.311 441.22 328.217 440.572L322.641 439.421C316.85 438.234 314.907 435.861 314.907 430.141C314.907 422.803 319.224 419.638 327.929 419.638C331.886 419.638 335.591 420.285 338.613 421.436V427.983C335.016 426.76 331.671 426.22 328.433 426.22C324.296 426.22 322.894 427.3 322.894 429.925C322.894 432.084 323.865 432.695 326.563 433.271L331.958 434.422C338.289 435.789 340.016 437.911 340.016 443.883C340.016 451.077 335.592 454.351 326.563 454.351C322.606 454.351 318.793 453.702 315.304 452.443ZM286.562 420.249H310.016V426.652H294.908V433.703H307.462V439.997H294.908V447.372H310.34V453.739H286.563L286.562 420.249ZM265.411 447.372C270.303 447.372 271.922 444.818 271.922 436.976C271.922 429.206 270.303 426.652 265.411 426.652H259.08V447.372H265.411ZM250.699 420.249H265.663C277.39 420.249 280.448 425.069 280.448 436.976C280.448 448.559 277.102 453.739 265.663 453.739H250.699V420.249ZM243.829 420.249V453.739H233.649L219.404 429.53V453.739H211.634V420.249H221.814L236.023 444.494V420.249H243.829ZM175.483 442.839V420.249H183.828V442.588C183.828 446.293 185.519 447.696 190.051 447.696C194.548 447.696 196.238 446.293 196.238 442.588V420.249H204.62V442.839C204.62 450.717 200.051 454.35 190.052 454.35C180.052 454.35 175.483 450.717 175.483 442.839ZM161.886 443.81C161.886 440.717 160.663 439.422 157.821 439.422H150.303V448.091H157.821C160.807 448.091 161.886 446.832 161.886 443.81ZM150.303 434.241H157.318C160.124 434.241 161.383 433.019 161.383 430.141C161.383 427.12 160.196 425.933 157.318 425.933H150.303V434.241ZM170.015 444.601C170.015 450.573 167.246 453.739 159.692 453.739H142.354V420.249H159.044C166.85 420.249 169.548 423.343 169.548 428.99C169.548 433.343 167.929 435.285 163.289 436.436L162.426 436.689L163.181 436.832C168.397 437.983 170.015 439.925 170.015 444.601Z" fill="#191917"/>
<rect x="40" y="4" width="69.0938" height="30" rx="3" fill="#303030"/>
<rect x="40.5" y="4.5" width="68.0938" height="29" rx="2.5" stroke="white" stroke-opacity="0.0980392"/>
<path d="M46.9688 22V14H49.7656C50.3229 14 50.7826 14.0964 51.1445 14.2891C51.5065 14.4792 51.776 14.7357 51.9531 15.0586C52.1302 15.3789 52.2188 15.7344 52.2188 16.125C52.2188 16.4687 52.1576 16.7526 52.0352 16.9766C51.9154 17.2005 51.7565 17.3776 51.5586 17.5078C51.3633 17.638 51.151 17.7344 50.9219 17.7969V17.875C51.1667 17.8906 51.4128 17.9766 51.6602 18.1328C51.9076 18.2891 52.1146 18.513 52.2813 18.8047C52.4479 19.0964 52.5312 19.4531 52.5312 19.875C52.5312 20.276 52.4401 20.6367 52.2578 20.957C52.0755 21.2773 51.7878 21.5312 51.3945 21.7187C51.0013 21.9062 50.4896 22 49.8594 22H46.9688ZM47.9375 21.1406H49.8594C50.4922 21.1406 50.9414 21.0182 51.207 20.7734C51.4753 20.526 51.6094 20.2266 51.6094 19.875C51.6094 19.6042 51.5404 19.3542 51.4023 19.125C51.2643 18.8932 51.0677 18.7083 50.8125 18.5703C50.5573 18.4297 50.2552 18.3594 49.9063 18.3594H47.9375V21.1406ZM47.9375 17.5156H49.7344C50.026 17.5156 50.2891 17.4583 50.5234 17.3437C50.7604 17.2292 50.9479 17.0677 51.0859 16.8594C51.2266 16.651 51.2969 16.4062 51.2969 16.125C51.2969 15.7734 51.1745 15.4753 50.9297 15.2305C50.6849 14.9831 50.2969 14.8594 49.7656 14.8594H47.9375V17.5156ZM57.7793 19.5469V16H58.7012V22H57.7793V20.9844H57.7168C57.5762 21.2891 57.3574 21.5482 57.0605 21.7617C56.7637 21.9727 56.3887 22.0781 55.9355 22.0781C55.5605 22.0781 55.2272 21.9961 54.9355 21.832C54.6439 21.6654 54.4147 21.4154 54.248 21.082C54.0814 20.7461 53.998 20.3229 53.998 19.8125V16H54.9199V19.75C54.9199 20.1875 55.0423 20.5365 55.2871 20.7969C55.5345 21.0573 55.8496 21.1875 56.2324 21.1875C56.4616 21.1875 56.6947 21.1289 56.9316 21.0117C57.1712 20.8945 57.3717 20.7148 57.5332 20.4727C57.6973 20.2305 57.7793 19.9219 57.7793 19.5469ZM61.3115 18.3906V22H60.3896V16H61.2803V16.9375H61.3584C61.499 16.6328 61.7126 16.388 61.999 16.2031C62.2855 16.0156 62.6553 15.9219 63.1084 15.9219C63.5146 15.9219 63.8701 16.0052 64.1748 16.1719C64.4795 16.3359 64.7165 16.5859 64.8857 16.9219C65.055 17.2552 65.1396 17.6771 65.1396 18.1875V22H64.2178V18.25C64.2178 17.7786 64.0954 17.4115 63.8506 17.1484C63.6058 16.8828 63.2699 16.75 62.8428 16.75C62.5485 16.75 62.2855 16.8138 62.0537 16.9414C61.8245 17.069 61.6436 17.2552 61.5107 17.5C61.3779 17.7448 61.3115 18.0417 61.3115 18.3906ZM69.0898 22.125C68.5898 22.125 68.1484 21.9987 67.7656 21.7461C67.3828 21.4909 67.0833 21.1315 66.8672 20.668C66.651 20.2018 66.543 19.651 66.543 19.0156C66.543 18.3854 66.651 17.8385 66.8672 17.375C67.0833 16.9115 67.3841 16.5534 67.7695 16.3008C68.1549 16.0482 68.6003 15.9219 69.1055 15.9219C69.4961 15.9219 69.8047 15.987 70.0313 16.1172C70.2604 16.2448 70.4349 16.3906 70.5547 16.5547C70.6771 16.7161 70.7721 16.849 70.8398 16.9531H70.918V14H71.8398V22H70.9492V21.0781H70.8398C70.7721 21.1875 70.6758 21.3255 70.5508 21.4922C70.4258 21.6562 70.2474 21.8034 70.0156 21.9336C69.7839 22.0612 69.4753 22.125 69.0898 22.125ZM69.2148 21.2969C69.5846 21.2969 69.8971 21.2005 70.1523 21.0078C70.4076 20.8125 70.6016 20.543 70.7344 20.1992C70.8672 19.8529 70.9336 19.4531 70.9336 19C70.9336 18.5521 70.8685 18.1602 70.7383 17.8242C70.6081 17.4857 70.4154 17.2227 70.1602 17.0352C69.9049 16.8451 69.5898 16.75 69.2148 16.75C68.8242 16.75 68.4987 16.8503 68.2383 17.0508C67.9805 17.2487 67.7865 17.5182 67.6562 17.8594C67.5286 18.1979 67.4648 18.5781 67.4648 19C67.4648 19.4271 67.5299 19.8151 67.6602 20.1641C67.793 20.5104 67.9883 20.7865 68.2461 20.9922C68.5065 21.1953 68.8294 21.2969 69.2148 21.2969ZM76.1719 22.125C75.5938 22.125 75.0951 21.9974 74.6758 21.7422C74.2591 21.4844 73.9375 21.125 73.7109 20.6641C73.487 20.2005 73.375 19.6615 73.375 19.0469C73.375 18.4323 73.487 17.8906 73.7109 17.4219C73.9375 16.9505 74.2526 16.5833 74.6563 16.3203C75.0625 16.0547 75.5365 15.9219 76.0781 15.9219C76.3906 15.9219 76.6992 15.974 77.0039 16.0781C77.3086 16.1823 77.5859 16.3516 77.8359 16.5859C78.0859 16.8177 78.2852 17.125 78.4336 17.5078C78.582 17.8906 78.6562 18.362 78.6562 18.9219V19.3125H74.0313V18.5156H77.7188C77.7188 18.1771 77.651 17.875 77.5156 17.6094C77.3828 17.3437 77.1927 17.1341 76.9453 16.9805C76.7005 16.8268 76.4115 16.75 76.0781 16.75C75.7109 16.75 75.3932 16.8411 75.125 17.0234C74.8594 17.2031 74.6549 17.4375 74.5117 17.7266C74.3685 18.0156 74.2969 18.3255 74.2969 18.6562V19.1875C74.2969 19.6406 74.375 20.0247 74.5312 20.3398C74.6901 20.6523 74.9102 20.8906 75.1914 21.0547C75.4727 21.2161 75.7995 21.2969 76.1719 21.2969C76.4141 21.2969 76.6328 21.263 76.8281 21.1953C77.026 21.125 77.1966 21.0208 77.3398 20.8828C77.4831 20.7422 77.5938 20.5677 77.6719 20.3594L78.5625 20.6094C78.4688 20.9115 78.3112 21.1771 78.0898 21.4062C77.8685 21.6328 77.5951 21.8099 77.2695 21.9375C76.944 22.0625 76.5781 22.125 76.1719 22.125ZM84.3086 17.3437L83.4805 17.5781C83.4284 17.4401 83.3516 17.306 83.25 17.1758C83.151 17.043 83.0156 16.9336 82.8438 16.8477C82.6719 16.7617 82.4518 16.7187 82.1836 16.7187C81.8164 16.7187 81.5104 16.8034 81.2656 16.9727C81.0234 17.1393 80.9023 17.3516 80.9023 17.6094C80.9023 17.8385 80.9857 18.0195 81.1523 18.1523C81.319 18.2852 81.5794 18.3958 81.9336 18.4844L82.8242 18.7031C83.3607 18.8333 83.7604 19.0326 84.0234 19.3008C84.2865 19.5664 84.418 19.9089 84.418 20.3281C84.418 20.6719 84.319 20.9792 84.1211 21.25C83.9258 21.5208 83.6523 21.7344 83.3008 21.8906C82.9492 22.0469 82.5404 22.125 82.0742 22.125C81.4622 22.125 80.9557 21.9922 80.5547 21.7266C80.1536 21.4609 79.8997 21.0729 79.793 20.5625L80.668 20.3437C80.7513 20.6667 80.9089 20.9089 81.1406 21.0703C81.375 21.2318 81.681 21.3125 82.0586 21.3125C82.4883 21.3125 82.8294 21.2214 83.082 21.0391C83.3372 20.8542 83.4648 20.6328 83.4648 20.375C83.4648 20.1667 83.3919 19.9922 83.2461 19.8516C83.1003 19.7083 82.8763 19.6016 82.5742 19.5312L81.5742 19.2969C81.0247 19.1667 80.6211 18.9648 80.3633 18.6914C80.1081 18.4154 79.9805 18.0703 79.9805 17.6562C79.9805 17.3177 80.0755 17.0182 80.2656 16.7578C80.4583 16.4974 80.7201 16.293 81.0508 16.1445C81.3841 15.9961 81.7617 15.9219 82.1836 15.9219C82.7773 15.9219 83.2435 16.0521 83.582 16.3125C83.9232 16.5729 84.1654 16.9167 84.3086 17.3437ZM86.7275 14V22H85.8057V14H86.7275ZM88.416 22V16H89.3379V22H88.416ZM88.8848 15C88.7051 15 88.5501 14.9388 88.4199 14.8164C88.2923 14.694 88.2285 14.5469 88.2285 14.375C88.2285 14.2031 88.2923 14.056 88.4199 13.9336C88.5501 13.8112 88.7051 13.75 88.8848 13.75C89.0645 13.75 89.2181 13.8112 89.3457 13.9336C89.4759 14.056 89.541 14.2031 89.541 14.375C89.541 14.5469 89.4759 14.694 89.3457 14.8164C89.2181 14.9388 89.0645 15 88.8848 15ZM93.4482 24.375C93.0029 24.375 92.6201 24.3177 92.2998 24.2031C91.9795 24.0911 91.7126 23.9427 91.499 23.7578C91.2881 23.5755 91.1201 23.3802 90.9951 23.1719L91.7295 22.6563C91.8128 22.7656 91.9183 22.8906 92.0459 23.0312C92.1735 23.1745 92.348 23.2982 92.5693 23.4023C92.7933 23.5091 93.0863 23.5625 93.4482 23.5625C93.9326 23.5625 94.3324 23.4453 94.6475 23.2109C94.9626 22.9766 95.1201 22.6094 95.1201 22.1094V20.8906H95.042C94.9743 21 94.8779 21.1354 94.7529 21.2969C94.6305 21.4557 94.4535 21.5977 94.2217 21.7227C93.9925 21.8451 93.6826 21.9062 93.292 21.9062C92.8076 21.9062 92.3727 21.7917 91.9873 21.5625C91.6045 21.3333 91.3011 21 91.0771 20.5625C90.8558 20.125 90.7451 19.5937 90.7451 18.9687C90.7451 18.3542 90.8532 17.819 91.0693 17.3633C91.2855 16.9049 91.5863 16.5508 91.9717 16.3008C92.3571 16.0482 92.8024 15.9219 93.3076 15.9219C93.6982 15.9219 94.0081 15.987 94.2373 16.1172C94.4691 16.2448 94.6462 16.3906 94.7686 16.5547C94.8936 16.7161 94.9899 16.849 95.0576 16.9531H95.1514V16H96.042V22.1719C96.042 22.6875 95.9248 23.1068 95.6904 23.4297C95.4587 23.7552 95.1462 23.9935 94.7529 24.1445C94.3623 24.2982 93.9274 24.375 93.4482 24.375ZM93.417 21.0781C93.7868 21.0781 94.0993 20.9935 94.3545 20.8242C94.6097 20.6549 94.8037 20.4115 94.9365 20.0938C95.0693 19.776 95.1357 19.3958 95.1357 18.9531C95.1357 18.5208 95.0706 18.1393 94.9404 17.8086C94.8102 17.4779 94.6175 17.2187 94.3623 17.0312C94.1071 16.8437 93.792 16.75 93.417 16.75C93.0264 16.75 92.7008 16.849 92.4404 17.0469C92.1826 17.2448 91.9886 17.5104 91.8584 17.8438C91.7308 18.1771 91.667 18.5469 91.667 18.9531C91.667 19.3698 91.7321 19.7383 91.8623 20.0586C91.9951 20.3763 92.1904 20.6263 92.4482 20.8086C92.7087 20.9883 93.0316 21.0781 93.417 21.0781ZM99.4951 22.1406C99.1149 22.1406 98.7699 22.069 98.46 21.9258C98.1501 21.7799 97.904 21.5703 97.7217 21.2969C97.5394 21.0208 97.4482 20.6875 97.4482 20.2969C97.4482 19.9531 97.516 19.6745 97.6514 19.4609C97.7868 19.2448 97.9678 19.0755 98.1943 18.9531C98.4209 18.8307 98.6709 18.7396 98.9443 18.6797C99.2204 18.6172 99.4977 18.5677 99.7764 18.5313C100.141 18.4844 100.437 18.4492 100.663 18.4258C100.892 18.3997 101.059 18.3568 101.163 18.2969C101.27 18.237 101.323 18.1328 101.323 17.9844V17.9531C101.323 17.5677 101.218 17.2682 101.007 17.0547C100.799 16.8411 100.482 16.7344 100.058 16.7344C99.6175 16.7344 99.2725 16.8307 99.0225 17.0234C98.7725 17.2161 98.5967 17.4219 98.4951 17.6406L97.6201 17.3281C97.7764 16.9635 97.9847 16.6797 98.2451 16.4766C98.5081 16.2708 98.7946 16.1276 99.1045 16.0469C99.417 15.9635 99.7243 15.9219 100.026 15.9219C100.219 15.9219 100.44 15.9453 100.69 15.9922C100.943 16.0365 101.187 16.1289 101.421 16.2695C101.658 16.4102 101.854 16.6224 102.011 16.9062C102.167 17.1901 102.245 17.5703 102.245 18.0469V22H101.323V21.1875H101.276C101.214 21.3177 101.11 21.457 100.964 21.6055C100.818 21.7539 100.624 21.8802 100.382 21.9844C100.14 22.0885 99.8441 22.1406 99.4951 22.1406ZM99.6357 21.3125C100 21.3125 100.308 21.2409 100.558 21.0977C100.81 20.9544 101 20.7695 101.128 20.543C101.258 20.3164 101.323 20.0781 101.323 19.8281V18.9844C101.284 19.0312 101.198 19.0742 101.065 19.1133C100.935 19.1497 100.784 19.1823 100.612 19.2109C100.443 19.237 100.278 19.2604 100.116 19.2812C99.9574 19.2995 99.8285 19.3151 99.7295 19.3281C99.4899 19.3594 99.266 19.4102 99.0576 19.4805C98.8519 19.5482 98.6852 19.651 98.5576 19.7891C98.4326 19.9245 98.3701 20.1094 98.3701 20.3437C98.3701 20.6641 98.4886 20.9062 98.7256 21.0703C98.9652 21.2318 99.2686 21.3125 99.6357 21.3125Z" fill="white"/>
</svg>
