<svg width="512" height="512" viewBox="0 0 512 512" fill="none" xmlns="http://www.w3.org/2000/svg">
<g clip-path="url(#clip0_1_23371)">
<path d="M0 255.987C0 114.615 114.615 0 255.987 0C397.359 0 511.974 114.615 511.974 255.987C511.974 397.359 397.359 512 255.987 512C114.615 512 0 397.385 0 255.987Z" fill="#FFD900"/>
<path d="M12.3079 255.987C12.3079 121.401 121.401 12.3078 255.987 12.3078C390.573 12.3078 499.666 121.401 499.666 255.987C499.666 390.573 390.573 499.692 255.987 499.692C121.401 499.692 12.3079 390.573 12.3079 255.987Z" fill="black"/>
<path d="M25.8284 255.987C25.8284 128.884 128.884 25.8283 255.987 25.8283C383.09 25.8283 486.146 128.884 486.146 255.987C486.146 383.116 383.09 486.172 255.987 486.172C128.884 486.172 25.8284 383.116 25.8284 255.987Z" fill="#FFD900"/>
<path fill-rule="evenodd" clip-rule="evenodd" d="M293.633 452.112C276.629 452.112 264.27 439.237 264.27 424.555C264.27 422.414 264.115 421.459 264.218 419.911H280.242C284.886 419.911 284.138 426.207 284.138 426.207C284.138 431.057 289.376 433.251 293.324 433.354C298.123 433.483 302.045 429.071 302.045 424.22L301.967 414.828C298.897 416.505 292.808 416.453 292.808 416.453C278.281 416.066 264.089 403.526 264.089 388.019V381.104C264.089 365.596 277.3 353.418 292.808 353.418H293.453C308.96 353.418 320.984 365.958 320.984 381.465V423.807C321.01 439.779 309.708 451.957 293.633 452.112Z" fill="black"/>
<path fill-rule="evenodd" clip-rule="evenodd" d="M293.014 373.466H293.297C298.148 373.466 302.07 377.388 302.07 382.239V387.786C302.07 392.637 298.148 396.559 293.297 396.559H293.014C288.163 396.559 284.241 392.637 284.241 387.786V382.239C284.241 377.388 288.163 373.466 293.014 373.466Z" fill="#FFD900"/>
<path fill-rule="evenodd" clip-rule="evenodd" d="M118.047 315.875V270.978H144.211C165.859 270.978 173.6 310.301 145.449 315.875H118.047ZM118.047 236.79V193.932H147.617C166.788 193.932 170.736 230.881 148.778 236.79H118.047ZM82.7749 158.376V349.47L142.972 349.521C191.533 349.521 216.2 290.588 182.424 254.258C182.424 254.258 182.321 254.155 182.321 253.975C182.321 253.794 182.553 253.613 182.553 253.613C210.627 221.902 198.861 166.22 146.662 158.35H82.7749V158.376Z" fill="black"/>
<path fill-rule="evenodd" clip-rule="evenodd" d="M366.731 315.875V270.978H392.714C414.363 270.978 422.104 310.301 393.953 315.875H366.731ZM366.731 236.79V193.932H396.12C415.292 193.932 419.239 230.881 397.281 236.79H366.731ZM331.279 158.376V349.47L391.476 349.521C440.036 349.521 464.704 290.588 430.928 254.258C430.928 254.258 430.825 254.155 430.825 253.975C430.825 253.794 431.057 253.613 431.057 253.613C459.13 221.902 447.364 166.22 395.166 158.35H331.279V158.376Z" fill="black"/>
<path fill-rule="evenodd" clip-rule="evenodd" d="M218.264 353.572H218.909C234.416 353.572 246.956 366.138 246.956 381.646V424.013C246.956 439.521 234.39 452.087 218.909 452.087H218.264C202.756 452.087 190.19 439.521 190.19 424.013V381.646C190.216 366.138 202.782 353.572 218.264 353.572Z" fill="black"/>
<path fill-rule="evenodd" clip-rule="evenodd" d="M218.445 373.698H218.728C223.579 373.698 227.501 377.62 227.501 382.471V424.529C227.501 429.38 223.579 433.302 218.728 433.302H218.445C213.594 433.302 209.672 429.38 209.672 424.529V382.471C209.672 377.62 213.619 373.698 218.445 373.698Z" fill="#FFD900"/>
<path fill-rule="evenodd" clip-rule="evenodd" d="M179.689 62.9324L242.312 256.658H269.404L331.279 62.9324H293.375L255.806 192.229L218.47 62.9324H179.689Z" fill="black"/>
</g>
<defs>
<clipPath id="clip0_1_23371">
<rect width="511.974" height="512" fill="white"/>
</clipPath>
</defs>
</svg>
