<svg width="512" height="512" viewBox="0 0 512 512" fill="none" xmlns="http://www.w3.org/2000/svg">
<mask id="mask0_1_23518" style="mask-type:luminance" maskUnits="userSpaceOnUse" x="6" y="98" width="500" height="322">
<path d="M6.83643 98.2721H505.892V419.33H6.83643V98.2721Z" fill="white"/>
</mask>
<g mask="url(#mask0_1_23518)">
<path d="M499.297 234.672C485.427 227.884 461.304 220.061 461.304 220.061C460.269 219.787 458.187 219.106 458.187 219.106C458.187 219.106 459.241 217.544 459.542 216.376C460.376 213.379 460.209 209.888 458.274 208.8C458.274 208.8 468.8 209.381 471.083 208.493C477.557 205.97 480.04 197.286 477.764 191.139C476.576 187.921 471.51 185.906 470.469 183.216C469.481 180.666 468.833 178.664 466.123 177.289C461.751 175.079 450.678 173.143 445.805 173.571C441.693 173.931 440.906 178.677 438.363 179.772C428.197 184.15 423.665 182.094 423.765 197.266C423.765 197.266 423.765 197.98 423.878 198.581C420.201 196.799 411.003 192.293 406.744 190.398V98.5859H105.977V190.391C101.719 192.287 92.5209 196.792 88.8431 198.574C88.9566 197.974 88.9566 197.26 88.9566 197.26C89.0567 182.088 84.5178 184.144 74.3588 179.765C71.8223 178.67 71.028 173.924 66.9163 173.564C62.0437 173.143 50.9769 175.072 46.5982 177.282C43.8883 178.657 43.2408 180.659 42.2529 183.209C41.2183 185.899 36.1455 187.915 34.9574 191.132C32.6813 197.28 35.1643 205.963 41.6389 208.487C43.9216 209.374 54.4478 208.794 54.4478 208.794C52.5121 209.882 52.3453 213.379 53.1796 216.37C53.48 217.531 54.5346 219.1 54.5346 219.1C54.5346 219.1 52.4454 219.787 51.4175 220.054C51.4175 220.054 27.2947 227.884 13.4178 234.665C13.4178 234.665 -3.21584 242.481 17.4093 240.986C18.4105 240.986 33.8694 239.791 49.9957 237.395L49.8956 238.303C49.8756 243.516 51.0103 243.489 55.3422 244.978L55.2021 245.939C49.7688 247.04 38.9689 248.115 35.211 250.631C31.0927 253.388 19.8389 251.252 13.084 260.45C11.3085 262.866 8.3516 270.202 10.0871 272.591C12.9372 276.49 29.2504 282.196 31.3797 282.243C36.4792 282.357 36.9999 278.178 40.5976 275.702C42.3264 274.507 44.3956 275.308 46.3112 274.807C49.1947 274.04 50.7967 271.417 53.3331 270.095C54.8149 269.334 57.9921 268.6 60.0146 269.781C68.9722 275.295 96.4324 268.3 105.964 262.666V312.413C105.964 330.122 108.213 336.897 113.593 346.261L114.04 346.995C144.644 392.765 196.514 419.01 256.347 419.017C316.187 419.017 368.004 392.838 398.514 347.202L398.975 346.488C404.448 336.957 406.731 330.115 406.731 312.413V262.673C416.262 268.306 443.723 275.301 452.68 269.788C454.703 268.607 457.88 269.341 459.362 270.102C461.898 271.417 463.5 274.047 466.39 274.814C468.306 275.321 470.375 274.514 472.104 275.709C475.702 278.178 476.229 282.357 481.322 282.25C483.451 282.203 499.764 276.496 502.614 272.598C504.356 270.209 501.4 262.866 499.617 260.457C492.869 251.265 481.609 253.395 477.49 250.638C473.732 248.128 462.933 247.047 457.499 245.946L457.359 244.984C461.691 243.489 462.826 243.523 462.806 238.31L462.706 237.402C478.832 239.798 494.291 240.993 495.292 240.993C515.937 242.488 499.297 234.672 499.297 234.672Z" fill="white"/>
</g>
<path d="M241.689 278.205C225.69 278.205 210.772 273.606 198.15 265.69C211.653 283.017 232.698 294.171 256.367 294.171C284.595 294.171 309.112 278.312 321.513 255.023L321.427 254.997C319.972 254.596 317.802 253.742 315.293 252.754C312.476 251.646 307.343 249.623 305.594 249.417C305.26 249.61 304.64 250.111 304.172 250.491C303.358 251.152 302.343 251.953 301.089 252.747C286.13 268.42 265.058 278.205 241.689 278.205Z" fill="#DADADA"/>
<path d="M470.809 199.803C471.697 198.488 471.71 196.058 471.023 194.636C470.228 193.008 467.799 192.52 466.263 191.953C464.341 192.367 466.477 194.049 464.822 194.776L461.104 194.296C458.768 191.88 463.654 192.213 463.927 190.918C464.328 189.043 462.559 187.314 463.72 185.472C463.52 185.025 463.246 184.551 462.753 184.37C460.837 183.683 449.39 180.946 447.808 181.06L447.327 181.614C447.788 182.248 449.717 184.003 449.803 184.164C450.564 185.545 445.425 186.533 444.57 186.713C440.459 187.581 429.459 188.903 431.074 195.391C431.828 198.448 442.761 206.21 444.09 209.575C444.377 210.302 445.805 211.817 444.851 212.471C442.842 213.84 432.723 212.011 432.175 213.579C432.743 215.695 438.763 217.297 440.719 218.052C443.028 218.933 445.171 219.593 447.601 218.399C450.324 217.064 452.093 213.459 451.599 210.476C451.365 209.107 449.89 205.757 449.049 204.622C448.255 203.567 441.607 198.301 443.469 197.593C445.712 198.307 448.775 197.667 450.357 199.796C454.542 200.984 459.021 201.712 463.306 202.486C466.057 202.986 469.187 202.219 470.809 199.803ZM379.197 251.459C379.544 250.698 379.685 249.737 379.271 248.909C378.924 248.569 378.583 248.155 378.029 248.081C376.1 248.502 374.171 249.39 371.968 248.842C369.959 248.842 366.729 247.047 365.834 249.737C365.487 251.459 364.519 252.907 364.106 254.563C364.106 255.457 364.933 256.285 365.754 256.699C366.996 256.972 368.511 257.66 369.612 257.453C371.681 256.004 371.541 253.388 373.604 251.879C374.712 252.153 374.845 253.675 376.087 253.535C377.342 253.388 378.583 252.634 379.197 251.459ZM429.418 219.433C429.772 217.484 427.576 217.17 426.248 216.743C423.064 215.709 419.9 214.707 416.683 213.793C414.327 213.119 411.951 211.864 409.581 211.377C406.591 210.756 404.228 210.696 402.139 208.066L402.619 207.786C405.449 208.914 409.995 211.343 412.958 209.374C414.36 208.433 415.829 205.923 415.161 204.215C414.661 202.926 413.079 202.753 411.991 202.279C407.352 200.257 402.799 197.767 398.267 195.504C388.682 190.732 379.117 185.912 369.565 181.066C365.22 178.864 360.288 176.327 355.515 175.286C351.624 174.438 347.198 175.513 343.807 177.555C340.45 179.578 340.53 184.337 338.02 183.83C337.66 183.429 337.36 182.935 337.4 182.381C336.385 180.773 333.215 185.292 330.651 186.58C324.924 189.457 314.879 200.443 310.747 205.663C308.137 208.954 307.096 213.166 306.135 217.164L306.689 217.918C307.944 218.218 309.098 217.704 310.2 217.164C311.241 217.431 311.148 218.746 311.715 219.5C315.893 225.127 326.994 221.856 333.068 223.905C333.154 224.279 333.068 224.613 332.654 224.66C329.937 225.007 326.333 224.439 323.543 224.366C317.122 224.199 310.694 224.119 304.273 223.765L303.512 224.179C302.918 225.494 299.387 233.063 298.826 233.677C297.965 234.625 296.697 235.353 295.782 236.374C293.293 239.157 291.484 242.528 288.36 244.697C287.425 245.345 285.543 245.705 285.123 246.76L285.603 247.314C295.095 248.088 296.056 238.129 302.41 235.887C302.757 235.953 302.891 236.327 302.817 236.648C301.242 238.223 299.54 240.492 298.552 242.495C294.841 250.011 292.198 247.721 288.633 251.179L289.188 252.006C299.687 251.699 301.603 245.792 305.027 245.318C307.95 244.904 318.904 250.037 322.521 251.038C324.337 251.539 326.126 252.16 328.042 252.126C328.682 252.113 329.543 251.773 330.097 251.799C331.506 251.846 331.779 254.349 334.857 252.901C336.705 252.026 336.826 249.39 337.059 247.594C337.34 245.438 334.663 243.596 334.857 242.428C335.124 240.773 337.199 242.989 337.673 241.534C337.96 240.659 336.886 238.897 336.365 238.229C334.983 236.461 331.079 233.437 331.613 230.86C331.666 230.614 332.4 230.073 332.647 230.106L345.389 231.688C345.83 231.742 347.772 236.26 347.799 236.714C347.832 237.402 345.977 242.061 345.596 242.982C344.528 245.512 342.673 247.354 342.699 250.284C342.733 253.875 345.156 257.219 346.971 260.196C348.974 263.5 352.184 261.925 355.101 262.88C356.296 263.28 357.584 264.101 358.759 264.628C362.457 266.244 366.602 267.926 370.527 268.88C372.676 269.401 376.007 268.68 377.275 266.678C378.203 265.209 375.072 264.769 376.454 263.16C377.188 262.306 378.103 262.359 379.137 262.472C381.347 262.719 392.687 264.094 393.875 262.819C394.276 262.392 393.675 261.818 393.328 261.645C391.038 260.543 387.507 260.009 384.991 259.309C381.954 258.447 378.803 258.234 375.76 257.306C373.17 256.512 373.337 259.162 371.488 260.336C368.704 262.119 361.235 258.568 360.328 255.37C359.46 252.3 362.257 248.415 364.252 246.353C365.821 244.724 367.737 244.49 369.285 243.249C370.266 242.461 369.566 240.906 369.559 239.878C371.087 237.962 376.841 241.013 379.197 240.365C381.747 239.658 379.845 236.28 382.027 235.613C383.95 236.154 385.458 237.542 387.334 238.229C388.722 238.737 391.172 238.997 392.086 240.225C392.814 241.206 392.066 242.561 391.879 243.596C392.554 244.871 394.696 245.271 396.011 245.458C398.134 245.765 400.437 245.639 402.599 245.872C404.748 246.099 406.911 246.713 409.027 246.907L416.196 247.594C417.925 248.422 415.775 249.904 417.364 253.241C415.662 252.994 408.66 250.905 407.859 253.241C414.04 259.001 428.064 263.073 436.374 264.261C441.46 264.989 446.84 264.822 451.939 264.401C452.707 264.341 453.388 264.215 453.848 263.814C453.862 263.847 456.578 261.551 458.04 261.785C460.036 262.119 462.365 265.943 466.517 267.532C469.347 269.127 472.03 266.364 474.233 267.605C476.93 269.127 478.612 276.803 482.904 275.595C483.771 275.348 487.503 274.06 488.01 273.559C489.425 272.398 487.035 269.341 485.807 267.298C485.367 266.671 485.066 266.204 484.546 266.07C479.553 264.795 481.909 259.102 474.774 257.747C471.563 257.146 470.769 256.879 467.545 256.278C466.677 256.111 464.708 256.545 464.608 255.297C464.588 255.297 465.142 254.696 465.142 254.696L470.856 254.563L470.722 253.808C461.571 252.66 452.6 250.057 443.449 248.976C442.761 248.575 441.894 246.46 442 245.812C442.274 244.143 444.911 247.247 446.272 243.95C447.067 242.041 445.158 240.405 446.686 239.471C450.704 239.985 454.723 240.492 458.741 241.06C436.027 235.64 413.112 231.094 390.404 225.708C385.485 224.539 380.445 223.765 375.6 222.263L375.673 221.716C395.711 224.519 415.548 229.359 435.666 231.495V231.014C424.539 228.891 413.532 226.061 402.392 224.052C385.792 221.069 369.058 218.579 352.385 216.022C341.505 214.354 330.444 212.325 319.471 211.383L319.124 212.138C319.858 213.039 320.886 213.459 321.881 214C322.021 214.22 322.034 214.514 321.814 214.687C320.412 214.541 314.171 214.941 314.165 213.453C316.487 211.25 317.055 210.102 320.426 210.422C325.679 210.909 330.972 211.684 336.205 212.345C366.342 216.209 396.699 220.248 426.642 225.434C458.22 230.901 474.927 233.344 500.879 238.336C492.062 235.172 452.306 224.032 432.008 220.535C431.081 220.361 429.872 220.515 429.418 219.433ZM421.976 254.836C423.558 254.97 424.412 254.937 426.482 255.357C429.859 256.051 433.23 256.318 436.667 257.286C437.221 257.493 437.822 258.274 437.889 258.821C437.682 259.168 437.188 259.262 436.914 259.262L423.485 255.824L421.976 254.836ZM347.859 249.323L351.577 240.579C351.717 239.958 352.338 239.337 352.959 239.411C353.786 239.685 354.821 239.825 355.095 240.786L351.924 247.608C349.715 250.504 351.303 254.496 352.064 257.386C351.991 257.8 351.577 258.014 351.23 258.08C349.034 255.864 347.031 252.767 347.859 249.323ZM319.558 243.202C318.71 243.836 317.222 243.483 316.16 243.342C314.879 242.635 314.599 241.153 314.452 239.731C314.452 239.384 314.525 239.024 314.879 238.737C316.367 238.737 317.856 239.097 318.85 240.299C319.278 241.22 320.058 242.208 319.558 243.202ZM364.746 207.492L366.595 208.346C366.595 208.346 339.329 204.488 326.166 202.559C325.612 202.493 323.903 202.326 324.19 201.358C324.531 201.151 324.944 201.011 325.358 201.084L364.746 207.492ZM371.768 195.324L371.488 195.604C364.526 194.256 357.377 192.614 350.549 190.718C350.022 190.571 348.807 190.471 348.96 189.69C351.463 189.21 362.897 192.227 365.768 193.195C367.042 193.628 367.797 193.328 369.078 193.195C370.053 193.802 371.041 194.416 371.768 195.324ZM133.451 248.909C133.037 249.737 133.177 250.705 133.524 251.459C134.138 252.627 135.38 253.388 136.621 253.528C137.863 253.668 137.996 252.146 139.104 251.873C141.167 253.388 141.033 256.004 143.096 257.446C144.197 257.653 145.713 256.966 146.954 256.692C147.775 256.278 148.603 255.45 148.603 254.556C148.189 252.907 147.221 251.459 146.874 249.73C145.986 247.04 142.749 248.836 140.74 248.836C138.537 249.383 136.615 248.495 134.679 248.075C134.138 248.148 133.798 248.569 133.451 248.909ZM227.125 247.321L227.606 246.767C227.192 245.705 225.31 245.351 224.368 244.704C221.245 242.541 219.436 239.164 216.946 236.381C216.032 235.359 214.757 234.632 213.902 233.684C213.342 233.063 209.817 225.501 209.217 224.186L208.456 223.772C202.041 224.126 195.607 224.199 189.186 224.373C186.402 224.446 182.798 225.013 180.074 224.666C179.661 224.62 179.567 224.286 179.661 223.912C185.735 221.863 196.835 225.134 201.013 219.507C201.587 218.746 201.494 217.431 202.535 217.17C203.636 217.711 204.791 218.225 206.046 217.925L206.6 217.17C205.639 213.172 204.591 208.96 201.988 205.67C197.856 200.45 187.804 189.47 182.084 186.586C179.514 185.298 176.35 180.779 175.335 182.388C175.382 182.942 175.075 183.436 174.715 183.836C172.205 184.344 172.278 179.591 168.928 177.562C165.537 175.52 161.111 174.445 157.22 175.293C152.447 176.334 147.508 178.877 143.169 181.073C133.618 185.919 124.053 190.738 114.468 195.511C109.936 197.773 105.383 200.263 100.744 202.286C99.6564 202.76 98.0744 202.933 97.5738 204.221C96.9063 205.93 98.3748 208.446 99.7765 209.381C102.74 211.35 107.286 208.92 110.116 207.792L110.596 208.073C108.507 210.703 106.144 210.763 103.154 211.383C100.784 211.877 98.4148 213.126 96.052 213.8C92.8347 214.714 89.6709 215.722 86.487 216.75C85.152 217.177 82.956 217.491 83.3164 219.44C82.8559 220.521 81.6544 220.368 80.7066 220.535C60.4085 224.025 20.6534 235.172 11.8359 238.336C37.7876 233.344 54.4946 230.901 86.0731 225.434C116.016 220.248 146.367 216.209 176.51 212.345C181.75 211.677 187.036 210.903 192.289 210.422C195.667 210.109 196.227 211.257 198.55 213.453C198.544 214.941 192.303 214.541 190.901 214.687C190.681 214.514 190.694 214.22 190.834 214C191.829 213.466 192.857 213.045 193.591 212.138L193.244 211.383C182.27 212.318 171.21 214.354 160.33 216.022C143.65 218.579 126.923 221.069 110.323 224.052C99.1825 226.061 88.1757 228.891 77.0488 231.014V231.495C97.1667 229.359 117.004 224.526 137.042 221.716L137.115 222.263C132.269 223.765 127.23 224.539 122.311 225.708C99.603 231.101 76.6883 235.64 53.974 241.06C57.9922 240.492 62.0105 239.992 66.0287 239.471C67.5572 240.405 65.6482 242.041 66.4425 243.95C67.8042 247.247 70.4407 244.143 70.7144 245.812C70.8212 246.46 69.9535 248.575 69.266 248.976C60.1148 250.057 51.1439 252.654 41.9927 253.808L41.8592 254.563L47.5728 254.696C47.5728 254.696 48.1269 255.297 48.1068 255.297C48.0067 256.545 46.0376 256.111 45.1699 256.278C41.946 256.879 41.1584 257.146 37.9411 257.747C30.8057 259.102 33.1619 264.795 28.1692 266.07C27.6552 266.204 27.3482 266.671 26.9076 267.298C25.6862 269.334 23.2899 272.398 24.705 273.559C25.2189 274.06 28.9435 275.348 29.8112 275.595C34.1098 276.803 35.7918 269.127 38.4818 267.605C40.6845 266.364 43.3677 269.127 46.1978 267.532C50.3496 265.943 52.6791 262.119 54.6748 261.785C56.1366 261.551 58.86 263.847 58.8733 263.814C59.3339 264.215 60.0147 264.341 60.7823 264.401C65.8818 264.822 71.2684 264.995 76.3479 264.261C84.6581 263.073 98.6818 259.008 104.863 253.241C104.055 250.905 97.0599 252.994 95.3511 253.241C96.9397 249.904 94.7971 248.422 96.5192 247.594L103.688 246.907C105.804 246.706 107.966 246.092 110.116 245.872C112.278 245.645 114.588 245.765 116.704 245.458C118.019 245.265 120.161 244.871 120.836 243.596C120.649 242.561 119.901 241.2 120.629 240.225C121.543 239.004 123.993 238.743 125.381 238.229C127.257 237.542 128.765 236.16 130.688 235.613C132.864 236.274 130.961 239.651 133.518 240.365C135.874 241.013 141.628 237.962 143.156 239.878C143.149 240.906 142.449 242.468 143.43 243.249C144.972 244.49 146.887 244.724 148.463 246.353C150.458 248.422 153.255 252.307 152.387 255.37C151.486 258.568 144.01 262.119 141.227 260.336C139.385 259.162 139.545 256.512 136.955 257.306C133.911 258.234 130.761 258.447 127.724 259.309C125.208 260.009 121.67 260.537 119.387 261.645C119.04 261.818 118.439 262.392 118.84 262.819C120.021 264.101 131.368 262.719 133.578 262.472C134.612 262.359 135.533 262.306 136.261 263.16C137.643 264.769 134.512 265.209 135.44 266.678C136.708 268.673 140.039 269.394 142.188 268.88C146.113 267.932 150.258 266.25 153.956 264.628C155.131 264.108 156.419 263.28 157.614 262.88C160.524 261.925 163.734 263.5 165.744 260.196C167.559 257.219 169.982 253.875 170.016 250.284C170.049 247.354 168.187 245.512 167.119 242.982C166.738 242.061 164.883 237.402 164.916 236.714C164.943 236.26 166.885 231.742 167.326 231.688L180.068 230.106C180.315 230.073 181.049 230.614 181.102 230.86C181.636 233.437 177.732 236.461 176.35 238.229C175.829 238.89 174.755 240.659 175.042 241.534C175.516 242.989 177.591 240.779 177.858 242.428C178.059 243.603 175.382 245.438 175.656 247.594C175.883 249.39 176.009 252.026 177.858 252.901C180.935 254.356 181.209 251.846 182.618 251.799C183.165 251.773 184.033 252.113 184.673 252.126C186.589 252.153 188.378 251.532 190.193 251.038C193.811 250.044 204.765 244.911 207.688 245.318C211.112 245.792 213.028 251.699 223.527 252.006L224.081 251.179C220.51 247.728 217.874 250.011 214.156 242.495C213.168 240.492 211.466 238.223 209.891 236.648C209.817 236.327 209.951 235.953 210.298 235.887C216.672 238.143 217.634 248.095 227.125 247.321ZM90.7455 254.836L89.237 255.831L75.8073 259.268C75.5336 259.268 75.0397 259.168 74.8328 258.828C74.8995 258.274 75.5002 257.5 76.0542 257.293C79.4918 256.325 82.8692 256.051 86.24 255.364C88.3092 254.937 89.1636 254.97 90.7455 254.836ZM164.863 249.323C165.69 252.774 163.688 255.864 161.492 258.074C161.145 258.007 160.731 257.793 160.657 257.379C161.418 254.489 163.007 250.498 160.798 247.601L157.627 240.779C157.907 239.818 158.942 239.678 159.763 239.404C160.39 239.337 161.005 239.952 161.145 240.572L164.863 249.323ZM163.761 189.684C163.915 190.465 162.7 190.571 162.173 190.712C155.344 192.607 148.196 194.249 141.234 195.597L140.953 195.317C141.681 194.409 142.669 193.795 143.637 193.181C144.918 193.315 145.672 193.615 146.947 193.181C149.824 192.22 161.258 189.203 163.761 189.684ZM186.556 202.559C173.393 204.488 146.126 208.346 146.126 208.346L147.975 207.492L187.363 201.084C187.777 201.011 188.191 201.151 188.531 201.358C188.818 202.319 187.11 202.493 186.556 202.559ZM198.27 239.731C198.123 241.153 197.843 242.642 196.561 243.342C195.5 243.483 194.011 243.836 193.164 243.202C192.663 242.214 193.444 241.22 193.871 240.299C194.859 239.097 196.348 238.737 197.843 238.737C198.197 239.017 198.27 239.378 198.27 239.731ZM81.6544 195.397C83.263 188.903 72.2696 187.581 68.1579 186.72C67.3036 186.54 62.164 185.552 62.9249 184.17C63.0117 184.01 64.9474 182.261 65.4013 181.62L64.9207 181.066C63.3387 180.946 51.8914 183.69 49.9758 184.377C49.4818 184.557 49.2149 185.031 49.0079 185.478C50.1694 187.321 48.4005 189.049 48.801 190.925C49.0747 192.22 53.9606 191.886 51.6245 194.303L47.9066 194.783C46.2446 194.056 48.3872 192.38 46.4582 191.96C44.923 192.527 42.4933 193.008 41.699 194.643C41.0115 196.065 41.0249 198.488 41.9126 199.809C43.5346 202.226 46.6651 202.993 49.4218 202.499C53.707 201.725 58.1791 200.997 62.3709 199.809C63.9528 197.68 67.0099 198.321 69.2593 197.607C71.1282 198.314 64.4735 203.581 63.6792 204.635C62.8381 205.763 61.363 209.114 61.1294 210.489C60.6354 213.479 62.4109 217.077 65.1276 218.412C67.5572 219.607 69.7065 218.946 72.0093 218.065C73.965 217.317 79.9857 215.709 80.5531 213.593C80.0057 212.024 69.8867 213.853 67.8776 212.485C66.9231 211.837 68.3515 210.315 68.6319 209.588C69.9668 206.217 80.9002 198.448 81.6544 195.397ZM30.986 257.646C30.6389 256.558 23.8439 257.767 23.4701 259.082C22.9228 261.011 28.5697 263.547 30.986 257.646ZM15.7807 269.468C15.9209 269.681 16.7152 270.068 17.069 270.289C18.5107 271.063 19.8791 272.438 20.8403 271.196C21.3409 270.562 24.0041 265.977 24.498 264.241C24.705 263.54 24.231 262.546 22.569 262.479H22.2353C17.91 262.913 16.535 266.644 15.7807 269.468ZM489.251 259.082C488.871 257.767 482.076 256.558 481.736 257.646C484.152 263.547 489.799 261.011 489.251 259.082ZM488.224 264.248C488.724 265.977 491.387 270.569 491.881 271.203C492.842 272.445 494.211 271.07 495.653 270.295C496.006 270.075 496.801 269.688 496.941 269.474C496.187 266.651 494.812 262.92 490.486 262.486H490.153C488.491 262.546 488.023 263.547 488.224 264.248Z" fill="#DD0741"/>
<path d="M398.821 312.42V268.199H390.571V312.42C390.571 328.126 388.749 331.824 385.098 338.205C357.157 379.989 309.919 402.83 256.361 402.83C202.802 402.83 155.571 379.989 127.637 338.205C123.979 331.824 122.157 328.126 122.157 312.42V268.113H113.9V312.42C113.9 329.114 115.903 334.353 120.482 342.323L120.782 342.804C151.306 388.459 201.994 411.1 256.367 411.1C310.747 411.1 361.429 388.459 391.96 342.804L392.253 342.323C396.819 334.36 398.821 329.12 398.821 312.42ZM194.258 187.788C198.23 178.944 202.555 171.375 204.765 167.683C198.764 173.557 193.758 180.439 190.033 188.062C190.814 188.729 191.602 189.423 192.396 190.158C193.01 189.37 193.624 188.576 194.258 187.788ZM321.894 361.627L335.604 353.03L332.514 348.097L323.93 353.483L311.628 314.803L308.671 310.07L294.961 318.668L298.052 323.6L306.635 318.214L318.937 356.888L321.894 361.627ZM315.139 195.077C307.93 190.071 297.224 184.758 297.224 184.758C289.608 195.484 283.274 208.74 283.274 208.74C287.025 216.576 292.638 225.421 295.722 230.887C299.874 224.8 301.576 219.059 304.159 210.829C306.041 204.849 308.571 201.618 315.139 195.077ZM251.722 209.041C251.722 209.041 242.517 194.383 232.885 183.449C232.885 183.449 212.594 192.5 205.118 196.392L204.785 201.932C204.898 202.306 207.581 206.164 208.709 210.355L210.985 217.611C211.252 218.432 211.499 219.173 211.499 219.173C212.007 220.661 212.708 222.51 213.555 224.419C214.323 226.155 215.211 227.95 216.192 229.586C216.973 230.894 217.941 232.089 219.089 233.09C219.122 233.117 219.149 233.143 219.182 233.17C220.203 234.058 221.412 234.692 222.72 235.052C226.231 236.027 230.176 237.061 234.467 238.096C234.467 238.096 247.27 217.678 251.722 209.041ZM256.361 146.618C248.044 146.618 240.054 148.013 232.592 150.556L246.629 161.636C246.629 161.636 263.763 160.014 279.155 161.99C281.351 158.352 282.486 155.288 283.047 153.366C299.307 161.062 312.169 174.725 318.87 191.513C320.139 190.291 321.42 189.13 322.682 188.062C310.694 163.525 285.503 146.618 256.361 146.618ZM351.584 341.048L355.709 336.957L320.219 301.18L319.998 300.953L315.873 305.051L351.363 340.828L351.584 341.048ZM354.48 301.934L368.538 310.798L366.115 314.649L333.074 293.811L335.504 289.959L339.956 292.769L343.06 287.85L340.183 286.034C338.897 285.222 337.406 284.792 335.884 284.793C333.068 284.793 330.505 286.201 329.023 288.558C326.646 292.329 327.781 297.335 331.553 299.724L361.456 318.574C362.744 319.388 364.232 319.816 365.754 319.816C368.571 319.816 371.134 318.407 372.623 316.051C374.999 312.28 373.857 307.267 370.079 304.884L352.672 293.904L348.373 300.719L353.299 303.823L354.48 301.934ZM295.008 372.493L288.453 351.034L293.106 349.612C293.797 349.403 294.441 349.058 294.999 348.599C295.557 348.139 296.018 347.574 296.356 346.935C296.697 346.297 296.907 345.596 296.974 344.876C297.042 344.155 296.966 343.428 296.75 342.737L291.711 326.237C290.996 323.901 288.887 322.332 286.458 322.332C285.91 322.332 285.37 322.412 284.842 322.572L274.623 325.696L289.341 373.882L289.434 374.182L295.008 372.493ZM286.745 345.46L281.892 329.568L286.244 328.239L291.096 344.132L286.745 345.46ZM271.486 377.179L267.094 326.657L261.3 327.165L265.692 377.686L271.486 377.179ZM249.573 372.233L239.28 371.011L241.236 354.505L248.958 355.426L249.646 349.645L241.923 348.724L243.879 332.217L254.171 333.439L254.859 327.659L244.253 326.397C241.189 326.03 238.499 328.233 238.145 331.216L233.466 370.638C233.106 373.648 235.268 376.391 238.279 376.752L248.885 378.013L249.573 372.233ZM256.361 294.171C284.589 294.171 309.105 278.312 321.507 255.023L321.42 254.997C319.965 254.596 317.796 253.742 315.286 252.754C315.173 252.707 315.039 252.66 314.926 252.614C308.491 264.168 298.993 273.786 287.465 280.267L281.585 263.727L249.639 264.595L237.131 282.143C237.131 282.143 242.364 286.075 251.749 289.392C236.303 289.232 222.066 284.145 210.458 275.668C210.839 275.341 211.212 275.001 211.513 274.667C211.513 274.667 202.856 262.205 197.562 252.7C197.522 252.721 197.469 252.741 197.429 252.754C194.919 253.742 192.75 254.596 191.295 254.997L191.208 255.023C203.616 278.312 228.133 294.171 256.361 294.171ZM222.092 367.861L212.294 364.483L226.932 322.052L221.438 320.156L204.898 368.088L220.197 373.361L222.092 367.861ZM187.517 330.082C187.764 330.115 187.984 330.128 188.204 330.128C189.473 330.128 190.554 329.568 191.595 328.353L201.941 316.345C202.417 315.8 202.779 315.166 203.007 314.479C203.235 313.793 203.324 313.068 203.269 312.347C203.218 311.626 203.024 310.923 202.698 310.278C202.373 309.632 201.923 309.058 201.374 308.589L193.284 301.613L160.177 340.034L168.267 347.009C169.268 347.87 170.543 348.344 171.858 348.344C173.46 348.344 174.982 347.643 176.029 346.428L185.968 334.894C187.537 333.065 188.037 331.55 187.517 330.082ZM182.978 329.774L182.838 329.935L171.844 342.69L168.08 339.44L179.207 326.524L182.978 329.774ZM186.476 325.389L183.031 322.419L193.885 309.83L197.329 312.8L186.476 325.389ZM161.425 306.313L164.035 310.044L148.95 320.603C147.802 321.411 146.954 322.766 146.447 323.767L146.36 323.941L149.831 328.893L150.071 328.413C150.639 327.251 151.173 326.15 152.287 325.369L165.964 315.797C167.946 314.409 168.794 313.067 168.654 311.519C169.128 311.706 169.662 311.853 170.262 311.853C171.15 311.853 172.058 311.526 173.026 310.845L186.008 301.754C186.604 301.342 187.111 300.816 187.501 300.207C187.89 299.597 188.154 298.916 188.278 298.203C188.531 296.761 188.211 295.299 187.363 294.091L181.236 285.34L139.699 314.422L143.029 319.182L161.425 306.313ZM165.89 302.928L166.064 302.808L179.854 293.156L182.704 297.235L182.531 297.355L168.741 307.007L165.89 302.928ZM390.571 182.929L398.828 186.767V106.509H113.9V186.693L122.157 182.822V114.779H390.571V182.929Z" fill="#001F47"/>
</svg>
