<svg width="512" height="512" viewBox="0 0 512 512" fill="none" xmlns="http://www.w3.org/2000/svg">
<g clip-path="url(#clip0_1_23528)">
<path d="M84.1378 255.961C84.1378 118.307 161.358 6.71301 256.622 6.71301C351.886 6.71301 429.117 118.307 429.117 255.961C429.117 393.616 351.886 505.21 256.622 505.21C161.358 505.21 84.1378 393.616 84.1378 255.961Z" fill="white"/>
<path d="M256.625 505.21C351.888 505.21 429.114 393.618 429.114 255.961C429.114 118.305 351.888 6.71277 256.625 6.71277C161.361 6.71277 84.1352 118.305 84.1352 255.961C84.1352 393.618 161.361 505.21 256.625 505.21Z" stroke="black" stroke-width="13.0041" stroke-miterlimit="3.864"/>
<path d="M99.4419 255.544C99.4419 126.192 169.958 21.3439 256.942 21.3439C343.925 21.3439 414.431 126.192 414.431 255.544C414.431 384.897 343.925 489.745 256.942 489.745C169.958 489.745 99.4419 384.897 99.4419 255.544Z" fill="black"/>
<mask id="mask0_1_23528" style="mask-type:luminance" maskUnits="userSpaceOnUse" x="99" y="21" width="316" height="469">
<path d="M99.4409 255.536C99.4409 384.889 169.957 489.747 256.941 489.747C343.924 489.747 414.44 384.888 414.44 255.536C414.44 126.205 343.924 21.3456 256.941 21.3456C169.957 21.3456 99.4409 126.204 99.4409 255.536Z" fill="white"/>
</mask>
<g mask="url(#mask0_1_23528)">
<path d="M53.5229 530.227V-18.3483H355.296L148.703 530.227H53.5229Z" fill="white"/>
</g>
<path d="M256.939 489.745C343.921 489.745 414.433 384.89 414.433 255.545C414.433 126.199 343.921 21.344 256.939 21.344C169.957 21.344 99.4444 126.199 99.4444 255.545C99.4444 384.89 169.957 489.745 256.939 489.745Z" stroke="black" stroke-width="4.09819" stroke-miterlimit="3.864"/>
<path d="M268.527 98.4862C271.649 102.578 273.888 107.273 275.102 112.275C276.316 117.277 276.479 122.476 275.58 127.544C273.018 134.324 271.269 141.384 270.369 148.575C269.427 154.971 271.534 161.05 268.961 166.789C268.421 167.605 267.14 168.907 266.144 167.764C264.598 166.789 263.38 164.163 261.262 164.078C258.323 166.98 256.485 170.814 256.063 174.922C255.584 181.904 255.836 188.918 256.815 195.847C256.751 197.295 256.345 198.707 255.629 199.967C255.447 200.16 255.228 200.314 254.985 200.419C254.742 200.524 254.48 200.579 254.215 200.579C253.95 200.579 253.688 200.524 253.445 200.419C253.202 200.314 252.983 200.16 252.801 199.967C250.535 197.775 250.45 194.248 247.496 192.702C246.713 192.943 246.005 193.378 245.436 193.967C244.868 194.556 244.458 195.279 244.245 196.07C242.483 201.074 241.78 206.389 242.18 211.679C242.836 217.436 243.09 223.232 242.942 229.025C241.724 230.084 240.231 228.485 238.823 228.379C238.404 228.148 237.93 228.036 237.453 228.054C236.975 228.073 236.511 228.221 236.112 228.484C231.763 237.225 228.662 246.532 226.899 256.134C224.521 268.84 223.105 281.708 222.663 294.627C222.302 295.244 221.733 295.714 221.059 295.952C220.384 296.191 219.647 296.183 218.978 295.93C216.531 293.796 214.598 291.137 213.322 288.152C212.046 285.167 211.46 281.933 211.607 278.69C211.089 268.714 212.561 258.495 212.042 249.197C211.766 247.302 211.989 244.23 209.765 243.67C209.712 243.934 209.331 244.21 209.119 243.987C206.188 246.899 203.93 250.415 202.5 254.291C194.473 273.374 187.156 292.784 180.167 312.301C179.595 313.921 179.351 316.177 177.339 316.632C173.845 315.796 173.739 311.803 173.337 308.828C170.382 287.765 178.97 267.846 184.286 248.763C183.937 247.185 184.667 245.777 183.195 244.856L180.601 245.078C165.496 259.619 151.506 275.276 138.751 291.916C137.819 292.509 136.876 291.8 136.146 291.26C134.462 289.279 135.224 286.272 135.489 283.889C142.663 263.783 153.842 245.342 168.349 229.681C170.138 226.726 174.035 223.909 171.706 220.351C170.818 219.865 169.841 219.567 168.834 219.474C167.826 219.381 166.811 219.496 165.85 219.811C155.281 223.878 145.253 229.321 135.066 234.34C134.081 234.499 133.922 233.366 133.541 232.826C134.861 226.841 137.962 221.396 142.436 217.206C154.553 207.414 167.757 199.049 181.787 192.278C196.101 185.774 209.94 178.272 223.203 169.828C224.419 168.734 225.299 167.317 225.741 165.742C226.184 164.168 226.17 162.5 225.702 160.933C222.61 156.655 216.563 158.338 211.936 157.682C199.913 159.192 187.722 156.837 177.128 150.957C176.405 150.295 175.859 149.463 175.537 148.537C175.216 147.611 175.129 146.62 175.285 145.652L175.931 145.218C189.157 146.277 203.178 145.059 215.833 145.112C219.38 144.318 223.775 145.62 226.899 142.719C227.164 140.251 224.537 140.039 223.203 138.705C213.672 135.47 203.825 133.255 193.827 132.097C193.584 131.716 193.287 131.091 193.711 130.689C195.935 128.168 199.652 129.249 202.606 128.518C208.844 128.168 214.7 130.689 220.609 130.149C221.617 129.633 222.42 128.789 222.885 127.755C222.895 126.324 222.561 124.911 221.911 123.636C214.86 119.368 206.831 116.98 198.593 116.7C192.175 116.785 185.26 118.299 178.102 117.897C173.48 117.396 168.811 117.543 164.229 118.331C162.784 118.986 161.568 120.058 160.736 121.408C159.904 122.759 159.494 124.328 159.559 125.913C159.263 127.353 161.593 128.74 159.676 129.82C157.75 130.066 155.794 129.893 153.941 129.313C152.088 128.734 150.381 127.762 148.938 126.464C146.787 120.291 146.412 113.639 147.858 107.265C149.584 102.309 155.662 103.685 158.913 100.328C161.053 95.1288 167.692 99.0258 170.403 94.4722C172.676 91.6215 175.472 89.2313 178.642 87.4301C195.433 88.6522 212.308 87.9951 228.953 85.471C236.088 83.3267 243.71 83.4249 250.787 85.7524C257.865 88.0799 264.057 92.5256 268.527 98.4862Z" fill="black"/>
<path d="M233.292 102.171C233.811 102.943 234.149 103.821 234.281 104.742C234.413 105.662 234.336 106.601 234.054 107.487C232.286 111.469 227.489 111.035 223.962 111.606C221.929 110.653 218.922 110.357 217.895 107.815C217.323 106.425 217.323 104.864 217.895 103.474C218.671 102.165 219.763 101.073 221.071 100.296C222.379 99.5189 223.861 99.0822 225.381 99.0259C228.198 99.3012 231.767 99.1318 233.292 102.171Z" fill="white"/>
<path d="M169.972 104.556C169.591 105.668 167.971 105.181 167.155 104.99C166.499 104.122 164.222 103.603 165.525 102.279C166.127 101.797 166.834 101.463 167.59 101.305C168.213 101.623 168.754 102.082 169.168 102.647C169.581 103.211 169.857 103.866 169.972 104.556Z" fill="white"/>
<path d="M228.086 102.93C229.388 104.34 230.987 104.995 231.231 106.838C228.848 107.272 226.212 109.083 224.072 107.156C223.045 106.076 221.34 104.805 221.796 103.259C221.849 102.634 222.452 102.412 222.992 102.39C224.708 102.318 226.424 102.5 228.086 102.93Z" fill="black"/>
<path d="M164.225 109.219C166.359 110.55 168.893 111.086 171.383 110.734C172.622 110.787 173.3 108.753 174.634 109.653L176.583 112.036C170.346 113.233 162.139 111.517 157.723 117.246C157.045 119.089 155.086 120.815 155.224 122.88C154.652 122.795 154.027 123.229 153.815 122.446C152.808 118.331 152.589 114.062 153.169 109.865C154.927 107.101 158.072 106.837 160.751 105.852C161.948 106.593 162.647 108.573 164.225 109.219Z" fill="white"/>
<path fill-rule="evenodd" clip-rule="evenodd" d="M262.239 126.567C262.429 132.613 262.641 140.418 257.473 144.241V144.018H257.579C256.308 141.911 257.145 139.348 257.251 136.436C257.198 132.476 256.488 128.928 256.605 125.158C258.278 123.856 262.027 124.131 262.239 126.567Z" fill="white"/>
<path d="M249.663 150.529C250.36 153.398 250.691 156.345 250.648 159.297C250.88 162.436 250.076 165.564 248.361 168.203C247.447 162.002 246.07 155.878 244.241 149.883C243.966 148.549 245.459 148.39 246.084 147.818C246.856 147.581 247.676 147.544 248.467 147.712C249.557 148.358 248.933 149.745 249.663 150.529Z" fill="white"/>
<path d="M236.543 169.286C237.493 171.032 238.222 172.889 238.714 174.814C239.608 179.472 239.156 184.287 237.411 188.697C236.49 188.147 236.574 186.547 236.003 185.658C234.819 180.444 233.334 175.303 231.555 170.261C232.162 169.57 232.981 169.101 233.883 168.924C234.785 168.748 235.72 168.875 236.543 169.286Z" fill="white"/>
<path d="M204.456 196.824C187.638 202.811 171.135 209.651 155.013 217.316C169.1 205.216 185.521 196.137 203.259 190.641C203.917 191.512 204.366 192.523 204.574 193.594C204.781 194.666 204.741 195.771 204.456 196.824Z" fill="white"/>
<path d="M227.932 208.17C223.921 227.536 221.159 247.139 219.662 266.859C216.268 246.95 216.92 226.562 221.579 206.911C223.78 206.51 226.051 206.96 227.932 208.17Z" fill="white"/>
<path d="M201.081 210.265C188.162 224 167.173 249.669 150.664 268.921C161.313 245.5 176.681 224.53 195.808 207.321C196.894 207.092 198.026 207.264 198.996 207.805C199.965 208.347 200.706 209.22 201.081 210.265Z" fill="white"/>
<path d="M211.357 215.339C199.898 239.959 189.809 265.194 181.134 290.928C183.53 263.422 191.924 236.775 205.724 212.861C207.852 212.035 210.034 213.878 211.357 215.339Z" fill="white"/>
<path d="M371.694 306.683C364.771 293.727 353.615 283.537 340.087 277.81C326.56 272.084 311.478 271.168 297.357 275.215C283.236 279.263 270.929 288.029 262.489 300.052C254.049 312.074 249.985 326.627 250.976 341.283C251.966 355.939 257.951 369.813 267.933 380.591C277.914 391.368 291.289 398.398 305.826 400.509C320.363 402.619 335.185 399.682 347.818 392.187C360.452 384.693 370.135 373.094 375.252 359.324L385.98 359.345C380.714 375.979 369.782 390.239 355.086 399.642C340.389 409.045 322.861 412.995 305.552 410.806C288.243 408.616 272.25 400.424 260.359 387.657C248.467 374.89 241.43 358.357 240.474 340.936C239.517 323.515 244.701 306.311 255.123 292.319C265.544 278.326 280.544 268.433 297.509 264.361C314.474 260.288 332.33 262.296 347.968 270.033C363.605 277.77 376.034 290.747 383.089 306.704L371.694 306.683Z" fill="white"/>
<path d="M371.694 306.683C364.771 293.727 353.615 283.537 340.087 277.81C326.56 272.084 311.478 271.168 297.357 275.215C283.236 279.263 270.929 288.029 262.489 300.052C254.049 312.074 249.985 326.627 250.976 341.283C251.966 355.939 257.951 369.813 267.933 380.591C277.914 391.368 291.289 398.398 305.826 400.509C320.363 402.619 335.185 399.682 347.818 392.187C360.452 384.693 370.135 373.094 375.252 359.324L385.98 359.345C380.714 375.979 369.782 390.239 355.086 399.642C340.389 409.045 322.861 412.995 305.552 410.806C288.242 408.616 272.25 400.424 260.359 387.657C248.467 374.89 241.43 358.357 240.474 340.936C239.517 323.515 244.701 306.311 255.123 292.319C265.544 278.326 280.544 268.433 297.509 264.361C314.474 260.288 332.33 262.296 347.968 270.033C363.605 277.77 376.034 290.747 383.089 306.704L371.694 306.683Z" stroke="white" stroke-width="0.476534" stroke-miterlimit="3.864"/>
<path d="M303.728 309.313H350.841V318.176H312.517V343.74H349.729V353.101H312.517V393.575C310.315 393.575 305.655 393.617 303.728 393.617V309.313Z" fill="white"/>
<path d="M303.728 309.313H350.841V318.176H312.517V343.74H349.729V353.101H312.517V393.575C310.315 393.575 305.655 393.617 303.728 393.617V309.313Z" stroke="white" stroke-width="0.190614" stroke-miterlimit="3.864"/>
<path d="M339.715 300.214C337.269 295.477 333.595 291.483 329.078 288.649C324.561 285.816 319.366 284.248 314.035 284.107C310.551 283.929 307.066 284.451 303.787 285.643C300.508 286.835 297.501 288.672 294.945 291.047C292.388 293.422 290.334 296.285 288.904 299.468C287.474 302.65 286.697 306.087 286.619 309.575C286.619 326.551 302.281 332.428 315.995 337.426C326.002 340.91 335.585 344.828 335.585 357.229C335.605 360.208 335.033 363.161 333.903 365.917C332.772 368.673 331.105 371.176 328.999 373.283C326.892 375.389 324.388 377.056 321.633 378.187C318.877 379.318 315.924 379.89 312.945 379.87C307.057 379.857 301.354 377.815 296.796 374.089C292.238 370.362 289.104 365.178 287.921 359.41L278.348 362.46C280.192 370.184 284.637 377.038 290.937 381.872C297.236 386.706 305.007 389.226 312.945 389.008C317.161 389.193 321.37 388.517 325.317 387.021C329.263 385.525 332.863 383.241 335.897 380.308C338.931 377.374 341.336 373.854 342.965 369.961C344.593 366.067 345.412 361.883 345.37 357.663C345.37 321.319 296.404 333.074 296.404 308.919C296.769 304.621 298.744 300.619 301.932 297.713C305.12 294.808 309.288 293.212 313.601 293.246C317.323 293.214 320.973 294.267 324.105 296.278C327.236 298.289 329.714 301.169 331.233 304.567L339.715 300.214Z" fill="white"/>
</g>
<defs>
<clipPath id="clip0_1_23528">
<rect width="358.939" height="512" fill="white" transform="translate(77)"/>
</clipPath>
</defs>
</svg>
