<svg width="505" height="512" viewBox="0 0 505 512" fill="none" xmlns="http://www.w3.org/2000/svg">
<g clip-path="url(#clip0_1_23721)">
<g clip-path="url(#clip1_1_23721)">
<path fill-rule="evenodd" clip-rule="evenodd" d="M252.739 0.108398L82.0723 256.11L252.739 512.11L423.404 256.11L252.739 0.108398Z" fill="#1D9053"/>
<path fill-rule="evenodd" clip-rule="evenodd" d="M252.74 11.4592L89.6419 256.109L252.74 500.757L415.838 256.109L252.74 11.4592ZM102.69 256.109L252.74 31.0321L402.79 256.109L252.74 481.186L102.69 256.109Z" fill="white"/>
<path fill-rule="evenodd" clip-rule="evenodd" d="M287.976 409.967C287.976 409.967 339.121 310.66 339.121 233.944C339.121 157.227 298.632 105.231 256.011 105.231C224.046 105.231 212.966 129.524 212.966 143.59C212.966 157.656 226.603 169.588 238.963 169.588C253.88 169.588 259.332 159.717 259.332 159.717C278.175 170.866 311.419 187.914 309.713 256.106C308.519 303.827 302.041 311.941 293.091 340.07C279.453 304.269 252.177 244.173 252.177 244.173L209.129 338.364C209.129 338.364 191.39 297.865 190.376 240.764C190.255 233.944 190.255 230.939 192.937 206.22C212.113 206.22 223.195 198.569 223.195 181.092C223.195 164.223 208.277 155.521 197.623 155.521C186.968 155.521 160.117 166.177 160.117 216.896C160.117 305.12 216.802 408.689 216.802 408.689L252.178 338.365L287.976 409.967Z" fill="white"/>
</g>
</g>
<defs>
<clipPath id="clip0_1_23721">
<rect width="504.889" height="512" fill="white"/>
</clipPath>
<clipPath id="clip1_1_23721">
<rect width="341.333" height="512" fill="white" transform="translate(82.0723 0.108398)"/>
</clipPath>
</defs>
</svg>
