<svg width="377" height="512" viewBox="0 0 377 512" fill="none" xmlns="http://www.w3.org/2000/svg">
<g clip-path="url(#clip0_3_69)">
<path d="M26.2962 47.0236V377.117C26.2962 423.057 85.8491 439.608 133.723 452.911L133.955 452.989C144.164 455.85 153.832 458.557 162.494 461.341C162.572 461.341 172.239 464.59 180.747 470.236C183.454 472.014 186.161 474.18 188.326 476.114C190.956 473.793 193.508 471.86 195.906 470.236C204.104 464.899 213.153 461.728 214.158 461.419C222.821 458.557 232.488 455.85 242.697 453.066L242.929 452.989C290.804 439.686 350.357 423.135 350.357 377.194V47.0236C337.441 43.1565 276.418 26.2961 188.326 26.2961C100.157 26.2961 39.2122 43.1565 26.2962 47.0236Z" fill="#94BEE5"/>
<path d="M188.326 496.609L180.669 489.416C177.73 486.709 174.946 484.389 172.548 482.842C165.82 478.434 157.854 475.727 157.776 475.727C149.501 473.02 139.988 470.313 129.856 467.529H129.701C104.643 460.568 76.2584 452.679 53.6747 439.995C40.604 432.648 30.859 424.527 23.8209 415.091C15.4681 403.954 11.2916 391.27 11.2916 377.271V36.1958L18.9484 33.6436C21.6554 32.7155 86.6995 11.2919 188.326 11.2919C289.953 11.2919 354.997 32.7155 357.704 33.6436L365.361 36.1958V377.117C365.361 391.115 361.107 403.799 352.831 414.937C345.793 424.295 336.048 432.493 322.977 439.841C300.316 452.525 271.932 460.413 246.873 467.374H246.719C236.664 470.158 227.074 472.788 218.799 475.572C218.721 475.572 210.755 478.357 204.104 482.688C201.706 484.312 198.922 486.555 195.983 489.262L188.326 496.609ZM18.7937 41.5324V377.117C18.7937 389.414 22.5061 400.628 29.8536 410.451C36.2729 418.958 45.2445 426.461 57.3871 433.267C79.1974 445.564 107.118 453.298 131.712 460.104H131.867C142.076 462.966 151.666 465.595 160.096 468.38C160.483 468.534 168.991 471.396 176.57 476.346C179.354 478.202 182.525 480.754 185.696 483.77L188.249 486.168L190.801 483.77C194.049 480.754 197.143 478.202 199.927 476.346C207.584 471.318 216.324 468.38 216.401 468.38C224.909 465.595 234.499 462.888 244.708 460.104H244.863C269.535 453.298 297.377 445.486 319.188 433.267C331.33 426.461 340.302 418.958 346.721 410.451C354.069 400.628 357.781 389.414 357.781 377.117V41.5324L355.229 40.6816C352.599 39.8309 288.715 18.794 188.326 18.794C87.937 18.794 24.053 39.8309 21.346 40.6816L18.7937 41.5324Z" fill="#F0F0F0"/>
<path d="M188.326 486.323L185.774 483.925C183.531 481.837 180.128 478.821 176.648 476.5C168.991 471.473 160.251 468.534 160.174 468.534C151.744 465.75 142.153 463.12 132.022 460.259L131.79 460.181C107.195 453.375 79.2749 445.564 57.4646 433.344C31.4005 418.649 18.7939 400.319 18.7939 377.117V41.5324L21.3462 40.6816C21.9649 40.4496 87.9371 18.794 188.326 18.794C240.764 18.794 283.301 24.7493 309.752 29.6991C338.523 35.113 354.61 40.4496 355.306 40.6816L357.859 41.5324V377.117C357.859 400.319 345.252 418.649 319.265 433.267C297.455 445.564 269.535 453.298 244.94 460.104L244.708 460.181C234.576 462.966 224.986 465.673 216.478 468.457C216.169 468.534 207.507 471.55 200.005 476.423C197.22 478.202 194.127 480.831 190.878 483.848L188.326 486.323ZM26.296 47.0236V377.117C26.296 423.057 85.8489 439.608 133.723 452.911L133.955 452.989C144.164 455.85 153.832 458.557 162.494 461.341C162.572 461.341 172.239 464.59 180.747 470.236C183.454 472.015 186.161 474.18 188.326 476.114C190.956 473.793 193.508 471.86 195.906 470.236C204.104 464.899 213.153 461.728 214.158 461.419C222.82 458.557 232.488 455.85 242.697 453.066L242.929 452.989C290.804 439.686 350.356 423.135 350.356 377.194V47.0236C337.44 43.1565 276.418 26.2961 188.326 26.2961C100.157 26.2961 39.212 43.1565 26.296 47.0236Z" fill="#480024"/>
<path d="M69.6845 80.5124L79.6615 75.1758L89.5612 80.5124L87.6277 69.2979L95.6712 61.3317L84.6114 59.7076L79.6615 49.4985L74.6343 59.7076L63.5745 61.3317L71.618 69.2979L69.6845 80.5124Z" fill="white"/>
<path d="M133.646 163.732C138.131 163.732 140.916 161.412 143.313 158.163C142.463 158.009 141.689 157.931 140.916 157.776C137.435 162.34 132.64 163.732 133.646 163.732Z" fill="#7DA3C9"/>
<path d="M152.44 208.822C137.59 209.441 119.493 216.015 112.068 223.362C105.648 229.781 110.521 237.747 104.334 243.857C103.328 245.868 103.406 248.653 103.406 250.509C106.422 249.426 107.737 246.874 107.737 246.874C107.737 246.874 108.046 251.205 112.377 251.669C113.305 255.536 115.78 258.784 116.554 258.784C117.095 258.784 116.012 253.525 117.636 250.199C118.719 249.117 119.415 248.034 119.957 246.796C119.261 244.863 119.415 243.007 119.647 242.311C119.725 242.156 119.879 242.079 119.957 242.233C120.189 242.465 120.575 242.697 121.039 243.007C121.735 238.521 121.271 233.803 125.371 229.704C131.558 223.517 145.402 217.871 158.473 215.86C156.384 213.385 154.296 210.91 152.44 208.822Z" fill="#7DA3C9"/>
<path d="M164.118 120.034C162.107 120.653 154.219 126.608 151.202 129.624C150.042 130.784 152.208 133.878 151.744 134.342C151.744 134.342 151.666 134.419 151.512 134.419C150.738 134.419 150.042 134.187 149.346 133.801C150.042 136.894 153.136 140.22 155.611 142.231C158.859 139.601 162.107 137.668 164.737 135.58C165.433 134.883 166.284 134.187 167.289 133.337C169.145 131.326 170.383 129.083 170.383 125.835C170.46 121.735 168.295 118.719 164.118 120.034Z" fill="#7DA3C9"/>
<path d="M98.1463 257.392C98.9197 257.392 97.9917 253.37 99.6932 250.818C100.08 250.895 100.467 250.973 100.853 250.973C101.085 250.973 101.395 250.973 101.627 250.895C100.699 249.581 99.6158 247.57 99.1518 245.404C96.3675 245.095 95.2847 243.239 94.8207 241.924C94.5886 243.316 94.8206 245.095 95.5167 246.642C93.2738 251.128 97.1409 257.392 98.1463 257.392Z" fill="#7DA3C9"/>
<path d="M145.17 118.41C149.888 116.399 151.512 110.598 151.512 107.118C151.512 105.416 150.274 104.488 147.799 104.488C146.175 104.488 141.999 104.643 138.828 105.416C137.977 106.576 137.668 107.969 137.668 109.67C137.59 112.686 141.999 116.399 145.17 118.41Z" fill="#7DA3C9"/>
<path d="M184.46 276.109C184.46 263.038 192.426 258.243 192.426 249.967C192.426 248.111 191.188 244.708 190.492 243.857C190.415 243.857 190.492 243.935 190.492 243.935C192.89 251.746 186.702 254.299 182.217 266.828C176.648 268.375 170.693 273.17 170.693 281.677C170.693 290.649 177.653 297.146 183.995 297.146C185.001 297.146 185.774 296.836 186.238 296.682C186.316 296.682 186.316 296.682 186.393 296.682C184.846 294.207 183.918 291.268 183.918 287.942C183.918 285.622 184.382 283.534 185.156 281.755C184.692 280.208 184.46 278.352 184.46 276.109Z" fill="#7DA3C9"/>
<path d="M123.128 177.963C125.371 181.288 127.15 184.846 127.923 188.404C130.089 186.78 131.403 185.697 131.403 185.697C128.155 182.448 125.912 180.36 123.128 177.963Z" fill="#7DA3C9"/>
<path d="M206.656 299.621C208.126 301.399 209.209 303.488 209.209 306.504C209.209 310.448 207.739 312.691 207.121 313.465C207.043 313.619 207.121 313.774 207.275 313.774C208.667 314.006 214.081 314.161 219.263 305.576C226.147 309.134 224.29 315.089 223.749 316.481C223.672 316.636 223.826 316.79 223.981 316.79C232.953 316.481 235.814 304.338 235.814 304.338C236.046 304.338 236.356 304.261 236.588 304.261C236.665 303.952 236.665 303.565 236.665 303.256C236.665 299.93 230.4 297.223 222.511 298.074C222.511 298.074 219.65 310.216 210.678 310.526C210.524 310.526 210.446 310.371 210.446 310.216C210.988 308.824 212.766 303.178 206.656 299.621Z" fill="#7DA3C9"/>
<path d="M193.895 313.155C193.972 313.001 193.895 312.846 193.74 312.846C187.089 312.923 184.305 309.752 183.763 307.819C190.647 310.603 194.746 309.288 197.066 307.277C195.596 307.664 194.514 307.587 193.972 307.509C193.818 307.509 193.74 307.277 193.818 307.2C194.204 306.659 195.055 305.421 195.596 303.333C192.116 302.792 188.713 300.471 186.47 296.991C186.47 296.991 186.47 296.991 186.47 297.068C185.774 299.002 182.294 306.504 170.383 301.631C170.925 303.565 173.709 306.736 180.36 306.659C180.515 306.659 180.592 306.813 180.515 306.968C178.659 310.758 175.41 311.608 172.781 311.608C168.759 311.608 164.815 309.288 160.406 309.288C151.744 309.288 147.645 320.116 133.491 320.116C135.425 318.028 135.348 313.078 130.088 313.078C120.653 313.078 112.686 324.524 100.235 324.757C100.157 324.757 100.003 324.757 99.9252 324.757C99.7705 324.757 99.6931 324.757 99.5385 324.757C99.4611 325.453 99.4611 326.226 99.4611 326.999C99.4611 330.634 100.621 335.507 101.317 335.507C102.013 335.507 102.477 329.861 104.875 327.695C105.88 328.701 107.118 329.474 108.51 330.093C109.825 330.712 111.372 331.021 113.151 331.021C113.228 331.021 113.383 331.021 113.46 331.021C125.989 330.789 133.955 319.343 143.314 319.343C148.573 319.343 148.65 324.292 146.717 326.381C160.948 326.381 164.969 315.553 173.632 315.553C178.04 315.553 181.984 317.873 186.006 317.873C188.79 317.796 192.039 316.945 193.895 313.155Z" fill="#7DA3C9"/>
<path d="M293.124 287.478C289.257 290.572 281.987 289.876 281.987 289.876C285.39 287.169 287.865 279.434 284.385 272.164C284.307 272.01 284.075 272.01 283.998 272.164C280.982 279.28 275.258 282.141 269.612 282.76C269.303 283.069 268.994 283.379 268.684 283.611C268.684 283.611 275.877 284.307 279.821 281.213C279.976 281.136 280.131 281.213 280.131 281.368C279.744 292.118 265.281 299.311 265.281 299.311C267.06 301.09 271.082 300.781 272.629 299.775C272.783 299.698 272.938 299.775 272.938 300.007C272.629 302.173 270.076 304.106 267.911 306.272C250.045 324.138 254.067 335.584 244.631 335.584C244.709 335.198 245.482 331.872 241.77 331.872C235.969 331.872 231.251 342.854 224.368 349.738C219.65 354.456 213.849 357.472 207.275 357.472C205.032 357.472 202.712 356.466 200.933 355.306C200.624 355.538 200.392 355.77 200.083 356.002C201.861 359.019 205.342 359.792 207.585 359.792C207.275 362.654 207.353 367.526 208.049 368.222C208.59 368.764 210.833 364.123 214.236 361.648C216.015 362.731 218.258 363.814 220.578 363.814C227.075 363.814 232.953 360.72 237.67 356.08C244.554 349.196 249.272 338.214 255.072 338.214C258.707 338.214 258.011 341.54 257.934 341.926C267.292 341.926 263.348 330.48 281.214 312.614C283.379 310.448 285.931 308.515 286.241 306.349C286.241 306.195 286.086 306.04 285.931 306.117C284.385 307.123 280.363 307.432 278.584 305.653C278.584 305.653 293.047 298.46 293.434 287.71C293.434 287.478 293.279 287.401 293.124 287.478Z" fill="#7DA3C9"/>
<path d="M75.408 163.964C75.9493 166.516 78.0376 171.389 82.6007 171.389C84.6889 171.389 86.1584 170.847 87.0865 170.074C87.5506 170.151 88.0919 170.228 88.7107 170.228C94.7433 170.228 96.1355 162.958 103.638 162.958H103.715C99.0744 159.091 93.8926 156.694 90.3348 156.694C82.8327 156.694 81.4406 163.964 75.408 163.964Z" fill="#7DA3C9"/>
<path d="M84.1475 113.46C84.1475 127.845 91.4176 134.187 91.959 134.729C92.191 134.961 92.3457 135.27 92.423 135.657C96.4448 136.198 99.9252 137.204 103.019 138.441C100.699 135.347 97.4502 129.315 97.4502 119.725C97.4502 116.863 95.5167 114.62 92.5004 114.62C91.5723 112.609 89.0974 108.51 83.9155 108.51C82.8327 108.51 81.982 108.587 81.2859 108.819C83.0647 109.593 84.1475 111.372 84.1475 113.46Z" fill="#7DA3C9"/>
<path d="M327.464 138.441C325.607 138.441 324.602 138.75 324.602 138.75C324.602 138.75 337.054 126.531 337.054 107.505C337.054 98.8423 334.966 95.5166 334.656 95.5166C334.038 95.5166 333.96 100.699 330.016 104.643C328.082 106.576 325.453 107.35 323.21 108.355C320.735 123.282 311.377 132.486 311.377 132.486C311.377 132.486 312.382 132.176 314.238 132.176C318.337 132.176 321.276 135.038 320.658 135.657C320.116 136.198 314.548 135.425 309.288 140.607C309.288 140.607 302.482 148.882 291.19 148.882C279.899 148.882 269.999 143.391 269.999 143.391C265.59 147.335 262.342 153.445 262.342 159.246C262.342 164.969 264.044 170.306 267.601 175.874C271.004 181.134 275.645 186.006 280.208 190.724C289.334 200.237 298.847 210.137 298.847 224.058C298.847 230.787 296.604 237.129 292.505 241.847C290.262 244.476 287.478 246.564 284.307 248.034C280.981 249.581 277.192 250.354 273.17 250.354C267.137 250.354 262.033 249.117 257.47 247.415C258.552 247.957 259.712 248.498 260.873 249.117C267.833 252.674 275.722 256.696 286.55 256.696C290.572 256.696 294.284 255.923 297.687 254.376C300.858 252.906 303.565 250.818 305.885 248.189C309.984 243.393 312.227 237.051 312.227 230.4C312.227 216.479 302.792 206.656 293.588 197.066C289.025 192.348 284.384 187.476 280.981 182.216C277.346 176.57 275.722 171.311 275.722 165.588C275.722 159.787 278.971 153.677 283.379 149.733C283.379 149.733 293.201 155.224 304.571 155.224C315.862 155.224 322.668 146.949 322.668 146.949C327.85 141.767 333.419 142.54 334.038 141.999C334.502 141.303 331.563 138.441 327.464 138.441Z" fill="#7DA3C9"/>
<path d="M216.711 52.9789C216.788 52.9015 216.788 52.7469 216.633 52.6695C215.164 52.1281 211.993 50.8907 204.723 50.8907C202.867 50.8907 201.088 51.1227 199.386 51.5867C206.347 50.504 211.993 51.2 216.711 52.9789Z" fill="#7DA3C9"/>
<path d="M254.685 276.573C252.442 273.711 251.05 269.999 251.05 265.9C251.05 257.547 253.757 253.834 254.84 246.41C252.21 245.327 249.813 244.089 247.493 242.929C245.404 241.847 243.471 240.841 241.537 240.068C240.455 247.57 237.748 251.282 237.748 259.712C237.748 269.535 245.327 276.65 254.221 276.65C254.453 276.573 254.608 276.573 254.685 276.573Z" fill="#7DA3C9"/>
<path d="M249.349 78.3469C249.503 78.3469 249.581 78.5015 249.503 78.6562C248.343 80.7444 245.172 82.9873 242.543 82.9873C241.305 82.9873 240.532 82.8327 240.532 82.8327C248.111 89.5614 247.028 107.891 255.072 108.51C255.227 108.51 255.304 108.742 255.227 108.897C254.067 109.902 252.21 110.676 249.039 110.676C246.178 110.676 243.78 109.206 243.78 109.206C243.78 109.206 245.482 111.836 245.482 115.471C245.482 119.106 244.012 120.034 244.012 125.216C244.012 129.702 248.343 132.641 249.426 133.337C249.581 133.414 249.581 133.569 249.426 133.646C248.807 134.11 247.725 134.419 245.791 134.419C243.548 134.419 239.062 132.873 236.51 130.32C237.129 130.939 240.222 134.265 240.222 139.911C240.222 145.557 238.134 149.888 238.134 155.534C238.134 160.483 241.46 163.19 242.311 163.809C242.388 163.886 242.388 164.041 242.311 164.118C241.847 164.505 240.919 165.047 239.372 165.047C237.67 165.047 232.488 163.964 229.472 161.025C231.019 167.599 226.842 172.781 226.842 182.139C226.842 199.309 240.068 210.369 241.924 228.776C245.482 230.168 248.807 231.947 252.133 233.648C253.138 234.19 254.144 234.654 255.149 235.118C253.061 217.097 240.145 205.341 240.145 188.404C240.145 179.045 244.322 173.863 242.775 167.289C245.791 170.306 250.973 171.311 252.674 171.311C253.138 171.311 253.525 171.234 253.912 171.157C253.448 169.764 253.061 168.372 252.752 166.98C251.978 165.665 251.36 163.964 251.36 161.798C251.36 159.014 251.901 156.539 252.365 154.141C252.52 153.445 252.674 152.672 252.829 151.976C253.216 150.12 253.448 148.263 253.448 146.175C253.448 140.529 250.354 137.204 249.735 136.585C252.056 138.905 256.077 140.375 258.398 140.607C259.094 139.756 259.867 138.905 260.641 138.054C259.016 136.662 257.16 134.342 257.16 131.403C257.16 126.221 258.63 125.293 258.63 121.658C258.63 118.023 256.928 115.393 256.928 115.393C256.928 115.393 259.326 116.863 262.187 116.863C265.358 116.863 267.215 116.089 268.375 115.084C268.529 114.929 268.452 114.775 268.22 114.697C260.177 114.079 261.259 95.7487 253.68 89.02C253.68 89.02 254.453 89.1747 255.691 89.1747C258.32 89.1747 261.491 86.9318 262.651 84.8435C262.729 84.6889 262.651 84.5342 262.497 84.5342C250.432 83.9154 245.172 61.7185 225.141 57.774C235.35 65.8176 240.532 77.9602 249.349 78.3469Z" fill="#7DA3C9"/>
<path d="M69.6072 411.688C66.4363 409.909 63.884 408.363 63.884 408.363C64.6574 408.363 65.8175 408.285 66.5909 407.048C67.2097 405.965 67.6737 403.954 68.2924 401.556C68.4471 401.015 68.6018 400.396 68.7565 399.855C65.9722 398.153 63.2653 396.375 60.481 394.518C60.0169 394.905 59.5529 395.214 59.0888 395.601C57.1553 397.148 55.4538 398.385 54.7577 399.391C53.9069 400.628 54.2937 401.711 54.6804 402.407C54.6804 402.407 52.8242 401.015 50.0399 399.082C47.1782 397.071 45.5541 395.911 45.5541 395.911C47.9517 395.911 50.1172 394.441 54.9897 391.038C59.7849 387.635 64.5027 384.077 69.1432 380.52C69.5299 380.21 69.9166 379.901 70.226 379.437C70.5353 378.973 70.458 378.663 70.458 378.586C74.0931 381.061 77.7281 383.381 81.4405 385.624C81.4405 385.624 81.0538 385.701 80.7444 386.243C80.5124 386.707 80.2804 387.171 80.203 387.635C78.7335 393.281 77.4187 398.927 76.1813 404.65C74.9438 410.451 74.5571 413.003 75.4852 415.091C75.3305 415.014 73.0876 413.699 69.6072 411.688ZM72.7009 386.011C73.2423 384.309 73.5517 383.381 73.7063 383.149C73.5517 383.304 73.0103 383.923 71.5408 385.237C68.9885 387.48 66.4363 389.646 63.8066 391.889C65.8175 393.281 67.9057 394.596 69.9166 395.833C70.7674 392.508 71.6955 389.259 72.7009 386.011Z" fill="#480024"/>
<path d="M85.1529 420.273C79.4296 417.489 77.264 414.859 77.264 414.937C77.264 414.937 77.8054 414.163 78.8109 412.23C79.971 410.064 80.5897 408.749 80.5897 408.749C81.1311 411.301 82.2912 414.163 86.545 416.251C89.484 417.643 92.1136 418.185 93.1964 415.865C94.0471 414.008 92.9643 412.771 91.3402 410.837C90.4121 409.755 89.5613 408.595 88.7106 407.512C86.2356 404.341 84.6888 401.092 86.6223 397.457C89.1746 392.662 93.8924 392.198 100.389 395.292C105.03 397.457 107.118 399.546 107.118 399.546C107.118 399.546 106.654 400.396 105.803 402.485C104.875 404.65 104.488 405.888 104.488 405.888C103.715 403.026 102.323 400.706 99.229 399.236C96.5994 397.999 94.6658 397.844 93.7377 399.7C92.887 401.402 93.9698 402.639 95.7486 404.805C96.522 405.733 97.2955 406.661 98.0689 407.589C100.93 410.915 102.555 413.854 100.93 417.953C98.1462 424.063 91.9589 423.599 85.1529 420.273Z" fill="#480024"/>
<path d="M131.558 413.467C131.558 413.39 131.403 412.926 130.398 411.998C129.547 411.147 128.077 410.296 126.066 409.677C125.293 409.445 124.597 409.213 123.824 408.981C122.741 412.307 121.658 415.633 120.653 419.036C117.095 430.173 117.25 430.405 117.714 432.261C117.791 432.493 117.868 432.802 117.946 433.034C117.946 433.034 116.321 432.493 112.377 431.101C108.433 429.786 106.731 429.167 106.731 429.167C106.963 429.013 107.195 428.858 107.35 428.703C108.819 427.621 109.129 427.389 113.15 416.097C114.311 412.926 115.393 409.755 116.553 406.584C115.78 406.352 115.084 406.042 114.311 405.81C112.377 405.114 110.675 404.882 109.438 405.037C108.123 405.192 107.659 405.424 107.582 405.501C107.582 405.501 108.123 404.418 108.897 402.485C109.67 400.628 109.902 399.855 109.902 399.855C117.482 402.949 125.216 405.501 133.027 407.666C133.027 407.666 132.718 408.517 132.254 410.373C131.79 412.307 131.635 413.39 131.558 413.467Z" fill="#480024"/>
<path d="M142.695 439.686C132.022 437.52 128.077 430.869 130.475 422.129C132.563 414.627 138.209 408.672 148.263 410.683C157.544 412.462 161.644 418.108 160.561 427.156C159.71 434.891 154.451 441.929 142.695 439.686ZM147.567 414.782C143.314 413.931 140.607 416.638 138.982 423.908C137.358 431.101 138.75 434.659 143.391 435.587C148.109 436.515 150.816 433.576 152.053 426.306C153.213 419.036 151.821 415.633 147.567 414.782Z" fill="#480024"/>
<path d="M193.431 415.633C192.657 417.025 192.425 417.489 192.58 429.477C192.657 434.195 192.735 438.912 192.812 443.63C192.812 443.63 191.497 443.553 188.481 443.553C185.233 443.553 182.758 443.553 182.758 443.553C179.2 437.056 176.029 430.482 173.09 423.908C172.471 422.439 172.085 420.892 172.085 420.737C171.853 423.444 171.698 426.151 171.466 428.858C170.538 440.537 170.77 440.691 171.621 442.393C171.775 442.625 171.853 442.857 172.007 443.089C172.007 443.089 170.538 442.934 167.367 442.625C163.964 442.315 162.649 442.238 162.649 442.238C162.804 442.006 162.958 441.851 163.19 441.619C164.196 440.305 164.582 439.918 165.82 427.93C166.98 416.329 166.825 416.097 166.129 414.472C166.052 414.24 165.897 414.008 165.82 413.776C165.82 413.776 167.367 414.086 171.234 414.395C174.482 414.627 176.106 414.627 176.106 414.627C178.968 421.201 182.139 427.698 185.542 434.117C186.393 435.664 186.702 436.979 186.779 437.211C186.779 434.504 186.857 431.797 186.857 429.09C186.934 417.411 186.779 417.257 185.929 415.633C185.774 415.401 185.697 415.169 185.542 414.937C185.542 414.937 186.779 415.014 189.641 415.014C192.58 415.014 193.817 414.859 193.817 414.859C193.663 415.169 193.508 415.401 193.431 415.633Z" fill="#480024"/>
<path d="M231.947 420.196C231.173 426.847 230.245 433.576 229.085 440.227C229.085 440.227 226.997 440.537 223.285 441.078C219.727 441.619 217.329 441.929 217.329 441.929C214.39 435.819 211.606 429.709 208.976 423.521C206.734 418.108 205.728 415.71 204.027 414.395C204.027 414.395 205.573 414.395 209.673 414.008C213.926 413.544 215.55 413.235 215.55 413.235C215.086 413.699 214.313 414.473 214.545 415.942C214.7 417.334 215.705 419.577 216.943 422.361C218.876 426.692 220.887 431.101 222.898 435.432C223.362 436.437 223.749 437.598 223.826 437.752C223.826 437.598 223.903 436.437 224.058 435.277C224.754 430.56 225.373 425.764 225.992 421.047C226.301 417.953 226.61 415.555 226.301 414.163C226.069 412.694 225.141 412.152 224.522 411.92C224.522 411.92 226.146 411.766 229.627 411.069C232.875 410.451 234.19 409.987 234.19 409.987C232.952 411.766 232.643 414.318 231.947 420.196Z" fill="#480024"/>
<path d="M247.493 436.205C243.471 437.211 241.769 437.675 241.769 437.675C241.847 437.443 241.924 437.133 242.079 436.901C242.697 435.2 242.852 434.891 240.068 423.135C237.361 411.766 237.206 411.611 235.969 410.296C235.814 410.141 235.582 409.909 235.427 409.755C235.427 409.755 236.897 409.523 240.454 408.595C244.244 407.589 245.482 407.125 245.482 407.202C245.404 407.434 245.327 407.744 245.327 407.976C244.94 409.677 244.786 409.987 247.957 421.588C251.05 432.88 251.282 432.957 252.674 434.272C252.906 434.427 253.061 434.659 253.293 434.813C253.216 434.736 251.514 435.2 247.493 436.205Z" fill="#480024"/>
<path d="M277.501 424.836C277.656 425.3 277.81 425.842 277.965 426.306C272.474 428.549 266.828 430.56 261.259 432.338C258.784 433.112 257.702 433.498 257.702 433.498C257.779 433.266 257.856 432.957 257.934 432.725C258.398 431.024 258.552 430.637 254.995 419.113C251.514 407.976 251.282 407.821 249.967 406.584C249.813 406.429 249.581 406.197 249.426 406.042C249.426 406.042 250.818 405.733 254.608 404.495C258.32 403.258 259.48 402.717 259.48 402.717C259.403 403.026 259.403 403.258 259.326 403.567C258.939 405.346 259.016 406.12 262.033 414.782C263.425 418.649 264.74 422.593 266.132 426.46C267.137 426.074 268.143 425.764 269.148 425.378C274.717 423.289 275.026 421.897 275.877 419.19C275.799 419.19 276.186 420.737 277.501 424.836Z" fill="#480024"/>
<path d="M300.471 414.008C300.703 414.472 300.858 414.937 301.09 415.401C295.753 418.262 290.417 420.892 284.926 423.289C282.528 424.372 281.445 424.836 281.445 424.836C281.523 424.604 281.523 424.295 281.6 424.063C281.909 422.284 281.987 421.897 277.269 410.837C272.628 400.087 272.396 400.01 270.927 398.927C270.695 398.772 270.54 398.618 270.308 398.463C270.308 398.463 271.7 397.999 275.335 396.375C278.893 394.75 280.053 394.054 280.053 394.054C280.053 394.364 279.976 394.596 279.976 394.905C279.744 396.684 279.898 397.535 283.843 405.733C285.622 409.445 287.401 413.235 289.179 416.947C290.185 416.483 291.113 416.019 292.118 415.555C297.532 412.848 297.687 411.379 298.228 408.672C298.151 408.595 298.692 410.141 300.471 414.008Z" fill="#480024"/>
<path d="M326.226 399.778C323.21 401.943 320.735 403.645 320.735 403.645C321.044 402.949 321.508 401.866 320.657 400.628C319.961 399.623 318.337 398.308 316.404 396.761C315.94 396.375 315.476 395.988 315.011 395.679C312.305 397.457 309.52 399.236 306.736 400.938C306.891 401.479 307.045 402.098 307.123 402.639C307.741 405.037 308.128 407.125 308.747 408.131C309.52 409.445 310.68 409.523 311.376 409.523C311.376 409.523 309.366 410.683 306.504 412.307C303.488 414.008 301.863 415.014 301.863 415.014C302.792 412.848 302.405 410.219 301.322 404.418C300.239 398.618 299.002 392.894 297.61 387.171C297.455 386.707 297.378 386.243 297.068 385.779C296.836 385.315 296.45 385.237 296.372 385.237C300.085 382.995 303.72 380.674 307.355 378.199C307.355 378.199 307.277 378.586 307.587 379.05C307.896 379.514 308.205 379.824 308.592 380.133C313.078 383.845 317.718 387.403 322.359 390.883C327.077 394.364 329.242 395.833 331.64 395.833C331.717 395.911 329.552 397.457 326.226 399.778ZM304.106 386.32C302.792 385.16 302.095 384.464 301.941 384.232C302.018 384.464 302.327 385.237 302.869 387.094C303.797 390.342 304.725 393.59 305.653 396.916C307.741 395.679 309.752 394.364 311.763 393.049C309.211 390.806 306.659 388.563 304.106 386.32Z" fill="#480024"/>
<path d="M157.003 385.856V382.84C159.942 382.84 161.412 381.757 161.489 379.592H164.66V397.767H160.793V385.083C160.174 385.547 158.86 385.856 157.003 385.856Z" fill="white"/>
<path d="M174.173 397.457C173.09 397.071 172.162 396.375 171.544 395.601C170.925 394.751 170.615 393.745 170.615 392.585C170.615 390.574 171.776 389.027 174.019 388.022V387.944C172.317 387.016 171.466 385.779 171.466 384.077C171.466 383.072 171.776 382.221 172.317 381.448C172.858 380.674 173.632 380.133 174.637 379.746C175.643 379.36 176.725 379.205 177.963 379.205C179.2 379.205 180.283 379.36 181.289 379.746C182.294 380.133 183.067 380.674 183.609 381.448C184.15 382.221 184.46 383.072 184.46 384.077C184.46 385.702 183.609 387.016 181.907 387.944V388.022C184.15 389.027 185.31 390.574 185.31 392.585C185.31 393.745 185.001 394.828 184.382 395.601C183.764 396.452 182.835 397.071 181.753 397.457C180.67 397.844 179.432 398.076 178.04 398.076C176.571 398.076 175.333 397.921 174.173 397.457ZM175.488 394.364C176.107 394.905 176.88 395.215 177.963 395.215C178.968 395.215 179.819 394.905 180.438 394.364C181.057 393.822 181.366 393.126 181.366 392.276C181.366 391.425 181.057 390.729 180.438 390.187C179.819 389.646 179.046 389.414 177.963 389.414C176.88 389.414 176.107 389.646 175.488 390.187C174.869 390.729 174.56 391.425 174.56 392.276C174.56 393.049 174.869 393.822 175.488 394.364ZM175.797 386.166C176.261 386.63 177.035 386.784 177.963 386.784C178.891 386.784 179.587 386.552 180.128 386.166C180.593 385.702 180.902 385.16 180.902 384.387C180.902 383.613 180.67 383.072 180.128 382.608C179.664 382.144 178.891 381.989 177.963 381.989C177.035 381.989 176.339 382.221 175.797 382.608C175.333 383.072 175.024 383.613 175.024 384.387C175.101 385.083 175.333 385.702 175.797 386.166Z" fill="white"/>
<path d="M193.276 391.966C193.818 390.033 194.591 388.254 195.519 386.63C196.447 385.005 197.453 383.768 198.536 382.84V382.763H189.564V379.592H202.635V382.531C200.624 384.155 199.154 386.32 198.072 389.105C196.989 391.889 196.447 394.751 196.447 397.767H192.348C192.426 395.833 192.658 393.9 193.276 391.966Z" fill="white"/>
<path d="M213.772 393.745H205.419V390.033L213.772 379.592H217.639V390.651H220.269V393.822H217.639V397.767H213.772V393.745ZM213.772 390.574V383.923L208.435 390.574H213.772Z" fill="white"/>
<path d="M152.981 83.0647C151.125 84.9209 151.357 87.2412 149.733 88.8653C149.037 89.5614 148.109 90.0255 146.871 90.0255C144.474 90.0255 142.849 88.0146 142.849 86.0037C142.849 83.9155 145.247 82.0593 151.744 82.0593C152.517 82.0593 153.445 82.0593 154.296 82.1366C153.832 82.2913 153.368 82.6007 152.981 83.0647Z" fill="#7496BD"/>
<path d="M314.161 132.176C312.305 132.176 311.299 132.486 311.299 132.486C311.299 132.486 323.751 120.266 323.751 101.24C323.751 92.5777 321.663 89.252 321.354 89.252C320.735 89.252 320.658 94.4339 316.713 98.3783C313.851 101.24 309.288 101.549 306.736 104.102C309.211 98.8423 307.432 91.8042 307.045 91.8042C306.736 91.8042 306.891 95.5166 302.173 100.234C299.157 103.251 292.273 105.416 286.55 111.062C288.948 105.494 286.859 99.6931 286.318 99.6931C285.777 99.6931 286.318 103.019 283.07 106.267C280.053 109.283 274.253 110.753 269.922 115.161C263.889 121.194 264.972 130.32 264.972 133.646C264.972 133.955 264.972 134.265 264.972 134.574C264.121 135.193 263.27 135.889 262.419 136.585C255.613 142.54 251.978 150.429 251.978 159.323C251.978 176.338 262.961 187.785 272.706 197.994C277.037 202.48 281.059 206.734 283.998 211.142C287.014 215.705 288.406 219.882 288.406 224.213C288.406 228.389 287.014 232.488 284.539 235.35C281.755 238.598 277.965 240.222 273.093 240.222C264.74 240.222 258.63 237.129 252.133 233.803C248.807 232.102 245.482 230.323 241.924 228.931C240.068 210.601 226.842 199.463 226.842 182.294C226.842 172.935 231.019 167.753 229.472 161.179C232.488 164.196 237.67 165.201 239.372 165.201C240.841 165.201 241.769 164.66 242.311 164.273C242.388 164.196 242.388 164.041 242.311 163.964C241.46 163.345 238.134 160.638 238.134 155.688C238.134 150.042 240.222 145.711 240.222 140.065C240.222 134.419 237.129 131.094 236.51 130.475C239.062 133.027 243.548 134.574 245.791 134.574C247.725 134.574 248.807 134.265 249.426 133.801C249.503 133.723 249.503 133.569 249.426 133.491C248.343 132.795 244.012 129.856 244.012 125.37C244.012 120.189 245.482 119.26 245.482 115.625C245.482 111.99 243.78 109.361 243.78 109.361C243.78 109.361 246.178 110.83 249.039 110.83C252.21 110.83 254.067 110.057 255.227 109.051C255.381 108.897 255.304 108.742 255.072 108.665C247.029 108.046 248.111 89.716 240.532 82.9873C240.532 82.9873 241.305 83.142 242.543 83.142C245.172 83.142 248.343 80.8991 249.503 78.8109C249.581 78.6562 249.503 78.5015 249.349 78.5015C234.809 77.7281 230.168 45.5541 197.375 52.0508C199.077 49.6532 202.248 47.6423 203.331 46.9463C203.485 46.8689 203.485 46.6369 203.331 46.5595C201.861 46.0182 198.69 44.7807 191.42 44.7807C183.918 44.7807 177.035 48.8024 173.09 53.907C174.869 50.3493 172.703 45.8635 170.693 43.6206C170.615 43.4659 170.383 43.5432 170.306 43.6979C170.074 44.626 169.3 46.5595 168.063 47.797C162.185 53.675 151.589 57.4647 151.589 69.762C151.589 69.762 148.109 72.0049 143.468 75.1758C138.751 78.3468 136.276 83.374 136.276 84.9982C134.497 85.9263 127.072 91.4175 121.117 97.3728C120.962 97.5275 120.962 97.7595 121.039 97.9142C121.658 98.9197 122.122 100.157 122.354 100.853C122.432 101.163 122.818 101.24 123.05 101.008C123.824 100.234 125.448 98.8423 126.221 98.6103C124.906 99.9251 124.442 101.549 124.442 103.56C124.442 108.046 134.342 114.311 134.961 113.692C135.425 113.228 133.801 108.665 135.27 107.195C137.513 104.952 145.402 104.72 147.799 104.72C150.274 104.72 151.512 105.648 151.512 107.35C151.512 111.526 149.114 119.338 141.535 119.338C138.441 119.338 136.508 116.399 135.966 116.863C135.502 117.327 135.889 121.735 136.894 123.205C136.894 123.205 136.044 124.21 136.044 126.299C136.044 131.712 145.015 138.673 145.943 137.745C146.562 137.126 144.087 131.016 145.634 131.016C146.485 131.016 148.882 134.497 151.667 134.497C151.821 134.497 151.821 134.419 151.899 134.419C152.363 133.955 150.12 130.862 151.357 129.702C154.374 126.685 162.262 120.73 164.273 120.111C168.45 118.796 170.615 121.813 170.615 125.912C170.615 135.038 160.948 136.894 153.059 144.706C145.17 152.595 143.623 163.809 133.723 163.809C132.409 163.809 141.071 161.411 143.546 152.827C117.636 153.059 113.228 138.596 92.5004 135.812C92.4231 135.502 92.2684 135.193 92.0364 134.883C91.495 134.342 84.2249 127.923 84.2249 113.615C84.2249 110.753 82.2913 108.51 79.275 108.51C78.3469 106.499 75.872 102.4 70.6901 102.4C65.7403 102.4 64.5028 104.72 64.8122 104.952C65.1216 105.262 67.2098 104.488 69.762 107.041C71.2315 108.51 71.8502 110.212 72.0823 111.372C71.4635 112.145 71.0768 112.996 71.0768 114.001C71.0768 114.001 68.5246 113.537 66.0497 115.857C64.9669 115.239 63.188 114.543 60.4811 114.543C53.3657 114.543 51.8962 120.962 52.2055 121.271C52.5149 121.581 53.7524 120.111 55.9179 120.111C58.3929 120.111 61.0225 122.122 62.4146 123.282C62.2599 124.906 62.5693 126.453 63.6521 127.536C63.6521 127.536 60.249 128.541 59.6303 133.337C59.4756 133.337 59.3209 133.414 59.1663 133.491C49.7306 136.121 51.5095 143.468 51.8962 143.468C52.2829 143.468 52.7469 140.297 57.078 140.297C58.5475 140.297 59.785 140.452 60.7131 140.684C62.4146 143.932 65.4309 144.706 67.5965 144.706C69.53 144.706 71.3862 144.242 73.0104 144.242C75.1759 144.242 76.4907 145.557 76.4907 148.573C76.4907 152.981 72.237 151.666 70.3034 153.6C68.9886 154.915 68.8339 156.075 68.8339 157.854C68.8339 157.931 68.8339 158.008 68.8339 158.086C68.2152 158.241 67.5965 158.395 66.9777 158.395C64.0388 158.395 62.3373 155.766 61.9506 156.152C61.4092 156.694 63.188 165.124 69.1433 165.124C71.2315 165.124 72.701 164.582 73.6291 163.809C74.0931 163.886 74.6345 163.964 75.2533 163.964C81.2859 163.964 82.6781 156.694 90.1802 156.694C97.6049 156.694 112.068 167.057 114.156 179.973C114.156 180.128 114.388 180.205 114.465 180.128C117.714 177.421 117.559 173.399 117.559 173.399C123.669 178.349 126.221 180.669 131.326 185.697C131.326 185.697 101.549 208.59 100.003 209.518C98.6877 210.291 97.9916 210.678 96.3675 210.678C92.191 210.678 90.8762 203.64 84.1475 203.64C82.8327 203.64 81.9046 204.027 81.1312 204.645C80.4352 204.491 79.5844 204.413 78.5016 204.413C70.6128 204.413 69.2206 215.009 69.9167 215.009C70.6901 215.009 71.2315 212.302 74.9439 212.302C75.408 212.302 75.9493 212.379 76.4134 212.457C76.4134 214.468 77.1868 216.401 78.5016 217.407C78.5016 217.407 76.3361 218.18 75.0986 220.732C65.7403 221.042 65.895 232.102 66.8231 232.102C67.4418 232.102 67.8285 227.461 73.2424 227.461C73.6291 227.461 74.1705 227.616 74.6345 227.848C75.5626 231.947 78.4243 234.19 81.7499 234.19C80.8992 235.737 81.0539 238.211 81.982 240.377C79.8164 244.94 83.6835 251.128 84.6889 251.128C85.4623 251.128 84.5342 247.106 86.2358 244.553C86.6225 244.631 87.0092 244.708 87.3959 244.708C92.2684 244.708 94.3566 240.609 94.3566 240.609C94.3566 240.609 94.666 244.94 98.9971 245.404C99.9252 249.271 102.4 252.52 103.174 252.52C103.715 252.52 102.632 247.26 104.256 243.935C110.444 237.747 105.571 229.781 111.99 223.439C119.338 216.092 137.436 209.518 152.363 208.899C157.777 214.932 165.201 224.135 168.604 226.456C168.604 226.456 168.45 226.61 168.218 226.842C159.014 236.046 141.999 228.002 133.027 236.974C129.47 240.532 129.006 243.78 123.978 243.78C122.277 243.78 120.653 242.929 119.957 242.233C119.879 242.156 119.647 242.156 119.647 242.311C119.338 243.393 119.106 246.951 121.813 249.658C124.906 252.752 128.774 252.21 129.779 251.669C127.304 254.995 121.89 254.84 118.719 252.984C118.564 252.906 118.332 253.061 118.41 253.216C120.885 262.806 130.784 260.95 130.784 260.95C132.873 271.236 143.004 275.49 143.004 282.373C143.004 284.307 142.231 286.473 140.607 288.097C136.74 291.964 128.232 294.516 118.951 294.516C104.024 294.516 103.792 283.92 95.6714 283.92C94.5886 283.92 93.5832 284.075 92.5777 284.307C91.4176 282.992 88.8654 281.445 85.617 281.445C80.6672 281.445 77.7282 287.091 78.4243 287.787C78.811 288.174 80.2805 286.395 82.5234 286.395C83.6061 286.395 84.9983 287.323 85.5397 288.87C85.153 289.334 84.7663 289.876 84.4569 290.494C83.6061 290.262 82.6007 290.108 81.2859 290.108C71.9276 290.108 72.0823 300.935 73.0877 300.935C73.6291 300.935 74.8666 296.914 79.4297 297.455C78.5016 299.157 78.0376 301.013 78.0376 303.101C78.0376 303.41 78.0376 303.72 78.0376 304.029C75.872 305.266 74.2478 307.587 74.2478 310.294C74.2478 314.238 75.0212 316.172 75.5626 316.172C76.2587 316.172 76.8774 311.608 80.2805 310.139C81.8273 312.227 84.0702 313.851 86.6998 314.547C86.3904 315.862 86.0811 317.95 86.0811 320.889C86.0811 324.525 87.2412 329.397 87.9373 329.397C88.6333 329.397 89.0974 323.751 91.495 321.586C92.5004 322.591 93.7379 323.364 95.13 323.983C96.4448 324.602 97.9916 324.911 99.7705 324.911C99.8478 324.911 100.003 324.911 100.08 324.911C112.609 324.679 120.575 313.233 129.934 313.233C135.193 313.233 135.27 318.182 133.337 320.271C147.567 320.271 151.589 309.443 160.251 309.443C164.66 309.443 168.604 311.763 172.626 311.763C175.256 311.763 178.504 310.912 180.36 307.123C180.438 306.968 180.36 306.813 180.206 306.813C173.554 306.891 170.77 303.72 170.228 301.786C182.139 306.581 185.619 299.157 186.316 297.223C186.393 297.068 186.238 296.914 186.006 296.991C185.542 297.223 184.691 297.455 183.763 297.455C177.344 297.455 170.461 290.958 170.461 281.987C170.461 273.479 176.338 268.684 181.984 267.137C186.393 254.608 192.658 252.056 190.26 244.244V244.167C190.956 245.018 192.193 248.421 192.193 250.277C192.193 258.552 184.227 263.27 184.227 276.418C184.227 291.19 195.751 290.649 195.751 300.549C195.751 304.493 194.282 306.736 193.663 307.509C193.586 307.664 193.663 307.819 193.818 307.819C195.21 308.051 200.624 308.205 205.806 299.621C212.689 303.178 210.833 309.134 210.291 310.526C210.214 310.68 210.369 310.835 210.523 310.835C219.495 310.526 222.357 298.383 222.357 298.383C230.245 297.532 236.51 300.239 236.51 303.565C236.51 312.15 220.5 328.16 208.822 328.16C204.491 328.16 202.944 323.596 199.154 323.596C196.37 323.596 195.055 324.911 194.204 326.613C192.657 325.917 191.111 325.607 189.641 325.607C185.929 325.607 182.68 327.695 181.52 332.259C176.493 333.883 175.488 341.694 175.952 342.236C176.338 342.622 178.813 338.523 182.912 339.451C183.609 340.612 184.459 341.54 185.155 342.236C184.305 342.7 183.454 343.241 182.448 344.247C177.499 349.196 178.736 354.688 179.2 355.152C179.741 355.693 180.592 353.218 181.984 351.826C183.067 350.743 184.614 349.583 186.702 349.738C188.404 352.909 192.039 353.76 194.359 353.76C194.05 356.621 194.127 361.494 194.823 362.19C195.364 362.731 197.607 358.091 201.01 355.616C202.789 356.699 205.032 357.781 207.352 357.781C213.849 357.781 219.727 354.688 224.445 350.047C231.328 343.164 236.046 332.181 241.847 332.181C245.482 332.181 244.786 335.507 244.708 335.894C254.067 335.894 250.122 324.447 267.988 306.581C270.154 304.416 272.706 302.482 273.015 300.317C273.015 300.162 272.861 300.007 272.706 300.085C271.159 301.09 267.137 301.399 265.358 299.621C265.358 299.621 279.821 292.428 280.208 281.677C280.208 281.523 279.976 281.368 279.899 281.523C276.032 284.616 268.761 283.92 268.761 283.92C272.164 281.213 274.639 273.479 271.159 266.209C271.082 266.054 270.85 266.054 270.772 266.209C267.447 274.175 260.563 276.882 254.376 276.882C245.482 276.882 237.902 269.689 237.902 259.944C237.902 251.592 240.609 247.802 241.692 240.3C243.625 241.15 245.559 242.079 247.647 243.161C254.608 246.719 262.497 250.741 273.325 250.741C277.346 250.741 281.059 249.967 284.462 248.421C287.633 246.951 290.34 244.863 292.66 242.233C296.759 237.438 299.002 231.096 299.002 224.445C299.002 210.523 289.566 200.701 280.363 191.111C275.8 186.393 271.159 181.52 267.756 176.261C264.121 170.615 262.497 165.356 262.497 159.633C262.497 153.832 265.745 147.722 270.154 143.778C270.154 143.778 279.976 149.269 291.345 149.269C302.637 149.269 309.443 140.993 309.443 140.993C314.625 135.812 320.193 136.585 320.812 136.044C321.199 135.038 318.26 132.176 314.161 132.176ZM152.981 83.0647C151.125 84.9209 151.357 87.2411 149.733 88.8653C149.037 89.5614 148.109 90.0254 146.871 90.0254C144.474 90.0254 142.85 88.0145 142.85 86.0036C142.85 83.9154 145.247 82.0592 151.744 82.0592C152.517 82.0592 153.445 82.0592 154.296 82.1366C153.832 82.2913 153.368 82.6006 152.981 83.0647Z" fill="#FFE505"/>
<path d="M361.262 22.8931C358.477 21.965 291.732 0 188.326 0C84.9209 0 18.1752 21.965 15.3909 22.8931L0 28.0749V377.117C0 393.59 4.94985 408.595 14.7722 421.665C22.7384 432.338 33.6435 441.465 48.1063 449.585C71.9275 462.966 101.008 471.086 126.608 478.202L126.763 478.279C136.74 481.063 146.098 483.616 154.064 486.245C154.141 486.245 160.793 488.566 166.207 492.123C168.063 493.361 170.46 495.294 172.858 497.537L188.249 512L203.64 497.537C206.037 495.294 208.435 493.361 210.214 492.123C215.241 488.798 221.66 486.477 222.356 486.245C230.4 483.616 239.758 480.986 249.658 478.279L249.813 478.202C275.49 471.086 304.57 462.966 328.314 449.585C342.777 441.465 353.682 432.338 361.648 421.665C371.471 408.517 376.421 393.513 376.421 377.117V28.0749L361.262 22.8931ZM365.361 377.117C365.361 391.115 361.107 403.799 352.831 414.937C345.793 424.295 336.048 432.493 322.978 439.84C300.317 452.524 271.932 460.413 246.874 467.374H246.719C236.665 470.158 227.074 472.788 218.799 475.572C218.721 475.572 210.755 478.356 204.104 482.688C201.706 484.312 198.922 486.555 195.983 489.262L188.249 496.454L180.592 489.262C177.653 486.555 174.869 484.234 172.471 482.688C165.743 478.279 157.776 475.572 157.699 475.572C149.424 472.865 139.911 470.158 129.779 467.374H129.624C104.566 460.413 76.1813 452.524 53.5976 439.84C40.5269 432.493 30.7819 424.372 23.7438 414.937C15.3909 403.799 11.2145 391.115 11.2145 377.117V36.1958L18.8713 33.6435C21.5782 32.7154 86.6224 11.2918 188.249 11.2918C289.876 11.2918 354.92 32.7154 357.627 33.6435L365.283 36.1958V377.117H365.361Z" fill="#480024"/>
</g>
<defs>
<clipPath id="clip0_3_69">
<rect width="376.421" height="512" fill="white"/>
</clipPath>
</defs>
</svg>
