<svg width="498" height="508" viewBox="0 0 498 508" fill="none" xmlns="http://www.w3.org/2000/svg">
<path d="M498.701 322.207C498.605 321.918 498.412 321.726 498.123 321.726L467.128 309.79C467.706 307.576 468.861 304.592 470.978 301.512L486.957 308.538C487.535 308.827 488.016 308.923 488.594 308.923C490.038 308.923 491.385 308.153 492.155 306.902C492.54 306.228 493.792 304.207 494.851 301.608C496.391 297.469 496.776 293.715 495.813 290.634C494.851 287.361 492.54 284.859 489.075 283.319L446.432 263.778C446.432 263.778 446.24 263.682 446.144 263.586C444.507 262.912 441.427 262.045 437.673 263.297C437.673 261.949 437.673 260.602 437.673 259.254C437.673 255.981 437.577 252.516 437.384 249.051C437.192 245.489 436.903 241.831 436.518 238.077C434.015 216.515 429.01 200.632 426.988 194.857L426.218 192.932C417.844 169.637 411.298 151.155 411.491 129.112C411.587 112.459 432.379 89.1648 440.368 81.5604L447.876 74.4373L369.04 2.53198L362.784 6.67108C348.345 16.2007 329.671 21.3987 310.13 21.3987C289.723 21.3987 270.279 15.7195 255.648 5.41977L250.161 1.5694L244.674 5.41977C229.947 15.7195 210.599 21.3987 190.192 21.3987C170.651 21.3987 151.977 16.2007 137.538 6.67108L131.281 2.53198L60.05 67.5066L52.4456 74.4373L59.8575 81.5604C67.847 89.1648 88.6389 112.459 88.8314 129.112C88.9277 151.155 82.382 169.637 74.0075 192.932L73.3337 194.857C71.3123 200.632 66.2106 216.515 63.8041 238.077C63.4191 241.831 63.1303 245.489 62.9378 249.051C62.7453 252.516 62.5528 255.981 62.5528 259.254C62.5528 260.602 62.5528 261.949 62.649 263.297C58.8949 262.045 55.8147 262.912 54.2745 263.586C54.1783 263.682 53.9858 263.778 53.8895 263.778L11.2469 283.319C7.78157 284.859 5.47139 287.361 4.5088 290.634C3.54622 293.715 3.93123 297.469 5.47137 301.608C6.53021 304.207 7.7816 306.228 8.2629 306.902C8.93671 308.153 10.2843 308.923 11.7282 308.923C12.3057 308.923 12.7871 308.827 13.3646 308.538L29.3435 301.512C31.4612 304.592 32.5201 307.576 33.1939 309.79L2.19858 321.726C1.9098 321.726 1.71728 321.918 1.62102 322.207C1.52476 322.496 1.52476 322.688 1.62102 322.977L3.44994 327.694C22.7979 376.016 55.7184 417.503 98.5535 447.343C138.405 475.066 185.09 491.334 233.508 494.318L249.487 510.104C249.68 510.297 249.872 510.393 250.161 510.393C250.353 510.393 250.642 510.297 250.835 510.104L266.814 494.318C315.232 491.334 361.917 475.066 401.672 447.343C444.604 417.503 477.524 376.016 496.872 327.694L498.701 322.977C498.797 322.688 498.797 322.496 498.701 322.207Z" fill="white"/>
<path d="M50.6361 285.658C49.096 281.615 48.6147 277.476 49.1923 273.818C49.2885 273.626 49.2885 273.337 49.3848 273.048L49.7698 271.123L13.2878 287.872C11.1701 288.834 9.82245 290.182 9.34116 292.011C8.18605 295.861 10.5925 300.867 11.6514 302.888L12.1327 303.658L51.0212 286.524L50.6361 285.658Z" fill="#274488"/>
<path d="M449.696 285.658C451.236 281.615 451.717 277.476 451.14 273.818C451.043 273.626 451.043 273.337 450.947 273.048L450.466 271.123L487.044 287.872C489.162 288.834 490.51 290.182 490.991 292.011C492.146 295.861 489.739 300.867 488.681 302.888L488.199 303.658L449.311 286.524L449.696 285.658Z" fill="#274488"/>
<path d="M124.187 423.712L118.508 428.236L123.417 431.413L125.342 424.482C125.535 423.616 125.727 422.942 125.92 422.364C125.342 422.749 124.765 423.231 124.187 423.712Z" fill="#274488"/>
<path d="M322.24 445.303C319.352 446.265 318.197 449.538 319.929 454.447C321.662 459.741 324.261 461.378 327.437 460.319C330.422 459.356 331.577 456.372 329.748 451.174C328.015 445.784 325.416 444.244 322.24 445.303Z" fill="#274488"/>
<path d="M344.687 436.582L343.147 437.352L346.324 444.186C346.805 444.09 347.864 443.609 348.152 443.416C350.463 442.357 351.233 440.625 350.174 438.314C349.019 435.812 347.094 435.427 344.687 436.582Z" fill="#274488"/>
<path d="M292.043 236.373C292.043 236.277 287.519 235.026 284.246 234.448C280.203 233.774 277.797 233.678 277.027 233.582C276.161 233.389 273.947 233.389 274.043 232.138C274.043 231.272 275.005 231.079 275.968 230.983C277.412 230.887 281.166 231.272 283.38 231.56C288.674 232.331 292.043 233.389 292.043 233.197V226.555C292.043 226.362 284.631 223.86 276.642 222.993C271.251 222.512 268.749 222.608 265.572 222.512C264.994 222.512 263.743 222.705 263.743 221.646C263.743 220.587 264.898 220.491 265.283 220.394C269.326 220.009 274.524 219.913 279.915 220.298C285.883 220.683 291.947 222.801 291.947 222.608V215.485C289.637 214.426 286.268 213.368 283.476 212.886C279.915 212.309 275.198 212.02 274.524 212.02C273.85 212.02 273.562 211.635 273.465 211.346C273.369 210.865 273.658 210.48 274.332 210.287C275.39 210.095 277.989 209.998 281.166 210.095C283.476 210.191 289.059 210.769 291.851 211.154L291.754 205.667C286.46 202.875 278.278 201.528 272.984 200.758C264.994 199.506 257.679 199.314 256.427 199.314C255.754 199.218 255.08 199.218 254.984 198.544C254.984 197.966 255.369 197.485 256.427 197.485C257.39 197.485 263.647 197.292 273.465 198.159C278.182 198.544 287.519 200.373 291.754 201.239L291.658 195.848C286.941 193.538 279.53 191.806 268.845 190.265C255.754 188.34 230.726 189.207 229.379 189.399C227.55 189.495 227.261 189.11 227.165 188.437C227.069 187.763 227.742 187.378 229.09 187.089C230.438 186.896 247.572 185.26 261.433 185.934C271.925 186.415 287.038 189.399 291.658 190.265L291.562 186.03C283.669 180.64 270.674 180.062 269.807 180.062C268.941 179.966 268.364 179.581 268.267 179.099C268.171 178.618 268.749 178.233 269.422 178.137C270.096 178.041 272.021 177.848 276.064 178.137C279.337 178.329 288.097 180.158 291.562 180.928L291.466 176.693C285.594 173.228 272.021 171.206 261.529 170.244C261.529 170.244 260.278 170.147 257.968 170.051L257.775 172.843C257.775 173.709 257.101 174.287 256.235 174.287C250.074 173.998 247.86 173.998 241.7 174.287C240.93 174.287 240.16 173.709 240.16 172.843L239.967 170.051C234.384 170.244 227.839 170.725 220.523 171.495C219.464 171.591 218.405 171.88 218.309 171.11C218.117 170.629 218.405 170.244 219.753 169.859C220.812 169.666 235.347 167.645 239.005 167.26C239.197 167.26 239.486 167.26 239.775 167.26L238.812 149.356C238.812 148.97 239.005 148.585 239.197 148.2C239.486 147.912 239.871 147.719 240.256 147.719C247.764 147.43 250.363 147.43 257.679 147.719C258.064 147.719 258.449 147.912 258.738 148.2C258.93 148.489 259.123 148.874 259.123 149.163C262.492 149.259 265.861 149.452 268.556 149.644C274.235 149.933 287.615 151.858 291.177 152.34V148.2C290.503 147.719 289.54 147.43 288.77 147.045C285.016 145.601 270.481 143.099 249.786 143.099C228.994 143.099 216.576 145.794 214.651 146.275C212.534 146.853 210.223 147.623 210.32 148.97L210.608 195.848C210.32 199.025 210.705 211.635 210.801 214.619C210.897 219.528 218.598 222.608 235.443 228.48C253.058 234.929 275.294 241.86 292.043 246.481V236.373Z" fill="#274488"/>
<path d="M277.268 246.095C273.899 245.133 272.166 244.555 268.797 243.496C268.412 243.4 268.123 243.593 268.123 243.978C268.123 249.946 268.123 252.93 268.123 258.609C268.123 258.994 268.412 259.283 268.701 259.475C272.07 260.63 273.802 261.208 277.268 262.363C277.556 262.556 277.845 262.267 277.845 261.978C277.845 256.299 277.845 253.122 277.845 246.962C277.845 246.577 277.556 246.192 277.268 246.095Z" fill="#274488"/>
<path d="M263.05 241.754C259.585 240.695 257.948 240.214 254.483 239.059C254.194 238.963 253.906 239.155 253.906 239.444C253.906 245.123 253.906 248.011 253.906 253.69C253.906 253.979 254.194 254.364 254.483 254.46C257.852 255.616 259.585 256.289 263.05 257.444C263.339 257.541 263.628 257.444 263.628 257.059C263.628 251.38 263.628 248.396 263.628 242.524C263.628 242.236 263.339 241.851 263.05 241.754Z" fill="#274488"/>
<path d="M234.509 232.34C231.044 231.185 229.408 230.607 225.942 229.26C225.654 229.163 225.365 229.356 225.365 229.645V243.602C225.365 243.891 225.654 244.276 225.942 244.372C229.311 245.527 231.044 246.201 234.509 247.453C234.798 247.549 235.087 247.356 235.087 247.068C235.087 241.388 235.087 238.597 235.087 233.11C235.087 232.821 234.798 232.532 234.509 232.34Z" fill="#274488"/>
<path d="M283.39 129.199C283.101 128.717 282.908 128.14 282.523 127.37C279.154 126.119 270.683 124.001 264.619 123.423C263.464 123.327 261.731 123.231 261.731 122.364C261.731 121.594 262.405 121.306 264.33 121.306C269.24 121.402 277.133 122.653 280.598 123.327C279.636 121.209 278.48 118.707 277.229 116.011C270.683 113.509 258.266 112.739 256.052 112.546C253.646 112.257 252.876 111.968 253.068 111.198C253.164 110.428 254.705 110.525 258.459 110.428C262.79 110.332 272.32 111.102 275.015 111.391C274.149 109.466 273.186 107.444 272.224 105.23C268.566 102.728 261.635 102.246 259.71 102.15C257.881 102.054 257.207 101.38 257.304 100.802C257.4 100.129 258.362 99.9361 259.132 99.8399C259.806 99.8399 267.796 99.7436 268.47 99.6474C268.951 99.6474 269.432 99.3586 269.047 98.6848C268.277 96.9521 267.796 95.8933 266.929 94.1606C265.678 93.5831 264.042 93.1018 262.694 92.9092C261.539 92.7167 257.785 92.5242 255.86 92.3317C254.801 92.0429 254.608 91.8504 254.608 91.4654C254.608 90.9841 254.897 90.6953 255.86 90.599C258.266 90.4065 262.694 90.599 263.657 90.5028C264.33 90.5028 265.1 90.214 264.812 89.6365C264.33 88.4813 263.849 87.5188 263.368 86.4599C262.309 85.9786 260.673 85.6898 259.325 85.4011C257.592 85.016 254.319 84.7273 251.624 84.631C250.95 84.631 250.373 84.246 250.373 83.8609C250.373 83.4759 250.662 83.0909 251.432 82.9946C253.261 82.7058 257.111 82.7058 258.651 82.6096C259.903 82.5133 261.443 82.3208 260.961 81.2619C260.095 79.5293 259.614 78.2779 258.747 76.6415C257.592 76.6415 255.571 76.5453 254.127 76.3528C253.549 76.2565 252.779 76.1602 252.779 75.6789C252.683 75.1977 253.453 74.9089 254.127 74.6201C254.608 74.4276 256.245 73.9463 257.4 73.6575C256.822 72.5987 256.437 71.6361 255.956 70.5772C254.319 70.481 251.335 70.2885 249.025 70.2885C248.063 70.2885 247.581 69.8072 247.581 69.4221C247.581 69.0371 247.774 68.7483 248.833 68.5558C250.565 68.0745 253.261 67.882 254.608 67.7857C253.068 64.5129 251.624 61.3364 250.277 58.4486C239.688 81.0694 220.244 122.749 217.067 129.391C228.041 126.792 242.865 125.83 249.795 125.83C256.726 125.83 272.32 126.889 283.39 129.199Z" fill="#274488"/>
<path d="M220.215 227.219C216.846 225.968 215.113 225.39 211.648 224.043C211.359 223.946 211.07 224.043 211.07 224.428V238.578C211.07 238.963 211.359 239.348 211.648 239.348C215.113 240.599 216.846 241.177 220.215 242.428C220.6 242.428 220.792 242.332 220.792 241.947V227.989C220.792 227.7 220.6 227.412 220.215 227.219Z" fill="#274488"/>
<path d="M248.794 237.201C245.329 236.142 243.693 235.468 240.227 234.313C239.938 234.217 239.65 234.409 239.65 234.698V248.656C239.65 248.945 239.938 249.33 240.227 249.426C243.596 250.677 245.329 251.255 248.794 252.41C249.083 252.602 249.372 252.41 249.372 252.121C249.372 246.442 249.372 243.554 249.372 237.971C249.372 237.682 249.083 237.297 248.794 237.201Z" fill="#274488"/>
<path d="M221.149 308.221C221.149 304.563 218.454 301.868 214.892 301.868C209.887 301.868 207.769 305.622 207.384 312.071L216.432 311.782C219.801 311.782 221.149 310.723 221.149 308.221Z" fill="#274488"/>
<path d="M313.403 301.685C306.857 301.685 304.355 307.653 304.355 316.99C304.355 328.06 307.628 333.931 313.692 333.931C319.756 333.931 323.029 328.733 323.029 318.626C323.029 307.653 319.564 301.685 313.403 301.685Z" fill="#274488"/>
<path d="M272.021 158.558C272.791 158.461 276.257 158.461 280.781 159.039C284.15 159.52 289.059 160.579 291.273 161.06V157.21C286.653 155.285 276.064 153.36 270.385 152.686C266.92 152.204 262.877 151.819 258.93 151.531L258.16 166.643C260.182 166.74 261.529 166.74 261.529 166.74C264.128 166.932 266.727 167.028 269.326 167.317C279.337 168.28 287.712 170.205 291.369 170.975V165.584C285.69 160.868 272.599 160.483 271.829 160.483C271.059 160.483 270.289 160.29 270.289 159.52C270.289 158.75 271.251 158.654 272.021 158.558Z" fill="#274488"/>
<path d="M210.522 142.877C212.254 142.492 225.538 137.679 249.795 137.679C273.956 137.679 288.395 142.974 290.128 143.744C292.053 144.61 293.785 145.188 294.652 143.744C295.422 142.3 294.459 140.471 293.112 139.605C287.817 136.235 269.239 132 249.795 132.289C230.255 132.385 210.714 136.717 208.019 137.872C205.227 138.931 204.072 140.567 204.939 142.107C206.383 144.706 208.789 143.359 210.522 142.877Z" fill="#274488"/>
<path d="M291.466 250.312C288.097 249.253 286.364 248.771 282.995 247.809C282.61 247.713 282.417 247.905 282.417 248.29C282.321 254.643 282.321 257.82 282.321 263.499C282.321 263.884 282.61 264.173 282.899 264.365C286.364 265.52 288.097 266.098 291.466 267.349C291.754 267.446 292.043 267.253 292.043 266.964V251.178C292.043 250.793 291.754 250.408 291.466 250.312Z" fill="#274488"/>
<path d="M244.819 171.187C249.247 171.091 254.83 171.187 254.83 171.187L255.888 151.646C251.268 151.358 243.664 151.743 243.664 151.743L244.819 171.187Z" fill="#274488"/>
<path d="M355.17 435.667C357.576 440.769 354.881 445.1 349.972 447.314C349.587 447.507 348.528 447.988 348.143 448.085L351.223 454.63C351.512 455.208 351.416 455.593 350.646 455.978L347.469 457.422C346.891 457.71 346.41 457.614 346.121 456.94L336.592 436.726C336.207 435.956 336.399 435.667 337.073 435.282L342.175 432.972C345.833 431.239 348.72 430.758 351.223 431.721C352.956 432.491 354.4 433.934 355.17 435.667ZM443.439 342.97C443.15 342.392 443.054 341.911 443.439 341.237L444.787 339.12C445.075 338.542 445.46 338.446 446.038 338.831L465.867 349.708C466.541 350.093 466.637 350.574 466.252 351.056L464.327 354.04C463.942 354.81 463.364 354.81 462.594 354.329L452.006 348.264L459.995 359.527C460.477 360.104 460.284 360.585 459.995 360.97L459.322 362.029C459.033 362.607 458.648 362.896 457.878 362.799L443.824 361.259L443.728 361.355L454.22 368.094C455.086 368.575 454.99 369.056 454.509 369.634L452.969 372.136C452.583 372.81 452.102 373.003 451.428 372.521L432.947 360.008C432.273 359.43 432.273 359.045 432.562 358.468L433.909 356.35C434.391 355.58 434.776 355.484 435.546 355.58L453.257 357.409L453.354 357.313L443.439 342.97ZM434.487 377.431L424.957 369.73C424.476 369.249 424.572 368.767 424.957 368.286L427.171 365.591C427.652 365.11 428.037 364.917 428.615 365.398L438.337 373.388C444.401 378.489 444.594 383.88 440.166 388.982C435.546 394.565 430.348 394.565 424.572 389.848L414.85 381.859C414.273 381.377 414.465 380.8 414.85 380.318L417.064 377.719C417.545 377.142 417.834 377.046 418.412 377.527L427.845 385.228C432.177 388.789 434.583 388.308 436.701 385.805C438.722 383.399 438.722 380.896 434.487 377.431ZM406.764 389.944C406.572 389.367 406.668 388.789 407.246 388.212L408.978 386.575C409.556 386.094 409.941 386.19 410.326 386.575L426.594 402.265C426.594 402.362 426.69 402.362 426.69 402.362C427.075 402.843 427.075 403.324 426.594 403.709L423.995 406.116C423.321 406.79 422.84 406.597 422.166 405.827L413.599 397.26L418.315 410.255C418.604 410.929 418.315 411.314 418.027 411.602L417.064 412.469C416.486 412.95 416.198 413.143 415.428 412.854L402.24 407.656L402.144 407.752L410.518 416.993C411.192 417.763 410.903 418.052 410.326 418.629L408.208 420.555C407.631 421.132 407.149 421.228 406.668 420.651L406.572 420.555L392.133 403.613C391.555 402.939 391.652 402.554 392.133 402.073L394.058 400.34C394.636 399.763 395.117 399.763 395.791 400.051L412.347 406.501L412.444 406.405L406.764 389.944ZM396.272 424.982L397.716 424.02C398.197 423.635 398.679 423.827 398.967 424.212L400.026 425.752C400.315 426.041 400.315 426.523 399.93 426.811L392.614 432.202C392.133 432.491 391.652 432.394 391.363 432.106L390.304 430.565C389.919 430.084 390.015 429.603 390.4 429.314L391.748 428.351L381.448 414.49L379.908 415.645C379.427 415.934 378.946 415.742 378.657 415.357L377.598 413.913C377.309 413.528 377.309 413.046 377.694 412.758L385.395 407.175C385.78 406.886 386.261 406.886 386.55 407.271L387.705 408.811C387.994 409.292 387.994 409.677 387.513 410.062L385.972 411.121L396.272 424.982ZM378.176 440.48C378.657 441.25 378.561 441.346 377.983 441.731L374.518 443.753C373.94 444.138 373.844 444.042 373.363 443.464L363.544 427.1L357.961 430.373C357.384 430.758 356.902 430.662 356.614 429.988L355.266 427.774C354.881 427.196 355.073 426.811 355.651 426.523L370.475 417.763L372.015 416.8C372.592 416.512 372.881 416.608 373.17 416.993L374.421 419.688C374.71 420.266 374.421 420.651 373.748 421.036L368.357 424.212L378.176 440.48ZM320.805 440.769C327.928 438.459 333.223 442.405 335.437 449.143C338.036 456.652 335.148 462.812 328.795 464.93C322.057 467.144 316.666 463.678 314.26 456.459C311.757 449.336 314.163 442.983 320.805 440.769ZM294.43 469.55L296.163 469.261C296.741 469.261 297.126 469.55 297.222 470.031L297.511 471.86C297.607 472.342 297.318 472.727 296.837 472.823L287.885 474.363C287.404 474.459 286.922 474.171 286.922 473.786L286.537 471.86C286.441 471.283 286.73 470.898 287.211 470.802L288.847 470.513L285.96 453.571L284.035 453.86C283.457 453.956 283.168 453.571 283.072 453.09L282.687 451.261C282.687 450.876 282.879 450.491 283.361 450.395L292.794 448.758C293.275 448.662 293.66 449.047 293.757 449.336L294.045 451.261C294.142 451.839 293.853 452.224 293.372 452.32L291.446 452.609L294.43 469.55ZM265.745 458.769C265.938 459.924 267.382 460.406 268.248 460.791L272.483 462.331C275.371 463.293 277.296 465.026 277.585 468.299C277.97 473.304 274.12 476.577 269.307 476.962C266.997 477.155 264.205 476.866 261.799 476.288C261.221 476.192 261.029 475.903 261.029 475.614C261.029 475.422 261.029 475.229 261.125 475.037L261.895 472.053C261.895 471.764 262.088 471.379 262.569 471.379C262.665 471.379 262.954 471.379 263.146 471.475C264.975 472.053 266.997 472.245 268.729 472.149C270.27 472.053 272.002 471.09 271.906 469.358C271.81 468.01 270.655 467.529 269.499 467.047L264.687 465.219C261.895 464.256 260.066 462.235 259.777 459.251C259.392 454.823 263.724 451.839 267.863 451.55C270.462 451.357 272.676 451.646 274.986 452.416C275.564 452.609 275.756 452.801 275.853 453.186C275.853 453.282 275.756 453.475 275.756 453.764L274.794 456.555C274.697 457.037 274.505 457.133 274.216 457.229C274.024 457.229 273.831 457.133 273.542 457.133C272.002 456.652 270.077 456.17 268.633 456.363C267.189 456.459 265.649 457.133 265.745 458.769ZM49.6446 347.879L37.901 355.099C37.2272 355.484 36.8422 355.291 36.4571 354.714L34.7245 351.922C34.2432 351.248 34.2432 350.863 34.917 350.382L54.0725 338.735C54.9388 338.253 55.2276 338.542 55.7089 339.12L57.249 341.622C57.5378 342.296 57.6341 342.681 57.3453 343.259L50.7997 359.623L62.6395 352.403C63.3133 352.018 63.7946 352.211 64.0834 352.788L65.9123 355.772C66.3936 356.542 66.0086 356.831 65.5273 357.12L46.3718 368.767C45.6017 369.249 45.313 369.056 44.9279 368.479L43.3878 365.88C43.0027 365.398 43.0028 364.821 43.1953 364.243L49.6446 347.975V347.879ZM60.0405 382.532C60.3293 383.014 60.1368 383.495 59.7518 383.784L58.3079 384.939C58.0191 385.131 57.4416 385.131 57.1528 384.843L51.666 377.623C51.281 377.142 51.4735 376.661 51.666 376.468L53.2062 375.313C53.6875 374.928 54.1687 375.024 54.4575 375.409L55.5164 376.757L69.2814 366.168L68.1263 364.724C67.7412 364.243 67.9337 363.762 68.3188 363.473L69.8589 362.414C70.1477 362.126 70.629 362.126 70.9178 362.511L76.6933 370.019C77.0783 370.404 76.9821 370.885 76.6933 371.174L75.1532 372.233C74.6719 372.714 74.1906 372.521 73.9018 372.136L72.6504 370.693L58.8854 381.088L60.0405 382.532ZM77.5596 400.629C78.0409 401.11 77.9446 401.592 77.4634 402.073L75.5382 403.902C74.9606 404.383 74.4793 404.287 73.998 403.806L64.8535 393.987C64.3722 393.41 64.2759 393.025 64.9497 392.447L81.5062 377.238C81.9875 376.853 82.4688 376.853 82.9501 377.334L85.3566 379.933C85.8379 380.511 85.9341 380.896 85.3566 381.377L71.4953 394.083L77.5596 400.629ZM101.913 416.03L99.6029 411.314C98.2552 408.715 98.3515 406.019 100.18 403.709C103.068 400.148 108.17 401.014 111.443 403.613C113.368 405.249 114.812 406.982 115.967 409.1C116.256 409.677 116.256 409.966 116.063 410.159C115.967 410.351 115.774 410.447 115.582 410.544L112.983 411.988C112.598 412.18 112.309 412.18 112.02 411.988C111.924 411.891 111.828 411.699 111.635 411.506C110.961 410.062 109.806 408.522 108.651 407.656C107.592 406.693 105.956 406.116 104.897 407.367C104.223 408.33 104.897 409.677 105.282 410.64L107.304 414.586C108.651 417.282 108.844 419.881 106.822 422.383C103.646 426.33 98.6403 426.041 94.7899 423.057C93.0573 421.613 91.1321 419.496 89.8807 417.474C89.4957 416.897 89.4957 416.608 89.7845 416.415C89.8807 416.223 90.0732 416.127 90.2658 416.03L92.7685 414.394C93.1535 414.201 93.4423 414.009 93.8273 414.298C93.9236 414.49 94.0199 414.586 94.1161 414.779C95.0787 416.415 96.4263 417.956 97.7739 419.111C98.929 420.073 100.854 420.651 102.009 419.303C102.779 418.244 102.394 417.089 101.913 416.03ZM121.261 435.09L116.063 431.721L115.004 431.047L111.539 433.838C111.154 434.127 110.673 434.32 110.095 433.934L106.726 431.721C106.437 431.528 106.437 431.239 106.533 430.95C106.63 430.854 106.726 430.758 106.822 430.662L126.363 416.319C126.844 416.03 127.325 415.934 127.807 416.223L130.887 418.244C131.561 418.629 131.657 419.111 131.561 419.592L126.459 442.983C126.363 443.272 126.363 443.368 126.267 443.464C125.978 443.849 125.689 444.042 125.208 443.753L121.935 441.539C121.165 441.058 121.165 440.576 121.261 439.999L122.32 435.86L121.261 435.09ZM137.336 427.678C136.759 427.293 136.662 426.908 136.951 426.33L138.203 423.924C138.491 423.442 138.876 423.25 139.454 423.635L154.759 431.528L156.395 432.394C156.973 432.683 157.069 433.068 156.781 433.453L155.24 435.956C154.759 436.533 154.278 436.437 153.7 436.052L148.117 433.261L139.261 450.01C138.876 450.683 138.78 450.78 138.106 450.491L134.545 448.566C133.871 448.277 133.871 448.181 134.256 447.507L143.112 430.662L137.336 427.678ZM163.711 457.903C164.192 458.095 164.289 458.577 164.192 459.058L163.422 460.791C163.326 461.176 162.845 461.464 162.364 461.176L153.989 457.903C153.508 457.614 153.315 457.133 153.411 456.844L154.182 455.015C154.374 454.438 154.759 454.341 155.337 454.534L156.781 455.111L163.326 439.132L161.593 438.459C161.016 438.17 160.92 437.689 161.112 437.304L161.882 435.571C161.978 435.186 162.364 434.897 162.845 435.09L171.701 438.651C172.182 438.844 172.374 439.229 172.278 439.71L171.508 441.443C171.219 442.02 170.834 442.116 170.353 441.924L168.524 441.25L162.075 457.229L163.711 457.903ZM183.637 451.742L187.102 454.63C189.412 456.652 190.567 459.058 189.605 462.138C188.161 466.951 183.348 468.588 178.727 467.24C176.514 466.566 174.011 465.315 171.989 463.871C171.508 463.582 171.412 463.293 171.508 463.005C171.508 462.812 171.701 462.62 171.797 462.427L173.53 460.021C173.722 459.636 174.011 459.443 174.492 459.539C174.588 459.636 174.781 459.636 174.973 459.924C176.514 460.983 178.246 461.946 179.979 462.523C181.423 462.908 183.444 462.716 183.925 461.079C184.311 459.732 183.54 458.865 182.578 458.095L178.631 454.63C176.514 452.705 175.455 450.106 176.321 447.314C177.669 442.983 182.77 441.828 186.717 443.079C189.123 443.753 191.145 444.812 192.974 446.352C193.455 446.833 193.551 447.122 193.455 447.411C193.455 447.507 193.359 447.699 193.166 447.796L191.337 450.106C191.049 450.587 190.856 450.683 190.471 450.587C190.375 450.491 190.182 450.395 189.894 450.202C188.738 449.24 187.006 448.181 185.658 447.796C184.311 447.314 182.578 447.411 182.097 449.047C181.808 450.106 182.963 451.165 183.637 451.742ZM233.691 453.571L230.9 475.614C230.803 476.481 230.322 476.673 229.745 476.577L226.761 476.192C226.087 476.096 225.605 475.807 225.317 475.229L216.557 460.117L214.728 473.689C214.632 474.459 214.247 474.652 213.573 474.556L210.3 474.171C209.53 474.074 209.145 473.882 209.338 473.016L212.033 450.876C212.129 450.01 212.611 449.817 213.381 450.01L216.268 450.298C217.038 450.395 217.327 450.683 217.616 451.261L226.376 466.47L228.204 452.801C228.301 452.031 228.686 451.839 229.36 451.935L232.825 452.32C233.691 452.416 233.691 452.994 233.691 453.571ZM494.937 326.895C475.782 374.928 443.15 416.03 400.604 445.678C360.945 473.304 314.548 489.476 266.323 492.364C266.034 492.364 265.842 492.46 265.649 492.652L250.151 508.054L234.654 492.652C234.461 492.46 234.269 492.364 233.98 492.364C185.851 489.476 139.358 473.304 99.6991 445.678C57.249 416.03 24.5211 374.928 5.36559 326.895L3.82545 323.141L62.5433 300.616C64.0834 299.942 65.7198 300.52 66.5861 301.868L66.6824 301.964C67.0674 302.541 67.8375 303.696 68.9926 304.755C69.4739 306.295 69.9552 307.836 70.5327 309.279C67.4525 308.124 65.2385 305.237 64.3722 303.985L64.1797 303.6C64.0834 303.504 63.8909 303.408 63.6984 303.408C63.6984 303.408 63.6021 303.408 63.5059 303.408L59.3667 305.044L57.5378 305.814L57.8266 306.584C58.0191 306.969 58.1154 307.354 58.2116 307.547C59.9443 311.878 61.8695 316.018 63.7946 320.157C64.1797 320.734 64.4684 321.408 64.7572 321.986L66.5861 321.312L74.2868 318.52C74.7681 319.483 75.2494 320.349 75.6344 321.216L68.03 324.007L66.1048 324.681C66.3936 325.258 66.6824 325.836 67.0674 326.414C82.5651 355.676 104.705 380.8 132.138 400.051C163.326 421.71 199.423 434.127 237.349 436.533L240.622 439.71C200.867 437.977 162.845 425.175 130.406 402.458C96.4263 378.778 70.3402 346.05 55.0351 307.739L54.6501 306.873L7.86832 324.873L8.25335 325.74C27.2163 373.292 59.463 413.913 101.528 443.272C141.09 470.802 187.487 486.781 235.713 489.379L249.478 503.048L250.151 503.722L264.59 489.379C312.816 486.781 359.213 470.802 398.775 443.272C440.84 413.913 473.183 373.292 492.146 325.74L492.435 324.873L445.653 306.873L445.364 307.739C429.963 346.05 403.877 378.778 369.897 402.458C337.362 425.175 299.436 437.977 259.681 439.71L262.954 436.533C300.88 434.127 336.977 421.71 368.165 400.051C395.598 380.8 417.834 355.676 433.236 326.414C433.621 325.836 433.909 325.258 434.198 324.681L432.273 324.007L424.668 321.216C425.053 320.349 425.535 319.483 425.92 318.52L433.717 321.312L435.546 321.986C435.834 321.408 436.22 320.734 436.508 320.157C438.433 316.018 440.359 311.878 442.091 307.547C442.188 307.354 442.38 306.969 442.476 306.584L442.861 305.814L440.936 305.044L436.797 303.408C436.701 303.408 436.701 303.408 436.508 303.408C436.412 303.408 436.219 303.504 436.123 303.6L435.931 303.985C435.064 305.237 432.85 308.124 429.77 309.376C430.251 307.836 430.829 306.295 431.31 304.755C432.369 303.793 433.235 302.541 433.621 301.964L433.717 301.868C434.583 300.52 436.22 299.942 437.76 300.616L496.477 323.141L494.937 326.895ZM30.4891 299.75L30.0078 298.98L12.585 306.777C11.5262 307.162 10.4673 306.777 9.98602 305.814C9.60098 305.333 8.34963 303.408 7.38704 300.905C6.42445 298.306 5.46187 294.552 6.42445 291.183C7.19452 288.488 9.11968 286.37 12.0074 285.119L54.7463 265.578C54.8426 265.578 54.9388 265.482 55.0351 265.482C55.8051 265.097 57.249 264.615 58.8854 264.615C60.0405 264.615 61.2919 264.904 62.6395 265.386C62.7358 266.637 62.7358 267.696 62.832 268.851C61.4844 268.081 60.1368 267.599 58.7892 267.599C57.9228 267.599 57.0565 267.792 56.2864 268.177L55.9977 268.273C54.0725 269.236 52.7249 271.45 52.1473 274.434C51.5698 277.803 52.1473 281.749 53.88 285.6L54.1687 286.37C54.5538 287.332 54.0725 288.391 53.1099 288.873L32.7993 297.825L33.4731 298.787C35.8796 302.156 37.131 305.429 37.901 307.932L35.0133 309.087C34.3395 306.584 32.9919 303.119 30.4891 299.75ZM235.231 434.416C198.461 431.721 163.519 419.399 133.293 398.319C106.245 379.452 84.2977 354.617 68.8963 325.74L76.597 323.044C76.7895 323.526 77.0783 323.911 77.2708 324.392C79.0035 327.472 80.8324 330.553 82.8538 333.44C83.0464 333.729 83.3351 334.114 83.7202 334.596L83.8164 334.884C118.181 386.286 168.62 418.341 226.087 425.175L235.231 434.416ZM251.307 473.689C251.884 473.689 252.173 474.074 252.173 474.556V476.481C252.173 476.866 251.884 477.251 251.403 477.251L242.258 477.155C241.681 477.155 241.392 476.77 241.392 476.385V474.459C241.392 473.786 241.777 473.593 242.258 473.593H243.991L244.183 456.363L242.354 456.266C241.777 456.266 241.488 455.881 241.488 455.4V453.571C241.488 453.09 241.777 452.705 242.258 452.705L251.788 452.897C252.365 452.897 252.654 453.282 252.654 453.668V455.593C252.654 456.17 252.269 456.459 251.788 456.459H249.863L249.574 473.689H251.307ZM423.706 323.044L431.407 325.74C416.101 354.617 394.154 379.452 367.009 398.319C336.784 419.399 301.842 431.721 265.072 434.416L274.216 425.175C331.683 418.341 382.122 386.286 416.39 334.884L416.583 334.596C416.871 334.114 417.16 333.729 417.449 333.344C419.374 330.553 421.299 327.472 422.936 324.392C423.225 323.911 423.513 323.526 423.706 323.044ZM65.9123 249.214C66.1048 245.652 66.3936 242.091 66.8749 238.433C69.1851 217.064 74.1906 201.566 76.212 195.887L76.8858 193.962C85.3566 170.378 91.9984 151.704 91.8059 129.083C91.7096 111.468 70.244 87.2107 61.9657 79.3175L56.864 74.5045L62.062 69.7878L131.561 6.35339L135.796 9.14487C150.812 18.9633 170.064 24.45 190.182 24.45C211.167 24.45 231.188 18.482 246.397 7.89355L250.151 5.29453L253.906 7.89355C269.114 18.482 289.04 24.45 310.121 24.45C330.142 24.45 349.49 18.9633 364.411 9.14487L368.646 6.35339L443.439 74.5045L438.337 79.4137C430.059 87.2107 408.593 111.468 408.497 129.083C408.305 151.704 414.946 170.378 423.417 193.962L424.091 195.887C426.112 201.566 431.118 217.064 433.428 238.433C433.813 242.091 434.198 245.652 434.391 249.214C434.487 252.583 434.679 256.048 434.679 259.321C434.776 283.963 429.963 305.429 420.337 322.948C418.7 325.932 416.872 328.916 414.946 331.611C414.754 331.997 414.465 332.382 414.08 332.959L413.887 333.152C380.004 383.976 330.142 415.645 273.35 422.287H272.868L250.151 445.004L227.434 422.287H226.953C170.16 415.645 120.202 383.976 86.3192 333.152L86.2229 332.959C85.8379 332.382 85.5491 331.997 85.3566 331.708C83.4314 328.916 81.6025 325.932 79.9661 322.948C70.3402 305.429 65.5273 283.963 65.6236 259.321C65.6236 256.048 65.7198 252.583 65.9123 249.214ZM437.567 265.482C439.011 264.904 440.359 264.615 441.417 264.615C443.054 264.615 444.401 265.097 445.268 265.482C445.364 265.482 445.46 265.578 445.557 265.578L488.295 285.119C491.183 286.37 493.108 288.488 493.878 291.183C494.937 294.552 493.878 298.306 492.916 300.905C491.953 303.408 490.702 305.333 490.317 305.814C489.836 306.777 488.68 307.162 487.814 306.777L470.295 298.98L469.814 299.75C467.311 303.119 465.963 306.584 465.29 309.087L462.498 307.932C463.172 305.429 464.423 302.156 466.83 298.787L467.504 297.825L447.193 288.873C446.23 288.391 445.749 287.332 446.134 286.37L446.423 285.6C448.156 281.749 448.733 277.803 448.156 274.434C447.674 271.45 446.23 269.236 444.305 268.273L444.113 268.177C443.246 267.792 442.38 267.599 441.514 267.599C440.166 267.599 438.818 268.081 437.471 268.947C437.567 267.696 437.567 266.637 437.567 265.482ZM498.691 322.178C498.595 321.986 498.403 321.793 498.21 321.697L467.215 309.761C467.792 307.643 468.851 304.563 470.969 301.483L486.948 308.606C487.525 308.798 488.007 308.894 488.584 308.894C490.028 308.894 491.376 308.124 492.146 306.873C492.531 306.199 493.782 304.274 494.841 301.579C496.381 297.44 496.766 293.782 495.804 290.605C494.841 287.333 492.531 284.83 489.066 283.29L446.423 263.845C446.423 263.749 446.327 263.653 446.134 263.653C444.498 262.883 441.417 262.016 437.663 263.268V259.321C437.663 255.952 437.567 252.487 437.375 249.022C437.182 245.46 436.893 241.802 436.508 238.144C434.006 216.486 429 200.7 426.882 194.924L426.209 192.999C417.93 169.608 411.288 151.126 411.481 129.179C411.577 112.527 432.369 89.1359 440.359 81.5314L447.867 74.4083L369.031 2.5993L362.774 6.64218C348.335 16.1718 329.661 21.3698 310.121 21.3698C289.714 21.3698 270.27 15.6905 255.638 5.39081L250.151 1.54044L244.665 5.39081C229.937 15.6905 210.589 21.3698 190.182 21.3698C170.642 21.3698 151.968 16.1718 137.529 6.64218L131.272 2.5993L60.0405 67.4776L52.4361 74.4083L59.848 81.5314C67.8375 89.1359 88.6294 112.527 88.8219 129.179C88.9181 151.126 82.3726 169.608 73.998 192.999L73.3242 194.924C71.3028 200.7 66.2011 216.486 63.7946 238.144C63.4096 241.802 63.1208 245.46 62.9283 249.022C62.7358 252.487 62.5433 255.952 62.5433 259.321C62.5433 260.669 62.5433 261.92 62.6395 263.268C58.8854 262.016 55.8052 262.883 54.265 263.653H54.1687C54.0725 263.653 53.9762 263.749 53.88 263.845L11.2374 283.29C7.77207 284.83 5.46187 287.333 4.49928 290.605C3.53669 293.782 3.92173 297.44 5.46187 301.579C6.52071 304.274 7.77206 306.199 8.25335 306.873C8.92716 308.124 10.2748 308.894 11.7187 308.894C12.2962 308.894 12.7775 308.798 13.3551 308.606L29.334 301.483C31.4517 304.563 32.5105 307.643 33.1844 309.761L2.18906 321.697C1.90028 321.793 1.70776 321.986 1.6115 322.178C1.51524 322.467 1.51524 322.756 1.6115 322.948L3.44042 327.665C22.7884 376.083 55.7089 417.474 98.544 447.314C138.395 475.133 185.081 491.401 233.499 494.289L249.478 510.171C249.67 510.268 249.863 510.46 250.151 510.46C250.44 510.46 250.729 510.268 250.825 510.171L266.804 494.289C315.222 491.401 361.908 475.133 401.759 447.314C444.594 417.474 477.514 376.083 496.862 327.665L498.691 322.948C498.788 322.756 498.788 322.467 498.691 322.178Z" fill="#274488"/>
<path d="M236.896 372.31C239.014 371.059 241.228 369.518 241.228 366.534C241.228 363.935 239.303 361.914 236.608 361.914C234.009 361.914 231.987 363.839 231.987 366.438C231.987 369.23 234.201 370.77 236.896 372.31Z" fill="#274488"/>
<path d="M382.016 101.794C379.513 103.334 376.915 103.912 375.086 103.527C375.663 101.505 377.396 99.2914 379.899 97.655C382.305 96.1148 385 95.5373 386.829 95.9223C386.252 98.04 384.519 100.254 382.016 101.794ZM377.107 110.842C374.701 112.479 372.102 113.056 370.176 112.575C370.754 110.554 372.487 108.34 374.989 106.8C377.492 105.163 380.091 104.586 382.016 105.067C381.342 107.088 379.61 109.302 377.107 110.842ZM372.39 118.832C369.599 119.409 366.904 118.928 365.267 117.773C366.422 116.137 368.829 114.693 371.62 114.115C374.412 113.538 377.011 114.019 378.647 115.174C377.492 116.81 375.182 118.254 372.39 118.832ZM370.176 336.954C367.577 336.954 364.978 337.05 363.535 337.05C364.305 332.719 364.593 327.713 364.593 321.841V314.815C364.593 310.194 364.208 304.707 357.567 304.707C355.256 304.707 352.946 305.67 351.117 307.403C349.096 309.424 348.518 311.157 348.518 316.162V321.841C348.518 329.253 348.999 333.681 350.155 337.05C348.903 337.05 346.304 336.954 343.802 336.954C341.106 336.954 338.604 337.05 337.256 337.05C337.93 332.719 338.219 327.713 338.219 321.841V312.023C338.219 308.076 337.833 302.205 336.486 297.969C340.047 297.969 344.957 297.969 348.422 297.681L348.133 304.611L351.406 301.82C355.353 298.547 358.529 297.103 362.572 297.103C371.813 297.103 374.989 302.397 374.989 311.446V321.841C374.989 329.253 375.471 333.681 376.626 337.05C375.278 337.05 372.679 336.954 370.176 336.954ZM312.806 338.302C300.389 338.302 293.073 331.082 293.073 318.569C293.073 306.248 300.581 297.199 314.635 297.199C327.149 297.199 334.272 304.322 334.272 316.547C334.272 329.927 325.897 338.302 312.806 338.302ZM292.207 298.643C291.918 299.798 291.052 303.071 290.57 304.419C287.49 304.13 285.661 304.034 283.544 304.034H279.982C279.886 306.729 279.789 309.905 279.789 312.216V321.264C279.789 327.328 280.463 331.852 285.758 331.852C287.394 331.852 288.742 331.467 290.859 330.409C291.244 330.216 292.014 330.216 291.726 331.371C291.244 333.104 290.763 334.74 290.282 336.762C285.469 338.013 283.447 338.302 280.945 338.302C274.014 338.302 269.586 335.414 269.586 325.596V313.371C269.586 309.52 269.586 306.633 269.49 303.937C267.372 303.937 265.062 304.226 264.003 304.419C263.811 304.419 263.233 304.419 263.522 303.552C263.522 303.264 264.581 299.606 264.966 298.354C265.928 298.451 267.853 298.547 269.779 298.547C269.779 295.37 269.586 293.734 269.49 291.327C272.281 290.461 277.383 288.151 279.597 286.803C280.463 286.226 280.848 286.996 280.752 287.862C280.656 288.825 280.078 291.424 279.982 298.547H285.565C287.49 298.547 289.608 298.451 291.629 297.969C292.014 297.873 292.399 298.066 292.207 298.643ZM276.517 391.437C271.222 391.437 267.565 388.26 267.565 383.64C267.565 379.693 269.971 377.479 274.014 375.169C271.511 373.629 269.009 371.607 269.009 367.853C269.009 363.521 272.763 360.056 277.576 360.056C282.196 360.056 285.661 363.04 285.661 367.083C285.661 370.837 283.062 372.762 280.271 374.302C283.64 376.228 286.624 378.538 286.624 382.677C286.624 387.779 282.388 391.437 276.517 391.437ZM254.666 390.378L254.57 390.57H254.377C254.377 390.57 250.912 390.57 248.89 390.763L248.409 389.993L263.233 364.677H253.896C252.452 364.677 250.623 364.869 249.083 366.024L248.89 366.12L248.217 365.735L248.313 365.543C248.794 364.195 249.179 361.885 249.372 361.019V360.826H249.564C250.623 360.826 251.778 360.826 253.03 360.826H263.714C265.062 360.826 265.736 360.826 266.987 360.826L267.276 360.73V361.019C267.276 361.404 267.565 363.329 267.661 363.714L267.757 363.81L267.661 363.907C265.351 366.506 262.655 371.318 260.249 375.554C256.399 382.581 254.955 386.431 254.666 390.378ZM248.024 337.05C246.773 337.05 244.174 336.954 241.767 336.954C239.265 336.954 236.762 337.05 235.222 337.05C235.992 332.526 236.184 328.58 236.184 322.9V313.274C236.184 309.52 235.896 302.59 234.548 298.354C237.532 298.354 242.249 298.258 245.425 298.066L245.329 307.21L248.217 303.456C251.778 298.643 254.281 297.199 258.035 297.199C259.383 297.199 260.056 297.296 261.5 297.969C260.345 302.012 259.19 306.248 258.516 308.75C258.324 309.232 257.843 310.002 257.169 309.135C255.629 307.499 255.34 306.825 253.511 306.825C251.201 306.825 249.372 308.076 248.024 310.29C246.869 312.119 246.484 313.659 246.484 317.414V323.863C246.484 330.794 246.869 333.681 248.024 337.05ZM235.607 390.859C230.313 390.859 226.655 387.586 226.655 383.062C226.655 379.115 229.157 376.901 233.104 374.495C230.601 373.051 228.099 370.933 228.099 367.276C228.099 362.848 231.853 359.479 236.762 359.479C241.382 359.479 244.751 362.463 244.751 366.506C244.751 370.26 242.152 372.185 239.361 373.725C242.73 375.554 245.714 377.864 245.714 382.003C245.714 387.105 241.479 390.859 235.607 390.859ZM222.516 390.089C222.034 389.993 221.072 389.896 220.109 389.896C219.339 389.896 218.569 389.993 217.606 390.089H217.221L217.318 389.8C217.703 387.394 217.799 384.987 217.799 382.292V368.623C217.799 364.773 217.51 364.388 216.259 364.388C215.97 364.388 215.392 364.484 214.719 364.58L212.601 365.062C211.927 365.254 211.542 365.35 211.061 365.639L210.387 365.158L210.483 364.965C210.772 364.388 211.157 363.425 211.35 362.559L211.446 362.366C212.601 362.27 213.467 362.174 214.719 361.885L219.243 360.922C220.109 360.73 221.072 360.537 221.842 360.249H221.938L222.516 360.73L222.419 360.826C222.034 363.425 221.938 366.313 221.938 367.949V382.773C221.938 385.757 222.227 388.164 222.708 389.704L222.804 390.089H222.516ZM196.429 318.087C196.429 305.766 204.226 297.296 215.489 297.296C225.307 297.296 231.371 303.071 231.371 312.504C231.371 313.274 231.371 316.74 229.927 316.74H219.917C215.777 316.74 210.002 316.836 207.403 316.932C207.595 326.366 212.601 331.756 221.072 331.756C224.441 331.756 226.462 330.986 229.254 329.157C229.927 328.676 230.698 329.061 230.313 330.312C229.542 333.104 229.35 333.778 228.676 336.088C225.115 337.339 220.494 338.494 216.355 338.494C204.13 338.494 196.429 330.216 196.429 318.087ZM184.59 328.965C183.435 331.756 182.857 333.874 182.183 337.05C181.317 336.954 179.488 336.954 177.659 336.954C176.119 336.954 174.097 337.05 172.654 337.05C172.076 333.585 171.402 331.467 170.247 327.906L165.049 312.023C163.413 307.21 161.584 302.012 158.119 297.969C163.316 298.162 167.359 297.969 172.365 297.584C172.75 301.435 173.52 305.189 174.675 308.847L177.563 318.857C178.333 321.264 179.873 326.558 179.873 326.558C180.354 324.826 181.028 323.093 181.606 321.649L186.13 309.809C186.9 307.691 187.959 304.515 188.247 301.338C188.247 300.28 188.344 299.221 188.247 297.873C189.403 297.969 191.424 297.969 193.157 297.969C194.697 297.969 197.296 297.777 198.451 297.584C199.606 297.488 199.413 298.162 199.028 298.547C196.333 302.012 194.119 306.729 192.098 311.542L184.59 328.965ZM160.91 328.868C160.332 330.794 158.696 336.858 158.504 337.435C149.648 337.05 143.776 337.05 138.578 337.05C132.032 337.05 127.797 337.05 124.235 337.05C124.813 332.911 125.294 328.098 125.294 322.13V297.392C125.294 293.349 125.102 285.744 123.754 282.183C126.353 282.375 128.278 282.375 130.203 282.375H145.027C150.322 282.375 152.439 282.183 158.215 282.183C157.156 285.937 156.097 289.884 155.616 291.424C155.231 292.964 154.364 291.809 154.268 291.616C151.862 288.055 147.049 287.67 142.621 287.67C141.177 287.67 139.541 287.766 137.519 287.766C137.423 289.114 137.23 292.868 137.23 296.333V304.322H143.776C148.589 304.322 153.402 303.937 155.327 303.649C156.097 303.649 155.905 304.226 155.905 304.226C155.327 306.44 154.557 309.232 154.076 311.061C148.974 310.579 146.279 310.483 142.717 310.483H137.134V321.649C137.134 328.868 137.904 331.275 146.567 331.275C151.38 331.275 154.076 331.275 159.37 327.328C160.236 326.558 161.391 326.943 160.91 328.868ZM121.636 115.174C123.273 114.019 125.968 113.538 128.76 114.115C131.551 114.693 133.861 116.137 135.113 117.773C133.38 118.928 130.781 119.409 127.99 118.832C125.198 118.254 122.888 116.81 121.636 115.174ZM118.364 105.067C120.289 104.586 122.888 105.163 125.294 106.8C127.797 108.34 129.53 110.554 130.107 112.575C128.278 113.056 125.679 112.479 123.177 110.842C120.77 109.302 118.941 107.088 118.364 105.067ZM113.454 95.9223C115.38 95.5373 117.979 96.1148 120.481 97.655C122.984 99.2914 124.717 101.505 125.294 103.527C123.369 103.912 120.77 103.334 118.267 101.794C115.861 100.254 114.128 98.04 113.454 95.9223ZM114.61 74.2641C116.438 75.0342 118.364 77.0556 119.711 79.8471C121.059 82.6386 121.54 85.5264 121.059 87.6441C119.23 86.874 117.305 84.8526 115.957 82.0611C114.61 79.2696 114.128 76.3818 114.61 74.2641ZM120.096 66.8522C121.54 68.1998 122.888 70.7988 123.369 73.8791C123.85 77.0556 123.369 79.9434 122.407 81.7723C120.866 80.4247 119.615 77.8257 119.134 74.7454C118.652 71.5689 119.037 68.6811 120.096 66.8522ZM122.984 65.1195C123.08 61.8467 124.139 59.1515 125.487 57.6114C126.642 59.3441 127.412 62.1355 127.219 65.4083C127.027 68.4886 126.064 71.1838 124.717 72.724C123.562 71.0876 122.792 68.1998 122.984 65.1195ZM126.161 90.2431C127.605 91.5907 128.856 94.1897 129.337 97.27C129.818 100.447 129.433 103.334 128.375 105.163C126.834 103.816 125.583 101.217 125.102 98.04C124.717 94.9597 125.102 92.072 126.161 90.2431ZM123.273 97.7513C121.348 97.3662 119.037 95.8261 117.209 93.4196C115.38 90.9169 114.417 88.2216 114.513 86.1039C116.438 86.3927 118.749 87.9329 120.481 90.3393C122.31 92.842 123.273 95.5373 123.273 97.7513ZM122.022 90.3393C121.733 88.4142 122.214 85.9114 123.562 83.5049C124.909 81.0985 126.738 79.3658 128.375 78.7883C128.76 80.7134 128.182 83.3124 126.834 85.7189C125.583 88.1254 123.658 89.858 122.022 90.3393ZM128.086 72.1464C130.011 70.4138 132.225 69.4512 133.958 69.5475C133.669 71.4726 132.417 73.6866 130.396 75.5155C128.471 77.2481 126.257 78.2107 124.524 78.1145C124.813 76.1893 126.064 73.9753 128.086 72.1464ZM130.685 61.943C132.321 59.344 134.439 57.6114 136.268 57.0338C136.557 59.2478 135.786 62.1355 134.15 64.6383C132.61 67.3335 130.396 69.0662 128.567 69.5475C128.375 67.4297 129.048 64.542 130.685 61.943ZM136.268 116.425C134.439 115.655 132.61 113.634 131.262 110.842C129.915 108.051 129.626 105.067 130.107 103.045C131.84 103.816 133.765 105.837 135.113 108.628C136.364 111.516 136.749 114.404 136.268 116.425ZM142.428 121.335C141.081 122.971 138.674 124.222 135.883 124.607C132.995 124.992 130.396 124.319 128.856 123.067C130.107 121.527 132.61 120.276 135.401 119.891C138.193 119.506 140.792 120.083 142.428 121.335ZM144.931 116.137C147.241 117.966 148.878 120.276 149.359 122.297C147.434 122.682 144.931 121.912 142.525 120.083C140.118 118.447 138.482 116.04 138 113.923C139.926 113.634 142.428 114.404 144.931 116.137ZM150.418 123.741C150.514 123.741 150.514 123.837 150.514 123.837C151.284 124.222 152.054 124.511 152.824 124.896C152.824 124.896 153.691 124.319 155.327 123.741C156.963 123.067 159.177 122.875 161.488 123.549C164.279 124.222 166.493 125.763 167.648 127.495C166.012 128.554 163.413 128.843 160.525 128.169C157.926 127.495 155.712 126.051 154.557 124.415C154.172 124.704 153.883 124.992 153.498 125.281C156.482 127.11 158.889 129.42 161.295 132.501C160.332 133.945 159.947 134.715 158.985 136.158C157.156 132.116 155.327 128.843 152.824 126.051C150.225 128.843 148.011 132.212 146.279 136.158C145.316 134.715 144.835 134.041 143.968 132.597C146.279 129.517 148.974 127.11 152.054 125.281C151.765 124.992 151.38 124.704 151.092 124.319C149.84 126.051 147.723 127.495 145.027 128.169C142.236 128.843 139.541 128.554 137.904 127.495C138.963 125.763 141.273 124.222 144.065 123.549C146.471 122.875 148.685 123.067 150.322 123.741H150.418ZM160.525 116.137C162.931 114.404 165.434 113.634 167.359 113.923C166.878 116.04 165.242 118.447 162.931 120.083C160.525 121.912 157.926 122.682 156.097 122.297C156.482 120.276 158.118 117.966 160.525 116.137ZM170.055 119.891C172.846 120.276 175.253 121.527 176.6 123.067C174.964 124.319 172.365 124.992 169.477 124.607C166.686 124.222 164.279 122.971 163.028 121.335C164.568 120.083 167.167 119.506 170.055 119.891ZM170.343 108.628C171.691 105.837 173.52 103.816 175.349 103.045C175.83 105.067 175.445 108.051 174.097 110.842C172.846 113.634 170.921 115.655 169.092 116.425C168.707 114.404 168.996 111.516 170.343 108.628ZM169.092 57.0338C171.017 57.6114 173.135 59.344 174.771 61.943C176.311 64.542 177.081 67.4297 176.793 69.5475C174.964 69.0662 172.846 67.3335 171.21 64.6383C169.573 62.1355 168.899 59.2478 169.092 57.0338ZM180.932 78.1145C179.199 78.2107 176.985 77.2481 174.964 75.5155C172.942 73.6866 171.691 71.4726 171.402 69.5475C173.135 69.4512 175.349 70.4138 177.37 72.1464C179.392 73.9753 180.643 76.1893 180.932 78.1145ZM179.873 57.6114C181.317 59.1515 182.279 61.8467 182.376 65.1195C182.664 68.1998 181.894 71.0876 180.739 72.724C179.392 71.1838 178.333 68.4886 178.14 65.4083C178.044 62.1355 178.718 59.3441 179.873 57.6114ZM185.36 66.8522C186.419 68.6811 186.804 71.5689 186.322 74.7454C185.841 77.8257 184.493 80.4247 183.05 81.7723C181.991 79.9434 181.606 77.0556 182.087 73.8791C182.568 70.7988 183.82 68.1998 185.36 66.8522ZM190.75 74.2641C191.231 76.3818 190.846 79.2696 189.499 82.0611C188.151 84.8526 186.13 86.874 184.397 87.6441C183.916 85.5264 184.301 82.6386 185.648 79.8471C186.996 77.0556 188.921 75.0342 190.75 74.2641ZM180.162 103.527C180.739 101.505 182.472 99.2914 184.975 97.655C187.477 96.1148 189.98 95.5373 191.905 95.9223C191.328 98.04 189.595 100.254 187.092 101.794C184.59 103.334 181.991 103.912 180.162 103.527ZM179.295 90.2431C180.258 92.072 180.739 94.9597 180.258 98.04C179.777 101.217 178.525 103.816 176.985 105.163C176.023 103.334 175.541 100.447 176.023 97.27C176.504 94.1897 177.755 91.5907 179.295 90.2431ZM184.878 90.3393C186.707 87.9329 188.921 86.3927 190.846 86.1039C190.943 88.2216 189.98 90.9169 188.151 93.4196C186.322 95.8261 184.108 97.3662 182.183 97.7513C182.183 95.5373 183.049 92.842 184.878 90.3393ZM183.435 90.3393C181.702 89.858 179.873 88.1254 178.525 85.7189C177.178 83.3124 176.696 80.7134 176.985 78.7883C178.622 79.3658 180.451 81.0985 181.798 83.5049C183.146 85.9114 183.723 88.4142 183.435 90.3393ZM183.723 115.174C182.568 116.81 180.258 118.254 177.37 118.832C174.579 119.409 171.98 118.928 170.343 117.773C171.498 116.137 173.809 114.693 176.696 114.115C179.488 113.538 182.087 114.019 183.723 115.174ZM182.183 110.842C179.777 112.479 177.081 113.056 175.253 112.575C175.83 110.554 177.563 108.34 180.065 106.8C182.568 105.163 185.167 104.586 186.996 105.067C186.419 107.088 184.686 109.302 182.183 110.842ZM206.152 133.174L245.618 49.3331C244.174 46.1566 246.58 42.21 249.661 42.21C252.741 42.21 255.629 46.1566 254.185 49.2368L293.94 132.597C300.678 135.87 303.662 140.009 303.277 142.8C302.988 145.784 300.87 147.613 298.367 148.576C298.56 163.688 297.886 217.305 298.079 247.915C301.448 248.685 301.448 252.246 301.159 263.797C300.966 274.867 301.929 278.621 294.613 278.621C293.651 278.621 291.726 278.525 291.726 278.525V274.771C291.629 272.846 291.629 272.268 290.57 271.883C287.49 270.632 284.217 269.573 280.656 268.129C278.153 267.263 202.879 240.31 202.879 240.31C202.879 240.31 199.413 239.348 199.413 235.979C199.413 235.69 199.317 232.802 199.317 231.84V221.059C199.317 218.267 201.146 217.305 202.783 217.497C202.879 217.497 202.879 217.208 202.879 217.016C202.783 207.101 202.686 155.218 202.686 149.731C199.221 148.672 198.258 146.266 198.258 146.266C196.622 142.704 198.355 137.314 206.152 133.174ZM315.405 97.655C317.812 99.2914 319.641 101.505 320.218 103.527C318.293 103.912 315.694 103.334 313.288 101.794C310.785 100.254 308.956 98.04 308.378 95.9223C310.303 95.5373 312.902 96.1148 315.405 97.655ZM309.533 74.2641C311.362 75.0342 313.288 77.0556 314.635 79.8471C315.983 82.6386 316.464 85.5264 315.983 87.6441C314.154 86.874 312.229 84.8526 310.881 82.0611C309.533 79.2696 309.052 76.3818 309.533 74.2641ZM315.02 66.8522C316.56 68.1998 317.812 70.7988 318.293 73.8791C318.774 77.0556 318.389 79.9434 317.33 81.7723C315.79 80.4247 314.539 77.8257 314.058 74.7454C313.576 71.5689 313.961 68.6811 315.02 66.8522ZM317.908 65.1195C318.1 61.8467 319.063 59.1515 320.411 57.6114C321.662 59.3441 322.336 62.1355 322.143 65.4083C321.951 68.4886 320.988 71.1838 319.641 72.724C318.389 71.0876 317.715 68.1998 317.908 65.1195ZM322.913 72.1464C324.935 70.4138 327.149 69.4512 328.978 69.5475C328.593 71.4726 327.341 73.6866 325.416 75.5155C323.395 77.2481 321.084 78.2107 319.352 78.1145C319.641 76.1893 320.988 73.9753 322.913 72.1464ZM325.609 61.943C327.245 59.344 329.363 57.6114 331.192 57.0338C331.48 59.2478 330.71 62.1355 329.17 64.6383C327.438 67.3335 325.416 69.0662 323.491 69.5475C323.298 67.4297 323.972 64.542 325.609 61.943ZM331.192 116.425C329.363 115.655 327.438 113.634 326.186 110.842C324.839 108.051 324.454 105.067 324.935 103.045C326.764 103.816 328.689 105.837 329.94 108.628C331.288 111.516 331.673 114.404 331.192 116.425ZM323.683 114.115C326.475 114.693 328.785 116.137 329.94 117.773C328.304 118.928 325.705 119.409 322.913 118.832C320.122 118.254 317.812 116.81 316.56 115.174C318.293 114.019 320.892 113.538 323.683 114.115ZM325.127 112.575C323.202 113.056 320.603 112.479 318.1 110.842C315.598 109.302 313.865 107.088 313.288 105.067C315.213 104.586 317.812 105.163 320.218 106.8C322.721 108.34 324.454 110.554 325.127 112.575ZM321.084 90.2431C322.625 91.5907 323.876 94.1897 324.261 97.27C324.742 100.447 324.357 103.334 323.298 105.163C321.758 103.816 320.507 101.217 320.122 98.04C319.641 94.9597 320.026 92.072 321.084 90.2431ZM318.1 97.7513C316.272 97.3662 313.961 95.8261 312.132 93.4196C310.303 90.9169 309.341 88.2216 309.437 86.1039C311.362 86.3927 313.576 87.9329 315.405 90.3393C317.234 92.842 318.197 95.5373 318.1 97.7513ZM316.945 90.3393C316.657 88.4142 317.138 85.9114 318.485 83.5049C319.833 81.0985 321.662 79.3658 323.395 78.7883C323.683 80.7134 323.106 83.3124 321.758 85.7189C320.411 88.1254 318.582 89.858 316.945 90.3393ZM337.256 121.335C336.005 122.971 333.598 124.222 330.807 124.607C327.919 124.992 325.416 124.319 323.78 123.067C325.127 121.527 327.438 120.276 330.325 119.891C333.117 119.506 335.716 120.083 337.256 121.335ZM339.855 116.137C342.165 117.966 343.802 120.276 344.283 122.297C342.358 122.682 339.855 121.912 337.448 120.083C335.042 118.447 333.406 116.04 332.924 113.923C334.849 113.634 337.448 114.404 339.855 116.137ZM347.556 124.896C348.229 124.511 348.999 124.222 349.77 123.837C349.866 123.837 349.866 123.741 349.962 123.741C351.695 123.067 353.909 122.875 356.219 123.549C359.01 124.222 361.321 125.763 362.476 127.495C360.743 128.554 358.048 128.843 355.353 128.169C352.657 127.495 350.443 126.051 349.288 124.319C348.903 124.704 348.614 124.992 348.229 125.281C351.406 127.11 354.101 129.517 356.411 132.597C355.449 134.041 355.064 134.715 354.101 136.158C352.369 132.212 350.155 128.843 347.556 126.051C345.053 128.843 343.128 132.116 341.299 136.158C340.432 134.715 339.951 133.945 339.085 132.501C341.395 129.42 343.802 127.11 346.786 125.281C346.497 124.992 346.112 124.704 345.823 124.415C344.572 126.051 342.454 127.495 339.759 128.169C336.967 128.843 334.368 128.554 332.635 127.495C333.791 125.763 336.005 124.222 338.796 123.549C341.106 122.875 343.32 123.067 345.053 123.741C346.593 124.319 347.556 124.896 347.556 124.896ZM355.449 116.137C357.855 114.404 360.358 113.634 362.283 113.923C361.802 116.04 360.165 118.447 357.855 120.083C355.449 121.912 352.85 122.682 350.925 122.297C351.406 120.276 353.042 117.966 355.449 116.137ZM364.978 119.891C367.77 120.276 370.176 121.527 371.428 123.067C369.888 124.319 367.289 124.992 364.497 124.607C361.609 124.222 359.203 122.971 357.952 121.335C359.492 120.083 362.091 119.506 364.978 119.891ZM365.267 108.628C366.615 105.837 368.444 103.816 370.273 103.045C370.754 105.067 370.369 108.051 369.118 110.842C367.77 113.634 365.845 115.655 364.112 116.425C363.535 114.404 363.92 111.516 365.267 108.628ZM364.016 57.0338C365.941 57.6114 368.059 59.344 369.695 61.943C371.332 64.542 372.005 67.4297 371.813 69.5475C369.888 69.0662 367.77 67.3335 366.134 64.6383C364.497 62.1355 363.823 59.2478 364.016 57.0338ZM375.856 78.1145C374.123 78.2107 371.909 77.2481 369.888 75.5155C367.866 73.6866 366.615 71.4726 366.326 69.5475C368.059 69.4512 370.273 70.4138 372.294 72.1464C374.316 73.9753 375.567 76.1893 375.856 78.1145ZM374.893 57.6114C376.241 59.1515 377.203 61.8467 377.396 65.1195C377.492 68.1998 376.818 71.0876 375.663 72.724C374.219 71.1838 373.257 68.4886 373.16 65.4083C372.968 62.1355 373.642 59.3441 374.893 57.6114ZM380.284 66.8522C381.246 68.6811 381.727 71.5689 381.246 74.7454C380.765 77.8257 379.417 80.4247 377.973 81.7723C376.915 79.9434 376.529 77.0556 377.011 73.8791C377.492 70.7988 378.743 68.1998 380.284 66.8522ZM379.802 90.3393C381.631 87.9329 383.845 86.3927 385.77 86.1039C385.867 88.2216 384.904 90.9169 383.075 93.4196C381.246 95.8261 379.032 97.3662 377.107 97.7513C377.011 95.5373 377.973 92.842 379.802 90.3393ZM375.182 98.04C374.701 101.217 373.449 103.816 371.909 105.163C370.946 103.334 370.465 100.447 370.946 97.27C371.428 94.1897 372.679 91.5907 374.219 90.2431C375.182 92.072 375.663 94.9597 375.182 98.04ZM373.449 85.7189C372.102 83.3124 371.62 80.7134 371.909 78.7883C373.545 79.3658 375.374 81.0985 376.722 83.5049C378.07 85.9114 378.647 88.4142 378.262 90.3393C376.626 89.858 374.797 88.1254 373.449 85.7189ZM385.674 74.2641C386.155 76.3818 385.77 79.2696 384.326 82.0611C382.979 84.8526 381.054 86.874 379.321 87.6441C378.84 85.5264 379.225 82.6386 380.572 79.8471C381.92 77.0556 383.845 75.0342 385.674 74.2641ZM433.803 74.5529L368.059 14.68C352.561 24.7872 332.347 30.9477 310.111 30.9477C286.913 30.9477 265.832 24.2096 250.142 13.2361C234.452 24.2096 213.371 30.9477 190.173 30.9477C167.937 30.9477 147.723 24.7872 132.321 14.68L66.4802 74.5529C66.4802 74.5529 98.2456 104.682 98.4381 129.035C98.5344 153.485 91.315 173.218 82.3629 198.149C79.0901 207.486 75.2398 222.214 73.4109 239.252C73.0258 242.524 72.6408 246.086 72.4483 249.647C72.2557 252.824 72.2557 256.097 72.1595 259.37C72.0632 279.584 75.5285 301.146 85.732 319.82C87.2721 322.612 88.9085 325.307 90.7374 327.906C96.0317 335.51 139.059 406.742 230.409 416.079L230.794 416.367L250.142 435.716L269.586 416.367L269.875 416.079C361.224 406.742 404.252 335.51 409.546 327.906C411.375 325.307 413.108 322.612 414.552 319.82C424.755 301.146 428.22 279.584 428.124 259.37C428.124 256.097 428.028 252.824 427.835 249.647C427.643 246.086 427.258 242.524 426.969 239.252C425.044 222.214 421.29 207.486 417.921 198.149C409.065 173.218 401.749 153.485 401.942 129.035C402.038 104.682 433.803 74.5529 433.803 74.5529Z" fill="#274488"/>
<path d="M277.778 372.916C279.895 371.665 282.109 370.125 282.109 367.141C282.109 364.542 280.184 362.52 277.489 362.52C274.89 362.52 272.965 364.446 272.965 367.045C272.965 369.836 275.083 371.376 277.778 372.916Z" fill="#274488"/>
<path d="M276.517 376.603C272.955 378.336 271.222 380.646 271.222 383.437C271.222 386.518 273.533 388.828 276.805 388.828C280.078 388.828 282.581 386.518 282.581 383.437C282.581 380.453 280.56 378.817 276.517 376.603Z" fill="#274488"/>
<path d="M235.626 376.006C232.064 377.739 230.332 380.049 230.332 382.841C230.332 385.921 232.642 388.231 235.915 388.231C239.188 388.231 241.69 385.825 241.69 382.841C241.69 379.857 239.669 378.22 235.626 376.006Z" fill="#274488"/>
</svg>
