<svg width="509" height="512" viewBox="0 0 509 512" fill="none" xmlns="http://www.w3.org/2000/svg">
<path d="M396.292 337.607C396.292 337.607 396.292 337.795 396.292 337.943C396.292 337.862 396.292 337.755 396.292 337.607Z" fill="white" stroke="white" stroke-width="7.43253" stroke-miterlimit="3.864"/>
<path d="M396.292 337.956C396.292 338.184 396.306 338.345 396.292 337.956V337.956Z" fill="white" stroke="white" stroke-width="7.43253" stroke-miterlimit="3.864"/>
<path d="M396.292 337.956C396.292 338.184 396.306 338.345 396.292 337.956V337.956Z" fill="#231F20"/>
<path fill-rule="evenodd" clip-rule="evenodd" d="M485.899 363.098C481.364 354.834 482.183 341.793 470.658 339.351C458.664 339.003 445.758 343.658 435.038 350.178C430.852 354.364 436.554 357.973 436.782 362.051C438.07 367.861 440.982 372.986 441.559 379.036C438.889 379.962 436.206 381.25 433.415 381.948C431.081 382.766 429.108 381.599 427.592 380.204C420.723 377.064 413.855 380.673 408.153 383.571C405.711 387.529 401.056 384.161 397.567 385.557C387.559 386.133 375.109 385.905 366.724 393.593C361.022 399.174 367.072 405.694 366.482 411.973C350.785 416.172 335.29 420.935 318.774 423.149C314.24 423.967 309.463 424.544 304.808 425.241C290.265 427.455 275.36 429.078 261.407 429.427L260.937 428.971C261.058 428.381 261.635 427.925 261.407 427.227C271.402 414.763 285.61 405.225 299.455 398.356C301.441 397.309 303.292 395.686 305.506 394.988C307.25 392.654 309.933 392.882 311.798 390.681C323.671 383.343 336.698 374.73 342.749 361.582C344.614 358.791 345.07 355.531 346.25 352.378C347.176 349.588 347.176 347.146 348.102 344.356C351.013 351.453 351.483 360.294 359.049 364.493C368.467 371.59 380.703 373.442 392.214 369.377C407.106 363.554 415.263 347.495 416.658 332.254C417.356 330.269 419.677 329.92 420.267 327.948C418.174 326.083 417.114 323.172 418.174 320.609C418.979 317.939 422.83 318.409 423.179 315.605C422.468 314.907 421.541 314.679 420.723 314.102C417.932 312.117 416.417 308.977 417.114 305.596C417.356 302.927 420.844 301.88 421.3 299.318C419.207 298.62 416.766 298.271 415.491 296.406C415.491 295.467 416.658 295.011 417.356 294.783C424.453 293.495 436.205 291.053 441.33 299.076C448.897 308.4 439.466 318.865 440.163 328.873C440.982 331.087 440.284 334.468 442.605 335.622C442.605 327.478 450.762 325.278 455.176 319.455L456.343 321.199C459.134 317.014 455.753 310.721 459.254 306.643C460.301 305.945 461.347 307.34 462.394 306.643V305.368C459.482 302.699 459.603 298.848 459.013 295.239C459.362 293.495 461.454 294.662 462.165 293.267C460.072 291.872 458.436 289.537 457.39 287.216C456.692 282.91 452.506 280.227 449.354 278.026L451.567 275.343C452.385 273.009 454.022 270.916 454.948 268.595C452.385 267.897 449.246 267.199 446.912 265.442C450.99 259.163 450.52 250.55 450.762 244.151L449.595 244.848C449.005 240.542 448.897 235.779 446.912 232.277C445.986 232.519 446.684 234.021 445.516 233.673C443.303 229.017 441.559 223.906 437.48 220.176C435.508 219.706 437.252 221.92 436.098 222.269C432.489 219.706 430.732 215.99 430.276 211.912C429.229 211.912 428.987 212.958 428.759 213.656C427.136 225.878 432.838 238.1 429.457 249.973C427.82 253.233 427.82 257.191 425.151 260.102C422.467 267.548 415.612 272.432 409.212 276.618C408.743 276.51 408.152 276.738 407.924 276.39C407.106 272.901 410.258 270.097 410.138 266.851C407.575 266.381 405.254 264.288 403.846 262.316C403.269 259.163 404.315 256.252 407.227 254.28C408.152 252.066 405.013 253.113 404.087 252.066C401.404 249.973 399.66 246.485 399.66 242.635C399.432 239.844 402.571 238.1 402.571 235.658C399.553 235.658 397.219 232.747 395.823 230.305C394.307 225.999 394.187 220.055 396.521 215.762C399.311 203.647 416.189 203.768 416.417 190.62C417.114 188.058 421.085 190.728 422.709 188.178C423.755 187.011 421.891 187.36 421.542 187.011C418.04 185.146 418.738 180.961 418.402 178.049C420.026 177.459 420.951 179.203 422.467 178.277C423.178 177.7 424.802 177.459 424.225 176.292C422.012 176.533 421.434 174.092 420.025 172.924C420.951 172.227 421.89 173.273 422.95 172.924C423.635 172.696 424.909 172.468 424.453 171.18C422.36 169.785 421.086 167.343 421.086 165.13H422.709C425.848 164.083 422.011 162.339 422.24 160.595C422.468 160.125 422.95 160.005 423.406 160.125C423.863 159.777 424.225 159.2 423.984 158.851C419.449 157.684 421.192 152.21 416.886 150.694C420.146 148.131 415.021 147.313 415.263 144.871C414.793 143.597 413.519 143.476 412.58 143.127C412.459 142.43 412.7 141.853 413.277 141.383C414.672 139.169 412.003 138.941 410.608 138.472C410.608 137.077 410.956 133.816 407.924 134.863C409.44 130.905 404.557 132.314 402.813 131.952C402.92 130.328 403.739 128.812 403.162 127.189C401.297 126.719 400.25 128.007 398.734 127.886L398.506 124.747C396.869 124.277 396.051 125.552 394.656 125.445C390.591 129.51 391.168 121.943 387.787 121.138C386.982 120.669 385.587 119.85 384.648 120.897C385.117 123.003 386.982 124.975 385.936 127.417C385.238 128.356 384.07 129.979 382.782 129.282C381.266 127.296 379.643 125.324 377.658 123.459C376.746 122.413 376.625 120.32 374.76 120.092C373.593 122.882 373.941 126.25 373.592 129.282C371.848 128.933 370.105 127.068 368.468 128.115C367.193 132.314 369.044 136.258 372.076 139.29C369.863 141.276 368.239 143.476 366.254 145.569C363.342 151.271 357.305 154.652 352.999 159.656C348.223 163.385 347.874 169.436 347.176 174.668C348.92 177.58 351.939 176.654 354.622 178.049C354.971 178.975 353.804 179.324 353.455 179.914C352.18 180.37 351.939 178.398 350.785 178.747C349.269 178.975 349.041 180.612 348.571 181.658C349.148 182.691 348.92 184.1 350.315 184.798C352.999 186.314 356.017 184.798 358.352 182.812C360.324 183.282 362.765 182.007 364.858 183.054V182.584C369.044 181.309 370.802 176.184 374.988 174.32C376.624 174.91 378.127 173.273 379.173 175.138C375.806 179.914 369.514 181.309 365.328 185.026C357.762 189.453 350.785 196.899 347.176 204.694C345.781 206.679 346.13 209.698 344.037 211.214C339.958 204.694 338.442 197.02 333.559 191.076C330.647 188.635 326.22 188.514 322.732 189.923C315.742 194.927 307.143 195.732 300.381 200.977L299.925 200.508C299.804 198.415 298.878 196.671 297.469 194.927C295.269 193.88 293.056 193.183 290.493 193.062C286.656 192.713 282.926 195.732 279.317 193.29C278.512 191.667 278.043 190.03 277.922 188.178C277.238 186.542 278.392 182.691 275.95 182.114C274.085 179.096 274.434 175.138 274.206 171.408C273.964 170.603 272.918 171.408 272.569 170.711C270.946 165.009 271.871 158.14 271.402 152.787C272.113 150.345 269.658 147.313 272.569 145.81C273.039 145.113 273.388 143.717 272.341 143.369C271.992 143.02 271.992 142.201 272.569 141.973C277.345 141.504 276.406 134.407 281.531 135.104C282.229 134.514 282.108 133.468 282.457 132.77C282.229 130.1 283.289 127.538 282.229 124.747L274.783 124.975L274.206 124.506C273.267 120.669 273.736 116.013 276.647 113.343C279.089 112.632 281.075 111.13 283.516 112.404C285.261 113.451 286.186 115.315 286.428 117.18C285.838 118.348 284.67 119.045 283.516 118.696C281.182 117.757 281.652 114.497 279.545 114.497C278.969 117.999 280.136 121.487 283.168 123.459C284.67 124.277 287.126 124.277 288.521 123.459C290.735 122.064 292.009 120.092 292.478 117.408C290.734 113.102 296.436 116.013 297.939 114.041C302.138 112.404 300.85 108.326 301.078 104.838C301.078 102.637 304.338 101.121 304.338 99.2564C302.943 98.6661 301.441 98.438 299.925 98.5587C296.436 98.5587 296.544 102.517 294.571 104.381L294.343 100.303C293.525 98.7869 292.009 97.1635 290.493 96.3452C289.326 96.4659 288.051 95.2987 287.126 96.3452C286.884 97.8612 288.521 97.7404 288.977 98.7869C288.521 102.865 283.866 102.047 281.075 103.214C277.345 103.791 276.996 108.326 273.508 109.037C268.155 112.284 268.034 119.153 268.732 124.747C265.821 125.445 268.262 128.463 266.518 130.1C264.305 129.51 263.835 126.84 263.151 124.975C261.863 121.245 262.44 116.483 262.682 112.404C263.486 106.702 269.778 103.335 273.038 98.7869C271.053 94.8291 276.406 93.9034 276.647 90.5225C275.601 89.7041 274.434 91.3409 273.508 90.053C273.508 89.5968 273.508 89.0065 273.736 88.6711C280.256 87.5038 275.601 81.5606 278.392 77.7236C278.164 75.8587 277.117 75.2818 275.95 73.8865C274.675 74.3427 273.508 73.2962 273.267 71.9009C271.872 69.6872 269.201 68.8823 266.746 69.2311C265.7 68.7616 264.546 67.8358 263.379 68.5334C260.937 71.5521 257.207 72.5986 255.114 76.3282L254.189 75.5099C252.78 77.3748 251.05 79.4676 251.05 82.1508C252.203 85.1694 248.138 85.0622 246.85 86.9136C244.757 89.1273 245.227 92.5081 242.785 94.2522C239.981 89.7041 235.326 87.3832 233.126 82.607C233.233 76.449 225.089 73.0681 228.47 66.0917C244.06 56.5395 261.863 64.8038 278.861 65.6222C303.413 69.1104 334.484 69.4592 350.543 47.2287C350.664 45.7261 352.529 44.2101 351.711 42.9221C343.916 47.6983 333.787 47.6982 324.597 48.3959C318.305 48.1678 311.1 48.2751 305.975 46.531C293.176 44.9077 281.531 40.2523 270.355 34.8993C260.468 30.3512 249.064 28.6071 237.66 30.472C236.493 30.5927 235.098 31.3976 234.28 30.7C234.87 28.379 233.582 26.0446 232.307 23.9517C230.684 23.026 229.047 21.0404 227.303 21.0404C223.801 20.4635 220.434 21.8588 218.113 24.4213C216.007 26.9838 215.778 31.3976 217.294 34.1882C218.569 36.4019 220.662 37.9179 222.406 39.2058C222.996 53.5208 222.406 65.7429 222.876 78.77C222.406 80.8629 220.783 83.4254 222.406 85.5182C222.755 94.4802 222.755 106.005 222.406 115.544L221.708 116.483C221.132 117.408 221.601 118.455 222.178 119.153L222.406 193.062C220.904 194.578 219.039 195.383 218.113 197.369C217.764 199.113 218.113 201.206 219.039 202.722C223.694 209 230.442 207.028 237.191 206.331L237.66 206.787C236.493 209.47 236.735 213.428 238.479 215.762C239.163 218.083 236.842 219.827 235.219 221.102C226.606 225.77 216.248 227.166 206.938 224.952C201.933 224.254 207.165 220.176 206.226 217.265C205.314 213.2 203.087 208.652 198.432 207.847C194.367 206.787 189.59 208.075 187.028 211.442C186.921 208.075 187.376 203.889 190.985 202.252C194.366 202.829 197.626 203.768 200.417 206.102C202.51 208.652 204.026 210.637 207.394 210.744C209.03 213.656 208.454 217.144 207.863 220.404L208.681 221.102C212.76 221.92 217.295 221.571 221.48 222.269C223.922 218.432 228.121 223.208 230.442 218.66C231.261 217.842 233.354 219.009 233.354 217.265C229.396 210.986 222.178 208.075 216.825 203.647C210.654 195.383 199.599 195.383 191.683 189.681C177.019 186.072 177.731 203.996 171.318 211.442L170.392 210.167C166.314 196.201 152.696 185.495 140.367 179.445C138.851 178.398 136.637 177.352 136.167 175.366C142.808 171.999 145.371 182.812 151.999 183.054C156.895 181.309 158.988 186.783 164.328 185.495C165.387 185.146 166.085 184.449 166.434 183.282C167.011 181.886 166.662 179.914 165.267 179.203C163.751 178.049 163.174 180.491 161.658 179.914C161.189 179.445 160.384 178.854 160.732 178.277C163.295 177.231 167.132 177.701 168.406 174.32C168.997 165.478 162.007 158.958 155.607 153.605C149.798 150.117 148.51 143.248 143.037 139.29C144.901 137.546 146.296 135.681 147.115 133.468C146.766 131.267 147.92 129.282 146.176 127.645C144.552 128.114 143.265 128.812 141.762 129.51C140.823 128.007 141.534 125.673 141.292 123.808C140.944 122.533 141.171 119.622 139.307 120.32C138.153 124.506 134.075 126.022 132.102 129.859H131.405C126.857 128.114 130.009 123.352 130.117 120.669C126.28 120.44 124.656 124.398 122.912 126.947C121.034 125.794 119.062 125.096 116.848 124.747C115.104 125.552 117.089 126.947 116.164 128.115C114.755 128.007 113.602 127.189 112.206 127.189C110.328 128.584 112.783 130.798 111.723 132.77C110.569 132.193 108.704 132.193 107.43 132.421C107.43 134.407 106.612 136.03 104.519 135.681C103.7 136.728 104.868 137.895 104.519 138.821C103.472 139.169 102.063 138.821 101.366 139.988C101.487 141.276 101.956 142.309 102.305 143.369C98.5754 143.127 100.682 147.783 97.1802 148.252C96.3753 149.299 97.6495 149.996 97.9983 150.935C93.5844 152.438 95.4359 157.912 90.9013 159.079C90.3109 160.702 92.0551 160.353 92.6454 161.051C92.5247 162.567 90.7805 163.144 90.9013 164.66C91.1293 166.646 93.3431 164.888 94.0407 166.176C92.8735 167.92 92.6453 170.483 90.4316 171.408C90.1901 174.668 93.5847 172.468 94.8592 173.394C93.8127 175.138 92.4038 176.654 90.4316 177.003C91.5988 179.445 94.5101 178.626 96.7237 178.747C97.3006 180.719 95.6642 181.658 96.2545 183.63C95.3154 185.495 94.6176 188.058 91.9477 187.937C92.8735 190.62 96.1338 189.574 98.4548 190.151C98.3475 194.578 100.091 199.113 104.277 202.024C112.314 205.754 119.759 213.656 120.699 222.618C120.001 226.924 120.578 231.7 116.62 234.719C115.345 235.658 113.937 236.235 112.434 236.584C113.011 238.569 114.983 239.737 115.345 241.709C116.043 245.667 114.755 249.624 111.723 252.415C110.569 253.113 108.932 252.992 107.886 254.038C109.979 256.373 111.844 259.163 111.723 262.531C110.797 264.047 109.523 265.791 108.128 266.381C99.9839 268.125 110.797 273.357 106.96 277.557C99.3935 273.948 92.055 266.851 88.8083 259.163C83.9114 249.745 84.153 239.737 85.3068 229.138C86.9436 225.422 86.2461 221.464 86.5949 217.734C86.823 215.99 86.246 213.656 84.8507 212.609C83.9116 216.567 82.288 220.646 78.7998 223.087C78.3302 222.859 78.6794 222.39 78.5586 222.041C78.4513 221.692 78.5586 220.646 77.861 220.874C72.8568 224.013 71.6895 229.956 69.1271 234.719C68.6709 234.142 68.5502 233.216 67.6245 232.975C66.8061 235.189 66.578 237.63 66.0011 239.965C65.29 241.709 66.3364 244.379 65.0619 245.546C64.713 245.197 64.2435 245.09 63.7873 245.09V245.787C64.1361 253.233 64.7132 260.451 67.9733 266.609C66.6988 267.656 65.0618 267.548 63.7873 268.595C62.7274 269.641 59.9505 268.474 60.1651 270.567C62.7276 273.25 62.8482 276.846 65.7595 279.529C57.9648 281.743 59.2392 290.235 52.9604 294.313C53.0677 296.058 55.2815 294.783 56.0999 296.178C55.7511 300.243 55.0533 303.973 52.6116 307.112C52.7189 309.205 54.4766 307.341 55.523 307.81C56.9183 308.977 56.7976 310.721 57.4952 312.237C58.5417 315.605 56.328 319.455 58.4209 322.353C59.7089 323.292 59.1184 321.32 59.9502 320.851C63.5457 325.385 70.066 328.068 72.2797 333.77C72.8566 334.696 72.0516 336.319 72.9773 336.91C74.2519 336.091 74.7215 334.696 74.4934 333.529C78.2097 324.097 68.55 314.907 71.582 304.899C73.0846 300.243 77.3912 295.588 82.637 294.783C88.8084 294.434 94.7383 294.085 99.8632 296.876C98.9241 299.076 96.4825 299.787 94.2688 300.015C93.5846 301.062 94.6177 301.88 95.3153 302.457C97.6497 303.732 98.5755 306.415 98.4548 308.977C97.8779 312.345 95.0871 315.256 92.1758 316.772C92.2965 318.865 94.5104 318.744 95.7849 319.683C97.1802 321.32 98.119 322.943 97.7702 325.278C97.4214 326.552 96.3752 327.599 95.3153 328.645C95.436 330.51 97.301 331.557 98.4548 332.71C99.9842 344.476 103.928 355.29 112.783 364.024C123.02 373.683 139.307 374.502 151.757 368.8C162.597 365.312 164.918 354.243 167.95 345.174C168.755 346.449 168.406 348.662 169.104 350.178C172.015 372.288 195.292 386.254 212.518 396.263C228.229 404.057 243.711 413.489 255.584 428.153V428.971C241.028 430.138 226.605 427.227 212.049 425.711C194.125 423.497 177.489 420.116 160.384 415.582C156.198 413.838 151.542 413.261 147.343 411.503C148.041 405.225 152.468 396.853 145.948 391.835C135.59 384.041 121.275 385.557 108.825 385.087C102.533 380.673 94.6177 377.413 86.8229 379.506C84.9715 379.962 83.9114 382.524 81.4697 381.72C78.2096 380.552 74.7213 380.204 71.81 378.339C74.1445 370.316 76.5862 362.159 80.0743 354.592C81.0001 351.802 78.9074 349.588 77.1633 347.965H76.1168C68.0806 343.081 58.7833 340.988 49.7005 338.533C44.3475 337.607 37.7197 338.882 34.4596 344.356C31.6556 350.648 29.3346 357.034 27.2283 363.554C24.4512 374.153 17.6896 383.812 18.9775 395.444C24.4513 409.759 39.571 418.614 52.37 425.241C54.8252 426.637 57.2669 427.683 59.9502 428.381C62.1504 430.487 65.1828 430.366 67.3964 432.11C65.1828 438.282 62.9687 446.546 68.4425 451.899C75.2981 457.36 83.4419 459.815 90.9013 463.773C110.328 472.842 131.633 477.256 152.227 483.427C156.426 484.366 161.188 485.52 165.039 486.11C197.506 493.315 231.958 495.3 265.016 494.482C299.227 494.254 332.164 490.417 363.812 482.971C376.155 478.544 389.303 476.209 401.645 471.795C404.087 470.749 406.757 470.051 409.212 468.884C421.434 464.698 433.415 459.224 444.228 452.127C450.051 447.002 447.623 438.631 445.516 432.567L446.442 431.534C450.762 430.594 454.371 427.804 458.557 426.516C471.932 419.191 488.582 410.349 494.163 394.988C494.284 383.464 488.582 373.683 485.899 363.098ZM378.369 313.861C378.369 313.861 390.724 326.083 392.254 328.793C393.77 331.49 396.266 336.279 396.292 337.607C396.292 337.607 394.441 345.348 384.473 345.858C374.505 346.368 365.892 338.426 366.227 329.128C366.563 319.831 373.096 317.027 378.369 313.861ZM338.348 277.194C338.456 274.028 338.912 270.54 341.837 269.185C344.761 267.843 344.882 268.179 344.882 268.179C344.882 268.179 350.275 277.302 351.979 279.663C353.669 282.038 361.881 292.623 366.402 299.841C366.402 299.841 348.706 315.162 347.914 333.636C347.914 333.636 347.686 328.793 347.015 326.311C346.331 323.829 346.116 319.885 349.604 317.98L349.833 316.624C349.833 316.624 346.452 315.833 346.452 313.807C346.452 311.781 349.269 311.432 349.269 309.863C349.269 308.28 347.243 307.837 346.68 307.73C346.116 307.609 343.071 307.501 341.716 302.538C340.374 297.574 336.202 282.038 336.202 282.038C336.202 282.038 338.228 280.347 338.348 277.194ZM278.687 208.464C278.687 208.464 280.377 209.309 282.913 208.799C285.449 208.303 288.494 206.948 288.494 206.948L290.855 208.303L282.913 216.071C282.913 216.071 281.062 218.767 283.087 218.767C285.113 218.767 285.623 219.452 285.958 220.297C286.294 221.142 288.829 221.477 290.184 221.142C291.526 220.806 294.236 221.813 294.571 222.832L307.411 221.142L308.256 219.961C308.256 219.961 306.914 214.045 307.759 211.845C308.605 209.644 310.63 211.335 312.656 208.799C314.682 206.263 319.928 202.037 323.47 202.212C327.025 202.373 328.031 205.767 328.702 210.999C328.702 210.999 325.844 206.438 320.599 207.109C315.353 207.793 310.966 208.464 309.276 218.271C309.276 218.271 309.45 221.652 310.966 223.678C310.966 223.678 305.895 225.703 299.817 225.703C293.726 225.703 284.268 223.839 281.558 222.148C278.861 220.471 277.506 217.587 277.667 216.741C277.841 215.896 279.706 212.69 278.687 208.464ZM149.745 330.819C149.57 333.019 149.409 344.678 131.995 346.529C131.995 346.529 120.578 346.556 119.531 338.774C118.981 334.709 127.608 324.057 129.795 322.192C131.995 320.341 137.911 314.558 137.911 314.558C137.911 314.558 146.753 320.207 149.087 323.99C149.087 323.99 149.906 328.618 149.745 330.819ZM173.062 306.053C172.646 306.656 167.655 308.843 167.32 309.098C166.984 309.366 166.3 309.863 167.574 311.473C168.835 313.069 170.365 314.505 169.426 315.269C168.5 316.034 168.165 316.289 168.165 316.289C168.165 316.289 165.804 316.45 166.394 317.631C166.984 318.825 168.245 320.676 168.93 321.441C169.6 322.192 169.681 323.386 169.426 324.312C169.171 325.238 168.755 325.747 168.674 326.928C168.581 328.109 168.165 332.08 168.165 332.08C168.165 332.08 166.649 321.186 157.512 308.843C153.662 303.638 149.409 300.565 149.409 300.565C149.409 300.565 149.664 299.13 151.515 297.01C153.38 294.904 165.71 277.074 167.32 274.458C168.93 271.841 170.446 268.876 171.881 268.876C172.901 268.876 176.281 270.996 177.127 272.257C177.127 272.257 177.462 279.529 179.662 283.071C179.662 283.071 173.491 305.476 173.062 306.053ZM228.926 99.2564C229.275 99.2564 229.396 99.6052 229.745 99.8333C229.396 100.303 229.047 100.88 229.154 101.47C230.214 102.396 231.261 103.093 232.656 103.214C233.582 104.73 231.489 106.93 233.582 107.99C234.87 107.641 236.614 106.823 237.888 107.749C237.781 108.688 236.493 108.916 235.796 109.493C234.4 111.599 232.415 112.995 229.986 112.632C228.35 112.055 228.926 110.888 228.47 109.734L228.926 99.2564ZM242.195 169.651L240.236 171.086L238.626 181.631C238.626 181.631 236.842 181.444 236.667 183.59C236.479 185.737 235.769 191.278 234.87 191.626C233.984 191.989 232.549 191.989 231.663 192.351C230.764 192.7 229.705 193.236 228.618 192.525C228.618 192.525 227.196 139.465 228.618 123.915C228.618 123.915 237.016 124.09 238.975 123.379V124.626C238.975 124.626 237.915 125.163 236.48 124.989C235.058 124.814 232.2 124.626 230.952 125.525V135.882C230.952 135.882 234.172 136.07 235.406 137.855C236.667 139.639 238.975 142.309 241.135 142.134V144.281C241.135 144.281 241.484 145.891 242.195 145.891C242.919 145.891 243.456 146.24 243.456 147.675C243.456 149.111 242.195 169.651 242.195 169.651Z" fill="#231F20"/>
<path d="M264.076 35.8249L264.304 40.7084C260.937 40.3596 256.979 39.9034 253.477 38.9643C252.78 36.8714 252.552 34.4296 253.719 32.6855C257.328 33.3832 261.406 33.6113 264.076 35.8249Z" fill="#00B6F1" stroke="#00B6F1" stroke-width="0.228074" stroke-miterlimit="3.864"/>
<path d="M241.027 33.6115C241.027 35.3556 242.436 38.9645 239.874 39.206C236.023 39.3133 232.884 41.0574 229.154 41.4062C228 39.9036 229.275 37.918 228.926 36.2946C230.093 35.1274 231.958 35.597 233.125 34.4298C235.567 33.9602 238.358 32.4577 241.027 33.6115Z" fill="#00B6F1" stroke="#00B6F1" stroke-width="0.228074" stroke-miterlimit="3.864"/>
<path d="M264.076 52.8232L264.305 60.8461C260.575 60.2692 257.1 60.0277 253.129 59.102C251.975 56.5395 253.37 53.6282 252.901 50.14C254.417 49.7912 256.281 49.7912 257.798 50.14C260.118 50.4889 262.104 51.5353 264.076 52.8232Z" fill="#00B6F1" stroke="#00B6F1" stroke-width="0.228074" stroke-miterlimit="3.864"/>
<path d="M240.799 50.14C241.967 53.2793 240.679 55.7345 241.028 59.1019C236.962 60.1484 232.763 60.8459 228.698 62.2412V53.9769C232.186 51.079 236.144 50.6095 240.799 50.14Z" fill="#00B6F1" stroke="#00B6F1" stroke-width="0.228074" stroke-miterlimit="3.864"/>
<path d="M250.217 33.6115C251.156 36.402 249.063 41.2989 252.9 41.8758C256.858 42.9222 261.057 42.6941 264.304 45.2566L264.076 48.9729C259.89 48.0472 255.812 46.6519 251.277 46.5312C249.533 48.6241 250.579 52.3538 250.217 54.6748L249.761 58.874C247.319 57.9348 242.315 61.0877 243.482 56.1908C243.241 53.4002 245.696 48.8655 242.073 46.7726C237.66 47.4703 233.004 48.0472 228.926 49.6706V45.2566C233.353 43.3918 237.888 41.9965 243.013 41.8758L243.71 41.1781V33.1553C245.334 31.8673 247.775 32.6858 249.761 32.4577L250.217 33.6115Z" fill="#EF3E2E"/>
<path d="M341.823 48.9726L346.706 48.1677V48.6238C337.865 59.7994 324.945 62.1204 312.253 64.4548C296.315 67.0173 282 63.0596 266.987 61.3155C266.062 59.5714 266.639 58.0554 266.518 55.9625C266.518 49.9118 266.29 44.7868 266.746 37.5689L267.444 36.5224C290.036 47.0004 315.862 54.3391 341.823 48.9726Z" fill="#EF3E2E"/>
<path d="M148.04 148.95C154.332 156.865 165.615 162.218 165.964 172.924C164.448 173.971 162.596 175.943 160.141 174.91C157.928 173.394 155.834 169.436 152.467 170.952C150.723 171.999 149.677 174.092 150.482 176.064C151.179 176.775 151.179 177.7 151.421 178.505C149.556 178.157 148.858 176.184 148.63 174.668C149.086 173.394 147.919 171.408 146.645 170.483C145.129 170.241 143.626 170.013 142.459 169.087C140.943 167.343 144.78 163.734 141.064 164.204C138.622 166.753 138.26 172.347 133.497 170.952C132.102 168.618 129.311 171.878 128.251 168.618C126.628 169.087 124.884 168.738 123.596 167.813C121.382 165.478 121.033 162.446 119.531 159.884H119.061C119.182 165.358 121.623 170.952 126.976 174.092L127.205 174.91C126.158 176.184 123.596 174.32 123.368 176.064C125.461 177.231 127.902 177.929 130.358 177.231C129.888 178.854 125.93 178.157 128.251 179.914C130.357 180.142 132.209 178.747 134.315 179.203V179.914C133.845 179.914 133.604 180.491 133.269 180.719C133.269 181.068 133.725 181.309 134.074 181.645C135.711 181.886 137.106 179.203 138.622 181.189C153.863 187.588 168.07 202.373 171.089 218.66C175.623 223.557 176.2 230.305 177.14 236.356C177.381 240.89 176.898 245.09 175.744 248.927C175.167 244.848 176.67 239.616 175.744 235.658C175.395 234.021 175.503 231.7 173.759 231.003C171.907 232.519 173.41 233.793 173.302 235.658C172.94 239.146 174.228 243.681 171.089 245.546C169.103 245.546 169.345 243.453 168.647 242.178C168.755 237.751 170.042 230.305 165.736 227.394C164.917 228.561 166.192 230.077 166.433 231.231C166.541 235.43 166.313 239.388 165.736 243.104C165.843 245.09 167.238 246.364 168.406 247.759C174.926 254.159 183.19 261.484 188.302 269.292C192.622 277.785 185.981 286.291 189.241 295.253C189.362 299.09 188.302 303.155 187.269 306.884C187.269 312.935 190.059 323.292 183.432 327.25C185.632 322.004 186.92 315.726 186.33 310.024C185.873 309.903 185.511 309.098 185.162 309.796C184.009 311.889 183.539 314.33 182.72 316.544C182.492 313.633 185.632 311.312 183.432 308.508C182.372 308.508 181.446 308.508 180.748 309.326C180.869 309.447 180.628 308.28 180.037 308.052C178.293 308.4 177.381 310.721 175.744 311.191C174.698 311.191 174 312.237 173.061 312.237C175.623 309.447 179.232 307.354 180.976 303.973C182.144 304.094 183.66 303.866 183.432 302.457C182.841 300.834 182.613 298.969 181.795 297.453C183.888 291.053 187.148 283.259 182.72 276.859C183.888 268.474 175.167 265.563 169.694 262.531C166.782 262.195 163.871 260.679 161.416 258.694L160.383 259.861C159.216 259.284 158.518 257.54 157.002 257.419C155.835 254.159 153.983 250.201 150.482 248.927C146.417 249.852 142.915 247.76 139.655 246.015C138.85 246.485 139.078 247.518 139.306 248.001C141.063 253.113 147.463 249.624 149.314 254.749C152.118 259.512 155.607 263.121 160.96 264.516C163.053 265.791 165.736 265.912 167.95 267.079C163.294 270.567 156.774 271.144 151.179 269.99C145.947 269.99 140.473 268.474 135.469 266.851C134.194 265.911 132.33 265.912 131.162 264.744C128.251 262.651 124.065 260.558 123.837 256.48C123.261 253.582 124.655 251.597 125.581 248.927C130.585 254.749 138.152 256.842 145.947 257.419C146.068 257.191 146.537 257.07 146.417 256.721C143.264 254.629 139.078 254.977 135.71 253.582C131.981 252.066 127.446 249.396 126.051 245.09C125.93 241.709 127.097 238.798 126.976 235.43C133.027 236.705 139.548 234.961 142.808 229.607C144.203 225.999 143.505 220.874 140.594 217.734C138.622 216.46 136.636 215.292 134.315 215.051C136.287 214.353 138.622 214.823 140.594 215.99C143.264 216.46 143.384 222.967 145.705 218.432C146.068 215.869 145.25 213.307 143.734 211.214C146.296 210.396 143.854 208.075 143.975 206.559C142.459 204.694 139.776 203.54 140.594 200.977C138.501 196.899 133.966 193.639 129.66 193.988C130.586 193.532 131.86 194.108 132.558 193.062C130.358 187.709 123.368 192.592 120.698 187.239C110.448 177.7 110.69 165.009 113.936 152.331C115.573 148.252 119.061 144.643 122.912 141.732C125.581 140.927 129.539 141.732 131.404 138.244C136.167 136.151 140.138 140.565 143.975 142.899C145.008 144.992 147.691 146.508 148.04 148.95Z" fill="#BBBDBF"/>
<path d="M209.607 199.582C214.504 202.373 216.127 207.377 221.252 209.228C224.391 211.093 227.772 213.548 230.214 216.218C229.047 216.567 228.47 217.734 227.303 217.734C225.21 214.353 221.95 211.684 218.81 209.698C218.341 212.153 221.829 213.428 222.647 215.521L224.164 217.962C223.345 218.204 221.373 220.069 221.252 217.734C219.736 214.595 218.341 211.335 215.43 208.772C214.853 208.772 214.034 208.772 213.914 209.47L216.825 218.901L216.355 219.478C214.611 216.218 215.657 210.758 212.049 208.531C210.774 210.288 212.169 212.26 212.76 213.897C213.095 215.641 213.444 217.506 213.914 219.129C213.337 220.176 212.169 219.237 211.23 219.129C211.592 214.944 210.774 210.637 207.635 207.605C204.146 208.316 203.784 203.647 200.645 202.252C196.929 200.038 192.032 197.127 187.846 200.038C186.223 202.252 181.326 201.326 183.19 205.391L184.358 208.531C182.614 216.916 183.07 225.301 180.279 233.216C179.461 230.412 179.005 227.166 177.838 224.254C177.489 220.753 174.349 217.506 176.201 213.897C178.066 208.531 179.112 202.722 180.749 197.127C181.205 194.108 184.237 191.774 187.028 191.076C195.52 191.667 201.691 197.717 209.607 199.582Z" fill="#BBBDBF"/>
<path d="M332.056 192.888C332.069 193.116 331.949 193.464 332.298 193.572C332.418 193.464 332.539 193.344 332.526 193.102C335.987 197.825 335.866 204.452 338.643 209.644C338.925 212.556 341.179 215.427 339.716 218.123C337.355 222.698 336.859 227.957 335.906 232.975C333.196 224.992 332.686 215.682 331.157 207.444C332.056 205.807 333.183 203.688 331.989 201.85C331.506 201.273 330.808 201.058 329.99 201.179C327.28 199.368 324.114 197.798 320.518 198.911C315.903 200.615 312.348 203.822 309.504 207.833C309.155 207.364 308.336 207.619 307.867 207.619C304.902 210.583 304.043 214.796 304.701 218.74C303.896 219.451 302.956 219.693 302.031 219.599C301.722 215.641 304.003 212.811 304.285 209.081L303.466 208.397C300.367 211.134 300.917 215.655 299.576 219.29C299.348 219.29 299.227 219.532 299.119 219.653C299.173 216.272 301.212 212.985 301.615 209.363C301.266 208.786 300.676 208.906 300.099 208.92C297.349 211.764 295.443 215.4 293.981 218.915C293.404 219.277 292.344 218.727 291.768 218.257C292.438 217.09 293.23 215.802 293.914 214.622C294.344 213.092 297.818 211.871 296.503 209.926C293.525 212.408 290.077 214.917 288.158 218.325C287.327 217.882 286.616 217.184 285.677 216.97C286.696 214.863 288.883 213.656 290.493 212.006C291.996 211.858 292.331 210.449 293.592 209.738C296.946 208.289 299.804 205.78 301.964 202.601C303.345 201.648 305.184 200.333 306.445 199.153C315.38 197.825 322.517 186.877 331.815 192.19L332.056 192.888Z" fill="#BBBDBF"/>
<path d="M254.886 209C255.356 210.865 256.282 212.502 256.389 214.595C256.63 217.157 255.933 219.237 255.114 221.343C252.445 229.366 243.59 234.719 236.265 237.63C223.573 241.709 208.802 242.406 196.808 236.356C192.032 232.988 186.572 228.682 187.269 222.041C186.572 219.237 188.544 217.506 189.014 215.051C189.939 213.2 192.153 211.442 194.366 211.214C196.808 210.516 198.431 212.381 200.175 213.079C201.812 214.474 202.04 216.46 202.631 218.204C203.556 221.343 196.58 225.408 202.631 227.166C203.785 227.394 204.952 227.622 206.226 227.863C209.151 229.017 212.639 228.682 215.899 229.138C225.438 228.44 236.144 226.924 241.846 218.204C243.483 215.52 239.753 213.656 240.344 211.214C239.981 209.349 240.8 208.075 241.618 206.33C243.241 203.889 246.153 203.647 248.836 204.117C251.05 205.284 253.719 206.559 254.886 209Z" fill="#F0B83D"/>
<path d="M275.252 208.075C275.252 210.516 275.48 213.656 273.507 215.521C272.796 219.13 276.298 221.343 278.619 223.557C288.748 229.245 304.338 231.231 315.165 225.771C315.742 223.436 314.36 222.618 313.528 220.874C313.42 217.842 312.723 215.749 314.937 213.307C317.15 211.214 320.41 210.288 323.429 211.442C327.964 214.595 329.01 220.525 327.964 225.771C325.992 232.157 319.713 236.356 313.528 238.342C312.495 238.342 311.1 239.039 309.812 239.495C291.66 242.755 271.643 238.905 261.165 223.785C258.374 219.009 259.072 211.442 262.439 207.028C264.774 204.694 268.155 203.54 271.401 204.345C272.689 205.391 274.554 206.331 275.252 208.075Z" fill="#F0B83D"/>
<path d="M260.468 203.191V204.117C254.417 205.633 249.761 200.508 246.622 196.201C248.366 194.685 250.701 195.973 252.673 195.973C255.933 197.127 258.952 200.038 260.468 203.191Z" fill="#F0B83D"/>
<path d="M270.355 200.039C268.383 200.28 266.29 201.555 264.076 201.783L260.226 197.127C261.862 196.201 264.425 195.034 266.518 196.201C268.262 196.899 269.429 198.536 270.355 200.039Z" fill="#F0B83D"/>
<path d="M244.985 200.28C242.543 200.28 241.618 202.131 239.404 202.48L233.823 196.671L234.051 195.973C238.586 195.155 242.543 196.778 244.985 200.28Z" fill="#F0B83D"/>
<path d="M296.087 198.884C296.785 199.918 296.785 201.903 296.087 202.95C294.799 203.889 293.525 205.391 291.888 204.345C288.749 202.721 287.823 199.81 285.837 197.127C288.172 195.973 290.264 196.201 292.706 196.201C293.753 197.02 295.376 197.368 296.087 198.884Z" fill="#F0B83D"/>
<path d="M283.985 200.508C283.985 201.782 286.065 202.252 285.609 203.647C283.395 205.163 280.484 204.935 278.163 203.889C275.48 202.601 273.857 199.461 272.569 196.899C275.024 195.383 276.298 196.778 279.089 196.671C280.954 197.476 282.698 198.764 283.985 200.508Z" fill="#F0B83D"/>
<path d="M234.749 202.48V203.191C230.335 204.238 224.741 204.814 221.95 200.749C221.481 199.582 221.829 198.187 222.406 197.127C227.424 194.685 231.717 198.415 234.749 202.48Z" fill="#F0B83D"/>
<path d="M243.241 128.584C243.939 129.859 242.785 131.844 244.18 132.77C247.078 132.421 251.975 134.755 253.129 130.798V128.812C255.235 128.114 257.798 128.356 259.998 128.584C260.937 129.859 259.77 132.662 261.863 132.77C264.304 131.723 268.732 134.058 269.657 130.798V128.584C272.461 127.417 275.708 128.812 278.619 128.356C279.21 129.282 279.666 130.449 279.089 131.495C277.814 131.951 275.949 131.495 275.48 133.239C275.48 135.212 274.085 136.956 272.569 137.774C271.294 138.941 268.383 137.425 268.504 139.988C268.262 140.927 268.852 142.081 267.913 142.671C260.816 143.476 252.901 143.02 246.152 142.429C245.226 141.276 246.273 138.713 243.939 138.015C241.967 137.425 239.283 137.774 238.129 135.681C237.781 134.514 238.009 133.239 236.734 132.421C236.023 131.844 234.749 132.77 234.279 131.723C233.005 126.021 240.451 128.584 243.241 128.584Z" fill="#BBBDBF"/>
<path d="M267.685 147.434C267.216 148.95 269.081 152.559 266.062 151.861L247.427 151.633C246.273 150.224 247.32 148.48 247.427 146.978C253.478 146.629 260.696 146.629 267.216 146.978L267.685 147.434Z" fill="#BBBDBF"/>
<path d="M267.913 155.242L268.504 172.227C262.439 172.455 254.188 172.227 246.38 171.999C246.622 166.404 245.803 159.428 247.078 154.303L247.896 153.833L267.216 154.075L267.913 155.242Z" fill="#BBBDBF"/>
<path d="M270.127 174.668C271.294 176.533 270.476 179.324 271.053 181.417L270.127 181.886L243.711 181.645C243.241 179.445 243.711 177.003 244.18 174.91C253.371 173.863 261.286 174.789 270.127 174.668Z" fill="#BBBDBF"/>
<path d="M273.735 185.724C274.433 187.011 274.433 189.225 273.735 190.379C263.15 189.802 251.384 190.62 240.571 189.681C239.981 188.514 240.571 186.783 241.027 185.495C252.203 185.147 263.378 185.147 273.735 185.724Z" fill="#BBBDBF"/>
<path d="M241.846 102.168C239.981 104.261 244.408 107.172 240.799 107.279C239.874 102.637 233.005 107.749 234.749 101.926C234.279 101.001 232.186 101.121 232.656 100.075C233.823 99.7261 235.098 98.7869 235.795 97.6197C234.521 95.1779 232.065 98.6662 230.684 97.1636C231.032 97.1636 233.823 97.3916 234.521 95.8756C234.279 93.2058 230.791 95.1779 229.154 94.2522L228.698 94.9499C227.879 91.2202 230.093 88.3089 229.744 85.0622C228.805 83.895 230.214 83.0766 230.442 82.1509C232.763 89.248 244.059 93.4339 241.846 102.168Z" fill="#F0B83D"/>
<path d="M292.706 101.001C292.947 102.047 292.357 103.442 291.431 104.381C289.446 106.126 285.716 105.656 285.139 108.446C287.246 110.191 288.748 107.641 290.734 107.521C292.357 107.641 293.98 107.4 295.376 106.582C297.241 104.958 297.831 102.865 298.757 100.772C299.334 100.303 300.152 100.531 300.85 100.531C297.938 103.912 301.896 110.539 296.785 112.632C295.148 113.343 292.706 112.995 291.19 111.707C290.144 110.66 289.218 109.386 287.823 109.493C286.427 111.948 290.841 113.223 290.492 115.785C290.841 118.106 289.795 120.212 287.823 121.366H284.442C285.609 120.669 287.581 120.44 288.279 118.696C289.325 116.362 287.474 114.618 287.125 112.632C285.367 110.432 282.456 109.493 280.363 109.963C277.117 110.781 273.038 112.525 272.34 116.241C271.871 118.924 271.871 122.533 271.643 124.747C269.657 121.245 269.899 115.892 272.34 112.404C273.857 109.614 277.693 110.432 278.391 107.051C282.228 103.442 289.446 105.656 291.19 99.4845C292.116 99.4845 292.116 100.531 292.706 101.001Z" fill="#F0B83D"/>
<path d="M246.622 109.037C246.273 110.66 245.227 112.995 246.622 114.497C248.366 114.739 249.064 112.525 250.58 111.948L255.812 110.888C253.478 112.404 251.278 114.739 248.836 116.013C248.018 116.483 247.776 115.315 247.078 115.315C245.697 116.134 246.046 118.348 244.181 118.924C244.758 117.878 245.335 116.604 244.986 115.544C244.637 115.316 244.409 114.846 243.939 115.087C242.665 116.241 242.665 117.878 241.269 118.924C240.921 118.227 241.269 116.831 240.102 116.241C238.13 116.483 239.163 121.608 236.735 118.455C235.447 118.348 234.87 119.971 233.824 120.32C234.28 119.971 234.28 117.999 232.884 117.757L230.443 119.622L230.214 117.408C228.35 116.604 227.183 118.924 225.787 119.622C225.09 118.348 229.986 117.529 227.303 115.785C225.787 115.544 225.09 117.408 223.694 117.408C224.392 115.195 227.075 116.013 227.773 114.041C229.852 115.315 233.005 114.846 234.977 113.571C238.009 110.083 242.544 109.144 246.622 109.037Z" fill="#F0B83D"/>
<path d="M259.77 114.041C259.072 116.604 258.844 120.669 259.998 123.231V124.975C256.859 125.552 252.552 124.747 250.218 125.673C249.641 127.31 250.459 128.584 249.533 130.1L246.622 129.859C245.696 128.356 247.669 125.552 244.985 124.975C244.409 125.203 243.483 125.203 243.013 124.506C242.785 122.413 244.757 121.943 246.152 121.138C248.366 118.348 251.854 117.409 254.189 114.846C256.04 114.497 257.677 112.995 258.723 111.13C261.058 111.009 259.072 112.995 259.77 114.041Z" fill="#F0B83D"/>
<path d="M268.96 73.1889C269.778 72.7193 269.657 71.4448 270.825 71.9009C273.159 73.417 271.871 78.6627 275.949 77.254C277.345 79.6957 270.945 79.2396 273.508 82.1509C274.313 81.9094 275.48 81.6813 275.708 82.8485C275.6 84.0157 275.949 85.6391 274.554 85.9879H273.964C273.964 85.0622 275.252 83.895 273.736 83.3047C272.689 83.0767 272.341 83.895 271.871 82.8485C271.992 82.2582 273.038 81.6813 272.341 80.8629C271.053 80.6348 269.899 78.4212 268.504 79.9372C267.685 79.4676 268.155 78.0724 266.987 78.1931C266.062 77.9516 265.015 78.6627 264.304 79.4677C263.956 76.4491 263.727 73.9939 264.546 70.7338C266.29 71.096 267.216 73.0682 268.96 73.1889Z" fill="#F0B83D"/>
<path d="M229.154 77.7238C226.364 78.7702 229.744 81.9096 227.303 83.3049C227.423 85.2905 228.001 86.9138 226.833 88.6713C225.089 87.5041 224.271 85.4112 223.452 83.5464C224.163 81.212 224.74 78.5422 226.243 76.7981L226.833 75.0405C228.001 75.4027 228.349 76.9054 229.154 77.7238Z" fill="#F0B83D"/>
<path d="M259.193 78.77C259.193 79.1188 259.193 80.0446 259.998 80.3934H260.696C260.938 81.1044 259.998 80.9837 259.998 81.5606C259.891 82.7278 260.817 83.7742 261.863 84.0157C262.682 84.123 263.259 84.0157 263.836 83.5462C262.91 83.895 261.635 84.9415 260.468 84.4719C258.724 83.6669 260.937 80.6349 258.496 80.3934C256.859 81.8021 257.798 84.4719 256.631 85.7598C256.161 87.732 254.296 89.4761 255.356 91.8105C254.766 94.1315 252.673 94.3729 250.808 95.1779C248.715 95.6475 246.502 95.6475 244.758 96.5732C245.576 91.6898 252.673 93.7826 253.948 88.6711C252.324 87.3831 251.05 89.8249 249.534 90.2945L247.078 91.1128C246.85 89.9456 247.897 88.8992 248.595 87.9601C249.99 87.504 251.627 85.8672 253.129 86.9136C254.417 86.8063 253.827 85.1695 253.72 84.4719C252.445 83.3047 252.901 81.8021 253.478 80.3934L253.948 79.9372C254.538 80.8629 255.464 81.8021 256.631 81.9094C258.026 80.5141 255.692 78.0723 257.557 76.5563C258.496 77.254 260.226 76.9052 259.193 78.77Z" fill="#F0B83D"/>
<path d="M259.542 95.8754C257.677 98.3306 256.04 100.303 256.04 103.214C256.509 103.791 257.1 104.032 257.797 103.912C256.161 107.641 251.854 107.051 249.292 109.493C249.412 106.125 254.645 104.609 254.886 100.772C254.537 100.303 254.189 100.182 253.719 100.303C251.747 102.637 249.184 104.958 247.427 107.521C246.045 104.489 252.673 102.168 251.747 97.6195C254.645 97.9683 256.858 91.4615 259.542 95.8754Z" fill="#F0B83D"/>
<path d="M249.064 98.0892C249.882 101.47 245.227 102.745 244.516 105.535C243.362 104.033 243.591 102.745 244.181 100.772C244.878 98.6661 247.079 98.2099 249.064 98.0892Z" fill="#F0B83D"/>
<path d="M263.835 89.8248C263.727 90.4151 263.15 90.6431 262.909 91.1127H261.862C261.634 90.415 262.332 90.0528 262.439 89.5967C262.909 89.704 263.486 89.476 263.835 89.8248Z" fill="#F0B83D"/>
<path d="M272.797 92.2666C273.159 92.9642 272.341 92.9642 272.113 93.2057C270.825 93.2057 270.717 91.8104 270.355 90.8712C270.355 90.4151 270.476 89.5968 271.053 89.8248C271.053 90.8713 271.871 91.9177 272.797 92.2666Z" fill="#F0B83D"/>
<path d="M269.201 94.0242C270.248 94.9499 271.173 95.8756 271.052 97.3916C270.945 97.2709 270.824 97.0428 270.596 97.1636C270.476 97.8612 271.052 98.5588 270.127 99.2565C268.852 97.9685 269.778 94.7084 267.443 94.0242C265.941 95.0572 267.336 96.694 267.215 98.0893C266.169 96.9221 263.834 96.3452 264.773 94.4804C265.941 93.7828 266.41 91.9179 267.913 91.5691L269.201 94.0242Z" fill="#F0B83D"/>
<path d="M265.35 101.926C264.197 100.88 264.545 99.2564 263.15 98.3307C264.304 98.9075 265.471 100.424 265.35 101.926Z" fill="#F0B83D"/>
<path d="M263.15 105.535L262.44 107.051C263.03 104.609 258.375 102.637 262.104 100.772C262.789 102.275 263.835 103.912 263.15 105.535Z" fill="#F0B83D"/>
<path d="M260.105 88.7785L259.032 87.9736C259.032 87.9736 258.75 88.9127 259.287 89.5969C259.837 90.2677 260.105 88.7785 260.105 88.7785Z" fill="#F0B83D"/>
<path fill-rule="evenodd" clip-rule="evenodd" d="M266.276 87.8125C266.276 87.8125 267.672 86.766 268.772 86.7392C268.383 86.7794 267.229 86.8196 267.229 86.8196C267.229 86.8196 266.679 85.9343 266.679 84.2438C266.343 86.0818 265.794 87.2222 265.794 87.2222L266.276 87.8125Z" fill="#F0B83D"/>
<path d="M390.001 140.927C395.005 142.43 399.66 147.675 401.404 152.559C404.785 165.599 403.618 180.263 392.214 188.863C388.846 189.681 384.312 188.863 382.782 192.593C383.131 194.109 384.768 192.593 385.466 193.76C381.508 193.29 378.127 196.081 375.458 199.113C375.216 200.387 374.062 201.675 374.518 202.95C372.197 204.935 370.332 207.149 370.681 210.168C370.923 210.637 371.379 210.758 371.848 210.758C370.104 213.2 368.937 216.567 370.453 219.13C370.681 219.478 370.923 219.827 371.379 219.707C372.895 217.037 374.76 215.172 377.658 214.354H381.267C378.127 215.293 374.29 216.567 373.123 220.176C371.62 222.967 371.62 226.576 373.123 229.366C375.914 233.324 380.583 235.886 385.936 235.43L388.364 234.719C388.605 239.267 391.168 244.848 387.089 248.229C382.555 253.461 376.034 254.159 369.876 255.554C369.635 255.782 369.166 256.024 369.166 256.48C370.923 257.889 373.002 255.903 375.216 256.252C380.583 254.629 385.935 253.113 390.001 248.457C391.275 251.489 392.684 255.554 390.698 258.694C388.364 261.377 385.117 264.047 381.736 265.214C373.592 269.064 363.705 271.037 354.153 269.521H353.455C352.999 268.944 351.832 268.944 351.013 268.595C350.195 267.428 347.753 268.246 347.874 266.381C355.668 264.637 363.584 260.559 367.314 253.113C369.514 249.504 376.035 251.717 376.504 246.016C375.216 245.09 374.062 246.834 372.774 247.29C369.984 248.001 367.77 249.034 364.858 248.457C361.37 249.853 359.626 253.703 358.821 256.95C357.305 257.07 356.595 258.815 355.441 259.391C353.697 256.842 351.939 261.028 350.087 261.377C348.33 261.847 347.284 261.484 345.66 262.316C341.233 264.986 334.833 267.079 333.331 272.901C333.787 278.026 329.601 282.212 331.224 286.747C331.694 291.644 336.47 296.635 332.62 301.531C332.163 302.578 333.331 303.383 334.028 303.504C335.531 302.927 335.652 304.443 336.242 305.14C338.214 307.461 341.005 309.326 343.339 311.419C340.656 311.647 338.094 309.447 336.47 307.582C336.121 307.931 335.29 307.931 335.29 308.508C337.047 311.54 338.442 315.605 342.051 316.772C342.521 317.121 342.172 317.819 342.749 317.939C342.99 316.665 344.493 317.47 345.204 317.47C345.432 317.819 345.781 317.939 345.66 318.288C340.187 319.804 338.214 313.861 335.531 310.493C335.652 309.447 335.182 308.508 334.377 308.052C333.331 308.052 332.163 308.052 331.922 308.977C333.089 314.8 334.712 320.971 339.837 325.278C333.331 322.353 333.908 314.559 330.875 309.326C330.178 308.977 329.601 309.796 329.48 310.252C329.722 316.195 330.419 322.004 333.089 326.901C329.36 326.204 329.132 321.897 328.313 318.986C327.736 312.238 329.843 305.717 327.039 299.787C327.159 292.69 327.964 284.305 326.341 277.087C326.931 273.948 326.811 270.46 328.313 267.656C330.997 264.168 333.68 260.8 336.926 257.889L337.288 258.117L338.214 256.252L349.39 245.09C349.967 240.314 348.33 234.612 349.618 229.608C349.618 228.789 351.013 227.864 349.846 227.166C347.874 227.971 347.632 230.305 346.948 232.049C346.465 236.584 347.874 241.011 345.66 244.848C343.916 245.667 343.218 244.728 342.749 243.104C342.749 239.495 341.702 236.235 342.749 232.989C342.87 232.157 342.628 231.459 342.051 230.761C339.609 231.352 340.777 234.263 340.186 235.886V248.685C337.396 237.979 338.214 226.576 344.963 217.265C347.632 203.07 359.049 189.225 372.546 183.282C375.108 182.356 377.657 178.506 380.582 181.189C381.038 181.189 381.508 181.068 381.736 180.719C381.964 179.673 380.81 179.914 380.582 179.203C382.326 177.58 384.648 180.491 387.331 179.445C387.787 179.324 387.559 178.854 387.559 178.506C386.74 177.808 385.694 177.929 384.875 177.003C387.438 177.808 390.349 176.882 391.745 175.138C390.47 174.32 389.196 175.715 388.149 174.669C388.847 173.166 390.698 171.529 392.214 170.241C393.73 166.874 397.098 163.614 395.823 159.656C393.959 160.233 394.307 162.567 393.609 163.962C392.442 165.479 392.335 167.92 390.001 168.269C388.028 168.269 386.391 168.148 384.875 170.013C383.024 168.497 381.616 171.999 379.644 170.711C375.914 169.906 376.383 165.25 373.365 163.734C371.728 165.479 374.518 169.316 370.923 169.785C369.165 170.134 367.193 170.832 366.482 172.696C366.603 174.91 366.723 177.352 364.402 178.278L363.584 178.049C364.403 176.533 365.677 174.91 364.858 172.924C364.63 171.65 363.115 171.06 362.189 170.483C357.305 169.906 354.394 178.854 349.618 173.166C348.813 159.777 365.329 155.591 369.407 144.643C373.123 141.155 377.429 137.197 382.782 137.546C384.996 138.941 386.861 141.383 390.001 140.927Z" fill="#BBBDBF"/>
<path d="M394.655 269.762C386.511 278.603 375.215 282.212 363.583 281.394C360.672 280.817 358.687 279.998 355.896 278.952C352.877 277.436 351.831 274.176 350.315 271.493C362.886 274.176 375.685 271.613 385.935 265.442C388.256 263.47 390.697 261.605 393.139 259.633C394.306 262.772 396.976 266.381 394.655 269.762Z" fill="#BBBDBF"/>
<path d="M399.19 273.948C400.129 275.571 400.008 277.906 399.659 279.77C395.822 286.867 387.666 289.765 380.112 291.053C371.848 290.933 361.021 292.918 357.533 282.91L357.305 282.668C359.518 282.44 362.537 284.184 365.555 283.835C377.549 284.775 389.195 279.77 396.748 270.808C398.613 271.036 398.143 273.022 399.19 273.948Z" fill="#BBBDBF"/>
<path d="M404.087 285.821C405.012 289.309 402.101 291.282 400.706 293.737C392.213 300.136 379.173 304.443 369.165 298.392C367.891 296.527 366.374 294.783 365.328 292.798C370.802 293.267 378.02 295.132 383.949 293.039C389.302 291.872 393.837 289.081 398.265 285.58C399.432 284.305 400.598 282.32 402.101 281.863L404.087 285.821Z" fill="#BBBDBF"/>
<path d="M407.924 295.709C406.998 301.88 400.009 306.885 394.428 308.508C388.847 310.145 381.387 311.07 376.745 306.885L373.833 303.504C378.475 303.383 384.996 303.973 389.772 302.001C393.488 301.183 397.218 298.62 400.706 296.635C402.691 294.891 403.739 292.221 406.06 290.825C407.106 292.221 406.998 294.193 407.924 295.709Z" fill="#BBBDBF"/>
<path d="M410.379 302.927C411.305 305.597 410.835 308.977 408.85 310.963C404.208 317.242 396.293 319.107 388.605 317.711C385.466 316.772 383.48 315.028 381.508 312.466C391.986 313.633 403.846 310.024 408.622 299.787C409.789 300.244 409.668 302.001 410.379 302.927Z" fill="#BBBDBF"/>
<path d="M411.761 319.214C407.347 324.916 399.19 325.506 392.911 324.339C391.167 323.641 389.999 321.897 389.074 320.381C397.673 321.669 407.226 318.637 412.123 310.493C413.397 313.042 413.626 316.772 411.761 319.214Z" fill="#BBBDBF"/>
<path d="M413.519 328.417C408.85 331.677 401.874 332.603 396.521 330.389C395.246 329.92 395.126 328.417 394.428 327.478C401.297 327.72 409.213 326.901 413.747 320.381C414.794 322.715 415.021 326.324 413.519 328.417Z" fill="#BBBDBF"/>
<path d="M412.807 337.138C409.212 339.351 403.51 339.123 399.431 337.379C398.734 336.319 397.566 335.165 398.036 333.998C403.738 335.045 409.547 333.529 414.216 330.617C413.746 332.254 415.263 335.863 412.807 337.138Z" fill="#BBBDBF"/>
<path d="M412.338 343.43C409.091 346.1 403.966 345.523 400.478 343.899C399.083 342.84 399.552 341.914 399.432 340.277C403.389 341.444 409.212 342.383 413.049 339.579C413.157 340.747 412.928 342.263 412.338 343.43Z" fill="#BBBDBF"/>
<path d="M411.064 346.797C410.487 349.132 409.212 351.104 407.924 353.089C405.255 353.559 402.102 353.666 400.25 351.453C399.552 349.709 398.613 348.434 399.66 346.569C403.269 347.736 407.468 348.541 411.064 346.797Z" fill="#BBBDBF"/>
<path d="M403.39 355.531C404.315 354.834 405.59 355.062 406.529 355.29C401.525 362.159 394.656 367.405 386.861 368.8C381.387 368.679 376.034 370.772 372.318 366.237C371.621 364.493 372.425 362.749 373.592 361.354C379.871 356.699 387.331 356.699 394.428 353.787L394.656 354.136C393.032 357.396 389.424 360.187 386.392 362.052V362.749C389.652 363.796 391.624 360.187 394.656 359.596C395.005 361.582 397.218 361.582 398.506 361.81C398.734 361.582 399.191 361.354 399.191 360.884C397.929 359.959 396.4 359.489 396.051 357.745C396.641 356.001 396.869 354.136 398.506 352.848C399.552 354.485 401.525 355.183 403.39 355.531Z" fill="#BBBDBF"/>
<path d="M378.825 131.267L377.43 129.858L376.746 130.798C377.081 131.026 376.853 131.495 376.973 131.723C376.155 129.63 375.457 127.189 375.685 124.975C377.322 126.84 378.597 128.812 378.825 131.267Z" fill="#BBBDBF"/>
<path d="M373.364 133.467C373.592 133.937 371.955 132.542 371.62 133.937V135.104C370.573 133.937 369.513 132.421 370.224 130.797C371.499 131.026 372.774 132.193 373.364 133.467Z" fill="#BBBDBF"/>
<path d="M332.391 232.988C333.089 238.221 335.651 242.634 336.698 247.759C334.377 249.745 331.345 246.592 329.721 249.745C325.884 254.508 331.586 262.423 325.643 266.381C322.262 273.72 324.596 283.017 324.824 290.128C324.019 295.481 324.127 301.639 325.884 307.354C320.518 285.928 310.161 263.121 319.82 241.011C322.383 236.825 326.461 232.277 331.693 232.277L332.391 232.988Z" fill="#F0B83D"/>
<path d="M390 128.356C390.697 130.677 387.665 132.77 389.771 134.165C392.334 132.314 392.213 127.417 396.292 127.189C396.292 129.859 394.655 132.421 394.186 135.104L394.655 135.681C397.566 133.937 397.566 130.1 401.175 129.51C401.404 132.542 399.19 135.104 398.264 137.774C400.129 138.593 400.706 136.151 402.342 135.332C403.389 134.984 404.207 134.058 405.482 134.407C404.556 136.849 401.296 138.593 401.873 141.155C404.208 141.155 405.254 137.318 407.924 137.546C406.756 140.109 403.04 141.504 404.086 144.294C406.636 143.825 407.923 140.337 410.835 140.927C410.137 143.369 405.133 144.992 406.757 148.024C408.514 147.555 409.668 145.341 411.761 145.81C410.017 147.206 406.528 148.722 407.226 151.392C409.788 150.694 411.881 147.555 414.672 148.722C414.336 149.527 412.807 149.889 413.049 151.164C413.277 152.438 414.672 152.089 415.491 152.787C413.518 151.74 411.411 152.68 409.895 153.833C410.378 155.698 412.579 154.075 413.518 155.242C412.928 155.47 412.123 155.242 411.761 155.94C412.338 157.684 414.565 158.14 416.416 158.14C418.402 159.079 419.327 161.051 420.266 162.795C417.006 162.795 415.611 159.884 412.579 159.656C411.881 159.656 411.532 160.702 412.123 161.051C414.793 163.842 419.917 165.599 420.025 170.013C417.113 168.618 414.565 166.283 411.063 166.176C410.137 168.497 413.277 168.618 414.444 169.785C416.068 171.301 417.462 172.924 417.824 174.91C415.718 172.817 412.927 170.241 409.895 170.483C409.439 170.831 409.668 171.529 409.668 171.999C410.017 173.045 411.184 172.455 411.761 172.924C416.765 176.185 415.96 182.356 418.173 187.011C413.276 185.388 413.518 179.324 408.849 177.58C407.226 179.203 410.607 180.719 411.063 182.356C413.398 186.542 414.913 192.364 412.579 196.899C406.059 203.419 396.171 206.451 394.186 215.99C391.274 222.618 381.159 221.464 381.507 229.836C379.871 228.44 380.917 226.106 381.266 224.483C383.828 219.599 390.818 221.571 392.213 216.218C391.864 215.641 391.274 215.749 390.697 215.749C386.391 219.237 378.717 220.069 377.899 226.924C377.657 228.682 378.824 229.956 379.173 231.58C376.973 230.533 375.336 227.863 374.987 225.529C375.215 222.269 376.744 219.478 379.87 217.962C384.405 216.795 389.771 215.869 393.608 212.153C393.729 211.684 393.609 211.214 393.139 210.986C390.121 212.032 386.512 213.079 383.252 211.912C379.763 210.516 375.805 212.261 372.773 214.125C372.773 212.261 374.518 210.865 375.913 209.698C381.856 207.498 387.665 211.563 394.186 210.516C394.897 209.819 395.581 208.88 395.353 207.605C396.52 207.149 398.036 206.559 398.505 205.391C397.338 204.815 395.124 205.391 393.608 204.935C389.543 203.419 389.892 197.717 384.874 197.597H380.581C382.084 196.201 384.405 196.201 386.391 196.671C391.744 198.536 392.911 207.028 399.887 203.889C400.706 203.299 401.994 203.647 402.571 202.48L401.645 201.554C399.31 201.206 396.52 202.131 394.655 200.75C392.441 197.946 392.213 194.109 388.846 192.016C390.59 191.774 392.442 192.485 394.186 193.29C397.446 197.02 401.055 201.447 406.528 199.582C407.226 199.113 408.272 199.113 408.849 198.066L408.621 197.369C405.254 196.899 400.008 198.066 398.264 193.76C397.674 192.941 398.264 192.136 398.505 191.305C400.933 193.88 404.664 197.248 409.212 195.973C410.379 194.927 412.928 195.276 413.049 193.062C411.533 191.077 410.258 193.639 408.621 193.532C406.636 193.639 404.663 193.532 403.389 192.016C400.934 185.723 408.514 181.766 407.695 175.138C410.137 162.218 407.105 146.387 394.896 138.244C391.744 136.5 388.363 134.984 384.874 133.937C383.949 132.072 386.512 130.798 387.33 129.51C387.666 128.235 388.604 127.068 388.363 125.445C389.195 126.022 389.651 127.31 390 128.356Z" fill="#F0B83D"/>
<path d="M390.698 207.605C385.815 209 381.736 201.205 375.914 204.345C378.127 201.903 381.508 202.131 384.406 202.721C386.982 203.647 387.787 207.377 390.698 207.605Z" fill="#F0B83D"/>
<path d="M398.961 237.054C398.143 240.542 396.292 245.667 398.734 249.155C399.78 251.489 401.873 253.113 403.617 254.749C401.766 257.889 400.129 261.726 402.571 264.986C404.087 267.776 409.789 267.897 406.301 271.734C405.362 273.827 405.482 275.571 405.482 278.026C399.082 263.939 393.032 248.685 393.837 232.519C395.353 234.142 396.976 236.356 398.961 237.054Z" fill="#F0B83D"/>
<path d="M413.049 286.747C412.58 289.537 409.896 291.979 411.533 295.011C412.807 297.332 414.914 299.439 417.114 300.592C416.068 302.578 415.491 304.899 414.672 307.126C411.654 298.741 410.138 289.658 406.757 281.394C408.515 283.608 410.956 285.003 413.049 286.747Z" fill="#F0B83D"/>
<path d="M419.1 316.544L416.658 319.214C416.068 316.893 415.96 314.33 415.719 311.889C416.551 313.982 418.402 314.33 419.1 316.544Z" fill="#F0B83D"/>
<path fill-rule="evenodd" clip-rule="evenodd" d="M329.856 228.923C329.105 229.151 330.715 227.756 330.822 226.898C330.929 226.026 331.359 228.83 331.359 228.83C331.359 228.83 330.607 228.722 329.856 228.923Z" fill="#231F20"/>
<path d="M374.062 208.316L374.987 207.605H375.685L374.062 208.316Z" fill="#BBBDBF"/>
<path d="M387.786 226.696C388.712 228.32 388.148 230.413 388.363 232.277C387.665 233.324 386.632 232.277 385.935 232.277C384.526 231.352 383.721 229.728 384.405 228.092C384.995 227.273 385.237 225.999 386.162 225.529C387.329 225.06 387.209 226.576 387.786 226.696Z" fill="#F0B83D"/>
<path d="M379.871 146.28C381.159 145.81 382.675 146.159 383.721 146.977C384.311 148.252 382.782 148.373 382.326 148.95C377.429 150.117 373.592 155.242 368.011 152.559C368.239 151.271 369.285 150.224 369.876 148.95C370.801 147.675 372.076 146.508 373.592 146.038C375.685 146.159 378.019 149.178 379.871 146.28Z" fill="#231F20"/>
<path d="M414.216 292.569C413.277 289.417 421.783 284.882 414.216 284.305C412.807 283.366 411.063 282.44 410.379 280.696C414.913 279.65 419.555 278.952 424.452 278.482C425.15 278.952 426.197 278.724 426.774 279.529C428.169 280.226 427.82 282.319 427.592 283.607C426.317 284.882 424.909 286.519 423.634 287.216C423.634 287.686 422.709 288.384 423.634 288.732C420.817 290.45 415.142 292.341 414.216 292.569Z" fill="#BBBDBF"/>
<path d="M430.973 220.418C433.187 222.618 434.689 225.529 437.721 226.924C438.419 226.817 438.767 226.106 438.995 225.529C442.148 229.138 443.422 234.142 445.287 238.57C445.757 238.57 446.334 238.69 446.683 238.1C447.957 241.467 447.153 244.5 447.367 248.457C449.702 252.294 448.199 257.54 446.911 261.377C446.093 264.637 442.148 265.335 441.33 268.595C442.497 269.99 443.423 268.595 444.698 268.353C447.488 267.897 449.594 268.944 451.566 270.339C450.641 273.25 448.776 276.39 445.757 277.785C445.06 278.026 444.818 278.724 445.06 279.529C447.367 281.286 450.762 280.575 452.734 283.366C455.176 285.928 456.101 289.081 457.389 292.1C455.068 293.267 457.51 295.36 457.161 297.104C456.798 299.787 460.408 303.155 457.389 305.368C456.571 308.401 455.524 311.312 455.645 314.558C453.083 317.591 452.264 321.32 448.427 323.064C446.334 324.339 444.349 326.553 442.846 328.417C441.679 326.083 443.892 323.534 443.772 320.851C445.516 315.256 449.004 309.796 446.683 303.276C445.167 297.225 440.042 292.569 434.112 291.053C428.29 290.356 422.239 290.356 417.114 291.872C416.188 292.1 415.142 292.341 414.216 292.569C418.75 290.892 420.75 289.98 423.634 288.732C426.197 286.975 429.926 285.352 430.503 281.863C430.154 280.455 430.034 278.831 429.229 277.557C426.317 274.874 423.057 276.618 419.556 276.041L414.444 276.618C423.634 270.46 430.624 260.331 432.368 249.155C433.522 239.737 431.429 229.608 430.503 220.418H430.973Z" fill="#F0B83D"/>
<path d="M435.279 227.622C439.586 240.421 438.07 255.098 432.838 266.85C432.368 267.776 431.322 268.943 430.275 268.125C429.457 266.26 431.201 264.288 432.127 262.531C435.628 253.112 437.95 242.286 434.81 232.049C434.233 230.412 433.763 228.682 434.34 226.924C434.689 226.924 435.038 227.394 435.279 227.622Z" fill="#231F20"/>
<path d="M443.545 246.243V247.062H442.847V245.787C443.182 245.787 443.545 245.895 443.545 246.243Z" fill="#231F20"/>
<path d="M440.633 263.242C438.889 265.442 438.071 269.064 434.811 269.521C433.416 266.502 437.843 265.214 438.42 262.316C440.982 258.345 441.559 253.582 442.606 248.927L443.303 248.457C443.545 253.582 442.149 258.586 440.633 263.242Z" fill="#231F20"/>
<path d="M451.111 290.356C453.673 294.555 454.947 300.243 453.673 305.14C452.734 303.866 453.539 302.699 452.962 301.303C451.916 295.36 449.126 289.765 443.545 285.821C443.424 285.003 443.893 283.956 445.06 284.305C447.368 285.928 449.353 288.035 451.111 290.356Z" fill="#231F20"/>
<path d="M450.051 308.977C449.005 314.33 447.623 320.153 444.698 325.036C444.35 324.808 444.228 324.218 444.228 323.534C444.698 322.353 445.409 321.199 445.516 319.683C446.684 315.498 448.199 311.419 448.669 306.884C448.428 301.639 445.866 296.876 442.149 292.798C441.908 292.221 442.149 291.523 442.847 291.402C448.67 295.253 450.883 302.699 450.051 308.977Z" fill="#231F20"/>
<path d="M468.673 352.378C469.612 360.066 462.165 366.935 456.571 371.013L452.264 373.683C449.943 368.451 447.957 362.508 446.441 356.698C451.11 352.741 457.041 351.694 462.971 350.178C465.077 351.225 467.398 349.829 468.673 352.378Z" fill="#00B6F1" stroke="white" stroke-width="0.228074" stroke-miterlimit="3.864"/>
<path d="M482.759 363.098C485.321 374.032 492.539 383.812 490.554 396.263C482.88 412.671 464.835 420.237 449.822 427.227C448.078 427.683 446.442 428.381 444.469 428.381C440.042 416.4 436.675 404.057 433.415 391.607C434.931 390.802 437.479 391.03 439.237 389.863C455.175 384.51 473.569 376.246 480.317 358.671C481.471 359.489 481.954 361.582 482.759 363.098Z" fill="#00B6F1" stroke="white" stroke-width="0.228074" stroke-miterlimit="3.864"/>
<path d="M418.871 389.863C418.63 390.91 417.463 391.835 416.658 392.305C414.793 393.472 413.049 394.639 411.063 395.444C412.231 393.593 415.839 390.802 418.871 389.863Z" fill="#00B6F1" stroke="#00B6F1" stroke-width="0.228074" stroke-miterlimit="3.864"/>
<path d="M123.368 415.823C142.915 421.525 162.248 427.455 182.492 431.292C198.552 435.598 216.355 436.886 233.823 438.631C259.3 441.891 285.139 437.933 309.342 435.478C328.205 432.808 346.464 428.501 364.402 423.39C385.586 417.446 407.105 412.442 425.606 400.113L430.275 394.746L431.201 395.686C434.689 409.531 439.237 422.92 444 436.189C445.167 440.952 446.334 447.244 442.149 450.732C410.258 468.884 375.457 477.376 339.381 485.292C332.042 486.11 324.127 487.626 316.909 488.673C290.734 491.933 261.755 492.617 234.749 491.933C225.438 491.571 216.945 490.766 207.863 489.719C194.487 489.142 181.916 486.338 169.103 484.125C135.469 476.92 101.607 468.2 71.8094 451.43C68.0798 448.76 67.2751 444.802 67.9727 440.723C71.4609 427.924 76.4648 415.823 80.0737 403.011C80.8921 399.992 81.4692 396.96 82.9852 394.29C94.1608 406.512 109.053 410.698 123.368 415.823Z" fill="#00B6F1" stroke="white" stroke-width="0.228074" stroke-miterlimit="3.864"/>
<path d="M391.986 395.444C387.787 397.899 383.373 398.932 378.597 398.597C378.127 397.202 380.34 397.658 381.038 396.732C384.767 395.686 387.907 395.686 391.986 395.444Z" fill="#00B6F1" stroke="#00B6F1" stroke-width="0.228074" stroke-miterlimit="3.864"/>
<path d="M375.913 409.075C374.76 409.652 372.197 410.47 369.876 410.47C369.286 409.773 369.407 408.364 369.407 407.559L375.913 409.075Z" fill="#00B6F1" stroke="#00B6F1" stroke-width="0.228074" stroke-miterlimit="3.864"/>
<path d="M476.252 346.328C480.546 356.001 474.494 365.191 467.746 371.711C459.012 379.385 448.427 383.813 437.721 387.301L432.596 387.998C433.065 386.845 431.671 386.254 432.127 385.087C447.153 380.204 462.742 373.804 471.356 358.443C472.402 355.88 472.644 352.741 471.356 350.178C468.672 346.569 464.835 347.616 460.998 347.737C454.947 349.481 448.897 350.997 443.772 354.834L443.074 356.457C445.408 362.629 447.152 368.921 449.124 375.199C447.957 376.018 446.334 376.595 445.06 377.292C442.497 373.576 442.027 368.451 439.934 364.265C439.706 359.838 433.414 354.136 439.237 350.876C447.957 346.328 457.51 342.84 467.518 341.914C470.658 342.035 474.146 343.309 476.252 346.328Z" fill="#F0B83D"/>
<path d="M126.977 400.811C131.163 401.737 136.516 402.541 139.655 399.174C140.594 396.732 137.683 395.565 136.408 394.519C129.888 391.379 121.624 391.728 114.178 391.379C113.011 390.44 111.843 389.742 110.797 388.468C119.88 387.421 129.539 389.045 138.152 390.91C140.943 392.882 145.478 393.472 146.189 397.658C146.766 400.341 145.37 402.783 143.264 403.722C136.516 406.513 130.707 404.876 123.596 403.95C116.62 402.662 110.69 398.704 105.444 393.123C101.366 389.166 96.9515 384.161 91.3704 386.026C90.324 387.073 90.1898 388.817 90.6728 390.212L91.9473 392.305C101.137 399.523 111.615 403.481 122.214 407.09C126.051 408.257 130.237 410.108 134.543 411.275C160.49 418.144 185.055 426.181 212.76 428.971C224.271 430.943 237.66 431.413 249.292 432.567L249.761 432.111C283.986 432.218 314.588 428.274 346.465 420.465C353.334 418.614 359.277 416.749 366.253 415.112C381.615 411.275 396.976 405.922 411.533 399.174C415.839 395.914 424.224 394.519 422.95 387.301C422.011 385.436 419.555 385.785 417.825 386.026C408.393 390.212 402.92 402.327 392.442 403.722C384.07 404.648 373.941 408.834 367.77 401.039C367.662 399.053 367.662 396.96 368.937 395.444C374.518 390.105 382.326 389.984 389.772 388.696H403.161C400.934 394.639 394.078 390.561 390.228 392.077C385.116 392.882 379.173 393.003 374.987 396.732C374.518 397.658 373.713 398.933 374.759 399.872C380.461 404.178 388.256 400.341 394.186 398.356C404.664 393.003 412.338 378.111 426.076 382.887C427.82 383.571 428.987 385.557 429.229 387.301C429.108 391.728 426.076 395.565 422.467 397.9C414.565 404.058 405.254 407.438 396.051 411.047C364.509 421.646 330.875 429.548 296.785 433.975C286.884 434.445 276.875 435.948 266.746 436.417C242.785 436.645 219.159 434.794 195.761 430.595C193.897 431.064 192.152 429.79 190.18 429.897C159.685 423.028 129.311 416.4 100.909 403.722C94.2683 399.872 83.1061 395.216 84.6087 385.557C86.004 382.887 88.5664 381.827 91.3704 381.25C105.793 381.72 113.239 398.356 126.977 400.811Z" fill="#F0B83D"/>
<path d="M67.3961 356.229L61.5732 372.986C54.3554 369.498 47.6071 363.34 44.6958 355.531C44.5751 353.908 44.5751 352.15 45.6215 350.876C50.1696 348.662 55.174 350.876 59.4671 351.922C62.2711 353.09 65.0617 354.713 67.3961 356.229Z" fill="#00B6F1" stroke="white" stroke-width="0.228074" stroke-miterlimit="3.864"/>
<path d="M39.1012 368.8C49.5792 381.719 65.1819 386.254 79.8458 391.151C79.4969 395.444 77.5116 399.643 76.5859 403.95C74.493 410.819 72.279 417.554 70.0654 424.316C68.6701 425.362 70.0656 429.548 66.9263 427.925C53.0674 423.39 39.9196 416.749 28.9854 405.694C24.2093 400.341 19.782 393.713 22.3445 386.482C24.7997 377.292 29.0929 368.8 31.7761 359.596L32.8222 357.745C34.2175 361.703 36.4313 365.54 39.1012 368.8Z" fill="#00B6F1" stroke="white" stroke-width="0.228074" stroke-miterlimit="3.864"/>
<path d="M102.775 395.216C99.8635 394.062 96.1339 392.077 95.0874 389.394C98.1194 390.333 100.561 393.003 102.775 395.216Z" fill="#00B6F1" stroke="#00B6F1" stroke-width="0.228074" stroke-miterlimit="3.864"/>
<path d="M135.242 397.658C135.242 399.053 133.498 398.007 132.8 398.597C129.54 397.899 125.233 397.551 122.429 395.216C126.978 395.444 131.525 395.444 135.242 397.658Z" fill="#00B6F1" stroke="#00B6F1" stroke-width="0.228074" stroke-miterlimit="3.864"/>
<path d="M144.673 407.318C144.203 408.364 144.673 410.001 143.505 410.47L137.911 408.834C140.138 408.136 142.459 407.908 144.673 407.318Z" fill="#00B6F1" stroke="#00B6F1" stroke-width="0.228074" stroke-miterlimit="3.864"/>
<path d="M66.4565 346.569C70.0655 348.434 74.144 349.36 77.1626 352.62C76.3443 357.745 73.795 362.051 72.507 366.935C70.8837 370.074 70.7632 373.804 68.8983 376.836C67.3957 376.595 65.8796 375.548 64.8331 374.85C65.182 371.939 66.5773 368.572 67.1542 365.66C68.4421 362.749 69.8372 359.838 70.5348 356.698C71.2325 354.257 68.4422 353.318 66.9261 352.378C60.634 348.783 52.839 346.328 45.6212 347.039C43.8771 347.508 42.1328 349.011 41.556 350.648C40.1607 361.354 50.2767 368.8 57.9642 374.381C65.2894 378.808 72.9765 381.948 80.9994 384.631C81.5897 385.436 80.9994 386.844 80.5433 387.77C71.1117 385.905 62.2705 382.296 54.1135 377.292C43.877 371.59 34.2174 361.112 35.9615 349.252C36.6592 345.402 40.3888 342.142 44.2258 341.444C52.0206 341.337 59.5875 344.128 66.4565 346.569Z" fill="#F0B83D"/>
<path d="M83.1865 442.495C85.2257 443.058 86.2183 443.192 87.0904 441.059L93.2887 425.711C92.3764 422.746 91.8933 422.438 91.4774 422.263L91.7996 421.458L98.628 424.222L104.277 442.589L104.344 442.602L108.315 432.795C109.093 430.849 109.133 429.629 106.598 428.367L106.919 427.576L113.882 430.38L113.56 431.185C111.105 430.541 110.609 431.212 109.978 432.768L102.277 451.832L101.365 451.457L94.0535 428.086L93.9864 428.059L88.7539 441.019C87.8147 443.353 88.244 444.239 90.5382 445.473L90.2164 446.278L82.8643 443.313L83.1865 442.495Z" fill="#231F20"/>
<path d="M114.151 430.595L133.31 436.82L131.15 443.501L130.318 443.232C131.083 438.255 129.003 436.672 124.522 435.21C122.684 434.619 122.054 434.566 121.584 435.974L119.075 443.689C122.255 444.748 124.24 444.44 126.078 440.482L126.937 440.764L123.288 451.993L122.416 451.711C123.368 447.432 122 445.889 118.713 444.816L116.11 452.852C115.627 454.314 116.137 454.918 118.284 455.616C121.544 456.675 125.206 456.917 128.936 452.584L129.862 452.879L126.293 459.359L106.866 453.053L107.135 452.221C109.093 452.637 110.154 452.865 110.824 450.799L116.043 434.74C116.754 432.54 115.386 432.017 113.883 431.426L114.151 430.595Z" fill="#231F20"/>
<path d="M166.581 445.768C165.374 445.594 164.435 446.238 163.724 447.405L152.2 466.322L151.287 466.093L149.234 448.854L149.006 448.813L139.132 463.303L138.18 463.075L135.698 440.925C135.496 439.154 135.228 438.751 133.86 438.215L134.048 437.356L144.056 439.664L143.855 440.522C142.607 440.334 141.641 440.187 141.346 441.448C141.266 441.81 141.279 442.213 141.332 442.629L142.54 455.844L142.607 455.857L148.993 446.399L148.55 442.857C148.282 442.012 147.987 441.542 146.377 441.099L146.565 440.254L157.19 442.696L156.989 443.554C155.5 443.313 154.507 443.125 154.239 444.279C154.145 444.681 154.239 445.567 154.279 446.264L155.312 458.419L155.379 458.446L161.819 447.754C162.007 447.432 162.235 447.096 162.396 446.372C162.718 444.976 161.537 444.668 160.384 444.333L160.585 443.487L166.783 444.923L166.581 445.768Z" fill="#231F20"/>
<path d="M185.122 467.234C182.157 469.689 179.125 471.433 174.711 470.736C166.675 469.461 163.227 463.115 164.247 456.676C165.36 449.672 171.169 445.084 178.414 446.224C181.513 446.721 183.914 448.827 184.8 448.975C185.726 449.122 186.155 448.451 186.638 447.633L187.577 447.781L186.289 455.857L185.43 455.71C184.693 452.53 182.439 448.036 178.508 447.405C173.477 446.613 171.29 451.671 170.364 457.494C170.042 459.573 169.734 462.914 170.646 465.316C171.706 468.039 174.349 468.978 175.422 469.153C178.106 469.582 180.856 468.951 184.223 466.201L185.122 467.234Z" fill="#231F20"/>
<path d="M207.058 474.626L195.829 473.231L195.936 472.372C198.11 472.466 198.74 472.506 198.874 471.366C198.982 470.44 198.19 467.73 197.841 466.563L190.047 465.611C188.772 467.985 188.048 469.327 187.967 469.89C187.806 471.205 189.456 471.514 190.636 471.715L190.516 472.587L183.486 471.728L183.593 470.856C185.512 470.816 186.129 469.703 187.484 467.234L197.519 449.176L198.485 449.297L203.972 468.482C205.072 472.372 205.488 473.62 207.152 473.754L207.058 474.626ZM197.492 465.141L195.024 456.3L190.731 464.323L197.492 465.141Z" fill="#231F20"/>
<path d="M224.217 459.023C223.761 456.541 221.95 452.396 217.844 452.1C216.02 451.98 214.034 452.892 213.873 455.146C213.739 457.038 214.356 457.843 217.187 459.52L222.124 462.417C223.264 463.088 225.773 465.288 225.505 469.099C225.29 472.144 222.768 476.209 216.355 475.767C213.041 475.525 211.565 474.237 210.479 474.157C209.754 474.103 209.526 474.72 209.352 475.27L208.345 475.203L208.949 466.603L209.955 466.67C210.411 470.239 212.156 474.304 216.57 474.626C220.755 474.908 221.171 471.487 221.198 471.031C221.373 468.696 219.789 467.744 217.603 466.509L215.349 465.235C209.58 461.948 209.794 458.956 209.902 457.36C210.063 455.24 211.472 450.571 218.086 451.041C220.876 451.228 222.432 452.489 223.439 452.557C224.244 452.624 224.445 452.114 224.673 451.456L225.72 451.537L225.196 459.09L224.217 459.023Z" fill="#231F20"/>
<path d="M243.362 476.558L230.912 476.115L230.939 475.243C233.501 475.122 234.333 475.082 234.44 472.144L235.084 453.764C232.643 453.818 229.034 453.871 228.135 459.425L227.128 459.385L227.477 452.382L248.42 453.12L248.245 460.137L247.226 460.096C246.73 454.488 243.134 454.18 240.732 453.965L240.088 472.359C239.981 475.31 240.826 475.417 243.402 475.672L243.362 476.558Z" fill="#231F20"/>
<path d="M269.59 476.786H249.412V475.914C251.371 475.673 252.417 475.565 252.417 473.446V456.541C252.417 454.234 250.982 454.167 249.412 454.073V453.187H261.594V454.073C259.152 454.167 258.079 454.207 258.079 457.279V473.741C258.079 475.418 258.844 475.699 261.178 475.699C266.451 475.699 268.409 472.802 270.006 468.871H271.025L269.59 476.786Z" fill="#231F20"/>
<path d="M270.315 453.134L290.426 452.087L290.802 459.09L289.929 459.144C288.87 454.22 286.334 453.483 281.639 453.724C279.72 453.831 279.103 454.006 279.17 455.508L279.599 463.585C282.953 463.451 284.684 462.458 284.979 458.098L285.878 458.057L286.495 469.837L285.596 469.877C284.952 465.544 283.114 464.591 279.666 464.779L280.109 473.204C280.189 474.747 280.874 475.136 283.128 475.002C286.549 474.841 290.064 473.741 291.982 468.361L292.962 468.307L291.942 475.633L271.549 476.692L271.496 475.834C273.481 475.512 274.555 475.351 274.447 473.191L273.549 456.327C273.441 454.019 271.965 454.033 270.356 454.006L270.315 453.134Z" fill="#231F20"/>
<path d="M322.838 450.008C320.96 450.477 320.195 450.947 320.437 453.241L321.604 464.323C321.819 466.362 321.658 469.515 320.37 471.218C318.827 473.285 315.875 474.264 313.782 474.465C312.266 474.626 308.98 474.76 306.511 473.03C304.888 471.862 303.855 470.749 303.452 467.006L302.231 455.401C301.923 452.476 301.024 452.503 299.052 452.503L298.958 451.644L310.697 450.41L310.791 451.269C308.51 451.617 307.437 451.765 307.759 454.824L308.979 466.415C309.181 468.401 309.69 473.177 314.681 472.654C320.799 472.023 320.316 466.697 320.075 464.483L318.961 453.885C318.746 451.765 318.21 450.638 315.204 450.799L315.111 449.94L322.744 449.149L322.838 450.008Z" fill="#231F20"/>
<path d="M326.34 471.406C328.366 470.829 329.292 470.44 328.943 468.16L326.34 451.819C324.033 449.739 323.469 449.726 323.027 449.806L322.879 448.934L330.164 447.78L344.465 460.62L344.519 460.606L342.869 450.155C342.547 448.089 341.943 447.016 339.126 447.244L338.992 446.385L346.397 445.218L346.532 446.077C344.103 446.774 344.023 447.606 344.291 449.256L347.498 469.568L346.532 469.716L328.232 453.469L328.165 453.482L330.352 467.261C330.741 469.756 331.573 470.293 334.162 470.159L334.296 471.031L326.474 472.265L326.34 471.406Z" fill="#231F20"/>
<path d="M363.396 465.409L351.442 467.958L351.254 467.1C353.065 466.536 354.367 466.107 353.924 464L350.409 447.472C349.926 445.218 348.303 445.486 346.706 445.714L346.532 444.869L358.486 442.32L358.66 443.179C357.077 443.581 355.44 443.97 355.937 446.291L359.451 462.82C359.921 465.007 361.303 464.819 363.208 464.551L363.396 465.409Z" fill="#231F20"/>
<path d="M381.36 460.727L369.313 463.96L369.098 463.115C371.5 462.243 372.291 461.961 371.54 459.13L366.764 441.354C364.443 442.119 361.008 443.232 361.786 448.8L360.807 449.055L359.103 442.253L379.335 436.833L381.212 443.595L380.233 443.863C378.113 438.644 374.599 439.409 372.238 439.892L377 457.668C377.765 460.539 378.596 460.378 381.132 459.882L381.36 460.727Z" fill="#231F20"/>
<path d="M380.742 436.417L399.78 429.87L402.074 436.511L401.256 436.779C398.868 432.365 396.251 432.339 391.797 433.868C389.972 434.499 389.422 434.834 389.905 436.256L392.549 443.917C395.728 442.857 397.124 441.421 396.211 437.155L397.07 436.86L400.907 448.022L400.049 448.317C398.224 444.333 396.211 443.917 392.938 445.044L395.688 453.026C396.185 454.489 396.949 454.663 399.095 453.925C402.329 452.812 405.415 450.786 405.777 445.084L406.689 444.775L407.736 452.1L388.417 458.741L388.148 457.923C389.946 457.078 390.939 456.622 390.241 454.569L384.74 438.59C383.989 436.417 382.567 436.833 381.024 437.249L380.742 436.417Z" fill="#231F20"/>
<path d="M410.727 449.86C412.74 448.961 412.955 447.754 412.431 446.587L405.429 430.849C404.57 428.904 403.134 429.468 401.833 429.897L401.47 429.092L411.21 424.772C420.146 420.787 425.512 425.04 427.699 429.951C430.302 435.827 429.081 442.334 421.165 446.171L411.076 450.665L410.727 449.86ZM417.57 444.212C418.147 445.486 418.684 445.929 420.213 445.258C423.782 443.662 425.686 440.375 422.292 432.755C420.991 429.843 417.248 423.377 411.761 425.818C409.708 426.731 410.097 427.509 410.446 428.206L417.57 444.212Z" fill="#231F20"/>
<path d="M138.622 147.434C139.897 146.159 141.762 146.159 143.264 146.977C145.009 148.373 146.296 150.814 147.343 152.787C144.78 152.679 141.171 154.303 138.85 152.331C136.757 150.224 134.195 149.526 131.633 148.48C131.525 148.131 131.163 147.554 131.633 147.205C132.33 146.28 133.497 146.28 134.772 146.28C136.06 146.736 137.106 148.48 138.622 147.434Z" fill="#231F20"/>
<path d="M160.383 165.13C160.262 165.479 159.793 165.599 159.914 165.948C160.96 165.827 162.355 166.055 163.294 166.646C164.569 167.92 163.643 169.436 163.643 170.952C162.945 171.757 161.658 171.529 160.96 171.18C159.793 170.603 159.914 169.316 158.988 168.618C158.518 169.087 158.867 170.483 157.821 170.241C156.774 168.618 155.728 166.995 155.137 165.13C155.728 165.251 156.895 166.055 157.821 165.358C158.397 164.66 159.216 164.083 160.142 163.962C160.611 164.204 160.383 164.781 160.383 165.13Z" fill="#231F20"/>
<path d="M144.27 151.74L141.869 152.035C141.212 152.116 140.433 151.915 139.776 151.23C139.575 151.056 139.414 150.748 139.146 150.587C139.454 150.546 139.655 150.493 139.897 150.211C139.897 150.211 140.151 151.539 141.6 151.539C142.62 151.539 143.103 150.466 143.103 150.466L144.27 151.74Z" fill="white"/>
<path d="M359.518 164.902H360.203C359.746 166.404 358.23 168.041 357.761 169.785C356.594 170.134 356.594 168.739 356.366 168.041C355.561 169.087 355.319 170.603 353.924 171.18C352.998 171.408 352.18 171.18 351.482 170.483C351.938 168.967 350.436 166.404 352.757 165.948C353.334 165.827 353.924 165.599 354.622 165.707L355.199 166.176C355.561 165.599 354.742 164.781 354.85 163.962C356.943 163.037 357.654 166.874 359.518 164.902Z" fill="#231F20"/>
<path d="M370.278 151.606C370.278 151.606 371.311 152.156 372.089 152.129C372.841 152.102 374.102 151.915 374.787 151.257C375.001 151.096 375.175 150.801 375.443 150.627C375.135 150.573 374.934 150.519 374.706 150.238C374.706 150.238 374.411 151.552 372.948 151.512C371.942 151.472 371.486 150.372 371.486 150.372L370.278 151.606Z" fill="white"/>
<path d="M142.459 209.698C141.412 208.651 139.896 208.075 138.85 207.256C140.245 207.846 141.64 208.651 142.459 209.698Z" fill="#BBBDBF"/>
<path d="M130.358 132.77V133.937C121.517 136.379 111.723 143.369 109.053 152.787C105.096 163.962 105.565 178.975 112.434 188.863C112.783 191.076 112.085 192.485 110.569 193.531C108.356 194.336 105.324 194.108 103.472 192.834C102.896 192.713 102.064 192.834 102.064 193.531C102.426 196.201 105.565 196.081 107.658 196.671C111.388 196.671 114.755 194.457 116.62 191.304C117.438 192.485 116.727 193.531 116.62 194.685C114.634 198.884 109.174 196.778 106.142 198.294C107.538 201.326 111.147 199.918 113.481 200.038C118.592 198.764 120.229 191.076 126.28 192.592C121.275 194.806 123.717 202.601 117.09 202.48C115.453 202.48 113.709 201.326 112.434 202.721C114.179 204.466 116.969 205.391 119.759 204.694C124.777 203.07 126.28 194.685 133.028 197.127C133.605 197.368 134.074 197.838 134.772 197.838C132.102 197.838 129.191 197.838 126.749 199.582C124.536 201.554 124.066 205.982 120.229 205.633C118.955 206.21 116.969 204.345 116.62 206.33C117.546 208.075 121.276 207.256 120.001 209.939C122.792 212.26 127.098 210.865 130.117 210.167L130.358 210.516C131.982 210.047 133.497 209.349 135.242 209.228C137.911 209.819 141.172 210.288 142.46 213.307L142.809 214.595C139.2 212.26 133.726 210.865 129.889 212.851C126.749 212.958 124.777 212.26 121.973 211.442C121.276 211.683 121.276 212.502 121.745 212.851C127.206 219.827 142.339 215.051 140.139 227.863C139.307 229.487 138.153 231.352 136.409 232.049C137.455 230.184 137.683 227.863 137.227 225.77C135.121 219.706 128.494 219.827 124.294 216.218C123.838 216.218 123.489 216.339 123.141 216.795C122.671 218.66 124.992 219.358 126.052 220.176C128.963 221.692 133.149 221.692 134.544 225.77C134.665 227.045 135.242 229.017 134.075 230.077C133.967 227.166 131.405 223.785 128.252 222.041C123.838 220.753 120.457 217.037 119.531 212.381C116.043 204.586 106.732 203.768 102.064 196.899C99.1523 190.379 102.775 184.328 106.732 179.444C106.732 178.854 106.612 178.049 105.914 178.049C101.487 179.914 101.607 186.193 96.7239 187.467C99.0449 182.477 98.3475 174.561 104.975 172.924C105.217 172.455 105.565 172.106 105.445 171.408C103.473 169.906 101.259 172.227 99.3937 173.166C98.4546 173.863 97.7703 175.138 96.7239 175.366C97.8777 172.696 100.333 169.436 103.244 168.618C103.821 168.269 104.049 167.571 104.277 167.102C103.124 166.055 101.836 167.102 100.561 167.102L95.0874 170.483C94.7386 165.827 100.682 164.311 103.003 160.595C101.138 159.776 99.1525 161.869 97.1804 162.567L94.5105 163.265C94.6178 162.098 96.1335 160.823 96.9519 159.656C98.8168 158.502 101.031 158.032 103.003 157.214C103.244 156.516 102.654 156.168 102.305 155.698H101.138C102.184 154.88 104.398 155.47 104.975 154.303C103.472 153.136 101.607 152.438 99.6353 153.028C99.6353 152.907 102.305 152.679 101.836 150.922C101.259 150.466 100.789 149.647 100.091 149.419V148.95C103.003 148.252 105.324 150.814 107.658 151.861C108.007 151.633 108.128 151.163 108.128 150.694C107.189 148.48 104.868 147.554 103.003 146.28C104.747 145.569 106.384 147.554 108.128 148.252C109.644 144.992 105.096 144.415 104.049 141.732C106.733 140.216 108.477 144.174 110.798 144.871C111.723 144.522 111.146 143.476 111.039 142.899C109.979 140.927 108.128 139.988 106.96 138.016C109.402 137.425 110.57 140.806 113.011 141.732C113.481 141.034 113.011 139.639 112.434 138.82C111.039 137.774 110.328 136.03 109.295 134.635C112.314 134.407 113.937 137.546 116.392 138.472C116.513 135.56 113.132 133.36 113.709 129.859C117.439 129.979 117.667 134.514 120.457 135.923C120.927 133.011 118.834 130.556 118.485 127.645C119.639 126.947 120.927 128.584 122.215 129.054C123.597 130.677 123.02 134.984 126.052 133.709C125.112 131.146 124.536 127.766 126.508 125.445C127.098 128.007 128.024 131.026 130.358 132.77Z" fill="#F0B83D"/>
<path d="M139.079 204.694C139.199 204.935 138.502 204.586 137.683 204.694C135.47 204.117 132.907 205.043 130.707 206.103C128.842 207.028 127.098 208.652 125.113 208.075C128.614 206.103 131.163 200.749 136.986 203.191L139.079 204.694Z" fill="#F0B83D"/>
<path d="M130.935 228.092C131.284 229.728 131.284 231.808 129.66 232.519C128.963 233.096 128.251 233.324 127.205 233.216C126.749 230.654 126.977 227.622 128.963 225.999C130.009 226.106 130.465 227.273 130.935 228.092Z" fill="#F0B83D"/>
<path d="M129.19 265.442C135.12 269.293 141.761 272.432 149.086 272.432C154.332 274.055 160.49 272.553 165.508 271.962C163.978 276.738 159.792 280.227 155.137 281.394C145.249 282.91 135.12 281.515 126.976 276.041C123.595 273.022 118.591 270.111 120.228 264.744C121.275 263.47 121.154 260.102 123.368 260.8C125.112 262.772 126.976 264.516 129.19 265.442Z" fill="#BBBDBF"/>
<path d="M155.137 284.064L158.277 282.91C158.277 285.003 155.607 286.519 154.668 288.504C148.738 292.221 141.064 292.798 133.846 291.402C126.856 289.886 119.182 287.324 115.922 280.455C114.755 277.208 116.62 274.055 118.485 271.493C128.024 282.319 141.641 286.049 155.137 284.064Z" fill="#BBBDBF"/>
<path d="M144.673 294.314C145.948 293.844 147.692 294.085 148.859 293.965C149.208 293.844 148.966 293.374 149.557 293.495H150.254C148.161 298.499 143.506 301.759 138.153 302.001C129.312 302.35 121.034 299.787 114.406 293.965C113.239 291.751 110.449 289.765 111.495 286.747C112.542 285.472 112.206 283.607 113.709 282.44C121.517 291.402 132.679 296.635 144.673 294.314Z" fill="#BBBDBF"/>
<path d="M110.099 291.872C117.787 301.88 129.54 305.489 141.762 303.973C139.199 308.856 134.316 311.07 128.963 310.721C121.275 310.614 112.541 307.126 108.583 299.787C106.262 296.997 109.053 294.783 109.523 291.872H110.099Z" fill="#BBBDBF"/>
<path d="M134.075 313.163C131.754 317.121 128.145 318.516 124.066 319.214C116.271 319.576 108.584 316.316 104.975 309.326C104.049 306.415 105.565 303.383 106.383 300.592C111.844 310.842 122.912 314.33 134.075 313.163Z" fill="#BBBDBF"/>
<path d="M126.507 321.427C124.065 326.901 117.787 325.734 112.434 325.506C108.007 324.567 103.351 321.32 102.305 316.772C102.774 315.149 102.305 313.042 103.472 311.647C108.584 319.683 118.015 322.474 126.507 321.427Z" fill="#BBBDBF"/>
<path d="M121.154 328.417C120.698 329.812 119.638 331.436 118.015 331.785C114.057 333.301 108.932 332.831 104.974 331.556C103.592 330.617 101.714 329.571 101.137 327.948C100.56 325.734 101.03 323.413 101.607 321.427C106.141 327.827 113.829 328.766 121.154 328.417Z" fill="#BBBDBF"/>
<path d="M117.787 334.937C117.787 336.44 117.09 337.607 115.922 338.533C112.783 339.579 108.235 340.867 104.747 339.351C103.124 339.002 102.305 337.607 101.366 336.44V331.785C105.914 335.045 112.206 335.742 117.787 334.937Z" fill="#BBBDBF"/>
<path d="M116.391 341.216C116.512 342.839 116.271 344.476 114.634 345.174C111.039 346.797 106.732 347.388 103.472 344.597C102.305 343.658 102.774 342.034 102.305 340.747C106.491 342.719 111.964 343.309 116.391 341.216Z" fill="#BBBDBF"/>
<path d="M116.619 348.541C117.196 350.178 115.452 350.876 115.573 352.378C114.057 353.438 112.541 354.834 110.569 354.605C109.75 354.364 108.476 354.257 107.429 354.136C106.49 352.043 105.095 350.286 104.746 347.965C108.355 349.829 112.433 348.89 116.163 347.736L116.619 348.541Z" fill="#BBBDBF"/>
<path d="M119.759 358.201C120.456 361.354 115.573 360.187 117.089 362.749C118.954 363.34 120 362.052 121.154 361.112V360.656C124.065 361.233 126.158 364.373 129.19 364.024C129.66 363.796 129.418 363.219 129.418 362.749C127.097 361.461 124.535 359.959 122.912 357.504C122.429 356.578 121.382 355.88 121.382 354.834C128.372 358.443 137.562 357.155 143.264 363.34C143.626 364.493 144.552 366.237 143.505 367.405C138.152 372.167 131.055 369.605 124.884 368.572C118.712 366.13 112.89 361.81 109.053 356.229C111.723 357.047 115.224 356.229 117.089 354.136C118.712 354.713 118.833 356.819 119.759 358.201Z" fill="#BBBDBF"/>
<path d="M91.9474 289.658L92.1755 289.417C90.901 286.398 85.7759 285.231 87.7615 281.166C90.1898 278.375 93.2222 280.575 96.4823 280.227C99.1521 281.045 102.305 280.696 104.975 281.394C103.821 284.533 99.9836 284.882 97.998 286.975C98.226 289.537 102.063 290.476 101.137 293.495C99.4068 292.744 93.866 290.275 91.9474 289.658Z" fill="#BBBDBF"/>
<path d="M139.656 125.445C139.548 127.766 139.079 129.51 138.381 131.267C138.153 131.724 138.851 130.1 137.912 130.328C137.227 129.979 136.637 130.798 136.409 131.267C135.819 129.282 138.26 127.417 139.079 125.445H139.656Z" fill="#BBBDBF"/>
<path d="M144.901 131.026C145.478 132.663 144.552 134.165 143.505 135.332V133.709H141.762C142.567 132.77 143.506 131.147 144.901 131.026Z" fill="#BBBDBF"/>
<path d="M82.409 237.63C81.8187 249.276 83.3347 260.33 91.3709 269.064C94.2688 272.083 97.1801 274.873 100.561 277.315C96.0129 277.664 90.5527 275.464 86.1253 278.254C84.7301 279.77 84.73 282.212 85.0788 284.064C86.8229 286.867 89.1438 288.504 91.9478 289.658C93.2358 289.752 98.9107 292.046 101.138 293.495C93.3431 291.281 82.6371 290.235 75.4192 294.555C69.0197 298.392 67.6245 305.717 68.2014 312.237C69.2479 318.288 72.7493 323.413 72.7493 329.812C69.127 324.446 60.8762 322.474 59.4675 315.377C59.5883 311.419 58.5418 307.931 56.5696 304.899C57.2672 301.759 57.9649 298.499 58.6626 295.253C58.7833 294.434 58.5418 293.737 57.9649 293.267H57.7233V292.569C59.5882 287.324 63.318 281.514 69.5967 281.166C71.6897 278.603 67.0476 278.482 66.2292 276.618C64.8339 275.115 64.4849 273.25 63.5458 271.493C65.6521 269.762 68.6707 268.715 71.3405 269.762C71.8101 269.99 72.2798 270.46 72.9774 270.339C74.1446 269.762 73.4469 268.823 73.2054 268.125C67.5036 264.516 65.8804 257.191 66.4573 250.899C68.899 247.88 66.4573 243.104 67.9734 239.267C68.2014 238.798 68.7784 239.965 69.5967 239.495C71.2335 235.068 73.0848 230.654 75.4192 226.455L76.1169 226.227C76.1169 226.817 76.345 227.273 76.9353 227.622H77.861L84.1531 221.102C85.1996 226.455 82.2882 231.808 82.409 237.63Z" fill="#F0B83D"/>
<path d="M111.267 275.571L110.1 278.482C111.267 274.404 104.398 269.292 111.039 267.428C112.663 266.381 113.481 264.637 114.179 263C115.681 259.163 108.477 255.554 114.179 253.341C117.667 250.08 118.713 244.62 117.09 240.542C116.392 239.965 116.62 238.905 115.923 238.341C118.136 236.825 119.881 234.84 121.745 232.747C121.973 248.578 117.318 262.423 111.267 275.571Z" fill="#F0B83D"/>
<path d="M80.7721 227.863C80.4233 235.658 77.1632 243.574 79.8464 251.838C80.4233 257.647 82.7579 262.651 85.307 267.656C85.5485 268.474 85.0789 269.172 84.3812 269.292C82.5164 269.52 82.2882 267.428 81.4698 266.381C76.2375 254.629 75.7679 240.313 80.0745 227.863H80.7721Z" fill="#231F20"/>
<path d="M72.2792 247.29V248.001C71.9304 248.001 71.4607 248.229 71.3399 247.759C71.2326 247.29 71.34 246.834 71.8096 246.592C71.9303 246.941 72.3999 246.713 72.2792 247.29Z" fill="#231F20"/>
<path d="M72.5076 249.973C73.7956 256.95 75.6469 263.711 81 269.064C81.2414 269.762 80.5438 270.339 80.0742 270.567C77.8606 270.339 76.8143 267.897 75.6471 266.381C72.7492 261.484 71.8099 255.675 71.3403 249.745C71.8099 249.276 72.0515 249.745 72.5076 249.973Z" fill="#231F20"/>
<path d="M71.81 286.049C71.81 287.914 69.9454 287.686 69.127 289.188C64.0154 293.616 62.4992 300.015 61.5734 306.415H61.1038C59.8293 297.573 63.4382 289.886 70.2938 285.351C70.9915 285.123 71.3404 285.7 71.81 286.049Z" fill="#231F20"/>
<path d="M70.0655 297.922C63.3172 306.884 69.1265 317.013 70.884 326.203C69.596 325.975 69.3682 324.339 68.8987 323.292C65.7593 315.028 61.6942 303.047 68.8987 295.253C70.0659 294.313 70.884 292.797 72.2793 292.341C74.721 294.662 70.5351 295.937 70.0655 297.922Z" fill="#231F20"/>
<path d="M219.736 219.706C219.387 219.358 218.569 218.553 218.81 217.734C219.159 218.311 219.615 219.009 219.736 219.706Z" fill="#BBBDBF"/>
<path d="M296.315 219.706C295.738 219.358 296.194 218.432 296.785 217.962C296.664 218.553 296.543 219.237 296.315 219.706Z" fill="#BBBDBF"/>
<path d="M149.315 306.415C150.133 310.144 151.649 314.33 150.724 318.288C151.072 318.516 151.3 318.865 151.757 318.758C154.212 315.605 153.045 310.963 152.696 307.582C157.002 312.814 157.472 320.153 157.821 326.901C158.049 327.478 158.518 327.478 158.988 327.25C161.416 324.446 159.216 320.502 159.914 317.014C163.402 322.125 163.294 329.571 162.825 335.394C163.173 335.635 163.402 336.091 163.871 335.863C164.689 335.045 165.159 333.998 165.266 332.724C166.434 338.654 165.508 345.402 163.294 351.225C164.327 334.937 153.286 321.079 140.138 312.237C140.366 310.614 141.99 308.628 143.734 307.81C144.083 309.675 142.808 312.237 144.431 313.405C147.235 310.721 143.626 304.671 147.571 302.927L149.315 306.415Z" fill="#BBBDBF"/>
<path d="M371.848 312.707C373.122 310.963 371.378 308.977 372.318 307.126C373.834 308.159 375.336 309.447 375.913 311.191C362.765 320.502 351.71 333.998 352.757 350.648C350.543 345.63 349.617 338.426 350.785 331.557C351.013 332.952 351.241 334.468 352.529 335.166C354.501 333.998 351.71 331.087 352.998 328.873C352.998 324.446 353.334 319.576 356.366 316.074C356.366 319.804 355.091 323.99 357.305 326.673C357.882 326.901 358.351 326.432 358.579 325.976C357.761 319.455 359.277 312.586 363.114 307.354C363.342 311.07 361.37 315.498 364.858 317.939L365.328 317.47C364.979 312.117 365.328 306.294 368.709 302.229C372.318 304.778 368.587 310.252 371.848 312.707Z" fill="#BBBDBF"/>
<path d="M171.787 318.986L170.392 318.758C171.788 317.59 174.108 318.06 175.745 316.772C177.731 315.028 178.415 312.707 180.28 310.721C178.294 314.102 176.201 318.637 171.787 318.986Z" fill="white"/>
<path d="M176.899 321.427C175.503 319.925 178.294 319.214 178.884 317.711C179.005 319.334 177.261 320.032 176.899 321.427Z" fill="white"/>
<path d="M176.671 325.506C179.005 323.292 180.977 320.153 182.265 317.013C182.372 320.381 179.233 323.413 176.671 325.506Z" fill="white"/>
<path d="M339.381 321.427C338.442 319.925 337.288 318.516 336.698 316.772C337.288 318.637 340.884 318.986 339.381 321.427Z" fill="white"/>
<path d="M342.748 321.897V322.823C342.4 322.943 342.292 322.595 342.051 322.353V321.427C342.4 321.32 342.52 321.669 342.748 321.897Z" fill="white"/>
<path d="M173.531 323.534C172.94 323.292 173.53 322.595 173.759 322.125H174.228L173.531 323.534Z" fill="white"/>
<path fill-rule="evenodd" clip-rule="evenodd" d="M186.423 229.312C187.134 229.648 185.793 227.998 185.833 227.126C185.873 226.267 184.961 228.937 184.961 228.937C184.961 228.937 185.726 228.964 186.423 229.312Z" fill="#231F20"/>
<path fill-rule="evenodd" clip-rule="evenodd" d="M226.244 91.1129C226.364 97.5124 226.136 104.838 226.015 110.888C225.787 111.358 225.318 111.13 224.862 111.13C224.513 103.791 224.513 97.1636 224.862 90.2945C225.439 90.2945 226.244 90.4152 226.244 91.1129Z" fill="white"/>
<path fill-rule="evenodd" clip-rule="evenodd" d="M153.393 176.292C153.393 176.292 156.278 176.587 157.284 177.929C158.303 179.284 161.027 183.456 164.569 181.645C164.569 181.645 165.629 183.456 162.355 183.456C159.202 183.456 157.405 181.081 156.506 179.512C155.607 177.929 154.48 177.432 153.635 177.231L153.393 176.292Z" fill="white"/>
<path fill-rule="evenodd" clip-rule="evenodd" d="M361.947 176.064C361.947 176.064 360.941 178.063 359.331 178.734C357.721 179.404 357.922 180.464 357.761 180.719C357.761 180.719 355.132 183.335 352.878 183.335C350.61 183.335 350.919 183.013 350.731 182.222C350.543 181.417 351.523 181.202 352.086 181.538C352.65 181.873 354.005 182.665 355.923 180.075C357.828 177.486 360.887 175.782 361.947 176.064Z" fill="white"/>
<path d="M197.975 246.244C203.677 267.548 195.412 287.565 190.408 307.126C191.213 302.806 191.924 297.694 191.683 293.039C189.12 285.58 194.487 278.603 191.213 271.734C191.455 268.716 189.832 265.791 187.618 263.47C187.376 258.238 188.302 252.415 184.935 248.457C183.07 248.685 180.628 249.276 179.112 248.001C180.4 242.635 182.265 237.63 183.888 232.519C190.985 233.324 196.11 239.965 197.975 246.244Z" fill="#F0B83D"/>
<path fill-rule="evenodd" clip-rule="evenodd" d="M231.14 27.3325C231.958 28.379 231.717 30.1231 231.382 31.2903C230.791 31.9879 230.214 32.3368 229.503 32.4575C229.852 30.9415 230.912 29.5462 230.214 27.9094C228.926 26.4068 227.424 24.4213 225.318 24.4213C223.345 24.6494 221.601 25.9372 220.555 27.5606C218.69 30.4719 221.708 32.8063 221.95 35.1273C220.555 34.4297 219.508 33.3832 218.81 31.9879C218.22 29.895 218.569 27.6814 219.736 25.9373C222.299 24.542 225.438 22.3283 228.47 24.1931C229.624 25.2396 230.442 26.1653 231.14 27.3325Z" fill="white"/>
<path fill-rule="evenodd" clip-rule="evenodd" d="M226.605 30.0024L226.015 33.1552C226.243 46.1822 226.712 58.7532 226.605 72.1291C226.014 72.7194 225.907 73.9939 224.861 73.8866C224.74 57.7067 223.922 43.7406 224.619 29.0768C225.438 29.0768 226.605 28.9559 226.605 30.0024Z" fill="white"/>
<path d="M100.909 307.81C99.9833 305.717 99.7416 303.504 98.2256 301.76C101.137 300.364 104.277 297.332 104.277 293.737C104.518 291.523 103.002 289.886 102.304 287.914C104.169 285.928 106.96 284.654 108.583 282.091C105.215 290.356 103.471 299.546 100.909 307.81Z" fill="#F0B83D"/>
<path d="M98.9239 319.925C98.2262 319.925 97.1801 317.939 96.2544 317.242C97.4216 316.195 98.924 314.451 99.8631 312.935C99.635 315.256 99.6349 317.818 98.9239 319.925Z" fill="#F0B83D"/>
<path d="M342.99 327.478C344.037 328.994 344.037 331.785 344.037 333.77C345.553 353.317 337.288 370.544 320.759 380.203C300.032 395.337 275.829 404.527 258.495 425.241L257.798 425.469C248.017 412.912 233.702 404.876 221.024 396.504C216.355 394.518 212.398 391.379 207.863 389.165C205.072 387.072 201.812 385.784 199.142 383.343C182.493 373.925 171.666 359.019 172.015 339.821C172.94 336.44 171.21 331.677 172.605 328.645C174 327.827 176.094 329.235 177.838 328.417L178.884 327.948C179.112 328.766 178.066 330.269 179.582 331.087C181.447 331.208 182.963 330.617 184.707 330.04C182.614 349.829 192.381 366.827 209.379 375.897C226.135 385.208 243.831 393.351 258.026 408.136C260.226 408.256 260.226 405.694 261.635 404.648C277.815 388.937 298.757 382.417 316.104 369.148C327.736 359.019 333.089 344.825 331.224 329.571C333.33 329.571 335.88 331.785 337.516 329.571L336.698 326.901C338.442 328.417 341.125 328.524 342.99 327.478Z" fill="#F0B83D"/>
<path d="M221.024 244.848C221.024 244.848 237.217 242.125 242.543 239.267V389.635C242.543 389.635 242.235 390.534 239.981 388.736C237.74 386.925 220.782 377.762 220.782 377.762L221.024 244.848Z" fill="white"/>
<path d="M273.105 239.267C273.105 239.267 281.437 242.487 285.958 243.171C290.452 243.842 294.169 244.325 294.571 245.546V378.111C294.571 378.111 275.453 388.776 273.267 390.44L273.105 239.267Z" fill="white"/>
<path d="M225.773 123.017L225.947 187.159L225.223 192.874C225.223 192.874 224.512 183.242 224.512 178.05C224.512 172.871 224.512 124.626 224.512 124.626C224.512 124.626 224.512 123.017 225.773 123.017Z" fill="white"/>
</svg>
